/* XPM */
static char *result[] = {
/* columns rows colors chars-per-pixel */
"64 64 245 2 ",
"   c #3E102B",
".  c #391334",
"X  c #2B123C",
"o  c #3E213D",
"O  c #44142B",
"+  c #4C1A2D",
"@  c #48172C",
"#  c #511E2E",
"$  c #491B32",
"%  c #511D31",
"&  c #55212F",
"*  c #552231",
"=  c #5B2533",
"-  c #5A2A37",
";  c #4E2338",
":  c #642B39",
">  c #692E3A",
",  c #622B36",
"<  c #6C313D",
"1  c #643A3D",
"2  c #71353F",
"3  c #13134F",
"4  c #1D1348",
"5  c #181857",
"6  c #261545",
"7  c #351A4A",
"8  c #2A1A53",
"9  c #19215E",
"0  c #352854",
"q  c #291B6D",
"w  c #231965",
"e  c #2A1E70",
"r  c #1D2868",
"t  c #1E386F",
"y  c #2A2272",
"u  c #232B72",
"i  c #27367A",
"p  c #292E68",
"a  c #1F1960",
"s  c #4B2F4A",
"d  c #693D43",
"f  c #713440",
"g  c #793C43",
"h  c #2E4478",
"j  c #49435C",
"k  c #784748",
"l  c #714E50",
"z  c #786A49",
"x  c #504E6B",
"c  c #72696D",
"v  c #685A67",
"b  c #834346",
"n  c #89474A",
"m  c #95524F",
"M  c #9E5653",
"N  c #985B52",
"B  c #8B554F",
"V  c #A25B54",
"C  c #97795B",
"Z  c #8B7154",
"A  c #A76658",
"S  c #B5775E",
"D  c #AD725C",
"F  c #857568",
"G  c #907767",
"H  c #BB7D62",
"J  c #9B8757",
"K  c #A98E5C",
"L  c #97886C",
"P  c #A99768",
"I  c #B59C66",
"U  c #AA9A75",
"Y  c #AF8A68",
"T  c #BBA56D",
"R  c #B8A36A",
"E  c #BBA674",
"W  c #BDAA74",
"Q  c #BCAB7B",
"!  c #B6A376",
"~  c #B1A676",
"^  c #C48A66",
"/  c #CA916A",
"(  c #CA9A68",
")  c #D09E6C",
"_  c #CBAD6A",
"`  c #C7A866",
"'  c #CDB26D",
"]  c #CFB066",
"[  c #D4B36C",
"{  c #DAB46D",
"}  c #D9BA6E",
"|  c #C2AD7B",
" . c #C5AC74",
".. c #CDB474",
"X. c #C4B37C",
"o. c #CAB67A",
"O. c #D3B573",
"+. c #D6BA73",
"@. c #DBBC73",
"#. c #D4BC7C",
"$. c #DBBD7B",
"%. c #D6B776",
"&. c #D4A96D",
"*. c #E1BE75",
"=. c #DCC176",
"-. c #DCC37C",
";. c #D8C27C",
":. c #E3C474",
">. c #E2C57B",
",. c #E4CA7D",
"<. c #E9CB7B",
"1. c #F1D17E",
"2. c #293E84",
"3. c #273C81",
"4. c #2A4687",
"5. c #2E4B93",
"6. c #33599B",
"7. c #34549A",
"8. c #324F91",
"9. c #366897",
"0. c #365CA5",
"q. c #3659A5",
"w. c #3664A8",
"e. c #3676AB",
"r. c #3B66B2",
"t. c #3C6CB4",
"y. c #3B77B8",
"u. c #415492",
"i. c #4677B2",
"p. c #58708D",
"a. c #3987BB",
"s. c #3B8CB8",
"d. c #4485BB",
"f. c #5596B3",
"g. c #478FB0",
"h. c #52A5B9",
"j. c #6C91A6",
"k. c #71D4B3",
"l. c #3C9AC4",
"z. c #3B93C2",
"x. c #3C8FC0",
"c. c #3FA0C7",
"v. c #459AC5",
"b. c #4D8FC3",
"n. c #47A7CA",
"m. c #4EB6D1",
"M. c #54BBD3",
"N. c #59B7D2",
"B. c #53B0CB",
"V. c #6BABCF",
"C. c #5BCCDB",
"Z. c #59C6D6",
"A. c #67CADA",
"S. c #68D2DD",
"D. c #76D5DB",
"F. c #6FCDCC",
"G. c #77D9E1",
"H. c #7DE0E4",
"J. c #959087",
"K. c #AD9C81",
"L. c #BAAC83",
"P. c #B7AE8B",
"I. c #8DB5AE",
"U. c #8E9BAA",
"Y. c #C8B784",
"T. c #D3BD83",
"R. c #DBBD83",
"E. c #D2BE8B",
"W. c #C5B58B",
"Q. c #D4C284",
"!. c #DCC483",
"~. c #DEC984",
"^. c #D4C38B",
"/. c #DBC58B",
"(. c #DDCA8C",
"). c #D6CA8E",
"_. c #DCCC93",
"`. c #D6C894",
"'. c #DED197",
"]. c #CCC490",
"[. c #E3C583",
"{. c #E4CB84",
"}. c #EACB84",
"|. c #E3CC8B",
" X c #E9CD8B",
".X c #E3C68A",
"XX c #EBD285",
"oX c #E5D28C",
"OX c #EBD38C",
"+X c #EAD78A",
"@X c #F3D78A",
"#X c #E2CE92",
"$X c #EACF92",
"%X c #E5D393",
"&X c #EAD493",
"*X c #ECDA94",
"=X c #E4D49A",
"-X c #ECD699",
";X c #EBDB9B",
":X c #E6D99A",
">X c #F2DC94",
",X c #F2DC9B",
"<X c #F2D695",
"1X c #F1CF93",
"2X c #EEE19B",
"3X c #F3E39C",
"4X c #F6E599",
"5X c #F4E18E",
"6X c #DAD0A7",
"7X c #EBDDA3",
"8X c #E7DBA8",
"9X c #F2DEA4",
"0X c #E7DCB4",
"qX c #EEE2A4",
"wX c #EDE2AC",
"eX c #E7E0AD",
"rX c #F3E4A3",
"tX c #F5E9A9",
"yX c #F9F2AC",
"uX c #EDE5B3",
"iX c #E9E4BA",
"pX c #F4EBB3",
"aX c #F4EAB6",
"sX c #F9F3B5",
"dX c #97B0CA",
"fX c #8ADDD3",
"gX c #8AD0CD",
"hX c #A7D8CF",
"jX c #9DE6D4",
"kX c #B6EECB",
"lX c #B9EDCE",
"zX c #A7EBD4",
"xX c #81DCE2",
"cX c #98DCE6",
"vX c #8CE9E8",
"bX c #85E4E5",
"nX c #98E9E9",
"mX c #AFE6EB",
"MX c #AED6E6",
"NX c #CAE7DA",
"BX c #F7F0C9",
"VX c #C4EAED",
"CX c #CDEBF0",
"ZX c #CFD9D2",
"AX c #A9D5B9",
/* pixels */
"Y.aX$X.X).(.+X4XyXyXyXsX*X].8X7X9XOX X<X-X,X,X X,XrX*X@X4X4Xb.CX#XrX9X9XE..X1X<X,X<X}.@X( T &XrXtX:X*X,X^.'.'.:XyXtXR.1X X*.R..X",
"K >.{.{.+X+XoX+X2X+X+X4XoXQ.%XOX[..X|.&X<X&XOX-X4X;X$.}.[.%.nXCX| R.$X<X=X$X$X}.[.[.}.1X' X._.%X:X:X:XrXqX;X:X%XtX'.%.{ { { *.4X",
"C } =.} =.,.;.;.,.~.~.5XoX| @.<.>.|.{.|. X1X|. X4X X$.=.[.>.CX=XY.-Xj.nX#X1X XR.[.[.}.@X$.Y.#X:X;X%X(.%X-X7X;X:X:X^.*.{ { { *.@X",
"C =.=.>.,.oX;.oX+X+X~.XX,.I _ O.>.[.R.&X&X-XOX/.&X^.#.{.}.U.nX6X! [.p.mX#X[.}. X[..X}.,X!.E.#X*X:X&X=X'.).*X;X2X2X_._ { { { *.5X",
"J =.=.=.=.,.,.oXXX2X+X<.+XX.%X=X$.[..X|. X|.#X|.&XhX..+X XU.d.6X| .Xj.vX_.}.[.[..XR..X,X%XY._.=X%X%X:X%XoX%X&X2XrX^.' { { *.&.XX",
"J ' ,.=.=.=.=.,.~.2X&X-.<.X.^./.o._ ` E E W E T R.ZXP %.L.a.i.W. .$Xv vX`.R.[.[.#XP.[.&X%XX.Q.(.).Q.'.(.].;.).Q.Q.| $.O.{ *.*.@X",
"J =.=.=.=.=.,.:.=.{.2X*X4X2X<X2X@XXX4X!.-.>XrXyXyXNX1X!.].m.M.p.! R.p.xXR.[.}.}. XZX.X<XtX~.oXoX:X(.Q.W ~ W Q X.^.X.| W T !  .T ",
"J ] =.=.=.] =.=.=.,.2X2X+X!.|.|.|.&X,X%X{.}.OX+X Xj  X$Xb.C.M.i  .| e.V.E.[.R.[.vXmX$X,X;X=.>.,.{.:.@X~.:X2X;X+X2XtX%X*X;X9XtX<X",
"J ' ' =.=.=.] =.=.=.+X2X:X~.~.Q.~.|.OXQ.!.{.{.|.+Xp '.~ b.Z.v.3.E F n.N.i {.R.f.gX.X X-X/.,.@.@.:.:.>.=.^.&X=X!./.,X7X%X-X#X&X4X",
"z ' =.=.=.=.] } =.-.XX2X%X~.|.~.+.,.OX!.|.%X|.OX5Xr ).0 y.l.m.3.s 3.M.Z.i .Xx r.U.|.-X,X(.{.:.:.:.:.<.] !.(.#X&X(..X&X$X;X-X&XyX",
"J ..=.=.[ ] } +.} =.,.5XQ...+.!.=.' ,...%X*X*X&Xc 4.8.3 y.c.m.2.r 5.x.n.u R.5.M.g.W.$X,X_.+XXX,.:.=.:.' !./.#X|.!..X(.(.&X,XrXsX",
"J R ' ' ' ] ..` ` ` ..{...Y.o.#.' ' ,.W |.|.OX|.x 8.h.a.b.m.z.t.r.r.r.r.7.5.v.m.e.v L 1X).~.;.;.:.} :.O.|.!.{.OX{.OX=X(.|.:X&XsX",
"U ;.=.=.#.;.X.R W ..o.o.o.P.]._.R ` } P |.! 5 5 t 4.C.C.y.x.v.C.C.C.C.C.C.t.y.v.n.C.Z.5 5 o.;.;.=._ ] R _.|.$.{.(.%.*X&X!.!.#XrX",
"P '.7X:XuXtX;XOX5X>X4X<X5X>X>X>XQ.h h 4.4.f.Z.N.S.a.d.m.r.r.i.C.C.bXG.S.bXvXS.C.m.n.l.c.m.4.h P.L.Q } R ^.|.!.$.{.{.+.!..X:X%X@X",
"L uXwXeXuXpX0X!.OX}.OX.X>.[.L j s.M.xXbXbXmXVXVXVXMXr.l.x.r.N.C.bXvXvXxXC.C.C.C.M.l.l.C.Z.C.Z.a.e.0.L | /.#X%X!.-.[.;.+.[. X%X=X",
"L uXpXuXuXiX0X` <.{.}..XT.t a.m.S.vXnXmXCXCXCXCXCXdXu.u.u.u.f.F.vXnXVXmXG.G.G.G.S.C.C.C.C.C.Z.a.7.5 4 L #X/.|.!.!.#.!.' ] =.&XiX",
"L eXwXeXuXaX6X_ *.>.}.x 2.m.C.vXnXmXCXCXCXCXCXAXv > > > > > > l v mXCXCXCXCXCXCXVXmXcXmXmXn.c.p s : : $ %X|.&X(./.!.OX#...' -.4X",
"Z o.:X8XwXuX6X` $.*.5 dXVXC.C.C.vXnXvXvXkXkXMX% = g M V M M m > f c mXCXCXCXCXVXVXVXVXcXZ.l.e.= n ^ D $ |./.|.:X.X|.|.|.T.%.!.{.",
"J W o.Q.^.8XP.` .XG i.mXC.C.D.fXfXG.nXjXNXI.f n = g Y / S V > = k F jXVXNXNXNXfXfXfXC.Z.l.a.s 2 A / / g d ^.o.#.X. .R T R W o.%X",
"+X%X~.{.;XpX6XW E.U.N.S.C.C.jXlXfXC.S.jXAXg { &., = / / / < O g ^ M l kXkXkXkXkXkXfXZ.l.z.- b M b , : = > | (.|.*Xo...{.,.,X4X4X",
"~.(.~.~.&XsX6XE u V.S.C.Z.D.kXkXfXC.C.H.gX2 ) B   $ d = s % O # ( / > kXkXkXkXjXZ.C.m.l.9.* n b > g Y / n D  X>.<.@.{.,.XX+X&X>X",
"-.XXXX;XoXXX).G u.A.C.C.G.xXkXkXS.C.C.G.F.2 S 7 7 b s   l m O @ ) D , kXfXkXkXzXC.C.l.l.; # n * b M &.{ ^ b B $.}...;.+XOX=.=.,.",
"=.=.-.,.{.5X).j b.cXC.C.H.vXvXC.C.C.Z.C.D.B ^ ; 7 f > O M f 7 0 Y g u.C.C.C.kXzXgXz.l.w.. # = f V } :.:.:.( # *. Xo.!.-.{.~.=.-.",
"{.oXoX~.+X4X(.j d.C.C.S.A.A.f.d.v.C.Z.Z.V.0 > k y s % O s 0 3.s % p.v.C.C.Z.fXC.c.e.w.3.. O , n D ^ ^ / ] ) A Z $X..-.,.{.XX~.;.",
"{.XXOXoX+X4X(.s 4.w.6.w.M.f.3.4.y.l.C.C.M.8.  O   3.3.3.i w.* x i.N.C.C.fXzXV.h 5.w.2.2.. O > f n M M ^ / / / Z .XT [ ,.{.XX{.-.",
"oX~.oXoX,.1.+Xx 4.q.0.6.r.q.i r.l.l.a.d.Z.h.d.7.0 j r.i.h.C.d.B.C.Z.F.dXI.I.4.w.t.t.z.0.7   @ : 2 b b b A B f Z | J } =.>.>.oX~.",
"@X*X&X~.=.*X(.x 3.q.t.f.6.q.e r.t.y.t.5.e.C.C.M.N.B.N.C.C.C.C.C.k.k.f.i.0.0.0.w.a.y.t.r.y 6 O O 2 m n K ( ( S N 8XP _ [ =.XXXX~.",
"@XOX+X,.:.:.;.j 5.t.n.vXi.0.y e r.t.s.w.4.4.B.h.M.C.C.C.C.C.C.F.k.h.Z.N.i.t.t.v.a.2.r.r.t.3 X   O n A _  .H S m 0X! [.;.+X{.2XY.",
"|.-.;.=.=.XX].Q 4.A.A.D.Z.e.9 5 2.r.y.l.c.n.f.s.a.f.f.f.k.k.k.k.F.C.C.Z.m.n.c.m.a.2.2.q.r.3 i 4.i 0 8 7 7 8 7 v wX~ -.~.-.oX2X+X",
"oX;.=.+.=.+X^.Y.h vXvXA.l.y.9 :X5 q.0.e.l.m.k.s.l.2.4.r.e.s.n.l.t.t.x.l.z.C.C.C.0.2.2.2.2.r 7.l.V.g.z.t.r.q.q F OXQ ~.~.oX%X*X*X",
"o.o.;._.%XqXY.].c i.F.s.a.r.r ;X-XU i 3.x.n.C.g.w.m.n.4.w.y.l.z.q.4.2.a.z.m.m.c.r.r.2.2.e r 0.v.vXvXvXB.i.r.y F +XW Q.*XoXoX~.(.",
"I R P J P ).L.Q.Y.w 8.w.t.r.u %X:XrXK.i r.t.w.8.s.c.k.B.8.r.l.w.4.8.v.n.k.y.l.w.r.r.3.y q 9 w.c.vXvXjXhXgX7.q c >X! W R P P Q.P ",
"Q.tX2X2X*X;XOX+X}.F r.3.q q.r -X%X,X;XL 3.5.2.2.q.z.l.k.d.r.x.7.3.l.l.c.F.w.3.2.q.2.q w 0 x 0.t.N.G.kXkXhX2.5 $X,XE.Q./.^.o.;X! ",
"..4X%XOX*X&XOXoX9XJ.r.5.q q w L.|.%X;XOXP.L r u 5.6.l.s.6.5.r.q.7.y.y.y.s.2.2.r 9 3 W.6XL.X.v 0.a.l.gXjXxX2.5 $X9XT.,X&X X[.~.U ",
"o.oX+X~.{.-.>.2XaXJ.q u q.q.2.i P.%X&X,X=X;X&X`.3 3 r 4.4.3.2.7.r.2.2.4.2.3.u 3 -X=X-XtXY.3 w 6.y.l.m.vXs.3.#X9X,X/..X@X1XOX&XU ",
"o.-.~.XX-.,.~.;.9XJ.q w.l.y.r.5.F %X%X#X(.&X:XoX3XU 0 7 8 u 2.4.4.r u u 8 4 4 '.#X#X/._.- * : 8 i.bXxXA.i.p.-X$X-XT.!. X@X+X*XP ",
"o.XX+X~.;.' =.(.=XJ.. o s 7 7 r.7.x -X%X:X/.3X2X3X2 2 = # $ 5 5 5 6 .         k $X! k = n m S D 0 h.b.t.q.K.$X$X&XY.&X X X X XU ",
"X.~.oXoXQ.;XqXpXwXJ O g M M M # $   #XQ.;.X.;.~.G $ , = O @ * & * +   O . .     O # f M A ( ) / N 9.2.q 5 W..X#X#XQ !.OX{. XOX| ",
"..qXtXqX'.;.=.!.Q.D % n M H A M > O &XQ.Q.Q.).o.x i $ = # O @ # @ O @ 6 r t 3   # < m A &.:.:./ Y b 7 5 0 E Y.W.E.E T T T  .;.! ",
"R =.~.~.%X7XuXwXpXU % b ^ / A M - O tX3X2X5X+Xu t.6.u $ # # O       % 3 w 3.y.s.O g / / *.:.) M M 2 . O.(..X&X@X>X3XOX<.1.:.<.I ",
"P Q.-.~.:X8XpXpXpXK.& b ^ / H n , O ;X#X^.T.9.n.a.r.4.6 O & O O   O 4 i 9.p.y.s.l.9.B ( H S A M g > L #..X(.T.=.}.[.%.$.@.*.<.P ",
"Q 2X%X:XqX2XqXpXuXU & b ^ / A f , # E |.(.p.Z.Z.v.x.0.w O # +   O O 4 t.D.vXM.Z.m.l.e.k M M b g : O @X/.%X8X_.O.@.<.O.{ [ $.<.P ",
"P.sXwXeXwXuXuXeX8XY % b H S M f = & C ^.W s.C.Z.n.a.0.q   : # O   & 4 t B.vXC.C.C.C.s.; f f f > , B tX8X_.uX8X/._ ] *.*.[ +.,.P ",
"P eXuXeXwXqXeX;...T @ > > : : % @ & C P 9.n.n.s.e.0.6.q   , # O O - 8 a.a.vXS.C.C.m.y.0 = = , & Z >.;X'.pXaXwX.X{ ] +.@.+.@.<.T ",
"R =XiXiXeXwX'.].].`.  O . j C.Z.0.o X e.l.l.6.s.C.s.6.q @ > > @   & * 3 5 bXG.C.C.n.r.0 $ % # < $...#X`.8XaXaX_.] ` %.` ` ` :...",
"O.{.*X;X+XtXyXqXuXuXX h s.m.C.C.0.5 5 e.l.e.e.m.s.7.u w @ : > @ O & * G w.l.D.B.l.l.r.0 @ d I  X@X,X/.| 7X8XwX7X%.+.7X#X7X#X@._ ",
"[ &X+X>X%X4X'.(._.'.3 e.Z.h.9 C.v.5 u r.r.w.s.s.0.e a E.C N > @   < = ..c 9 Z.n.t.t.2.6 O E.O.O.%.}. X| 7X7X8XwX=X{.7X-X7X(.@.K ",
"_ &X*X2X*X4X:X).].^.3 e.z.h.r bXS.r r.r.w.0.w.7.y q T.$XL Z # O   2 +.[ G 6.9.h.7.t t q.5 #XR.!.T.{.-XQ .X#XuX8XwX%XwX8XwX8X,.K ",
"_ OXoX2X3X4X%X'._.R.5 e.h t 5 8.f.a 0.0.6.6.7.y a Y.~.;X'.).Y.U O f } @.F 5.5.5.4.i l.y.y v &X&X/.|.<X| T.-.3XuXpXwXsXaX8X8X&XK ",
"' &X|.|.|.XX%.^._.Y.O.i s.r.r 3 3 3 7.i e 7.q q w !.(.%X2X2X7XL.* f ] } O.3 t.6.7.6.e q.y c |.|.|.$.{.T .XT.-.&X7XwX8X7X#X&X8XP ",
"K #.Q. .O.=.Y I %X'.R.c i i 9 i r 3 4.6.i q a 5 X.Y.X.E Q Q ].Q P J R I I C 4.9.7.6.q i w c |.#.$.>.}.I T./.o.O.E.E.P.Y.E I  .K ",
"(.pXaX:X>.@XT | #.|.Q.o.].3 3 9 3 3 a y y a     |.'./.'.~.5XrXtX+X=.=.+.+.=.z 9 y y 3 4   Z /._.!.$.@X&X!.}.OX}.>X;X6X(.8X0X9X8X",
"uXpX0XwX$X<X6XT Q./.:X=X%XT.Q.!.>.d O O @ O & + }.OX(.oX+X+X,.;.}.+X+X>XoX4XU l O O O + = # R..X|.!..XR.#X%.@.>.}.<..X X*.&XtX9X",
"9XwXuXuX-X>X6X! Q.|.!.#.-.%.....[ 1 & & & & & + } {.;.-.-.-.,.;.,.{.{.{.oX4XP l & & & & # # R..X|..X X/.7X=X+.@.}.@./.-X.X$..X9X",
".X$X8XwXuXtX6XY.(..X#XT.#.Q.$._ _ l = f < = & & O {.!.oX,.,.+X~.oX+X+XoX&XrX~ #X@ 2 = & % = O #X.X[. XE.8X8X.X_ *.*..X,X-X-X X}.",
".X[.9XaXaXBXZX .#X%X#X/.Q.#.#.#.' _ + 2 2 > , * O +X+.{.{.oX+X*X(.*X*X:X2XtXQ E.@ 2 2 , = % O $X$X#X|.=XaXpX=X[ { ] %.[. X X$X9X",
"rXR.[.-X8XBX0XU | Y.X.X.Y.! R I K I P : m f f : @ z X.,.~.+X+X2X*X%XoX:X+XrXQ ~ ! g 2 f f % O | Y.Y.E Y.8X6X/.I ` I ` { *.>.1X$X",
"9XrX#X}.9XBXBX.X;X;X&X%X%X| X.Y.! I #.f M M b f - - o.,.+X).,.+X2X3X:X2X2XyX).;. .k M n 2 2 + ! U P ! Y.Y.Y.E ! ~ Z [ } { *.[..X",
"1X.X$X[..XBX6XY.{..X XR.4XpXsXsXpXrX>.<X: M M f 1 1 W ;.oX+X+X).).%X2X'.*X:X].=.O.C M M g f % 9X,XyXrXtXpXrXyXyXpXL.` { *.{ :.}.",
"*.1X-X1X1X9X/.R.>.[.}.1X<X/.$X#X*X X.XOX.X< m < 1 1 X.;.+X+X5X'.+X2X4X2X2XqXQ ;.$.#XO m 2 < + .X(.%X*XqX;X;X:X;XtX].I { { { *.*.",
"-. X-X<X,X<XT.o.$.R..X1X9XT.!.$.[.}.|.&XY < b 2 2 1 R -.+X).+X:X+X).2X4XqXqXY.;.(.| , b k > : ! #X|.%XrX7X:X%X;XtXY.` { { { *.*.",
"R.}. X$X<X,X#.R. X[..X.X,X#.$.[.#.[.{.C 2 ^ ^ m 2 & I ~.oX+X2X5X2X).2X2X'.2XY.'.`.: ^ ^ V f = ; #X%X%X*X:X3X=X:XtX`.I *.*.%.%.*.",
"%.&.$.R..X&X .Y. X.XR..X9XE..X7X%X.XO., n m 2 , = + P Q.].;.;.:X:X).'.).).'.~ ;.+ b n b > , & - *X%X=X:X'.:X7X:X7X).P ' *.*.#.#.",
"Z z z z Z ! I I | E E | | '.tX8X9X$XR.# = = = & O O ! '.;.o.X.W ~ ~ L z z ~ ~ ~ O = , = # # O - _.:XqX:X;X;XqXrXrX(.z Z Z z Z J "
};
