/* XPM */
static char *result[] = {
/* columns rows colors chars-per-pixel */
"64 64 238 2 ",
"   c #3E102A",
".  c #3A1335",
"X  c #43132B",
"o  c #4C1A2D",
"O  c #48172C",
"+  c #511E2E",
"@  c #481C33",
"#  c #521E32",
"$  c #55212F",
"%  c #5A2433",
"&  c #572434",
"*  c #502D3E",
"=  c #652C3A",
"-  c #692F3B",
";  c #622A36",
":  c #6D313D",
">  c #64373D",
",  c #70333F",
"<  c #13134F",
"1  c #1D144D",
"2  c #171755",
"3  c #271645",
"4  c #341B48",
"5  c #1A215E",
"6  c #312A56",
"7  c #271A6A",
"8  c #2A1E70",
"9  c #1C2867",
"0  c #1F3C73",
"q  c #22266A",
"w  c #393364",
"e  c #282874",
"r  c #243679",
"t  c #28356D",
"y  c #4F2F49",
"u  c #713440",
"i  c #7C3D43",
"p  c #753A43",
"a  c #683C43",
"s  c #264578",
"d  c #394575",
"f  c #4B445D",
"g  c #764C4B",
"h  c #776746",
"j  c #52506A",
"k  c #6F686E",
"l  c #695B66",
"z  c #884649",
"x  c #914D4D",
"c  c #885A4B",
"v  c #9E5652",
"b  c #9E5B54",
"n  c #915450",
"m  c #A35C55",
"M  c #8E7055",
"N  c #A96658",
"B  c #B3745E",
"V  c #AE725C",
"C  c #8A796A",
"Z  c #887971",
"A  c #9B855A",
"S  c #9B854F",
"D  c #A9915D",
"F  c #98886F",
"G  c #A88968",
"H  c #BB8262",
"J  c #A99667",
"K  c #B59D67",
"L  c #A99775",
"P  c #B59D73",
"I  c #A18E74",
"U  c #BBA46D",
"Y  c #B8A36A",
"T  c #BBA674",
"R  c #BDAA74",
"E  c #B9A778",
"W  c #AEA273",
"Q  c #CA926A",
"!  c #C99767",
"~  c #C78E68",
"^  c #CBAD6B",
"/  c #C6A867",
"(  c #D3A96C",
")  c #CDB16D",
"_  c #CFB066",
"`  c #D3B36C",
"'  c #DAB46D",
"]  c #D9BA6E",
"[  c #C2AD7C",
"{  c #C3AC75",
"}  c #CDB474",
"|  c #C4B37C",
" . c #CCB57B",
".. c #C9B679",
"X. c #D6BA73",
"o. c #DBBC73",
"O. c #D4BB7C",
"+. c #DBBD7B",
"@. c #D4B575",
"#. c #E2BE75",
"$. c #DCC176",
"%. c #DCC37C",
"&. c #D8C27C",
"*. c #E3C474",
"=. c #E2C57B",
"-. c #E4CA7D",
";. c #E9CB7B",
":. c #F1D17E",
">. c #293E84",
",. c #2C3381",
"<. c #303C8B",
"1. c #2B4689",
"2. c #2E4B93",
"3. c #304F98",
"4. c #334994",
"5. c #2D5894",
"6. c #33599A",
"7. c #315399",
"8. c #2B5289",
"9. c #34639C",
"0. c #3A7097",
"q. c #365AA3",
"w. c #3962AC",
"e. c #3567A6",
"r. c #367AAC",
"t. c #3B66B3",
"y. c #3B6AB4",
"u. c #3A78B7",
"i. c #44558C",
"p. c #4673AD",
"a. c #5D7A87",
"s. c #3A8BBD",
"d. c #3985BA",
"f. c #3B8EB8",
"g. c #4788BB",
"h. c #498FB0",
"j. c #51AAB9",
"k. c #70B5B2",
"l. c #6A849A",
"z. c #71D2B2",
"x. c #3B8FC0",
"c. c #3C9AC4",
"v. c #3B94C2",
"b. c #3FA0C7",
"n. c #4699C5",
"m. c #4D91C1",
"M. c #49ADCD",
"N. c #48A5C9",
"B. c #4EB7D1",
"V. c #56BBD3",
"C. c #50ADCB",
"Z. c #69B6CD",
"A. c #5BCCDB",
"S. c #57C4D6",
"D. c #64CAD9",
"F. c #6AD4DE",
"G. c #78D5D9",
"H. c #6DCBCE",
"J. c #78D8E1",
"K. c #B9AA84",
"L. c #B5AB8A",
"P. c #8DACAC",
"I. c #959597",
"U. c #CCBC83",
"Y. c #C7B685",
"T. c #D3BD83",
"R. c #D8BD85",
"E. c #C4B58E",
"W. c #9FCDBB",
"Q. c #D4C285",
"!. c #DCC484",
"~. c #DBC58B",
"^. c #DDCA8C",
"/. c #D8C689",
"(. c #DCCC93",
"). c #D6C896",
"_. c #DDD195",
"`. c #CEC48E",
"'. c #E3C583",
"]. c #E4CB84",
"[. c #EACB84",
"{. c #E3CC8B",
"}. c #E9CC8B",
"|. c #E2C68A",
" X c #E5D18C",
".X c #EBD38C",
"XX c #EAD488",
"oX c #F3D78A",
"OX c #E3CE92",
"+X c #E9CE91",
"@X c #E5D393",
"#X c #EAD493",
"$X c #ECDA94",
"%X c #E5D49A",
"&X c #ECD69A",
"*X c #EBDB9B",
"=X c #E7D99A",
"-X c #F2DC94",
";X c #F2DC9B",
":X c #F2D695",
">X c #F1CF93",
",X c #EEE19B",
"<X c #F3E39C",
"1X c #F7E599",
"2X c #F4E18E",
"3X c #D8D2A9",
"4X c #EBDDA3",
"5X c #E7DBA8",
"6X c #F2DEA4",
"7X c #E8DDB2",
"8X c #EDE2A4",
"9X c #EDE2AC",
"0X c #E7E0AD",
"qX c #F3E4A3",
"wX c #F4EAAB",
"eX c #F5E9A8",
"rX c #F9F2AC",
"tX c #ECE4B5",
"yX c #F4EAB5",
"uX c #FAF3B6",
"iX c #A0BAD1",
"pX c #88DBD4",
"aX c #87D0D1",
"sX c #9CE6D3",
"dX c #B6EECB",
"fX c #B1E9D0",
"gX c #8BDEE3",
"hX c #8CE9E8",
"jX c #88E5E5",
"kX c #97E9E8",
"lX c #B6E8ED",
"zX c #A5E8EA",
"xX c #BADAE8",
"cX c #CBE5DA",
"vX c #F7F0C9",
"bX c #C8EAEE",
"nX c #CDEBF0",
"mX c #DAD4C2",
/* pixels */
"Y.yX+X|./.^.$X1XrXrXrXuX,XU.5X4X6X{.#X-X&X;X;X+X;XeX.X2X1X1XkXbX).<XwX0XE.|.>X-X6X:X;.:.! U %X8XeX=X$X<X`.(._.*XrXeXR.>X}.#.R.}.",
"D =.-.].XX2X].$X,XXXXX2X X`.@X.X'.].|.&X:X.X.X&X;X-X+.].!.O.lXmX| Q.E.mX4X{.}.'.'.'.}.>X` |  X%X@X=X@XqX8X*X=X@XeX_.' ' ' ' #.1X",
"M ` $.o.$.-.&.&.-.%.].2X X[ o.[.=.}.|.}.}.>X|. X<X+XX.=.[.I.kX3XR :Xl.kX+X}.+X'.'.'.[.oXO.U.OX&X=X@X_.@X%X8X*X=X=X`.#.' ' ' #.oX",
"A $.$.=.&. X&. X X$X].XX-.K ^ ` +.'.=.=X#X&X#X'.>XP.O.|.#XI.Z.3XE |.l.zX).'.[.}.'.'.}.;X|.U._.&X&X$X@X_.^.=X*X,X8X(._ ' ' ' ' -X",
"A &.$.$.&.-.-.XX X,X X;.XX| %X=XO.=.|.|.+X|.OX{.&XcX} .X~.g.y.E.Y.R.l hX(.|.'.'.'.L.|.;X%XU. X%X%X@X X=X_. X$X$X8XQ.( ` #.' ' :.",
"S ] -.-.$.] $.-.!.2X$X%.:.R ~./.O.) / T T R T Y O.cXJ O.K.n.B.L.T OXk hXR.|.'.'.#X3X|.>X@XR `.(.`.Q._._.`.&./.Q.Q.| R.@.' #.+.oX",
"S &.$.$.%.$.-.$.$.XX,X$X1X,X&X,XoX[.1X!.%.-XeXrXeXl.>X!.P.A.S.r P R.h.Z.R.'.[.[.W.bX{.:XqX^. X X*X^./.R R R R | `.| { R T Y { P ",
"S ) ] $.$.` $.$.$.-.<X,X X!.{.{.{.#X;X X X-.XX.XoXy  X@Xg.A.s.r T [ C.C.8 '.R.k.hX_.}.;X&X$.=.;.].$.:.].=X8X=X$X<XeX@X$X;XqXeX-X",
"S ) ) $.$.$._ $.$.$. X,X,X!./.!.!.{..X!.!.{.].}. X5 ).6 u.M.B.,.I 9 B.V.r |.Z q.P.|.>X&X~.!.$.] *.$.*.+./.#X%X!.~.;X*X#X&XOX=X1X",
"h ) $.$.$.$._ ] $.$.XX2X X^.].!.@.]..X!.{. X{..XI 1.l.2 u.c.V.,.< r b.V.r |.r C.j.R.&X:X^.].*.*.*.*.;._ R.^.@X#X^.|.=X@X&X&X#XrX",
"A ..&.$.` _ ] ] ] $.-.,XQ.} $.%.X.] -.) @X&X&X.Xj 5.r.r m.S.x.t.t.p.t.t.<.q n.S.r.L |.6X).XX].;.*.$.*.) !.~.OX|.!.|./.~.#X;XqXuX",
"A Y ) ) ) _ ../ / / ..-...Y.} Q.) _ =.R  XU.F k r 8.A.A.d.c.n.N.N.N.C.N.N.t.x.b.f.h.p.F F ].%.%.*.] *.` @X%.].@X]..X=X{.|.&X=XrX",
"W &.$.$.$.Q...Y R .... ...K.).).Y 6 5 2 2 5.n.c.S.2.n.A.y.y.u.A.D.J.D.D.hXhXA.A.c.c.c.M.A.2 2 Q.$.^ _ Y (.{.%.].^.@.$X#X!.!.#XqX",
"J _.=X=X9XyX&X.X-X-X1X$X-X2X{.K.8.N.S.Z.D.kXzXlXzXaXt.v.y.t.N.D.J.hXhXF.F.J.F.A.S.B.c.M.M.M.M.1.s r { Y T.{.!.+.].|.X.%.{.@XOXoX",
"A tXtX9XtX9XtXR.XX[.}.].!.f 0.f.S.J.hXlXbXbXnXnXcXxXt.y.p.t.A.F.hXhXlXlXA.A.A.A.A.S.S.S.A.A.A.v.y.9 5 K ).{.@X!.%.!.!.X.].}.@X=X",
"F tXyXtXtXtX7X/ ;.[.].I 9 b.S.hXkXkXnXnXnXnXnXnXnXiX6.i.i.i.Z.aXhXlXnXnXnXnXnXnXlXJ.J.J.J.B.N.3.1 3 o o ~./.}.!.!.%.!.^ _ +.@XtX",
"F 0X9X0XyXyX3X^ #.#.Z p.iXD.A.F.kXzXzXzXdXcXbXW.l - - = = - - g k hXbXnXnXnXnXnXnXnXnXzXJ.c.g.< y x V z a OX#XOX/.!.#XO.) ) $.qX",
"M ..=X5X0X9X3X/ ` C y.nXF.A.A.D.J.jXhXhXdXdXdX# % p m m v m x u a k lXbXbXbXnXG.A.D.S.A.n.s.9 + i m ~ ~ + P |.@XOX{. X|.T.O.%.-.",
"A Y ..`.`.7XK./ OXI.n.J.A.A.sXdXpXA.pXsXdXP.: z % i ~ Q B m = # i k W.cXdXdXdXdXdXsXA.N.c.s @ i m c n n & M  .O.| R Y U Y U O.@X",
" X,X^.-.;XyX).{ w iXD.A.A.F.dXdXpXA.A.jXaXp ( ( % # ~ ~ ~ u X i ~ m g dXdXdXdXdXF.D.S.c.c.3 + m i : z H B & /.|.#X} } [.-.$XeX1X",
"^. X^.&.#XuX3XP <.Z.D.A.F.G.dXdXG.A.A.J.aXi ( g X X a ; a $   $ _ ! - dXsXdXdXpXA.A.c.c.1.X # v ; i N ! ! V + #.[.$.-.].XX.X.X-X",
"$.XX].,X X:.^.f g.gXA.A.jXjXhXG.A.A.A.F.aX, B 4 4 z y   g n   + ! B ; G.H.G.dXdXaXN.f.d.5 X # : i b ( *.*.( B M [.} &..XXX%.$.-.",
"$.&.&.-. X2X/.f g.A.A.F.D.jXG.B.S.A.D.A.Z.g ~ * 4 , u X n a 4 6 H g 0.D.A.A.pXS.B.s.s.>.2 X + # v ( ' ( ! ' ! - !.@.&.%.XX%.&.=.",
"XX]. X].XX,X^.f e.n.h.g.S.N.,.<.r.M.D.D.h.w - g t 6 # X y w 8.* $ l.A.A.H.aXaXd.e.5.>.>.2 X + u , m m N Q Q Q N !...%.].-.XX!.&.",
"%.XXXXXX.X1X^.6 s q.6.q.t.q.r t.c.v.x.C.S.d.  O   y.w.w.f.A.$ l.S.A.A.fXdXdX1.q.t.t.x.7.8     # , n v v N Q i = R.Y ` -.-.XX!.%.",
" X^. X X=.:.2Xj 1.6.t.p.q.q.e p.x.x.t.2.j.A.A.0.f j m.S.A.A.A.A.A.z.k.p.5.2.2.q.u.d.d.t.e 1 .   $ = : : c c n z G A X.*.=.=. X].",
"-X.X.X].%.$X^.j 1.e.g.jXe.q.8 ,.t.t.x.3.1.9.A.A.A.V.S.A.F.F.A.A.z.z.N.N.t.t.t.x.d.2.t.t.q.7 1   . $ m ~ *.` ( ~ a J _ ] $.]. X~.",
".X.X.X-.*.*.$.l 2.N.N.jXjXw.2 7 <.t.u.c.b.f.8.5.y.z.z.z.z.z.z.z.A.A.A.S.S.S.c.c.r.>.1.t.t.7 8 < 8 e . .   . . X y T =.+.XX].$X&.",
"].%.$.$.$.XX`.`.s hXjXD.v.d.9 K.q w.t.d.c.V.z.c.v.3.5.t.h.j.j.j.h.n.b.M.c.B.V.A.w.>.>.1.3.7 7 < 2.Z.N.6.9.7.4.r 3XE $.^.^. X,X$X",
" X%...$.] 2X`.U.2 Z.jXc.c.t.9 =X_.f >.1.c.M.A.k.5.B.f.s p.s.c.v.y.>.1.c.c.A.A.N.t.t.>.>.8 7 < 2 6.c.jXjXhXH.s.2.^.R %.^. X X$X$X",
"O...%._.@XwXK.`./.q r.u.t.t.q $X%X@Xk r y.g.g.1.x.b.H.d.3.t.v.u.<.2.e.m.j.x.c.r.t.t.<.e 7 w +.Z 1.s.kXhXsXdXfX2.].R /.$X X X%.].",
"J Y J A J /.`.R U.k q.,.e y.r @X&X8X(.k 2.q.1.1.y.c.b.z.m.t.v.7.1.d.b.N.z.t.5.1.t.7.e 7 2 } +.'.t e.D.V.dXdXhX2.@XW R K W J ..W ",
"/.eXqX2X$X,X XXX].C t.4.7 7 2 %X@X;X=X^.j j r >.6.y.c.c.1.q.t.3.1.x.x.x.b.>.>.>.q 2 j j E O.'.+.t 6.s.c.n.kXJ.5.@XQ.Q./.Q. .*XE ",
"} 1X X X$X$X.X X9Xj <.7.4.,.e 6 T.@X$X.X=X8XL.I 9 9 5.q.5.1.3.q.t.3.3.2.7.>.r < E.E.qXyXK.} R.I q 3.9.s.D.G.c.e.%XT.;X.X}.'.^.L ",
"|  X$X^.].%.=.<XtX7 >.v.p.t.4.7 L.OX#X;X%X<X&X$XqX .< < 5 >.>.>.>.1.>.>.9 < < `.%XOX%XeXY.X.C   X 7 h.hXhXD.c.4.%X/.'.>X:X.X#XL ",
"..&.].].%.=.!.&.).3 w 0.i.<.q.4.F @X@X{.^.$X@X X<Xu u = @ 3 r 9 q < 3 . .     K.@XOX{.eXY.P c % x z i a.v.t.4.i.@XT.~.}.oX.X$XJ ",
"..-.$X].&.) &.^.).  = p x x y 4 . &X=X@X=X^.,X1XP & = $ X + @ @ @ O X X         &X@X/.*XU.O z m ( Q ~ B y e 8 Z +XY.#X}.|.}.}.J ",
"..^.^.XX!.*X,XyX).O u m m N m - @ Q.OXQ.O...&.~.k 5 o : o X + $ + O X +   . . . g |.{.P O i m Q *.*.~ ~ : 4 2 I +X[ !..X[..X$XR ",
") wXwX8X%XO.%.!.X ; u N ~ H v u O $X$XQ.Q.!.`.k q.5.6 # + + X X     + O 6 <.e 2 3 l Z o z m ~ ' *.( V x , # L Y.T.E Y T U { !.P ",
"K $.].%.@X8X9X5XX = u V ~ ~ N u O ^.eXqX,X-X.X0 u.w.t . O +         X 4 q.t.< r t.d.< X x Q Q *.Q m x , : o :XoX;X<XXX;.:.*.;.Y ",
"W &.&.^.=X5XuXyXX = p V ~ ~ i u o $X,X^.Q.Q.6 M.b.u.e.2 O # + X   O + 9 b.< < 9 0 e.c.0.w b Q B m z u u # P T.#.'.].+.o.o.o.;.J ",
"E ,X=X_.8X,X8XwXX = p V ~ m i u O -X<X X^.Y.j.A.N.s.q.8   = o     + - 9 B.< e.Z.C.d.c.c.d.i.n v z u , ; X K.(.@.o.;.X.` X.' [.J ",
"L.uX0X8XtXwXtX0X_.o , z z z , & O XX$XQ.O.L B.B.c.w.6.8   = +     % * s B.< 9.G.hXD.A.A.A.x.w ; u - ; + a tX5X~.^ ( *.#.` X.;.J ",
"W 5XtX0X0X0X5X&...g + X a.0.i.f X ^. XR U.a.S.V.v.6.6.8 X = = O   & 3 N.S.< 1.N.hXF.A.A.A.s.2.X ; # o L 5XyX9XOX` _ X.] X.o.[.U ",
"K 5XtX0X8XtX_.`.`.C 6.u.S.A.g.7.< < @XR Q.8.c.B.u.9.u.8 O = - O   . r.b.A.A.>.d.pXF.A.A.A.x.2.  + X V ).4XyXyX(./ _ @./ / / *.} ",
"` ].&X<X$X1XrX0X7Xr r.A.h.h.N.q.2 < eXR  .8.c.c.y.r.u.e g g - X   y d.c.S.A.5.9 p.J.F.B.c.x.2.  c P (.K.5X5X5X4X@.X.4XOX4XOXo.^ ",
") $XXX,X$X1X_.^.).>.f.B.5.s F.C.2 2 I.K...8.c.c.e.f.u.8 V M # X   @ r.c.B.A.q.9 s F.jXu.y.y.r 1 G }.}.| 4X4X5X9X4X'.4X%X%X(.o.D ",
"^ .X$X,X@X,X=X^.U.s c.9.1.t H.Z.< 7 9 L...8.c.x.w.x.y.8 F L M g   y 7.x.c.c.e.s.9 8.G.j.3.6  .R.Q.|.$XR ^.+X9X5X9X+X8X9XtX6X;.A ",
"^ .X{.,X<X1X@X(.(.k e.6.2.< 9 9 2 < >.L...s u.t.q.t.t.8 I._.@XK.X y 1.t.u.u.6.f.r F 0 Z Y.R..X#X/.{.:X[ T.%.;XtXyX9XuX9X5X5X#XG ",
") &X{.{.].}.O./._.Z 7.6.w.2 2 2 2.< 6 L | r t.6.6.6.w.8 F ,X5XY./ y 1.6.t.w.6.g.l OX~.|.'.{.{.|.|.%.[.Y {.T.%.#X=X9X5X4X+X=X4XJ ",
"D U.Q...} %.D T +X_.L k < 2 r 2 K.L.*X| K 3 w ,.,.r q 4 k ..).R J M 7 7.6.6.6.e k +XOXOX~.'.{.R.%.'.[.K Q.~.O.@.~.E.E.Y.T K ^ D ",
"^.wXyX@X#.oXU { R.|.Q.O.`.!.~.^.+X{.qX{.^.  X   .   .   ].2XeXrX X{ 7 e 6.6.8 7 k OX%X;X:X#X~.OX!.+.oX XO.]..X[.-X*X3X^.4X9X5X5X",
"tXyX7X9X>X-X3XP T.~.=X=X@XT.!.!.'..X|.} X.# % % & + + M .XXX%.&.XX&.3 3 3 3 3 3 k #X~.|.~.>X#X|.|.'.[.O.+XO.o.=.oX=.|.'.#.#XwX;X",
"6X6XtX9X%X-X3XT Q.|.!.T.!.@.} } ) X.` / @.& u u - $ O !.%.-.-.$.-.} o $ % + $ $ n #X%X|.|.OX+X{.{.'.}.).4X_.@.o.[.#.~.&X|.R.'.6X",
"}.+X9X7XyX6X3XY.^.|.{.T.O.Q.O.) ^ $.+.Y !.: v x , : O XX].&.XX^.].$Xg p ; + # # o R.+XOX(.+X&XOX{.~.}.R.5X5X|.( ] #.|.;X;X&X>X|.",
"~.'.6XyXyXvXmX[ OX@XOX/.!.O.O.O.^ ^ %./ G z v x u : O ].]. XXX,X].,Xg , , ; ; # o Y.4X%XOX+X;X+X+XOX|.%XyXyX%X` ' _ @.'.}.}.+X6X",
"qXR.'.&X3XvX7XP R U.|  . .T Y J A K / J o v v x > > J XX-. X-.,X,X X_.+ g , , % + P E Y.[ [ [ [ Y.Y.{ K.7X3XT.Y / K / ' #.;.>X+X",
"6X6X+X[.6XvXvX|.*X*X#X#X_.[  .Y.P P !./ O m m z , > J -. X X X X,X8X,XM x b , , # A A K.Y.[ E E J J E Y.Y.Y.E T W M ` ] ( *.[.|.",
">X|.+X'.{.vX3X .].|.}.R.<XyXuXuX3XM c M # - v : , > R &.-._._. X X X,X_., m x , = P } .XeX;XqX<XqXrXeXeXrXqXeXrXrXL./ ' #.' #.'.",
"#.:X&X&X>X6X~.R.'.'.'.:X:XR.%XOXE u b H B V % ; : a R -.XX2X2X X@X,X,X,XJ x z : =  .X.#.}.R..X{.^.@X&X,X*X=X=X,XwX`.K ' ' o.#.#.",
"+.}.&X>X;X:XT.@.+.R.'.+X;XR.'.+.O.& X   X # - u o | { %.]. X X,X X^.,X1Xn g i - : M _ $.{.Q.*X$XOX X@XqX8X=X@X*XqXU./ ] ' ' #.#.",
"'.[.}.+X:X;XO.R.}.'.}.|.qXO.+.!.!.'.        X   X @X..^. X@X,X$XqX_.=X% N ~ B i - O X.+.XX..@X=XOX@X@X$X=X,X%X%XwX(.K ' #.@.@.#.",
"O.@.+.O.~.$X{  .}.|.|.|.4XR.|.*X@X'.#.+.V I G G J $XR Q.&.Q.Q.,X_.^.g , x z - = $ O o.o.@...%X8X=X@X%X=X_.=X8X=X4X).J ` #.+.+.+.",
"M h h h M P K P { T E [ [ OXyX5X6X#X#X{.].@X+X{.2X,X`. X`.&.R R W W > % % ; % # O X D / Y .. X@X^.=X8X=X=X,XqX8XqX/.h M M h M A "
};
