/* XPM */
static char *result[] = {
/* columns rows colors chars-per-pixel */
"64 64 219 2 ",
"   c #030304",
".  c #0B0B0C",
"X  c #080607",
"o  c #0E0F10",
"O  c #0F1011",
"+  c #121214",
"@  c #161619",
"#  c #17181A",
"$  c #1A1B1D",
"%  c #1A0000",
"&  c #2C0101",
"*  c #270000",
"=  c #330101",
"-  c #3B0101",
";  c #351517",
":  c #28251E",
">  c #1D1E21",
",  c #1F2023",
"<  c #212226",
"1  c #24262A",
"2  c #27282D",
"3  c #292A2E",
"4  c #2E2429",
"5  c #2B2D32",
"6  c #2E3036",
"7  c #33353B",
"8  c #36393E",
"9  c #313235",
"0  c #420101",
"q  c #4C0202",
"w  c #550202",
"e  c #5C0303",
"r  c #491517",
"t  c #650303",
"y  c #6C0404",
"u  c #640C0D",
"i  c #740404",
"p  c #7C0505",
"a  c #750B0B",
"s  c #453B36",
"d  c #523332",
"f  c #6F2D26",
"g  c #594939",
"h  c #3A3D43",
"j  c #373940",
"k  c #3E4047",
"l  c #3F4148",
"z  c #42454C",
"x  c #48494B",
"c  c #58554A",
"v  c #464951",
"b  c #4A4D55",
"n  c #4C4F58",
"m  c #4E5159",
"M  c #4D5057",
"N  c #51555D",
"B  c #595A5A",
"V  c #514E47",
"C  c #646157",
"Z  c #776A4C",
"A  c #535760",
"S  c #565962",
"D  c #5A5D66",
"F  c #5B5F69",
"G  c #5E626C",
"H  c #61646E",
"J  c #6A6862",
"K  c #626671",
"L  c #656A74",
"P  c #696C76",
"I  c #6A6E79",
"U  c #6E727D",
"Y  c #71757D",
"T  c #7E7A68",
"R  c #840D0A",
"E  c #88110D",
"W  c #8B1B14",
"Q  c #881610",
"!  c #8E2219",
"~  c #92281C",
"^  c #993827",
"/  c #962F20",
"(  c #9C432C",
")  c #9B4B33",
"_  c #9D5439",
"`  c #A24933",
"'  c #A5533B",
"]  c #A1492E",
"[  c #8C5A44",
"{  c #A85B42",
"}  c #897856",
"|  c #937A56",
" . c #8A714D",
".. c #B26C46",
"X. c #B57350",
"o. c #847C65",
"O. c #9A8656",
"+. c #A48A5D",
"@. c #B78E5B",
"#. c #988963",
"$. c #8C8464",
"%. c #A99768",
"&. c #B59C67",
"*. c #AA9C72",
"=. c #B09B70",
"-. c #B9A46B",
";. c #BDAA73",
":. c #B9A776",
">. c #B2A876",
",. c #C48759",
"<. c #C5925D",
"1. c #C89865",
"2. c #C7A868",
"3. c #CCB26D",
"4. c #D3B46C",
"5. c #DAB46D",
"6. c #D8BA6E",
"7. c #C6AC76",
"8. c #CCB474",
"9. c #C4B37D",
"0. c #C9B579",
"q. c #D3B573",
"w. c #D6BA73",
"e. c #DBBC73",
"r. c #D4BB7C",
"t. c #DBBD7B",
"y. c #D6B677",
"u. c #D3A96F",
"i. c #E2BD76",
"p. c #DCC176",
"a. c #DCC37C",
"s. c #D7C17B",
"d. c #E3C476",
"f. c #E2C57B",
"g. c #E5CA7D",
"h. c #E9CB7B",
"j. c #717681",
"k. c #757985",
"l. c #7A7E89",
"z. c #787C87",
"x. c #6F7480",
"c. c #7D818C",
"v. c #828691",
"b. c #858A94",
"n. c #8A8E99",
"m. c #898C94",
"M. c #8D919C",
"N. c #91959E",
"B. c #81848E",
"V. c #BCAF83",
"C. c #9296A1",
"Z. c #9599A3",
"A. c #999DA6",
"S. c #9B9EA8",
"D. c #9DA1AA",
"F. c #A1A4AD",
"G. c #A8AAAC",
"H. c #A6A9B2",
"J. c #AAADB5",
"K. c #A4A7B0",
"L. c #AEB0B8",
"P. c #B2B5BC",
"I. c #B6B8BF",
"U. c #C9B984",
"Y. c #D7BD83",
"T. c #C5B78B",
"R. c #E0BE89",
"E. c #DCC483",
"W. c #DDCB8C",
"Q. c #D8C588",
"!. c #DACB92",
"~. c #DED195",
"^. c #CFC68E",
"/. c #E3C584",
"(. c #E4CB84",
"). c #E3CC8B",
"_. c #E9CC8C",
"`. c #E7C987",
"'. c #E5D18B",
"]. c #EBD38D",
"[. c #EAD488",
"{. c #F3D689",
"}. c #E2CE91",
"|. c #E9CF92",
" X c #E5D393",
".X c #EBD493",
"XX c #ECDA95",
"oX c #E5D599",
"OX c #EBDB9B",
"+X c #E9D799",
"@X c #F3DB94",
"#X c #F3DC9B",
"$X c #F2D695",
"%X c #F1CF93",
"&X c #EEE19B",
"*X c #F3E39C",
"=X c #F7E599",
"-X c #F4E18E",
";X c #DAD0A8",
":X c #EBDDA3",
">X c #E7DBA9",
",X c #F2DEA4",
"<X c #E8DDB2",
"1X c #EDE3AD",
"2X c #EDE2A4",
"3X c #F3E4A2",
"4X c #F6EAA9",
"5X c #ECE5B5",
"6X c #F5EAB6",
"7X c #FAF3B0",
"8X c #B9BCC2",
"9X c #BEC1C7",
"0X c #C4C6CB",
"qX c #D6D7DB",
"wX c #CBCDD2",
"eX c #F5EEC7",
"rX c #E7E8EA",
"tX c #EEEFF0",
"yX c #DCDDE0",
/* pixels */
"U.6X|.).^.W.XX=X4X7X7X7X&XU.>X2X,X_.].$X$X,X#X_.#X4X[.-X=X=X4X6X^.3X,X,XY.}.%X{.#X#Xh.{.1.;.+X3X4XoXOX*X^.!. XoX7X4XY.%X_.i.Y._.",
"+.f.g.(.-X[.(.-X&X[.[.=X'.^..X'./.).)..X$X]..X X#X#Xy.`.g.e.`.'.9.Y._._.$X).|.`.`.`.`.{.8.7.!. X X+X X3X2X:X+X X4X~.5.5.5.5.i.=X",
"| 4.e.e.s.g.s.s.g.a.g.-X'.9.e.g.f.).`.|.)..X).|.=X[.t.a.`.f./.).9..X|.R.`._._./././.`.%Xr.U.}.OX:X X}. X+X2XOXOX+X^.d.5.5.5.i.{.",
"O.p.a.f.g.[.s.'.'.XX'.g.g.&.2.q.i./.Y. X X$X|.`._.`.s.).[.'.`..X:.R.`.%XR.`.`.`.i.`.`.@X/.U. X+XOX X X~.Q.+XOX&X2X!.2.5.5.5.i.-X",
"O.r.p.p.p.g.g.'.'.&X[.h.[.9. XoXr.f.`.}._.).}.|..XE.8.[._.$X). X7.R././.`.`.R.i./././.#X X9.W.oX X XXX XW.XX XXXOX^.u.4.5.i.u.h.",
"O.w.h.p.p.p.p.d.E.&X].a.h.9.Q.W.r.2.2.-.-.;.:.&.Y.!.&.N.Z.Z.P.9X9XP.F.S.A.t./.`.%Xi./.%X XU.Q.W.^.Q.~.W.^.s.Q.Q.Q.9.t.q.5.i.i.{.",
"O.p.p.p.p.p.g.d.p.(.&XXX-X2X$XOX[.{.=XE.E.@X3X7X4X@X].H U U j.j.j.z.b.P G R.`._.`.%X).$X4XQ.W.].OXW.Q.;.>.;.;.9.Q.9.7.;.>.-.7.-.",
" .6.p.d.p.3.p.p.p.g.*X&XXXE.).).)..X#X].).(.[.o.v v z H 8 z N.b.m.N.b 7 H h v x J _.).#X#Xs.g.g.f.p.{.W.oX2XXXXX&X4X XOX#X3X4X#X",
"O.3.3.p.d.p.3.p.p.p.[.&X&XQ.W.E.E.)..XE.E.V b.F c.C.S K m m < v.b.< n v L S C.C.F m.v $XE.(.e.e.d.d.d.e.Q. X+XE.E.#X,X X+X}. X3X",
"Z 3.p.p.p.p.3.4.p.g.g.&X'.(.(.Q.w.f.].C c.K.P.I v.qXv.U F S 7 N A 7 S S U l.qX8XI P.G.B.C (.d.d.d.d.h.3.Y.W. X X).!. XoX$X+X.X7X",
"O.3.p.p.4.4.4.p.6.p.g.&XQ.3.p.s.q.B U H.L.0XrX8XF n.S U U F l h h l H L j.S n.H P.tX0XL.H.c.N g.d.p.d.4.E.`.).).E.).Q.E. X#X3X7X",
"O.-.3.3.3.2.8.2.2.2.8.g.8.C F h F Z.D.P.tXqXm.S < $ + L P H U v.b.Y K L I + > $ H v.G.G.I.D.Z.G x B C 8.}.E.(.|./..XoX).).OX.X7X",
"&.s.s.p.t.Q.7.-.;.9.0.U.C K.qXI 8 N.wX0Xv qXb b M 1 1 $ $ $ $ < < $ $ $ $ 1 1 $ , U C.G M.8XM.j K qX0Xc ).).a.(.W.w.$X XE.E.|.3X",
"%.~.&XoX1X4XOX].=X-X-XJ qXH.k.k.I 8 A 8XwX0Xz b b + +   % * * * & & * %   + + $ 7 c.c.G k.S j L k.Y A.yXD ).E.t.(.W.e.E.). X'.$X",
"$.5X1X1X5X6X5XY.[.`.C 8XD.qXn.m z.h G.I.wXrXv b z   & & & & & & & & & & & & X + 1 v.c.G n.j.S z.m m.0XG.P.J |.E.a.f.a.q./.). XoX",
"$.5X6X5X5X5X<X2.h.0.H.L G B G L F J.8XJ.rXL.z z z = = = & = = = = & = = & = = = ; c.I H x.c.j.G K G m G K H.V.Q.E.t.E.3.4.e.+X5X",
"#.1X1X1X5X6X;X2.i.w.6 G H A S F Z.wX9Xj.F.J.j v h = - = = = - = = - = = - = = = ; l.K K m m j.D G B M G G 9 Q.}.Q.E..Xr.3.3.s.=X",
"Z Q.oX>X1X5X;X2.w.m U h G M.S A 0X9Xl.m 2 0Xk k 8 - - - - - - - - - - - - - - - ; k.I I H o N l.m N b.G h Y G  X}.).).).Y.r.t.(.",
"#.;.0.Y.^.>XV.2.'.Z.H.yXl.+ A c.0Xk.z j h 0Xk 8 h 0 - 0 0 0 0 0 0 0 - - 0 - - 0 ; k.I P K @ z j.# m , k.qXH.Z.$.9.;.-.-.-.-.r. X",
"].XX(.(.XX6X;X;.B Z.H.rXU , 1 H.Z.j.k z N 8Xh h z 0 0 0 0 0 0 0 q 0 q 0 0 q 0 0 ; I v.L L , + 8 A O , U tXH.A.L .Xy.8.(.g.XX=X4X",
"W.(.(.a..X6X;X;.m.D.0XwXb + v 8Xb k b 7 N.qX8 8 h q q q q q q q 0 q q q q q q q r x.k.G j.j 1 < G o + b wX0XD.Z.%.s.(.g.[.].].@X",
"a.[.'.&X'.{.W.C k.8XrXc.1 . G J.b c.B D.Y 0X8 k k q q q q q q q q q q q w q q q r G G K k.b > 7 N . + 1 c.rX8Xv.C w.s.[.[.a.p.g.",
"p.p.a.g.'.-X!.m G 0Xc.k . @ j.L M.G c.G qXP.7 h 8 w w w w w w w w w w w w w q w r L K S H H b v b o + . k c.9XM.N 0.E.a.(.E.a.a.",
"'.(.(.W.[.&XW.G Z.L.N @ . # c.G h l M c.F D.7 h 8 w w w w w w w w w w w w w w w r D D G D D > 1 6 . . . + A J.L.K 0.a.g.(.[.a.a.",
"W.[.[.[.[.c.D.G.L.M.l 7 1 1 j.k l c.K G N.I.h 8 8 e e e e e e e w e w e w e w e r N N N H z 8 > @ .   1 6 k M.G.H.D.c.g.(.(.(.a.",
"(.W.'.).8.I N.L.8XM.G b 1 , N + k b.A.A H I.8 8 8 t e e e e e e e t t e t e e t r z z z L 1 N @ , X . , M G M.G.J.C.I 2.f.f.[.(.",
"@XXX].(.p.2 G B P P L m + + k # l h F L S F.8 7 7 t t t t t t t t t t t t t t t r 7 8 j G 5 7 @ $ $ + > m K Y Y F B o q.p.(.'.W.",
"].{.[.g.d.$ K n.D.I.n.v ,   8 , h F N.v.wXN.1 3 9 t t t t t t t t t t t t t t t d j 3 3 H U D $ # .   7 G M.P.D.n.v @ s.[.(.&X0.",
"(.a.a.p.p.$ P 1 m.D.2 v ,   8 # k 8 Y 0X> + 4 y y y y y y t y y y y y y y y u Z.J.D.G G N 6 2 , # X   8 G 2 D.n.1 b $ W.W.'.XX'.",
"'.s.w.6.p.: Y k K I N b ,   v $ K 8 qXS + . y y y y y y y y y y y y y y y y F.S.c.c.l L F.L L m @ .   8 P N I K l N > W.[.XX&XXX",
"r.8.s.~.'.1 3 k 7 x k G 7   z 1 G v z + + 5 y y i i y i i y i i i y i y a d C.S.8XP v S M.A.2 # @     , 3 1 3 2 1 2 1 -X'.(.E.(.",
"%.-.%.#.$.c.N.0XqX0Xv.G l 7 k I 5 L 3 + + y i i i y i i i i i y i i i y i b S.C.U $ G F Y D.b.+ $ # , z G v.0XrX0XN.v.#.%.%.^.%.",
"Q.4X*X&X).z B z.v.j.n j , > j S 7 C.# @ > i i i i i i i i i i i i i i i a 8XF.L.8X, j.U L D j.O >   O , 7 m U c.c.S z 0.^.0.OX:.",
"8.*X X[.{.XXV b F l < . . + l n h k.> # > i p i i p i p p i p i p i i p a 8Xv.N.Z.+ l b l.j.G 3 $ .   . . 1 l G m s #X]._./.E.*.",
"8.'.XXa.W.a.C n.K.S.G > X # z z m c.> # # p p p p p p i p p p p p i p i a F.S k.A . . . + j.h v $ .   . > G Z.8XM.c W.$X%X]..X*.",
"0.s.(.[.a.a.c v.8XL.A > . # l # m j.> # > p p p p p p p i p p p p p p p a x.F N 2   @ @ . 1 G z # .   . $ S L.qXv.V E._.{.].XX*.",
"0.g.XX(.s.3.c c.S.J.m > o > S > S F 2 < < p p p p p p p p p p p p p p p a D G G $ 2 M z 2 M k 7 $ o   . $ N J.8Xl.V +X_.).[.`.=.",
"0.W.'.'.E.OXC n.C.C.n > o , D n h m 7 < > p p p p p p p p p p p p R p p a n l A 8   + m b b 7 > > O . . > b M.D.n.V E._.`._..X;.",
"3.2X4X2XoXs.c l.C.c.m , o > A n > v N 3 2 z p p R p R p p R R R p R p p a G l 7 6 X > o z 7 2 @ 1 O . o , m c.C.l.x &.7.-.2.E.=.",
"&.p.'.a. X>XC l.D.C.m 1 o # n 5 G @ L A m v R R R R R R R R R R R R R R R U 8 j 6 o X X k v 6 2 $ o . O 1 M M.D.l.c [.h.[.h.h.-.",
">.s.E.W.&X>Xc c.S.C.N > o > b O F > v K v S v E R R R R E E E E R E E E E 4 5 5 3 X . $ < b > > @ o   . , m M.P.c.V r.e.e.i.h.%.",
">.oX~.~.2X&Xc x.S.n.N > . # n @ S L $ G I j.U f W W W W E W W W R Q Q Q Q W 3 $ $ X   1 z 6 X 7 $ .   . , m n.9Xk.s w.5.5.w.h.%.",
"^.6X1X2X5X4Xc U K.M.z > X > j n . 7 I 6 c.x.U j.F W ! ! ! ! ! W Q ! ! ! ! W f @ + + . $ 1 8 k   , > @ . $ z M.9XY s d.d.q.e.g.%.",
"*.;X5X1X1X1Xc L S.b.h # . . j z v.O 7 A > C.7 > $ ~ ! ! ~ ! ~ ~ W ! ! ! ! ! ! ~ d + + $ H . + 2 +     . @ l v.8XP s w.w.6.e.h.-.",
"-.oX5X1X>X5XV G n.x.j + X o 7 6 h A z A I I 4 > @ ~ ~ ~ ~ ~ / ^ ~ ~ ~ ~ ~ ~ ~ ~ u 5 3 $ z 7 $ z .     . + 8 U H.G s y.2.2.2.i.8.",
"w.E.+X&X X=Xc N v.K 7 X o o 5 v z.h 7 + U L + @ > ^ ^ / ^ ^ ^ ^ ^ ^ ^ ^ ^ ^ / ^ f 8 h < 1 8 + < + .   . . 9 L D.N s :X}.:X}.w.3.",
"3..X[.&XXX&XS 9XqX8Xm 2 o o 6 h h v v m > G + > @ ^ ^ ^ ^ ( ` ^ ^ ^ ^ ^ ^ ^ / ^ f 8 z < 1 + $ + $     O 3 m I.qX9XG :XoXoXW.e.+.",
"3..XXX&XXX$.5 M k.L 7 o . > j h h h b 6 5 L > > $ ` ` ` ` ` ` ) ^ ( ( ^ ( ^ ^ ( g x z 1 3 . > # , O + . . 9 P M.m 3 o.<X1X1Xh.+.",
"2.[.).&X!.k.v.U D N F Y F > 7 S o @ k M 2 B l l b s ` ' { ' ' { ( ] ] ] ( ( ^ ` b l.v.5 2 @ >   > O > F Y F S S U v.z.;X;X<X_.+.",
"3.XX}.).Y.F.P.C.n.n.v.l.G z 2 N F.# 2 # S b 8 3 5 g ' { { { { { ) ( ] ' ` ` { { j I F D > @   z $ @ 5 G z.b.n.C.N.I.K.^.}.+X:X%.",
"%.0.Q.7.&.b.l.M.Z.j.K D b z j n.z U S U L H.+ + @ { { _ { { { ' ) ( ) ` ` ) ^ ..g 4 5 5 L h z + k $ 7 b S H j.N.N.k.v.*.-.&.8.+.",
"W.4X6X+X8.k.k.n.J.n.N b 8 3 5 8 S D.j.z H m @ O o X.X.X.X.X.,.,.X...........[ X.[ 9 6 , z 5 7 n + + , 8 b N n.Z.M.k.k.:.>X<X,X>X",
"1X6X<X,XY.k.I U l.K b l 5 > 1 z k.M S P M.N . o @ @.X.,.,.,.@.X.@.,.,.<.,.1.{ X.[ 2 h > 2 K 7 5 + . @ 5 z b K I x.I k.7.f..X4X,X",
",X1X5X5XT.b I K H S 8 5 < o . 1 v b z v H z . . o <.,.@.<.<.1.,.<.<.<.1.1.1.| 1. .1 5 > 2 5 < 2     X 1 3 8 N F K I n U./.Y./.,X",
"`._.<X1X;Xj l h 8 5 , @ + $ > 5 3 5 h m v j.  + . 1.u.u.2.1.u.1.u.u.5.u.u.R.| u.} 2 2 > b > < X . 4 , + @ > 3 7 h h h U.+X$X%X`.",
").R.#X6XeXc N z M M 7 8 9 7.8.u.4 j 7 > G B + . + /.u.t.e.i.`.`.Y./././.%X%XV.U.| 1 1 > > > o @ R.Y.t.9 h 7 m H z A s /.).|.%XOX",
",XE./.$X<XrX<X=.7.U.9.9.U.-.-.*.%.&.g # k v + X . s.0.g.g.'.'.-X+X'. X&X X4X;.>.o.7 l 7 < @ # 9.U.T.:.U.>X;XY.-.2.&.2.5.i.f.%X|.",
",X3X}.`.,XeX5X).XXOX.X). X9.7.U.=.&.a.3.%.7 @ . . #.0.g.[.W.W.'.&X3X~.&X&X=X!.s.} j 5 > > @ :.>.=.%.-.T.U.T.:.:.>.} 4.5.4.i./.`.",
"%X).%XE.`.eX;X0.)./._./.3X6X6X7X6X3Xf.#X'.=X$.$.-Xg.;.s.'.'.~.'.W.'.2X~.XX&X^.p.O.# $ $ O XX3X3X,X4X3X4X7X3X4X7X6XT.2.5.i.5.i./.",
"i..X$X%X%X3X!.Y././.`.%X$XQ.oX|.XX'./.].). X].].-X'.>.g.'.-X-X~.XXXX=X&X&X2XV.s.s.).q.p.).Q.].).W. X+X&XOXoXoX&X4XT.&.5.5.5.i.f.",
"i._.#X+X#X@XY.y.Y.Y.R.%X#XY./.y./._.).]._._.).E.[.W.;.a.'.'.'.&X'.Q.&X&X&X1XT.0.W.E.3.d.W.Q.&XOX).). X3XOX+X~.OX4XT.2.5.5.5.i.i.",
"R./._.%X$X#Xr.Y._.E.`.`.,Xr.t./.t./././.].`.+X(.-X~.s.W.'.~.&X-X&X~.XX&X~.&Xs.~.oX).w.e.(.0.~.OX X X X+XOX2XoX+X4X!.&.5.i.y.y.i.",
"y.4.y.r.).OX7.y._./.R.).:XY.).:XoX/.f.t.`..X].).&XXX>.Q.s.s.s.~.~.~.'.W.^.&X>.^.~.!.e.e.6.0.+X&XoXoX XOX~.OX2XoX:X^.&.8.i.t.t.t.",
" .Z Z Z  .=.=.=.:.7.=.U.9.~.1X,X3X X_.).)._. XW.-X&Xs.~.^.s.9.;.>.>.$.} Z >.*.*.V.>.&.2.-.0.'.~.W.oX2XOXoX&X3X3X3XW.Z  . .Z  .O."
};
