/* XPM */
static char *result[] = {
/* columns rows colors chars-per-pixel */
"64 64 237 2 ",
"   c #3C1F23",
".  c #3F2123",
"X  c #461E1F",
"o  c #4C1E1C",
"O  c #5C1E17",
"+  c #541E19",
"@  c #591E18",
"#  c #641E14",
"$  c #6C1E12",
"%  c #5E2F1D",
"&  c #6E2214",
"*  c #662519",
"=  c #742413",
"-  c #7D2A13",
";  c #742B1D",
":  c #752915",
">  c #78321A",
",  c #411E20",
"<  c #482625",
"1  c #5A3A33",
"2  c #552F2A",
"3  c #752D21",
"4  c #7B3826",
"5  c #6E3730",
"6  c #775C1B",
"7  c #66463A",
"8  c #744A37",
"9  c #795648",
"0  c #776948",
"q  c #7E6750",
"w  c #832E14",
"e  c #8C3316",
"r  c #873316",
"t  c #943916",
"y  c #963A17",
"u  c #833C26",
"i  c #9C4118",
"p  c #894C12",
"a  c #A34319",
"s  c #AD491A",
"d  c #A74919",
"f  c #B44E1B",
"g  c #B6511B",
"h  c #BB531C",
"j  c #B8591A",
"k  c #AA5018",
"l  c #9B6516",
"z  c #84432B",
"x  c #88462B",
"c  c #854436",
"v  c #86553A",
"b  c #955635",
"n  c #A9682D",
"m  c #C1571D",
"M  c #C25B1C",
"N  c #C4651C",
"B  c #CA761A",
"V  c #C66E32",
"C  c #894F48",
"Z  c #8D5944",
"A  c #905A55",
"S  c #976545",
"D  c #8B7856",
"F  c #987A57",
"G  c #8B6F50",
"H  c #A87B55",
"J  c #AA734B",
"K  c #9A6966",
"L  c #9C7967",
"P  c #A86C6A",
"I  c #AB7378",
"U  c #AA787A",
"Y  c #9E5F60",
"T  c #C87E42",
"R  c #988818",
"E  c #AC8A15",
"W  c #D59919",
"Q  c #D0881A",
"!  c #D8A718",
"~  c #DEB517",
"^  c #E0BE17",
"/  c #E4C917",
"(  c #E2C419",
")  c #E7D815",
"_  c #ECEC13",
"`  c #EEF513",
"'  c #DCC232",
"]  c #E4C931",
"[  c #99865C",
"{  c #9B854F",
"}  c #A7895B",
"|  c #B6885A",
" . c #B7965D",
".. c #A9945E",
"X. c #9A8865",
"o. c #8D8265",
"O. c #B78D63",
"+. c #A89668",
"@. c #B39C6A",
"#. c #B89765",
"$. c #AA9A71",
"%. c #B59C75",
"&. c #B18177",
"*. c #B5A26C",
"=. c #BBA46E",
"-. c #BCA569",
";. c #B6A274",
":. c #BBA674",
">. c #BDAA74",
",. c #BDAB7B",
"<. c #B7A779",
"1. c #BCB17C",
"2. c #C39B68",
"3. c #C49C71",
"4. c #C4A46B",
"5. c #CBAC6B",
"6. c #C7A867",
"7. c #CCB26D",
"8. c #D4B36C",
"9. c #DAB46D",
"0. c #D7B96E",
"q. c #C3AB74",
"w. c #C3AD7B",
"e. c #C7A975",
"r. c #D1AD76",
"t. c #C5B275",
"y. c #CCB373",
"u. c #C4B37C",
"i. c #CBB57B",
"p. c #CDB97C",
"a. c #D3B573",
"s. c #D6BA72",
"d. c #DBBC74",
"f. c #D2B57A",
"g. c #D4BB7C",
"h. c #DBBD7B",
"j. c #DAB673",
"k. c #D3AA68",
"l. c #E1BD75",
"z. c #E2BF78",
"x. c #D89D56",
"c. c #E4CC51",
"v. c #DCC176",
"b. c #DCC27C",
"n. c #D7C17B",
"m. c #DFC76A",
"M. c #E3C375",
"N. c #E3C47C",
"B. c #E5CA7D",
"V. c #EACB7E",
"C. c #E9C979",
"Z. c #EDD374",
"A. c #D7C052",
"S. c #AF7C82",
"D. c #AB8684",
"F. c #B28388",
"G. c #B59395",
"H. c #BB989C",
"J. c #B8918B",
"K. c #BCB187",
"L. c #BDA4A6",
"P. c #C5B483",
"I. c #CCBB82",
"U. c #C9B885",
"Y. c #D4BC83",
"T. c #DBBE82",
"R. c #D4BD89",
"E. c #CCB38E",
"W. c #C1A9AC",
"Q. c #C4ADB0",
"!. c #C6B2B5",
"~. c #C8B5B8",
"^. c #CBB7B2",
"/. c #E0BC81",
"(. c #D4C285",
"). c #DCC483",
"_. c #DECA84",
"`. c #D4C38B",
"'. c #DBC48B",
"]. c #DCCA8C",
"[. c #D6CB8E",
"{. c #DDCC93",
"}. c #D7C795",
"|. c #DDD194",
" X c #CFC589",
".X c #E3C483",
"XX c #E4CB84",
"oX c #EACB85",
"OX c #E2C68A",
"+X c #E4CC8B",
"@X c #EACD8B",
"#X c #E8C785",
"$X c #EBD185",
"%X c #E5D18C",
"&X c #EBD38D",
"*X c #EAD78B",
"=X c #F2D78A",
"-X c #E3CD92",
";X c #E9CE92",
":X c #E4D394",
">X c #EBD493",
",X c #ECDA94",
"<X c #E4D49A",
"1X c #ECD59A",
"2X c #E6DA9C",
"3X c #ECDB9B",
"4X c #E7D995",
"5X c #F2DC94",
"6X c #F2DC9B",
"7X c #F2D695",
"8X c #F1CF93",
"9X c #EEE09C",
"0X c #F3E39C",
"qX c #F8E699",
"wX c #F4E18E",
"eX c #D7CDA4",
"rX c #DDD3A6",
"tX c #DFD9BB",
"yX c #EBDCA3",
"uX c #EBDEAA",
"iX c #E5D9A6",
"pX c #F2DEA4",
"aX c #E8DDB2",
"sX c #EEE2A4",
"dX c #EDE3AC",
"fX c #E7E0AD",
"gX c #F3E4A3",
"hX c #F4EAAC",
"jX c #F6E9A8",
"kX c #F9F2AC",
"lX c #EDE5B4",
"zX c #E9E4BA",
"xX c #F3EBB3",
"cX c #F4E9B6",
"vX c #F9F4B4",
"bX c #F6EFC9",
"nX c #DAD4C2",
/* pixels */
"P.cX;X+X`.+X4XqXkXkXkXvX4XU.uXsXpX&X@X5X1XpX6X@X6XjX*X5XqXqXxXlX}.9XpXpXR.OX7Xr.1 3 } =X2.-.:XgXhX2X4XpX`.{.|.4XjXjXT.8XoX/./.@X",
"} B.B.XXwX*XXX*X%X%X*XqX$X X>X&XXXOXOX>X7X&X&X7X6X3Xh.C.N.d.V.%X1.T.#X;X7X+X@XOXf.k.3.=Xa.u.+X:X4X4X1XgXsXsX2X4XhX|.j.9.9.k.M.qX",
"D 0.v.d.v.B.n...8 S XXwX%Xu.h.B.N.+XOX+X+X>X+X@XqX&Xh.b.oXN.#X+XP.1X@XOXOX@X@X.X/.#X#X8Xg.E.:X4X3X:X+X|.1XyX3X2X2X Xz.9.9.9.l.=X",
"[ v.v.N.b.$Xt.2 8 $XXXV._.8 5.a.h.XXN.,X>X7X:XOX&X+Xg.XX&X+XXX:X:..X@X@X#X#X#X@X.X7 4.7X.XI.|.4X4X4X:X|.[.4X3X9XgX{.5.9.9.k.l.wX",
"[ s.n.0.v.$Xn.F %X3X%Xs.t.. $.<Xh.N.OX+X&XOX-X+X>X).y.*X@X5X%X:Xw..X#X.X#X#X.X.X7 8 #X6XU.;.>.:X<X4X%X4X|.:X>X,XyX Xk.9.l.9.9.$X",
"{ 0.B.B.v.0.v.b._.(.G 1 . D `.].g.k.4.=.:.>.:.*.Y.[.+.g.g.h.).`.:.;X8X.X.X/.#X.XO.x #Xw.X.D   P.`.`.:.q ,.g.].(.(.P.h.a.9.l.z.=X",
"{ n.s.v.b.v.b.b.v.<     e.O.O.2.| | 2.g.b.5XjXkXjX6X&X'.b.+X9XsX:././.#X.X#X#X#X#X/.OX;XgX<   u.4X].+.< % <.>.u.`.u.w.>.*.:.q.%.",
"{ 7.v.M.v.0.m.v.v.    o z $ x H ; $ $ 4 a.XX$X&X&X5X%X+X*X,XqX2X<.#X.X@X#X/.z.#X#X@XOX6X6X.   1 t.s.=XH H gX4X,X9XhX:X4X0X0XjX7X",
"D m.v.v.v.v.7.v.v.1   X 8 a.T.3.= $ $ $ $ #XXX&X*X,X1X_.XXB.oX4.S #XOX.X/.#X.X.X#X#X.XOX'.f.} 1 < 2 k.j.(.1X>X)._.6X3X>X1X-X1XqX",
"q 7.7.0.0.m.7.0.v.v...+.+XXXf.: e w = $ $ %XOX&X&Xn.B.N.0.0.0.m.F u J #XOX#X@X@X.X;X8XS e.h.M.M.4 # n 6.).].-X>X].+X>X:X3X1X1XkX",
"o.7.v.v.0.0.0.s.0.v.B.wX(.y.6.= g h d e - O.>X&X&X:Xb.B.b.d.v.v.@.r.c Z H OX8X;XOX-X8X1X4 ; 2.B.x & $ b | H | z.).OX'.].:X6X9XvX",
"[ -.7.7.7.6.y.6.6.6.n.b.t.P.4.f h W W N h i J &X7X,XXX@Xb.N.C.M.@.f.2.$ , 1 R.;X;XOXT.8Xr.$ : 9.z $ w s g $ e x.k.&X1X].OX4X>XvX",
"*.n.v.v.b.n.u.*.t.u.u.p.p.K.I.W ~ / / ^ ~ N a M.,X%X*X>XXXB.b.$Xg.OX].| < . < $.P.3.e.I.w.u # 4.z : h N M w m M M | *X1X).).>XgX",
"+.|.yX2XdXxX3X&X5XwXwX5X5XwX=X/ / ) ) ) / ~ V b.7X,X+X+XXX&X&XoXh.$X#X&X6.o   X.yX;XOX6X6X7X@   z - B ~ B Q W ! N V s.).%X:X:X*X",
"o.lXdXdXlXdXlX).&XoX&XOXb.XXC./ / _ ` ` / ^ x.5X0X6X,X&X_.&XXXXXe.N.XX@XOX# <   OXOXh.h.h.h.O   '.g ~ ( ^ ) ) / ~ V b.a..X+X>X<X",
"o.zXxXlXlXlXtX4.C.oXoXoXOXXXC./ / ` ` ` / / m.&X,X,X3X,X+X,X*X%Xg.b..X&X7X#     r./.OX.XOX).O   h.B./ ( _ ` _ ) / V b.7.8.v.>XzX",
"X.dXdXuXlXcXrX6.l.N.oX@X&X@X>XC./ _ ) / / / Z.,X>X,X,X3X>XXX&X%Xg.oXXX+X;X#     f.h.#X/.OXOX@   '.8X] / _ ` ` ) / ] &Xg.y.7.v.gX",
"D Y.2XiXlXlXrX4.j.d.#X=X+X@X7X>Xm.] / / ' m.:X1X1X|.%X%X%X%X:X_.t.OX+X.Xu ,     T.'.;XOXOXOXo   '.>X5X' / ) ) / c.c.%XXXY.g.b.B.",
"[ :.i. X[.aXK.4.+XN.+X6XyX'.@X&X=XC.Z.m.(.|.[.+X1Xp.u.i.p.p.(.(.@.q.T.O.;     F ;XOXOX<X-XO.,   -X>XgX*.] / / A.t.>.*.>.*.>.g.4X",
"&X4XXXB.,XcX}.>.).b.&X-X3X>X#X.XN.N.V.z.|.2X4X3XgX,X:X6X3X,X5XwX$X$X#X3 ,     e.1X-XOX;XY *   , >X6X0XY.).%X'.OX&Xy.7.XXB.7XgXqX",
"_._.XX_.>XcXeX>.oX>X>X6X6X7X)..Xh.M.V.y.6.q. .2.4.e.t t t e w = & k.| $ ,   , * 3.8X1XH #     F OX1X6XT.#Xh.OXB.XXv.B.XX$X*X4X5X",
"b.%X$X4X%X=X[.q.:X,X;X@X>X&XXX#X.XOX1Xq. .n s s s f N B B m h s e $ $ + , , t s e H e.u X   5 OX'.-X<XR.j.8.a.d.oXy.n.*X$Xb.s.C.",
"v.b.b.B.+XwX[.t.+X>X7X7X:X#XOX#X:XO.2.H u e e e f W ! ( / m m m g = & # , # f m m g 3 o   C -X1X<XyX<XT.8.j.h..X&Xy.n.b.XXb.b.b.",
"XX%X%XXX%XwX[.;.h.+X&X:X1X@X>XOXb = y g g s - $ = / / / / m m m - g g w $ $ = t a y $ , H 1XyXyX-X8X-XR.T.j..XT.@Xy.b.$XXX$X_.b.",
"XXXX*X%X*XqX[.[ +...$.<.P.q.@.4 = d ! ! W N g w $ l / / ^ m m m = m m ; % # $ # # # #   R.R.`.R.R.-X}.R.7XOX.XT.OX:.0.B.b.$XXXb.",
"*X_.%X%XB.V.*X].kXjX1XgXyX'.).$ f N ( ( ( ~ m e $ - W W N m m m = h y + R X $ + 6 , @ ; x 4 X.X.X.%.w.%.U.w.@.:.w.[ 0.v.B.b.*X_.",
"5X,X&XXXM.,X[.`.1X<X<X<XhX-Xe.$ g m Q ~ ! ! h w # s M M m m m m = e w O O O # + 6 @ > g m & n r.).-XpX}.'.OXR.'.uX+.5.0.v.%X%X_.",
"=X&X*XB.v.M.b.U.1X<X'.'.jXI.> $ e m m d p i w O X m m m m m m m = & p p $ $ O $ # < j m m i E l J z.OX}.{.-X@XpXbX%.M.b.$X_.4Xn.",
"_.b.b.m.v.$X[.U.{.-X-X'.>Xu $ $ o & & # # # +     = h m m h h h - $ * R p > : # X g h m m f l ! r 8.d.#X6X;XoXpXsX<.b._._.%X9X:X",
"+Xb.0.v.0.,X`.U.{.-X-X<X;X$ r p & + o ,           O e m m h e $ t $ O + R E l # 4 h h g f t = s m x N.5.z.d.h.OX%X1._.XX%X*XwX,X",
"p.y.n.[.4XdXU. X{.{.{.-XO.= N ! > $ # o       o   X e m m m a : $ # + o o o + % r a e - w O $ e m u #X.X)..XT.XX*X<.(.4X%X_.(.%X",
"@.*.+.X.+.[.K.u.E.I.i.i.u = Q / j $ $ o   , O # X   e h m m h f k $ # # X       X = $ $ o , + = - 7 B.OXN.#XOX.X5X:.>.*.@.+. X+.",
"(.jXgX4XwX,X&X*XXX7.).B.u w m W N $ $ o   $ $ $ X X # y h m m m j h = $ $ $ $ $ $ $ # o           8 ).@X.X#X-X;X7XR.`.).`.i.2X<.",
"y.0X*X*X4X,X&X%XdXlXgXJ.$ m m B M $ $ o X $ # O $ + o o - s s d s s t $ $ $ $ $ $ $ X           + f.#X>X;X;X;X<XgXY.6X&X@X.X_.$.",
"t.%X4X_.XXb.b.9XvXxXpXS $ m m m y $ O X # $ O X o $ O X . * = : = O = $ $ $ $ $ $ o           o 3.>X-X-X;X;X;X6X6X'.OX5X&X&X>X$.",
"p.b.XX$Xb.b.XXn.4XdXR.& $ f m g = $ O   # #       X # #     X X X X # # # # X o               :..X;X;X;X;X<X>X;X>XY..X+X&X&X,X$.",
"t.$X4X_.n.7.n.{.<X9X$ $ $ : s - $ $ S Z + $ o + +   X X     o X . .     ,   ,   o         , # r.OX@X-X-XpX-X;X;X>Xi.:X&X@X@X@X@.",
"i._.%X%X).3XsXhXdXe.$ $ $ $ : O G } '.} $ $ # $ $ O   X o   o + + o     o % b + ,         # z T.OXOXOX-X;X<X-X-X-Xw.).&XoX@X>X,.",
"t.hXhXsX|.n.n.).).: $ $ $ $ S r.,X,X>Xi.> $ O X # $ o + & + + X 2 1 5 #.i.g.i.o , <     + & O.&X:X<XI.@.+.;.w.P.R.<.*.=.-.q.).@.",
"*.v.XXb.:XsXdXuXxX= $ $ $ w : #.%X|.|.7 < O O + X + X o o o o Z w.:X.X-XY.g.y.+ ,     + $ z =XoX=X=XjX#XR..X,X7X6X0X&XV.V.C.C.*.",
"@.n.b.].2XiXvXxXvX{.# = a h e $ H | S o X     o     @ # # 5 iX}.*.+X+XOXOX).i.& $ O O # $ h.#X=X=X@XgXT..X{.g.l.#XB.h.d.d.d.V.+.",
"1.2X|.2XsX9XdXlXxXdX$ y m m f = $ X + # # o         ,   , 9 %X}.*.b.).+X:X+XOXx $ $ $ $ : oXOX@X&XoX=XR.<XuXR.r.d.B.a.0.0.j.V.+.",
"K.xXdX9XlXhXhXfXyX%Xx - a m m s & +   X O #         , , , 4.T.t.#.y.b.).g.XX+X| $ $ $ $ | B.#X8XN.8XpXiXP.E.I R.5.8.M.d.8.s.C.+.",
"$.fXlXfXfXsXfXn.t.7. .$ = y m m i $ o     # o         @ $ 2.3.`.@.y.y.g.i.h.Y.H = $ $ H :.f./.#Xz.r.E.I I S.H.'.9.k.s.0.j.d.V.=.",
"-.2XbXaXfXlXrXn.}.}.}.} $ $ e m m : O     $ O .       @ , , # 5 *.s.n.v.s.g.q.:.4 $ = E.}.R.E.r.U I I I I Q.~.^.6.6.g.6.6.6.M.y.",
"a.b.>X3X*XqXkXfXlXlX|.8.b $ e h m s $ o   # O       , O ,       + + b 2.B.$Xd.gXJ 3 y c R.R.I S.I S.F.G.Q.W.~.W.g.s.3X-XyX{.d.7.",
"7.>X*X0X,X0X|.[.{.{.).8.k.$ = t i - $ o   o O       o $ , ,     .   X + v 6.| r.2.Y P P S.I I S.J.W.Q.~.~.A ~.K <XoXyX<X2X].d.} ",
"5.*X,X5X4X0X4X[.'.(.y.8.6.# O $ $ $ $ o   X # X   , o +                 A K P U U I I I S.I S.Q.!.~.!.P 5 4 D.3 pX:XdXdXdXdXB.} ",
"5.%X%X9X0X0X%X{.{.).6.7.6.$ O O $ $ $ $ o 9 S S S S S 7 <   . 2 1 1 I I I I I I I S.S.S.F.~.~.~.!.!.Q.C &.# $ ; dXdXcXxXuXdX+X} ",
"7.1X+X+X+XoXh.`.}.I.f.a.7.& O o $ = = = $  .b..X=X).].'.c 5 9 K S.I I I I I S.F.S.H.H.L.~.~.L.L.!.W.A 4 $ $ u 3.iXdXuXaX{.1XsX+.",
"..(.(.t.y.b.+.4.:X|.(.).i.#.@ + t y a a = ; @.t.f.J.%.%.P P I I S.I I F.H.H.W.W.Q.~.G.G.~.~.S.D.~.A # $ $ e.4.a.'. XK.P.=.@.e.} ",
"].hXcX:XM.=X=.q.g.OX).i.`.Y.O O f h m g = $ u J.F.I I S.I I S.S.S.W.Q.!.!.G.K ~.~.~.L ; L.L.3 ; 3 3 $ u g.XX&XoX5X3XrX'.iXdXdXiX",
"lXdXaXaX8X5XeX<.v $ $ # # $ # # y y y - = = A L.^.G.G.G.G.G.~.~.Q.!.W.Q.~.A A ~.~.K 8 $ H.Y $ 3 u U 2.f.-Xg.d.N.$XB.OXOXN.>XhX6X",
"pXdXcXdX<X5XeX<.Y.F F F F O O # $ O # = $ { 2.c W.~.~.~.~.Q.G.G.Q.W.c S.D.D.F.D.S.* 4 $ u $ c r.OXT.@X'.yX<Xj.d.$Xv.'.>X.XT.OXpX",
"@X;XdXaXcXhXeXP.[.+X].Y.} $ $ $ #   , * > N.y.b H.W.U ~.~.Q.G.G.K C # c 3 3 c 3 u u u O.U.Y.-X-XOX).oX'.iXuXOX5.9.l.OX6X6X3X;XOX",
"OX/.pXcXcXbXnXw.-X:X-X).4 $ $ $ X   o x T..XXX4.W.U L ~.~.~.L.H.U $ $ # $ > Y P.<X-XiX1X-X>X7X;X>X-XOXrXcXcX:X8.0.k.j.OX#X@X8X6X",
"uXT.#X1XaXbXaX$.,.I.u.H $ $ $ @     v ..i.>.g.i.H 8 C C Z H.Z u $ # # , $ J ,.;.u.,.,.U.w.w.w.w.P.P.>.P.iXiX`.2.6.#.6.9.l.B.@X;X",
"gXgX;XoXiXbXbX-X3X4X:X| $ $ # X   % e.5.(.U.w.@.%.[ J  .| @.r.$ $ + , , 3 jX'.I.q.+.[ ,.P.P.<.;.%.+.;.U.P.K.<.<.<.D 8.j.8.l.#X@X",
"8X#X@X/.#XbXrXf.#XOX.Xz $ $ +   X O.N.6X%X0XjXjXqXB.>.v.XX%X4.$ o   , # n.4X(.b.a.g.7.7XgX6XjXgXgXjXgXjXvXgXjXkXkXK.-.9.l.9.z.#X",
"l.7X1X1X8XgX`.Y..X.XJ $ $ #     e.@XOX%X-X%X&X:X=XXX>.XX&X,X> + , , $ O.9XsXK.h.b.+Xa.v.@XY.%X+X].:X4X0X2X2X3X3XhX X .9.9.j.z.z.",
"h.oX3X1X6X7Xh.f.h.g.= $ X ,   #..XoXOX&X+X@X+X.X&X).t.).XX_.* X   # & n.sXdXP.y.[._.8.v.%XI.9X4X:X:X%XgXyX<X:X3XsX X6.9.9.9.l.l.",
"/.oX@X8X7X0XY.T.@X$ $ $ X     :.Y.)..XXX&XoX>XOX7X4Xu._.%X          + * * I. X|.<X_.s.d.&Xi.:X3X-X%X:X4X4XgX<X2XhX{.#.0.l.a.j.z.",
"d.f.h.g.'.4Xw.r.#XH $ $ # o   9 G G a.b.oX>X:X@XwX4X>.(. XD         < X X < 8 @.{.{.d.0.s.p.:XsX4X4X<X2X|.4XsX2XyX[.@.7.d.h.g.g.",
"G 0 9 0 G %.@.@.w.w.%.w.:.`.iXrX1X-X&X+XOX;X-X+XwX9X X:X Xn.>.>.+.$.o.0 0 <.$.$.K.1. .4.-.u.+X:X].2XsX2X2X9XsX0XsX[.0 G G 0 G } "
};
