/* XPM */
static char *result[] = {
/* columns rows colors chars-per-pixel */
"64 64 236 2 ",
"   c #3C1F23",
".  c #461E1F",
"X  c #4B1E1D",
"o  c #5D1E17",
"O  c #531E1A",
"+  c #5A1E18",
"@  c #631E15",
"#  c #6C1E12",
"$  c #6B2517",
"%  c #752413",
"&  c #792A18",
"*  c #75311D",
"=  c #411E20",
"-  c #482825",
";  c #56342E",
":  c #7B3724",
">  c #702F24",
",  c #5C251C",
"<  c #6F4530",
"1  c #675043",
"2  c #786A49",
"3  c #8A3416",
"4  c #963A17",
"5  c #9B3E18",
"6  c #832E15",
"7  c #813C2F",
"8  c #AC481A",
"9  c #A44319",
"0  c #B44E1B",
"q  c #BC531C",
"w  c #AA7614",
"e  c #84442B",
"r  c #864735",
"t  c #915336",
"y  c #A15A2A",
"u  c #C1571D",
"i  c #C35E1C",
"p  c #C6681C",
"a  c #C9731B",
"s  c #C76E2F",
"d  c #976747",
"f  c #8B784E",
"g  c #8A7855",
"h  c #927C55",
"j  c #886C50",
"k  c #A26C48",
"l  c #AA774D",
"z  c #A87B55",
"x  c #9A6965",
"c  c #AB7278",
"v  c #A87B79",
"b  c #8E5650",
"n  c #B58916",
"m  c #CE811A",
"M  c #D28D1A",
"N  c #D69A19",
"B  c #D8AE19",
"V  c #D5BC2D",
"C  c #E4C817",
"Z  c #E2C217",
"A  c #E7D715",
"S  c #EBE914",
"D  c #EEF513",
"F  c #DFC42E",
"G  c #E3C827",
"H  c #E5CA35",
"J  c #9C8559",
"K  c #9B854F",
"L  c #A68A5C",
"P  c #B88758",
"I  c #A7935E",
"U  c #B8965D",
"Y  c #A7934C",
"T  c #998965",
"R  c #8D8265",
"E  c #A59264",
"W  c #AB986A",
"Q  c #B39C65",
"!  c #B59D6B",
"~  c #BB9766",
"^  c #B9887C",
"/  c #AA9B71",
"(  c #B29E72",
")  c #AE8E65",
"_  c #B5A26C",
"`  c #BBA46D",
"'  c #BCA467",
"]  c #AEA273",
"[  c #B5A373",
"{  c #BBA574",
"}  c #BDAA74",
"|  c #BCAB7B",
" . c #B5A779",
".. c #BCB17C",
"X. c #CC8E50",
"o. c #D9BC4E",
"O. c #C59C6B",
"+. c #D19B62",
"@. c #CCAC65",
"#. c #C5AB6A",
"$. c #CBAD6B",
"%. c #C5A666",
"&. c #D6A669",
"*. c #CDB26D",
"=. c #CBB06B",
"-. c #D3B36C",
";. c #DAB46D",
":. c #D5B96E",
">. c #DCBB6D",
",. c #C3AC75",
"<. c #C2AD7B",
"1. c #C8AA73",
"2. c #D1AB79",
"3. c #C5B174",
"4. c #CCB374",
"5. c #C4B27C",
"6. c #CCB57B",
"7. c #CEB97C",
"8. c #CFB975",
"9. c #D3B573",
"0. c #DAB771",
"q. c #D6BA73",
"w. c #DBBC74",
"e. c #D3B67A",
"r. c #D4BB7C",
"t. c #DBBD7B",
"y. c #E2BD75",
"u. c #E3BE7C",
"i. c #E1B46D",
"p. c #DBC176",
"a. c #DCC27C",
"s. c #D8C27C",
"d. c #DAC368",
"f. c #E3C475",
"g. c #E2C57B",
"h. c #E4C97D",
"j. c #E9CB7E",
"k. c #E9CA77",
"l. c #ECD679",
"z. c #E3C853",
"x. c #AF7B81",
"c. c #B79698",
"v. c #AE8586",
"b. c #BAAD81",
"n. c #BFB388",
"m. c #C5B483",
"M. c #C9B582",
"N. c #CCBB82",
"B. c #C9BB88",
"V. c #D3BD83",
"C. c #DBBE82",
"Z. c #D3BE8B",
"A. c #C9B288",
"S. c #C4ADB1",
"D. c #C8B5B8",
"F. c #C7B2B6",
"G. c #C1A8AB",
"H. c #CCC28A",
"J. c #D4C285",
"K. c #DCC383",
"L. c #DEC984",
"P. c #D4C38A",
"I. c #DBC58B",
"U. c #D7CA8E",
"Y. c #DDCA8C",
"T. c #D4C592",
"R. c #DDCB93",
"E. c #D9CA96",
"W. c #DDD193",
"Q. c #DDD29B",
"!. c #D3CA8C",
"~. c #E3C584",
"^. c #E4CB84",
"/. c #EACB84",
"(. c #E2C68A",
"). c #E3CC8B",
"_. c #EACD8B",
"`. c #E8C686",
"'. c #EBD185",
"]. c #E5D18C",
"[. c #EBD38C",
"{. c #EDD98D",
"}. c #E6D386",
"|. c #F2D58C",
" X c #F4DC8C",
".X c #F3D584",
"XX c #E3CD92",
"oX c #E9CE92",
"OX c #E2CB98",
"+X c #E5D393",
"@X c #EBD493",
"#X c #ECDA94",
"$X c #E4D49A",
"%X c #ECD59A",
"&X c #E6D99B",
"*X c #ECDB9B",
"=X c #E7D995",
"-X c #F1D593",
";X c #F2DB94",
":X c #F2DC9B",
">X c #F5D998",
",X c #F1CF93",
"<X c #EEE19C",
"1X c #EFE096",
"2X c #F3E29C",
"3X c #F7E599",
"4X c #F4E18E",
"5X c #D7CDA4",
"6X c #DCD2A5",
"7X c #DFD9BB",
"8X c #E5DAA4",
"9X c #EBDCA3",
"0X c #EBDEAA",
"qX c #E4DAA8",
"wX c #F2DEA4",
"eX c #E8DDB2",
"rX c #EEE2A4",
"tX c #EDE3AC",
"yX c #E7E0AD",
"uX c #F3E4A3",
"iX c #F4E9A4",
"pX c #F8EBA3",
"aX c #F1E5AD",
"sX c #F4EAAC",
"dX c #FAEDAA",
"fX c #F9F2AB",
"gX c #EDE5B4",
"hX c #E9E4BA",
"jX c #F2E5B2",
"kX c #F3EBB3",
"lX c #F5EDBB",
"zX c #F9EBB3",
"xX c #F9F3B7",
"cX c #F7F2C5",
"vX c #F5EECA",
"bX c #DAD4C2",
/* pixels */
"M.zXoX(.J.).@X3XfXfXfXxX=XZ.qX9XwX_.[.;X%X:X:X_.>XpX@X X3X2XdXgXT.uXwXwXZ.(.-X>X:X:Xj..X~ } +XuXdX$X#X2XP.W.Q.*XdXsXC.,X`.C.u.(.",
"L h.^.^.{.{.).{.;X{.{.3X}.H.@X@X~.).).@X>XoXoX#X3X*Xr.^.h.q./.].| C._._.-X)._.`.`.`./..X9.5.R.+X$X=X+XuXrX*X=X+XiXQ.0.0.;.;.y.3X",
"h :.p.>.p.^.s.s.^.a.}.{.].<.w./.g.).)._.).@X)._.3X_.t.g./.g.^.).5.%X_.(._._._.~.C.~.`.|.r.N.OX*X*X$XW.+X$XrX9X=X=XH.g.;.;.;.y. X",
"h p.p.g.g.}.s.].].=X^.l.l.Q @.9.t.~.g.@X@X-XoX(.@X^.r.^.[._.^.+X{ (._._.(.`.`.`.~.`.`.>X(.N.+X=X=X@X+XQ.Y.=X*X<XrXR.@.;.i.;.i.4X",
"J s.p.:.p.}.}.].}.2X}.j.}.5.+X$Xr.g.(.)._.).oX).@XK.4.[._.;X).@X,.~.`.`.`.`.~.u.~.~.`.:X+Xm.Y.=X$X].=X=XW.].@X*X9XZ.-.;.i.0.;.'.",
"K 8.j.h.p.:.d.a.L.1X=Xa.j.5.P.I.e.$.%.[ { } [ [ V.Y.W 7.r.t.J.Y.<._.@XC.~.C.~.`._.C.~.@X+X5.U.R.U.P.W.U.J.J.Y.J.J.m.t.9.;.t.t.|.",
"K p.q.p.h.p.k.h.p.^.1X#X4XwX%X1X[..X3XK.a.;XpXdXdX>X[.K.K.Y.*X*X{ C.~.`.~.`.`./.`.,X(.>XuXY.Y.].=XY.K... .} } 5.P.5.,.} [ _ ,.' ",
"K *.p.p.p.*.:.p.w.^.2X<X=XK.).).).@X2X+X^./.}.{.}.;X+X_.{.#X3X~.O.&.`.`.`.C.u.`.~._._.:X-Xa.h.h.^.p..XL.=XrX=X#X<XsX+X=X2XwXpX:X",
"f :.:.p.p.p.*.>.p.p.{.2X=XK.I.K.~.).[.K.K.^.^.].{.@X#XK.g.g.i.u l +.u `.~.`.s ~.`.`.oX>XI.^.w.>.f.f.k.p.P.@X$XK.L.:X9X@X=XXX@X2X",
"g 8.:.:.w.d.-.:.>.h.}.#X+X^.).K.9.h.@XK.(.oX(.[.|.a.^.g.:.-.u X.~ /.`._.`.`.u `.C._.%X>XI.^.f.f.f.>.k.=.K.Y.+X@X).Y.@X+X%X%X%XfX",
"g 8.p.p.:.:.:.:.:.p.l.#XJ.4.w.K.9.:./.3.+X=X#X[.].].a.^.a.w.s f.! C.`.`.`.`.oXu u u u u R.[./.k.f.d.f.=.K.K.XX).K.).I.Y.@X:XuXxX",
"J ' =.8.#.@.4.#.#.#.3.Y.# # e r.*.-.g.} ].).[.@X#Xu ^.^.g.g.k.h.! e.e.r.r.C.oXoXu u C.u +.^.a.f.f.y.f.4.+XK.^.@X~.[.$XY.(.*X=XfX",
"( s.p.q.s.J.3.` ,.^ v D.D.c.$ I.' %.:.Q +X_.).{.;XX.-X@X^.h.a.}.r.`.Y.K.K.r.! | m.O.<.+.u N.r.a.s.@.=.' R.(.s.^.Y.q.#X@XK.K.+XpX",
"E Q.9X*XtXsX*X[.^ c c x.D.G.$ k |.;X|.,.I.#X].(.i u ).).^.[.|.j.X./._././.;XXX$X9X$X`.>Xu ;X=X#X@X^.q._ Z.).K.w.^.(.q.a.).+XoX[.",
"R gXtXtXhXjXeXC.|.^ c c c.D.S.# ].;XiXN.XX*X@Xu /.-X#X[.^.].^.}.4.X.g._.(.@X).C.(.(.r.+.X.t.u.~.9X9X@X} I.XX+XK.a.~.K.9.^.).+X$X",
"R hXkXgXkXhXeX%.j./.c c x.D.D.x O.[.fXM.W.2X@XC #X*X#X*X).#X].].e.s 0.[.-X#Xi M M p X.`.y.C.(.C.u./.*X| +XI.).K.J.a.a.$.-.p.@XhX",
"T tXtX0XkXlX6X#.y.g.2.c c F.D.v # ~.3X6.J.=X=XC C y./.;X[.).[.].:.p C.).-Xl.G z.r.r.N C.(.(.(.(.(.-X%X| _.XX+XR.I.L.@Xr.*.*.p.uX",
"g V.*XqXgXeX6X%.0.w./.^ c v.D.D.& 1. XP.m.+X+X@Xz.G a &.].).].L.B /.).^.@XZ F (.C.~.k.XX(.oX^.XXC.%X#X[ ).Y.).@XR.)._.).V.r.a.h.",
"T { 7.N.T.qXb.#._.K._.XXc c S.F.> $ -X~.H.W.U.Y.=XM.C u 7.7.J.C i <.J.V.=   ; ).oX(.(.oXOX%XH %XoXoXaX( K.I.6.7.5.{ ' ` _ ` 7.+X",
"}.@X^.^.;XjX5X,.~.t._.+Xc c x.F.D.r i.C.W.*X=X*XuXC C g.<X#X XC [.k # # +       %XoXOX(.%XOXZ oX@XwX:XV.I.).Y.Y.#X8.4.^.^.;XpX3X",
"L.).L.L.@XlX5X} ).@X@X*XOXc c D.D.r ;.6.#.$.4.r.B C }.xXaX$X:.C G f.{.uXuXn @   (.,X$XOXOX%XZ H (.%X%XC./.g.`.g.j.p.^.h.}.=X[.;X",
"a.}.}.#X]..XU.} _.:XoX_.oXc c c # c.t ` ' %.$.u Z Y.Q.cXtXQ.t o <     1 Y C T @   Z.OXwXOXoX`.C I.oX$XM.y.9.9.t./.4.s.{.'.p.p.k.",
"w.s.a.^.L.4XU.,.).[.-X-X@Xc c c F.v.# V.3.1.3.C U.T.H.l.d.# # 7.n @.o X   - V 2.= - @X%X$X$X9X[.p %X$XC.$.0.r.u._.6.a.a.^.g.s.h.",
"'.^.].^.}.3XY.[ t.).@XoX,XA.c c S.v # 3.3.<.N C W.U.d.l.3 H U.$XC o.g.6.o   ; W > O 2.%X%X%X9Xu &.9XOX(.C.0.~.~._.4.a.^.^.].a.a.",
"^.).{.[.|.;XW.J E E / | m.} c c c.F.c.j W [ C C M. .r.+X*XC p.s.H C -.p.q.O # # @ # z V.Z.V.A u Z.OXR.Z.%X~.(.C.`.[ :.h.h.'.^.p.",
"].L.].).g.l.{.Y.kXiX*XuXrXI.c c c x b P N.U.C C N.T 3.sX*XC H p.%.Z o.=.@.# # # n @ @ j / C B T T / m.( M.<.!  .<.J :.p.f.g.].Y.",
";X{.[.^.p.#XR.P.%X$X$XOXzXXX+Xc c F.v.$ uX<X:XC fXP.3.[.[.A F r.w.N S w %.# # % # # # # OXH C ~.~.oXwXT.I.I.Z.T.eXE @.:.p.^.].L.",
"[.[.{.h.f.f.s.m.$X$XI.Y.iXN.#Xc c G.F.x ~ #X).C C +X$.C Z D S C C S D M u # % u u # n w z q.C C &.y.~.E.Q.  < uXvX[ h.s.}.}.1X7.",
"^.a.a.p.d.[.P.B.OXoXR.Y.@XJ.#Xc c c D.+X*X+X+XC C C C A D D D C C C C i u # X % % $ # # T e.^.C $.-.- ; < oX  wX0X .p.L.^.].#X+X",
"].a.q.:.:.;XP.B.R.OXoX$X@XV.:Xc 7 (.@X+X+X+X@X*XH C C A A C A D C C C u u # #   . X   o J.e.D D C.; u.1.@ d @ `.[...L.^.].+X#X;X",
"7.8.s.Y.=XrXB.H.R.OXR.XX:XV.@X*X> l OXuX*XXX#X:XC C N u q m m m A C C u 6 # # # + @ & 5 3 4 D C t.T L P # # # ~.[.{ K.=X}.L.L.^.",
"Q ] E T E W.m.m.N.M.6.6.<.N.+X# # 3 % _.:X#XXX1.w M C u u u u u M C C u # # # u u u 3 5 q A S 4 -   r # # % * ^.1X[ .._ W W H./ ",
"J.pX2X#X1X*X[.}.^.*.J.^.9.N.@X$ # 8 3 e.C.I.# 3 u B C u 3 # # # q M C p # # u u u u 3 4 u C n u , 2.&.# # # r _.>XP.P.I.J.6.<X .",
"6.3X+X{.#X@X[.].rXkXrXlX7.7.+Xk # 5 6 # 8 & % u u u u 3 # # #   # q M N # # 8 8 u 0 # 9 u p % u u C.(.C.# # r @X:XV.:X_._.~.K./ ",
"3.].=XL.^.p.h.<XlXkXkXcX6XN.:X*Xr # # # 6 8 # u u q # O           8 q Z # # # # # # # 0 0 9 % u 0 `.XX_.2.# @X%X2XJ.(.-X|.[.@X/ ",
"7.a.^.}.a.a.L.a.&XaXrXkXqX5.+X<X#X# # # # u # # # # 3.        #   8 u M 9 # # # # # # # # @ % # # (.$XoX# # %X$X#XV.(._.[.[.#X/ ",
"3.}.=X^.p.*.p.U.$XrX].{.}...P.Y.@X# V.oX# # # # -X6.~.W X @ # #   # u p u q # # # # # # + X # 0 0 7 `.oX# d oX,XoXN.@X[._._.).( ",
"5.^.}.].J.&XrXkXtXa.L.}.}.} J.J.K.r.Y.Z.#.$ : Y.-X! r.K.  # # # @ . $ q u u 0 # # # # +   # # u u # 1.r # k (.XXoX| K.[.`._.[.| ",
"3.tXsXrX$Xs.s.a.s.s.^.L.}.}.{.^.4X{.=XK.J.K.U.r.}.K.7.7.  # #   # o   o # $ # # # # # = E = # # q # # # #  .<.m.Z. .` ` ` 1.K.! ",
"' p.^.a.W.rXaXyXxXtXrXcX&Xr.s.J.].W.sX2X<X4X'./.w.f.'.1X@ +       @ .       O + O     XX(.L = # # # # # z `.-X;X;X2X'.j.'.f.k._ ",
"Q J.s.U.=X8XxXkXxXxXaXxX&X=XL.L.=X#X*X].J.K.Y.L.r.$.-.q.e.# # # O     X @ X     X X d K.P.~.  + # # # # ~.Y.V.t.~.^.q.t.w.w.j.W ",
"..&X=XQ.rX<XrXkXkXtXrXrXL.].].L.[.1X<X].Y.).Y.+XL.K.9.4.$.# @ o #   # X =   X j j ).K.~.e./.^.  + # # ! $XqXR.9.w.k.q.q.;.w.j.E ",
"n.lXtXrXtXsXkXrX8XW.l.}.s.Y.L.^.[.].=XJ.e.I.C.K.a.).).K.  . @ . o = .   * ^._.(.K.[._._.' h.,X/.- @ # 9XY.gX0XK.@.;.y.w.:.q.k.E ",
"/ 8XgXyXtXtX6XJ.6.#.#.p.3.7.].s.a.).].3.H.K.J.s.r.^.z # +         # # U 4.J.V.6.V.6.m.J.[ e.g._.r.  I.Q.aXlXtXXX9.@.w.;.w.y.j.{ ",
"' 8XvXyXyXgX6Xs.T.T.E.].p.4.a.J.r.L.W.} K.Y.r.J.K.l     X #           ) w.r.,.{ 6.J.5X6XE.P.r.K.C.9.OXT.9XzXlXY.@.@.q.%.%.%.f.4.",
"-.a.+X:X=X3XfXyXgXjX+Xa.'.*XkXaX=X#XiX[ 7._.(.K.l =       O         @ w.j.j.y.wXuX:XuXlX0X@X/.[.[.:XI.<.8X0X0XqXr.q.9XXX9XXXw.$.",
"4.@X[.2X=X3XW.U.E.Q.K.=.-.+XaXlXyX0XcXb.7.K.K.s.=         X #       o o e w.Q ;.t.g.(.`.OXZ.9.0.9./._.5.9X9X0XyX$X/.9X$X$XY.w.L ",
"*.[.#X;X=X2X=XR.I.V.9.:.#.-.K.%X8XtXcXn.r.a.K.# 4 % +     . @     X X   - O * U t.t.9.r.oX+XK.C.V.).#X} Y.XXtX0XtXoXtXtXtX0Xh.I ",
"@.].].2X2X3X+XQ.XXV.$.*.$.#.@.s.K.+XcXm.6.).1.u u u #     X @     o X         + 1.C.C.C.K.).@XoXI.).;X<.V.a.:XaXzXaXzXjX0X0X].L ",
"*.@X).).)./.r.J.E.6.9.9.*.9.8.9.4.r.#X} 3.a.# q u 0 @     + # X   +               @ O.(.K._.(.).).t./.[ Y.V.a.$X8X0XtX0XY.*X9XW ",
"I N.J.3.4.a.I ` $X$XV.r.6.K.K.I.+XXX:X5.` # # # # # O * e < P.< : $                 # ~ I.`.).V.a.~./.Q J.I.6.4.J.Z.n.A.` ! 3.L ",
").zXkX$Xf.|.` <.t.(.K.7.P.K.I.Y.oX).2X).r.6 # # # # # R.^.{.iXfX}.s.#                 # ~ +XI.).K.a.|._.a./.[./.;X*X6XT.qXgXwXqX",
"gXaXeX0X@X X5X{ K.I.=X=XR.7.K.K.~.[.^.3.9 8 # # @ # L.}.{.}.a.p.'.{.}.#             + # # P %X).(.a.`.t.$Xr.w.g.'.h.`./.u.@XsX:X",
"0XaXeXjX$X2X5X<.J.(.I.V.K.r.4.4.*.q.9.U 0 & # #   $.J.s.a.a.}.p.h.^.L.}.L.s.# o =   # 3 u 5 oX(.).`._.T.9XOX0.w./.t.I.$X~.C.`.wX",
"`.oX0XjXjXaX5Xm.I.Y.].N.s.K.t.#.$.t.1.9 8 @ # O # a.K.}.^.a.{.L.}.#X].].+X2X( R.I.t # 4 u 8 >XoXXXI._.J.0XtX(.$.i.p.Y.:X>X%XoX(.",
"(.C.wXzXlXvXbX<.XX@XOXI.J.e.r.r.#.3.X.u 6 # @   # [.q.}.L.}.{.=XY.=X#X#X<XdXb.Z.oXr # # 9 8 %X$XoX(.).$XzXgX+X-.;.=.9.`.`.oX@X:X",
"wXC.`.%XeXvXeX( | M.5.5.M.[ ` Q L Q X.8 # #   - f s.3.h.L.].].1X=X].=X=X=XfX.._ e # # # # y <.<.m.M.| m.qX6XP.Q %.Q @.;.y.g.,XoX",
"uXuXoX`.9XvXvX(.#X*X@X@XW.5.6.m.( ! +.6 # O   t [ J 3.}.].}.L.}.<XiX=X=X1XpXY.7.: # # o # <. .[ / W ( m.m.m.|  . .h $.w.;.y.`.`.",
"-X(.oX~.`.vX6XM.).`._.C.pXsXlXxXzXuXl # o   < iX3Xh.} p.}.}.=X}.U.W.iXW.#X=XH.s.# # X = O.%XuXuXuXdXpXdXxXuXdXfXsXn.%.:.y.;.g.~.",
"y.oX%X%X,XuXZ.C.~.~.^.@X-XI.$X).#Xk # @     =X[.;X^.3.^.].=X1XW.{.1X1X<X<XrXm.# $ X   # ^.V.[.).Y.@X=X9X&X*X*X*XsXH.U ;.;.;.y.u.",
"u._.%X>X:X;XV.e.t.C.~.@X>XV.~.r.~.&       _.).~./.(.3.K.}.U.{.1XW.!.1X3XrXtXn.$ #   + P ].N.*X%XXXXX+XuX*X=X+X*XuXH.%.;.;.0.w.u.",
"u.^._.oX-X:Xr.C._.(.`.(.wXe.t.~.C.5 8 *   `.@X^.;X+X3.Y.}.}.1X=XiXU.1X=XW.<Xs.. X   o e k 6.+X=XXX].+X=X*X*X$X&XaXE.~ 0.w.0.;.u.",
"r.&.r.r.Y.*X1.M.`.(.~.(.wXV.).*X$X# 6 $   <.@X).3X=X} J.s.H.s.{.=X!.W.W.!.Q.]         O X # * / =X$X+X*XQ.*X<X&XrX!.~ 9.y.t.r.t.",
"j 2 2 2 j ( ! ! ,.| { <.<.Q.jX0XwXC.1.( ! { +X(.4X1XH.=X!.s.....] ] R g 2  .] ] | T h h L E [  .R.=XrX*X&X<XrXuXrXU.2 f 2 2 f J "
};
