/* XPM */
static char *result[] = {
/* columns rows colors chars-per-pixel */
"64 64 216 2 ",
"   c #030303",
".  c #070708",
"X  c #0A0B0C",
"o  c #070809",
"O  c #0E0F10",
"+  c #0F1012",
"@  c #121315",
"#  c #161719",
"$  c #17181A",
"%  c #191A1D",
"&  c #2A0101",
"*  c #360101",
"=  c #2B1516",
"-  c #23211D",
";  c #1D1E21",
":  c #1F2024",
">  c #212326",
",  c #242529",
"<  c #27282D",
"1  c #282A2E",
"2  c #2B2D32",
"3  c #2F3136",
"4  c #313236",
"5  c #33353B",
"6  c #36383E",
"7  c #332D2B",
"8  c #470101",
"9  c #580202",
"0  c #551415",
"q  c #680303",
"w  c #740404",
"e  c #7C0505",
"r  c #6E1515",
"t  c #433E34",
"y  c #52383B",
"u  c #464239",
"i  c #3A3D43",
"p  c #373940",
"a  c #3E4047",
"s  c #3F4148",
"d  c #42444C",
"f  c #48494A",
"g  c #58554A",
"h  c #464951",
"j  c #4A4D55",
"k  c #4C4F58",
"l  c #4E5159",
"z  c #51545D",
"x  c #5A5A59",
"c  c #514E47",
"v  c #646157",
"b  c #776A4C",
"n  c #535760",
"m  c #565962",
"M  c #5A5D66",
"N  c #5B5F68",
"B  c #5E616B",
"V  c #61646E",
"C  c #6A6862",
"Z  c #626671",
"A  c #656974",
"S  c #696D75",
"D  c #696E79",
"F  c #6D717C",
"G  c #6D7076",
"H  c #71757E",
"J  c #7E7A68",
"K  c #87120E",
"L  c #92281B",
"P  c #8D2419",
"I  c #993827",
"U  c #9C442C",
"Y  c #9B4B34",
"T  c #A24C34",
"R  c #8A7752",
"E  c #B6744A",
"W  c #99644E",
"Q  c #99865A",
"!  c #9B854F",
"~  c #A48C5C",
"^  c #B2945D",
"/  c #998A64",
"(  c #8B8265",
")  c #A99768",
"_  c #B59C66",
"`  c #AA9C72",
"'  c #AE9A6F",
"]  c #BBA56D",
"[  c #B8A36A",
"{  c #BDAA73",
"}  c #B9A777",
"|  c #AEA473",
" . c #C58A5A",
".. c #C69A62",
"X. c #C7A868",
"o. c #CCB26D",
"O. c #D3B46C",
"+. c #DAB46D",
"@. c #D8BA6E",
"#. c #C2AD7B",
"$. c #C6AC73",
"%. c #CCB474",
"&. c #C4B37D",
"*. c #CBB57B",
"=. c #C8B578",
"-. c #D3B473",
";. c #D6BA73",
":. c #DBBC73",
">. c #D4BB7C",
",. c #DBBD7B",
"<. c #D6B677",
"1. c #D3AD72",
"2. c #E2BD76",
"3. c #DCC176",
"4. c #DCC37C",
"5. c #D7C17B",
"6. c #E3C476",
"7. c #E2C57B",
"8. c #E5CA7D",
"9. c #E9CB7B",
"0. c #6F7480",
"q. c #717682",
"w. c #757985",
"e. c #7A7E89",
"r. c #787C87",
"t. c #7D818D",
"y. c #7F8490",
"u. c #80848E",
"i. c #828691",
"p. c #858994",
"a. c #8A8E99",
"s. c #8A8D97",
"d. c #8D919C",
"f. c #91949F",
"g. c #BCAF83",
"h. c #9397A1",
"j. c #9599A3",
"k. c #9A9DA6",
"l. c #9A9EA8",
"z. c #9EA1AA",
"x. c #A1A5AD",
"c. c #A6A9B2",
"v. c #AAADB5",
"b. c #A4A7B0",
"n. c #AEB1B9",
"m. c #B3B5BD",
"M. c #B6B8BF",
"N. c #C9B984",
"B. c #DCBC81",
"V. c #D3BE85",
"C. c #C5B78B",
"Z. c #E1BF89",
"A. c #D4C384",
"S. c #DCC483",
"D. c #DEC984",
"F. c #DDCB8C",
"G. c #D7C58B",
"H. c #DACB92",
"J. c #DED195",
"K. c #CFC68E",
"L. c #E3C584",
"P. c #E4CB84",
"I. c #EACB85",
"U. c #E3CC8B",
"Y. c #E9CC8C",
"T. c #E2C689",
"R. c #E5D18C",
"E. c #EBD38D",
"W. c #EAD488",
"Q. c #F3D689",
"!. c #E2CE91",
"~. c #E9CF92",
"^. c #E5D393",
"/. c #EBD493",
"(. c #ECDA95",
"). c #E5D599",
"_. c #ECD69A",
"`. c #EBDB9B",
"'. c #E6D999",
"]. c #F3DB94",
"[. c #F3DC9B",
"{. c #F2D695",
"}. c #F1CF93",
"|. c #EEE19B",
" X c #F3E39C",
".X c #F7E599",
"XX c #F4E18E",
"oX c #DAD0A8",
"OX c #EBDDA3",
"+X c #E7DBA9",
"@X c #F2DEA4",
"#X c #E8DDB2",
"$X c #EEE2A3",
"%X c #EDE3AD",
"&X c #E7E0AD",
"*X c #F3E4A2",
"=X c #F6E9A9",
"-X c #FAF2AB",
";X c #EDE5B4",
":X c #E9E4BA",
">X c #F5EAB6",
",X c #FAF4B5",
"<X c #BABCC3",
"1X c #B7B9C0",
"2X c #BEC1C6",
"3X c #BFC2C8",
"4X c #C2C4CA",
"5X c #C7C9CE",
"6X c #C8CACF",
"7X c #CBCDD2",
"8X c #D5D7DB",
"9X c #CFD1D5",
"0X c #F5EEC7",
"qX c #DDDEE1",
"wX c #E6E8EA",
"eX c #EEEFF0",
/* pixels */
"N.>X~.T.G.F.(..X-X-X-X,X(.N.+X*X@XE.Y.{._.[.[.Y.[.=XW.]..X.X-X;XG.*X@X@XB.T.{.{.[.[.9.Q...{ '.*X=X'.(.[.K.H.J.'.-X*XB.}.Y.2.B.T.",
"~ 7.I.P.W.XXR.W.|.W.W.XXR.K././.L.I.U._.{.E./._..X`.>.9.7.:.P.R.#.V.T.Y._.Y.Y.I.L.I.I.Q.1.&.F.^.).'.'.*X$XOX(.).=XJ.:.+.+.+.2..X",
"Q O.3.@.3.8.5.5.P.4.W.XXR.$.:.L.7.U.U.R.Y.{.T.Y..XY.,.6.I.7.L.U.C._.Y.T.Y.I.Y.S.2.Z.L.{.>.N.^.`.`.!.!.^.(.$X`.`.'.K.6.+.+.+.2.Q.",
"R 3.4.6.4.W.5.R.W.^.D.W.P._ o.-.,.L.4./.^._./.S.E.U.>.P.E.Y.U.R.] L.T.}.L.Z.Y.Y.Z.I.I.].S.V.J.)._.'.^.J.G._.`.|.$XH.X.+.+.+.2.XX",
"Q 3.3.;.3.W.W.P.R.].W.W.W.&.^.).>.7.T.T.Y.L.U.!._.S.$.E.E.].U./.$.Z.I.Z.I.Z.Z.9.L.Z.L.[.).N.R.).).R.W.'.F.^.^.`.$XV.1.O.+.2.1.9.",
"! ;.8.8.3.O.3.3.P.|.R.4.9.&.G.G.<.X.X.} } #.} | V.F._ j.k.h.m.2X2Xm.z.k.j.,.L.Z.}.2.L./.).{ G.H.G.A.J.J.A.A.F.A.A.&.,.-.+.2.2.Q.",
"! 5.;.3.4.3.8.3.3.P.|.(.XX$X{.|.E.Q..XS.4.].=X-X=X[.Q.V D F w.w.q.r.p.D V B.I.I.I.}.U.{.*XD.R.R.'.F.A.{ } } { &.K.&.$.{ } ] #._ ",
"! o.3.6.3.O.3.6.3.P. X|.W.S.U.U.Y./.[.^.P.P./.R d h i V 6 d f.i.p.f.j 5 V i j f C Y.Y.[._.4.6.9.P.4.Q.D.'.$X(.(. X=X^.`.[.*X=X[.",
"! o.O.3.3.3.o.3.3.3.W.|.(.D.D.G.S.U.E.S.S.g p.N e.j.m A l l : i.p.> l h A n h.j.N p.f [.G.L.:.:.6.6.9.@.G.).'.G.D.`.OX/.).!.'..X",
"b o.3.3.@.3.O.@.3.3.W.|.J.P.P.S.;.L.E.v t.z.m.D p.8Xy.G N m 5 z n 5 m m 0.e.8X<XD m.x.u.v P.6.6.6.6.6.o.S.D.~.^.!.T.^.~._._._.-X",
"Q o.3.3.O.O.O.;.@.3.8.XXA.o.,.5.-.x F c.n.5XeX<XN a.m F G M s i i a V A q.n a.Z m.eX5Xn.c.t.x 8.6.3.6.O.S.S.Y.U.S.U.G.F./.[.@X,X",
"Q [ o.o.o.o.%.X.X.X.%.D.=.v N i N h.z.m.eX9Xl.Z < ; @ h z l m p.p.H Z A D @ ; % Z l.9XeXm.x.j.N u x v %.~.S.P.^.L.E.).U.T._.'.-X",
"| 5.3.3.5.A.=.[ $.=.=.N.v x.8XG 6 f.7X6Xp.m 5 # X 2 3 j S m < : > % % p d.i 6 $ # 4 n p.5X6Xh.5 D 8X4Xg U.T.4.P.D.>.(.^.S.5./.=X",
"~ J.$X'.%X=X`.E.XXXX.XC 8Xv.r.w.D 6 w.m 5 $ O i F v.9XeXM.V s & & & & z y.i w.e.D z 5 5 m D 5 D w.w.j.qXM F.S.,.L.D.:.L.U.).~.W.",
"( ;X;X%X;X>X#XB.E.I.v M.x.4Xs.l w.B X % X % B b.9Xn.4X8Xp.B s & & & & h y.p N F A A z < % X B r.l p.6Xb.M.C ~.S.S.7.S.O.P.U.).).",
"( ;X>X;X:X:X#XX.9.*.c.Z B z M A N q.  O > a.m.1Xm.9XwX4Xz.M p * * * * j t.p h h.q.V B B 2   q.N V B l B A v.} G.S.,.4.o.o.:./.;X",
"/ %X%X+X>X>XoXX.2.-.3 B B m m M t.+ @ 2 <X4X2X1Xh.k.l.x.4XM 6 * * * * h q.p Z 1 j d D A q.d @ e.B n k B B 5 G.F.G.S.E.>.o.o.3.*X",
"R >.'.+X;X;XoXX.:.l H i B d.z m X X V c.8X4Xj.Z S V q.<XwXz 5 * * 8 * j D p D 5 , 5 s Z D D p X z x s.B i 0.B ^.H.Y.Y.U.V.>.5.8.",
"/ } =.V.K.#Xg.] U.j.v.8Xe.# m X X N x.6X7XA n.< 5 6 q.4XqXj 6 8 8 * * h q.5 0.p O @ # h k D B : X l : w.qXc.j./ =.{ [ ] [ { >./.",
"E./.P.P.`.>XH.$.x j.c.wXF , + X h x.n.1Xt.r.2 d d h p.<XwXl 6 8 8 8 8 h 0.p D i , % $ $ m i A Z + + ; F wXc.j.V (.*.%.P.8.(..X=X",
"D.F.D.D./.,XoX} s.k.6X7Xh $ @   4Xx.x.z z 6 i d a H p.7XqXk i 8 8 8 8 d w.p D i j # $ # X < h B 1 @ @ j 6X6Xz.j.) 3.4.W.P./.R.].",
"4.W.W.`.R.Q.F.v r.1XwXt.< + O 3 s.4X5 d h Z 6 p.f.r.m.7XqXk a 8 8 9 9 d D p D A i z d : 5 ; @ Z 6 + @ < t.wX1Xs.C -.5.W.Q.3.3.8.",
":.3.4.8.D.XXK.l V 4Xt.a X % X z z.H e.d.e.r.k.i M 5Xx.m.2Xh 5 9 8 9 8 d D p Z 5 F 2 @ j p j h h j X @ X a t.3Xd.l *.S.5.P.D.5.8.",
"W.U.R.D.W..XF.V h.v.m # X . o F k.A f , j 6 d A v.d.m c.9Xj 5 9 9 9 9 s N p N < < r.p X # ; # , j $ X X @ z v.v.Z =.4.9.P.W.4.5.",
"P.P.E.W.W.t.z.c.v.f.s 5 , X   s.j.l d d l t.m B l w.G 2X9Xj 5 9 9 9 9 i z 5 A < h 6 1 < 5 % ; < j +   , 3 a d.c.b.z.y.8.P.W.8.4.",
"W.G.R.R.%.G j.v.1Xd.B j > @   d.q.% i d l a.a.t.h l y.3X5Xh 4 q 9 q 9 p d p D l i $ h s s $ # $ a # X > k B d.c.v.h.D X.7.4.R.P.",
"].(.E.P.4., B m S G A z + X : z B ; i s 4 j B B D z l.z.M.f 4 q q q q p 5 5 Z k , 5 < B 5 $ # @ 5 : + ; z V F H N m O O.3.P.U.D.",
"Q.W.E.8.3.- B d.z.M.s.h :   # h j > i i d F z.0.j.2X1Xq.d 7 = q q 0 0 i p 2 i Z G B a s < ; # O 3 ,   5 B d.m.z.s.d $ 4.W.D.|.>.",
"P.4.4.3.3.- D : p.z.1 j a   X l z : s s l , 2 M.6X3 = q q q w 0 D x.l.m k M n < $ d B   $ : $ X 3 ,   5 B 1 z.s.: j : D.D.R.|.W.",
"U.S.3.;.@.- H a B D z l s   X h M % < 6 0.a 8Xj.$ = q q q w 0 z.c.w.2 j Z q.a.w.F + A : o j O o 2 :   6 D z D Z s z : D.R.^.(.(.",
"=.%.5.F.^., 1 a 5 d a m a   o 6 m > e.F 5 j m % @ w w w w q S e.j.5 d N M p.h.l.Z j @ 6 % % 5 o 3 %   : 2 : < < : 2 : |.J.F.D.U.",
"[ | ) Q Q t.j.3X8X5Xp.B d : $ k l z G , s p.s + = w w w w 0 n.x.4 d t.Z N e.a.j.A d.h 3 $ @ a o 1 3 : d B p.3XwX3Xz.y.~ ) ) 5.' ",
"A.=X.X|.R.d x r.i.0.l 5 ; @   2 d D 2 5 2 m.; # w w e w w D x.v., q.q.a.r.M z Z B y.m 2 h @ $ 5 < O + : 5 l F u.r.m d N.A.*.`.} ",
"%. X^.^.E.(.c j N d , X X   . n p k : 5 < d.; # w e w w e i.e.m @ i p h A D m d G i   < 5 < o : 2     X X , d B l t [.E.Y.S.S.` ",
"=.R.W.D.P.4.v a.x.l.B ; .   O M h h < 2 p p.; # K w e w e r.B > X < + O X M e.z 2 X > @ l d o 3 5 X   . ; B l.<Xd.c T.{.Q.E._.` ",
">.5.P.W.4.4.g i.1Xm.m ; X   @ n p ; < i F i.> # e e e e e D N @ ; j i 2 @ X , D z ; j @ s l X % 3 X   X % m n.9Xp.c D.Y.}.E.E.` ",
"=.P.^.P.4.o.g t.l.v.z ; X . @ D z % q.z ; 0.2 ; e e e e w l N @ $ z z D m D M < i z ; 2 2 5 5 O 2 X   X ; z v.M.e.c /.Y.U.Y.I.' ",
"=.D.R.R.A.`.v s.h.f.j ; O . @ F k k 5 5 O D h ; 8 e e e K M i $   1 5 2 i d # 5 d $ X 2 % % % # 5 X X X ; j f.x.a.c S./.P.E.(.{ ",
"=.$X=X$X).>.g e.j.t.z ; O X @ A Z l < ; i.i A 5 2 e e K K a p 3 @ X   # 5 p < h 2 X X 5 @ O X ; 2 X X + : z t.f.e.c ] ] ] X.S.' ",
"[ 3.W.4.^.@Xv e.l.d.l < @ X @ A z 2 : V > $ N A l h e K K 0 3 4 O + #   : i d k > X 2 <   <   > < X X @ > l d.l.e.g W.9.I.9.9.[ ",
"' 5.4.F.'.+Xx t.z.d.z > O   @ B p # 5 N 2 # # V V V V r K K 2 , + O o 2 , h V a 1 O 2 . X % # @ > X   X > l d.m.e.c >.:.:.:.9.) ",
"} '.J.'.|.|.g H z.a.l : X   @ A i % @ h m F p > n 0.0.0.B y K # ; X   ; 5 i a ; > 4 # o 2 1   @ < X   X % l a.2Xw.u <.O.+.:.9.) ",
"C.,X&X&X%X-Xg F x.d.d % o ; 3 d p l # X > 3 k A p ; z.b.0.h , K 0 = # 2 < 2 $ 4 h @ 5 , O X   2 2 i % X % h d.2X0.t 2.2.-.:.8.) ",
"` +X;X&X&X%Xg B k.i.d % o X ; i.; d A w.i O @ h V N ; Z m , , L P P P < : $ m D . > >     < 2 % < : X o # a p.1XD t :.;.;.:.9.] ",
"[ '.:X&X&X%Xc B a.q.5 @ o . $ B , < : 5 i.i n s k e.e.k A < < I L L L 1 a $ 1 X 3 6 ; @ , d @ # , ; o X @ 6 F c.B t -.X.X.X.2.-.",
"O.L.`.|.W.=Xg z i.Z 5 X X X ; l , d s A % 5 s s m # 1Xk 0., , I I I I 1 a $ 4 3 m     ; > % 4 ; : : X X X 4 Z x.z t OX!.OX!.:.o.",
"%././.|.(.|.B <X8XM.l 1 @ X $ d 5 5 1 3 % 3 n h ; p 0.k A , : I I I I 3 d $ 4 # % % 2 < i + o ; : $ X @ 1 l M.8X4XB +X).+XG.:.~ ",
"o.E.(.XX^.( 3 j w.D 5 X X , 3 B s , 6 s s # h j p p 0.j j j k T I U U d V $ 4 # > . + > % % $ , , 6 , X X 5 A d.l 1 J @X%X@X8.~ ",
"o.Y.R.|.H.r.i.H M z N H N ; X > j j > % + % @ < < > D j j.s 2 T U U T M w.F # # < % ;         4 % o : m H N m m H u.e.oX+X@X~.~ ",
"o./.R.T.N.x.M.f.a.a.p.r.B 4 # 5 M B F d.N i D Z B q.j n.B a $ T T U U % ; 5 B ; 5 X X #   6 j 5 # @ 3 B w.p.a.h.h.m.c.C.H.).+X) ",
"^ N.A.=._ p.w.f.k.q.Z M k 5 @ p b.j.u.M j f i d s 0.7Xz z.l > W Y U Y , 5 < 2 Z 2 i 1 > 5 O 2 h 5 % 5 k M Z q.f.f.w.p.` ] _ $.~ ",
"F.=X>X).1.w.w.s.c.d.z h 6 > X ; f d d z j D d.j.M.<XF Z f.h >  .E E E , 3 1 , 5 m , i z N h < % , @ : 6 h z s.h.a.w.w.} +X;X@X+X",
";X%X#X%XB.q.D q.e.Z j d 2 $ o > 6 j V A h Z N d z G l D B i > E ^  . .- 2 < > > 2 s 2 1 5 , 2 < $ X $ 2 d h Z D q.D q.#.2./.=XOX",
"@X%X;X%XC.k D Z Z m p 2 > X   X % < 5 i d d h m M l h N D 5 >  . ... .> < < 4 d : 1 < ; > > > X     o > 2 p m N Z D j N.T.B.L.@X",
"Y.Y.%X#XoXp a i 5 2 ; @ + ; - $ 4 6 6 5 6 < > 1 1 i Z m B 5 > X.1.1.1.> < > 5 > < 2 ; @ X X # $ # % ; @ # ; 2 5 p i i V.[._.}.T.",
"T.Z.@X>X>Xx z d k l 5 i 7 $.1.1...X.+._ 1 7 7 p i i 5 2 2 > > S.>.L.I.< d 3 6 % p X X % $ # - Z.B.B.B.4 i 5 j V d n t L.T.Y._.[.",
"%XB.L._.#X0X#X' #.N.&.&.N.] [ ' ~ _ ] ) *.] >.*.=.5.{ 5.; % 5.XX_.Y.R.1 a + o % ;   X / } #.} C.#.N.] C.+XoXG._ X._ X.+.2.7.}.~.",
"@X*X~.I.+X0X0XT.(.`./.^.^.#.&.N.} _ 5.o.A.C.#.' | / =.8.W.F.R.R.|.*X'.|.) # + @ Q ) Q g.C.N.} } ' ) } N.N.C.} } } R O.:.O.2.L.T.",
"}.Y.~.B.Y.0XoX*.U.T.Y.B..X>X>X,X>X*X7.[.E..X=X=XXX8.{ 5.R.R.'.R.F.R.$XJ.^.|.K.5.-.>.o.E.@X{.*X X@X=X*X-X-X$X=X-X>Xg.X.+.2.+.2.L.",
"2.}._.{.}.@XH.B.L.7.I.{.{.G.~.!.`.Y.P.R.Y.U.^.E.XXF.{ 8.R.XXXXJ.(.(. X|.|.$X&.5.S.U.-.6.I.V./.R.U.^._.OX'.`.`.|.-XC._ +.+.2.2.7.",
",.Y.[._.[.{.B.*.,.B.L._.[.B.S.,.L.I.U.E.Y.Y.Y.S.W.F.{ 4.R.8.J.'.J.D.|.|.$X&XN.5.F.G.O.3.U.A.|._.H.Y.^.*X`.).^.`.=XN.X.+.+.+.+.2.",
"7.L.Y.}._.[.V.,.Y.T.L.T.@X>.,.L.S.L.L.L.E.U.^.P.XXJ.=.R.R.R.|.XX|.J.(.(.J.|.N.J.).F.;.3.W.=.^.`.^.^.^._.`.$X).).%XH._ +.2.+.<.2.",
"<.1.<.,.B._.$.*.T.T.B.T.OXV.T.OX~.S.B.2.L./.~.U.XX(.{ A.5.K.5.R.'.F.J.J.J.J.| A.J.J.:.;.O.*.'.$X'.^.).'.J.`.$X'.$XK.^ 1.2.<.,.>.",
"R b b b R } _ ' $.#.#.&.#.H.;X@X*X/./.U.P.~.^.R.XX|.K.J.K.5.&.&.| | / b b } | | g.} ^ X.] =.F.^.F.'.$X'.`.`.$X*X*XF.b R R b R ~ "
};
