/* XPM */
static char *result[] = {
/* columns rows colors chars-per-pixel */
"64 64 236 2 ",
"   c #3C1F23",
".  c #461E1F",
"X  c #4B1E1D",
"o  c #5E1E17",
"O  c #541E1A",
"+  c #5A1E18",
"@  c #631E15",
"#  c #6C1E12",
"$  c #692517",
"%  c #742413",
"&  c #782A16",
"*  c #78321E",
"=  c #421E20",
"-  c #7B3823",
";  c #7A3C37",
":  c #482422",
">  c #6E4937",
",  c #68551F",
"<  c #78484C",
"1  c #786A49",
"2  c #4F4245",
"3  c #822D14",
"4  c #8B3316",
"5  c #8B3417",
"6  c #993C18",
"7  c #823F29",
"8  c #A44319",
"9  c #AC481A",
"0  c #B34D1B",
"q  c #B8521C",
"w  c #84432B",
"e  c #89492E",
"r  c #864834",
"t  c #945333",
"y  c #9A623E",
"u  c #C1571D",
"i  c #C87135",
"p  c #CC7C1B",
"a  c #8F5B51",
"s  c #806F4C",
"d  c #9B6946",
"f  c #8B784E",
"g  c #8A7855",
"h  c #947D57",
"j  c #946B55",
"k  c #A16C49",
"l  c #A8774D",
"z  c #8F5D62",
"x  c #9B756B",
"c  c #976F67",
"v  c #AB7278",
"b  c #A57C79",
"n  c #A98E2D",
"m  c #D59D19",
"M  c #E4C817",
"N  c #E0C216",
"B  c #E9DF15",
"V  c #ECEA14",
"C  c #DFC32D",
"Z  c #9A865B",
"A  c #9B854F",
"S  c #A6895B",
"D  c #B4885A",
"F  c #B3935A",
"G  c #998660",
"H  c #998B67",
"J  c #8D8265",
"K  c #A18A62",
"L  c #A59364",
"P  c #AC9A6C",
"I  c #A99568",
"U  c #B39C65",
"Y  c #B49D6B",
"T  c #BC9862",
"R  c #A89973",
"E  c #B39B72",
"W  c #B28C69",
"Q  c #B5A26D",
"!  c #BBA46E",
"~  c #BCA467",
"^  c #B6A373",
"/  c #BBA674",
"(  c #BDAA74",
")  c #BDAB7B",
"_  c #B8A679",
"`  c #AEA473",
"'  c #D38D50",
"]  c #CD9357",
"[  c #C29D69",
"{  c #C7AA65",
"}  c #CCAC66",
"|  c #C5AB6A",
" . c #CBAD6A",
".. c #C5A466",
"X. c #D3AA6C",
"o. c #CDB26D",
"O. c #CBB06B",
"+. c #D3B46C",
"@. c #DAB56C",
"#. c #D6B96E",
"$. c #DCBC6E",
"%. c #D2B267",
"&. c #C3AC75",
"*. c #CAAE72",
"=. c #C2AD7B",
"-. c #C3A578",
";. c #C5B175",
":. c #CCB474",
">. c #C4B37C",
",. c #CBB57C",
"<. c #CDBA7C",
"1. c #CBB978",
"2. c #D3B573",
"3. c #DBB672",
"4. c #D6BA73",
"5. c #DBBC73",
"6. c #D3B67B",
"7. c #D4BB7C",
"8. c #DBBD7B",
"9. c #D1AD73",
"0. c #E1BD75",
"q. c #E2BC79",
"w. c #DCC175",
"e. c #D6C17C",
"r. c #DCC27C",
"t. c #DFC87E",
"y. c #E3C475",
"u. c #E2C47B",
"i. c #E5C97D",
"p. c #EACC7E",
"a. c #E9C977",
"s. c #ECD378",
"d. c #EAD040",
"f. c #B07E84",
"g. c #9F9D85",
"h. c #B99599",
"j. c #AA8483",
"k. c #BEB489",
"l. c #BCAF83",
"z. c #BD9CA1",
"x. c #C5B483",
"c. c #CAB583",
"v. c #CCBB82",
"b. c #C8B98A",
"n. c #D3BD83",
"m. c #DBBE82",
"M. c #D2BE8B",
"N. c #CCB892",
"B. c #C7AC83",
"V. c #E1BD80",
"C. c #C1A8AB",
"Z. c #C8B5B8",
"A. c #C9B4AA",
"S. c #D5C285",
"D. c #DCC484",
"F. c #DEC984",
"G. c #D4C38B",
"H. c #DCC58B",
"J. c #D6CA8E",
"K. c #DDCA8C",
"L. c #CEC392",
"P. c #D4C592",
"I. c #DDCB93",
"U. c #D9C994",
"Y. c #DED192",
"T. c #DED29B",
"R. c #CFC68A",
"E. c #E3C584",
"W. c #E4CB84",
"Q. c #E9CB84",
"!. c #E2C68A",
"~. c #E3CB8B",
"^. c #EACD8B",
"/. c #E8C684",
"(. c #E6D185",
"). c #EBD185",
"_. c #E5D18C",
"`. c #EBD38C",
"'. c #ECD98D",
"]. c #E8D98A",
"[. c #F2D58C",
"{. c #F4DC8D",
"}. c #F2D585",
"|. c #E3CD92",
" X c #E9CE92",
".X c #E0CF9B",
"XX c #E5D393",
"oX c #EBD493",
"OX c #ECDA94",
"+X c #E4D49A",
"@X c #ECD59A",
"#X c #E6D99C",
"$X c #ECDB9B",
"%X c #E7D995",
"&X c #F1D593",
"*X c #F2DC94",
"=X c #F2DC9B",
"-X c #F4D898",
";X c #F1CF93",
":X c #EEE19C",
">X c #EFE096",
",X c #F4E294",
"<X c #F3E39C",
"1X c #F9E49B",
"2X c #F8E89A",
"3X c #F4E18E",
"4X c #D7CCA3",
"5X c #DCD2A5",
"6X c #DFD9BB",
"7X c #E5DAA4",
"8X c #EBDCA3",
"9X c #E4DCAA",
"0X c #EBDEAA",
"qX c #E5D5A3",
"wX c #F2DEA4",
"eX c #E8DDB3",
"rX c #EDE2A4",
"tX c #EDE3AC",
"yX c #E7E0AD",
"uX c #F3E4A3",
"iX c #F5E9A4",
"pX c #F8EAA4",
"aX c #F2E5AC",
"sX c #F4EAAC",
"dX c #F9ECAA",
"fX c #F9F2AB",
"gX c #EDE5B4",
"hX c #EAE4BB",
"jX c #F2E5B2",
"kX c #F3EBB3",
"lX c #F5EDBB",
"zX c #F9EBB3",
"xX c #F9F4B7",
"cX c #F8F1C3",
"vX c #F5EECA",
"bX c #DAD4C2",
/* pixels */
"c.zX|.~.H.~.XX2XfXfXfXxX%Xb.0X8XwX_.^.-X@X=X=X^.=XpX'.{.2X2XdXgXG.uXwXwXM.!.&X{.uX@Xp.}.T ( %XuXsX#X@X<XG.I.Y.$XdXiXV.;X^.q.m.^.",
"S i.W.W.'.].(.'.OX'.'.,X(.G.oX`./.W.~.@X-X`.`.@X1X$X7./.i.4.Q._.) m./.;X&X~. X/./.E.^.}.2.>.K.XX%XoX%XuXuX8X#XXXsXT.3.@.X.@.0.1X",
"h +.w.$.w.i.e.S.W.t.W.3X(.=.8.p.u.~./.~.~.&X~.^.1X`.4.u.Q.E.E.~.x.oX|.!.!.^.^.V.V././.[.8.v..X@X#XXXI.XX%X8X$X#X#XR.u.@.@.@.0.{.",
"h w.r.y.t.(.t.(._.'.F.).(.U  .2.8.E.F.oXoX@X^.H.^.W.7.~.).^.~.|./ !.^.^.!./.^.^.V./.^.-XH.v.|.%X@X%X%XY.J.%X$X:X:XI.} +.@.@.$.3X",
"Z e.w.#.w.(.(.(.(.<X_.p.].>.|.+X8.r.~.~.`.~.|.~.@XF.*.`.^.-X(.%X) E.!././.^.V./././.!.=X%Xx.K.%XXX%X%X%XY._.'.$XrXG.9.@.@.0.X.}.",
"A #.i.i.w.#.w.w.F.OX].t.s.) H.H.6.| ../ / ( ^ ^ n.H.U 1.6.e.D.G.-.^.;XE.V.V././.^.8./. XXX>.G.I.G.G.Y.J.S.S.J.S.S.) 8.2.@.q.8.[.",
"A e.4.w.i.w.t.t.r.W.:XOX,X8X@X,X[.}.2XD.r.&XpXdXdX=X).F.D.K.:X:X/ 8.V.!./.!./././. X!.-XiXH.~._.#XK.S.( _ / ( >.G.>.;.( ^ ^ -.~ ",
"A o.w.w.w.%.w.w.w.p.<X:X].D.~.~.~.XX=X_._.p.).[.(.*XXX|.'.OX2XrX( E./.^./.V.q././.^.~.=X-Xr.u.i.W.w.}.(.#XrXOXOX:XsXXXOX$X<XpX=X",
"s e.#.w.w.w.%.w.w.e.].<X%XD.K.D.F.~.`.m.D.W.W._.'.OXXXF.t.i.Q.].=.!.E.V.V././.V.^.^. X-XH.i.5.5.y.y.a.8.G.oX+XD.F.=X$X+X@X~.oX2X",
"g o.#.w.#.w.%.#.w.w.(.>XXXW.~.D.2.W.&XD.~.XX~._.[.e.i.i.4.#.$.y.Y !.^.^./.!.^.^.V. X@X-XI.W.y.y.y.w.a.%.D.K.XXoXK.~.oXXX$X@X@XfX",
"J O.w.w.#.#.#.#.#.w.i.'.S.:.8.e.4.+.Q.;.~.OXOX_.~.oXr.W.r.5.#.y.E V.!././.^.;X^.!.^. XwXU.).Q.i.y.w.y.o.D.K.~.~.F.~.H.H.+X=XrXxX",
"Z ~ o.o.O.{ :.| { { 1.(.1.c.1.7.o.X.y.&.XX~.`.oXOXOXQ.~.w.u.p.y.! 6.6.6.6.V. X|.|.!.m.;XK.W.w.u.y.$.y.:.~.D.W.|.F.^.+X~.W.$XOXfX",
"Q w.w.w.r.S.;.Q ( 1.>.<.1.k.L.U.~ ..#.U _.`._.oX/.] *X&XW.W.r.).6.E.K.D.D.7.Y =.B.-.=.c.,.6.7.t.w.{ %.Q I.~.8.W.H.4.OXoXD.m.XX2X",
"L T.#X#XtXsX$X`.,X{.,XOX{.*XOX*X[.*X{.&.J.&X~.K.Q.' ~.(.W.`.[.p.7.).Q.^.Q.*X|..X$X X!.=X=X-XOX*X_.W.#.Q G.~.t.8.W.~.4.D.~.+X_.oX",
"J gXtXtXgXgXeXm.[.Q.`.!.u.W._.`.^.OXuXv.~.$XoXoX' OXoX_.F._.F.W.:.r.W.^.!.oX~.m.!./.n.8.8.8.8.i 8X$XOX( G.|.XXD.r.D.D.+.i.~.oX+X",
"J gXlXgXjXhXeX..p.W.Q.Q.!.E.^.&XOX`.fXv.Y.uXoXq.).-X$X$X~.OX'.].6.D.E.`.-XOXS.| 2.V./.E.W.H.V.X.q.^.$X) XXH.~.D.D.8.t.o.o.8.oXhX",
"H tXtXyXkXlX5X| 0.u.Q.^.`.^. X^.^./.,X,.G.OXOXq ^.$XOX*XoX(.`._.1.Q.E.~.oX=Xn.8.n.m.V.V.V.!.' M.~.oX-X_ ~.|.@XK.H.F.oX6.o.+.r.uX",
"g n.#XqXtXgX5X..#.8./.[.~.^.&X&X@X/.3XS.v.I.%Xi OXI.XX~._.~._.K.:.^.~.W.oXoXc.!.m.m.@X X!.' u |.m.@X@X^ ~.K.~.oXK.~.(.~.S.1.e.i.",
"Z / 1.M.P.9Xl.../.E.^.=X8XH.^.`.).p.[.E.R.Y.I.Y.oXv.>.>.v.<.S.S.P &.S.n.m.|./ E.!.!. X X.X@Xu V.|.oXaX^ D.G.,.<.>.-.~ ! ~ ! 7.XX",
"_.%XW.W.$XzX4X( E.r._.|.$XoXW.E.u.u.p.8.Y.#X%X=.  oX%XuX$XOX{.,X3.).{.rX@X0XR E.@X;XM. X@X|. Xu &XwX=Xn.H._.H.~.OX1.:.W.W.OXpX2X",
"F.K.F.F.oXlX4X( W.oXoX$X=X-XF.E.8.y.Q.,... .o.I   +X7XlXtX+X#.#.$.& d sXlXlXR c.* .X;X.X|.@XE !.~.@X-Xm.^.8.^.u.i.8.F.i.(.'.oX&X",
"t.`.Q.%X(.}.J.( ^.=XoX^.oX`.E./.E.K.@X..~ {  .7.  g.+XxXyX+X1.%.%.p.@ h vXhXR M.!.# l 0XU. XM.< M.|.qXn.3.+.2.8.Q.2.e.'.`.w.e.a.",
"w.w.t.i.W.3XJ.=.~.oXoX-XXX/.!./.oX@XdXc.*.&.,.6.2 P.L.kXiXrX#XY.%.w.oX#   eXR V..X[ % wX+X@XN.   XwX.Xm.+.3.8.q._.2.e.r.i.F.r.i.",
"(.W._.W._.,XJ.! 8.W.oXoX@X~.[._.^.Q.Q.=.:.>.,.G.v.U.L.+X$XXXU.XX5.+.E.,.=   R M.|.m.@ B.@X8X8X  |.@X|.m.m.2.E.D.^.:.t.W.W.(.r.r.",
"W.~.'._.`.,XY.Z L L P ) x.&.Y I Z Z ! L Y Q u ) x._ <.XXrXrXS.e.5.y.+.w.e   R _ x.x.@   G.M.M.c.M. XU.M.;X!.V.m.!.^ +.i.p.(.W.r.",
"_.F.(.~.E.s.'.K.zXiX$XuXrXH.$X+XH.H.~.~.v.J.x.M v.G  .sX:X~._.r.{ %.o.O.w = / 7.,.G #   L R L H H E l._ c.,.Y / =.Z #.w.u.u._.F.",
"*X`.OXW.w.OXJ.S.@X+X+X.XzXY.%X_.*XiX$XsXiXrX=XM xXS.C +XoX#X<.8.$.4.4.4.w   U #.4.8.@   .X^.!.E.m. X8XM.H.H.M.U.0XL %.#.r.W.(.K.",
"'.`.'.i.y.y.e.x.+X+XH.H.uXv.OXXXK.oXXXK.oX@XM s.1XM C #.#.~.cXn.8.r.e.(.=   ^ W.7.W.@   M.6./.2.X.q./.U.T.|.^.uXvXE i.e._.(.OXe.",
"W.r.i.5.w.).G.M..X|.|.H.oXm.OX@XXXOXXX%X@X%XM s.dXM *.w w w e e T F.H.# =   S.r.H.m.    H.6.!.8.X.+.5.E.wX`.Q.wXyX_ e.(.t._.$X%X",
"(.e.4.#.w.'.R.b.I.|.|.+XoXG.$X@XXXXXoXXXXXXX@XM d.B N 9 9 u u u q 9 8 #     &.F.7.@   @ G.7.;X!.m.8.q.*.q.3.8.E.`.) F.t._.].OXOX",
"v.1.e.K.%XaXx.R.|.I.I.|.@XS.oXOXoXXXXXuX$XY.OXB V V m u q u u u u u 4 X   6 3 D k X = ~.,.6.E.E.8.8.Q.E.m.E.D.E.'.! F.%X_.K.F.W.",
"U Q L H L J.x.x.v.c.,.,.=.v.oXXXOXrXJ._.*X@Xn B m m 0 # # u u u u 9 # O X u q 6 + = * -.=.*.8.u.8.2././.E.W./.W.*X^ ( Q P P v.P ",
"G.pXuXOX,X$X_.`.W.o.S.W.4.v.oX$XXX=X@XH.- # 4 u u q # # # u u u u 3 u # # # 8 3 X # 5 5 % o.E.8.Q.8.E./.!.!. X X-XM.S.H.G.,.$X_ ",
"1.2X_.'.OXoX'._.rXlXrXlXv.<.XXXXK.XXOX# # % # 4 9 # # # 0 u u u u 3 q = $ # @ @ : # u u 3 # E.E.^.!.!.&X X|. XoX<Xn.=X`.^.E.F.R ",
";.(.XXW.F.t.w.<XxXgXgXxX5Xv.:X$X@XXX# # q 4 # O @ # +   0 u u u u & 9 = = # n O * 0 % u u #  .!.^.oX|.!. X;X+X=XwXH.F.&X&X`.oXR ",
"<.e.~.(.w.w.W.e.OXgXrXzX9X>.XX:X%X% # u u u 4 O   =     0 u u u u # # # # o # - u 9 % q % % 9.F./.^.@X X X X X XoXn.D.^.`.).OXP ",
">.W.OXW.e.%.e.Y.+X:XK.`.(.( J.~.oX# % u u % O     = @ = % u u u % # # # # # O q 8 % # # = # 2.!.!. X|.|.wX|. X XoXc.oX`.^.).^.P ",
":.K.(._.S.#XrXsXtXF.F.).].( S.S.*.# # # $ O = K   # # o = % 3 0 # # X o , & O # # # # .   D 8.!.!.H.~.|.oX.X|.|.|.( D.`.E.^.oX=.",
";.rXsXrX%X7.r.D.S.e._.F.(.F.'...# % 6 # X   >.m.  # # # =   O # & # # + X + # # # #     # H.`.^.oX+Xn.Y I _ ) x.M._ Q ! / | D.E ",
"~ e.W.t.Y.rXaXyXfXtXtXxX7Xe.7.6.# 3 q # $X*X).^.@ +   # # =   = o # # # # # # o a o     ~.Q.[.[.).[.sX/.m.D.-X[.*X<X`.p.p.u.a.~ ",
"P e.e.J.%X7XxXkXxXlXsXxX#X%XF.F.k & 8 4 S.D.H.~.[ # #   O @     = + O + + + = K |.l O # # /.Q.`.oX(.iX7.E.K.n.r.W.Q.7.8.$.w.p.I ",
") $X%XT.rX:XrXsXsXgXrXrXK._._.F./.# % u # ~.K._.n.# #         @ X X = X s |.!.v B.!.# # # X.Q./.).Q.}.G.+X8XU.2.5.u.4.+.@.3.p.L ",
"k.kXaXrXtXsXkXyX7X_.p.].e.J.F.(._.e # # $ H.D.D.  = @ =   @ O =   w y t.m.v v v v |.# # u # # ;Xu.&XpX0XK.gX0XD.X.%.y.y.+.5.i.I ",
"R yXgXyXyXtX7XS.1.| | w.| e._.e.u.W.# # # H.l # +   =   @     O y O.v v v v v v Z.6.B.# u u # [ 8.i.$X5XaXlXtX|.+.%.2.3.3.5.p.! ",
"~ +XvXyXyXgXT.R.P.P.P.K.w.1.S.m.1.F.~.# # 7 @ . + #     . # # c b v v v v v C.Z.Z.A.5X# % % # * 8.2.+XP.0XkXlXK.} } 2.} { ..y.:.",
"2.t.oX$X].pXfX8XgXgXXXi.Q.$XjX# 7 l # 8 u 0 # ; z a z z v v v v v v v v C.Z.Z.Z.Z.W uXhX7 # + = ).=XH.) qX8X0X7X6.4.8X|.8X|.w.O.",
":.oX'.=XOX<X%XJ.I.T.D.+.+.XXaXI O X # 4 4 % # < v v v v v v v v h.z.z.Z.Z.Z.Z.; a 2.~.!..Xc.# # l Q.^.>.8X0X9X0X+XW.8X+X#XK.5.S ",
" .`.OX*XXX<XOXP.G.S.:.+.} +.E.qX7X0XN.# # # + < f.h.h.h.h.h.Z.Z.W < C.Z.x * f.# ] 8.2.8. Xk o # t 6.@X( ~.|.tX0XtXoXyXtXtXtXi.S ",
"| `.~.:X:X2XXXY.I.D. . . . . .8.F.|.U.u u u # h.Z.z.C.Z.b z Z.c b b x # b # l 6./.D.8.m.r.<   # $ # &X=.n.r.=XjXjXtXzXkX9X0X_.K ",
"o.OX~.~.Q.Q.6.G.U.c.1.4.o.2.:.:.2.7.# u u 0 @ # # x # # @ # $ @ @ +       # D n.H.~.~.H.# . o # # * Q.! I.7.u.oXqXtXyX8X_.@XuXI ",
"F v.S.;.2.r.L ( XX.XS.7.,.8.D.K.^.# # # # # O * w w >.- > %                 @ T ~.|.|.|.@ 8.^.*   d Q.U G.H.,.2.G.N.b.b.! U *.S ",
"K.sXkX#Xu.[.~ ( n.~.D.2.G.H.F.K.2.3 # # # # # @X'.T.U.T.W.'.#                 # W |.oX=X  K.G.    e.[.`.e.Q.).Q.,X$X4XG.7XgX0XqX",
"gXjXeX0XoX{.4X/ S.H.OX+XI.v.F.D.t 9 # # # # r.u.[.).F._.'.].t.$             + # # D !.!.H.  m.~./.D.Q.8..X7.5.i.).i.~./.u.oXaX=X",
"0XaXjXjX.X<X5X/ D.K.D.n.F.6.:.T 0 % # #   [ +.+.w.W.e.e.t.t.i.e.8.| # @ =   $ 4 u 6  X!.!.~. X|.~.E.^.G.$X.X3.5.Q.8.G.;X!.m.E.wX",
"/. XjXeXjXaX4Xx.H.K.K.n.8.D...8 9 % # X # 4.1.2.p.p.S.(.t.t.'.F.W.OXXX~.D.t # 6 u 9 +X^.I. X-X|.|.!.^.G.0XaXH. .$.0.~.$X@X-X X/.",
"!.V.wXjXlXvXbX=.~.+X|.H.D.7.D u 3 # #   # D.W.e.e.'.e.(.F.(.`.%XK.OXOXOX=Xr # # 9 9 qX+X|.oX@X@X X~./.5XlXjX|.+.@.%.3.E.^. XoXwX",
"aXm.E.-X9XvX6XE ) c.>.>.,.Q D 0 # #   X l / 7.,.( e.;.i.(.K.(.>X%X].].%Xe # # # # 9 l.x.=.=.=.=.x.x.( x.yX5XG.T ..U { @.0./.;X^.",
"wXuX|./.wXvXvX!.OX:XoX XT.>.] 4 # O   t S.b.) E ^ Z 1.(._.(.(._.:XiX%XOXw # # o # P G l.x.B._ E E I ^ x.x.) ) _ / g +.3.%.0.W./.",
"&X!. XV.^.vX5X6.W.E.~.D.1XsXW # O   > =X_.2XsXpX,XF.( t.(._.].Y.J.Y.<XY.# # X   l e.o.[.iX=XiXuXuXfXiXsXxXrXfXfXkXk...@.0.@.q.W.",
"3.&X@XoX&XwXP.m.E././.@X-Xk # #     F.`.~.XX^.`.*XW.( W.].].>XY.%X>X<X$ # X   # e.K.2.w._.n.'.K.K.+X%X:X$X$X#X:XsXL.T %.@.3.q.u.",
"q.^.=X@X=X-X7.6.m.m./.oX=X&       W./._.^.^.~.F.`.H.;.D.(.(.Y.>XY.K.OX$ #   + D K.H.+.w.~.S.:XOX~.~.XXuX$X#XXX@XuXR...@.@.@.0.q.",
"E.E.^.^.-X=Xn.8.^.E.!.!.1X6 8 -   /.~.E.^.W.oX~.{.%X1.F._.XX>XOX<XY.%X: .   o e d ~.3.w.(.,.Y.$XXXXXXX%X@XrX+X#XtXU.T 3.0.2.3.q.",
"3.9.8.n.~.$X&.,.!.!.V.~.8X# & $   ! m.r.W.@XoX/.,X%X/ S.R.e.S.].Y.J.T.        X O # & h 4.1.+XrX%XXX%X#XY.$X:X#XrXJ.U 9.0.8.7.8.",
"f 1 1 1 s E Y Y &.-.) =.=.c.N.x.B.) `./.~.^.|.~.,X:XS.Y.G.e.;.>.` ` H 1 1 H h h H H h Z ~ ,._.XXJ.#XrX@X#X:XrXuXrXJ.1 f s 1 f Z "
};
