/* XPM */
static char *result[] = {
/* columns rows colors chars-per-pixel */
"64 64 244 2 ",
"   c #3C1F23",
".  c #3F2022",
"X  c #451E1F",
"o  c #4B1E1D",
"O  c #531E1A",
"+  c #591E18",
"@  c #5C1E17",
"#  c #641E14",
"$  c #6C1E12",
"%  c #762715",
"&  c #79321C",
"*  c #6F2114",
"=  c #411E20",
"-  c #4E2E27",
";  c #7C3624",
":  c #7D3A31",
">  c #74571F",
",  c #6F471F",
"<  c #794C36",
"1  c #6C5241",
"2  c #786647",
"3  c #7A7250",
"4  c #842E15",
"5  c #8B3416",
"6  c #913616",
"7  c #953917",
"8  c #9C3E18",
"9  c #8D4914",
"0  c #A44419",
"q  c #AB481A",
"w  c #B9511C",
"e  c #AE5119",
"r  c #B2731C",
"t  c #85442C",
"y  c #884A34",
"u  c #935A3A",
"i  c #86691D",
"p  c #C1571D",
"a  c #C35D1C",
"s  c #C9791A",
"d  c #C6681C",
"f  c #C35D24",
"g  c #C5652B",
"h  c #C97539",
"j  c #C66F31",
"k  c #806A4A",
"l  c #8A7855",
"z  c #967C56",
"x  c #96704D",
"c  c #A5754C",
"v  c #A97551",
"b  c #AB7278",
"n  c #A47A77",
"m  c #A07369",
"M  c #9F726F",
"N  c #C87E43",
"B  c #BB9017",
"V  c #CE831A",
"C  c #D18D1A",
"Z  c #D39319",
"A  c #C79B17",
"S  c #DDB417",
"D  c #D5A718",
"F  c #CC9732",
"G  c #DBBE36",
"H  c #E0BD17",
"J  c #E4C817",
"K  c #E2C41A",
"L  c #E9DE15",
"P  c #E7D415",
"I  c #EBE914",
"U  c #EFF613",
"Y  c #ECF31E",
"T  c #E4CB2E",
"R  c #EFF22E",
"E  c #99865B",
"W  c #9B854F",
"Q  c #A4895C",
"!  c #B9965D",
"~  c #AE915C",
"^  c #998964",
"/  c #8D8265",
"(  c #A68F66",
")  c #AD9B6C",
"_  c #A89465",
"`  c #B39C66",
"'  c #B49D6B",
"]  c #BA9864",
"[  c #AB9C72",
"{  c #A59873",
"}  c #B29E74",
"|  c #B99D70",
" . c #B08875",
".. c #B5A26D",
"X. c #BBA46D",
"o. c #BDA568",
"O. c #AEA273",
"+. c #B6A373",
"@. c #BBA674",
"#. c #BDAA74",
"$. c #BCAB7B",
"%. c #B5A778",
"&. c #BCB17C",
"*. c #CD9959",
"=. c #D39859",
"-. c #CF904F",
";. c #C39E68",
":. c #C29D72",
">. c #C4A56A",
",. c #CBAD6B",
"<. c #C6A867",
"1. c #D5A868",
"2. c #CDB26D",
"3. c #CCB465",
"4. c #D3B36C",
"5. c #DAB46D",
"6. c #D6B96E",
"7. c #DBBA6E",
"8. c #C3AC75",
"9. c #C3AD7B",
"0. c #CAAD71",
"q. c #C5B275",
"w. c #CCB373",
"e. c #C4B27C",
"r. c #CBB57C",
"t. c #CEB97C",
"y. c #CBB978",
"u. c #D3B573",
"i. c #DBB672",
"p. c #D6BA73",
"a. c #DBBC74",
"s. c #D3B67B",
"d. c #D4BB7C",
"f. c #DBBD7B",
"g. c #DFB778",
"h. c #E2BD75",
"j. c #E2BF78",
"k. c #E0B46B",
"l. c #D0B35C",
"z. c #DEC65B",
"x. c #E3CA46",
"c. c #E6CE51",
"v. c #DCC175",
"b. c #DCC27C",
"n. c #D8C27B",
"m. c #DEC76D",
"M. c #E3C475",
"N. c #E2C47B",
"B. c #E5CA7D",
"V. c #EACC7E",
"C. c #E7CA76",
"Z. c #E9D06E",
"A. c #EAE04A",
"S. c #AF7B81",
"D. c #B18C8C",
"F. c #B59495",
"G. c #BAAD81",
"H. c #BEB388",
"J. c #BCA2A3",
"K. c #C5B483",
"L. c #CAB582",
"P. c #CCBB82",
"I. c #C8BB88",
"U. c #D3BD83",
"Y. c #DBBE82",
"T. c #D3BF8A",
"R. c #C4B287",
"E. c #C8B5B8",
"W. c #C8B4B4",
"Q. c #C2ABAE",
"!. c #CCC28A",
"~. c #D5C285",
"^. c #DCC483",
"/. c #DEC985",
"(. c #D4C38B",
"). c #DBC58B",
"_. c #D7CA8E",
"`. c #DDCA8C",
"'. c #DDCB93",
"]. c #D7C895",
"[. c #DED193",
"{. c #DED39B",
"}. c #D1C78F",
"|. c #E3C584",
" X c #E4CB84",
".X c #E9CB85",
"XX c #E2C68A",
"oX c #E3CC8B",
"OX c #EACD8B",
"+X c #E8C786",
"@X c #EBD185",
"#X c #E5D18C",
"$X c #EBD38D",
"%X c #EAD78A",
"&X c #F2D58C",
"*X c #F4DC8D",
"=X c #F3D584",
"-X c #E3CD92",
";X c #E9CF92",
":X c #E0CF9B",
">X c #E5D393",
",X c #EBD493",
"<X c #ECDA94",
"1X c #E4D499",
"2X c #EBD59A",
"3X c #ECDB9B",
"4X c #E6D999",
"5X c #F1D593",
"6X c #F2DC94",
"7X c #F2DD9B",
"8X c #F5D998",
"9X c #F1CF93",
"0X c #EEE19C",
"qX c #F3E39C",
"wX c #F6E599",
"eX c #F4E18E",
"rX c #D7CDA4",
"tX c #DBD1A6",
"yX c #DFD9BB",
"uX c #EBDCA3",
"iX c #EBDEAB",
"pX c #E5D9A7",
"aX c #F2DEA3",
"sX c #F1DFAC",
"dX c #E8DDB2",
"fX c #EEE2A4",
"gX c #EDE3AC",
"hX c #F3E4A3",
"jX c #F5E9A4",
"kX c #F8EBA4",
"lX c #F2E5AC",
"zX c #F5EAAC",
"xX c #FAEDAA",
"cX c #F9F2AB",
"vX c #EDE5B4",
"bX c #ECE5BB",
"nX c #F2E5B3",
"mX c #F3EBB3",
"MX c #F5EDBB",
"NX c #F7E9B6",
"BX c #F9F3B7",
"VX c #F7F2C5",
"CX c #F3EDC8",
"ZX c #DAD4C2",
/* pixels */
"L.NX;XXX).oX,XwXcXcXcXBX<XI.iXuXuX$X,X5X2X7X7XOX8XkX$X*XwXwXcXvX}.hXaXaXT.-X5X5X8X7XV.=X;.@.4XhXzX4X<XqX(.[.[.2XcXjXY.9X+X|.f.OX",
"Q B. X X%X%X#X%X6X%X%XeX%X!.,X,X X+XoX,X5X,X,X,XwX3Xd..X|.a. X#X9.T.+X9X5X+XOX+X+X+XOX=Xu.e.`.>X,X4X>XhXfXuX4X1XzX{.i.5.5.1.h.wX",
"l 6.v.7.m.#Xn.n. X/. XeX#X8.a..XN.+X+XoXOX5XXXoXqX$Xf.b..XN.N.oX9.,X;XXX+XOXOX|.|.Y.+X&Xs.I.-X2X4X>X'.{.1X0X3X4X4X!.N.5.5.5.h.*X",
"E v.v.N.b. Xn.#X#X%X/.@X X] ,.u.b.|.^.,X,X2X,XXX$X+Xd. X@XOXoX>X@.+XOXOXXX+X+X+X|.+X+X8X|.P.>X4X<X4X>X>X_.2X3X0X0X'.,.5.k.5.k.eX",
"E v.v.6.v.@X@X#X#XqX%XV.%Xe.>X1Xd.N.oXoXoXoX>XoX,X^.w.$XOX5X#X1X8.XX|.+X+X+X|.|.|.|.+X7X>Xe.oX4X>X>X%X1X[.[.).4XfX!.1.4.h.i.5.=X",
"W 6.B.B.v.6.v.b./.3X%Xb.Z.H.(.).t.,.>.X.@.8.+...U.`.` y.y.^.^.~.8.+X9X|.|.|.|.|.OXY.|.;X4XK.(.`.(.(.[.`.~.y.  ~.~.K.f.u.4.g.f.&X",
"W v.v.v.b.v.B.b.v. X0X<XeXfX5X0X$X=XwX^.b.6XkXxXxX6X$X^.^. X3XuX@.Y.Y.+X+X+X+X+X+X9X+X2XhX/.`.#X4X[.^.&.%.#...2 (.e.9.#.+...@.o.",
"l 6.v.v.v.3.v.m.v.B.qX0X%X^.oXoX+X,XqX>X X.X$X$X$X6X#X-X$X0XwXjX@.|.+X+X+XY.h.+X|.OX;X7X6Xz z B. Xv.V.#X2XfX4X<X0XzX>X<XqXaXxX6X",
"l 6.p.v.v.v.3.v.v.v.%X0X<X~./.^.^.oX$X^.^. X X#X$X<X,X/./.B..X%X9.XX|.Y.Y.+X+X|.+XOX;X8X).B.  a.M.N.C.a.).>X1X^./.7X3X1X,X-X2XwX",
"l 6.6.6.7.M.3.6.v.b. X0X>X#X X^.p..X5X^.oXoX X#X*Xn.B.B.6.6.7.M.' XX+X9X|.+X9X+X|.+X2X8X]. Xi.M.M.7.C.2.^.`.,X>XoX`.>X,X3X2X2XcX",
"l y.v.p.6.4.6.6.6.v.B.eX~.w.f.n.u.4..Xw.>X2X,X$XoX,Xb. Xb.a.7.M.| Y.|.+X+X+X9XOXXXOX;XaX'.@X.XB.M.v.Z.,.^.^.-XoX^.oX).`.,X3XhXBX",
"E o.2.y.<.3.y.<.<.3.w./.y.K.w.~.2.,.M.#.>XoX#X$Xu >. X Xb.N.B.C.! 1.s.s.s.N p h -XXXY.9X`./.N.M.M.7.M.w.-X^. X,X|.$X1X`.oX2X2XcX",
"..n.v.p.n.n.e...#.y.e.t.y.H.}.].o.<.4.' #X#X#X&X5X* <X$X XB.b.@X*.i.`.1.f s.} p R.:.9.L.L.s.d.b.n.,.3.o.'.oXf. X).d.<X,X^.^.>XwX",
"( {.uX3XgXmX3X$X6X*XwX6X*X6X6X<X&X6X*X8.).2X#Xt y * oXoX X$X$X.X=.p h p .X6X=.XXuX;XXX7X7X5X<X<X,X Xp.' T.oX^.a..X Xp.^.oX>X-X<X",
"/ vXgXgXvXlXdX^.@X.X$XXX|. XOX$X$X<XhXP.'.3X,X,XqX7X,X$X X#X X X8.|.+XOXoX<XoXU.|.XXs.g.f.f.f.^.uXuX,X#.}.-X>X^.b.b.n.p.^.oX2X>X",
"/ bXmXvXvXbXdX>.V..X.X X|. XOX,X<X$XcXP.[.qX2X$X<X<X3X<X#X<X#X%Xs.Y.|.OX,X5XU.,.i.|.|.|.+X).+X^.j.OX5XG.>X).oX^.^.f.b.2.4.v.,XbX",
"^ gXvXiXmXMXtX>.h.N..XOX$XOX;XOXOX+XwXr.(.4X<X,X,X0X<X<X,X#X#X#Xd.oX|.oX,X7XU.Y.Y.Y.XXY.XXXXXX).XX5X2X#.oX-X,XoX).^.$Xd.w.2.v.qX",
"l U.4XpXgXvXtX<.5.a..X$XoXOX5X,X,X X*X~.e.>X#X,X2X>X#XoX#XoX$X/.q..XoX+X,X,Xt.XXY.Y.9X-Xp p -XXX).;X2X+.$ $ oX2X`.oX#XoXU.d.d..X",
"E +.t.P.}.pXG.>.oX|.OX7XaX).OX$XOXV.=X|.!.[._.'.<Xe.e.e.t.t.~.~.` 0.~.U.U.-X@.|.XXXXXXp g g p 9X-X,XlX+.Y.* $ x c #...X...X.d.,X",
"$X<X X X6XmXrX8.|.b.#X-X3X,X+X|.N.N.V.N.[.4X<X3XhX6X1XfX0X<X*X0X$X@X6XhX4XuX{ |.9X;Xj :X9X-X:X9X9X7XaXU.% c T.v <Xy.w..XB.<XjXwX",
"/.#X/./.,XMXrX#. X,X,X7X7X5X|.|.f.a..Xr.<.<.w.d.U.<XpXMXgX>Xj j w V.g jXMXMX{ P.-X:Xp -X-X2X;XXXXX2X2XY..Xj..XN.B.v. XB.@X%X,X*X",
"b.@X X4X#X=X_.#.>X5X;XOX,X$X X|.|.oX2X>.o.<.0.n.d.).1XBXgXpXy.2.-.k.Z.a BXbX{ (.-X-Xp sX].;X-X:XXX1X1XP.a.i.u.f..Xw.n.%X%Xb.v.B.",
"a.n./.B. XeX_.8.oX,X,X5X>XXX+X+X,X2XxXL.0.8.q.P.).].}.vXhXgX4X#X-.1.%XV vXbX{ Y.;X;XS H 2X2X2X2X:X2X1XY.1.i.f.b.$Xr.^.b. Xb.n.B.",
"@X X X X%XwX_.+.f.OX,X,X2XOX,X$XOX.X.X8.r.e.t.U.].].}.1X3X>X_.H j 7.b.V fXMXD.L.-XXXc.K ;XuXpXuX-X9X:X).T.i.|.^.OXw.b.V. X#X^.n.",
" X#X$X#X&XwX`.E _ _ _ $.K.8.' _ E Q X.( ) ..+.%.L.@.P.,XfXfXJ V 7.M.G h #XNX4 ( e.L.K.J J ~.}.T.T.;X-XT.9XXXXXY.XXX.6.B.B.@X Xb.",
"#X/.#X@XB.V.%X_.BXjX4XhXfX(.3X1X'.).oX`.P._.I.$.I.^ q.zX3X`.S 1.<.3.J l.7.-.$ * 9.E z { K J ( ^ M } G.%.L.9.' >.9.E 7.v.N.b.%X/.",
"*X<X,X Xv.<X_.(.2X1X1X1XzX>X,X>X<XhX3XjXkX0X3XkXBX(.w.#X<X4XC d.7.6.J p.M.4 $ 7 ;.f.XX7XT J +X|.^.-XuXT.).).T.].iX_ 4.4.v. X#X/.",
"&X%X%XN.M.M.n.K.2X-X'.).jXP.<X'._.,X,X`.2X3XoX#XwX4X<.6.6.B.J d.v.z.J Z.N $ q p $ +XN.qXP J  Xu.4.h.|.].{.-XOXhXCX} N.n.#X X0Xt.",
"/.b.b.v.m.@X(.T.:X-X-X'.;XU.<X<X,X<X$X4X<X1X>X<XkX`.y.^. Xm.J c.#X^.T J 0 $ q p % ;.oX<XU J oXs.1.5.g.|.aXOXOXaXfXO.v./.b.#X4X<X",
"#X^.p.p.6.<X(.I.'.-X-X;X,X~.3X2X>X,X1X>X,X>X2X<XjX#X0.s. Xm.J I ,X,XN.> $ $ $ p p $ >XT U J OX+X4.f.b.0.a.g.a.+X$X&.#X/.%X<X<X%X",
"y.y.n.`.4XjXK.!.'.-X'.-X2XT.,X3X,X,X>XhX4X[.<X7X7X/.e.s 1.~.J U J d.u.O 6 6 % w % * 6 S U J +X|.p g .X|.|.g.Y. X$X@.^.4X[././.#X",
"` .._ ^ _ _.H.K.I.L.r.L.e.P.,X$X4X0X_.#X6X2X>X,XkX{.) S #.%.3.I I J 9 p p p p 8 6 w p J J $ $ j.V f .X1.g  X+X X<X+.#...` ) P.) ",
"~.jXqX0X6X4X#X$X@X2.~. Xy.P.,X4X>X7X<X`.<X3X>X<XzXfXb.T <X<X$XL U U L C p p p p p p p J J $ p 8 H 1.|.g |.XX;X;X8X(.~.).(.r.3X%.",
"r.qX#X,X<X<X$X%XfXmXfXMXd.U.#X>X'.>X<X#X2XjX4X,X0X~.v.z.b.B.J U B Z L L D p p p p p H J a p $ L K oXa ;X;X;X;X,X3XU.7X,XOX|./.{ ",
"w.#X%X/. Xb.b.qXMXmXmXVXtXt.qX3X<X>X,X7X4X7X2X4XqX~.`.z.T c.J B 8 a s J J 0 6 6 6 V I J a Z I P T ,Xk.Z.;X;X1X2XhX).|.5X5X$X$X{ ",
"y.b. X#Xb.m./.n.4XgXfXmXpXe.>X0X3X>X>X>X`.%X,X#XqXy.~./.C.K J J A q p V J 4 $ $ 6 S U J Z J L p p OX,XK B.,X9X;X,XU.^.OX9X$X*X[ ",
"y. X,X#Xv.2.n.'.{.fX#X#X#X&.^.`.,X<X1X1X<X/.0X7XwXy.^.oXd.J d V J J 9 % s 4 $ $ e J P B J p 6 $ p g |.J x.-X2X;X;Xt.,XOX XOX.X[ ",
"e./.#X#X~.3XfXzXgXb./.@X%X#.~.~.^.^.oX~.~.e.n.`.<X..d.^.9 J 0 5 & r J $ 0 $ $ $ Z P & J p $ $ p p g J J ,X1.XX-X-X9.~.$X XOX,Xe.",
"q.jXjXfX{.n.n.^.n.n.#X/. X X$X#XeX<X,X~.~.n.-.1..X|.y.u s Z % $ | z B 9 O o X   D > o d $ $ = 4 p J U G ( +.N K.T.@.X.@.@.,.n.} ",
"..v./.b.[.fXlXgXmXgXlXBXQ c c v `.>XjXqX3X6X$Xp f.F @X% d 0 $ $ r.>XA K O X     J X     $ =   $ J I U .XY.|.-.6X7XqX@XV.V.V.C.` ",
"` n.^.).1XpXBXmXmXv m $ * # D.D.& 0X0X`.~.^.^.N n.S A 5 p % $ }.' +X-.J >     D S % X X T.j.  $ 5 P R n. Xx.d.f.|..Xp.a.- a.V._ ",
"&.uX1XpXc c ; $ n ;  .E.E.E.E.E.W.0XqX[.`.#XP A._.m.P B $ # 8.}...^.=.D >     K J   + |.s..X  $ % J s (.x.x.'.u.< N.p.u.- f..X1 ",
"H.T.: $ y $ D.F.E.J.Q.J.J.E.E.E.E.#X%Xu c /.J Y T D J e $ $ d.y.` w.^.z.r   q J ,   $ OXX.B.&X  * J a f P c.iX).  2.M.5.O Q B.l ",
"E x E.$ D.J.W.E.E.: J.E.S.S.b b b @X$ $ $ $ 6 V J e % $ $ ] ,X_.` w.p.-.S = + S -   r.U.+.s.j.|.X $ 4 w V U iX-X# & < $ + p.u.= ",
"m M W.Q.W.E.E.S.S.b b b b b b b b $ $ $ $ $ $ * % $ $ c U.n.oXuXX.a.! $ Z     - = t.tXtX].(.d.^.d.X * $ p s BX-X$ = $ $ c ! - Q ",
"Q.E.E.E.D.b b b b b b b b b mXlX1X<X$ $ $ oXX 2 d.^.^.t.oX>XoX4XU.,.    B         t y NXiX,XOX@X%X6XT.= $ $ & y ; $ $ $ t $ ~ <.",
"E.E.F.b b b b b b ].^.4.2.>XlXMXiXgXVXG.y.|.^.f.#X^.oX).`.oXaX-X]         o       = =   :XU.s.i.p.oX.Xe.pXuX$ $ $ $ $ $ $ $ k.Q ",
":.b b b b 1X>X].).~.w.6.>.4.^.2XpXiXVXH.d.b.^.~.~.U.#X-X-X'.3XR.          $     # =       ; f.^.U.+X<X#./.-XgX{.$ $ *  .gXfXB.~ ",
":.b OX3XqXqX#X'.'.~.,.2.,.<.<.b.^.-XVXH.d.oX/.oX^.~.).3X4X1X2XO           $     # =         $ -X).oX<X9.U.b.7XnXnXlXmXmXiXfX-X( ",
",.,X#XoXoX.Xd.).'.t.u.u.2.u.w.p.w.n.6X#.w.n.f.^.>X^.`.>X1X4X$ w 6 $     + $ $ o =             $ +X^..X..oXU.b.,XpXfXiXiX-X1XaX_ ",
"~ P.~.q.2.b._ >.1X:XU.d.r.n.^._.>X-X3X8...X.q.y.U.r.9.@.e.` 7 p w *     ! o.` ).; o             & |..X` U.).t.u.(.}.H.R.X.' 0.Q ",
"`.zXnX4XN.*X+.#.U.oX^.d.}.^.).oXoX-XhXoXoXqX,X6X<X{._.{. X* 6 w 6 O . <.p.p._ ^.9Xx =             & &X$X^. X@X.X6X3XrX).pXgXsXpX",
"nXnXdXiX,X6XrX@.U.).1X4X'.U.^.~.b.$XoXy.a.n.N.v.=X$X/.#X,.* $ $ $ $ b.eX%X0XO.P.-X;X).*         X $ t s.1Xd.a.N.@X|.oX+XN.,XlX7X",
"sXnXvXvX1X6XrX$.~.oX^.d.^.s.2.u.2.g.4.<.p.u.6.6.v.B.n.^.8 7 $ $ $  X X#X#XwX[ _.;X;X;X-X$       $ $ % ).3X:Xu.i..Xa.).,X|.Y.+XaX",
"+XOXiXsXnXsXrXK.`.oX-XU.f.~.f.,.<.n.d.o.^.N.w.u.B..X^.,.w $ $   < %X#X#X,XqX} '.2X;X2X-XXXc = = $ p p t iXfX).4.7.h.XX7X2X2X;XXX",
").|.aXNXMXVXZX9.-X>X-X_.~.d.s.d.,.4.n.o.^.|. X~.n.%X! 7 6 $ # + ,.<X<X<X3XxXG.T.1X-XpX;X-X;X8X$ $ q p y MXnX1X4.5.3.i.+XOX;X,X7X",
"hXY.+X2XdXCXdX} #.L.e.K.r.@...) ( ` o._ y.@.d.r.q.t.w 0 $ #   $ ,X#X%X4X>XkX&.O.9.8.G.L.9.9.@.$ $ $ q : pXpX(.` <.] <.5.h.N.9X;X",
"aXaX;X+XsXCXbXXX3X3X,X,X[.9.r.L.| ' b.2.~.I.8.} @.^ a $ $ o O d.0XjX>X0X0XkX_.n.8._ ^ $.R.R.$ $ $ @ % R.R.R.$.@.@.l 5.p.4.h..XXX",
"5XXX;X|.OXCXtXL. X+XoXY.wXlXMXBXNXhXN.6X#XqXxXhXwXb.6 $ o . ~.#X`.#XfX[.>X0X!.v.s.d.2.$XhX6X$ $ +   >.xXmXhXzXcXmXH.o.5.h.5.h.|.",
"h.5X2X2X9XhX).U.|.|..X,X8X).1XoX3XoX+X,X#XoX$X,X*X;.$ @   < <X%X<X0X0X0X0X0XH.n.n.oXu.M..Xr.$ @   % 4X0X3X3X4X0XzX!.! 7.5.5.j.N.",
"f.+X2X9X8X2XY.s.f.Y.|.5X7XY.^.d.|..XoX#XOXOXoX^.OX#     1 %X%X4X[./.0X0X0XgXI.y.)./.2.v.oX% $   $ ] oXhXfX4X>X3XhX!.<.i.5.i.i.j.",
"|.+X;X,X8X7XU.f.OXXXXX+XhXs.f.|.f.|.|. X$X+X,XoX.X5 5   ) %X0X4X0X_.0XeX[.0X!.[.1X`.p.v.OX+ +   $ d.~.2X2XuX1X>XmX_.] 5.h.i.i.j.",
"s.u.f.f.XX3X8.s.+XXXT.-XuXU.XXaX>X|.b.f.+X,X,XoXOX$ 8   2 n.~.%X[.[._.[._.[.O.~.{.-Xp.g.p.-       O + * e.4XfX4XuX_.` 6.h.f.d.g.",
"l 2 2 2 k } ' ' 8.$.>.9.9.{.lXiXhX2XOXoXoXOX>X+X8X>.( ) _ &.&.&.O.O.^ 3 3 &.O.O.G.&.~ o.o.e.-X) ) } %.} } I.fXhX0X_.2 l k 2 l E "
};
