/* XPM */
static char *result[] = {
/* columns rows colors chars-per-pixel */
"64 64 234 2 ",
"   c #3C1F23",
".  c #461E1F",
"X  c #4C1E1D",
"o  c #5D1E17",
"O  c #551E1A",
"+  c #5A1E18",
"@  c #651E14",
"#  c #6C1E12",
"$  c #6D2317",
"%  c #742514",
"&  c #772817",
"*  c #7A3417",
"=  c #6B311F",
"-  c #421E20",
";  c #4F342B",
":  c #51332E",
">  c #4F2928",
",  c #793525",
"<  c #6F382E",
"1  c #5D4137",
"2  c #654537",
"3  c #724533",
"4  c #6C5A1E",
"5  c #623B40",
"6  c #725248",
"7  c #766847",
"8  c #842E15",
"9  c #8B3316",
"0  c #85361A",
"q  c #953A17",
"w  c #9B3E18",
"e  c #913616",
"r  c #833E2A",
"t  c #934E14",
"y  c #A34218",
"u  c #AC491A",
"i  c #B54E1B",
"p  c #BB531C",
"a  c #B4511B",
"s  c #AE5519",
"d  c #88771B",
"f  c #84432B",
"g  c #89472D",
"h  c #864837",
"j  c #8D5439",
"k  c #94583A",
"l  c #944738",
"z  c #9C613A",
"x  c #C1571D",
"c  c #C25B1C",
"v  c #C5661C",
"b  c #C67034",
"n  c #8E5650",
"m  c #8D574B",
"M  c #826B4C",
"N  c #9B6946",
"B  c #8A7756",
"V  c #967B57",
"C  c #8F6F53",
"Z  c #A56B46",
"A  c #A6754C",
"S  c #A87C55",
"D  c #B07F56",
"F  c #9B6966",
"G  c #AB7278",
"H  c #A77B78",
"J  c #A36C72",
"K  c #D19019",
"L  c #DAA918",
"P  c #DFB817",
"I  c #E0BB17",
"U  c #E4C917",
"Y  c #E3C81F",
"T  c #E7D516",
"R  c #EFF613",
"E  c #EBE614",
"W  c #E4CA35",
"Q  c #E3C620",
"!  c #9A865B",
"~  c #948355",
"^  c #A6885B",
"/  c #B68A59",
"(  c #AB935D",
")  c #B8985E",
"_  c #9A8964",
"`  c #8D8265",
"'  c #B88C62",
"]  c #A89568",
"[  c #B49C6B",
"{  c #B99965",
"}  c #AA9A71",
"|  c #B69E73",
" . c #A98970",
".. c #BCA365",
"X. c #B5A26C",
"o. c #BCA46E",
"O. c #BBA66A",
"+. c #B6A374",
"@. c #BBA574",
"#. c #BDAA73",
"$. c #BCAB7C",
"%. c #B8A67A",
"&. c #B8AB79",
"*. c #C49C68",
"=. c #C99C6B",
"-. c #C3A46B",
";. c #CBAD6A",
":. c #C7A866",
">. c #CDB26D",
",. c #D3B36C",
"<. c #DAB46D",
"1. c #D6B96E",
"2. c #D9B86D",
"3. c #C2AB74",
"4. c #C2AD7C",
"5. c #CAAB76",
"6. c #C5B275",
"7. c #CDB473",
"8. c #C4B27C",
"9. c #CBB57C",
"0. c #CEBA7C",
"q. c #C6B87B",
"w. c #D3B473",
"e. c #DAB671",
"r. c #D6BA72",
"t. c #DBBC73",
"y. c #D2B47A",
"u. c #D4BB7C",
"i. c #DCBD7B",
"p. c #D9B57C",
"a. c #D5AD6A",
"s. c #E1BD75",
"d. c #E2BF78",
"f. c #E7CD59",
"g. c #DCC175",
"h. c #DCC27C",
"j. c #D7C17B",
"k. c #E3C375",
"l. c #E3C47C",
"z. c #E5C97D",
"x. c #EACB7E",
"c. c #EACA77",
"v. c #EBD274",
"b. c #DBC242",
"n. c #A9A319",
"m. c #AF7B81",
"M. c #B38587",
"N. c #B89498",
"B. c #B48D90",
"V. c #BCB187",
"C. c #BB9FA0",
"Z. c #BDA3A4",
"A. c #C5B483",
"S. c #CCBB82",
"D. c #C9B886",
"F. c #D4BC82",
"G. c #DBBE82",
"H. c #D3BE8B",
"J. c #D5B484",
"K. c #CBB48E",
"L. c #C2AAAD",
"P. c #C4AEB1",
"I. c #C6B1B5",
"U. c #C8B5B8",
"Y. c #D0AA81",
"T. c #D4C285",
"R. c #DCC483",
"E. c #DECA84",
"W. c #D4C38B",
"Q. c #DBC48B",
"!. c #DCCA8C",
"~. c #D6CB8E",
"^. c #D4C492",
"/. c #DCCC93",
"(. c #D8CA97",
"). c #DDD193",
"_. c #CFC589",
"`. c #E3C483",
"'. c #E4CB84",
"]. c #EACB85",
"[. c #E2C68A",
"{. c #E4CB8B",
"}. c #EACD8B",
"|. c #E8C785",
" X c #EBD285",
".X c #E5D18C",
"XX c #EBD38D",
"oX c #EAD78B",
"OX c #F2D58D",
"+X c #F2D988",
"@X c #E3CD92",
"#X c #E9CE92",
"$X c #E5D394",
"%X c #EBD493",
"&X c #ECDA94",
"*X c #E4D49A",
"=X c #ECD59A",
"-X c #E6D99B",
";X c #ECDB9B",
":X c #E7D995",
">X c #F1D594",
",X c #F2DC94",
"<X c #F2DC9B",
"1X c #F5D998",
"2X c #F1CF93",
"3X c #EEE09C",
"4X c #F3E39C",
"5X c #F7E598",
"6X c #F4E18E",
"7X c #D7CDA4",
"8X c #DDD3A6",
"9X c #DFD9BB",
"0X c #EBDCA3",
"qX c #EBDEAA",
"wX c #E5D9A6",
"eX c #F2DEA4",
"rX c #E8DDB2",
"tX c #EDE2A4",
"yX c #EDE3AC",
"uX c #E7E0AD",
"iX c #F3E4A3",
"pX c #F8EAA4",
"aX c #F1E5AD",
"sX c #F4EAAC",
"dX c #F8EBA7",
"fX c #F9F2AC",
"gX c #EDE5B4",
"hX c #E9E4BA",
"jX c #F3EBB3",
"kX c #F6EDBA",
"lX c #F3E6B3",
"zX c #F9F4B4",
"xX c #F6EFC9",
"cX c #DAD4C2",
/* pixels */
"A.jX#X{.Q.{.:X5XfXfXfXzXoX_.wXqXeX}.XX,X=XeX<X}.<XpX&X+X5X4XfXgX^.iXeXeXH.[.>Xy.> # ^ +X*.O.%XiXsX*X;X4XW.).).=XdXsXG.2X}.d.G.}.",
"^ z.'.'.oXoX{.oX6XoXoX5X.X_.%XXX|.'.[.%X>XXX%X%X5X=Xu.'.l.t.]..X$.G.|.XX>X{.}.[.`.p./ ].7.8.!.$X:X-X%XiXtX3X-X:XsX).e.<.a.<.s.5X",
"V 1.g.t.g.z.j.~ . 3 '.6X.X4.t.|.l.{.'.XX{.>X[..X5XXXi.l.].l.|.{.8.%X#X[.|.}.}.`.`.`.l.OXp.S.).-X-X$X/.$X*X0X;X-X;X_.s.<.<.<.s.+X",
"B g.g.k.l. X6.> $ $XE. Xz.2 ;.w.i.`.R.%X%X=X%X`.}.{.u.'.XX{.'.@X@.[.}.}.[.|.}.|.`.: ' 1XQ.F.$X:X-X&X$X).~.&X;X3XtX/.;.<.<.a.s.6X",
"! g.r.1.g. Xq.V .X<X.Xr.#.  ] -Xi.h.[.{..X[.@X{.%XR.7. X}.&X.X:X3.[.|.|.|.|.|.`.2 3 }.1X8.] +.$X:X$X$X:X).$X$X;X0XW.a.,.s.s.a. X",
"~ r.z.v.g.1.g.g.E.&X      2 Q.~.y.;.-.#.#.#.@.+.F.!.[ 0.0.i.R.T.3.}.2XG.`.G.`.`.k r |. .; $.  A.W.T.8.  S.u.R._.T.8.G.w.a.s.d.OX",
"! g.g.1.h.g.h.v.g.      0.*.' { / / *.G.h.,XpXdXdX<XXXR.R.).;XtX| G.`.|.`.`.|.|.}.G.[.#XiX    S.-X!.!   O #.$.q.W.q.3.#.@.X.3.[ ",
"~ ,.g.k.g.1.g.g.r.    O # # , k % # # # h.'.oXOXXX,X.X@XoX,X5X3X| |.|.|.|.`.d.|.|.|.#X<X=X      u.g.+X/ k iX&X&X3XsX$X&X4XiXdX1X",
"7 g.g.g.g.k.>.g.g.    X $ u.R.-.$ # # # # [.'.{.oX&X%XE.h.|.z.) m [.`.`.`.|.`.[.|.|.|.#X!.u./     > :.t.Q.%X*XQ.R.;X=X*X=X@X%X5X",
"~ >.>.1.1.g.>.1.g.h.~ ^ .X{.y.# 8 8 # # # #X{. X%Xj.z.l.r.1.2.k.Z # Z }.[.|.2X|.`.[.#Xr 4.i.l.k.f # Z ;.R.!.@X:X!.{.:X%X;X=X%XfX",
"~ 6.g.g.1.,.1.1.2.g.z.6XT.7.:.# i x i 9 # Z %X%XXX$Xh.'.h.t.2.k.| p.# < 2 }.2X[.[.#X2XeXr $ *.z.f # # * f f u G.R.{.Q.Q.$X<XtXzX",
"! O.>.1.>.:.7.:.:.;.7.E.7.A.-.u x K K v x e Z XX,X&X'. Xh.l.c.z.[ 9.*.# - : [.#X[.[.G.#X=.# # a.f # % i p $ 9 a.e.XX*X{.[.;X&XzX",
"X.h.g.g.j.j.8.o.3.q.q.q.0.V.D.L U U U U U x y G.&X.X%XoX'.'.g. Xu.`.!./ .     } Y.| 4.F.4.# # ;.f % c x c % x x x b &X$XR.R.@XpX",
"_ ).tX-XyXjX;XXX,X6X,X,X,X,Xx.U U U E T U P x d.,X%X{.{.'.oXOX].u. X'.XXa.X   B eX=X[.<X<X,X+   # % v P v K L L c b t.R.{.:X@XoX",
"` gXyXyXhXaXrXG.OX].XX[.h.|.x.U U R R R U I a.%X4X;X%XXXE..X'.'.7.R.'.}.[.@     `.|.p.p.u.i.+   =Xv U U U U U U U b h.r.'.{.%X*X",
"` gXjXgXjXhXrX:.z.].].].'.'.z.U U R R R U U f.XX&X,X&X;X{.&XoX$Xy.h.`.XX>X@     y.G.|.`.].G.+   s.k.U U R R R T U b h.;.,.g.%XhX",
"_ gXyXqXjXkX8X:.s.l.].}.XX}.#Xc.U E T U U Y v.%X%X4X&X;X%X'.oX.Xu.{.[.[.#X@     y.p.[.[.[.[.+   [.%XW Y E R R T U W XXu.>.>.h.4X",
"B u.-XwXgXrX8X:.e.t.|.OX{.}.>X>XW U U U U W $X%X%X/..X{..X.X.XE.6.].{.{.g -   - G.`.#X[.[.#X+   G.%X+XU U T T U U W XX[.F.0.h.'.",
"_ @.q.H.^.rXV.O.{.l.}.<X0XQ.}.XX Xz.f.f._.).~./.&XS.8.8.0.0.T.T.[ 3.F.D #     7 @X[.!.#X@XY.    @X$XaX..Q U U b.8.O.X.#.O.O.u.$X",
".XoX'.'.&XjX(.3.`.h..X@X;X%X'.`.l.l. Xd.).-X&X;XiX%X:XiX;X;X+X5X X X`.& -     5.=X#X{.{.m $     %XeX3XG.R..XQ.[.oX9.7.].'.&XpX5X",
"E.{.'.E.%XkX7X#.'.%X%X<X<X>X`.R.i.k.x.8.:.;./ ) { =.q w w w 8 # # :.D # -   - @ *.#X@X' #     V [.>X=XR.}.i.].`.x.j.z.'.'.oX%X,X",
"h.oX'.:X.X+X~.3.XX=X#X#X%XXX'.|.`.[.;X@...% x c c c x c c x x x & # # +     e x % g Y.# .   O J.Q.@X=XJ.t.,.w.t.].w.j.oX+Xj.j.c.",
"g.j.h.z.E.6X~.3.{.XX>X=X$X{.|.|.%X' =.S & 9 9 9 p K L U U x x x x # # @ - $ x x x i # X - < @X*X*X0X*XG.a.e.i.`.}.7.h.h.z.E.j.l.",
" X'..X'..X5X!.X.i.{.%X%X%X}.%X{.f # q x p p % # # U U U U x x x % c p 9 # # # e i u # - m 0X0X;X@X2X@XH.G.w.`.R.}.9.h.'.'.oXh.j.",
"'..XoX.XoX5X!.! ] ] ] $.A.3.[ , # a L L L p p 8 $ t U U U c x x % x p * . # # # # # +   T.H.~.W.H.#X@XH.>X`.`.G.'.@.1.l.z. X'.h.",
".XE..X{.z.x.oX!.jXpX;XiXtXQ.G.# i v U U U P p 9 # * L L c x x x % x y X n.- # X 4 . + $ * , _ _ _ } V.| A.4.[ 3.3.! 2.g.l.h.oXE.",
",X%XoX'.g.&X/._.*X*X*X@XsX@XG.# i x K U U P p 9 # i x x x x x x % % % # # @ # X ; @ = p x # & j.G.#X0X^.Q.[.H.^.rX] ;.2.g.z..XE.",
"+XoXoXz.k.k.j.A.=X*X!.!.iXS.# # q x p u y w 9 o . x x x x x x x % # t * # # o # # > x x x q K t / s.|.(.(.@X}.eXxX| l.j.oXE.3Xj.",
"'.h.g.g.g.x.W.H.@X@X@X!.#X# # # - # # # # # +     % x x x x c x % # o n.* % % # - x x x x p t U 8 a.s.`.<X#X].eXuX+.j.E.E..X:X:X",
"{.R.j.g.1.6X_.D.(.@X@X*X%X# * y % + X -           O 9 x x p 8 # 9 @ o o 4 d t @ * x x x x e & u x f l.;.d.t.i.|.oX&..Xz..X:X;XoX",
"0.7.j..X).sXD._.(././.@Xg % K U * # # X       -   . 8 x x x y # # @ -   o o O t s i w # # # # w x f ].`.G.|.G.l.oX@.E.:X.X!.E.'.",
"[ X._ _ ] ~.V.q.J.D.9.9.f % v U s # # X   - o @ - - 9 c x x x u u # # @         - # # # X   + # 8 2 `.|.l.'.{.'.;X@.#.X.} ] j.} ",
"T.pX4X3X6X;XXXoX'.7.Q.Q., 8 x L v # # O   # # # X - @ e p x x x p p % # # # # # # # # .           3 G.}.[.[.#X#X1XH.T.Q.W.8.3X#.",
"7.4X$XoX&X%XoX.XtXlXqX=.# x x v x # # X   # # # # o - . & x x p c p y # # # # # # @ -           @ Q.[.%X#X@X#X%X3XF.<XXX}.`.R.} ",
"6..X:Xh.{.h.h.3XkXlXaXS # x x x y $ @ . @ # +   O # o .   o # # # o # # # # # # # O           - D >X{.[.#X2X#X<X4XQ.Q.>X>XXX%X} ",
"0.h.'. Xh.h.z.j.-XaXQ.# # x x x % # +   @ @       . # $ -   - - - . # # # @ - -               3.`.}.>X*X@X#X=X#X%XF.`.{.OXXX&X} ",
"6. X:XE.j.>.j./.$XtX$ # # % i & # # m j O @ O O O   . .     O .                 O         - o y.[.[.{.@XqX@X#X#X%X9.%X{.'.}.].} ",
"q.E..X.XT.;X4XjXyXh.# # # # # # : 6 .X^ # # # # # @     -   X @ # @     @ # * @ -         # % p.[.[.{.@X*X$X@X@X@X4.R.%X{.}.oX8.",
"6.sXsXtX).j.j.E.j.# # # # # N w.&X6XoX0.* # + . @ # X + $ o o X     + ] 3.F.7.X         O # / }.%X*XF.[ ] +.A.A.H.%.X.-.O.3.G.| ",
"..g.'.h.$XtXyXyXsX# # # # % # { .X).(.    @ @ O   o - . . . X 3 8.@X`.%XF.T.;.O -     o # f OX XXXOXsX|.G.`.%XOX,X4XoXx.x.c.c.[ ",
"} j.j.!.-XwXzXjXzXwX@ # y p e # N Z j .     - .   - @ # # r uX^.X.{.[.{.{.Q.9.# # @ @ @ # l.}.XXOX}.iXG.`.!.F.d.'.z.r.i.t.k.x.] ",
"&.-X:X:XtX3XtXgXsXyX# y x x u % #   o @ # X               6 .X(.| l.E.{.{.[.R.f # # # # # '.|.{.}.}.+XH.*X0X^.y.t.l.r.w.,.e.x.] ",
"D.zXyXuXyXsXsXuXwX.X# % i x x p % o   - # @               8.G.8.[ 7.g.R.i.{.[./ # # # # { z.2X}.l.OXdXqXB.| G J.a.,.k.k.,.r.c.] ",
"} 8XgXuXuXtXuXT.q.:.) $ $ y x x q $ .     @ .         + @ *.w.W.[ 7.w.w.9.G.F.S # # # N @.y.d.[.t.p.Y.G G G N.H.,.;.e.2.r.t.x.o.",
"..-XhXhXuXgX)._.^.(.^./ # # 9 x c # o     # o         + -   # # O.r.g.i.t.u.3.@.f # # K.(.Q.J.5.G G G G G U.U.U.;.:.w.;.:.:.k.7.",
"w.'.%X0X&X5XfXuXgXgX$X1.* # 9 x x i # X   # +       - @ -       X O j / x.x.s.eXh % w l K.J.G G G G M.N.P.I.U.U.u.r.0X/.0X/.t.>.",
"7.%X%X6X%X5X$X~.(./.R.,.,.# # w i # # X   - +       X # -             O @ e.{ <.t.G G G G G G m.m.U.U.U.P., I.n *X|.0X=X;X~.t.^ ",
";.XX&X,X:X4X-X~./.T.7.,.:.@ o # # # # X   - @ .   - X O                 6 F F G G G G G G G M.P.U.U.U.J m , B., qX%XtXqXgXtX'.^ ",
";..X.X3X4X5X$X/./.T.;.>.;.# + + # # # # X M N Z N N N : - -   > : 5 G G G G G G G G G m.M.U.U.U.U.U.U.n m.@ # # yXyXkXlXwXyX{.^ ",
">.%X.X{.{.}.u.Q./.9.7.w.>.# + - # # # # # Z G.`.}.T.{.*X3 $ F J m.G G G G G G G G L.L.I.U.U.U.U.U.Z.< & # # # 5.wXtXqXqX$X=XtX] ",
"( F.T.6.7.g.( @.*X*XT.j.q.A + + 9 9 w y $ * 3.A.Y.A.4.| G G G G G G G m.N.N.U.U.U.U.C.C.U.U.H H U.J $ $ # / o.w.Q.^.V.A.o.[ ;._ ",
"!.sXjX*Xd.+Xo.3.u.[.R.y.W.Q.+ + i x x x % # %  .m.G G G G G G m.G I.I.I.U.Z.n U.U.U.H $ Z.Z.$ % & # # # u.]. X].,X;X7X~.0XgXeXwX",
"gXlXrXqX%X,X7X%.3 $ # # # # @ @ e q q & # # m U.U.N.N.N.N.N.U.U.U.U.U.U.U.F n U.U.F m # L.n # # # F =.y.%Xu.t.l. Xl.`.{.l.%XaX<X",
"aXeXlXlX*X,X8X@.T.: : ; : - X # # @ # # # g :.$ Z.U.U.U.U.U.U.Z.I.Z.# G L.L.P.Z.L.# # # # # % J.{.'.}.^.0X$Xw.t. Xi.Q.%X[.G.|.eX",
"[.#XqXrXgXaX7XA.Q.!.@XF./ # # # #     $ # l.7.k Z.Z. .U.U.P.B.N.n n # r $ & r # # # # ' y.J.#X@X@X[.}.W.wXyXQ.a.s.s.[.eX<X=X#X[.",
"[.`.eXlXkXxXcX4.@X$X/.Q.f # # # .   X , h.'.'.{ Z.M.F U.U.U.Z.I.C.# # @ # $ m 4.@X*X=X@X@X%X=X*X#X{.[.*XkXlX$X,.<.:.e.`.|.#X%X<X",
"eXR.`.=XrXxXrX} $.S.8.S # # # O   . k ] q.o.u.9.m $ h h h Z., , # # o - # h $.@.4.$.$.A.4.5.4.4.A.A.$.A.wXwXW...:.) :.<.s.l.2X#X",
"iXeX@X|.0XxXxX[.:X;X%X' # # @ .   > -.>.T.D.#.| @.! N D S ) u.# $ O - - # dX~.S.3.] ! V.A.A.%.+.} ] @.A.A.V.%.@.&.B ,.e.a.k.|.{.",
"2X[.#X`.}.xX8Xy.'.`.p.& # # +     j l.<X.X4XsXdX5Xh.#.j.{..Xj.# - - - # .X:XT.i.r.u.>.oXiX;XpXiXiXfXiXsXkXiXdXfXfXV...<.s.<.s.|.",
"d.>X=X%X>XeX^.G.|.`./ # # @     ' .X|..X@XXXXX}.,X'.#.'.oXoX# o - - # D 3XtXD.u.i.@Xw.k.}.F.XX!.!.%X&X3X-X;X;X;XsX_.{ <.<.<.d.l.",
"i.}.=X=X1X1Xu.y.p.`.# # -     -.`.].{.XX}.}.{.`.XX!.3.R..XE.# X   # @ !.tXyXA.0.!.R.,.g.{.F.;X&X@X.X$XiXtX*X$X;XsXD.:.t.<.<.s.d.",
"d.|.}.2X>X4XF.G.}.# # # -     5.h.}.`.'.}.{.%X'.+X:Xq.E.!.          o $ $ 6._.).*X!.r.g.].q.:X-X{.$X$X&X-X3X:X*XsX~.{ <.s.w.e.d.",
"u.w.p.i.@X-X3.y.|.r # # $ -       : i.i.].%X%X{.6X:X#.T.j.1                 @ ..(.).t.t.r.0.:XtX-X:X$X-X$X-XtX-X;X~.[ ,.g.t.y.u.",
"C 7 7 7 M | [ [ 3.$.[ o.| K.wX(.*XQ.{.{.'.#X{.{.4X3XT.$X_._.X.X.] ] ` 7 7 +._ ] V.&.) -...q.!.$X!.-XtX-X-X;XtXiXiX~.7 B M 7 C ^ "
};
