/* XPM */
static char *result[] = {
/* columns rows colors chars-per-pixel */
"64 64 239 2 ",
"   c #3C1F23",
".  c #461E1F",
"X  c #4C1E1D",
"o  c #5D1E17",
"O  c #531E1A",
"+  c #5A1E18",
"@  c #651E14",
"#  c #6C1E12",
"$  c #6D2114",
"%  c #742413",
"&  c #7D2B14",
"*  c #71271B",
"=  c #75291A",
"-  c #7A331B",
";  c #6B311F",
":  c #421E20",
">  c #492728",
",  c #50332E",
"<  c #522F28",
"1  c #663529",
"2  c #7B3626",
"3  c #762F25",
"4  c #6F4535",
"5  c #6C5A1E",
"6  c #785C44",
"7  c #674F43",
"8  c #786747",
"9  c #7B6F52",
"0  c #8C3316",
"q  c #863315",
"w  c #9B3E18",
"e  c #933816",
"r  c #832D15",
"t  c #813E2B",
"y  c #864116",
"u  c #974F15",
"i  c #A34218",
"p  c #AB481A",
"a  c #B44E1B",
"s  c #BB541C",
"d  c #88771B",
"f  c #85432B",
"g  c #89492E",
"h  c #884931",
"j  c #8A5033",
"k  c #915839",
"l  c #A66039",
"z  c #C1571D",
"x  c #C25D1C",
"c  c #C5661C",
"v  c #CC7A1B",
"b  c #C97237",
"n  c #C15F24",
"m  c #8C5755",
"M  c #8F564A",
"N  c #836A4B",
"B  c #996543",
"V  c #9A7148",
"C  c #8A7855",
"Z  c #987A57",
"A  c #8D6C54",
"S  c #A97A4E",
"D  c #A87A55",
"F  c #A46D48",
"G  c #996766",
"H  c #9F716E",
"J  c #AB7278",
"K  c #A67D7B",
"L  c #A17673",
"P  c #CE811A",
"I  c #D18B1A",
"U  c #D49519",
"Y  c #DEB517",
"T  c #D9A418",
"R  c #E0BE17",
"E  c #E4C917",
"W  c #E2C117",
"Q  c #E7D515",
"!  c #EFF613",
"~  c #EBE714",
"^  c #E4C82E",
"/  c #9B865A",
"(  c #9B854F",
")  c #A6885B",
"_  c #B6875B",
"`  c #AF965E",
"'  c #998762",
"]  c #8D8265",
"[  c #A38A65",
"{  c #B68C62",
"}  c #A89667",
"|  c #B49C6B",
" . c #B89A65",
".. c #AB9B71",
"X. c #B49E72",
"o. c #B5A26C",
"O. c #BBA46E",
"+. c #BCA468",
"@. c #B5A374",
"#. c #BBA574",
"$. c #BDAA73",
"%. c #BCAB7B",
"&. c #B6A779",
"*. c #B2A876",
"=. c #BEA55C",
"-. c #C39B68",
";. c #C29D79",
":. c #CCAD6A",
">. c #C6A867",
",. c #D4AA6B",
"<. c #CDB16D",
"1. c #CFBC67",
"2. c #D4B36C",
"3. c #DAB46D",
"4. c #D6B96E",
"5. c #DAB96D",
"6. c #C3AC75",
"7. c #CBAC72",
"8. c #C3AD7B",
"9. c #CDA978",
"0. c #D1AE74",
"q. c #C5B175",
"w. c #CCB474",
"e. c #C4B37D",
"r. c #CBB57C",
"t. c #CEBA7C",
"y. c #C6B87B",
"u. c #D3B473",
"i. c #D9B672",
"p. c #D6BA73",
"a. c #DBBC74",
"s. c #D2B47A",
"d. c #D4BB7C",
"f. c #DBBD7B",
"g. c #DBB67C",
"h. c #E1BD75",
"j. c #E2BF7B",
"k. c #D8BF40",
"l. c #E5CA5A",
"z. c #DCC175",
"x. c #DCC27C",
"c. c #D6C17C",
"v. c #E3C374",
"b. c #E2C57B",
"n. c #E4C97D",
"m. c #EACB7E",
"M. c #EAC978",
"N. c #EAD068",
"B. c #DDC65C",
"V. c #A9A319",
"C. c #AE7A80",
"Z. c #B38588",
"A. c #B79497",
"S. c #AB8584",
"D. c #BCB186",
"F. c #BDA2A4",
"G. c #CCBB83",
"H. c #C8B785",
"J. c #D4BC83",
"K. c #DBBE82",
"L. c #D5BD8A",
"P. c #D1BA90",
"I. c #C2A8AC",
"U. c #C0A2A6",
"Y. c #C3ADB0",
"T. c #C8B5B8",
"R. c #C8B5B5",
"E. c #CFBCAF",
"W. c #D4C285",
"Q. c #DBC484",
"!. c #DEC984",
"~. c #D4C38B",
"^. c #DCC58A",
"/. c #DCCA8C",
"(. c #D6CB8E",
"). c #D4C593",
"_. c #DDCC93",
"`. c #DAC997",
"'. c #DED092",
"]. c #DCD49B",
"[. c #CFC589",
"{. c #E3C483",
"}. c #E4CB84",
"|. c #EACB85",
" X c #E2C689",
".X c #E4CC8B",
"XX c #E9CD8B",
"oX c #E8C785",
"OX c #EAD285",
"+X c #E5D18C",
"@X c #EBD38D",
"#X c #ECD98E",
"$X c #E9D584",
"%X c #F3D78B",
"&X c #E3CD92",
"*X c #E9CE92",
"=X c #E1CF9B",
"-X c #E5D393",
";X c #EBD493",
":X c #ECDA95",
">X c #E5D49A",
",X c #ECD59A",
"<X c #E6D99B",
"1X c #ECDB9B",
"2X c #E7D995",
"3X c #F2DB94",
"4X c #F2DC9B",
"5X c #F2D695",
"6X c #F1CF8B",
"7X c #F3E18D",
"8X c #EEE19C",
"9X c #EFE096",
"0X c #F3E39C",
"qX c #F8E599",
"wX c #D7CDA4",
"eX c #DCD2A5",
"rX c #DFD9BB",
"tX c #EBDDA3",
"yX c #EBDEAB",
"uX c #E5D8A7",
"iX c #F2DEA4",
"pX c #E8DDB2",
"aX c #EDE2A4",
"sX c #EDE3AC",
"dX c #E7E0AD",
"fX c #F3E4A3",
"gX c #F8EBA3",
"hX c #F2E5AD",
"jX c #F4EAAC",
"kX c #F8EBA7",
"lX c #F9F2AC",
"zX c #EDE5B4",
"xX c #E9E4BA",
"cX c #F3EBB3",
"vX c #F6EDBA",
"bX c #F3E6B3",
"nX c #F9F4B4",
"mX c #F6EFC9",
"MX c #DAD4C2",
/* pixels */
"H.bX*X.X)   4 qXlXlXlXnX2XH.uXaXiXXX+X5X,X4X4XXX4XgX#X3XqXqXlXzX).fXiXiXL.K.*X5XiX5Xm.%X-.$..XtXkX,X1X4X~.'.'.<XkXkXK.6X6XK.j.&X",
") n.}.}.[ o !.:X3X#X#XqX$XL.;X;X{.XX.X,X5X@X@X,X4X1Xp.m.b.p.}.+X%.K.XXXX5X X> -.oXoXoX6Xu.N : 1 ~.2X-XfXaXtX<X-XkX].i.i.,.3.j.3X",
"C 4.z.5.z.=.c.d.N X 1 $X$X8.f.n.b..X.XXXXX;X.XXXqX+Xf.x.|.b.{..X8.,XXX XXXXX_ ,.{.{.oX%Xg.[ ) % ^.-X>X'.1XtX1X1X<X[.h.3.3.3.h.%X",
"/ z.z.b.b.}.c.< # # }.OX$X .:.u.f.{.x.2X;X,X;X{.;X Xc.oX@X+XoX;X#..XXXXXoXoXoXXXK.oXoX5XQ.G.&X,.1X2X-X'.(.-X1X1XaX_.:.3.3.3.h.7X",
"/ a.z.4.z.$X$X> $ 1X+Xm.$Xe.&X>Xf.x.}..X;X X&X.X;XQ.w.@X@X3X+X-X;.oXoXoXoXoX{.{.s., 1 &X2XH._.-X-X-X2X-X_.2X2X1XaXW.0.3.3.h.,.m.",
"( p.n.n.z.4.p.<.1 9X#Xx./     / s.:.>.#.O.$.#.X.J./.} t.t.f.Q.~.8.XX*X{.{.K.{.{.D @ f ,X-Xe.~./.~.~._._.W.d.^.W.W.%.f.u.3.h.j.%X",
"( z.z.z.x.z.n.b.z.!.1XA X + + X N 6XqXQ.x.5XgXlXkX4X@XQ.Q.!.1XaX#.K.K.oX{.oXoXoXj.t f 4XfX^.!.2X1X.X/ C @.&.$.y.(.e.6.6.#.o.6.O.",
"C 4.z.z.z.1.5.v.z.n.  1 Q.K.k # O &X4X-X$X}.OX#X@X3X+XXX#X3XqXaXX.{.oXoXoX{.j.oX{.XXXX4X4Xz.b.m.C   > 6 6 aX2X:X8XjX-X2X8XfXkX5X",
"C p.a.a.v.z.1.z.z.z.c. .2XQ.B # # B OXK.Q.}.}.XX@X2X2X!.x.}.|.#XD B K.{.K.oX{.{.oXXXXX*XJ.{.a.>.  o z.z.~.2X>XQ.Q.4XtX*X,X_.2XqX",
"C 1.4.p.4.z.:.4.z.z.$X9X-X.X# # # # {.f. X-X}.@X3Xx.n.b.p.4.5.v.| { # F ^.XX6XXX XXX,XXXf 0.3.:.$ 5.M.<.Q._ t &X/..X2X;X,X,X,XlX",
"C w.a.c.4.1.4.4.4.z.n.7XW.k # # w % % x b b :X2X}.;Xx.}.x.z.5.v.X.K.K.# 1 4 XXXX XXX*XiX^.f % 2 @ t v.<.Q.^. X- s..X^.^.-X4XfXnX",
"' +.<.1.:.>.w.>.>.:.w.!.q.f # % a P I v z P ^ $X3X:X}.|.x.b.M.b. .g.g.-.$ : , ^.*X XK.*X^.>.# # # # q  .g.,.-.# D @X2X.X X1X,XlX",
"| z.a.a.c.W.q.O.q.y.y.t.t.4 & z z Y E E E E E N.:XXX#X@X}.}.z.$Xd. X!.^._ :     X.;.8.G.H.r.# # # # # # i z z z 0 p.#X-XQ.Q.;XqX",
"} ].tX<XsXjX1X@X3X3X3X:X7Xh z z z R E ~ ! E E E $X:X.X.X}.@X;Xm.s.6XoX@XoXx.O   G *X X4X5X5X;X+   @ % p v R E Y U B.p.Q..X-X-X;X",
"] bXzXsXzXbXpXQ.6X|.XX.Xb.oXb z c c Q ! ! E E ^ 7X1X;X#X}.+X}.}.w.b.}.XX!.;X#      Xd.f.f.a.f.+   f % x T E E Q E E ^ u.{..X-X>X",
"] xXcXzXzXxXpX>.n.m.|.|. Xb.|.z c R E Q E E E l.:X5X1X:X.X#X#X-Xs.x.{.;X,X:X@     f.oX{..X X Xo   |.f.P E ~ ! ! Q E ^ <.2.z.;XxX",
"' zXsXdXzXvXeX>.h.b.|.XXXXXX*X^ U R E E E E l.2X;X4X:X4X2X}.@X.Xs.}.Q..X;X;X#     K.oXK. X&X X+   ;X,XP E ~ ! ! Q E ^ d.<.<.x.0X",
"C d.<XuXsXzXeX>.5.a.oX%X.X+X5X;Xl.E E E 1..X-X-X2X&X+X.X+X.X+X}.q.XXXX}.;Xh :     K.*X*XL.*X&X+   -X4X=.E E Q E E E +XoXW.s.x.}.",
"' #.r.L.).uXD.>..X{.+X4XiX^.XX@X6Xm.%X{.[.'.(.&X&X#.X. .O.6.7.G.| 6.K.J.D #     m ^.L.,X*X,X9.:   &XfXX.z.B.E E k.$.o.$.o.$.d.2X",
"@X2Xn.}.4XcXwX#.Q.x.XXXX1X;XoX{.b.b.m.j.-X<X+X2 % a z z s s p % - OX5X&X= :     J.&X&X*X,Xk @     tX4XL.{.+X~. X;Xr.<.}.m.:XqXqX",
"!.!.}.!.;XnXwX6.oX,X;X1X4X5X{.{.f.z.m.6.g 0 i s z z I T E E z z p e $ # # :   : @ -.=X=X{ #     D ,X,XK.|.f.|.{.}.z.n.x.$X+X#X3X",
"x.@X}.2X+X$X(.#.+X,X;XXX;X@X{.}.oX X;X# $ # # # $ a E E E E z z z z a # X   : e z & g L.# :   < H.&X>Xd.a.i.u.f.|.p.c.#X@Xc.a.n.",
"z.z.x.}.}.7X(.8.XX;X;X5X-X.X XoX;X;.# & i i w # # r I E E E z z z z # # o   $ z z z a # X   1 &X*X,X>XL.,.i.f.b.@Xw.Q.x.}.x.z.n.",
"$X+X$X!.+XqX(.O.f..X@X;X,XXX*XXXS # q v c c z i % # x Y Y x z z z % z z 0 # # # e a p # X @ ,X,X&X*X=X XK.u.{.Q.XXw.x.m.}.+XQ.x.",
"}.+X@X@X%XqX(./ } } } %.H.6.| ) # i c E E E T z 0 # z z z z z z z % z z - . # # # # # +   @ = O.L.*X`.L.4X X{.K. X#.4.n.n.OX}.x.",
".X!.+X.Xn.m.#X!.cXkX<XfXaX~.1XJ.# s x Y E E Y z 0 # z z z z z z z % s i X V.. # X 5 . o u s % u A X.D.@.H.8.| #.8./ 4.z.b.x.+X}.",
"3X@X#X}.x.:X(.L.>X>X>X>XjX-X2X2 # a z x c c c i # . r z z z z z z % % % # @ @ # X < @ ; s z - E u f iX).Q.^.L.^.uX} :.4.a.}.$X!.",
"%X#X#Xb.z.v.c.H.,X>X^.^.fXG.:.# # o w w & # # @ .   o q z z s w w % $ y q # @ o # # > z s z % c U i 0.`.`.&XXXiXmX@.b.x.+X$X1XG.",
"!.x.c.z.z.m.~.L.&X=X&X`.*XW.# # # #                 . q z z a # # # # + V.- # # # . z z z % # # i s f }.iXXXXXiXsX*.z.!.x.+X9X2X",
".Xx.z.4.z.7X[.H._.&X&X*X;Xf % x U & # @ .     . @ . . 0 z z z i # # @ o o d d u o O # # # # # # r s f :.h.a.f.oX#X%.!.!.+X2X:X#X",
"t.w.c.'.'.aXH.[._.&X`.&X{ $ % v E q # # X : # # # . . @ w s z z e % % @ : @ @ + o # # # # @ o     . l {.K.{.K.{.#X#.c.9X+X}.!..X",
"| o.} ' } (.D.G.G.H.r.6.t $ % c T c # # X @ # # # # +   . r z z s c s y $ o + @ # # # o :         @ }.oXb.oX.X}.5X@.$.o.....t...",
"W.gXfX9X3X4X+X$X}.w.^.,.$ # z z I c # O   @ # +   o @ @     @ # # # # # # # # # $ $ o         : j K.K.XXoX X*X*X4XL.W.Q.~.e.8X&.",
"r.0X+X#X:X2X@X+XaXbXtXuX# # z z z z @ . : @ # :   : . # @ :   O # # # # # # # # O :         : @ s. X X5X*X&X*X*X8XJ.4X@XXX{.Q...",
"w.+X2Xx.}.x.x.0XnXcXjXuX# # x z z % 4 >Xj O @ X X X   . .     X .                 :         O # g.;X X.X*X*X=X4XfX^.{.5X%XXX;X..",
"t.x.}.$Xx.x.!.x.<XsXtX= # # % z e : -X&X_ # # # # # @         O # # @     o # # # #         # # 0.XX,X*X*X*X,X*X;XJ.^..X@X@X3X..",
"q.$X2X}.c.<.a.'.>XaX .# # # # - Z 5X1X-X X- # + X # @ . + # O O :   . O ( #.H.*X>Xh O   X # # # s.XX&X&XiX&X*X*X;Xr.;XXXXXXX@X..",
"e.!.$X+XW.8XaXcXsXQ.# # % % % S Q.^._.$.    # # O   @ : : :   X * .X2X&X~.}. X;X&X.X# + @ # # # 9.^. X&X-X>X&X X&X8.Q.+XoXXX@X%.",
"q.aXsXaX'.d.z.Q.x.z.# 0 z z a # F { { B .     : X     @ # # 2 %.H.^.;X-XQ.+X XXXK.^.# # # # # # K.>XJ.| } @.8.H.L.&.O.#.O.6.W.| ",
"o.z.}.!.>XaXsXsXcXsX# # i z z p % .   $ @ # :               7 (.e.-X{.&XQ.d.W.-X>X*X# # # # # # g.%XjXoXL.{.5X3X3X0XOXm.m.M.M.+.",
"o.c.c./.2XuXcXnXnXcX$ @ % s z z q #     . @ @               7 ). ..X.X.X!.^./.XX/..X$ # # # p p l .XfXJ. X^.J.f.}.|.a.f.a.a.m.} ",
"%.<X2X<XaXtXaXcXcXjX8X$ # i z s q #         o o             @ 9 o.Q.{..X.X.X+X X.X&XQ.# # # z z 0 |.%X~.>XtX_.u.a.b.p.u.2.a.m.} ",
"H.vXsXaXcXjXjXdXeX+Xm.2.# $ % % % # @       . @ .         @ @   , w.x.Q.J.oXXX XQ.;X.X# # # z z 0 #XkXtX/.zXyXK.:.2.v.h.4.a.n.} ",
"..eXzXdXdXsXeXW.w.q.>.z. ._ # # # # @       : o O       : # @        .u.u.W.J.r.d.r.e.# # # % z 0 b.iXP.=XpXuX&X3.:.3.5.2.a.m.O.",
"+.<XxXxXdXzX].[.).).).'.z.<.# # # # @         X # :     + #           Z d.d.8.6.e.^.eXP.# # * J J J J J C.J Z.&X>.:.u.:.>.>.v.w.",
"u.{.:X4X#XqXjXaXzXbX-Xb.|.7.;.# # # # @ .       o .   . @ :             7.j.9.P.`.L.J J J J J J J A.A.U.T.T.E.yXp.p.tX&XtX&Xa.:.",
"<.;X;X9X#X0X$ @ 8.`.x.2.2.g z z z & # # X   > f g g t @ > > , > m J J J J J J J J J J J J J C.A.T.T.T.Y.Y.T.E.yX>X|.tX>X<X^.a.) ",
":.#X:X3X-X0XG.. o # # # j = z z z z # # o   G ;.;.;.A.m H J J J J J J J J J J J J J J C.U.U.T.T.T.T.T.K [ T.G yXhX-XaXsXzXsX}.) ",
":.+X+X0X0XqX-X'.%.8 6 6 6 k $ # # # # # K R.Z.J J J J J J J J J J C.Z.C.Z.Y.T.T.T.T.T.T.T.T.T.T.T.A.t # G Z.g hXbXhXvXbXuXyX+X) ",
":.2X.X.X.XXXs.~.`.J.p.u.<.u.. . . # # # 3 F.T.I.I.I.I.I.I.I.I.I.Y.T.T.T.T.T.T.T.T.T.T.T.T.T.T.T.T.3 2 # # # f.2XuXsXyXtX-X,XsX} ",
"} J.W.q.w.z.` #.=X=XJ.x.e.x.X + # # . 4 f F.T.T.T.T.T.T.T.T.T.T.T.T.Y.m K T.T.T.M H T.T.M U.I.m # # # # # # 2 :.W.).D.H.O.| :.) ",
"!.jXbX>Xh.%XO.8.d..XW.s.(.Q.# # w s @ ' _ F.F.m T.T.F.m m F.F.* C.T.F.m Y.T.2 K $ # T.K $ * $ # # # # # # # # _ 3X1XeX~.uXzXyXuX",
"bXsXpXyX;X3XwX#.W.^.2X,X_. .# 0 z z a S h.E.G [ T.T.R.T.T.H m % M * 3 A.G G * M # G # # # # * M @ { oXJ.{ # - i.6Xb. X.Xb.;XjX4X",
"yXbXzXbX>X3XwX@.~.!.Q.J.Q.f # # w s # V g.j # # # $ R.L L 3 # # @ # # # # # # # # % # # 9.*X*XH., , XX^.[ , i.a.|.h.^.;X{.K.oXiX",
"XXXXhXpXbXiXwXH.^..X.XG.D # : + # # # V {.x.-.) # $ M # # # # # # $ 2 s.f..X[ # # r z i # # ,X&X&X XXXL.).sX X:.5.h. X4X4X,X*X X",
" XK.iXbXvXmXMXH.&X-X-X~._ #       # # F W.{.}.W.z.#Xw.$X!.}.#X2X!.#X2X1X4XkX%.t # # # # # # t &X&XL. X=XvXzX>X0.5.:.u.{.XX*X;X4X",
"iX^.oX4XpXmXpX..%.H.H.8.D .       @ 2 ` e.O.d.r.$.c.y.n.!.$X$X9X2X2X#X2X2XgX%.*.B # # # # # # # # # # D uXuX~. .>.` >.3.h.b.6X*X",
"4XiX&X|.yXmXmX^.:X1X;X-X{       + # f <.W.H.6.X.*./ y.$X+X'.!.$X0X0X].9X9XgX(.t.F $ # @ o o       : * | H.D.%.#.$.C :.a.3.h.oX.X",
"5X XXXK.XXmXwXJ.oXoXXXu.- .   X $ # b.4X-X0XkXkXqXx.$.z.!.#X2X'.'.+XaX'.9X].[.c.S $ @           + # fXkXcXfXkXlXcXD.>.3.h.3.j.oX",
"f.5X,X*X5XiX^.J.{.{.oX_ .     o $ _ oXXXXX-X+XXX3X$X$.!.+X7X7X'.2X:XqX8X9XaXH.a.:.1         1 | Q.>X2XaX<X1X1X8XjX[. .3.3.i.h.j.",
"h.XX4X;X5X5XJ.s.j.K.K.+   @ # # # XX.X+XXXXX.XQ.OX^.q.x.$X!.2X2X'.(.9X8XaXsXH.y.(.Q.<.    G.8X-X/.+X-XfX1X<X>X<XfX[.>.3.3.3.h.h.",
"K.oXXX*X4X4Xg.K.XX X{ @ .   O o S oX Xb.@XoX;X}.3X-Xq./.+X#X9X9X0X'.9X9X'.8X[.'.>X!.a.a.$Xr.-X1X&X-X-X2X1X0X-X>XsX_. .i.h.i.i.h.",
"g.u.f.g.&X1X6.9. X X# # # # @ # # f.x.f.oX;X;X.X9X2X$.W.c.[.c.2X'.(.(.'.[.9X*.W._.'.p.a.u.t.1XaX<X-X-X<X-X<XaX<XaX(. .<.h.f.f.d.",
"C 8 8 8 N X.| | 6.8. .6.X.L.=X=X&X^.;X.X}.*X&XoXqX9X[.2X[.c.%.$.*.*.' 9 9 %.....D.&. .>.+.r./.-X/.1XaX<X<X<XaXfXaX(.8 C N 8 C / "
};
