/* XPM */
static char *result[] = {
/* columns rows colors chars-per-pixel */
"64 64 238 2 ",
"   c #3C1F23",
".  c #3D2124",
"X  c #461E1F",
"o  c #4C1E1D",
"O  c #5D1E17",
"+  c #541E1A",
"@  c #5A1E18",
"#  c #651E14",
"$  c #6C1E12",
"%  c #53231E",
"&  c #6B2215",
"*  c #742413",
"=  c #7C2A14",
"-  c #762917",
";  c #79321F",
":  c #7B3312",
">  c #411E20",
",  c #482827",
"<  c #54302A",
"1  c #752E23",
"2  c #7B3522",
"3  c #793525",
"4  c #673630",
"5  c #5D4037",
"6  c #654739",
"7  c #774115",
"8  c #653E42",
"9  c #705444",
"0  c #766847",
"q  c #832D15",
"w  c #8B3316",
"e  c #853419",
"r  c #953A17",
"t  c #9B3E18",
"y  c #913616",
"u  c #823E28",
"i  c #955516",
"p  c #A34318",
"a  c #AA491B",
"s  c #B44E1B",
"d  c #BC541C",
"f  c #B7501B",
"g  c #85442B",
"h  c #88472C",
"j  c #874836",
"k  c #955D3D",
"l  c #8A5436",
"z  c #98623F",
"x  c #C1571D",
"c  c #C25C1C",
"v  c #C5661C",
"b  c #CA761B",
"n  c #C76D31",
"m  c #895A45",
"M  c #8E5650",
"N  c #8C5246",
"B  c #856D4B",
"V  c #9B6645",
"C  c #8B784E",
"Z  c #966459",
"A  c #8A7855",
"S  c #947A54",
"D  c #8A6F50",
"F  c #A87C54",
"G  c #A56F49",
"H  c #9C6765",
"J  c #AB7379",
"K  c #A67978",
"L  c #AB6E6D",
"P  c #A48E16",
"I  c #CE811A",
"U  c #D1891A",
"Y  c #D59B19",
"T  c #C39915",
"R  c #DBAD18",
"E  c #E0BD17",
"W  c #CCCC15",
"Q  c #E4C817",
"!  c #E3C71E",
"~  c #E6D315",
"^  c #EBE814",
"/  c #EFF613",
"(  c #E5CB34",
")  c #9C8659",
"_  c #948355",
"`  c #A58B5D",
"'  c #B2845A",
"]  c #B78858",
"[  c #B2975E",
"{  c #9A8864",
"}  c #8D8265",
"|  c #B28B64",
" . c #A79568",
".. c #B49D6B",
"X. c #B69864",
"o. c #A99B72",
"O. c #B49E71",
"+. c #A58A63",
"@. c #B5A26C",
"#. c #BBA46E",
"$. c #BBA366",
"%. c #B6A373",
"&. c #BBA574",
"*. c #BDAA74",
"=. c #BDAB7B",
"-. c #B5A779",
";. c #AFA172",
":. c #C89257",
">. c #D5BD55",
",. c #C3946B",
"<. c #C5AB6A",
"1. c #CBAD6A",
"2. c #C7A766",
"3. c #CDB26D",
"4. c #D3B36C",
"5. c #DAB46D",
"6. c #D6B96E",
"7. c #DAB96D",
"8. c #C3AB75",
"9. c #CBAC73",
"0. c #C2AD7C",
"q. c #C6A575",
"w. c #C5B275",
"e. c #CDB473",
"r. c #C4B37D",
"t. c #CBB57C",
"y. c #CDBA7D",
"u. c #CBB978",
"i. c #D3B474",
"p. c #DAB771",
"a. c #D6BA72",
"s. c #DBBC73",
"d. c #D2B57B",
"f. c #D4BB7C",
"g. c #DBBC7B",
"h. c #D4AC6F",
"j. c #E1BD75",
"k. c #E2BF7A",
"l. c #E1AC6B",
"z. c #E4CA5B",
"x. c #DCC175",
"c. c #DCC27C",
"v. c #D6C07A",
"b. c #E3C375",
"n. c #E2C57B",
"m. c #E5C97D",
"M. c #EACC7E",
"N. c #E9CA77",
"B. c #EACF73",
"V. c #DDC65C",
"C. c #AB8685",
"Z. c #B79698",
"A. c #B3868C",
"S. c #BEB288",
"D. c #BDA4A5",
"F. c #BD9DA1",
"G. c #C5B383",
"H. c #CCBB83",
"J. c #C9B987",
"K. c #D3BC82",
"L. c #DABE82",
"P. c #D3BE8B",
"I. c #D3B483",
"U. c #CDB38F",
"Y. c #C1A9AC",
"T. c #C8B5B8",
"R. c #C6B1B5",
"E. c #C4AFB1",
"W. c #C19480",
"Q. c #CCC189",
"!. c #D5C285",
"~. c #DCC483",
"^. c #DEC985",
"/. c #D4C38B",
"(. c #DBC58B",
"). c #DDCA8C",
"_. c #D6CB8E",
"`. c #DDCC93",
"'. c #D7C796",
"]. c #DED092",
"[. c #DED29A",
"{. c #D7D088",
"}. c #E3C584",
"|. c #E4CB84",
" X c #EACB85",
".X c #E2C68A",
"XX c #E4CB8B",
"oX c #EACD8B",
"OX c #E8C785",
"+X c #EBD185",
"@X c #E5D18C",
"#X c #EBD38C",
"$X c #EAD78B",
"%X c #F2D58D",
"&X c #F3D889",
"*X c #E3CD92",
"=X c #E9CE92",
"-X c #E5D394",
";X c #EBD493",
":X c #ECDA94",
">X c #E5D49A",
",X c #ECD59A",
"<X c #E7D99C",
"1X c #ECDB9B",
"2X c #E7D995",
"3X c #F1D594",
"4X c #F2DB94",
"5X c #F2DC9B",
"6X c #F5D998",
"7X c #F1CF93",
"8X c #EEE09C",
"9X c #F3E39C",
"0X c #F7E598",
"qX c #F4E18E",
"wX c #D8CCA4",
"eX c #DDD3A6",
"rX c #DFD9BB",
"tX c #EBDDA3",
"yX c #EBDEAA",
"uX c #E5D9A6",
"iX c #F2DEA4",
"pX c #E8DDB2",
"aX c #EDE2A4",
"sX c #EDE3AC",
"dX c #EBE4AE",
"fX c #F3E4A3",
"gX c #F2E5AD",
"hX c #F4EAAC",
"jX c #F8EBA6",
"kX c #F9F2AC",
"lX c #EDE5B4",
"zX c #E9E4BA",
"xX c #F3EBB3",
"cX c #F5EEBB",
"vX c #F4E6B3",
"bX c #F9F4B4",
"nX c #F6EFC7",
"mX c #DAD4C2",
/* pixels */
"G.xX=XXX{.XX2X:XjXkXkXbX2XP.uXaXiX@X@X6X,X5X5XoX6XjX#X4X0X0XbXlX'.fXiXiX!.*X7X%XfX5XV G [ #.,XaXjX>X<X9X/.`.].1XkXjXL.7XoXg.g.XX",
"` m. X|.$X$X9 X h $X$XqX$XQ.;X;X}. XoX;X3X;X;X;X0X1Xg.m.n.s.m.@X0.K..X%X3XXX=XOXOXOX X%Xh.r.).>X2X2X,XfXaXaX<X-XjX[.p.5.l.5.k.0X",
"S 6.s.7.x.6 < z V c.|.qX@X0.s.OXc.XX X@XXX;X.XoX0X@Xg.x. Xn.}.XX0.;X=X.XOXoXoX}.I.9.p.%Xg.H.0.   .-X).-X>XtX1X<X<XQ.n.5.5.5.j.&X",
"_ x.x.n.c.6 5 @X$X$X).+XM.X.<.2.< }.~.;X;X6X;X(.%XXXf.XX#XXX|.=X&..X X=X.XOXOXd., # h 6X(.H.6 H.# ; -X[._.:X1X8X1X`.1.5.5.l.j.qX",
") v.a.x.x.+X$.v.$X9X#._ )  .*X[.l @ 8.XXXXXX*XXX;X~.e.$X X:X@X2Xq..X.XOXOXOX}.h.9..X.X6X-Xr.).>X!.q.2X2X].-X:X2XaX/.h.4.7.j.h.+X",
"_ i.M.|.x.6.x.c.^.6 o ] B.=./.(.d.1.j #.&.*.&.%.K.)...d.y.g.~./.q.OX7XOXOXL.}..X| g..X3X2XG..  ./.(.].].!.v.).!.!.r.g.i.5.p.k.&X",
") x.x.a.c.x.m.x.x.6 h :XqXtX3X9X+X+X0X~.c.4XjXjXjX6X$X(.~.).8XaX&.L.L.OX}.OXOXOXOX=X.X6X'., 6 @X1X).!.*.-.*.*.r./.=.w.*.%.%.8.#.",
"_ 4.V.x.x.4.x.x.s.C # ' ' $ $ $ q.XX5X-X+X X#X$X@X4X-XXX#XqX0XaX&..X.XOXOX}.k.OXOXoXXX5X0.,   S ~.x.M.^.<XaX2X:X8XjX-X:X8X5XjX5X",
"A 6.v.a.x.x.3.x.x.x.v.& $ & $ $ $ $ ] ~.~.|.|.+X$X:X;X^.^.m.+X$X=..X.X}.L.OX}.OXOXoX=X6X(.g..   > O $ u y.,X>X~.).5X1X-X,X*X;X0X",
"A 3.6.V.7.x.4.6.x.c.+XqX-Xg $ $ $ $ u f.XX-XXXoX$Xc.m.m.6.6.6.b.V 9.OXoX.XOX7XOX.XOX,X7X(.|.n.b.b.7.N.l $ (.-X-X).XX;X-X1X,X,XkX",
"A u.x.x.6.4.6.6.6.x.M.^.w.g $ $ $ $ $ - g j :X@XoX-Xc.|.x.s.p.b...u h ,.}.OX=XoX=X*X=X.X3 #X XM.b.b.b.: 2.(.=XXX~.XX(.).;X5XaXbX",
") $.3.3.3.<.e.<.<.<.e.e.$ s w $ p r * v U U n  X4X:X|.XXc.n.N.N.,.d.F $ F q.=X*X.X.XL.7Xd.; ; p.b.2.$ $ ' q.|.XX|.@X>XXXXX<X:XkX",
"@.v.x.a.v.v.r.#.*.u.u.&.$ $ f w c x x b Q Q d l.:XXX:X;X|.m.c.+Xf.^.).e.$ > < G.G.q.0.I.0.g $ $ 2.g $ $ $ $ g OX).a.$X;X~.~.*XjX",
" .[.tX<XsXxX1X#X4XqX4X;XV $ r x c E ^ ^ / Q ( XX4X;XXXXX|.#X$X Xf.#X|.oXk >   9 >X*X.X6X1X4X$ $ g.h $ w x p p x :.).s.~.XX-X=X$X",
"} lXsXsXvXgXpXL.%X X#X.Xn.z h x Y Q / / / Q ( ;X0X5X;X#X^.@X^.+Xe.n.|.oX.XG >   q..Xd.g.g.s.k.@   ,X$ w x R Q Q Q b.c.i.|.XX-X>X",
"} lXxXlXzXzXpX<.N. X X XOXOXoXl.Y Q / ^ Q Q ( @X:X:X1X:XXX:X$X@Xd.c.}.@X3X4X#     L.OXOXXX(..X@    X* a I R ^ ^ ~ Q V.1.4.s.;XzX",
"{ lXlXyXxXcXeX2.j.n. XoX#XoX;X XN.! Q Q Q Q z.:X:X1X:X5X;X|.#X@Xf.|.}.XX3X1X#   > L..XL..X.X.X@   =X3XI Q Q / / ~ Q z.g.3.3.x.fX",
"A K.<XuXdXlXeX2.p.s. X#XXXoX3X;X;X XQ Q Q XX-X-X;X].@XXX@X@X@X).w.oXXXXX;X,X#     I.7X*X(.=X.X@   ;X;XI Q Q ~ Q Q |.XXXX!.f.c.m.",
") &.t.H.'.uXS.$.XXn.oX5XiX(.oX#X Xn.&Xn.Q.]._.XX,XH.r.t.y.y.!.!...8.!.K.K.h +     P..X7X=X,X,X@   =XgX%.x.V.>.>.>.*...*.$.*.y.-X",
"@X:X|.|.:XxXwXq.}.~.XX*X<X;XOX}.n.N. Xk.-X<X2X1XfX;X-XiX8X:X4XqX+X+X4XfX,.$       7X'.*X,X*X*X    iX9XK.^.XX)..X$Xu.e.|.m.4XjX0X",
"^.XX^.|.;XcXwX8.|.;X;X5X5X3X}.}.g.x.M.t.<.<.e.X.X.q.q.t r r r q $ $ 1.I.V @     I.>X=X*X*XI.$     ;X,X~. Xg. X}.M.x.|.^.|.$X#X4X",
"c.@X+X2X@X+X{.*.XX5X;XoX;X@X|.}.}..X,X#.$.2.= x x x x x c x x x x = $ $ $ >     @ (.*XyX| $     % *X,XI.s.5.i.s. Xe.v.$X#Xc.v.m.",
"x.x.c.m.^.qX_.0.XX;X3X;X;XXXOXOX;X;XjXI.X.- w w y d Y R Q Q x x x x t $ @   > - p * ,.,Xl @   , I.,X>XP.h.i.g.}.#Xe.v.c.+Xc.c.n.",
"+X|.@X|.@X0X).@.g.|.;X;X,XoX3XoXoX|.$ $ = = = $ $ $ Q Q Q Q x x x x $ $ +   % x x x s $ >   % q.*X5X>XL.g.a.}.~.oXt.c.+Xm.@Xc.c.",
"^.XX$X@X$X0X].)  . . .=.G.*.@. .D * * s x x d y $ $ i Q Q Q d x x w a a q # $ q p x s $ + @ J./.P.=X'.P.,XOX.XL.}.&.6.m.m.+X|.c.",
"$X^.@XXXn.M.$X^.bXfX<XfXaX(.1XK.$ q v Q Q Q b x w $ = R R v x x x * x x e O $ $ $ $ $ O   = 1 { { o.G.O.G.0...&.0.) 6.x.n.x.$X^.",
"4X:X$X|.b.:X_./.,X>X>X>XhX*X2Xf.$ f v Q Q Q E d w $ s x x x x x x * x p o W X $ o > X O e x $ 1 d.oXtX'.(..XP.(.uX .4.i.x.|.@X^.",
"%X$X$Xm.x.b.c.G.>X>X(.(.jXH.,X' $ s x v Y Y U s = @ x x x x x x x * t w @ + + $ X P + & i x p T i :.OX'.[.XXoXiXnX;.n.x.$X|.8XH.",
"|.c.c.x.x.+X/.Q.*X*X*X(.=X!.;X$ $ $ x x w $ $ $ o   * d x x x x c * $ $ $ $ # o $ $ , x x x f i Q : j..X5X=X XiXsX-.x.{.c.@X2X:X",
"XXv.a.a.a.qX/.J.`.*X*X>X,X!.$ & $ @ + o o + + X     + w x x d q $ $ $ 7 P * $ $ $ + g x x x w * a x g 9.k.s.g.OX@X=.|.^.$X-X:X:X",
"y.u.x.{.2XhXG.Q.`.*X`.*X6XK.$ r v * $ >         X   > w x x x p $ $ $ # o W ~ P # X f t $ $ # $ t x h }.L.OXL.}.$X*.^.2X@X].^.@X",
"..@. .{ { ].G.G.J.J.t.t.0.g * I Q : $ @     X @ # X > w x x x x s p $ + o @ O & > > $ $ $ + X O $ q 6 OXn.OXXX}.4X&.*.@. . .v. .",
"!.jX8X8X4X1X@X#X|.3.~.|.e.g * b E v $ @     $ $ $ o > # y x x x x x f = $ o X + $ $ $ # o           6  XOX.X=X=X6X/.!.(./.t.8X-.",
"e.9X2X$X:X:X@X$XaXxXaXcXX.* s x Y v $ @     $ $ $ $ O   X * x x x x d p $ $ $ $ $ $ # >           O L.3X=X*X=X=X1XK.5X#XoX}.). .",
"w.@X$X^.|.c.x.8XcXlXhXnX| $ x x c x $ @   # $ @   + $ O X   O $ $ $ O $ $ $ $ $ $ $ +           > F =X*X=X=X>X5XfX!..X3X3X#X;Xo.",
"y.c.^.+Xc.n.^.c.<XhXtXeX- $ x x x * $ @   # # >     X $ $ >     > > > $ $ $ # X >               9.=X;X=X=X=X,X=X;XK..XoX%X#X$Xo.",
"w.+X2X^.v.3.v.].-X8X).F $ $ p x a * $ 9 m @ & + + +   X X   > + >                 +           # d.oXXX*XtX*X*X=X=Xy.;X#X XoXoXo.",
"w.|.@X@X!.8X8XxXdX^.~.$ $ $ * t $ $ & +.F $ $ $ $ $ #         o $ # # .   # & - # >         $ - d..X*X*X;X>X=X.X*X0.~.@X|.oX#X0.",
"8.hXhXaX-Xf.x.~.c.x.$ $ $ $ $ $ $ $ 6 !.y.2 $ O X # $ o @ $ @ O > >   @ +.y.y.d.+         + & ] =X-XI... .-.S.G.P.-.#.*.&.<.~...",
"$.x.|.c.[.aXgXsXxXdXk $ $ * = $ $ 9 hX).    # # +   O > X X > + 3 -X}.oXK.K.~.d.+ >     @ $ h  X7X%XjX|.L.}.3X%X4X9X+XM.M.n.N.@.",
";.v.v.{.<XuXbXxXbXcXdX$ y d d y $ V G l o       > > > # $ $ 6 P.#.XXXXXX).~.XXd.# $ # # # $ n.%X$X@XfXK..X).K.s.}. Xf.s.s.x.M. .",
"=.<X2X[.aXtXaXhXxXgX8X& y d x a * & > O & $ X               6 '.@.~.}.XX=XXXXXL.h $ $ # $ $ OXXX#X X&X/.>XtX`.d.s.N.p.p.6.p.M. .",
"S.bXdXaXlXjXxXdXuX@XM.& & f x x w $ >     # #               L.w...e.c.~.K.|.XX^.' $ $ $ $ g.%XoXn.%XjXtX).lXpX^.1.4.j.s.4.p.N. .",
"o.uXdXdXdXdXuXH.u.<.<.V $ $ x x x *         $ X         @ $ d.8. .3.i.d.e.c.K.y.F $ $ $ k d.~. Xg.n.1X[.gXcXyX*X5.1.p.7.a.s.M.#.",
"..<XzXpXuXlXeXv.'.'._.f.$ $ * x x x #       $ @         O > > # $ s.s.x.s.f.0.&.t.g $ $ G.P.g.~.g.e.>X'.tXvXcX.X2.1.d.2.2.2.b.e.",
"4.|.:X5X:X0XxXdXlXlX`.x.n.2 * x x x $ o     $ @       > # >       o + l :. Xs.iXjXj * t = #X X+X%X5X(.*.uXyXyXtXf.a.8X*XtX-Xs.<.",
"e.;X$X9X;X9X2X_.`.[.~.3.4.V $ w s * $ @     X @       + $ >             + # $.5.j.g.* d r I.i.i.p. XoX0.uXtXyXyX,X|.tX>X>X).s.` ",
"1.$X:X:X2X9X2X).(.!.e.5.<.5.$ $ $ $ $ +     X # >     o @                   o u i.g.$ w x * ' ~.K.XX;X=..XU.U.'.gX-XaXsXlXsXM.` ",
"1.@X;X8X9X0X-X`.`.!.3.1.1.<.$ $ $ $ $ O     B V V V V V 4 ,                   > # q.k q s x q F /..X=XJ J J J U.cXvXxXxXuXsX=X` ",
"3.;XXXXXXXXXg./.'.y.i.d.3.e.$ $ $ $ $ $ # # D }.;X(.).,X>Xu O                   > $ .XH L L L H J J J J Z.Y.Y.P.uXvXyXyX*X,XaX .",
"[ H.!.w.e.x.` X.K.>XK.g.r.c.$ w w w $ $ $ q 4 G.K.u.r.&.G.0.F B > 8 8 8 8 8 J J J J J J L J J J A.A.Z.R.T.T.T.U.P.P.S.G.#...8.` ",
").hXvX2Xn.&X#.o $ 1 ; ; ; ~.= x x x s $ $ s n 5X:X[.'.[.oX,.A.K L J J J J J J J J J J J J J C.R.R.T.T.T.M Y.T.P.6X5XeX(.tXsXyXuX",
"lXvXpXyX;X4XwXO.X.4 + + + + $ t r r y $ $ Z ,.J J J J J J J J J J J J J J J J J J J Z.Z.D.T.T.T.T.T.D.H 3 D.D.] +XOXOXXXn.;XgX5X",
"yXyXvXvX>X5XeX=.!.).~.f.~.d.3.$ $ $ $ $ $ Z.R.D.J J J J K J J J J J T.T.T.T.T.T.R.T.T.T.T.T.T.T.T.T.1 K & & $ ] M.g.!.;X.Xg..XiX",
"OX=XvXpXvXiXwXG.(.).`.K.c.] $ $ $ $ > % O $ T.T.T.T.T.T.T.T.T.T.T.T.T.T.J D.T.T.R.H T.T.T.Z R.R.K M $ $ $ $ h 3.j.j..XiX5X,X=XOX",
"XXL.5XvXcXnXmX0.`.-X*X).!.u $ $ $ > > % u & T.D.Y.T.T.Y.E.F.T.Y.Z.R.T.K 1 Y.R.F.F.1 1 T.D.1 Z.H $ $ $ $ j V >Xh.5.1.i.OXOXoX;XiX",
"fXL.OX,XpXnXpXo.0.G.r.r.F $ $ $ + X > l u.@.T.K K T.T.D.D.Z.M +.$ D.j Z D.T.F.M M $ C.j 1 $ # N N $ 2 S.uXuXP.$.2.[ 2.5.j.n.7X=X",
"iXaX=XOXyXnXnX.X:X8X,X;X| $ $ # X   < ] Q.J.K j C.C.A.R.Z.E.K $ $ $ $ j j # $ $ $ $ $ $ * m V V +. .%.G.G.S.=.&.-.S 4.5.4.j.}.XX",
"3X.X=X}.oXnXwXd.|.OXoX9.; $ $ @     h 5X#X9X5X$ # $ 1 o.& 1 $ $ $ > > + $ ].U.L.i.d.3.$XfX,XjX9XfXhXfXjXxXfXjXkXxXS.2.5.j.5.j.OX",
"k.;X,X7X=XfX'.L.}.}.OX] $ $ #     | |.@X@X-X;X@X6XXX8.|.@X,X$X$ @ > > $ F aXJ.g.~.XXi.x.+XK.#X].).-X:X8X<X1X<X8XhXQ.$.4.5.5.j.n.",
"k.OX5X,X5X6Xf.d.g.L.}.$ $ >     9.oXXX#XXXoXXX^.#X(.8.~.|.@X$X# o   $ & `.dXG.e.(.~.3.x.XXH.1X:X*X@X-XfX1X<X-X,XjXQ.<.5.5.5.s.k.",
"}.}.oX=X6X6XK.g.oX.X$ $ $ >     9..X}.}.;XOX;X|.%X2Xu.^.@X].          + $ $ ..].>X).p.x.+Xu.-X<X*X-X].:X<X8X2X>XdX_.,.p.j.p.p.k.",
"g.i.g.d.=X<X8.d.XX.Xu $ $ $         6 g.OX;X-XXX0X2X*.!.Q.!.5 .         . . > & G.-Xs.s.p.y.<XaX2X2X-X1X[.<X8X<X8X_...1.k.g.g.g.",
"D 0 0 0 0 %.....=.q.&.q.O.U.>X[.*X!.K.~.XXoX=XXXqX8X!.].{.v.*.;. . .} 0 0 ;.{  .o.=.[ #.$.u.XX-X_.<XaX<X<X8XaXfXaX_.0 C B 0 D ) "
};
