/* XPM */
static char *result[] = {
/* columns rows colors chars-per-pixel */
"64 64 230 2 ",
"   c #3C1F23",
".  c #6C1E12",
"X  c #422627",
"o  c #583D35",
"O  c #5D453A",
"+  c #61463C",
"@  c #68523D",
"#  c #695642",
"$  c #755946",
"%  c #755948",
"&  c #654A40",
"*  c #776549",
"=  c #84402A",
"-  c #816C4C",
";  c #8C774E",
":  c #8D6F54",
">  c #8D7B5B",
",  c #887656",
"<  c #937A55",
"1  c #917F63",
"2  c #AB7278",
"3  c #A3676B",
"4  c #95845D",
"5  c #9A855D",
"6  c #9D8958",
"7  c #9B854F",
"8  c #A38C5D",
"9  c #A48B56",
"0  c #A9935D",
"q  c #BD9D5F",
"w  c #8D8265",
"e  c #998660",
"r  c #998A66",
"t  c #A38C66",
"y  c #A49264",
"u  c #A99464",
"i  c #AC9967",
"p  c #A6936B",
"a  c #AC9B6C",
"s  c #AA976D",
"d  c #B39C66",
"f  c #BB9D62",
"g  c #B49D6B",
"h  c #BE9465",
"j  c #A59873",
"k  c #AB9B72",
"l  c #A39572",
"z  c #B29E73",
"x  c #BCA264",
"c  c #B5A26D",
"v  c #BBA56D",
"b  c #BEA86D",
"n  c #B4A066",
"m  c #AEA075",
"M  c #B5A373",
"N  c #BBA674",
"B  c #BDAA74",
"V  c #B4A479",
"C  c #B9A57B",
"Z  c #BCAB7B",
"A  c #B7AA78",
"S  c #BEB17C",
"D  c #C29B73",
"F  c #C3A464",
"G  c #C7AA65",
"H  c #CBAC66",
"J  c #C2A66B",
"K  c #C5AB6A",
"L  c #CBAD6B",
"P  c #C8A664",
"I  c #D1AF6C",
"U  c #CDB16D",
"Y  c #CBB06B",
"T  c #D3B46C",
"R  c #DAB56C",
"E  c #D6B96E",
"W  c #DCBC6E",
"Q  c #D2B267",
"!  c #C3AC74",
"~  c #CBAD72",
"^  c #C2AE7B",
"/  c #C5A477",
"(  c #C6B275",
")  c #CCB374",
"_  c #C4B27C",
"`  c #CBB57B",
"'  c #CEB97C",
"]  c #CBB978",
"[  c #D3B573",
"{  c #D9B771",
"}  c #D6BA73",
"|  c #DBBC74",
" . c #D3B67A",
".. c #D4BC7C",
"X. c #DBBD7B",
"o. c #D1AF79",
"O. c #E1BD75",
"+. c #E2BF78",
"@. c #DCC176",
"#. c #D6C17C",
"$. c #DCC27D",
"%. c #DEC87E",
"&. c #E3C475",
"*. c #E2C57B",
"=. c #E4C97D",
"-. c #EACC7E",
";. c #E9C977",
":. c #F1D17E",
">. c #B89196",
",. c #BBAE81",
"<. c #B3AA83",
"1. c #BEB489",
"2. c #BFB387",
"3. c #BD9BA0",
"4. c #C2AC82",
"5. c #D1AC87",
"6. c #C5B483",
"7. c #CAB682",
"8. c #CDBB82",
"9. c #C4BA8B",
"0. c #CDBC8A",
"q. c #C7B883",
"w. c #D3BD83",
"e. c #DBBE82",
"r. c #D2BE8B",
"t. c #D3B389",
"y. c #CBBF92",
"u. c #D9BA92",
"i. c #CBB5B3",
"p. c #CBC08B",
"a. c #CFC186",
"s. c #D5C285",
"d. c #DCC483",
"f. c #DEC984",
"g. c #D4C38B",
"h. c #DCC58B",
"j. c #D6CB8E",
"k. c #DDCA8C",
"l. c #CEC392",
"z. c #D4C593",
"x. c #D6C992",
"c. c #DCCB93",
"v. c #D9CA98",
"b. c #DED193",
"n. c #DDD29C",
"m. c #D7D088",
"M. c #E3C584",
"N. c #E8C785",
"B. c #E4CB84",
"V. c #EACB84",
"C. c #E2C68A",
"Z. c #E3CC8B",
"A. c #EACD8B",
"S. c #E6D185",
"D. c #EBD185",
"F. c #E5D18C",
"G. c #EBD38C",
"H. c #ECD98D",
"J. c #E8D98A",
"K. c #F2D383",
"L. c #F2D58C",
"P. c #F4DC8D",
"I. c #F3D988",
"U. c #E3CD92",
"Y. c #E9CE92",
"T. c #E4CE99",
"R. c #F1CF93",
"E. c #E5D393",
"W. c #EAD493",
"Q. c #E6D995",
"!. c #ECDA94",
"~. c #E4D49A",
"^. c #EBD59A",
"/. c #E6DA9C",
"(. c #ECDB9B",
"). c #F1D593",
"_. c #F2DB94",
"`. c #F2DD9B",
"'. c #F4D898",
"]. c #F4E18E",
"[. c #EEE19C",
"{. c #EFE096",
"}. c #F4E295",
"|. c #F3E39C",
" X c #F9E49B",
".X c #F4EA9C",
"XX c #FAE79A",
"oX c #D5CBA3",
"OX c #DBCFA6",
"+X c #DCD2A3",
"@X c #DDD3AA",
"#X c #DFD9BB",
"$X c #E4D6A3",
"%X c #E6DAA4",
"&X c #EBDCA3",
"*X c #E4DCAA",
"=X c #EBDEAA",
"-X c #F2DEA2",
";X c #F1DFAC",
":X c #EADEB2",
">X c #E0D7B4",
",X c #EDE2A4",
"<X c #EDE3AC",
"1X c #E7E0AD",
"2X c #F3E4A3",
"3X c #F5E9A4",
"4X c #F8EBA4",
"5X c #F2E5AC",
"6X c #F4EAAB",
"7X c #F9EDAA",
"8X c #FAF2AB",
"9X c #F7F1AB",
"0X c #EDE5B3",
"qX c #EBE5BC",
"wX c #E6E0B3",
"eX c #F2E5B2",
"rX c #F3EBB3",
"tX c #F5EDBA",
"yX c #F9EBB3",
"uX c #F7F2B4",
"iX c #FBF3B4",
"pX c #F7F2B9",
"aX c #F8F3BD",
"sX c #FDF9B6",
"dX c #DAD4C2",
"fX c #EFE8C0",
"gX c #F9F2C1",
"hX c #F7F2C7",
"jX c #FAF6D2",
"kX c #F0E7C4",
/* pixels */
"7.yXY.C.h.Z.W.XX8X8X8XsXJ.0.=X&X-XG.Z._.^.-X`.A.`.4XG.P..X.X7X0Xz.,X-X-Xr.C.).'.-X'.;.K.F B E.3X6X/.(.`.g.b.b./.8X4Xe.R.A.+.e.C.",
"8 *.B.B.J.J.B.H.!.H.H.}.F.p.W.G.C.Z.N.^.).G.Y.!.`.`...B.*.| V.A.Z e.N.R.).Z.A.N.M.N.N.L.o.^ U.E.E.Q.E.2X,X&X~.E.6Xn.{ R R R O. X",
"< E @.W @.S.#.#.B.%.B.].F.! X.-.&.N.B.Z.Z.W.Z.A. XE.| $.V.*.M.Z._ ^.Y.C.N.Y.A.M.M.M.N.L.X.q.U.Q./.E.E.b.E.,X(./.Q.0.&.R R R O.P.",
"4 @.@.*.=.S.#.F.J.E.B.S.S.d L [ $.M.M.^.W.'.Y.C.G.N.X.B.G.A.B.E.N - : A.C.N.N.N.M.N.N.'.h.w.U./.(.E.E.~.j.^.(.|.2Xc.L R R R W P.",
"4 @.@.E @.S.S.S.F.|.J.-.D._ E.~.X.$.B.N.Z.B.t / W.f.) G.G.).F.g./ e.  N.N.N.M.M.M.M.N.`.E.q.c.Q.E.E.E.E.b.E.Q.Q.,Xr.I R O.R I K.",
"7 T ;.%.@.E @.@.f.!.G.%.-._ g.h.` ~ J N N N O M 8.k.i  ...X.d.g % $   M.N.e.M.M.A.e.M.W.E._ g.k.j.s.F.b.s.#.f.s.s.^ e.[ R O.+.L.",
"7 #.@.@.%.@.=.%.@.B.(.!.}.,X!._.L.K. Xf.$.W.> yX7X'.G.d.d.f.[.%Xs o.e.N.M.N.N.N.N.R.Z.).3Xk.k.E./.m.d.A A B Z _ g._ ( B N c / g ",
"7 U @.@.@.Q @.@.@.=.|.[.J.d.Z.Z.Z.F.`.E.S.V.  J F._.F.E.G.{.XX,Xz M.N.N.N.M.+.N.N.A.C.'.`.X.&.-.B.@.I.f./.,XQ.!.[.6XE.Q.`.2X7X'.",
"; @.E @.&.@.Q W @.@.J.}.Q.d.h.f.f.N.W.h.d.B.B.S.G.!.W.f.%.=.V.H./ C.C.M.M.N.M.C.N.N.R.'.h.*.| | &.@.;.@.s.W.E.h.f.`.&XW.W.c.^. X",
"* U E @.E @.U E W %.S.{.Q.B.B.h.} M.G.d.Z.Z.Z.A.L.#.=.=.} E W &.g N.N.A.N.N.R.N.C.C.^.'.k.B.&.&.&.W ;.Y h.k.E.W.Z.k.W.E.(.^.^.8X",
"4 #.@.#.E Q E } E @.=.{.s.) X.X.[ E V.( E.^.!.W.F.W.#.B.$.| E &.g e.N.C.N.N.R.A.C.Y.Y.-Xc.F.V.;.&.@.&.Q d.f.U.Z.f.Z.h.h.E.`.[.sX",
"4 n Y U Y Y ) K K G ] %.( 7.] w.U I &.! F.Z.F.H.!.!.B.V.$.*.;.*.g  .{ t. .e.W.t % % e.R.h.B.%.*.&.@.&.) U.e.B.E.d.G.~.Z.Z.Q.W.iX",
"c #.@.@.#.#.( c B ] _ 8.' 1.l.x.x F } d E.Z.A.H.).F.W.H.M.B.$.D...C.k.f.e...X z &     t.^ ' ..$.@.G Q c U.Z.$.B.h...!.W.d.d.Y.4X",
"y n.&XQ.0X6X(.G.}.P.}.!.P.}.)._.)._.P.! h.!.Z.k._.!.Z.A.B.H.H.-. .L.B.A.V._.Z.T.-XR.O '.`._.H.Q.G.B.E c 0.Z.d.| B.B.} d.Z.E.U.H.",
"w 0X<X<X0XeX:Xe.L.V.G.N.*.B.F.G.A.!.3X' Z.(.W.W.|.(.W.F.f.S.B.B.) *.N.A.C.W.Z.w.M.M. .X.X.X.X.M.&X(.W.Z g.Z.Z.h.$.*.$.} M.B.E.~.",
"w 0XrX0X0XtX>XJ ;.B.B.V.C.M.A.).!.G.9X8.b.2X^.G.!._.!.(.F.!.G.F. .$.C.G.).!.s.~  .M.N.M.N.h.C.M.+.A.!.S ~.h.Z.w.< X.d.U Q X.W.qX",
"r 0X0X=XeXpX@XK O.&.V.A.A.A.W.A.A.N.}.] g.Q.Q.W.W.(.!.`.W.S.G.F...B.f.Z.!.!.w.X.o.e.C.e.C.C.C.u.C.).'.C U.U.!.k.h.f.F...U T $.|.",
", ../.%X<XwX@XF | | N.L.U.A.).W.).B._.w.8.b.F.W.!.c.F.Z.F.A.F.k.~ A.Z.N.W.^.7.C.e.C.Y.C.C.Y.U.U.u.!.!.M Z.k.Z.W.c.Z.A.Z.w. .#.B.",
"e N ] w.g.*X,.J A.$.A.`.(.h.A.G.A.;.L.M.a.b.x.Z.Q.8._ _ ' ' s.s.a ~ s.w.w.Z.B C.Y.C.h.^.Y.^.^.R.U.W.2Xz e.g.` 8._ b c b c b ..E.",
"G.Q.B.B.(.yXoX! M.d.Z.U.(.^.N.M.*.*.:.X.b./.Q.(.2XH.^.2X/.{.P.}.G.S.).2X(.,Xs h.).T.C.U.^.U.Y.R.).-X-Xw.f.F.h.C.W. .) B.=.)..X4X",
"f.S.B.C.W.pXoX! B.!.W.`.`.).M.N.X.O.V.` K L ) ..w.Q.%XtX<X~.E E W -.G.6XpXqXk  .N.T.T.T.T.^.Y.u.C.^.(.e.V.X.N.*.=.| B.=.S.G.W._.",
"$.F.B.Q.F.K.j.B Z.(.Y.A.W.G.B.M.M.k.^.J x G L ..8.h.~.gX<X~.' T Q ;.[.uXaXqXj r.U.U.U.-XU.T.U.T.h.T.^...| T L   o [ #.J.H.@.#.;.",
"| $.%.=.B.].j.! N.W.!.'.T.B.N.M.W.!.5X` ) ! ` 7.h.x.l.rX2X<X/.k.Q @.W.,XrXqXl e.U.T.Y.  T.^.$X^.T.^.T.e.I {  .  A.` #.$.=.d.$.*.",
"S.B.Z.f.J.}.k.M d.N.Y.Y.!.A.W.W.A.V.  X ( _  .w.k.c.l.~./.o j.E.| E %.,XrXkXk t.T.C.C.^.% ^.&X^.U.U.& u.e.{ C.d.A.) %.B.S.S.%.$.",
"B.F.H.F.H.}.c.5 u y a Z 6.Z c u 4 8 $ $ a c N A 7.A ' W.0.C s.#.| &.T @.S.tX<.A _ 7.6.r.r.r.z.h.u.  & r.!.C.M.e.N.M E &.B.S.B.%.",
"F.f.F.A.*.:.H.k.rX3X^.2X,Xh.(.E.c.h.Z.Z.8.j.q.,.q.r ( 6Xc.  N $.P Q Q Y @.P. ..._ 5 1 k l p r r 1   ,.z 7.^ g N ^ 5 E @.&.*.F.f.",
"P.H.G.B.@.!.j.g.~.~.~.~.7XU.E.E._.|.(.3X2X[.[.3XsXg.) E.E.Q.' #.W } E } @.$.( | | X.N.`.~.A.N.M.e.A.-Xz.h.k.u.h.*Xy Q E %.B.F.f.",
"H.G.H.=.&.&.$.6.^.~.h.h.3X8.!.U.k.^.E.k.^.Q.A.G. XE.K E E U.gX..| d.#.F.f.E.' B...C.d.`.w. .V.o.R O.N.v.v.C.A.2XkXC =.$.D.B.{.' ",
"Z.$.*.@.@.D.z.0.U.T.Z.k.W.w.^.Q.E.Q.W.Q.Q.^.E.(.3Xk.] d.f.$.F.G.Z.f.k.Z.F./.a.d.h.d.k.&Xz. .C.X.L R { N.`.A.V.-X1XV @.f.f.F.Q.^.",
"A.#.} E | H.g.q.c.U.T.T.W.h.`.!.E.^.E.E.E.F.W.(.3XF.8.f.Z.B.Z.J.Q.F.f.$.B.f.] f.f.U.E.-Xh.e.Y.N.e.X.X.~ O.X.X.N.F.S B.B.F.J.!.!.",
"' ] $.m.Q.3Xq.p.c.c.c.U.^.s.W.(.W.E.E.,X[.U.!._.`.k._ k.k.s.d.B.....] K K | x B.^.U.Z.U.` ) M.M.X.X.V.M.d.C.X.C.G.b f.Q.F.k.f.B.",
"i c y r y x.6.6.0.` 7.` ! 8.E.E.Q.|.k.E.`.Q.U.^.4Xb.a a.S A S _ c a i 6 y K c 7.` w.C.U.^ ~ X.+.X.{ M.N.M.N.N.B.!.N A c i i a.a ",
"s.4X|.[.}._.F.G.B.U s.f.[ 8.^.!.E.`.!.k.!.(.E.^.6X[.w.Q.{.!.E.[.Q.[.`.^.E.^.~./.Q.W.$X$Xz  .M.X.A.+.e.A.M.C.Y.Y.`.r.s.h.s.` (.A ",
") .XE.G.!.Q.G.F.<XrX,XaX' 8.F.E.c.E.!.F.^.3XE.!.(.s.d.k.d.B.F.f.` (.W.`.2X,XE.^.(.(.2XrX,.) $.N.A.C.C.).Y.Y.Y.Y.|.w.`.Y.A.C.f.l ",
"( F.J.d.B.%.%.[.pXrX5XgX+X8.|.(.Q.E.W.`.Q.`.Q.(..Xw.f.f.B.f.B.j.Z k.U.E.&X~.~.k.~.U.^.2X6...M.C.A.).C.U.Y.Y.Y.`.-Xh.C.L.L.G.W.s ",
"' #.B.B.$.%.=.#.Q.<X,XrX1X_ E.[.(.W.E.F.k.!.W.F.|.' s.d.A.F.B.j._ k.U.k.U.^.^.E.~.U.Z.3X6. .M.d.M.Y.W.Y.U.Y.^.Y.W.w.f.A.L.G.!.k ",
"( B.Q.B.#.U #.c.~.[.k.G.S.S s.Z.W._.^.~.(.f.|.`.XX] f.f.#.d.B.j._ h.f.U.E.E.W.W.~.E.g.(.r.^ V.C.C.A.C.U.,XU.Y.Y.W.` W.A.N.G.A.s ",
"] k.S.F.d./.,X6X<Xf.f.D.J.A a.s.d.d.Z.8.' ] #.k.!.g w.d.d.d.B.s.` U.!.U.h.Z.C.W.E.k.Z.Q._ J X.C.C.C.Z.U.^.T.U.U.T.^ d.G.N.G.W.Z ",
"( ,X6X,XE.#.#.%.#.#.Z.f.S.S.H.B.!.H.!.s.s.s.j.#.=.h.` ..#.f.F.p.q.h.Z.W.f.Z.Z.Z.d.d.f.!.Z.d.A.A.W.T.w.g p V Z 6.r.N c N b K d.g ",
"n $.B.=.E.%X6X1XuX<X5XaX$X#.#.s.S.b.6X.X|._.D.B.| ;.S.{.<X%X3Xj.` U.C.Y.w.w.f.Z.^.U.C.!.Z.V.L.L.G.L.6XN.e.M._.)._.|.D.-.V.=.;.c ",
"n s.%.k.E.%XuXuXuXpX0XuX/.Q.f.%.Q.!.[.F.s.d.k.f...L T E Z.%XtXz.g Z.N.Z.Z.h.k.Z.Z.U...Z.s.B.N.H.G.A.3Xw.C.k...X.M.B...X.W | -.i ",
"Z /.Q./.,X%X,XrX6X<X,X,XZ.F.F.f.F.|.[.Z.k.Z.k.E.f.f. .) [ X.J.l.c d.f.Z.Z.Z.Z.Z.Z.Z.d.B. .V.N.Z.G.V.I.s.~.%Xc. .| ;.[ E R | -.u ",
"9.uX<X%X0X6X<X1X%XE.-.G.#.m.B.B.G.F.H.s.' h.h.X.#.A.Z.f.f.[ #.] d ) d.d.X.B.Z.f.d.W.Z.A.b *.L.A.&.).4X=Xk.0X=Xh.L Q *.O.T } =.u ",
"l %X0X1X<X1X,Xs.] K Y @.( ' Z.%.%.B.E.! a.d.d.....M.] $.d.d.Q.k.d ) U  .] e.w.' w.` ` w.M  .+.A.X.*.(.n.5XtX<XZ.R H { { | | V.v ",
"f /.qXwX%X1Xn.a.z.z.z.m.@.) d.s...f.E.B s.Z.w.#.#.$.#.( $...B.,Xb ..$.X.} ..^ N ( s.OXOXv.s...d... .~.z.=XrXtXc.H H  .H F P &.) ",
" .B.!.(.!.4XuX,XrXeXE.*.V.(.rX5XQ.Q.3XM  .F.k.d...d.h. .Z.E.c.(.w.K.*.| -.-.| -X2X2X-XtX=XW.V.K.L._.h.B $X-X=X&X .} &XU.&XU.| L ",
"U W.H.`.^..XE.j.v.v.d.Q Q E.<XpX=X1XhX,. .B.d...A.s.F.h.k.Z.2Xc.8.X.X.[ T X.x R +.+.C.C.T.w. .[ | B.A._ %X=X*X=X~.V.%X^.$Xh.| 9 ",
"U G.!._.E.|.Q.k.k.w.] [ G E d.^.&X=XhX2.' #.d.d.s.s.Z.U.U.c./.+X` X...[ [ [ K  .X.X. .X.U.W.d.e.w.A.W.Z f.U.5X=X<XE.,X<X0X2XB.8 ",
"L G.Z.[.|..XZ.v.U.h.L L L G L $.d.Z.gX6.' Z.B.N.d.s.k.!.~.~.Q.n.~ T X.| Q  .K X.N.d.X.e.d.C.W.Y.h.Z.!.^ w.X.-XeX5X5XyXrX*X=XE.8 ",
"L !.Z.Z.A.V...g.c.` } ) Y [ ) ) ] X._.Z ( d.#.f.E.h.k.E.~./.,Xv.J F Q E  .X.~ ..h.C.U.d.d.A.Z.Z.Z.X.N.c k.e.&.~.$X<X=X%XU.^.-Xu ",
"0 8.s.( ( $.0 B ~.n.w.X.` ..d.k.U.U.(._ c b ! _ w.` ^ N _ _ j.2.y 0 x x q q d d.C.U.U.U.h.C.U...*.M.V.d s.k.` [ g.l.9.6.b g ~ 8 ",
"Z.6XeX/.&.P.v ! ..B.h. .z.f.h.Z.E.Z.2XN.F.}.W.).Q.n.k.n.f.H.3X3XF.$.$.} } } y h.^.U.^.'.'.W.h.Z.e.#.K.W.#.B.G.V._.(.OXh.$X0X=X$X",
"eXeX:X:XW.P.oXN d.h.Q.^.c.w.d.h.d.G.N.] | X.$.%.K.G.f.m.H.G.%.@.D.J.D.H.J..Xa 8.Z.W.k.C.h.).Y.Z.N.d.N...~. .| *.D.*.Z.N.*.W.5X`.",
";XeXeXeX~.[.OXZ s.k.d...d.[ ) U T | [ x } E T T @.B.#.%.%.*.B.#.=.B.B.J.F.}.k c.T.Y.Y.C.C.A.Y.Z.Z.C.A.z.&XT.{ | K.X.h.Y.C.e.N.-X",
"N.A.=X:XeX-XoX4.h.k.E.8...d.X.L H #...x d.$.) } =.-.d.S.%.%.J.f.S.!.J.Z.Q.2Xk c.^.E.^.U.U.U.`.U.U.h.V.h.=X<XC.L R O.U.`.`.^.Y.C.",
"h.M.-XeXtXjXdX^ U.E.c.d.h.' ....L Y $.b d.B.B.#.$.J...S.S.S.G.Q.k.!.Q.Q.|.7X,.w.~.T.^.T.U.Y.^.Y.Y.Z.Z.T.rXeX~.Q R L [ N.N.Y.R.`.",
"-Xe.M.-X*XjX#Xz ^ 7._ _ 7.N v a 8 d K u ] N w.' S #.( S.S.F.F.{.!.F.J.Q.Q.4XS M ^ ^ ,.6.^ ^ ^ ^ 7.7.^ 4.*X@Xs.x F d F R O.N.R.Y.",
"-X-XY.N.&XhXkXC.Q.(.W.Y.b.^ ` 7.z g %.L s.9./ z M 5 ( S.J.f.S.G.[.3XQ.Q.[.4Xk.8.! i 5 ,.6.4.C V s p V 6.6.4.Z C A < T { Q +.B.C.",
").C.Y.e.N.hXOX .B.C.A.e.XX5XtXiXyX,X*.`.F..X3X4X}.=.B $.B.F.H.m.m.F.3Xb.!./.s #. .} L H.4X`.2X2X2X7X3X7XuX3X4X8XrX1.F R O.R O.N.",
"O.).^.^.R.-Xz.u.C.M.X.C._.u.^.Z.(.A.B.A.Z.Y.Y.A._.f.K f.J.!.!.E.Q.!.[.[.[.,X* ..#.Z.[ &.A.w.G.Z.Z.E.Q.|./././.[.6Xp.q R R R O.*.",
"X.A.'.t.2 2 >.3.3.3.3.3.3.r.h.w.M.V.A.F.A.A.N.M.D.k.~ d.B.S.J.[.F.k.!.2X3X1XS ] h.f.Y X.A.8.`.(.c.F.E.2X,X/.E./.2X0.P { R { { +.",
"e.N.A.Y.'.`./ / 5.2 2 2 2 2 2 2 3.i.h.B.G.C.W.M.P.E.( j.J.E.(.Q.3Xb.!.Q.b.[.* b.~.Z.| | S.( ~.Q.E.F.E.Q.^./.E.~.<Xz.F R O.{ { +.",
"|  .e.X.Z.Q.! ` N.C.h.t.u.4.5.u.t.2 3 . =  .I ~ w._ u M M c M _ S Z Z S A 7.O N 4.^ f F f g 7.0.6.7.6.7.6.7.0./.,Xx.d [ O.X.X. .",
"; * * $ - V g g / C / _ / v.5X=X-XW.E.N.C.Y.D D J N p a u r 5 5 > > * # # w , , 1 1 ; < < e s k s z V z z V C C A p @ * - * ; 8 "
};
