/* XPM */
static char *result[] = {
/* columns rows colors chars-per-pixel */
"64 64 243 2 ",
"   c #3F102A",
".  c #381237",
"X  c #2E1137",
"o  c #43132B",
"O  c #4D1A2D",
"+  c #49172D",
"@  c #511E2E",
"#  c #491D34",
"$  c #511D32",
"%  c #55212F",
"&  c #542333",
"*  c #5B2533",
"=  c #582938",
"-  c #4F2033",
";  c #652C39",
":  c #6E313D",
">  c #64343B",
",  c #73383F",
"<  c #13134F",
"1  c #1B154B",
"2  c #181858",
"3  c #261646",
"4  c #341849",
"5  c #291756",
"6  c #19215E",
"7  c #342853",
"8  c #291B6C",
"9  c #251966",
"0  c #1C2665",
"q  c #1E3870",
"w  c #272974",
"e  c #27367A",
"r  c #30346C",
"t  c #483352",
"y  c #713440",
"u  c #7A3B43",
"i  c #663844",
"p  c #314576",
"a  c #5A4A58",
"s  c #5B444F",
"d  c #6D4E51",
"f  c #77674A",
"g  c #4B4C6A",
"h  c #635C6A",
"j  c #71686E",
"k  c #884649",
"l  c #944E4E",
"z  c #9E5652",
"x  c #9A5C53",
"c  c #90524D",
"v  c #A25B54",
"b  c #8B7154",
"n  c #A86658",
"m  c #B3785D",
"M  c #A9755A",
"N  c #857973",
"B  c #957D6A",
"V  c #B97C61",
"C  c #9A8659",
"Z  c #A9915D",
"A  c #988767",
"S  c #958872",
"D  c #BC8563",
"F  c #A89668",
"G  c #B49B67",
"H  c #A89875",
"J  c #AC956B",
"K  c #B9A46B",
"L  c #B6A373",
"P  c #BDAA74",
"I  c #BDAB7B",
"U  c #B9A577",
"Y  c #B5A979",
"T  c #C48B66",
"R  c #CA916A",
"E  c #CA9B68",
"W  c #D09D6B",
"Q  c #CBAD6A",
"!  c #C5A867",
"~  c #CDB16D",
"^  c #CBB06B",
"/  c #D3B46C",
"(  c #DAB46D",
")  c #D9BA6E",
"_  c #C2AC75",
"`  c #C2AD7B",
"'  c #C7AC72",
"]  c #CDB474",
"[  c #C4B27C",
"{  c #CCB67C",
"}  c #CAB679",
"|  c #D3B573",
" . c #D6BA73",
".. c #DBBD73",
"X. c #D4BC7C",
"o. c #DBBD7B",
"O. c #D5B778",
"+. c #D4AB6E",
"@. c #E2BD75",
"#. c #DCC176",
"$. c #DCC27C",
"%. c #D6C17C",
"&. c #E3C474",
"*. c #E2C47B",
"=. c #E4CA7D",
"-. c #E8CA7B",
";. c #F1D17E",
":. c #293E84",
">. c #283B81",
",. c #303B8B",
"<. c #2A4185",
"1. c #2C448B",
"2. c #2A4B89",
"3. c #354788",
"4. c #324D99",
"5. c #31529B",
"6. c #335798",
"7. c #2E5390",
"8. c #336996",
"9. c #365BA5",
"0. c #3961AC",
"q. c #3564A4",
"w. c #3877AB",
"e. c #3B66B2",
"r. c #3B6DB5",
"t. c #3B72B6",
"y. c #3B7BB9",
"u. c #3C77B7",
"i. c #43548D",
"p. c #4878B5",
"a. c #5E6D8F",
"s. c #3A8BBD",
"d. c #3985B8",
"f. c #3986B0",
"g. c #4C8FB3",
"h. c #6A91A6",
"j. c #4DA6BC",
"k. c #72ADB6",
"l. c #6DD0B5",
"z. c #5FC1B6",
"x. c #3B9AC4",
"c. c #3B94C2",
"v. c #3C8EC0",
"b. c #3FA0C7",
"n. c #4A94C4",
"m. c #48A9CA",
"M. c #4BB2CE",
"N. c #56B4C9",
"B. c #4DB6D1",
"V. c #54BCD4",
"C. c #57B5D2",
"Z. c #55A8C8",
"A. c #67B0C8",
"S. c #5BCCDB",
"D. c #58C6D7",
"F. c #64CDDB",
"G. c #67D1DB",
"H. c #76D3DB",
"J. c #70CDD2",
"K. c #77D8E1",
"L. c #7DE0E4",
"P. c #8C8F8E",
"I. c #A89A82",
"U. c #BAAB83",
"Y. c #BAB089",
"T. c #8B96A1",
"R. c #92ACAC",
"E. c #C4B383",
"W. c #CDBC83",
"Q. c #C8B786",
"!. c #D3BD83",
"~. c #D8BD85",
"^. c #C3B58B",
"/. c #AFD5B9",
"(. c #D5C285",
"). c #DCC483",
"_. c #DEC984",
"`. c #D5C38A",
"'. c #DCC58B",
"]. c #DDCA8C",
"[. c #D6CA8E",
"{. c #DCCC92",
"}. c #D7C996",
"|. c #DED196",
" X c #CDC48E",
".X c #E3C583",
"XX c #E4CB84",
"oX c #EACB84",
"OX c #E2C68A",
"+X c #E3CB8B",
"@X c #EACD8B",
"#X c #E8C686",
"$X c #E5D18C",
"%X c #EBD38C",
"&X c #EAD488",
"*X c #F3D78A",
"=X c #E3CE92",
"-X c #E8CF93",
";X c #E5D293",
":X c #EAD493",
">X c #ECDA94",
",X c #E4D399",
"<X c #ECD699",
"1X c #EBDB9B",
"2X c #E7D998",
"3X c #F3DB94",
"4X c #F2DC9B",
"5X c #F2D695",
"6X c #F1CF93",
"7X c #F3E29D",
"8X c #F7E599",
"9X c #F0E197",
"0X c #D7CCA4",
"qX c #D9D1A9",
"wX c #EBDDA3",
"eX c #E7DBA9",
"rX c #F2DEA4",
"tX c #E8DDB2",
"yX c #EEE2A9",
"uX c #F3E4A3",
"iX c #F5E9A9",
"pX c #EEE5B5",
"aX c #F4EAB6",
"sX c #FAF3B5",
"dX c #FAF2AB",
"fX c #8ADDD4",
"gX c #91CDCF",
"hX c #B6EECB",
"jX c #B9EDCE",
"kX c #A9E9D1",
"lX c #82DDE3",
"zX c #8CE9E8",
"xX c #88E6E6",
"cX c #9AE9E8",
"vX c #B3E6EC",
"bX c #92E0D1",
"nX c #D8DAC2",
"mX c #C9E8D5",
"MX c #F7F1C8",
"NX c #C5EAED",
"BX c #CDEBF0",
"VX c #D1E8E4",
"CX c #C3DBE0",
/* pixels */
"Q.aX-XOX(.$X2X8XdXdXdXdX2X X2XyXrX@X%X5X<XrX4X@X5XiX%X3X8XuXR.BX0XuXrXuX~.OX6X5X4X5X=.*XE K 2XuXiX2X1X7X X{.|.1XdXiX~.6X@X@.~.#X",
"Z *.=.XX>X&X_.9X9X&X&X8X&X X:X$X.X+X+X:X5X@X6X>X7X1Xo.=.@.O./.BX^..X@X6X,X@X6X#X#X#XoX*X] [ ].;X;X2X;XuX7XwX2X;XiX|.) ( ( ( @.8X",
"b / #...%.=.%.%.=.=._.9X$X_ ..=.*.@XOX-X+X>X+X@X8X$Xo.#.#X.XnXnX` <XT.cX,X@X@X)..X.X#X6XX.Q.;X1X2X;X=X|.2XwXwX2X2X X#.( ( ( @.*X",
"C #.#.&.=.&X%.$X&X$X_.&X&XG Q | o..X*.:X:X5X-XOX%X+X%.XX6X'.H.nXP .XT.cX=X#X#X#X.X#X#X5X'.!.{.1X1X2X;X;X].2X2X9X7X{.Q ( ( ( ( 8X",
"C %.#.#.#.=.=.&X$X9X$X=.&X} ;X,XX.*.+X+X+X+X=X+X:X'.} %X&X;Xp.R.` +XT.zX}.#X.X@.OXOX#X5X;X{ ].2X;X;X2X;X|.$X>X>XyX`.+.( ( @.+.;.",
"C  .-.&.#./ #.#._.9X>X$.-.I '.[.X.Q ! K P P L K !.}.G { X.t.n.h.P @XB zX}..X#X#X-Xh.OX6X;X[ [.{.[.(.$X|.(.%.[.(.(.[ o.| ( @.@.*X",
"C #.#.#.=.#.=.&.#.XX9X9X9XuX>X3X*XoX8X).$.3XiXdXdXrX%X).).m.D.a.L ~.T.H.Q.#X#X#X{.VX-X5XuX[.+X$X2X].(.I Y P P [ `.I ' P L L P K ",
"b ) #.&.#.^ #.#.#.=.7X9X$X).+X+X+X:X4X;XXXoX&X%X@X].].=XT.S.S.5.J .Xq.C.~..X@.#XzXVX#X<X4X#.*.=.XX#.*X$.2XyX2X>X9XdX;X2X7XuXiX5X",
"C ^ / #.&.#.^ #.#.#.&X9X2X_._._.).@X%X(.).XXXX@X%X`.Y.(.a.B.B.5.H H g.V.e XXX.s./.@X-X5X'.=.....&.&.-...`.:X<X(._.1X1X<X<X{.<X8X",
"f ^ #.#.) &.^ ) #.$.=.9X|.$X+X(. .XX%X).+X;X+X&X*XI A.] 9.x.D.5.7 0 M.D.e #Xi.e.^.+X<X5X'.XX&.&.#.&.&.^ (._.;X:X].+X,X;X<X<X<XdX",
"C ^ #.%./ / /  .) #.=.9X(.] ..%. ./ =.} +X2X>X:X$X0 N.< 5.m.V.9.0 e s.m.w Q.9.S.7.-X6XrX{.%X;.-.&.&.&.~ ).OX=X+X).+X'._.:X1X7XsX",
"C K ^ / ^ ^ ] Q ! ^ ] =.] E.} ~.~ ^ =.P ;X@X%X%XU.w N.f.e.D.x.e.e.e.e.e.4.4.m.m.2.B Q.:X[.=.$.&.&.) &.| =X).XX-X.X:X,X+X+X1X:XsX",
"L %.#.#.%.%.[ K P } [ { } Y. X{.K ! ( G $X%Xg 6 2 2.Z.S.y.c.c.S.S.S.S.S.S.t.v.x.M.D.8.2 S } ) #.#.Q ^ K {.+Xo.XX_.| >X:X).).;X8X",
"A |.wX2XyXaX1X%X3X3X8X5X3X9X3X3X%XE.2.p 2.7.Z.V.V.C.r.m.p.r.e.S.S.xXK.G.xXxXF.D.M.M.x.B.f.p h.Y.E.XX .G `.]._. .+X+X .).+X;X+X>X",
"A pXiXyXpXpXtX$.*XXX%XXX.X.X$XE.g f.D.lXL.xXvXBXBXvXp.p.s.r.Z.S.L.zXzXL.S.S.S.S.M.x.M.D.D.D.m.f.9.g :XP '.=X=X).$.*.%. ._.@X2X,X",
"A pXaXpXpXpXtXQ =.=.XX@X.XX.q 8.m.G.xXcXNXBXBXBXBXCXa.i.i.i.g.A.xXcXvXNXK.K.K.K.F.S.S.S.S.S.m.5.w < S Y =X+X+X'.(.o.*.~ ^ o.:XpX",
"A eXyXyXpXaXqX! @.@.oX@XN w V.D.xXcXvXBXBXBXBXBXa.d : : ; : ; y h vXBXBXBXBXBXBXvXcXvXcXJ.m.8.< 3 t ; ; ` @X:X=X'.).%XX.] / #.7X",
"f %.2XeXpXpXqXK ( ..#XH p.NXS.S.S.xXzXzXzXhXhXT.y * l v z z z : i d vXBXBXBXBXNXNXNXNXS.m.c.e < ; z T , A '.+X:X=X+X+XXX~.{ %.XX",
"A K %. X XeXY.! +X.X=X:.NXK.S.H.fXfXK.cXkXhXS u k $ n R V n k + , b gXBXmXjXmXfXgXfXS.M.x.:.3 % k m R R O '.{ !.` P G P K K X.$X",
"2X>X_.$.1XsX}.' .XX.g gXF.S.S.fXjXfXS.F.kXT.k  .R o m R R n o ; V z d jXjXjXhXhXjXF.M.x.6.< & l z ; ; ; * i '.+X>X] } oX=.>X8XdX",
"_.$XXX_.>XsX0XP XX;Xe lXS.S.S.jXhXbXS.S.zXh.n G t o s = s + + O M E , hXhXhXhXbXS.S.m.c.p 1 @ z , : x T m % @.@.=.%.=.XXoX%X>X3X",
"$.&XXX2X$X*X[.P $XI.r.S.S.K.K.kXhXG.S.S.xXh.x c r $ d o s k % o M m : jXbXhXhXbXS.D.x.v.0   $ z ; l m ( +.m d ..oX| %.&X&X$.#.-.",
"..#.$.=.XX3X[._ +Xw 1.n.V.K.cXzXS.S.S.S.G.h.M x r # l   k k # r n c i.S.S.G.kXkXA.x.c.>.< o @ @ k n &.&.&.W x o.%X| $.$.XX$.%.=.",
"XX+X$X_.&X8X[.K S e :.9.5.m.A.g.f.j.S.S.S.g.  u @ e i   ; 7 e t - g n.S.S.G.H.S.s.q.2.>.< o O ; l D D R E +.m @ +X] $.XXXX&X$.%.",
"XX&X%X$X%X8X].C 2 <.0.9.6.0.p.w <.y.x.S.D.m.:.    4 >.e p 2.t t 0.D.D.D.bXhXh.<.5.0.:.>.< . + : : z v v R R R - +XL / =.=.oXXX$.",
"$X_.$X$X=.;.&X`.0 q.y.G.p.p.w w 0.x.x.y.j.S.w.p.r t 9.p.g.S.n.n.S.S.J.gXR.k.<.q.e.u.y.2.2 X o O ; k k k c M y o ` C ) #.=.$.&XXX",
">X>X%XXX#.>X].N 3.H.K.zXzXg.8 w e.t.t.e.1.d.S.D.C.C.C.C.S.S.S.S.J.l.j.e.0.9.9.r.s.t.r.e.9 < X o O k k k E ! T M U.F +.) #.XX$X_.",
"*X*X&X=.&.&.%.N 1.zXK.x.x.4.8 8 8 0.e.c.7.2.p B.V.D.F.D.S.S.G.J.l.l.M.V.t.t.r.x.q.:.e.e.,.8 < .   o l ! ^ D V D . H *.%.&X_.2X%.",
"_.$.#.#.#.;.[.N e Z.x.x.y.w E.j 2 ,.e.y.x.m.g.g.y.d.g.j.l.l.l.l.l.S.S.D.M.M.m.M.q.:.1.e.,.8 2 < d 3 4 4 4 4 r r 3.<.I _._.$X9X;X",
"$X$.%.#.#.>X`.N 8 ,.e.t.r.S 1X1X=X< 0.5.v.x.D.z.x.w.<.4.p.p.s.m.d.r.v.x.x.D.S.V.5.:.:.<.w 8 9 < X.7 e 6.6.d.A.hXkXp.<.(.$X>X>X>X",
"{ ] %.[.|.yXW.h 0.>.4.p.w U.:X>X<X;XH e :.v.B.N.f.w.M.d.1.r.s.x.e.:.<.d.c.B.B.c.e.e.:.:.8 < B .Xo.S e e.u.B.zXhXhXcXw.p  X$X_._.",
"G L F C Z [.g 0 3.4.8 w 2 Q.;X:X2X7X}.H >.e.y.5.w.c.z.l.7.e.s.d.:.2.n.N.z.y.x.5.e.e.w 8 9 _ ~.@...| w e.H.xXzXhXkXzXD.t.a F (.F ",
"(.iXuX9X5XS 8 e 7.e.>.w < W.;X9X;X4X2X].j e 9.:.:.t.x.j.N.0.v.9.:.x.x.x.J.9.:.<.9.e 9 9 S { .Xo.oX~.g s.c.K.lXn.x.K.G.r.9 U 1XU ",
"} 8X$X%X>Xd 4 3.x.v.5.1.8 H ;X;X{.;X5X$X1X Xr 0 e 5.s.x.w.1.9.0.9.y.y.y.v.:.:.0 2 5 ^.0XU.} o.@X@X#X'.r 1.w.g.r.v.K.H.r.9 !.+XH ",
"} $X;X_..XO : $ o   e.4.8 S 9XwX2X$X:X4X1X7X1X>Xh < < >.:.:.<.2.e.:.:.:.:.:.0 r ;X,X<XiX[ X.$..X@X:X=X+X< < 6.8 n.zXH.e.9 .X>XH ",
"} $.XXXXo * k z z z $ t 5 Y $XwX2X<X;X$X+X>X;X;X7X{ s 7 3 w e <.:.w q 0 1 3 X 2X;X=X].uXQ.X..X)..X@X<X-X-XI.0 8 5 y u i 5 L >XJ ",
"} XX;XF @ ; v T V k y *   I [.$X%X1X<X;X2X].9X4X7X_ y : @ # 5 2 2 1   .       B ,X;X'.1XW.' #XOXOX-X+X=XrX=X1 . z T R v ; + oXJ ",
"} _.@Xb ; k n R R k : + &XP %.(.)._.].(.%.} %._.2X# % ; + o % % % @   o       > =X+X_.2X[ ' ~.#XOXOX+X-X-X,Xo y m -.R n : * b E.",
"] uXyXO ; k R R n u $ B $X_.%X$X>X>X>X(.(.(.[.o.L p 3 = % O o @ O o + % 4 5 .   d XX).>X+X).%X@X:X,X!.J F U $ z m &.( n y * ; J ",
"G #.$.O u v R R z y $ }.2X%.%.%._.$XiX7X9X3X&X=.g 0.6.3 % & o       O   e 6.6.    = +X>X+XoX@X*X%X*XiX#X~..X$ l m &.( n y * O G ",
"G (.  + = , , z y ; = sXwX;X_.$.9X9X9X|.(.).'._.a y.q.0   % + o     O 6 9.e.e.5.8 = %.XX~.XXXX%X%X$XuX~.OXOX$ l n &.+.z , * @ Z ",
"I I.p 2.f.j.o @ + & = yXXX{.$X_.$X9X7X$X].$X].`.g.c.r.1.. + &     o % 6 y.v.e.9.e = ).XX!.XXXX@X%XoX*X`.,XwX$ u n E D v : * @ C ",
"^.P.q.m.S.D.V.e.X   =.*X%.{._.$X%X$X>X(.!.).(.` j.x.r.1.. O *     % 3 q.m.c.u.e.>.7 +X@X! *.@X6X*.*XiXwX'.pX$ , k n x , : * @ C ",
"H g q.D.g.j.D.9.2 f Q ..^ { $X%.$._.$XP !.(.~.P Z.x.t.1.. O * +   - r y.D.x.y.6.>.7 { (.L O.*.oXo.=.1X|.aXaX+ $ i.p 7 % $ + $ G ",
"K <.s.r.1.h.V.q 9 I.}.@X#.] (.).} _.$XP (.+X!.U j.D.t.5.. * : O   # 7.x.S.x.w.s.,.5 qXqX}.'.O.~.X.| ,X}.eXg p x.x.x.V.t.:.4 o Q ",
"^ <.f.e 9 p.A.e 2 P.-X*.oX1XaXiX2X9XiXY X.+X+X!.i.m.d.6.. * : @   6 r.M.m.y.d.e.w U.uXaXeX%XoX*X*X5X'.I 2 9.t.c.m.S.S.B.t.<.h ~ ",
"~ j q.e.< 2 2 < 9 2 ).~ / ;XyXaXyXyXMXI X.).).%.g x.j.0.4 4 : @ X w v.D.x.q.y.w H o.+X.X,X!.O.O.| oX@X` 0 1.0 s.D.S.S.S.v.1.h Z ",
"~ U.h < 0 6 0 2 0 q ] ) Q / ).1XeXeXMXY.{ o.).).S w.c.q.7 3 @ @ 1 6.s.x.y.5.>.7 X.o.| X.-X-X~.).!.+X>XP < 9 8.zXS.S.S.V.v.e.f Z ",
"Q $X$Xh 0 2 0 2 0 S Q Q Q ! Q %.$.;XMXY.X.XX).@X).q x.0.p 1 3 # 2 q.c.g.q.4.0 ' .X).o.~..X+X:X;X'.@X>X` S 1.c.K.xXF.D.x.s.0.j Z ",
"^ >X$X+X+X&XX.'.}.W.| | ] | ] | } o.3XP } %.o._.;XE.2.6.4.8 2 # 5 6.6.0.6.9 L X..X+X+X'.~.@X+X+X+X~.oXK ^.9.8.d.fXxXzXxXA.9 N F ",
"Z W.(._ | o.Z _ ;X|.(.o.{ o.(.+X;X=X1X[ K P ' } !.E.g :.w 8 . O + + 7 ,.w t G ).OX=X=X=X).OX+X~.#..XoXG !.H 0 >.6 Z.p.7.9 f ' Z ",
"+XiXaX1X*.*XG _ ~._.(.X. X'._.'.=X+X7X@X+X7X%X>X>X|.}.< 9 8 . % % $ $ . 2 O.F (.<X=X<X5X5X<X'.+X).$.*X+X%.XXoX.X2 0 1 < h tXeXeX",
"pXpXtXyX6X3X0XU !.'.1X2X=XW.).(.).%X+X] o.#.#.#.&X&X_._.7 5 ; : ; * % @ d iXH (.=X-XOXOX'.6X:XOXOX.X.X~.;XX...*.&X.X.X+X.X%XiXrX",
"rXiXpXpX,X4XqXU `._.).X._.O.] | ~  .( K ..|  ./ &.=.(.$.%.X u k : : % @ { 8XF |.=X-X=X=XOX-X-X+X+X.X@X}.wX,X ...;.@.'.:XOX~..XrX",
"OX-XrXtXpXiX0XE.].+X{.!.o.~.o.' Q o...K $.$.]  ..XXX_.&X=.%.k x u y ;   ~.8XH {.<X,X-X=X=X=X<X=X=XOX@X~.eXrXOX~ ( @.OX4X5X1X6XOX",
"OX.XrXpXaXMXnX` =X;X=X'.(.X. .X.Q / %.K ).XXXX~.#.*X} XX_.%.k x k : :   B dXU.~.=X=XwX<X=X-X5X<X-XOX+X,XaXpX;X+.( Q O..X@X-X6X<X",
"rX~.#X<XtXMXtXH I Q.[ [ Q.L K G Z G K F } P X.{ P %.} =.XX).k l : y : o o 7XI L ` I I Q.` ` ` I Q.E.` E.eXeX(.G ! G ! ( @.*.6X-X",
"uXrX=XoXeXMXMXOX>X1X:X-X|._ { E.L G $.Q (.^.` G Y C } XX%XE k l y : $     d [.{ ' F A I E.` Y U J F L E.U.E.I L Y b / ) ( @.#X.X",
"6XOX-X.X#XMXqX{ XX.X@X).uXiXsXsXaXuX*.5X&X8XiXiX8X$.K $.$X+ u u y : +     + E.#. .X.~ 5XiX5XiX7XuXdXuXiXsXuXdXdXdXY.! ( @.( @.#X",
"@.6X<X:X6XuX'.~..X.X#X5X5X'.,X=X1X;XXX%X+X=X%X:X3XXXP XXb : : : : @ o o   o H o.%.+X| ..@X(.%X+X+X;X2X7X2X1X2XwXiX XG ( ( ( @.*.",
"@.@X1X<X4X5X~.O.o.)..X6X4X~.).o..XoX@X%X@X@X+X.X*X]._ F c d * ; * O           | [._.~ &.].(.9X2X{.;X$XuX1X2X;X1XiXW.! ) ( ( @.@.",
".X.X@X6X5X4XO.~.@XOX.XOXrXO.o..X)..X)..X@XXX:X+X*X`.- T T l : : : O           |.,XXX ...&X} ;X2X=X$X;X1X2XyX,X2XiX[.G ( @. .O.@.",
"o.+.X.o.'.<X_ { #XOXOXOXwX~.+X1X;X.X$.o.oX:X@X+X3X+ : : y y y y > @           ).;X|..... .{ 2XuX2X;X;X2X|.1XyX2XwX[.G ~ @.*.O.O.",
"b f f f b L G G ` I U ` ` {.aXeXrX:X%X@XOX-X-X+X8X+ * * * * * * % @           L U.I Z ! K [ {.$X{.2XyX1X2X1X7XuXuX[.f b b f b C "
};
