/* XPM */
static char *result[] = {
/* columns rows colors chars-per-pixel */
"64 64 238 2 ",
"   c #3C1F23",
".  c #3E2124",
"X  c #451E1F",
"o  c #4C1E1D",
"O  c #5D1E17",
"+  c #541E1A",
"@  c #5A1E18",
"#  c #651E14",
"$  c #6C1E12",
"%  c #6E2114",
"&  c #682519",
"*  c #742413",
"=  c #782A17",
"-  c #79331C",
";  c #6B311F",
":  c #411E20",
">  c #583C32",
",  c #4F2D27",
"<  c #7A3526",
"1  c #6E3428",
"2  c #5B4237",
"3  c #624638",
"4  c #7A4C37",
"5  c #6C5A1E",
"6  c #653E42",
"7  c #755B48",
"8  c #786747",
"9  c #7C7351",
"0  c #832D15",
"q  c #8C3316",
"w  c #853418",
"e  c #953A17",
"r  c #983C18",
"t  c #813E2D",
"y  c #864116",
"u  c #974716",
"i  c #945813",
"p  c #A24218",
"a  c #AB481A",
"s  c #B54E1B",
"d  c #BA521C",
"f  c #88771B",
"g  c #85442C",
"h  c #87462C",
"j  c #864835",
"k  c #965A39",
"l  c #914F33",
"z  c #9C633F",
"x  c #B8613F",
"c  c #A26B14",
"v  c #C1571D",
"b  c #C35D1C",
"n  c #C6671C",
"m  c #CC7A1B",
"M  c #C97439",
"N  c #8E5751",
"B  c #8E5645",
"V  c #856848",
"C  c #9B6746",
"Z  c #8C774E",
"A  c #8A7855",
"S  c #957A58",
"D  c #8F6659",
"F  c #A56D49",
"G  c #AA794D",
"H  c #A77955",
"J  c #9A6666",
"K  c #9F726F",
"L  c #AB7278",
"P  c #A57B78",
"I  c #B37D7B",
"U  c #A66A6E",
"Y  c #A9A319",
"T  c #B88A15",
"R  c #D28F1A",
"E  c #DFB917",
"W  c #DEB318",
"Q  c #D9A718",
"!  c #D7B02F",
"~  c #E4C917",
"^  c #E2C71F",
"/  c #E7D516",
"(  c #EFF613",
")  c #EBE614",
"_  c #E3C831",
"`  c #9A825C",
"'  c #9B8759",
"]  c #9B854F",
"[  c #A8885B",
"{  c #B7895A",
"}  c #A9935F",
"|  c #B8975E",
" . c #998862",
".. c #8D8265",
"X. c #A48C65",
"o. c #A99669",
"O. c #B49D6B",
"+. c #B99867",
"@. c #AB9B72",
"#. c #B59C72",
"$. c #B58D68",
"%. c #B4A26E",
"&. c #BBA46E",
"*. c #BCA467",
"=. c #B6A373",
"-. c #BAA674",
";. c #BDAA74",
":. c #BDAB7B",
">. c #B5A47A",
",. c #AEA473",
"<. c #C8995C",
"1. c #C29E65",
"2. c #C39D73",
"3. c #C2A46C",
"4. c #CBAD6B",
"5. c #C8A866",
"6. c #CCB26C",
"7. c #C7B06F",
"8. c #D4B36C",
"9. c #DAB46D",
"0. c #D6B96E",
"q. c #D9B86D",
"w. c #C2AC75",
"e. c #C2AD7B",
"r. c #C8A876",
"t. c #C5B275",
"y. c #CDB474",
"u. c #C5B37C",
"i. c #CCB57B",
"p. c #CDBA7C",
"a. c #C6B87B",
"s. c #D3B573",
"d. c #DAB771",
"f. c #D6BA72",
"g. c #DBBC73",
"h. c #D3B57B",
"j. c #D4BB7C",
"k. c #DBBD7B",
"l. c #DAB57D",
"z. c #D5AC67",
"x. c #E1BD75",
"c. c #E2BF78",
"v. c #DCC176",
"b. c #DCC27C",
"n. c #D8C37A",
"m. c #E3C375",
"M. c #E3C57B",
"N. c #E5C97D",
"B. c #EACC7E",
"V. c #E9C978",
"C. c #EAD26E",
"Z. c #AF7B81",
"A. c #B99499",
"S. c #B69697",
"D. c #B3898D",
"F. c #BCB186",
"G. c #BDA2A4",
"H. c #BB9FA0",
"J. c #C5B382",
"K. c #CAB583",
"L. c #CCBB82",
"P. c #CABC8A",
"I. c #D4BD83",
"U. c #DBBE82",
"Y. c #D3BD8B",
"T. c #C9AE8A",
"R. c #C1AAAC",
"E. c #C4AFB1",
"W. c #C8B5B8",
"Q. c #C7B2B3",
"!. c #C69D80",
"~. c #D5C285",
"^. c #DCC383",
"/. c #DEC985",
"(. c #D4C38A",
"). c #DBC58B",
"_. c #DDCB8C",
"`. c #D6CB8E",
"'. c #DDCC93",
"]. c #D8C694",
"[. c #DDD194",
"{. c #CFC58D",
"}. c #E3C484",
"|. c #E4CB84",
" X c #EACB84",
".X c #E2C68A",
"XX c #E3CB8B",
"oX c #EACD8B",
"OX c #E8C687",
"+X c #EBD185",
"@X c #E4D18C",
"#X c #EBD38D",
"$X c #ECD98D",
"%X c #E6D386",
"&X c #F4DC8D",
"*X c #F2D589",
"=X c #E3CD92",
"-X c #E9CF92",
";X c #E0CF9B",
":X c #E4D393",
">X c #EBD493",
",X c #ECDA94",
"<X c #E4D49A",
"1X c #ECD599",
"2X c #ECDB9B",
"3X c #E7D999",
"4X c #F1D594",
"5X c #F2DB94",
"6X c #F2DC9B",
"7X c #F5D998",
"8X c #F1CF93",
"9X c #EEE09C",
"0X c #F3E29C",
"qX c #F7E599",
"wX c #F4E18E",
"eX c #D7CDA4",
"rX c #DBD2A7",
"tX c #DFD9BB",
"yX c #EBDDA3",
"uX c #EBDDAA",
"iX c #E5DAA6",
"pX c #F2DEA4",
"aX c #E8DDB2",
"sX c #EDE2A3",
"dX c #EEE2AD",
"fX c #F3E4A3",
"gX c #F2E5AD",
"hX c #F4EAAC",
"jX c #F8EBA7",
"kX c #F9F2AB",
"lX c #EDE5B4",
"zX c #EDE7BC",
"xX c #F4EBB4",
"cX c #F5ECBB",
"vX c #F4E6B3",
"bX c #FAF3B6",
"nX c #F6F0C8",
"mX c #DAD4C2",
/* pixels */
"K.vX-X.X~.XX>XqXkXkXkXbX,XP.iXpXyX#X#X7X1X6X6XoX7XjX$X&XqXqXkXlX].sXpXpXY..X4X7X6X6XN.*X1.&.:XF.X (.3X6X(.[.[.2XkXhXU.8XOX}.k.-X",
"} M.|.|.$X$X|.$X5X$X$XwX%X{.>X>X}.OXXX>X4X-X>X>XqX2Xj.|.M.g.|.@X:.U.oXoX4XoXoXOXOXOXoX*Xy.t._.r.$ _.>XfXsXyX<X:XhX[.d.9.9.z.x.qX",
"A 0.v.g.n.|.n.n.|.y.j.wX@X=.    [ i.j.-XXX4XXXoXqX+Xk.k. X}.|.XXu.1XoX.XOXoXoX}.}.c.M.7XU.K.'.3X3X<X:X[.3XsX2X3X3X{.x.9.9.9.x.&X",
"` n.v.m.N.%Xn._.o.. h %XN.> > s.S   . o.>X1X>X).>XXXk.|.+XXXOX:X-..XoXoX.XOXOXOX}.OXOX7X).I.:X3X3X,X:X[.(.,X2X9XfX'.4.9.9.9.9.&X",
"] n.v.f.v.%X%X%XX.e v.B.}  .:X<Xk.3   [ XXXX=XXX>X^.y.#X+X5X@X:Xw.OXOX}.OXOXM.}.}.}.OX7X:X@.. 7 7   u.:X[.u.>X2XsX(.8.8.x.d.z.*X",
"] 0.N.N.v.0.v.N./.k k b.} :.(._.h.2 $ $ $ $ -.#.I._.o.p.j.k.^.^.r.OX8XU.}.U.}.OXoXU.}.>X@., (._.(.3 h [.`   _.(.~.e.k.s.9.x.c.*X",
"] n.g.v.b.v.m.v.v.%X9X,XwXsX4X>X4 $ $ C 4.}.>XkXjX6X+X^.^._.2XsX-.U.}.OX}.OXOX XOX8X.X7XfX_.[.@Xo.+ g ;.S O . :  .u.w.;.=.%.;.&.",
"Z 0.v.m.v.0.v.v.g.N.9X9X$X).XXi.O $ h :XXX|.+X$X+X6X:X=X$X,XqXsX-.}.}.OXOX}.c.}.}.oXXX7X6Xv.m.N.1.k +X/.>XH B 4.9XhX<X,X0XpXjX7X",
"9 v.v.v.m.v.6.v.v.n.%X0X3X~./.e.+ % = z C |.}. X#X,X$X/.M.|.B.$X:.}.}.}.G z OXOXOXoX8X7X).|.g.8.q.m.V.j e.>X>Xh.j.6XpX:X1X=X>XqX",
"Z 6.6.v.q.v.6.0.v.m.%X9X:X%XXXj.C = & $ $ $ t l.#Xn./.M.f.0.0.m.O..XOXoX.X{ % F U.OX1X7X).|.m.q.g 5.z.$ % ).>XXXt i..X-X1X1X3XkX",
"] 7.v.v.0.8.8.0.0.v.N.wX~.y.g.b.s.t $ $ $ a s s l h z %Xb.g.q.m.+.U.OXOXOXOXOX$ 1 7 -XpX'.#X XV.m.g $ $ $ g h h = $ $ k .X6XfXbX",
"' *.6.6.6.5.y.7.5.5.a.N.a.J.y.I.G $ q $ r b R R n v q x b.b.V.M.#.h.h.I.l.U.-XI.# : , }.).|.b.m.m.<.$ $ F - $ = s v $ q <.}.>XkX",
",.n.n.v.n.n.t.=.t.t.a.a.p.F.{.].F % d b v E ~ ~ ~ ~ v p s.|.b.+Xh..X_./.k.U.#.e.D :     #.p.p.b.g.5.$ $ K.h * v v b v v v v M jX",
"X.[.yX3XlXhX2XoX5XqXwX,X&XwX5X6X{ $ r b v E / ) / ~ E v x.#X$XB.f.+X|.oXOX5X=X<XpXl.+   S ,X,X,X$X|.0.@   # v n W ~ b Q Q b M *X",
"..lXdXdXlXgXaX^.+X X#XOXM.|.oX>XoX5Xl b Q ~ ( ( ( ~ E z./.@X|.|.y.b.|.oX|.>XXXI.}.OX#     k.k.}.yXyX@X@   XXv R ~ ~ ~ ~ ~ ~ M 3X",
"..lXxXlXlXzXaX3.B. XOXOX.X|.oX>X&X*XjX<.W ~ ( ( ( ~ ~ C.@X$X#X:Xh.^..X#X>X,X~.4.s.}.#     Y.OX^.c.oX>X@ : Y.v m ~ ( ( ( / ~ M zX",
" .dXdXdXvXcXrX5.c.m. XoX#XoX-XoXoXXXqXa.v.^ ) ) ~ ~ ^ B.$X+X#X@Xj.oX|.XX>X6XI.k.h.l.#     .X.XU..X4X1X@   XX>X! ^ / ( ( / ~ _ qX",
"A I.3XiXdXlXrX3.q.g.OX*XXX-X7X>X>XOX&X~.a._ ~ ~ ~ ~ _ XX@X@X@X/.w.|.XXOX>X>XK..XU.g :     -X;X.XU.1X>X@   )._.%X~ ~ / ~ ~ ~ _ |.",
" .-.i.P.{.dXF.3.XX}.oX6XyX).oX+X XM.*X}.P.[.`.C.C.a.a.u.p.p.~.(.O.7.I.I.I.=X>..X{ $     D ;X1X1X-X>XY.    ~.p.L.6.^ ~ ~ ! ;.j.@X",
"@X$X|.|.2XxX].;.}.b.XX:X2X>XOX}.B.m.+Xc.[.3X$X3XfX4X:XpX9X2X&XwX+X+X,XfX2XsXo.h.= :     Y..X-X8X4XB #     XX).XX,Xp.y.|.%X,XqXjX",
"/.XX/./.>XbXeX;.XX>X>X2X6X4X}.}.k.k.B.i.5.7.7.j.I.3XyXY.K.r.{ e e r e 0 $ T.S F $ : : : $ 1.oX.X{ $     H U.OXM.N.b.b.B.%X>X$X$X",
"b.+X|.,X@X*X`.;.oX2X-XoX>XoX}.|.|.XX,X3.*.5.7.j.p.|.* d v v v b b b v b v v $ $ : : : q b * h K.# :   + 4.s.s.k.OXs.n.$X+Xn.n.M.",
"n.n./.N.XXwX`.w.XX#X4X1X>XXX.X|.>X>XhXK.4.[ $ 0 p p r $ 0 d R W ~ ~ v v v v $ $ # : & v v v s $ o : 1 I.z.d.k.c.+Xh.~.n.|.N.b.N.",
" X|.%X|.@XwX`.=.b.OX>X>X>XoX>X#XoXOX+Xw.C $ w n n n v p * $ ~ ~ ~ ~ v v v * v v q $ $ % u s u # : $ ;XU.U.s..X^.oXu.b.B.|.@Xb.b.",
"|.%X$X#X$XqX_.' o.o.o.:.J.w.#.o.' [ &.S $ p n ~ ~ ~ Q v q $ i ~ ~ ~ v v v * v v - X $ $ $ $ $ O   # = +.4X}.}.U.OX&.0.M.B.%X|.b.",
"@X/.XXXXM.B.$X_.xXfX2XfXsX(.2X>X'.).U.+.$ s n W ~ ~ W v q $ = Q Q b v v v * v p o Y : $ o 5 : O y * T i $.e.O.-.u.` 0.v.M.b.@X|.",
"&X$X,X|.v.,X'.(.2X<X<X=XvX=X>Xh h j $ $ $ s v b n n b p % o s v v v v v b * * * $ $ # $ o , # ; v s % c i g Y.].iXo.6.q.v.B.%X/.",
"$X#X$XM.m.m.n.K.<X=X]._.2X- $ $ * $ q $ $ @ r r = $ $ # :   v v v v v v b * $ w - $ $ O $ $ , b v v % u R u l.fXnX#.b.n.%X_.,X~.",
"|.b.v.v.v.%X{.P.=X;X=Xh.$ $ $ $ p v v p $ $     :         # * v v v v v q $ $ @ Y - % $ $ : v v v v $ $ p v h 7XgX,.v././.@X,X3X",
"XX^.v.0.v.$X(.t.$.+.$ $ $ $ * a R R R b q $ $ # X           + q v v d 0 $ $ $ @ @ f f i @ w v v v v $ $ 0 s g OX#X:._./.@X$X,X,X",
"p.y.n.[.:XhX& $ % $ $ $ $ $ v v d W W d q $ # @         :   : q v v v p $ $ $ @   # # + t s s s s s # : # # 3 }.$X&.~.,X@X@X/./.",
"O.%.X. .} `.$ $ % % $ $ $ r v v v m u = $ o u.      : O # : : q v v v v s p $ $ # :         $ % % o   :   : 4 |.9X=.;.%.O.o.a.,.",
"(.jX0X9X5X5X$ * a v $ $ $ p a q $ $ % % 7 3X:X  + $ $ $ $ : : # e d v v v v s * $ $ $ $ $ $ $ $ X         # -X-X7XY.~._.~.u.2X-.",
"a.qX@X@X,XG $ q v v a % $ $ % $ $ o X S >XfX3X:.  # $ $ $ $ @ : X * v v v v b p $ $ $ $ $ $ # X         + U.8X=XyXI.6X#XoX/./.@.",
"y.@X$X/.|.g $ q v v d = D S o.o.X.:X>X2X>X6X>X(.  # $ @ : @ $ # X   @ $ $ $ O $ $ $ $ $ $ $ +         o U.8X1X1XpX)..X4X4X#X>X@.",
"p.n.|.%Xb.g * d v v v u ].J.:X9X3X:X:XXXXX,X>Xj.: # #       : $ % X     X   X $ $ $ $ $ +             $ K.-X1X-X>XI./.OX*X#X>X@.",
"t.|.,X|.n.g * b v v s k /.t.(.@X>X,X3X:X,X_.0X,Xz + $ + + +   : X     o       + + + +   : S         @ $ ).=X-X-X>Xp.>XoXXXoX X@.",
"t.XX%X@X/.j * d v v s { %X-.~.~./.^.=XI.L.a.j.XX<.$ $ $ $ $ #         o # $     @ # & < -.3.      $ $ $ I.<X=X=X=Xe.~.+XOXoX$X:.",
"t.sXhXsX<Xg * v v v q { %X%X$X|.$X$X,X~.~.^.`.l.U.< $ + : $ $ : @ $ @ @ X   : @ [ e.i.,XXX/.$ o @ $ $ $ H >.:.J.Y.>.&.;.&.w.^.O.",
"*.n.%Xb.<XH * s v * g cXiXp.n./.@X[.hX0X2X5X+Xh.: : # # +   #   X X X X g j.^.XX>X-XXX,XXXOX*Xh $ $ * p % k.5X&X5X0X#XB.B.V.V.O.",
"O.~.^._.:X2X% % = $ $ 2.2X3X/.b.$X9X9X`.~.[ F j : :   : : : : # $ $ t k._.^._.XXXX=Xn.XXY. X|.k.$ $ * v s * H k.|. Xf.k.g.m.B.o.",
":.3X3X3XsXiXH % $ $ $ 1.|.XX:X/.#X9XqXXXC . X O # $ : :   :         3 XXXX@XXXXXXXXX^..Xj. XOX|.{ $ $ q v q $ H g.M.s.s.8.g.B.o.",
"F.xXgXsXlXF j % $ $ g #Xn.@X/.|.#X@X$X:.        : # @               b.^.I.OXXX|.~.#XXXoX&.N.*XoXM.h $ q v v a = <.z.v.m.0.0.M.o.",
"& % < $.0 % $ $ $ $ { g.t.a.XXn.b.|.@X              o           @ $ 1.s.y.U.I.p.I.i.i.~.-.s.U.oXc.M.+.$ $ e v p 5.z.f.q.f.g.B.&.",
"      + p d b p $ $ h XXn.s.^.~.p./.[.                              3 k.f.j.;.-.u.^.eXrX].(.j.^.I.s.;X$ $ $ $ $ $ z.f.5.5.5.m.y.",
"0.|.>X).0 d v b q $ j m.B.2XvXgX,X,XjX=.7                           3 k.V. Xk.pXfX0XpXcXuX>X X X*X7X).;.C $ $ $ $ ] % $ $ { g.7.",
"y.>X$X6X3.h $ $ $ $ k z.8.:XgXcXiXdXnX:.X.:                           Z 8.g.*.9.c.k.XX.X<XI.h.d.f. XoXe.iXF $ $ $ $ $ $ $ $ t [ ",
"4.#X,X6X>X0XI.$ $ $ W.T.$.#.r.3XiXdXnXF.p.y.;.                          7 8.3.j.k.k.s.k.-X:X^.^.I.XX4X:.XX=XU.$ $ $ $ $ $ $ $ - ",
"4.@XXX0X0XqX:X'.'.h 1 W.A.Z.Z.L L L L L L .XU.r.< $ # :                     3.h..X}.k.^.}.XX>X>X).XX>Xu.I.b.6X$ $ F H B # '.C $ ",
"4.,XXXXXXXoXj.~.].g A.W.W.W.G.L L L L L L L L L L U J J J J             + # & $..X=X.X).U.XXXXXXXXk. X=._.~.k.$ $ B uXuXS # uX+ ",
"} L.~.t.y.b.} ;.r.R.E.A.W.W.W.W.W.A.D.D.Z.L L L L L L L L L L L U L 6 B x x 0 C ^.=X=X=X)..XXXj.b.}.B.+.I.).p.k $ $ >.>.` +.S 7 ",
"XXhXxX3Xm.*X&.w.P.W.< W.W.W.< W.W.W.W.W.Q.Q.E.Q.Z.L L L L L L L L L L L L L L U L I I I I >X).=Xb.k.*X:X^. X+XOXwXj   S iXaXpXiX",
"lXgXaXuX>X&XeX-.y.< J J J E.W.S.K R.W.W.W.W.W.W.W.W.W.W.W.A.A.A.A.A.A.A.A.A.L L L L L L !.4X-X.XXX^.|.j.=Xj.g.M. XN.|.OXm.>XgX7X",
"pXlXvXlX<X6XrX-.I._.^.- < A.R.E.N A.$ N E.R.; N W.W.W.W.W.W.W.W.W.W.W.W.W.W.W.W.W.W.W.W.].-X-XXXXXOXoX].yX;Xd.g. Xk.).1X.XU.OXpX",
"OX-XuXaXlXgXeXJ._.).'.I.k.y.r.[ N & $ < < $ G.J G.W.W.W.L R.W.W.W.W.W.W.W.W.W.W.W.W.W.=X=X=X1X=X.X.XOX).uXgX).4.x.g._.6X7X1X>X.X",
".X}.pXvXcXnXmXe.XX1X=X).~.p.j.l.4.C k < $ $ $ N W.< G.$ $ G.W.W.G.G.W.W.W.= 7 J Z.W.T.>X=X-X7X>X1X).XX<XxXvX:X8.q.z.s.OXOX-X>X6X",
"fX~.OX1XaXnXaX@.:.K.u.u.K.-.&.O.o.+.*.} t.> $ - B * < $ J B 4 j P G.W.D.j $ t $ P W.< K.J.e.e.e.J.K.:.J.iXiX(.+.5.o.5.9.x.|.oX-X",
"pXsX-XOXiXnXnX.X,X9X:X>X[.e.i.J.#.O.b.7.`   : : 4 & & $ # $ $ $ # & $ $ $ $ $ $ $ $ V :.T.J.>.>.@.o.>.J.J.F.:.>.-.A 8.d.z.m.OXXX",
"4X.X-XU.OXnXrXh.XX.XoXk.qXhXcXbXvXfXm._.,     X.7XM.*.$ $ $ % % # $ D.% $ $ $ $ $ y.y.*XfX2XjX0XqXkXfXjXbXsXjXkXkXF.3.9.x.9.c.OX",
"x.4X7X>X8XfX].I.}.}.|.4X7X).<XXX3X#X.X        X.5X.X7.|.XX#X$X+.2.r.r.G @       o 3.s.g.+XI.#X_.'.:X3X9X2X2X2X9XhX{.| 9.9.9.c.m.",
"c.OX6X4X1X7XI.h.k.^.}.>X7XI.}.k.}. X    .       h.XXt.^._.%X@X,X_._.2X_.o         & 6.m.XXL.9X3X=X=X@XfX2X3X<X2XsX{.5.d.9.9.x.c.",
"U.OXoX-X7XqXl.U.oX}..XOXfXK.k.^.U.}.              X.a./.%X@X9X9XfX[.,X,XD $ $ $ $ $ = 4.+Xa.:X2X=X@X:X3X3XsX:X3XhX'.+.9.x.s.d.c.",
"j.s.k.l..X3Xw.i.OX.X.X.XpXY.XX2X:X}.                2 ~.n.{.~.:X:X`.`._.[ $ $ $ % $ $ $ <.p.:XsX3X3X:X2X[.2XsX2X2X`.O.6.c.k.l.j.",
"Z 8 8 8 9 #.O.O.r.:.-.e.e.'.gXuXfX>XU.I.j.Y.I.j.|.[.a.[.`.n.;.a.,.,.' 9 9 #.o.X.@.%.[ +.| a.=X@X`.3XsX2X3X2XsXfXsX`.8 A V 8 Z ' "
};
