/* XPM */
static char *result[] = {
/* columns rows colors chars-per-pixel */
"64 64 243 2 ",
"   c #3C1F23",
".  c #461E1F",
"X  c #4A1E1D",
"o  c #541E1A",
"O  c #5A1E18",
"+  c #5E1E17",
"@  c #631E15",
"#  c #6C1E12",
"$  c #5A291B",
"%  c #762715",
"&  c #743617",
"*  c #692517",
"=  c #421E20",
"-  c #513327",
";  c #793325",
":  c #793429",
">  c #684E3E",
",  c #786A49",
"<  c #6A5040",
"1  c #8A3618",
"2  c #903616",
"3  c #813D2F",
"4  c #A24218",
"5  c #AC491A",
"6  c #A94619",
"7  c #B34E1B",
"8  c #BB531C",
"9  c #947E1B",
"0  c #86462E",
"q  c #844539",
"w  c #965736",
"e  c #9A6234",
"r  c #844313",
"t  c #C1571D",
"y  c #C35E1C",
"u  c #CA761B",
"i  c #C76C1B",
"p  c #C15F25",
"a  c #C76E31",
"s  c #836B4C",
"d  c #9D6947",
"f  c #8B784E",
"g  c #8A7855",
"h  c #967C59",
"j  c #936A53",
"k  c #A36C48",
"l  c #A8774C",
"z  c #A77753",
"x  c #AB7278",
"c  c #A97A7C",
"v  c #A97D63",
"b  c #925D58",
"n  c #CE7F41",
"m  c #BB8B16",
"M  c #AD8F3E",
"N  c #D18C1A",
"B  c #D59A19",
"V  c #CA8F18",
"C  c #D9A918",
"Z  c #DEBA17",
"A  c #CDAD17",
"S  c #E1BF17",
"D  c #D7BD2C",
"F  c #E4C817",
"G  c #E1C117",
"H  c #E8DA15",
"J  c #EBE714",
"K  c #EFF613",
"L  c #DEC331",
"P  c #E4C825",
"I  c #E6CB36",
"U  c #9A875B",
"Y  c #9B854F",
"T  c #A48C5D",
"R  c #B48859",
"E  c #A7935E",
"W  c #B79C5F",
"Q  c #BD844D",
"!  c #988863",
"~  c #8D8265",
"^  c #AA9564",
"/  c #AC9C6C",
"(  c #A69467",
")  c #B39C65",
"_  c #B39D6B",
"`  c #B99861",
"'  c #AA9B72",
"]  c #B29D72",
"[  c #B28876",
"{  c #B5A26C",
"}  c #BBA46D",
"|  c #BCA468",
" . c #AEA273",
".. c #B5A372",
"X. c #BBA675",
"o. c #BDAA73",
"O. c #BCAB7B",
"+. c #B6A879",
"@. c #BEB17C",
"#. c #CB8244",
"$. c #D28A4C",
"%. c #D2985B",
"&. c #C8914F",
"*. c #CEB456",
"=. c #CB9A62",
"-. c #C5AB6A",
";. c #CBAD6B",
":. c #C6A866",
">. c #D4A864",
",. c #CDB26D",
"<. c #CBB06B",
"1. c #D3B46C",
"2. c #DAB56C",
"3. c #D5B96E",
"4. c #DCBC6F",
"5. c #D3B367",
"6. c #C3AD75",
"7. c #CAAC71",
"8. c #C2AD7C",
"9. c #C9A775",
"0. c #C5B275",
"q. c #CCB373",
"w. c #C4B37C",
"e. c #CBB57C",
"r. c #CEB97C",
"t. c #CBB978",
"y. c #D3B573",
"u. c #D6BA73",
"i. c #DBBD73",
"p. c #D3B67B",
"a. c #D4BB7C",
"s. c #DBBD7B",
"d. c #DAB673",
"f. c #D1AF7C",
"g. c #E1BD75",
"h. c #E3BD7A",
"j. c #E6CF48",
"k. c #DCC176",
"l. c #DCC27C",
"z. c #D8C27A",
"x. c #DCC066",
"c. c #E3C475",
"v. c #E2C47B",
"b. c #E5C97D",
"n. c #EACC7E",
"m. c #E8CA77",
"M. c #E9CF6E",
"N. c #DCC04E",
"B. c #B68E93",
"V. c #B79396",
"C. c #B08A8B",
"Z. c #BAAD81",
"A. c #BEB388",
"S. c #BDA3A4",
"D. c #C69C84",
"F. c #C4B483",
"G. c #CAB582",
"H. c #CCBB82",
"J. c #C8BA88",
"K. c #D3BD83",
"L. c #DBBE82",
"P. c #D2BF8B",
"I. c #C6B689",
"U. c #C8B5B8",
"Y. c #C6B2B5",
"T. c #C9B3B1",
"R. c #CDC189",
"E. c #D5C284",
"W. c #DCC483",
"Q. c #DEC985",
"!. c #D4C38B",
"~. c #DBC58B",
"^. c #DDCA8C",
"/. c #D6CB8E",
"(. c #D3C592",
"). c #DDCB93",
"_. c #D7C994",
"`. c #DED193",
"'. c #DED29A",
"]. c #D1C78F",
"[. c #E3C584",
"{. c #E4CB84",
"}. c #E9CB84",
"|. c #E2C68A",
" X c #E3CC8B",
".X c #EACD8B",
"XX c #E8C687",
"oX c #EBD185",
"OX c #E5D18C",
"+X c #EBD38C",
"@X c #ECDA8C",
"#X c #E7D486",
"$X c #F2D58C",
"%X c #F4DC8D",
"&X c #F2D585",
"*X c #E3CD92",
"=X c #E9CE92",
"-X c #E5D393",
";X c #EBD493",
":X c #ECDA94",
">X c #E4D49A",
",X c #EBD59A",
"<X c #E6DA9C",
"1X c #ECDB9B",
"2X c #E7D995",
"3X c #F1D593",
"4X c #F2DC94",
"5X c #F3DD9B",
"6X c #F4D898",
"7X c #F1CF93",
"8X c #F2E18B",
"9X c #EEE19C",
"0X c #F4E295",
"qX c #F3E39C",
"wX c #F8E69B",
"eX c #D7CCA4",
"rX c #DDD3A5",
"tX c #DFD9BB",
"yX c #E5DAA4",
"uX c #EBDDA3",
"iX c #EBDEAA",
"pX c #E6D9A7",
"aX c #F2DEA4",
"sX c #E8DDB2",
"dX c #EEE2A4",
"fX c #EDE3AC",
"gX c #E7E0AD",
"hX c #F3E4A3",
"jX c #F5E9A4",
"kX c #F8EAA4",
"lX c #F1E5AD",
"zX c #F4EAAC",
"xX c #FAEDAB",
"cX c #F9F2AB",
"vX c #EDE5B4",
"bX c #EAE4BB",
"nX c #F3EBB3",
"mX c #F5EEBA",
"MX c #F4E6B3",
"NX c #F9F3B7",
"BX c #F7F2C5",
"VX c #F6F1CC",
"CX c #DAD4C2",
/* pixels */
"G.nX=X X~. X;XwXcXcXcXNX2XP.pXuXaX+X.X6X:XaX5X.X5XkX@X%XwXwXcXvX(.hXaXaXP.|.7X6XwX,Xb.&X` 6.2XhXzX<X1X5X!.`.`.1XxXhXL.7X.XL.h..X",
"T v.}.{.@X@X X@X4X@X@X0X#X!.;X;X{.|.|.:X6X.X=X:X5X5Xa.{.[.i.b.OXO.L..X.X3X.X.XXXXXXX.X&Xy.8.).-X-X2X2XhXdX1X<X>XzX'.d.2.>.2.h.wX",
"g 3.i.i.k.{.z.z.b.l.#X8X#X8.i.{.v.{.|..X X;X X.XwX+Xs.s.}.l.[. X8.,X.X|.|..X.X[.h.[.XX$Xa.H.*X1X1X-X).-X<XuX1X<X1XR.v.2.2.2.g.%X",
"U k.l.c.l.#Xz. XOX2XQ.n.#X` ;.y.s.[.[.;X;X3X=X|.+X|.s.{.&X X X+Xo.|..X.XXXXXXX.X[.XXXX6X|.H.).1X<X2X-Xd.^.2X1X9X9X).;.2.2.2.4.8X",
"U u.z.3.k.#X#X#X#X5X#Xn.#Xw.*X>Xa.l.{.|. X X X*X;XQ.q.+X.X4XOX-X6.XX[.[.[.XX[.h.[.XXXX5X>Xw. X>X-X>X2X8 -X-X2X:XuXP.;.1.2.g.>.&X",
"Y 3.n.b.k.3.z.k.Q.0X2Xl.n.w.!.~.p.;.-.X.X.o.X.{ K.~./ t.a.s.W.!.X..X=X[.XXs.# # .XL.[.=X-Xw.!. X!.E.OX8 #.E.^.E.!.F.h.y.2.h.s.$X",
"Y z.u.u.v.z.b.v.k. X:X:X0XuX:X0X+X&XwXQ.l.6XkXxXxX4X@XW.W.^.9X9XX.L.[.XX[.[.XX}.XX.X=X6X5X%.>.>.1X/.W.Q 8 t p w.!.w.7.o...{ 6._ ",
"Y ,.k.c.k.5.x.l.z.b.qX0X2X~. X X X=X5XOX#X}.+X@XOX6X X=X+X:XwXdXX.[.XXXXXX[.h.XXXX.X.X5X%.>.>.t Q.c.&XQ.<XdXt t 9XkX>X2XqXhXxX6X",
"g 3.z.x.k.k.,.4.k.k.#X9X2XW.Q.W.Q.|.+XP.W.{.{.}.+X;X;XQ.v.b.n.2X8.|.[.L.h.XX[.[.XXXX=X6X%.{.i.4.c.l.m.u.!.2X>X%.Q.5X1X;X,X).;XwX",
"g ,.3.3.k.k.5.3.k.k.#X9X2X X XW.y.{.$XQ.|.OX XOX$Xl.{.b.u.3.3.c._ XXXX7XXXXX7X.X[.XXXX6X~.{.c.c.c.x.m.5.L.^.=X-X X^.>X;X,X,X2XcX",
"g t.z.z.3.5.3.3.3.k.n.8XE.q.a.l.y.2.n.q.-X:X:X;XOXOXl.{.k.s.4.c._ [.[.XXXX.X7X|.|.$.h.aX)..X{.m.c.c.c.<.W.Q.=X XW. X~.^.>X5XhXNX",
"U | ,.5.<.-.q.-.:.-.q.b.0.F.t.L.,.;.v.6.OX X+X;X4X:X{. Xk.v.n.b._ p.p.p.p.L.=X=X*X|.%.t t t t t c.4.c.q.=XW.{.-X[.+X>X^. X,X:XcX",
"{ s.k.u.z.E.0.{ o.0.w.H.t.A.(.(.| :.1.)  X+X.X;X4XOX;X;X[.{.k.a a [.^.Q.L.K._ 8.D.9.8.H.f.r.a.t a.<.5.{ ). Xk.{.~.u.:X-XW.s.;XkX",
"( '.uX1XfXzX1X+X0X%X0X4X%X0X4X4X4X4X$X6.^.:X X|.:X:X X{.{.n t m.y.XXOXa }.4X*X>XuX-X|.6X6X4X:Xt ;X{.3.) !.^.W.s.{.{.u.Q. X>X=X+X",
"~ vXfXfXvXMXsXW.$X}.+X|.W.{. X+X+X;XjXH.).1X;X2XqX6X:X+Xi.t a #X7.v.[.t [.3X XK.XX[.p.s.s.s.s.t ,XuX;Xo.~.*X=XQ.l.[.l.y.[. X>X>X",
"~ bXnXvXvXbXsX:.n.{.}.}.[.{..X3X;X+XcXr.`.hX2X+X:X:X1X1Xs.t OX-Xp.[.{.$.#.}.P.;.y.[.[.|. XW.S t h..X4XZ.).^. XW.E.s.W.<.5.k.+XbX",
"! fXvXiXnXmXrX:.g.# # z |..X3X.X.X|.qXt.!.1X2X;X;X1X:X5X;X$.a #Xa.|.[.[.t n K.L.p.L.[.[.XXF L L.|.;X5XO.*X X2X*X~.Q.;Xa.<.,.l.qX",
"g L.1XpXgXvXrX:.q b q : # w =X;X;XXX%XE.H.^.-X-X:X`.OX XOX X$.8 q.}. X{..Xu p.|.W.L.;X XF P =X|.~.;X6X] =Xt t t ~. X X{.L.r.l.{.",
"! X.t.H.(.sXZ.U.U.U.U.x : # # +X.Xm.$XQ.R.`./. X:XG.w.t.r.r.!.E.) 6.P.a.K.u L L.=X|.~.m.F M.,X,X=X>XlX] y.p r.H.8.o.{ o.{ o.r.-X",
"OX;X{.{.:XnXeXx x x U.U.U.# # # # m.n.h.-X<X2X1XhX;X>XhX9X:X%X0XoXoX4XhXF F D L.,X*X|.m.F ~.=X>X;XaX5XK.Q. X~. Xt p.,.}.b.4XwXwX",
"{. XQ.Q.;XmXeXx x x x V.Y.C.U.U.& 3 d.w.:.-.q.a.P.2XuXmXzX2Xa 5.a n.@X8XG nX' G..X>X>X*XF M.OX|.|.6X,XL.}.s.|.v.}.k.l.b.#XOX;X4X",
"l.OX#X:X X&X^.o.[ x x x x B.U.U.B.B.# ) | :.;.a.r.~.>XmXgX$.P ,.>.b.9XF mXBX' d k L.*XiXc.P  X=X~.*X,XK.i.#.n i.}.y.z.@X@Xk.i.b.",
"i.k.l.b. X8X/.6..X;XD.x x x V.U.# U.U.# 7.8.t.G.~._.].nXdXF I `.5.k.n.F bXv $ # # 9 & |.>XF I ,X*X,X>Xa.B F k.v..Xt.Q.l.{.Q.l.v.",
"#X XOX X#X0X/.{ l.|.+X*Xx x x V.U.U.C.q : R r.E.)._.R.>X@XI /.-Xz.3.N.*.P.# $ 2 % # # 9.,X1XP ,X*X,X>XG 4.2.[.W..Xq.l.b.{.#Xl.l.",
"{.{.+X+X+X0X`.U ^ ^ ( O.F.[ x x x Y.C.U.U.q / O.F.X.H.;X@XI /.l.k.3.M = O # 8 t # 1 % k P.K.F E.~.>XN.I j < f.L.|.} 2.b.b.#X{.l.",
"OXQ.OXOXb.n.@X^.nXjX1XhXdX~.D.x x x Y.c U.# 3 Z.J.! 0.zX@XF OXl.- . & F k.e 4 # 7 t 2 # ( W F F !  .F :.J.< - X.8.U 3.k.l.v.OX{.",
"4X+X+XQ.k.:X/.!.>X>X>X>XnX X2X[ x x x B.U.U.S.# NXR.q.-X2XF t.z.= ,.N.F k.i.3 # t t # # e F J F L. XA 3.~.^.= (.sXT 5.3.k.{.#XQ.",
"$X@X@Xb.c.c.l.F.,X>X~.~.hXK.1X*X^.x x x B.U.U.# 0X2X-.2.3.F I   k.W.l.F F # # # 8 t # # # F K F >.s     X *X# hX  ' v.l.#X{.9XH.",
"Q.l.l.k.x.@X!.P.*X*X X).=XP.2X,X-X2Xx x x C.U.S.xX Xt.W.Q.l.A @ OXQ.0 H J F A # % # # 2 t u K F ,.*.H M.# % * # = ' k.Q.{.#X1X2X",
"OXl.u.3.3.:XR.J._.>X*X>X;XL.5X2X-X;X-Xx x x U.4XhXOXr.Q. XQ.1 A A # # H K J Z t t 7 5 t t i F F # Z K *.# # # # E.@.Q.{.OXOX:X:X",
"r.t.z.`.2XhXJ.P.).*X).*X,XP.;X1X;X-X-XhXx x U.6X5X^.@. X^.E.0 # Z m m K G H Z t t t t t t C F t Z B J M.s.# # # +X} Q.2X#X^.Q. X",
") { ( ! ( /.F.F.G.G.G.e.8.K.-X+X2XdX^. X X3 9.f.L.`./ R.@.+.@.# 8 Z F J H F S t t t t t i F N t F y G I [.}.# # :X..+.{ / / r./ ",
"!.kXjX:X:X0XOX+X#X,.E.{.y.R.;X1X-X6X:X^.6Xh # # # uXK.2X:Xs.% 1 # 8 Z H J 8 y F 6 # # 2 B C t 4 S 6 B H XX|.# # 6XP.!.Q.P.8.9X+.",
"t.qXOX@X:X2X+XOXdXnXdXmXr.H.OX-X^.>X:XOX2X1X# # # t.E. XW.% 8 5 # # 8 F B # 5 F % # # 4 F B # # 7 # 4 F  X*X# # uXK.5X+X.X[.Q.' ",
"q.OXOXQ. Xl.v.9XmXvXnXBXrXr.5X1X1X-X;X5X1X5X0 # # w.^.W.;.t 8 # # # 1 Z F 5 # 8 & # % N G 5 # # # # 8 N 4 L.# # 5X~.[.3X3X$X;X' ",
"t.l.{.#Xl.c.Q.z.1XfXdXnXpXw.>X9X1X-X-XOX^.;XOX# # # # W.# t # # #     # N C # # # # 4 N B # # # . = # t 4 # # # :XK.~..X.X+X;X/ ",
"0.{.2X#Xz.,.a.`.>XdX^.@X#X@.!.^.+X6X,X-X1X^.qX5X# @ # # # % # # o.L.    t C = = =     9 X = # |.Q.  = % # # # # ;XG.;X.X.X.X}.] ",
"0.^.OX Xz.9XdXzXfXl.{.#X#XX.z.E.E.Q. XR.H.t.z.^.+X. + # # # # r.F.=X,X  - . + +       -     p.|.|.P.  o # # # # =X8.E.+X{..X;XO.",
"0.dXhXhX>Xa.z.Q.z.z. XQ.#X#X@X X@X0X2XE.E.z.^.a.{.a.w * # # 0 R.J.E.=Xh # @ X     @ 5 6 * s +X.X;X>Xf.  O # # G.P.X.} } X.-.W._ ",
"{ k.{.Q.OXgXfXfXnXfXzXmXyXt.z.Q.^.`.hXwX1X4X@X{.i.c.oXl * 0 kX/.w.;XW.-.. o o       O =   s $X.X&X+XzXs.. # p.%X5XqX+Xn.n.m.m.{ ",
") E.z.^.2X<XNXNXNXnXnXNX<X2XQ.l.:X0X9X`.E.W.~.{.a.;.1.u.R uXmX(._ |. Xs.+ # #   X # # O   [.[.&X;XOXjXL.L.X.K.s.v.{.u.s.d.s.m.^ ",
"@.<X2X<XgX1XdXvXnXfXdXdXQ.OXOXQ.+X1X9XOX^. X^.-XQ.Q.y.q.y.s.OX_.} W.Q. X.   + +   X X   _ }.{..X&X{.&X!.-XpX).y.d.b.y.3.4.4.n.^ ",
"A.NXfXyXvXzXzXgXyXOX#X&Xz.^.^.{.+XOX@Xz.K.W.E.W.E.|.|.Q.W.t.s.0.) q.l.` @ @     @ @ @ OX-.v..X.Xv.3XkXpX).vXiX~.<.5.v.s.1.u.b.( ",
"' yXvXgXgXfXyXE.t.-.-.u.0.t.OXl.l.OX`.6.H.E.W.s.a.{.y.a.Q.Q.;X/.) 7.z     .           L...p.v..Xs.v.1X'.lXmXiX X2.>.u.4.4.i.oX} ",
"| yXbXvXgXvX'.R.(._._.OXk.y.z.W.t.Q.-Xo.W. Xa.E.W.a.a.t.l.l.{.uXX.l       X #       o o & P.K.W.a.t.>X(.pXnXmX*X:.>.y.:.:.:.c.7.",
",.[.:X1X@XwXcXgXvXvX-Xl.}.1XvXlX1X:XhX..H. X^.Q.u.Q.{.r. X-X).1Xz .       X @     o X   = = % k &X6X~.8.yXuXiXuXt.u.uX*XuX*Xi.<.",
",.;X+XqX2XqX-X^._.'.W.,.5.2XlXmXgXfXBXZ.t.[.l.s. XE. X~.~.).aX)..         . @     @ X   =       l  X.X8.yXiXsXiX1X{.uX,X<X~.s.T ",
";.;X:X4X;XqX2X/.~.E.q.2.:.y.W.<XuXiXVXA.a.l.W.E.W.K.-X-X X).1X# 2 % +     O # o   o               R 3Xo.Q.=XfXiXiX;XfXfXfXiXn.T ",
"<.+XOXqXqXqXOX).).E.;.;.;.:.<.l.Q. XBXF.r. X{. XE.E.Q.,X>X>Xp.t t t #     l ;.z R # = =           o ;X8.L.l.uXlXMXlXnXnXiXfX XT ",
";.;X X X XoXa.~._.r.u.q.,.y.q.q.q.a.:Xo.0.W.s.Q.;X~.^.>X>X1X# t t 5 @   h s.q.a.[. X3 =             =.{ ^.s.k.,XyXgXiXiX).,XfX^ ",
"E R.E.0.q.s.E 6.>X'.P.s.e.s.W.^.-X*X1X8.{ o.7.0.K.F.8.X.8.# # # # # o & W =.) Q.~.*X*X;             o k P.~.r.y.~.P.A.I.X._ ;.T ",
" XlXMX<Xc.$X} O.s.|.W.p.(.~.Q.^.=X XhX XOX0X;X:X:X`.^.'.1.% # # # # @ u.3.z.( ~.,X*X=X,X#           O * # {.oXXX4X1XeX~.pXiXiXpX",
"lXlXsXiX=X%XeXX.W.~.<X>X).H.W.E.[.+X{.q.k.k.k.c.&XOXQ.OXw 5 # # # # +X@X2XqX/ H.*X=X~.|.~.#         # 8 8 e i.v.oXb.[.|.v.3XzX6X",
"iXlXvXMX,X5XeXX.E.^.W.a.Q.y.y.y.;.s.y.:.u.y.y.y.c.b.z.;.7 % # #   ;. X#XOX0X/ ).=X=X=X*X|.=XL.+   o # t p k d.g.&Xs.~.,XXXa.|.aX",
"XX=XiXsXMXaXeXF.~.^. XE.a.W.a.;.:.l.a.| Q.l.q.y.b.{.;.4 5 # # X @ OXOXOX2XwX] ).<X=X,X|.).*X6X*Xp.# # % t z |.;.2.g.|.5X1X6X=X|.",
"|.[.aXMXmXVXCXF. X>X).~.W.p.a.a.;.,.k.| W.{.{.l.l.@XR t 2 # # = # @X:X:X9XzXZ.P.=X*XuX>X*X=X6X=Xf.# # # % z >X7.2.;.d.[..X.X,X6X",
"aXL.XX,XpXVXsX' 8.G.w.F.G...{ / E ) -.^ t...K.e.@.z.&.7 # #   X R OX2X9X2XjX@. .8.O.8.G.8.8.8.8.# # # @ # I.!.` :.` :.2.g.v.7X=X",
"hXhX=XXXpXVXVX|.:X1X;X=X`.w.e.G.] _ l.;.!.I.o.] ..! &.1 # o   k 9XhX`.9X0XwX/.r.6.^ ! O.F.F.+.] # # X o z Z.O.+.+.g ,.d.2.g.}.|.",
"3XXX=X[.XXBXeXp.{.[..XW.wXxXmXNXnXdXm.5X+XqXjXkX0XQ.e * O   > /.`.OXdX`.2X2XR.l.u.a.;.@XhX1XhX# # #   O nXlXkXcXnXA.:.2.g.2.h.[.",
"h.=X,X,X7XaX).L.[.[.{.3X6XP.,X X1X=X[. X X;X+X=X%Xd # #     @XOX2X:X0X9X9XdXF.z.l. Xy.s..XL.OX# #   O e.1X1X1X9XzXR.W 2.2.2.h.v.",
"s..X6X,X6X6Xa.p.s.L.XX=X6XK.[.a.[.}. X+X.X.X X{.+X% = =   #XOX9X`.Q.9X9XjXgXJ.t.~.W.,.c. XK.0 # = = # hXuX,X-X1XlXP.:.2.2.1.g.h.",
"[.[..X=X6X5XK.a..X[.|..XhXp.s.[.l.[.[.{.+X{.;X|.%X2 5 ;   OX9X9XqX/.9X9X`.9XR.`.>X^.u.k.oXw.X .   = # k e.9X>X>XlX_.` 2.g.d.d.g.",
"d.7.s.s. X1X6.e.|.|.L.|.aXK.|.1X>X[.s.v.[.:X.X X0X# % $   { z.@X2X/.`.`./.'. .Q.'.*Xd.i.u.t.F.      . X O # ' <X9X(.) y.g.s.s.p.",
"s , , , s ] _ _ 6.8.X.8.8.'.MXiXaX;X+X|.|.=X;X|.5X{._ O. .( @.@. . .! , , @./  .Z.+.) -.| t. X*X8.+.F.F.O.O.F.F.hX/., f s , f U "
};
