/* XPM */
static char *result[] = {
/* columns rows colors chars-per-pixel */
"64 64 241 2 ",
"   c #3C1F23",
".  c #4B1E1D",
"X  c #461E1F",
"o  c #531E1A",
"O  c #5A1E18",
"+  c #5D1E17",
"@  c #641E14",
"#  c #6C1E12",
"$  c #53211C",
"%  c #762715",
"&  c #79321D",
"*  c #63291C",
"=  c #411E20",
"-  c #4E332B",
";  c #793328",
":  c #6C2F21",
">  c #74432F",
",  c #76651D",
"<  c #653E42",
"1  c #786647",
"2  c #7A7250",
"3  c #7F5D62",
"4  c #822D14",
"5  c #8C3316",
"6  c #983C17",
"7  c #873E34",
"8  c #AB481A",
"9  c #A34319",
"0  c #B34E1B",
"q  c #B5501C",
"w  c #84442D",
"e  c #88472E",
"r  c #864734",
"t  c #945A3A",
"y  c #964E2C",
"u  c #90731D",
"i  c #C1571D",
"p  c #CA771B",
"a  c #C56A30",
"s  c #8B514B",
"d  c #9B6945",
"f  c #8B784E",
"g  c #8A7855",
"h  c #967B56",
"j  c #8B6D51",
"k  c #A16B48",
"l  c #AC7C4B",
"z  c #A97953",
"x  c #977063",
"c  c #AB7278",
"v  c #AB7A7D",
"b  c #A46A6F",
"n  c #A78A16",
"m  c #D29219",
"M  c #DBB017",
"N  c #D4B233",
"B  c #C58B3C",
"V  c #E4C917",
"C  c #E2C71F",
"Z  c #E8D915",
"A  c #EBE614",
"S  c #EEF413",
"D  c #E3C932",
"F  c #E3CF2C",
"G  c #9B865A",
"H  c #9B854F",
"J  c #A7885B",
"K  c #B78759",
"L  c #BB955A",
"P  c #B28F54",
"I  c #998A65",
"U  c #8D8265",
"Y  c #A59364",
"T  c #AC9A6C",
"R  c #A89569",
"E  c #B39C66",
"W  c #B49D6B",
"Q  c #BC9964",
"!  c #A89972",
"~  c #B39B72",
"^  c #BB8F64",
"/  c #B5A26D",
"(  c #BBA46E",
")  c #BCA468",
"_  c #B6A373",
"`  c #BBA674",
"'  c #BDAA74",
"]  c #BCAB7B",
"[  c #B8A679",
"{  c #AEA473",
"}  c #CC8849",
"|  c #D48D4C",
" . c #CA9458",
".. c #D5AE4E",
"X. c #C29F67",
"o. c #C5AB6A",
"O. c #CCAD6A",
"+. c #C7A766",
"@. c #D4AC6A",
"#. c #CDB26D",
"$. c #CBB06B",
"%. c #D3B36C",
"&. c #DAB56C",
"*. c #D5B96D",
"=. c #DCBC6E",
"-. c #D3B367",
";. c #C3AC75",
":. c #CBAD71",
">. c #C2AD7B",
",. c #C9A775",
"<. c #C5B175",
"1. c #CCB474",
"2. c #C4B37C",
"3. c #CBB57B",
"4. c #CDBA7C",
"5. c #CCBA77",
"6. c #D3B573",
"7. c #DAB671",
"8. c #D6BA73",
"9. c #DBBC73",
"0. c #D3B67B",
"q. c #D4BB7C",
"w. c #DBBD7B",
"e. c #DDB779",
"r. c #D0AE70",
"t. c #E2BC75",
"y. c #E2BF78",
"u. c #DCC34D",
"i. c #E3CC48",
"p. c #DCC176",
"a. c #D6C17C",
"s. c #DCC27C",
"d. c #DFC87E",
"f. c #D6C064",
"g. c #EDDA6C",
"h. c #E3C375",
"j. c #E2C47B",
"k. c #E5CA7D",
"l. c #EACB7E",
"z. c #E8CA76",
"x. c #EAD676",
"c. c #F1D17E",
"v. c #AF7C82",
"b. c #AF8C8B",
"n. c #BBAD82",
"m. c #BEB489",
"M. c #BDA2A4",
"N. c #C5B483",
"B. c #CAB583",
"V. c #CCBB82",
"C. c #C8B98A",
"Z. c #D3BD83",
"A. c #DBBE82",
"S. c #D2BE8B",
"D. c #D2B280",
"F. c #C6B78A",
"G. c #C4ACB0",
"H. c #C8B5B8",
"J. c #C5B0B2",
"K. c #C1A8AB",
"L. c #D4C284",
"P. c #DCC383",
"I. c #DEC984",
"U. c #D4C38B",
"Y. c #DBC58B",
"T. c #D6CA8E",
"R. c #DDCA8C",
"E. c #D4C592",
"W. c #DDCB93",
"Q. c #D8C996",
"!. c #DDD193",
"~. c #DED29A",
"^. c #CFC58D",
"/. c #E3C584",
"(. c #E4CB84",
"). c #EACB84",
"_. c #E2C68A",
"`. c #E3CB8B",
"'. c #EACD8B",
"]. c #E8C785",
"[. c #E6D185",
"{. c #EBD185",
"}. c #E5D18C",
"|. c #EBD38C",
" X c #ECD98D",
".X c #E8D98A",
"XX c #F2D58C",
"oX c #F4DC8D",
"OX c #F2D585",
"+X c #E3CD92",
"@X c #E9CE92",
"#X c #E0CF9B",
"$X c #E5D393",
"%X c #EBD493",
"&X c #ECDA94",
"*X c #E4D49A",
"=X c #ECD59A",
"-X c #E7D99C",
";X c #ECDB9B",
":X c #E7D995",
">X c #F1D593",
",X c #F2DB94",
"<X c #F2DC9B",
"1X c #F4D898",
"2X c #F1CF93",
"3X c #EEE19C",
"4X c #EFE096",
"5X c #F3E39C",
"6X c #F9E49B",
"7X c #F6E597",
"8X c #F4E18E",
"9X c #D7CCA3",
"0X c #DDD3A5",
"qX c #DFD9BB",
"wX c #E6DBA4",
"eX c #EBDCA3",
"rX c #E4DCAA",
"tX c #EBDEAA",
"yX c #E5D5A3",
"uX c #F2DEA4",
"iX c #E8DCB2",
"pX c #EEE2A4",
"aX c #EDE3AC",
"sX c #E7E0AD",
"dX c #F3E4A3",
"fX c #F6E9A4",
"gX c #F8EAA4",
"hX c #F2E5AC",
"jX c #F4EAAC",
"kX c #FAEDAA",
"lX c #F9F2AB",
"zX c #EDE5B4",
"xX c #EAE4BB",
"cX c #F2E5B2",
"vX c #F3EBB3",
"bX c #F5EDBA",
"nX c #F9EBB3",
"mX c #F8F3B7",
"MX c #F7F1C6",
"NX c #F5EECA",
"BX c #DAD4C2",
/* pixels */
"B.vX@X_.P.`.%X6XlXlXlXmX.XC.tXeXuX}.'.,X=X<X<X@X1XgX|.oX7X5XlXzXE.dXuXuXS._.2X1X1X=Xl.OXX.` :XdXfX*X;XuXU.W.!.-XlXfXA.2X'.y.A.'.",
"J k.(.(. X.X`. X&X X X7X.X^.%X|.].(.`.=X>X@X%X%X6X;Xq.(.j.9.).}.] A.].XX%X'.'.).]./.'.OX6.;.W.$X:X:X:X5XpXpX-X$XfX~.7.&.@.&.t.6X",
"g *.p.9.p.(.a.a.(.d.(.8X.X;.e.].j.`.`.'.'.>X`.'.6X|.9.s.).j./.`.2.%X@X_._.'.'./././.].XXw.B.W.;X-X$X+X!.:XeX;X-X-X^.t.&.&.&.t.oX",
"G p.s.h.d.[.d.}..X|.I.[.[.E O.6.w.].w.%X%X=X%XP.|.`.w.(.|.'.(.$X` _.].@X].].].'./.].].1XY.S.$X:X;X:X$X*XT.=X;X3XpXW.O.&.&.&.=.8X",
"G 8.p.*.a.[.[.}.}.5X.Xk.[.2.+X*Xq.s.`.`.|.`.+X`.%XP.1.}.'.>X}.$X>._._.].].]././.]./.].<X$XV.W.:X$X$X.X:X!.$X:X&XpXU.r.%.&.t.@.OX",
"H *.k.k.p.*.*.s.I.&X|.k.x.>.E.Y.0.O.o.( _ ' _ _ Z.T.T q.q.s.P.U.,.].2X/./.A.]./.'.w.Y.2X$X] Y.R.U.L.!.!.L.Z.R.L.L.2.w.6.&.t.e.XX",
"H a.8.p.k.p.d.k.p.(.;X&X7XdX>X4X|.OX6XP.s.,XgXkXkX,XXXP.s.`.3XpX[ A.A.].].].].].].@X`.>XfXY.R.$X-X!.L.] ' ' ' 2.U.2.;.' _ / ;.( ",
"H #.p.h.p.-.f.j.p.k.3X3X.XP.`.`.`.|.<X$X[.).{. X}.,X`.+X X&X7XpX` /.].].].A.y.].].'.'.<X<Xa.z.k.(.p.c.I.-XpX:X&X3XjX$X=X5XdXfX1X",
"f *.*.p.p.p.-.p.p.p..X4X:XP.I.Y.P.`.%XP.P.(.(.'.|.:X=XI.(./.l..X>.Y././.A.]././.].'.2X1XY.k.7.9.h.p.z.p.L.=X*XP.P.<X;X%X=XW.=X7X",
"g #.5.*.*.p.$.*.p.s.[.4X:X(.`.P.8./.XXP.`.$X`.`.oXa.k.j.*.*.*.h.W /.].'.].].2X'./._.=X1XR.(.h.h.h.=.z.-.P.R.+X%XR.`.:X%X=X=X:XlX",
"U #.p.p.*.-.*.*.*.h.k.4XL.1.9.s.6.%.).1.`.:X&X%X`.|.s.(.s.9.=.h.~ A.].].]._.2X'.@X_.@XuXQ.|.).l.h.p.h.$.P.I.+X`.P.`.Y.Y.%X<XdXmX",
"G ) $.*.$.$.1.o.o.o.#.I.5.N.1.Z.%.#.h.' $X`.|. X&X&X(.).s.j.l.h.Q 0.0.D.e.A.@X+X_.].A.2XY.k.G j.h.=.h.1.+XP.(.%X(.|.*XR.`.;X%XlX",
"{ p.p.8.a.L.<.( <.2.2.V.4.m.E.T.) +.*.E +X|.`.XX,X}. X%Xk./.s.{.Z./.R.P.s.A.W >.N.~ >.B.N.0.  s.a.$.-.) W.`.a.(.Y.q.:X%XP.P.$XgX",
"Y ~.eX;XaXjX;X|.,X8X8X>X X,X>X<X>X,XXX;.R.&X`.R.,X=X`.(.(.| | | } '.(.|./.,X+X#XuX2X_.<X<X,XL.&X%X(.8.E U.`.P.9.(.(.9.P.`.$X+X X",
"U zXaXaXzXcXiXA.XX).|.`.s.(.}.|.|.&XfX4.R.;X|.%X6X;X=X}.a i i q i } /.'.(.%X`.Z._.].Z.e.w.e.w.P.eX;X%X' E.`.$XP.s.s.s.6./.`.$X*X",
"U zXbXzXzXxXiX+.l.(.).].(./.'.>X%X|.lXV.!.dX|.z...,X;X&Xi t. X|.0.7./.|.>X;XP.O.0.y.]./.].Y.`.w.y.'.&Xn.+XR.`.P.P.w.d.#.%.9.%XxX",
"I aXaXtXzXbX0Xo.t.j.).'.|.'.%X].@X].7X2.U.:X;X%X).| ;X<X .|.}.}.q.).P.`.%X;XZ.A.D.D._.A._._._.Y._.>X=X] `.+X=X`.Y.I.|.q.#.#.p.dX",
"g Z.-XrXaXzX0X+.7.9.].XX`.'.>X%X%X).oXL.4.!.$X}.x.} `.`.}.}.}.I.;.'.`.(.>X%X3._./.A.2X+X_.@X+X_.Y.@X1X_ `.R.`.$XW.`.}.`.Z.q.s.k.",
"I ` 3.L.E.rXn.o.`.j.'.<XeXY.'.|.|.l.OX/.L.!.T.@.V  .2.2.4.4.Y.L.E ;.P.Z.Z.+X` /.@X_._.@X@XyX=X=X+X+XhX~ L.Y.4.B.2.' / ( / ( q.$X",
"'.|.I.(.&XnX9X` /.s.}.$X;X%X]./.j.j.).y.!.-X=Xi g.&X:XdX;X,X X7X|.{.&XdX;XeX! /.2X@X+X+X=X_.#X2X1X<XdXZ.I.`.Y.`.&X1.1.).k.&XfX6X",
"I.}.(.P.%XbX9X' `.%X=X;X<X>XP./.w.y.l.2.+.o.1.m f.%XwXbXhX+X-.-.=.l.|.fXmXMX! B._.#X=X+X+X=X@X_._.=X=XA.].s.).j.k.p.I.k.[.|.|.,X",
"a.|.(.:X}.OXT.' '.&X'.'.%X%X(.]./._.=Xo.) +.} M 4.Y.*XmXeXN 5.*.L z.3XmXmXxX! S.+X+X+XuXQ.2X+X@X_.+X=X0.9.7.6.y.).6.a.|. Xs.a.z.",
"p.p.d.k.[.8XT.;.'.%X%X>X%X].]./.%X%XjXV.<.<...C Y.T.^.zXhXM i.I.l K %Xg.x.x.! X.D.@X2XyX#X=XyX=X#X=X*XA.r.7.w.A.'.3.s.s.(.I.a.z.",
"[.`.`.(..X4XR._ w.`.%X%X=X`.>X|.'.'.{.2.<.2...V i.Q.U.*X;Xz.i.x.=.H # u jXhXP S.z 7 _.=X=XeXuXyX+X=X#XY.w.6./.P.'.1.d.k.(.[.P.s.",
"(.(. X|. X,X!.G R Y T ] N.' / Y G G ` i T / _ N V D V.$XpXpXV a.=.h.b ; ] bXL ] >.# w S.S.S.S.S.S.+XQ.S.=X/./.A.`.( *.k.k.{.I.a.",
"}.I.}.`.d.c. XY.jXfX;XhXpXY.;X*XR.Y.'.V i T.N.n.a.V <.jX;Xi.k.s.+.@.c c H.:Xq.#.3.> * ! ! R R I x ~ N.[ B.>.W ;.>.G *.p.j.j.}.(.",
"oX%X X(.h.&XT.U.=X*X$X#XjX+X:X$X,XdX;XV i 5X<XdXV C <.$X|.V *.a.=.c c H.H.r ;.p.9.6.  5X#X`._.]._.@XeXS.Y.R.S.E.rXY -.8.a.(.}.I.",
" X|. Xk.h.h.a.B.=X#XR.R.fXZ.:X+XY.%X$XV :X;X`.|.V i.o.*.F A V -.c c v H.@ r ( (.q.A.  <XZ.i t.r.-.t.].Q.~._.'.uXNX~ j.s.|.[.4X4.",
"(.s.d.p.p.[.^.V.+X+X+XR.@XZ.=X:X:X:X%XV F $X%Xx.g.`.5.D V S Z e.c c G.H.; ; >.A.Y.e.  eXa 7.`.w.r.%.7.(.<X%X).uXaX{ d.I.k.}.&X:X",
"`.P.8.*.=. XU.C.W.#X+X*X=XP.<X&X$X%X$X}.}.V %Xc.Z C u.V A S M b c c H.H.b.# 3./._.A.  uXD w.'.].A.w.y.r.t.e.e.(.|.] I.I.}.|.&X&X",
"4.5.a.R.:XjXN.^.W.+XW.+X=XU.$X&X=X$X$X5Xx.S N n Z S V V m m K c c K.J.v s # d `.;Xh   `.A 3././.w.y.]./.w.].w./. X` I.:X}.R.I.`.",
"E / Y I Y T.N.N.B.B.3.3.;.V.%X$X:X5XT.,.Z S V m p S S i 6 B c c M.M.# x # & i 6 d o   ,.S V w.A.w.6./.]./.(.`.(.;X( ' / T Y L.T ",
"U.gX5X3X,X,X}.|.[.#.P.P.8.V.%X;X+X1X# V A V p i i p M i 7 c c v.J.H.M.# = 5 5 0 @   o m S A /.w.).A./.]./.].@X@X<XS.L.Y.U.3.-X' ",
"1.5X$X|.&X:X|.}.aXzXpXbXV.4.$X:XW.0.# i M 8 8 5 q i 9 ; c c v.b.H.K.# = 0 i i #   o i i i F A.].'.].].%X@X+X@X@XuXZ.<X|.'./.I.! ",
"<..X.XI.(.d.d.3XmXzXjXMX0XV.<X;X0.# i 0 0 # # # # 9 ; c c v.H.; ! # # # # 9 q # $ % q i i q O.(.'.%X+X+X@X=X@X<X<XY.I.>X>X|.%X! ",
"4.a.(.[.s.s.I.s.&XhXpXnXrX2.}.3.# # # # # '.%X# # c c c G.H.J.b H.4 0 = # # # o : 8 % i % X O # ].@X%X@X+X@X=X@X=Xq.Y.'.XX|. X! ",
"<.(.:X[.a.#.a.R.~.pXI.|.[.] T.@ # % q q 7 ].<X>.b v.v.K.H.J.; j # i @ - # = , o i 8 # # =     = # w `.+XdX+X@X@X%XB.%X'.`.'.).T ",
"2.(.[.}.L.3X3XvXaXI.I..X.X' a.L.# # 4 # 9 8 r @ j K.H.H.J.% 5 6 # # # # = # o % % # # # # # # 8 8 6 e +X=X#X+X+X+X>.P.|.].'.&X] ",
"$.aXjXpX$Xq.a.I.a.a.(.I.[.I. X(. X,.# # i % # j - H.H.s s # # 5 5 # @ # # # o # # # 0.,XA.,.5 i 4 # # W Y [ n.N.S._ ( ( ( ;.P.W ",
"/ p.(.d.!.pXhXsXnXaXfXMXwXa.a.L.`.`.# # # # # ,.= ; # @   . @ # # # @ n n O @ # @ 0.`.%X`.k # # # # Y.].A./.>XXX<X5X|.l.l.z.z./ ",
"T L.d.R.:XwXmXvXlXbXvXmX-X:XI.d. X# # # # # d 0.t $ . O #   . @ # # . + + @ @ = 3.`.X.# # # # # L `.fXq.`.R.q.w.k.(.q.9.7.9.l.T ",
"] ;X!.-XpXwXpXjXjXaXpXpX`.}.|.I.|.@ * j J k R.'.1.# @     X X =         1 j j R._.>.# # # # y 0.'.'.OXT.$XeXQ.6.e.z.6.7.=.8.l.R ",
"m.vXfXwXaXjXvXsXwX!.l..Xa.T.R.(.|.}.:XL.q.P.P.A.@ # @     X = @ # # w /.Z.(.`.(._.  = # # # t.'.j.XXfXwXQ.zXtXY.O.@.h.9.%.9.z.Y ",
"! sXzXsXsXpXsXL.4.$.o.8.$.4.}.a.s.`.}.;.V.P.J # O   # # @     # d 1.1.6.1.P.Z.3.Z.  @   @ # r.).e.j.;X*XhXbXaX`.*.@.*.=.=.9.).( ",
") *XxXzXsXsX0Xa.E.E.E.}.p.1.s.P.5.I.$X' P.z   = o #     = # # eX_ 9.w.9.9.q.>.` 2.= 7   # # q.P.A.6.*XE.eXnXbXW.O.+.0.+.+.+.h.1.",
"6.(.:X;X XgXvXpXzXzX$Xj.{.;XcXhX:X&XjX_ z         .           -XZ.|./.9.l.).9.uXdXZ.- iXQ.|.'.{.|.,XY.] yXtXtXwX8.8.eX+XwX+X9.O.",
"1.%X|.5X:X5X:XT.W.~.P.%.$.%XhXbXaXtXMXn.=         . @       O + e q.s.1.O.9.) &.y.A._._.~.Z.0.7.8.).}.2.tXeXtXtX*X).wX:X-XY.9.J ",
"O.|.&X,X%X5X:XT.T.Z.1.*.o.%.P.-XwXaXNX# 6 % +     X @     $ .     o & L 7.8.( q.e.w.6.w.+X@XP.A.Z.`.>X' I.+XaXrXhX$XaXaXaXaX[.J ",
"O.|.`.3X5X6X$XQ.W.L.O.#.O.o.O.a.P.+X9Xi i i #     X @     @ .         o L 6.O.q.].P.w.P./.`.%X@XY.`.>X>.Z.s.dXcXcXhXnXzXtXaX`.Y ",
"$.&X`.`.(.).q.Y.Q.4.6.1.$.6.1.6.1.w.# i i 0 @     o # .   +               @ K A./.+X_.Y.A.`.`.`.`.A.)./ `.q.w.%XwXaXaXtX`.-XuXY ",
"Y L.L.<.6.s.Y ( $X*XZ.w.3.P.P.R.'.# # # # # o & w w 2.; > #                 @ ^ R.+X+X+XY./.`.Z.s./.).E S.Y.3.6.U.^.m.N.( W :.J ",
"R.jXcX-Xh.oX( ] q.`.P.4.U.P.Y.R.6.4 # # # # # >X&X$XT.~.(. X#                 # ^ +X$X1X,X=XY.`.P.w.OX%Xs.(.{.).,X;X9XY.wXzXtXyX",
"hXcXiXtX%XoX9X` Z.P.-X;XW.V.P.P.y 0 # # # # s.s.{.|.I.}..X.Xd.#             O # # K Y._.Y.>X%X`.].P.].Z.$Xq.7.k.{.k.].`.j.%XjX<X",
"tXhXiXcX=X<X9X] P.R.P.q.P.8.1.X.q % # #   X.*.%.p.k.a.I.s.d.[.a.w.O.# + =   @ 5 i 6 @X_._.@X@X_.`._.'.Y.wX#X9.9.).e.Y.%X_.w.].uX",
"].@XtXcXcXhX9XN.R.R.+XV.w.P.+.9 8 # # . @ 8.1.6.k.(.d.[.k.d. XI.}. X$X}.P.t # 6 i 8 =X+X+X+X<X+X`./.].U.tXaX_.O.=.t.+X<X<X=X@X_.",
"_./.uXcXbXNXBX>.`.*X+XY.L.0.K i 4 # #   # P.(.s.s. X5.[.I.[. X$XI.&X:X&X;Xy # # 9 8 yX*X+X@X=X@X+X+X+X*XnXcX$Xr.&.O.6.].].'.@XuX",
"dXS.].=XrXNXqX~ >.B.2.2.3.` K 0 # #   $ k ' q.3.] a.<.k.[..X[.4X:X|.$X:Xe # # # # y ;.B.>.>.>.] N.B.] N.rXrXU.Q +.E +.&.t.l.'.@X",
"uXdX+X).uXNXNX_.&X-X$X%X~.;. .5 # $   t L.F.] ~ _ G 5.[..XT.I..X3XfX:X4X> # # @ # Y I ] N.N.[ [ ~ R ~ N.N.n.[ [ _ g r.8.&.t.]._.",
">X].@X/.'.MX9X0.`.].'.P.6XcX^ # $   > <X|.5XfXgX7Xd.( a.(.}.$X}.T.!.5X!.# # $   l q.O. XdX<XfXdXdXlXfXkXlXdXkXlXlXm.+.&.t.&.y.].",
"e.>X=X2X@XdXE.A././.].%X<Xd # #     Y.}.}.$X$X|.,X(.<.I..X X4X.X:X4X5X# # .   # P.`.6.h.'.Z.|.`.R.$X:X3X;XwX;X;XjX^.L %.&.7.y.j.",
"y.].<X=X1X>XZ.0.w.A.].%X<X% =     '.`.|.'.'.`./.|.Y.<.P.[.I..X~.R.R.4X# #   O P T.P.%.s.`.V.;X:XW.`.$XdXpX:X$X;XpX^.+.7.&.&.t.y.",
"A.].'.@X1X6XZ.w.'.Y./.'.5X6 8 ;   ]././.%X(.%X(.oX:X2.I..X!.3X4X5X!.:X. .   + w k /.9.9.{.3.$X;X$X}.:X:X-X;X*X:XjXT.Q &.t.6.7.y.",
"0.6.w.w.Y.:X;.0.]._.A._.uX# % *   Q w.w.].%X@X`.4X:X' L.a.L.a.4X!.!.T.        . . # & h 8.4.:XpX:X:X$X;X!.;XpX-XpX^.E #.w.w.0.0.",
"f 1 1 1 j ~ W W >.] ] >.>.B.F.N.N.] |.`.`.'.%X`.,X4X^..XT.a.] ] { { I 2 2 I h U I I h G ) 4.+X}.Q.-XpX-X-X3XpXdXdXT.1 f j 1 f J "
};
