/* XPM */
static char *result[] = {
/* columns rows colors chars-per-pixel */
"64 64 212 2 ",
"   c #776746",
".  c #78704F",
"X  c #7C7351",
"o  c #806F4C",
"O  c #8B784E",
"+  c #897753",
"@  c #8B7956",
"#  c #917D58",
"$  c #9B854F",
"%  c #97855D",
"&  c #9A865C",
"*  c #9E8957",
"=  c #A38C5D",
"-  c #A48B56",
";  c #A9935D",
":  c #B99B5F",
">  c #8D8265",
",  c #998660",
"<  c #9C8C6A",
"1  c #978B63",
"2  c #A59364",
"3  c #A99464",
"4  c #A7936A",
"5  c #AC9C6C",
"6  c #AA996A",
"7  c #B39C65",
"8  c #BB9D61",
"9  c #B49D6B",
"0  c #A69971",
"q  c #AC9D72",
"w  c #B29E72",
"e  c #BCA265",
"r  c #B5A26D",
"t  c #BBA56D",
"y  c #BFA96C",
"u  c #B4A066",
"i  c #AEA273",
"p  c #B5A373",
"a  c #BBA674",
"s  c #BDAA74",
"d  c #BCAB7B",
"f  c #B5A779",
"g  c #BCB17C",
"h  c #C3A464",
"j  c #C7AB67",
"k  c #CBAC66",
"l  c #C1A76A",
"z  c #C5AB6A",
"x  c #CBAD6B",
"c  c #C8A664",
"v  c #D1AF6C",
"b  c #CDB16D",
"n  c #CBB06B",
"m  c #D3B36C",
"M  c #DAB46D",
"N  c #D6B96E",
"B  c #DCBC6F",
"V  c #D3B367",
"C  c #C3AC75",
"Z  c #CAAD71",
"A  c #C2AD7B",
"S  c #C2A770",
"D  c #C5B175",
"F  c #CCB474",
"G  c #C4B37C",
"H  c #CBB57C",
"J  c #CEBA7C",
"K  c #CBB978",
"L  c #D3B573",
"P  c #D9B771",
"I  c #D6BA73",
"U  c #DBBC74",
"Y  c #D3B67B",
"T  c #D4BB7C",
"R  c #DBBD7B",
"E  c #E1BD75",
"W  c #E2BF78",
"Q  c #DCC176",
"!  c #D6C17C",
"~  c #DCC27C",
"^  c #DEC87E",
"/  c #E3C475",
"(  c #E2C47B",
")  c #E4C97D",
"_  c #EACC7E",
"`  c #E9C977",
"'  c #F1D17E",
"]  c #333790",
"[  c #5633A8",
"{  c #326DD9",
"}  c #27ABFA",
"|  c #79C8FA",
" . c #BBAE81",
".. c #B6AB81",
"X. c #BFB387",
"o. c #BEB489",
"O. c #C0AE82",
"+. c #C4B483",
"@. c #CAB582",
"#. c #C5BA83",
"$. c #CCBB82",
"%. c #C4BA8B",
"&. c #CEBD8B",
"*. c #D3BD83",
"=. c #DBBE82",
"-. c #D3BF8B",
";. c #CBBF92",
":. c #CBC18B",
">. c #CFC487",
",. c #D5C285",
"<. c #DCC483",
"1. c #DEC984",
"2. c #D5C38B",
"3. c #DBC58A",
"4. c #D6CB8E",
"5. c #DDCA8C",
"6. c #D4C592",
"7. c #D5C993",
"8. c #DDCB93",
"9. c #DCCC9A",
"0. c #D8C896",
"q. c #DED093",
"w. c #DCD19C",
"e. c #D2CA8E",
"r. c #E3C584",
"t. c #E8C785",
"y. c #E4CB84",
"u. c #EACB84",
"i. c #E2C68A",
"p. c #E3CC8B",
"a. c #EACD8B",
"s. c #E6D185",
"d. c #EBD185",
"f. c #E5D18C",
"g. c #EBD38C",
"h. c #ECD98D",
"j. c #E8D98A",
"k. c #F2D383",
"l. c #F1D984",
"z. c #F2D58C",
"x. c #F4DC8D",
"c. c #F8D98F",
"v. c #E3CD92",
"b. c #E9CE92",
"n. c #E0CF9B",
"m. c #F1CF93",
"M. c #E5D393",
"N. c #EBD493",
"B. c #E7D995",
"V. c #ECDA94",
"C. c #E4D49A",
"Z. c #ECD59A",
"A. c #E6D99B",
"S. c #ECDB9B",
"D. c #F1D593",
"F. c #F2DB94",
"G. c #F2D799",
"H. c #F2DC9B",
"J. c #F8DB97",
"K. c #F4E18E",
"L. c #EEE19C",
"P. c #EFE096",
"I. c #F4E395",
"U. c #F3E39C",
"Y. c #F9E49B",
"T. c #F4EA9C",
"R. c #FAEB9E",
"E. c #FAE396",
"W. c #D5CBA3",
"Q. c #DBCFA6",
"!. c #DCD2A3",
"~. c #DDD3AA",
"^. c #DFD9BB",
"/. c #E5D5A3",
"(. c #E5DAA4",
"). c #EBDCA3",
"_. c #E4DCAA",
"`. c #EBDEAA",
"'. c #F2DEA2",
"]. c #F1DFAC",
"[. c #EADEB2",
"{. c #E0D7B4",
"}. c #EDE2A4",
"|. c #EDE3AC",
" X c #E7E0AD",
".X c #F3E4A3",
"XX c #F5E9A4",
"oX c #F8EAA4",
"OX c #F2E5AD",
"+X c #F4EAAC",
"@X c #F9EDAA",
"#X c #FAF2AB",
"$X c #F7F1AB",
"%X c #EDE5B4",
"&X c #EBE6BD",
"*X c #E6E0B3",
"=X c #F2E5B2",
"-X c #F3EBB3",
";X c #F5EDBB",
":X c #F9EBB3",
">X c #F7F1B3",
",X c #FAF2B4",
"<X c #F9F3BD",
"1X c #FBF6B6",
"2X c #DAD4C2",
"3X c #EFE7C0",
"4X c #F7F2C5",
"5X c #F9F1C1",
"6X c #F7F2CA",
"7X c #FAF6D2",
"8X c #F0E7C4",
"9X c #E7F3F3",
/* pixels */
"@.:Xb.p.3.p.M.Y.#X#X#X1XB.:.).`.'.M.a.G.V.'.J.b.G.XXh.x.T.U.@X=X6..X'..X-.i.m.J.'.G._ k.e S M..X@XA.A.U.2.8.q.A.$X+X=.m.t.=.W i.",
"= ( y.y.h.j.s.h.V.h.h.I.s.:.N.g.r.y.p.N.G.a.b.V.Y.S.T t.) I _ f.d =.t.b.D.a.a.t.t.t.u.k.L O.v.M.M.B.Z..X}.}.B.M.XXw.P M M M W Y.",
"# m Q B Q 1.! ! y.^ y.K.f.C R _ / a.y.a.a.D.i.p.Y.f.R ~ u.( y.p.O.Z.a.i.t.a.b.=.=.r.r.z.Y $.8.A.).M.5.M.M.}.H.A.A.:.( M M M E c.",
"# Q ~ / ^ s.^ s.j.f.y.d.s.7 x L R t.<.V.N.V.N.i.g.y.R y.g.a.y.M.a r.a.a.i.t.t.a.r.t.t.J.i.-.v.B.A.B.M.q.4.Z.S.S.U.8.v M M M M K.",
"& Q Q N Q _ _ s.f.U.f._ d.G M.C.T ( i.i.f.i.v.p.N.<.Z h.a.V.y.M.A i.t.t.t.t.r.r.t.r.t.H.B.G 8.B.M.M.j.M.q.M.B.S.}.2.v M B E v ' ",
"$ N ) ) Q N Q ^ 1.I.f.^ _ G 2.3.J x l a a s a p *.5.7 J Y =.3.4.S t.m.r.t.=.r.r.a.R i.N.M.G 2.8.4.,.q.q.>.,.1.,.,.A =.L M E W z.",
"* Q Q Q ^ Q ^ Q Q y.S.F.I.S.V.F.z.k.Y.3.~ F.oX$X@XJ.g.<.<.p.S.L.w r.=.t.r.t.t.t.t.m.p.G.+X3.5.j.A.5.,.s f s s G 2.G C s p r S w ",
"O N N ^ Q N Q Q I _ T.L.j.3.p.p.p.p.U.f.a._ d.z.f.F.p.M.j.V.Y.}.w i.t.t.t.r.W t.t.a.p.G.G.Q / _ r./ K.^ B.}.A.V.L.+XM.V.H..X@XG.",
"X Q N Q Q Q b B Q Q j.I.B.3.<.<.<.p.g.<.<.i.y.f.h.B.B.1.r.) _ h.O.i.r.r.r.t.r.r.t.t.m.G.3.r.B Q / / / Q ,.Z.M.<.1.H.).N.Z.8.B.Y.",
"+ n N Q Q Q V N Q ^ s.P.B.p.y.3.L y.z.<.p.f.i.a.z.~ ) ) N N N / 9 t.t.m.r.t.m.t.r.a.G.G.5.r.Q / Q Q ` V <.5.M.Z.p.5.M.N.S.Z.V.#X",
"> b Q Q N V N N N Q ) P.,.F U ~ L m _ F M.V.N.B.a.f.~ y.~ Q B Q 9 =.t.t.t.a.m.i.i.v.b.'.8.g.y._ / / / b <.1.v.i.<.p.3.3.M.H.'.1X",
"% y n b n k F z j j F ^ F +.K *.m x ( s M.p.h.g.F.V.r.f./ ~ _ / e Y Y @.Y =.N.b.v.i.=.m.5.r.^ / / B / F v.<.y.M.r.h.C.5.i.Z.Z.#X",
"u Q Q I R ,.D r s D G J K o.6.7.e h P 9 M.a.p.z.V.a.h.B.) r.~ d.@.r.1.1.=.*.9 d O.S A @.@.Y Y ~ Q n k t v.i.~ y.1.Y V.M.3.~ N.XX",
"2 w.).A.|.+XS.g.I.I.I.F.x.I.F.V.z.F.x.C 3.V.f.r.F.Z.i.y.y.h.z.u.P m.y.a.u.F.p.C.).m.i.G.G.F.V.V.f.y.I u :.p.<.U y.y.I <.p.M.f.g.",
"> %X|.|.%X%X[.=.k.u.g.i.r.y.a.g.g.V.XX$.8.S.B.B.U.F.V.g.1.f.y.y.Z ( r.a.i.N.i.-.i.t.Y W R R W r.).S.B.C 3.p.M.<.~ r.~ P r.y.M.B.",
"> &X-X-X%X;X{.z _ y.u.y.r.r.a.N.N.g.$X$.8.T.Z.N.N.S.V.S.p.V.h.f.Y r.r.N.G.V.<.x Y =.t.r.i.i.i.=.W a.S.d C.3.p.<.,.~ <.n m R M.3X",
"<  X|. X-X;X{.c E ( u.a.g.a.N.t.a.i.U.K 2.B.A.N.B.S.V.F.B.y.g.f.J a.y.a.D.S.=.=.Y =.i.r.i.v.i.-.i.m.H.d f.v.Z.p.5.3.B.T b m ~ U.",
"+ T A._.|.*X~.h P U t.g.p.a.G.D.V.u.x.,.H q.f.N.Z.q.f.p.f.a.M.1.D u.i.i.N.m.@.i.=.=.m.i.i.b.b.i.-.D.V.w p.3.i.M.5.p.p.p.*.Y <.) ",
", a K *.2._. .l a.( p.H.'.3.a.g.a.( z.r.:.q.4.v.Z.J G H $.H ,.,.7 C -.T *.v.w i.b.i.i.n.v././.m.v.N.OXw <.3.J J G l r y r t J f.",
"g.B.r.y.H.:XW.S <.=.g.M.S.N.r.r.( ` ' R q.A.| | 9X9X9X9X9X9X9X9X9X9X9X9X9X9X9X9X9X9Xv.v.m.i.b.m.G.H.H.-.3.f.3.i.V.K F u.y.V.R.R.",
"1.p.y.1.B.<XW.s y.N.N.H.H.G.r.r.R ( _ D j { [ { { 9X} } | | | | | | | | 9X| | | | 9X9Xv.v.Z.b.i.i.Z.S.=.u.R t.r._ ~ y._ y.h.N.F.",
"~ g.y.B.f.' 4.C a.S.b.a.N.g.i.r.r.i.Z.y { [ { { | 9X} } | | | | | | | | 9X| | | | | 9X9X9.b.v.n.i.v.Z.@.P P m R u.b ! j.l.~ ~ / ",
"Q Q ^ ) y.K.4.C a.N.N.G.N.i.t.r.N.V.+X| [ { { { 9X} } | | | | | | | | | | 9X| | | | | 9X9XZ./.Z.n.Z./.=.v P R r.a.K ,.~ y.^ ~ ^ ",
"s.p.p.1.j.I.5.p ~ i.g.N.V.a.N.g.t.t.| [ [ { { | 9X} } | | | | | | | | | | 9X| | | | | | 9X9XG.Z.v.m.v.3.=.L r.<.a.Z ~ _ y.y.^ ~ ",
"r.y.h.f.g.E.q.% 3 2 5 d +.s p 3 & = | | | 9X9X9X9X9X9X9X9X9X9X9X9X9X9X9X9X9X9X9X9X9X9X9X9X9X-.6.-.b.0.-.Z.r.t.=.i.a m ) ) d.y.~ ",
"j.1.f.a.^ ' j.5.+XXXZ..X}.3.S.M.9.3.| [ { { { } 9X{ { } } } } } } } } | | 9X| | | | | 9X9X9X< < , w O.a @.A 9 a C & N Q ) ~ f.y.",
"x.h.B.r./ V.8.2.Z.C.C.C.:Xp.B.M.V.T.{ [ { { { } 9X{ { } } } } } } } } | | 9X| | | | | 9X9X9Xi.t.=.b.).-.3.3.=.0.`.2 V P Q y.s.1.",
"g.h.h.) Q / ! @.Z.v.0.3.XX$.V.p.3.N.{ [ { { { } 9X{ { } } } } } } } } | | 9X| | | | | 9X9X9Xu.m v W r.9.9.v.a.].8Xf ( ~ j.s.P.$.",
"y.~ ^ Q Q d.2.&.9.v.v.3.N.,.V.A.M.A.{ [ { { { } 9X{ { } } } } } } } } | | 9X| | | | | 9X9X9Xi.Y v v E i.H.b.t.'.`.f ~ 1.<.f.V.B.",
"p.<.I N N K.2.#.9.v.v.C.N.-.S.Z.M.N.| [ { { { } 9X{ { } } } } } } } } | | 9X| | | | | 9X9X9Xm.t.=.R W v E R R y.g.d 1.y.f.f.V.F.",
"J K ! 5.B.XX#.&.v.8.8.v.G.2.N.V.B.v.| | } } } 9X9X9X| | | | | | | | | 9X9X9X9X9X9X9X9X9X9X9Xt.r.R =.t.=.W r.=.y.h.a 1.j.5.f.1.p.",
"7 r 2 1 2 7.X.+.$.@.H H C $.M.N.V.U.| [ [ [ [ [ } [ [ } } } } } } } } } } 9X{ { { { { { { 9XR W R P t.t.r.y.i.r.F.p g u 5 2 >.5 ",
"2.oX.XV.P.V.g.j.y.F ,.y.L $.B.V.M.H.B.{ [ [ { { 9X[ [ { { { { { { { { } } 9X{ { } } } } 9XY r.R u.=.r.t.t.i.b.m.H.-.<.3.2.H S.f ",
"K U.j.h.V.Z.g.f.}.-X}.;X$.J N.M.8.M.F.f.{ [ { { { } [ { { { { { { { { } } 9X{ { } } } 9X .H r.t.a.t.i.b.b.i.b.C.H.*.H.N.a.<.y.0 ",
"Z f.f.1.y.~ / L.<X=X+X5X!.$.U.S.B.M.B.G.A.] [ { { 9X[ [ { { { { { { { } | { { } } } 9XXXO.T r.r.a.N.v.i.b.b.C.G..X3.<.D.z.g.N.0 ",
"J ~ y.s.~ ^ 1.! A.|.}.-X_.G M.A.B.Z.M.f.p.N.] [ { { } [ { { { { { { } } 9X{ } } } 9Xi.XX@.Y r.<.t.a.Z.N.b.b.Z.b.N.*.r.p.D.g.V.5 ",
"D s.V.y.! b I 8.M.}.5.h.s.g 2.f.N.F.Z.M.B.1.U.] [ { { } [ { { { { { } | { { } } 9XM.3.A.&.Z r.i.i.i.v.v.'.v.b.b.N.@.B.a.t.a.a.5 ",
"G 1.f.f.1.A.}.>X}.1.1.g.j.s ,.,.<.<.8.,.$.K ,.y.] [ { 9X[ { { { { } } 9X{ } } 9XM.5.3.V.G S =.i.i.i.p.v.v.C.v.v.v.C <.g.y.a.N.d ",
"D }.|.XXq.! ! ~ ^ ! y.1.s.s.h.s.V.V.V.,.,.<.4.~ y.] [ { } [ { { { } | { } } 9Xa.<.3.<.V.p.<.N.a.V.C.@.9 4 f A @.-.p t a t Z <.9 ",
"u Q y.^ M.}.|. X>X|.|.5X!.! R ,.f.5.XXT.L.F.d._ I ` ] [ 9X[ { { { } 9X} } | <.p.V.M.i.V.p.u.z.k.g.z.@Xt.=.r.V.D.H.U.d._ u.` ` r ",
"u ,.~ 1.A.A.1X-X>X;X-X>XA.B.1.<.h.A.A.f.2.<.3.y.T x m ] [ } [ { } | { } 9X3.i.p.p.v.! i.*.y.y.k.g.a.XX*.r.5.*.R ) t.T R B / _ 3 ",
"g A.B.A. XA.}.-X-X|.}.}.1.f.f.1.h.I.T.f.5.v.1.M.1.<.K F ] [ } [ } 9X} | p.p.f.i.p.p.3.y.T t.i.a.g.a.l.2.C.).0.L P ) L P m P u.3 ",
"o.;X}. X%X+X+X X(.f.y.j.! 5.y.s.g.f.h.,.T 3.-.~ ,.a.p.<.<.] 9X} | } { <.*.y.a.3.<.M.a.f.y ) m.g.( z.oX).5.%X|.<.v V / / m I ) 3 ",
"0 (.%X X|.|.(.,.K n j Q D J f.! ~ p.f.s $.2.<.R T y.L R r.<.] } 9X{ K L F <.T J T J H T p Y ( t.R ) S.w.=X;X|.p.m k P P P U _ t ",
"8 A.&X*X X|.!.$.7.7.7.5.Q F ~ ,.J 1.M.s 3.i.T ! ~ R ! D ~ T f.] { U R R I T C a H 2.Q.!.9.2.T <.T K C.0.).-X;X8.k k Y j j h / K ",
"L y.V.S.h.XX$X}.%X%XM./ d.S.-XOXB.V.XXp J f.1.3.T <.1.$.p.M.p.A.T h.( U ) k.R '.XXH.'.;X_.N.t.k.k.G.3.A /.`.`.(.Y P ).v.).v.U n ",
"F N.g.U.Z.U.B.8.0.9.<.m m M.OX;X`. X6X .T <.<.! a.,.p.3.5.p.}.8.*.T R F v U u P R W i.t.n.*.Y P I u.t.+.).`._.`.A.t.).C.A.3.U - ",
"v B.V.F.M.T.M.4.5.,.F m j m <.Z.).`.6XX.K ~ ~ 3.,.,.f.v.v.8.L.w.H R R L P P l T R R L T b.M.<.=.-.i.V.s y.v.|.`.|.M..X`.%X|.u.= ",
"k g.f.L.L.T.f.8.8.<.x x x z x ~ <.M.5XX.J a.y.i.3.,.1.A.B.C.S.W.Z m R I b P S R t.<.R =.r.i.N.M.3.p.G.A *.~ H.=X=XOX:X=X_.`.g.= ",
"x N.p.p.a.u.Y 2.0.$.L L b L F L L T V.s G ! R <.f.3.5.M.M.A.).9.S c k B P R Z T i.p.p.3.<.a.p.i.y.R u.r p.*.~ N./. X`.`.v.A.'.4 ",
"; $.,.D F ~ ; a M.n.<.T K <.<.5.M.v.H.G r y C H *.H G a g G 2.X.3 ; e u 8 : 7 <.3.v.v.v.3.i.p.=.~ ( u.7 ,.3.K F 3.:.%.+.a 7 Z = ",
"p.:X=XB./ c.t s *.y.<.J 6.<.3.3.p.v.U.i.f.I.N.F.V.w.3.w.s.V.XXXXf.~ Q I I R 3 3.Z.v.M.G.F.Z.3.p.<.R z.N.~ u.a.u.I.A.Q.3.).%X`./.",
"%X=X[.[.b.x.W.a ,.3.A.B.8.*.<.<.<.g.y.F R ~ ~ / z.d.1.f.j.j.^ Q d.d.j.h.j.T.5 $.p.b.3.i.3.D.b.i.i.r.u.*.M.T E ) a.) y.i.W V.+XG.",
"].=X%X%XC.H.Q.d <.i.<.*.<.L F F b I P y I P m m Q _ ! <.^ ^ y.! ^ s.y.s.f.P.i 7.b.C.b.i.i.p.b.v.p.r.t.6.).n.I P ' W 3.Z.i.R t.'.",
"r.a.`.=X=X'.W.+.3.5.8.*.T <.T x j ~ R e ^ ^ K L ) y.^ s.) ^ j.1.s.V.j.f.V..Xw 9.Z.b.C.v.v.b.G.v.p.<.t.3.`.`.i.x B P i.H.H.G.b.i.",
"i.r.'.=X;X7X2XA v.M.v.3.<.K R T x x ~ y <.<.r.~ ~ h.K s.1.s.g.V.1.V.B.B.V.@X .*.C.v.).Z.v.C.G.b.b.v.v.C.:X=XC.m M v L t.i.b.b.'.",
".X=.r.'.[.6X^.q d $.G G @.p r 9 = 7 l 3 K a T H D ! D 1.s.f.f.P.B.M.j.B.B.$Xg p O.A d @.O.C A A @.@.d +._.{.2.8 h 7 c P E _ a.b.",
"'.'.v.t.).6X3Xi.V.A.Z.b.q.G H +.r 9 <.n ,.%.d w p % K s.f.s.y.j.L.XXB.B.L.oX4.J C 3 , d +.O.f p q 4 p +.+. .d f p # m P v E t.i.",
"D.i.b.=.t.5XQ.Y y.r.a.=.U.:X<X,X:X`.) G.g.R.+XoXI.1.y ^ s.f.j.5.5.f.XXq.B.B.>.~ I T b z.@XG.XX.X.X@X.XoX:X.X@X#X>Xo.h M E M W t.",
"W D.G.Z.m..X6.=.r.t.t.V.G.3.b.p.V.N.r.g.p.p.a.g.F.1.s s.f.j.V.B.B.P.L.L.A.}.#.R ~ 5.L Q a.*.h.5.5.M.Z.T.A.A.S.S.+X:.: M M P W ( ",
"W i.G.G.'.G.Y Y =.=.r.N.J.*.<.T r.y.i.f.a.a.p.r.d.i.C <.s.f.j.P.f.4.P.L.XX|.X.K 5.5.b Q a.$.U.A.v.p.M..XS.A.M.Z.OX&.c P M M P W ",
"=.t.a.b.H.J.=.=.t.r.i.t..XY R r.<.r.y.t.g.y.N.i.x.M.K 1.5.j.A.V.XXq.B.P.q.L.:.B.C.1.P Q y.K M.A.M.f.M.B.A..XB.A.OX0.8 P E P P W ",
"Y L R =.i.S.S H p.t.i.i.H.-.p.S.M.r.( ~ u.N.g.p.I.B.s ,.>.,.>.j.q.4.4.f.4.q.i ^ w.p.I I P J B.}.B.C.B.A.M.A.}.B.).4.7 v E R Y R ",
"+       o w 9 9 A d d A C 9.=X`.'.N.g.i.i.b.M.i.I.L.2.q.>.! D G i i 1 X . g 0 i ..d : y t K 5.M.8.B.}.S.A.A.}..X.X4.  + o   O = "
};
