/* XPM */
static char *result[] = {
/* columns rows colors chars-per-pixel */
"64 64 236 2 ",
"   c #3C1F23",
".  c #461E1F",
"X  c #4C1E1D",
"o  c #5D1E16",
"O  c #551E1A",
"+  c #5A1E18",
"@  c #651E14",
"#  c #6C1E12",
"$  c #6E2113",
"%  c #6C2419",
"&  c #742413",
"*  c #792A16",
"=  c #78331A",
"-  c #69301F",
";  c #421E20",
":  c #4A2523",
">  c #55312B",
",  c #693629",
"<  c #773026",
"1  c #7B3829",
"2  c #762E24",
"3  c #614537",
"4  c #794734",
"5  c #755E1D",
"6  c #755946",
"7  c #786648",
"8  c #7A7250",
"9  c #852E15",
"0  c #8B3316",
"q  c #8E3C16",
"w  c #953917",
"e  c #813E37",
"r  c #813E27",
"t  c #884915",
"y  c #9C4816",
"u  c #A24218",
"i  c #AD491A",
"p  c #A94719",
"a  c #B44E1B",
"s  c #BC531C",
"d  c #85442B",
"f  c #8A492E",
"g  c #87452B",
"h  c #854734",
"j  c #945839",
"k  c #8D5134",
"l  c #9B6926",
"z  c #C1571D",
"x  c #C35E1C",
"c  c #C6681C",
"v  c #CB781B",
"b  c #C86F33",
"n  c #8B4845",
"m  c #955943",
"M  c #8C554D",
"N  c #836A4A",
"B  c #9C6645",
"V  c #8A7655",
"C  c #967955",
"Z  c #917450",
"A  c #A7764C",
"S  c #B3694D",
"D  c #9B6C68",
"F  c #977D60",
"G  c #AB7278",
"H  c #A47A77",
"J  c #B27D7B",
"K  c #A5716D",
"L  c #9C5E60",
"P  c #9A8F1A",
"I  c #CE821A",
"U  c #CF9219",
"Y  c #DAA818",
"T  c #DFB817",
"R  c #E0BE17",
"E  c #D4BB3B",
"W  c #E4C917",
"Q  c #E2C117",
"!  c #E7D515",
"~  c #EFF613",
"^  c #EBE714",
"/  c #E3C729",
"(  c #E5C93A",
")  c #DEC22B",
"_  c #9B855A",
"`  c #9B854F",
"'  c #A68A5B",
"]  c #B3865A",
"[  c #B9995E",
"{  c #A9945E",
"}  c #998964",
"|  c #8D8265",
" . c #B88D63",
".. c #A59264",
"X. c #AA9868",
"o. c #B39B65",
"O. c #B49C6B",
"+. c #B79664",
"@. c #AB9C71",
"#. c #B79C74",
"$. c #A38863",
"%. c #B5A26D",
"&. c #BBA46E",
"*. c #BCA467",
"=. c #B5A373",
"-. c #BBA675",
";. c #BDAA74",
":. c #BDAB7B",
">. c #B4A778",
",. c #AEA473",
"<. c #D8BD53",
"1. c #C29A68",
"2. c #C49E7A",
"3. c #C3A46B",
"4. c #CBAD6B",
"5. c #C7A966",
"6. c #D3AB6A",
"7. c #CDB26D",
"8. c #D3B36C",
"9. c #DAB56C",
"0. c #D6B96E",
"q. c #DABA6D",
"w. c #C3AC75",
"e. c #C3AD7C",
"r. c #CBAB74",
"t. c #CCB374",
"y. c #C4B37C",
"u. c #CCB57C",
"i. c #CDB97C",
"p. c #C7B376",
"a. c #D3B473",
"s. c #DAB671",
"d. c #D6BA72",
"f. c #DBBC73",
"g. c #D1B47C",
"h. c #D4BB7C",
"j. c #DBBD7A",
"k. c #D0AA71",
"l. c #E1BD75",
"z. c #E2BF78",
"x. c #E6CC56",
"c. c #DCC176",
"v. c #DCC27C",
"b. c #D6C07A",
"n. c #E3C475",
"m. c #E2C57C",
"M. c #E5C97D",
"N. c #EACC7E",
"B. c #E8CB78",
"V. c #ECD26B",
"C. c #AB8685",
"Z. c #B99598",
"A. c #B78D92",
"S. c #BBB088",
"D. c #BD9BA0",
"F. c #BFA6A8",
"G. c #BCA3A4",
"H. c #C5B483",
"J. c #CCBB82",
"K. c #C9B985",
"L. c #D4BC83",
"P. c #DBBE82",
"I. c #D3BE8A",
"U. c #D0B584",
"Y. c #C6B78A",
"T. c #C8B5B8",
"R. c #C6B1B5",
"E. c #C6B0AE",
"W. c #D4C285",
"Q. c #DCC384",
"!. c #DEC985",
"~. c #D4C38A",
"^. c #DCC58A",
"/. c #DCCA8C",
"(. c #D6CB8E",
"). c #D4C492",
"_. c #DDCC93",
"`. c #DAC895",
"'. c #DED192",
"]. c #DED19D",
"[. c #CFC68A",
"{. c #E3C584",
"}. c #E4CB84",
"|. c #EACB85",
" X c #E2C68A",
".X c #E3CB8B",
"XX c #EACD8B",
"oX c #E8C786",
"OX c #EBD284",
"+X c #E5D18D",
"@X c #EBD38C",
"#X c #EBD88A",
"$X c #F1D48D",
"%X c #F3D889",
"&X c #E3CD92",
"*X c #E9CE92",
"=X c #E0CF9B",
"-X c #E5D394",
";X c #EBD493",
":X c #ECDA95",
">X c #E4D49A",
",X c #ECD59A",
"<X c #E6D99C",
"1X c #ECDB9B",
"2X c #F2DC94",
"3X c #F2DC9B",
"4X c #F2D695",
"5X c #F1CF93",
"6X c #EEE09C",
"7X c #F3E29D",
"8X c #F7E599",
"9X c #F4E18E",
"0X c #D8CDA3",
"qX c #DCD2A5",
"wX c #DFD9BB",
"eX c #EBDDA3",
"rX c #EBDEAA",
"tX c #E5DAA7",
"yX c #F2DEA3",
"uX c #E8DDB2",
"iX c #EDE2A4",
"pX c #EDE3AC",
"aX c #E7E0AD",
"sX c #F3E4A3",
"dX c #F2E5AD",
"fX c #F4EAAC",
"gX c #F8EBA6",
"hX c #F9F2AC",
"jX c #EDE5B4",
"kX c #E9E4BA",
"lX c #F3EBB3",
"zX c #F5EDBB",
"xX c #F4E7B3",
"cX c #F9F3B6",
"vX c #F6EFC7",
"bX c #DAD4C2",
/* pixels */
"U.lX*X.X^.}   4 hXhXhXcX6X[.tXeXyX@XXX3X;XyX3X;X2XgX#X2X8X8XhXjX).sXyXyXI. X*X$X3X3XN.OX3.3.;X<XdX<X1X7X~.'.'.<XhXfXP.5X|.{.j.XX",
"' v.}.}.#X..o #X6X#X#X8X}.[.;X@X{.|..X;X3XXX;X;X3X1Xh.M.m.d.|..Xe.L.oX$X;XXX X: 1.oXoX$X7.y.V   , ^.-XsX6XiX<X-XgX].s.9.9.6.l.8X",
"C 0.c.f.c.}.[ b.v.N O , !.e.j.M.m..X}.XX.X4X.XXX8X+Xj.m.|.m.{..Xy.,X&X XoXXXXX] k.{.oX$Xj.K.#.] * W._.-X>XeX1X<X>X[.z.9.9.9.l.%X",
"| c.c.n.v.OXb.+X> $ # N.M.+.4.a.j.{.Q.;X;X;X*X{.@XoXh.}.@X@X}.-X-.{.XXXX XoXoXoX{.oXoX3X^.K.-X-X6.-X-X'.(.:X1X6X6X_.4.9.9.6.l.9X",
"` b.b.0.c.OXOX}.; % +XN.#Xy.-X>Xj.Q.}..X-XoX&X&X;XQ.t.@X@X2X+X-Xe. X{.oXoXoX{.{.oXr.> , ~.y.'.-X&XXX-X-X'.-X;X:XiX~.k.9.l.l.9.N.",
"` 0.M.M.c.0.c.c.p., #Xv.B.V     C 4.3.-.&.w.=.O.L./.X.t.h.h.Q.W.w.oX5XP.{.{.{.{.$XF # h -Xy.~._.~.~.-X'.[.b.(.W.W.y.j.a.6.l.z.$X",
"` b.c.c.v.c.M.c.c.}.:X:XZ X O + X N 8XQ.v.2XgXhXhX3X@XQ.Q..X6XiX#.P.{.oX{.oXoXoXoXoX1 f gX/./.+X1X/.W.V V =.:.y.~.y.w.;.=.%.w.&.",
"` 7.0.n.c.0.c.c.d.M.6X  , u..Xj # O 1X-XOX}.OX#XXX2XXX-X#X:X8XiX-.oXoXoXoX{.l.oX{.XXoX3X3Xf.M.N.}.Z   : 6 7 ;X:X6XfX-X;X7XyXgX3X",
"8 c.c.c.c.c.7.f.c.c.#X(.[ W.!.B # # B j.Q.}.}.+X#X:X#X!.m.}.}.#Xe.P. X{.{.oX{.oXoXoX*X4X^.M.f.q.4.  + 0.^.;X<X^.!.3XeX-X>X.X;X7X",
"V 7.7.c.q.n.7.0.c.v.OX6X-X}.{.# # # # s. X+X.X@X@Xv.{.M.d.0.q.n.O.{.oXoX XoXXXXX{.oX5XyX`.}.n.n.4.@ n.7.W./. .r Q./.;X;X3X,X<XhX",
"` 7.c.c.0.8.0.d.0.c.N.9XW.4.B # # w & & x b b :X+X;Xv.}.v.f.q.n.-.S e oX{.oX5XoX X*X5XyXL.j.|.B.6.# d 4.Q.Q..XP.= U.Q.^.;X3XsXcX",
"} *.7.7.7.5.t.5.5.5.t.!.p.p.4 # * i I U v z I ( #X:X}..Xv.m.B.M.&.g.[ $ j P.,X&X*X XP.*XW.k 1.6.c.f & < r.k.s.k.# ] <X.X/.1X;XhX",
"X.c.c.c.b.W.p.&.w.y.y.J.i.S.d * z z T W W W W W V.+X#X:X}.}.v.OXi.{./.Q.# O   e.H.#.e.U.e.g.d # ] A # # $ u z z z 0 #X-XQ.Q.*XgX",
"..].6X<XpXfX1X@X9X9X9X:X%X7Xf s z z T W ^ ~ W W W N..X.X}.#X@XN.d.@X}.@Xa.#   > `.*XoX3X3X2XP.# # 8.t # i v R W T U <.Q..X-XXX@X",
"| jXaXpXjXxXuXQ.$X|.@XoX{.}.@Xb z x c W ~ ~ W W / #X;X#X}.+X!.OXt.Q.}.XX X1.:     r.j.j.j.j.j.r # U.B & x Y W ! W W W / }.}.-X>X",
"| jXlXjXjXkXuX3.N.}.}.oX{.}.XX@Xx c R W ! ! W W V.2X:X1X.X;X#X'.g.v.{.@X4X:Xg.+   6  X{.oX^..XP.O   ;XO.v W ^ ~ ~ ! W ) 7.v.;XkX",
"} jXjXrXxXzXqX5.l.m.|.|.;XXX;XXX( U T W W W W x.;X6X:X2X;X.X#X+Xh.|./.oX;X1XL.@      X X X X XP.+   ,X-.I W ^ ~ ~ ! W / t.7.v.7X",
"V h.<XtXaXjXqX3.q.f.oX$XXXXX4X;X@Xx.W W W B.+X-X;X'.+X.X+X.X+X!.p..XoX}.;X-XU.@     *X X X*X&X`.+   ,X=.n.W W ! W W W }.L.h.v.}.",
"} -.i.J.).uXS.3..X{.XX3XeXQ.XX@X|.N.%X{.[.'.(._.:XK.y.y.i.i.W.W.o.w.W.L.W..XO.#      X*X&X,XeX5X+   iX=.W.c.<.W W E %.&.%.&.h.-X",
"+X#X}.}.:XlX`.w.Q.v.XX-X1X;XoX{.m.m.N.z./.<X:X6XsX:X-XsX6X:X%X8X@XOX2XsX1XeX1       `.&X,X&X*X*X+   yXL.!..X^..X:Xt.t.}.}.1X8X8X",
"!./.!.v.:XcX0X;.}.;X;X1X3X4X{.{.j.z.N.u.5.4.p.h.L.:XtXlXpX-X9.9.q.B.#XdXzX#.#     C =X&X&X,X*X .    ,XP.|.v.}.{.N.c.}.}.OX#X;X2X",
"v.#XOX6X+XOX(.;.@X,X*XXX;X@X X}.{. X1X&.*.5.4.h.L.^.>XzX& $ & $ & # 1XcX].# ; ;   H.&XyX`.*Xe @     >Xg.s.a.a.j.|.t.b.#X#Xc.c.M.",
"c.c.v.}.}.9X(.w..X;X;X1X-XoXoX{.;X;XgXU.w.y.p.A w u u p z z z z a 9 # # # # .   X # K 3XtX .#     O.=XP.8.s.j.z.XXu.b.v.}.v.b.M.",
"OX}.}.}.+X8X(.=.v.oX;X;X;XXX;XXXXX|.|.w.w.B # a a a s c U W W z z z s p # X   ; w z 0 f r.@     , ^.=X^.P.s. XP.XXt.v.OX}.@Xv.b.",
"}.+X#X+X#X8X(._ X...X.:.H.w.%.X._ _ B $ 9 i i u $ # * W W W W z z z z $ # @ ; % x s x a $ X   1 I.&X`.I.4X}.{.P.}.=.0.M.M.OX}.v.",
"+X!.+X.XM.N.#X/.lXgX,XsXiX^.1X-X`.B $ q v v v x p & # U W W W z z z & z z 0 # # # q u u @ X % $.} #.S.-.U.e.O.#.e._ 0.c.m.v.OX!.",
"2X:X@X}.n.:X_.[.<X>X>X>XfX&X:X-XP.# i c W W W Y x 0 # = W W c z z z & z z - . # $ $ # # o   @ m P.*XeXI.^./.I.`.rX..8.0.c.}.+X!.",
"$X#X#XM.c.n.b.H.,X&X`.^.sXJ.:X_.u.# a c Y W W T s 0 # w z z x z z z & z u . P . $ O 5 . o t z 0 k l.}.`.0X XXXyXvX#.v.v.#X!.:XW.",
"!.v.v.c.c.OX~.I.&X&X&X/.*XW.1X;X# # a z z z s s u # . s x s z z x x & # # $ # # # X   @ - z z z u # f.}.yXXXXXyXpX>.v.!.v.+X6X-X",
"+Xv.d.0.0.9X~.H.`.=X*X>X;XW.3X .# # O 0 w * # # @ .   w z x z x s s & # t t # # o # $ : z z z z u y * ] l.j.f.}.+X:.!.v.#X-X9X:X",
"i.t.b.'.<XfXH.[.&X`._.&X,XW.;X# $ & # .               @ 0 z z s y # # $ o P t = * # . z z z x z u u Y g j.oXj.M.#X;.!.6X+X/.W.}.",
"o.%...} ..(.S.i.K.u.u.u.e.J.+.& c Y * @ O             ; 0 z z s 0 # $ # + @ 5 5 t +   - 9 9 9 9 * u x g {.}..X{.7X=.;.%.X.X.i.,.",
"W.gXiX6X:X1X@X#X}.7.W.}.d.J.f & I Q q # +       . o ; . 0 z z z z w 9 # @ X o o X     # # # @   @ # u h  XoX*X*X3XI.W.^.~.p.6X>.",
"t.7X+X#X:X:X@X+XiXlXsXzXu.h.f & x Y c # +   o @ # # ; . & p z z z z z i # # @ @ @ @ @ # # O     ; ; ; 3 &X&X*X;X1XL.3X@XXXQ.Q.@.",
"p.+X#X!.}.v.v.6XcXlXdXvX0Xm # z z I c # +   @ # # # # . ; + w z z z z z w # # # # # # # .           X 1.*X5X*X3XsX^.{.4X$X$X:X@.",
"i.v.}.OXv.v.M.b.<XpXiXxX).$ # z z z s # +   @ # + ; @ # +     & & # & # & # # # # # # #             # >X&X*X,X*X;XL.^.XX@X@X;X@.",
"p.OX-X}.b.7.b.'.].sX+X+X# # # z z x & # O . $ @ X     O # + ; ; O O O . # # # @ O O O             + /.&XyX&X>X*X;Xu.;XXXXXXXXXO.",
"p.!.+X+XQ.<XiXlXpXv.!.# # # # & s 0 # @ > $ ; $   .     X X             ;     ;               ; % g..X&X>X>X X&X&X:.Q.@X}.XX;X:.",
"p.fXfXiX-Xb.v.v.v.j.}.$ # # # $ * # # 3 W.] # # # # # O       ; + o + O     O o + + #         o  .*XU.O...=.H.U.I.-.&.&.&.w.v.@.",
"o.c.}.v.'.iXdXpXlXO.# = z w $ $ # % 6 7X1Xr.& # + O # # ; + # . . ;     . 3 6 V ;X&Xh       ; % k.$XfXN.P. X;X$X3X7X@XN.N.B.B.*.",
"%.b.!.!.<XqXcXlXlX#.# z z z * @ . ;.6X+Xu.N : # # . . # ; ; . . O @ u.Q.Q.W..X.X.X.Xd +   O @ f @X+XsXL././.h.j.{.M.h.f.f.z.N.X.",
">.6X'.<XiX6XiXlX].# # z z z & d #X2X;XL.X.;     . + ;   O # # % 7 a.Q..X&X.XXX/..X&XQ.# @ @ a f @X|.%X~.-XeX`.a.d.N.a.0.9.d.N...",
"S.cXpXiXjXfXfXaX~.# # 9 z z a f @X1.: . # # @           ; ; ; 3 o.t.v.Q.j.}.XX!.Q.-XXXQ.# w z f m.$XgXeX_.jXrX^.6.6.n.z.8.d.M...",
",.qXjXaXaXiXaXW.p.A # $ i z z g r..       ; # #               =.o.p.a.a.t.W.L.u.h.p.U.L.# u z f j.B.1X=XdXzXpX.X0.4.0.q.f.l.N.&.",
"*.<XkXjXaXjXqXb.[.).h # 0 z z $ +             @           + # h &.j.f.j.d.h.w.-.p.^.0X0XY.u z h h.t.>X).eXxXzX_.5.5.d.5.5.5.n.t.",
"t.}.;X1X#X8XlXiXjXjX-X$ * i z a +               ;         + O X   Z {.f.N.|.j.yXsX7XsXzXI.# a f $X2X^.e.tXrXrXeXd.j.eX&XeX&Xf.4.",
"7.;X#X7X:X7X'.'.`.].Q.8.# # i i +                         o ;         a.7.c.*.s.j.{. X{.].A % # # k.XXy.eXeXrXrX<X{.eX>X<X/.f.' ",
"7.@X:X6X-X6X:X(.`.L.t.8.# # # # +                       O # ;         _ a.d.3.d.j.j.a.j.*X .$ # # # A -./.&XpXtXdX;XiXaXjXpXM.' ",
"4.@XXX6X6X8X+X'._.Q.4.4.g $ $ # o                       X @ ;         3 7.a.4.h.{.Q.j.{. X Xf # # # # -.h.j.yXxXxXpXlXlXtXrXXX' ",
"4.:X.X/.j c.h.~.`.i.a.k r $ # # @ .           $ o $ o   +             3 d.j.r.j.^..X X^.P.XX X# # # # # , e.v.;XeXaXpXtX&X<XiXX.",
"{ W.W.p.M @ C  .L.K.L.& z u 0 # # # # o   * s s z z 0 -.#.  ; ; X X   Z [ [ +.^..X&X&X&X^. X&Xr.e L G G M H.u.t.~.I.S.Y.&.o.r.' ",
"/.lXxX-Xm.$.# # # # < * z z z i # # # $ # # a x z z s '.* X   * s 9 : d.d.c.X.I.J J J J J J J G G G G G 2.|.OX|.2X1XqX^.tXjXrXtX",
"jXdXuXrX;X2XS.} X.#.:.1.* w w w # # L L n n n S S S n g.n n n n S m K G G G G G G G G G G G G G Z.Z.Z.Z.XXh.l.m.|.M.{.XXm.;XfX3X",
"yXrXjXxX>X2X0X-.Q./.Q.L.k.= # # $ K R.E.G G G G G G G G G G G G G G G G G G G G G G G G A.T.T.T.R.R.T.E.eX-Xd.f.OXj.^.;X{.P.}.yX",
"oX*XrXuXxXdX0XH./././.L.h.Q.4.+.A $ E.R.D.D.Z.D.D.D.D.G G G Z.D.D.D.D.G G G Z.D.D.D.T.T.T.T.T.T.G H T.T.tXdX^.4.q.l. XyX3X,X*X X",
" X XyXxXzXvXbXe.&X>X&X/.W.h.j.h.+.# Z.T.T.T.R.R.R.T.T.T.T.T.T.T.E.E.T.R.T.T.T.T.T.T.T.T.T.T.D.1 # D R.h zXdX-X8.9.6.a.{.oXXX5XyX",
"yXQ.{.3XuXvXuX@.e.U.e.y.U.=.%.X.A # G.F.D T.T.E.D D E.T.T.T.T.F.< G T.T.T.D F.T.T.D F.R.T.T.< 4 # # e 4 tXqX~.o.5.o.5.9.l.m.5X*X",
"yXyX*XoXrXvXvX X:X:X;X;X'.y.u.U.C # H % K T.T.T.T.T.M D.% $.C.H K T.T.C.F.n @ T.F.h G.R.L # # # # # j H.H.H.:.>.>.C 8.d.9.l.}.oX",
"5XoX*XP.oXvX0Xg./.oX.XQ.7XfXzXcX# # # # < < < R.C.C.e < # 2 $ < C.2 G.2 H # A.< % $ 2 < @ $ $ $  .gXgXfXcXsXgXhXfXS.*.q.l.9.z.{.",
"j.;X,X,X5XsX`.P.{.m.oX;X3X^.>X3.# o +   M +.`.1.A + O # # A 3.@ # # # # $ # # # # # # K [ ] +X.X/.-X-X7X<X1X1X6XfX[.[ 9.9.s.z.z.",
"z.oX,X3X3X4Xg.g.j.P. X;X3XI. X$ # X     $.XXXX/.P.O     X d.#X:X(.!.6X7XfXaXS.d.^.!.7.n.}.W.6X1X&X/.-XsX1X>X-X1XiX[.5.s.9.s.s.z.",
"{.}.XX*X3X7XL.j.XX X{.oX3Xg.j.# # o ;   6 X.O.oX5Xm ;   . C :X6X8X'.6X9X'.6X[.'.>X/.d.c.OXy.-X1X-X+X-X:X1X6X>X>XdX'.+.q.l.s.s.z.",
"h.a.j.j.oX:Xw.g.oX X^. XeXI.oX,Xr # #         3 2X3.:       b.6X'.'.(.(.(.].,.W.'.'.f.d.d.i.-XiX-X<X-X<X-X<XiX<XiX[.o.8.j.h.j.g.",
"V 7 7 6 8 #.O.O.e.:.-.p.e.`.dXpX3X^.P.L.U.P.L.Q.2X6XU.W.p.;.,.:.,.,.} 8 8 ;.,.,.S.>.[ 3.*.y./.+X'.<XiX1X<X6XiXsXsX(.7 V N 7 Z ' "
};
