/* XPM */
static char *result[] = {
/* columns rows colors chars-per-pixel */
"64 64 239 2 ",
"   c #3F102A",
".  c #2C123B",
"X  c #381334",
"o  c #43132B",
"O  c #4B1A2D",
"+  c #48172D",
"@  c #511E2E",
"#  c #481C34",
"$  c #521E31",
"%  c #55212F",
"&  c #542332",
"*  c #5C2533",
"=  c #5A2A36",
"-  c #562C39",
";  c #632A39",
":  c #652C38",
">  c #6D323D",
",  c #66373D",
"<  c #71343F",
"1  c #13134F",
"2  c #1D1349",
"3  c #181757",
"4  c #241748",
"5  c #351B46",
"6  c #2B1756",
"7  c #19205F",
"8  c #2B2756",
"9  c #3A2B50",
"0  c #291B6D",
"q  c #241865",
"w  c #2A1E70",
"e  c #1D2767",
"r  c #1F3771",
"t  c #272772",
"y  c #253579",
"u  c #313569",
"i  c #4B3351",
"p  c #713440",
"a  c #7A3B43",
"s  c #643940",
"d  c #453E6A",
"f  c #344577",
"g  c #51495C",
"h  c #774B4B",
"j  c #776746",
"k  c #595565",
"l  c #4C496A",
"z  c #695D65",
"x  c #73696A",
"c  c #5E6B78",
"v  c #8D494B",
"b  c #854448",
"n  c #934E4E",
"m  c #94524F",
"M  c #9D5652",
"N  c #9E5F53",
"B  c #8A534C",
"V  c #A25C54",
"C  c #896554",
"Z  c #8A7756",
"A  c #8F7352",
"S  c #AE6E5B",
"D  c #8C796D",
"F  c #B97A61",
"G  c #9B8658",
"H  c #A48B5D",
"J  c #B0925E",
"K  c #97886A",
"L  c #A99668",
"P  c #B59B67",
"I  c #AA9975",
"U  c #B7906A",
"Y  c #BBA46D",
"T  c #B7A36A",
"R  c #B5A373",
"E  c #BBA574",
"W  c #BDAA73",
"Q  c #BCAB7B",
"!  c #B6A57B",
"~  c #CA926A",
"^  c #C79866",
"/  c #C28E67",
"(  c #CBAD6B",
")  c #C6A866",
"_  c #D6AC6E",
"`  c #CDB16D",
"'  c #CFB066",
"]  c #D3B46C",
"[  c #DAB46D",
"{  c #D8BA6E",
"}  c #C3AE7C",
"|  c #C5AB73",
" . c #CCB474",
".. c #C4B37C",
"X. c #CCB67B",
"o. c #CAB679",
"O. c #D3B572",
"+. c #D6BA73",
"@. c #DBBD73",
"#. c #D4BB7C",
"$. c #DBBD7B",
"%. c #D5B679",
"&. c #E2BD76",
"*. c #DCC176",
"=. c #DCC27C",
"-. c #D7C17B",
";. c #E3C474",
":. c #E2C57B",
">. c #E5C97D",
",. c #E9CB7B",
"<. c #F1D17E",
"1. c #293E84",
"2. c #2B4789",
"3. c #31478E",
"4. c #2E4A92",
"5. c #324E96",
"6. c #33599A",
"7. c #32539A",
"8. c #31588B",
"9. c #346497",
"0. c #365CA6",
"q. c #375BA6",
"w. c #3962AD",
"e. c #3469A5",
"r. c #3577AB",
"t. c #3B66B3",
"y. c #3B6CB4",
"u. c #3B72B7",
"i. c #3C79B9",
"p. c #4B6F8F",
"a. c #4576B4",
"s. c #747C8E",
"d. c #3A87BB",
"f. c #3785B2",
"g. c #5697B4",
"h. c #488BB4",
"j. c #728DAA",
"k. c #53A5B9",
"l. c #6694A4",
"z. c #71D4B3",
"x. c #3C9AC4",
"c. c #3B93C1",
"v. c #3B8EC0",
"b. c #3FA0C7",
"n. c #488AC1",
"m. c #439CC5",
"M. c #548EC3",
"N. c #48A7CA",
"B. c #4EB6D1",
"V. c #54BBD3",
"C. c #5BB8D2",
"Z. c #52B0CA",
"A. c #6CA3CC",
"S. c #55C1D5",
"D. c #5BCCDB",
"F. c #5BC9D6",
"G. c #66C9D9",
"H. c #68D2DD",
"J. c #76D4DC",
"K. c #6CCCCE",
"L. c #78D9E1",
"P. c #7DE0E4",
"I. c #938E82",
"U. c #BBAD82",
"Y. c #BEB38A",
"T. c #94A4A0",
"R. c #C4B483",
"E. c #CAB986",
"W. c #D3BD83",
"Q. c #D9BD85",
"!. c #C6B58B",
"~. c #D4C385",
"^. c #DCC483",
"/. c #DEC984",
"(. c #D5C38A",
"). c #DBC58A",
"_. c #DDCA8C",
"`. c #D6C98E",
"'. c #DDCC93",
"]. c #D6C692",
"[. c #D3C992",
"{. c #E3C484",
"}. c #E4CB84",
"|. c #E9CB84",
" X c #E3CC8C",
".X c #E9CD8B",
"XX c #E3C68A",
"oX c #E5D18C",
"OX c #EBD38D",
"+X c #EAD488",
"@X c #F3D789",
"#X c #E3CE92",
"$X c #E8CE93",
"%X c #E5D393",
"&X c #EAD493",
"*X c #ECDA94",
"=X c #E5D49A",
"-X c #EBD699",
";X c #EBDB9B",
":X c #E7D99A",
">X c #F3DC94",
",X c #F2DC9B",
"<X c #F2D695",
"1X c #F1CF93",
"2X c #EEE09B",
"3X c #F3E29C",
"4X c #F7E599",
"5X c #F4E18E",
"6X c #D9CFA8",
"7X c #EBDDA3",
"8X c #E8DBA8",
"9X c #F2DEA4",
"0X c #E8DDB2",
"qX c #EDE2AC",
"wX c #EDE2A4",
"eX c #F3E4A3",
"rX c #F5E9A9",
"tX c #ECE5B5",
"yX c #F4EAB5",
"uX c #FAF3B0",
"iX c #88B0CD",
"pX c #89DCD4",
"aX c #8DD2CD",
"sX c #9DE5D1",
"dX c #B6EECB",
"fX c #B9EDCE",
"gX c #A5EBD6",
"hX c #ABE9CD",
"jX c #8ADDE4",
"kX c #8CE9E8",
"lX c #85E4E5",
"zX c #99E9E9",
"xX c #AFE6EB",
"cX c #B8D6E0",
"vX c #C9E9DB",
"bX c #F6F0C8",
"nX c #C5EAED",
"mX c #CDEBF0",
"MX c #D4DACC",
/* pixels */
"R.yX1XXX~.`.*X4XuXuXuXuX*X(.8XwX9X.XOX<X-X,X,X.X,XrX+X>X4XM.mXyX].eX9X9XQ.XX1X<X9X<X,.|.^ | :XeXrX:X*X,X(.'.'.;XrXrXQ.1X|.&.Q..X",
"H >.>.}.5X+XoX+X5X+X+X4XoX(.%XoX{.|. X&X<X&X&X&X,X,X#.,.:.zXmX+XQ Q.XX#X-X$X.XXX{.{..X@XO.} '.%X%X:X:XeXwX;X:X:XrX=X[ { [ [ &.4X",
"G ] *.@.-.>.-.-./.>./.5XoX..+.>.:. X}..X X&X X.X4XOX@.=.{.mX'. XR.j.zX'.{.1X.X{.{.{.|.@X$.E.$X*X;X%X_.%X:XwX;X:X:X(.=.[ [ [ &.@X",
"Z *.*.:.>.+X-.oX+X%XoX>.>.P ( O.$.{.^.&X&X<X&XXX]. X$.}.T.zX6X%XE j.zX$X{.{.|..X{.{..X<X^.E.%X:X*X:X'.=X`.:X:X2X2X'.( ] [ [ &.5X",
"G -.*.*.*.>.>.oX+X3X+X,.+Xo.%X:X$.^. X X X X X XcX&.o.OXT.a.!.:X!.s.kX#XXX{.{.{.).Q.XX9X%Xo.'.%X%X%X%X2X`.%X5X2XeX(._ ] [ [ _ @X",
"G ] ,.=.*.{ *.>./.*X*X=.,.Q `.`.%.( ) E E | E T vX_.P U.v.u.Y.~.R.k kXQ.{.{.{.{.Y.$.{.1X:XQ `.'.`.(.%X'.~.-.`.-.(.Q $.O.[ &.$.@X",
"G *.*.*.=.*.>.*.*.}.2X*X5XwX<X2X@X|.4X^.=.>XrXuXvX>X@X!.B.C.s.7X! s.jX!.{.{.|.|.vX1XXX,XrX/.oXoX:X_.~.Q W W Q Q `.Q | W R R | Y ",
"G ' { ;.*.` *.;.*.>.2X2X*X^. X}. X&X3X%X}.}.+X&Xd >X.Xn.D.C.1.8XK r.C.Q.{.{.Q.zXxX.X X<X,X-.;.,./.;.<./.:XwX:X*X3XrX%X*X3X3XrX<X",
"j *.*.*.*.*.` { -.*.+X2X:X/./././. X+X^.^.}./.oX8 '.!.h.S.N.y *Xx Z.V.r Q.XXh.aXXX.X1X<X).>.@.@.;.*.;.*.(.&X%X^./.,X7X&X-X'.*X4X",
"G ` ' *.*.*.' { *.*.+X2X%X/. X~.+.}.&X^. X%X_.oXe [.8 i.x.V.y g y S.S.y XXl w.T.{.XX-X-X].}.:.;.;.;.,.` ^._.%X:X_._.%X&X-X-X*XuX",
"G W -.*.] ' ] *.{ *.>.5X~. .@.=.+.] ,.o. X*X&Xx 8.9.1 i.N.B.4.t 2.d.N.y W.4.S.h.!.$X1X9X'.+X+X>.;.;.;.' ^.). X X/. X)._.%X9X7XuX",
"G T ` ` ` '  .( ) ) o.>. .R.o.W.` ] *.W %X X Xl 2.k.f.n.B.v.t.t.t.t.t.7.4.m.B.r.z K Q.1X_.=.=.=.;.{ ;. .$X^.}.$X{.+X=X_. X*X-XuX",
"T -.*.*.-.~.| Y | ....X.o.Y.[.`.) ) ] L U.3 3 1.8.F.D.u.c.m.D.D.D.D.D.D.a.d.b.m.F.C.3 3 U.W.-.-.*.( ' T #X X=.}.).+.*X&X^.^.$X4X",
"K :X2X:XqXrX;XOX3X5X5X>X5X3X<XR.8.2.f 2.h.C.C.G.r.n.B.t.t.i.D.D.P.L.D.lXkXH.D.N.N.x.N.B.2.2.U.Y.U.}.+.T E. X^.$.}. X+.^. X%X$X*X",
"K tXqXqXtXyX0XQ.@X}..X}.{.K l f.V.lXlXlXzXnXnXnXcXt.c.d.t.S.D.jXkXkXP.H.D.D.D.V.m.x.D.S.F.F.f.r.q.I &XW `. X$X/.=.{./.] {. X%X=X",
"K tXtXtXtXtX0X) ,.|.}.Q.r f.N.H.kXzXxXmXmXmXmXmXxXt.t.t.t.H.L.zXzXnXxXL.L.J.L.J.D.D.D.D.D.S.d.6.3 2 R.U.%X). X^.~.$.=.` ` *.&XtX",
"K wXqX8XtXyX6X( &.{.g 1.V.D.kXzXxXmXmXmXmXmXmXmXM.a.w.t.t.M.G.zXxXmXmXmXmXmXnXnXxXxXxXxXN.x.e 5 i * ; C  X%X*X'.).^.OX#.` ` *.eX",
"j o.:X8XqXtX6XY %.q iXnXD.D.D.kXkXzXkXdXdXnXiXw.& & $ % % % l q.kXnXmXmXmXmXnXnXnXnXjXD.x.y.2 > n ~ n s #X_._.&X X X X}.W.#.=.}.",
"K W X.(.[.0XY.) D u.xXD.D.J.pXJ.L.gXgXdXdXA.d @ p v b v v b ; ; l.zXmXnXvXfXsXpXaXS.S.x.f.8 @ v S ~ ~ $ U ).X.X...W T W T W #.oX",
"*X5X/.}.*XyX[.Y T.S.G.D.D.sXfXpXD.H.sXdXiX# > ; a S / M M n + % i aXfXfXfXfXdXdXJ.D.x.c.8 @ n M , : : & s  X_.XX&XX. .|.>.*X4XrX",
"/.oX/./.&XyX6Xe iXD.D.D.J.dXdXpXD.D.L.jXi S F * < ~ ~ ~ m o < S S l fXfXdXdXsXD.D.B.x.f.. $ V < > m / / > ' |.{.,.-.=.}.}.oXOX5X",
"=.+X}.*XoX@XK a.J.D.D.L.P.hXdXH.D.D.L.K.< ) H O + h B , O + : [ ~ > dXpXdXdXsXD.D.x.x.2.o $ M ; v S _ [ F : J $.|.+.-.+X@X=.-.>.",
"@.-.=.}.}.>Xk h.jXG.D.lXkXkXF.D.D.D.G.aXb [ 5 # - z   I.v   + V V : D.D.D.dXhXaXx.c.e.3 o @ $ v V ;.;.&.[ ~ N &.OXo./.=.}.=.*.>.",
"}.}.oX}.oX3Xk a.D.D.H.D.K.g.h.m.F.D.F.g.h F 5 5 b #   b v   i [ N c D.D.D.pXF.b.e.e.2.1 o @ ; n U / / ^ _ ~ h %..X .=.,.}.oX^.=.",
"}.}.*X+XOX5Xk 1.0.6.e.S.M.1.1.i.x.D.D.C.u m a u + >   a o e.l * k D.K.aXhXl.8.5.t.1.1.3   # p p m M M ~ ~ ~ N W.XXE ] >.}.+X}.=.",
"+X_.oXoX:.<.k 2.q.6.q.t.7.1.t.x.x.i.n.D.l.  , l q.9 g p.D.l i k D.K.aXiXT.2.w.t.y.c.q.w X   $ ; b b v v S p ; P } G { *.:.*.oX/.",
"@X*X+X X:.*Xk 1.7.a.g.6.7.w t.u.u.t.4.e.D.k.p.  i V.D.D.D.k.S.z.z.g.y.e.0.0.w.v.u.u.a.t 3 X o o b v v ^ T ) S C 8XH ] { *.}.oX/.",
"@X@X+X>.;.;.g 4.t.N.kXa.q.t w t.t.c.9.4.2.Z.B.S.D.F.D.D.F.F.K.z.k.F.S.u.u.y.v.f.1.w.w.t.0 3 X   o n J ] ^ F F ; bXR {.-.+X}.2X#.",
"_.-.*.*.*.>.k 9.G.G.L.C.q.7 q 1.t.i.x.b.Z.l.r.d.g.g.g.z.z.z.z.K.D.D.D.N.B.b.B.f.1.1.q.t.0 0 1 2 u f l 8.8.d f 6 qXW *./././.2X*X",
"oX^.*.*.*.5Xk 9.kXkXG.c.i.7 *X3 0.0.r.c.B.z.x.x.2.2.w.r.d.k.x.y.u.c.x.x.D.D.D.q.1.1.1.1.0 0 1 y w.a.x.N.sXm.v.e oXQ /./.oX*X*X*X",
"X.o.-._.%XrXK r a.K.m.v.7.R.$X*XI.y 2.d.N.D.h.e.B.B.2.0.d.x.d.6.1.1.i.c.B.B.x.t.t.1.1.0 q z D r d.J.kXkXgXdXgXn.l R ~.:XoX`././.",
"P T L K K `.Y.7 y 7.u.t.7.Q %XoX3X!.y w.u.9.8.d.d.z.Z.4.y.x.e.2.6.m.Z.z.i.x.0.t.t.1.t 0 g | #.1 e.N.L.kXgXdXgXh.l T W T T L ~.L ",
"~.rXwX5X*X;XoX/.4.1.0 7.3.U.*X*X&X3XI.y 2.2.1.0.c.x.z.c.w.v.5.2.x.x.b.K.w.1.1.0.2.q q l ! W.{.E 3 6.c.J.c.L.kXN.d.I ~.).(...;XW ",
" .3XoX*X*X*XOX).4.w.w 0 0 x #X:X_.&X>XR.x e t 4.7.c.c.6.4.t.q.7.i.i.i.n.2.1.e 3 1 !.!.yXU. .{.{.X.e e.r.c.G.jXm.u.I ,XOX.X{.^.I ",
"o.oX*X=.}.=.>.3 0 1.t.3.1.t 8 2X;X%X&X;XwX3X].1 1 e 1.1.1.1.7.t.2.1.1.1.2.e 1 '.%X=X-XrXR.%.^.XX.X).2.7.A.jXJ.u.0.! }.<X1XOX*XI ",
"o.=.}.+X=.=.X.q y x.v.t.q.y 8 wX*X:XoX%X_.*X%X%XQ.8 5 8 t 1.1.2.e r e 3 . 2 =X:X%X#X_.eXR.%.{.{.{.3 5 6 p.g.v.7.0 I )..X1XOX*XL ",
"o.}.*X/.-.` g X X 5 i 5 t.4.#  X&X*X-X%X:X/.3X3Xp p * & O 3 3 3 4   X       h '.=X%X).;XE.|  XXXx # b F S X 9 0 1 I &X X}.+X.XI ",
"../.oX+X^.;Xh & a V M V $ o - ~.^.^.'.W.W.o.-.C # = * o O $ & % +     o        X%X_./.-X..| Q.XXp b V ^ ~ ^ b + i } ^.OX}.+XOX} ",
"` wXrXwX=X .= * v V F V n ; -  X*X*X*X~.~.~.~.u q # * @ o o @ o o + @ o 6 6 6 = W.^.^.<X X^.$X^ p M ~ ;.[ S n < s Q Y W E ( ^.P ",
"T -.+X=.#X!.@ p v ~ ~ V n * & -./.oXrX3X2X5Xt t.4.3 $ & @ o o     @ o d 6.6.6.6   oX X*X X|.@X$ n S [ :./ V p * h 3XOX,.,.>.,.P ",
"L ~.-./.:XE.@ , v ~ ~ F b * - ^.5X2X2XoX~.8 i.y.6.y . o $ +     o + 6 w.i.i.9.2.3  X$. X(.}.| ; V F [ _ S v p * , /.$.@.@.&.,.L ",
"Q 2X:X:XwXY.@ p v ~ ~ V p * & }.+X2X3XoXU.k.x.u.6.y q o @ @   o o & 7 d.x.x.y.4.3 #X^.{.W.}.o > a S ~ V V p p * , :.+.] ] +.,.L ",
"Y.uXwX8XtX=X- > v / S V > * & }.oXoX*X~.I V.x.u.6.1.0   : @ o   & 2 w.n.D.x.y.4.3 oX Xd e 9 9 9 i p v n a p ; $ C ' ;.&.] +.,.L ",
"I 8XtX0XqXyXh = : ; ; ; $ $ & ^.=. XoXW K S.x.u.6.6.0   ; @ o o ; 4 t.Z.D.d.6.4.3 o.k y 7.i.x.x.v.f O $ p ; % o ] ' +.{ +.@.,.E ",
"P :XtXtXwXtXh X X D.D.i.2.  & ~.o./.oXW I V.V.u.w.6.0 + > : o   % 2 u.B.x.d.6.r.3 Q.1 0 3 e.x.B.D.V.u o O & & ).) ' %.) ) ) ;.O.",
"O./.;X;X*X2Xk e.k.D.D.i.2.3 8 yX:X2XrXW U.9.N.d.w.0.0 + ; > + o X 4.u.B.c.0.e.8.D 9X7 y Z.H.B.D.D.S.a.8.X O D 7X%.+.7X#X7X#X@.( ",
" .&X+X3X%X[.4.N.D.e 9.S.5.3 8 yXwXqXbXQ o.8 x.x.w.0.w X # : +   i 2.y.b.x.w.d.q } &.y v.Z.kXD.D.D.D.N.w.8 o 8XqX-X}.7X=X:X).@.H ",
"` OX*X*X%X!.8.d.N.6.p.H.k.q 1 I.8XwXbXY.o.x f.x.t.q.w . # & #   i 2.w.d.t.6.w.q E Q.I 7 2.C.lXD.V.B.c.0.e z qX8XqX$XqXqXqXqX}.H ",
"( OXoX2X3X(.2.f.r e e g.a.1 3 t =.%XbXU.#. Xy x.w.e.5.6 4 . I   3 3.5.a.a.7.t.q R.^.E.l r y C.L.b.v.t.q.D #.,XqXyXqXyXyX8XqXoXH ",
"` &X X X}..Xg e.u.0.1 1 1 3 1 r  .#.*XW o.=.| 2.6.6.0.0 3 2 W.  3 0 5.6.5.7.t z {.XXXX).#.4.t.C.lXG.t.i  XW.=.=X7XqX9X8X#X=X9XL ",
"H W.~. . .*.Z y 1.y e y 3 y 4 U.$X#X;X} R W T y 1.1.w q 1 . ! . 4 5 5 6 1.t 0 z XX$X$X#X).} I e 8.r D P ~.).X.O.Q.[.Y.R.E P | H ",
"_.rXyX=X:.@XY E x 1 3 3 k ~.).(.%X XeX X}.3X(.q 0 0 0 1 1   [.  $ $ $ $ X o 2 z -X#X=X<X<X*X). X~.$.@X&X$..X+X|.>X;X6X(.8XtX9X8X",
"yXqX0XqX1X>X6XE Q.).;X=X'.W.^.^.{.OX X .-.*.*.z q q 1 2     S   * * $ $ % o o W.#X$X).XXQ.<X-X X X^.{.$.%X#.@.:.@X:.{. X&.<XrX,X",
"9XyXtXqX=X,X6X} ~./.^.W./.+. . .( +.] ) @.O.{ ( . X . o         < < > * $ O o ).$X$X$X#XXX#X$XXX X^..X].7X=X+.@.|.&.).-X^.Q.{.9X",
"XX.XqX0XqXyX6X} )._.'.W.#.^.%.( ( =.@.T /.*. .+.&.^             ; M < < % $ o #X-X$X$X#X#X$X,X#X#XXX.X(.8XqXXX( [ &.XX,X;X-X&XXX",
").{.9XyXyXbXMX| #X=X#X/.~.#.#.#.( ` =.Y ^.{./.^.$.+XL o         ; V n < > ; D E.$X#X7X=X$X$X-X$X$X XXX=XyXqX=X_ [ ' %.{.|.$X1X,X",
"eXQ.{.-X0XbX0XI } E.} ..X.R Y P H P ) L ..W #.X.Q -.` |   o     o v M b p > | I } Q Q E.} } } } R.R.} R.8X6X~.T ) P ) [ &.:.1X$X",
"9X9X$X|.8XbXbXXX*X*X&X&X=XQ X.R.R P ^.( ~.R.E R R G o.+XB       o v n p p > Q.W.| L K Q R.} ! R I L R R.R.R.Q R R Z ] { _ ;.{.|.",
"1XXX$X{.XXbX6XX. X{..X^.4XyXyXuXyXeX:.,XoX4XrXrX4X=.W =.C       o < a p p ; E.$.+.#.` OXrX,XrX3X4XuXeXrXuXeXrXuXuXU.T [ &.[ &.{.",
"&.<X<X<X1X9X).Q.{.{.{.<X,X).=X$X-XOX}. XoX&XOX.X5X/.| =.C       O > > p > , R.$.=._.+.;.|.W.OX X X%X*X7X;X;X;X2XrX[.P [ [ [ &.:.",
"$..X<X<X,X<XW.X.&.Q.{.&X,XW.Q.$.{.|. XOX.X.X X{.OX/.| /.C     o a a & ; & U.!.O.`./.` *. X~.2X;X XoX%XeX7X:X'.;XrXE.( [ [ [ &.&.",
"{.{. X1X<X4XQ.$..XXX{.XX3X#.$.{.^.{.{.}.OX{.&X X>X%Xo._.C o B U F a > p > E R.=X=X/.+.*.}.X.'.:X'.%X%X*X:X2X:X=XrX].P [ &.+.%.&.",
"$. .$.$.$X;X| X.XXXXXXXX7XQ.XX;X#X{.$.$.}.&XoX X5X:XW ~.R : p p p p p p ; R ! ~.=X'.@.*.+.o.%XwX:X%X%X:X=X:XwX:XwX`.P O.&.$.$.%.",
"A j j j j R U P } Q Q } } '.qXqXeX&X&X X}.1X%X}.2X2X~.%X^.$ * * * * * * @ G R I U.Q J ) Y o.oX%X'.:XwX;X;X;X3XeXeX`.j Z j j A H "
};
