/* XPM */
static char *result[] = {
/* columns rows colors chars-per-pixel */
"64 64 233 2 ",
"   c #3C1F23",
".  c #6C1E12",
"X  c #523631",
"o  c #503430",
"O  c #732A1A",
"+  c #62483D",
"@  c #70533E",
"#  c #6A5543",
"$  c #755946",
"%  c #694F41",
"&  c #786648",
"*  c #8A4C32",
"=  c #884D45",
"-  c #8E5650",
";  c #816849",
":  c #8C774E",
">  c #866C53",
",  c #886A55",
"<  c #8A7453",
"1  c #89745A",
"2  c #8C7B5A",
"3  c #877454",
"4  c #947C55",
"5  c #917A59",
"6  c #917555",
"7  c #AC7959",
"8  c #917F63",
"9  c #AB7278",
"0  c #AB7E7F",
"q  c #95835E",
"w  c #9A845C",
"e  c #9D8958",
"r  c #9B854F",
"t  c #A48D5E",
"y  c #A48B56",
"u  c #A9935D",
"i  c #B99B5E",
"p  c #B5885B",
"a  c #8D8265",
"s  c #998660",
"d  c #9A8A66",
"f  c #A38E65",
"g  c #A38F68",
"h  c #A59264",
"j  c #AA9464",
"k  c #A5936B",
"l  c #AE956B",
"z  c #AC9B6C",
"x  c #A99869",
"c  c #B39C66",
"v  c #BC9E62",
"b  c #B49D6B",
"n  c #B2976F",
"m  c #A59873",
"M  c #AB9B72",
"N  c #A39572",
"B  c #B29E74",
"V  c #BB9876",
"C  c #B58E7A",
"Z  c #BCA264",
"A  c #B5A26D",
"S  c #BBA46D",
"D  c #BEA86D",
"F  c #B4A066",
"G  c #B5A373",
"H  c #BBA674",
"J  c #BDAA74",
"K  c #BCAB7B",
"L  c #B6A679",
"P  c #BEB17C",
"I  c #AEA075",
"U  c #C69F6E",
"Y  c #C3A464",
"T  c #C7AA65",
"R  c #CBAC66",
"E  c #C2A76A",
"W  c #C4AB6A",
"Q  c #CBAD6B",
"!  c #C8A664",
"~  c #D0AE6C",
"^  c #CDB16D",
"/  c #CBB06B",
"(  c #D3B46C",
")  c #DAB56C",
"_  c #D6B96E",
"`  c #DCBC6E",
"'  c #D2B267",
"]  c #C3AC74",
"[  c #CAAD71",
"{  c #C2AD7B",
"}  c #C6A979",
"|  c #C6B275",
" . c #CCB374",
".. c #C4B27C",
"X. c #CBB57B",
"o. c #CEBA7D",
"O. c #CBB978",
"+. c #D3B573",
"@. c #DAB672",
"#. c #D6BA73",
"$. c #DBBD74",
"%. c #D2B67B",
"&. c #D4BB7C",
"*. c #DBBD7B",
"=. c #D9B67C",
"-. c #E1BD75",
";. c #E2BF78",
":. c #DCC176",
">. c #D6C17C",
",. c #DCC27D",
"<. c #E3C475",
"1. c #E2C47B",
"2. c #E4C97D",
"3. c #EACC7E",
"4. c #E9C977",
"5. c #F1D17E",
"6. c #AF7C82",
"7. c #BBAE81",
"8. c #B3AA83",
"9. c #BEB489",
"0. c #BFB387",
"q. c #BD9BA0",
"w. c #BEA1A4",
"e. c #C5A781",
"r. c #C5B483",
"t. c #CAB582",
"y. c #CDBB82",
"u. c #C5BA8B",
"i. c #CDBD8A",
"p. c #C7B883",
"a. c #D3BD83",
"s. c #DCBE82",
"d. c #D2BE8B",
"f. c #D1B08B",
"g. c #CBBF92",
"h. c #C8B5B8",
"j. c #CDC189",
"k. c #D5C285",
"l. c #DBC483",
"z. c #DEC984",
"x. c #D4C38B",
"c. c #DCC58B",
"v. c #D6CA8E",
"b. c #DDCA8C",
"n. c #CEC392",
"m. c #D4C592",
"M. c #D6C992",
"N. c #DDCB93",
"B. c #D9CA98",
"V. c #DED193",
"C. c #DDD29C",
"Z. c #D7D088",
"A. c #E3C584",
"S. c #E8C785",
"D. c #E4CB84",
"F. c #EACB84",
"G. c #E2C68A",
"H. c #E3CC8B",
"J. c #EACD8B",
"K. c #E6D185",
"L. c #EBD185",
"P. c #E5D18C",
"I. c #EBD38C",
"U. c #ECD98C",
"Y. c #E8D98A",
"T. c #F2D383",
"R. c #F2D58C",
"E. c #F4DC8D",
"W. c #F3D988",
"Q. c #E3CD92",
"!. c #E9CE92",
"~. c #E2CF9B",
"^. c #E5D293",
"/. c #EBD493",
"(. c #E6D996",
"). c #ECDA94",
"_. c #E4D49A",
"`. c #EBD59A",
"'. c #E6DA9D",
"]. c #ECDB9B",
"[. c #F1D593",
"{. c #F2DC94",
"}. c #F2DD9B",
"|. c #F5D998",
" X c #F1CF93",
".X c #F4E18E",
"XX c #EEE19D",
"oX c #EFE096",
"OX c #F4E295",
"+X c #F3E39C",
"@X c #F9E49B",
"#X c #F7E89B",
"$X c #D5CBA3",
"%X c #DBCFA6",
"&X c #DCD2A3",
"*X c #DDD3AA",
"=X c #DFD9BB",
"-X c #E4D6A3",
";X c #E6DAA4",
":X c #EBDDA3",
">X c #E4DCAA",
",X c #EBDEAA",
"<X c #F2DEA2",
"1X c #F1DFAC",
"2X c #EADEB2",
"3X c #E0D7B4",
"4X c #EDE1A4",
"5X c #EDE2AC",
"6X c #E7E0AD",
"7X c #F3E4A3",
"8X c #F5E9A4",
"9X c #F8EBA4",
"0X c #F2E5AC",
"qX c #F4EAAB",
"wX c #F9ECAA",
"eX c #FAF2AB",
"rX c #F7F1AB",
"tX c #EDE5B3",
"yX c #EBE5BC",
"uX c #E6E0B3",
"iX c #F2E5B2",
"pX c #F3EBB3",
"aX c #F5EDBA",
"sX c #F9EBB3",
"dX c #F7F2B4",
"fX c #FBF3B4",
"gX c #F7F2B9",
"hX c #FAF7BA",
"jX c #DAD4C2",
"kX c #EFE8C0",
"lX c #F8F2C4",
"zX c #FAF6D2",
"xX c #F0E7C4",
/* pixels */
"t.sX!.H.c.H.(.#XeXeXeXhX(.i.;X7X<XJ.I.|.`.}.}.J.|.9XY.E.#X#XwXtXm.7X<X<Xd.G. X|.|.<X1.T.Y H (.8XqX'.(.7Xx.V.V.'.eXqXs. XJ.;.s.G.",
"t 1.D.D.U.Y.K.U.{.Y.U.OXK.j././.A.H.H./.|.!././.@X'.&.S.A.$.2.P.K s.J.J.[.H.J.S.S.S.J.T.+.{ Q.^.^.^./.7X4X].'.^.8XC.@.) ) ) 4.|.",
"4 ( :.` :.K.>.>.D.,.K..XY.] @.S.1.J.H.J.H.[.H.J.@XJ.*.1.S.1.2.H...`.J.G.S.J.!.A.s.S.S.R.=.i.N.(.(._.Q.V._.4X].'.(.i.1.) ) ) -.W.",
"2 :.,.<.,.K.>.Y.P.I.z.L.K.c Q +.:.A.,./././.!.G.I.H.&.D.L.J.H.^.H G.J.J.G.S.S.J.A.S.S.|.c.a.^.^.(.(.^.^.v.).].].7XN.R ) ) ) -.E.",
"e :.:.:.:.2.K.K.P.+XY.3.L...^._.&.1.A.H.J.H.H.H./.l. .I.J.5 l.^.} G.G.A.S.S.S.A.A.A.G.}.^...V._.^.^.^.^.V.^.U.].4Xx.~ ( ) @.) T.",
"r +.2.2.:._ :.:.z.].Y.,.3.P x.c.o.[ E H H <   $ X.v.; 4 &.%.$ b.} S. XA.A.s.S.A.J.*.A.[.(...x.b.x.x.V.Z.k.k.v.k.k...*.+.) -.*. X",
"e :.#.:.,.:.:.2.:.D.oX).OX:X[.OXI.T.#Xl.%.  9XwXwX|.R.o.  +   :XH s.A.S.A.S.S.S.S. XG.|.7Xb.V.P.].b.Z.K L L J ..x...[ H G A ] v ",
"r / :.:.:._ :.:.:.2.+XXXY.c.H.H.J.J.}.^.  1.P.U.P.{.P.Q.I.{.#X4XH A.S.S.S.s.-.S.S.!.G.|.}.:.4.2.D.<.T.z.(.8X).).XXqX_.).XX<XwX}.",
": :.:.:.:.:.' :.:.:.Y.oX(.k.z.l.A.H.I.l.H b D.J.Y./.).l.z.2.F.Y.{ A.A.A.s.S.S.G.S.S.!.|.c.D.$.` <.:.<.$.x./._.l.z.].]._./.Q./.#X",
"& ^ ^ _ _ :.' _ :.,.K.oX(.D.H.l.#.D.I.l.H.H.H.J.R.,.2.2.( _ ` <.n G.S.J.G.S. XS.A.J.`.|.c.F.:.<.<.<.4.^ l.c.^.^.b.H./.^.].`.`.eX",
"q >.>.:._ ' _ _ _ :.3.oXk. .*.,.+.( 3. .Q./.).Y.P./.,.D.:.:._ <.b s.G.S.S.S.J.J.G.!.!.<XN.L.K.3.<.<.<.' l.l.Q.H.l.H.c.c./.}.4XfX",
"q Z / _ / /  .W T T O.2.| p. .a.^ Q 1.] ^.H.I./.).).D.H.,.1.4.2.b %.@.f.=.A.!.Q.Q.G.s. Xc.D.,.<.:.` <. .Q.z.F.^.A./._.H.H.(./.fX",
"z :.:.:.>.>...A | | ..o.o.9.n.M.Z Y #.c Q.P.P.I.[.P././.2.D.:.L.&.G.b.l.l.* n { e.} } t...&.%.,.:.R ' A N.H.:.D.c.&./.^.l.l.^.9X",
"h C.4X(.5XsX].I.{.OXOX).E.OX{.[.[.{.E.] b.).J.b.{.).H.D.D.I.[.3.#.R.D.O #.R.. _.:X!.H.|.}.[.).).(.D._ F k.H.l.*.D.D.$.z.H.^.Q.I.",
"a tX5X5XtXiXuX*.L.F.I.G.1.D.P.I.I./.9Xy.H.(./.).+X[.).I.D.P.z.K.[ 1.A.J.G./.* s.A.G.=.=.*.*.;.A.:X:X/.] m.Q.J.z.,.1.z.( A.D./._.",
"a yXpXtXtXaX3XE 3.F.F.F.G.A.J.[.)./.9Xy.V.7X/./.).].).].P./.Y.P.%.l.A./.[.).c.[ +.A.A.A.H.c.G.s.;.J.).7.V.c.H.c.k.*.,.^ ^ :./.yX",
"d 5X5X6XpXaX-XW -.1.F.J.J.J./.J.J.S.OXO.x.(.]././.oX).[.(.D.I.V.&.H.A.H./.}.a.s.=.s.G.A.S.G.G.d.G. X  B > J.^.Q.c.z.I.&.^ ^ :.7X",
"3 a.'.;X5XuX*XY @.$.3.R.H.!.[././.S.{.a.p.P.P.^./.V.^.H.P.P.I.z.| F.H.D././.X.G.s.s.!.Q.c. X~.G.s.`.    > c.H.^.N.H.H.H.a.&.,.D.",
"s H O.i.x.>X7.E H.1.J.}.:Xc.J.I.J.4.W.A.j.V.v.Q.`.p.....o.o.k.k.c [ l.a.k.Q.H A.Q.G.G.~.~.`.`. XQ./.0XB k.c.X.y...J F J F D &.P.",
"Y./.D.D.].sX$X} l.l.J.^.]./.S.A.1.1.T.*.V.].(.].8X).^.+X].}.E.OXL.L.[.7X'.:XN G. X~.G.Q. XQ.~. X`.+X|.d.z.H.c.H.). . .F.D.).9X#X",
"z.H.z.z./.gX$XJ F././.].}.[.A.S.*.;.3.X.Y Q  .&.d./.;XdX0X_._ _ _ 3.I.qXgXaXm %.G.!.  ~.~. X~.G.G.|.`.s.J.*.S.1.3.,.,.2.K./.Y.{.",
",.Y.D.].P.T.v.] Q.|.!.J./.I.A.D.A.G.`.E Z T [ &.a.c._.lX6X_.O.( ' 2.XXdXgXyXm d.!.X + <X% X G.~.c.Q.`.y.$.( +.;.F.+.>.U.I.:.*.4.",
":.:.,.2.D..Xv.] H.I./.|.^.H.S.A././.wXt.[ ]  .y.c.M.n.pX8X6X'.b.( :.(.7XpXyXN d.~.X  X`.~.$ ~.`.~.-X`.s.~   6 s.P.+.z.>.D.,.:.D.",
"K.D.H.D.Y.OXv.G *.H./././.J./.!.J.J.P.}  .| o.d.b.v.n._.].^.M.^.` _ ,.<XpXkXB f.!.G.c.`.`.<XX `.Q. X~.s.$ @ A.*.J. .,.3.D.H.z.:.",
"D.P.I.P.U.OXb.w j h x K ..{ A j 4 e S f z A H K p.H o.h   7Xk.,.:.<.( :.K.pX8.L X.r.r.d.d.d.1 d.d.~.Q.d. XG.G.s.H.G ( 2.2.L.D.,.",
"P.z.I.K.1.5.U.b.dX8X`.0X4Xx.].^.    J.b.y.M.u.K u.q w u.1   P.:.! ' ' ' ` OXa.&...s a M k k N d d n 7.B t.{ b H } q _ :.2.,.K.z.",
"{.Y./.D.,.).b.x.`._._._.sX^.^.^.2 @ ].8X8XXX].9XfXx.  a.^.i.o.&.` #._ %.:.,.W $.@.*.H.}._.H.H.A.A.G.<Xm.c.b.d.c.,Xh ' #.:.D.P.z.",
"R.I.U.2.<.<.>.p._.~.c.c.8Xy.).Q.c./.^.N.^.).J./.@X(.W @._ J.lX&.#.l.>.Y.z.^.o.D.&.H.*.}.a.=.S.~ ) ;.S.B.B.Q.J.<XxXL 2.:.L.K.).j.",
"D.,.,.:.<.L.x.i.Q.Q.Q.N.!.k.).(._.(.^.(.(./.^.).9Xb.O.l.z.,.P.Y.H.z.b.K.V.(.j.z.c.l.H.:Xm.%.H.=.~ ~ -.S.}.!.F.<X,XL :.z.z.P.(.(.",
"H.,.#.#._ U.x.u.B.Q.Q././.k.}.).P././.^.^.^./.].7X^.y.z.D.z.P.P.).P.b.,.D.z.O.D.l.H._.}.c.s.J.S.s.=.*.[ -.*.*.S.I.P z.z.Y.I.).).",
"o.O.>.Z.(.0Xp.j.Q.B.N.Q.`.k./.]./.^.^.7X].N.).}.{.b.| H.b.k.k.D.o.&. .W T $.v H.`.Q.J.Q.X. .A.A.*.*.F.A.s.A.s.D.Y.H z.(.P.P.z.D.",
"c A h d h V.0...y.t.X.X.} y.^.^.).4Xv.P.+X).Q./.rXV.z j.P P P ..A z x e h ] A X.X.a.N.Q.{ [ *.;.*.=.1.S.1.S.H.A.{.G K F z x y.z ",
"k.9X+XoX).].I.Y.D.^ k.A.#.y./.).^.}.).b.).}.^.(.qX4Xa.Y.).).(.XX(.oX}././.'._.'.(.^.;X-XB %.A.*.J.*.A.S.A.G.!.!.|.d.k.c.x.| ].K ",
"O.+X^.^.)./.I.P.5XpX4XlXo.y.^.^.b.^.)././.7X'./.oXk.k.H.z.D.K.z...].^.}.8X:X_./.`.<X7XpX7. .;.H.J.G.G.[.!.!.!./.}.d.}.I.J.z.D.N ",
" .P.Y.z.D.,.1.oXgXpXpXgX&Xy.+X].(.^./.].(.7X).(.#Xy.b.l.D.z.z.v.K c.^./.]._.^.Q.^.^.`.qXr.&.s.S.J./.G.Q.!.!.!.}.+Xc.A.[.R.I./.m ",
"O.,.D.K.,.2.z.>.(.5X4XpX>X..^.].(./.^.H.H././.P.+Xo.l.l.P.H.P.x...H.Q.v.Q.`.`._.^.Q.b.7Xr.%.S.l.A.J.`.!.Q.!.`.!./.a.c.J. XI.).z ",
"| K.(.K.>.( >.V.^.4Xz.Y.P.P Z.H./.[.(.^.'.z.+X}.+Xo.z.l.,.,.D.b...l.l.Q._.Q././._.^.c.].i.[ F.G.G.!.H.Q.<XQ.!.!./.t./.J.F.J.F.z ",
"..z.P.P.k.(.4XqX5Xz.D.P.Y.J y.k.l.c.H.x.>...>.b.}.F &.l.l.l.z.x.t.Q.].Q.c.H.H./.P.b.c.)...E s.G.G.G.H.Q._._.Q.Q.Q.K l.I.H.J.).K ",
"| 4XqX4X^.>.>.z.,.>.H.z.K.K.U.H.U.).(.l.k.l.v.&.D.k.O.a.>.z.P.j.y.x.^./.l.H.H.H.l.b.l.].b.l.J.J./._.a.n g L { p.d.H S H S ] l.b ",
"F :.D.,.V.4X0X6XsX5X5XhXC.>.>.>.P.V.8X7XoXOXL.3.:.<.L.+XtX;X8XZ.X.^.A.J.k.a.l.H./.Q.H.).H.F.R.R.L.R.qXS.s.A.[.[.}.+XL.3.3.4.4.b ",
"A k.,.v.(.;XgXdXdXdXtXdX].(.z.z.U.XXXXP.k.l.b.D.&./ ( $.H.:XpXM.b H.H.H.b.c.b.H.H.H.a.F.d.D.F.L.[.H.8Xs.l.Q.&.*.2.S.&.$.$.<.3.j ",
"P ].V.'.4X].4XpXpX5X4X4Xb.P.I.z.P.OXXXH.v.H.b.P.z.l.O. . .*.^.m.A s.A.H.H.H.P.H.H.H.l.D.&.F.F.H.L.D.W.x._.:XM.+.$.1.@.( ) @.D.x ",
"9.gX4X4X5XqX0X6X;X^.2.Y.,.Z.b.D.Y.H.).k.&.c.l.l.,.H.D.c.z.O.l...c  .,.z.a.F.H.H.l.P.H.J.E 1.R.J.1.R.9X;Xb.iX,Xc.~ ' <.$.( $.4.h ",
"m ;XtX6X6X4X6Xk.O.W / :./ o.P.>.,.H.P.| y.k.l.&.&.D.%.&.A.,.Y.c.c  . .+. .s.&.X.a.o.X.d.G %.;.J.*.1.].C.iXaX5XH.( ' @.$.$.$.3.H ",
"Z '.yXuX6XtXC.j.M.M.m.P.:.+.,.l.O.z.^.H l.b.&.k.l.&.,. .,.&.P.;XS $.:.*.#.&.] H X.k.%X&XB.x.&.l.s.+._.m.;XdXaXQ.R R +.! Y Y <. .",
"+.D.).].(.#XrX4XtXtX^.,.L.'.iX0X).oX0XL y.J.z.z.&.l.l.o.H.^.H.(.a.L.A.$.3.F.*.<X8X}.<XaX,X/.F.J.I.{.c.K -X,X,X;X%.#.:XQ.:XQ.$./ ",
" ./.I.+X(.+X^.N.N.B.l.( ^ ^.0XaX6X,XlX7.O.A.l.&.K.l.H.c.b.Q.4XV.i.&.*.+.T $.Z @.*.;.G.H.~.d.#.#.$.F.J...;X:X,X6X'.S.:X_.'.c.$.y ",
"Q I.[.{.(.+X/.v.c.k. .( Q ( l.'.;X4XlX9.%.,.l.l.k.a.^.H.Q.N.:XC. .*.*.+.Q #.E &.*.*.+.=.J.^.s.s.a.H./.K b.J.5X,X,X/.0X,XtX0XD.t ",
"Q I.P.oX+X#XJ.N.N.k.Q ^ Q T Q :.z.J.lX9.O.H.b.H.l.k.c.)._._.'.C.] ~ @.; E +.Q *.A.A.=.l.l.H./.!.c.H./.{ a.:.<XiXsX5XdXiX>X,XI.f ",
"^ /.Q.H.H.J.&.x.M.y.+. .^ +. . . .&.).J  .l.*.l./.l.b.^._.'.:XN.] ! ' & Q ,.[ &.G.H.H.c.s.J.H.H.H.*.D.S b.a.,./.;X6X5X;XQ.`.<Xh ",
"u i.k.|  .:.t ] _.C.a.*.X.,.c.b.^.Q.:X..A D | X.&.X...L P ..x...u u Y   i v c l.c.Q.Q.Q.c.G.H.a.,.1.F.c k.c.O.+.c.g.9.r.S c [ t ",
"H.qXpX^.<.E.S J *.H.l.%.m.l.c.b.Q.H.+XJ.H.+XY.[.).C.c.C.K.).8XrXo.:.$.  ; %.h c.`.Q.^.|.|./.c.H.l.*.R./.,.J.L.S.{.].&Xc.;XtX1X-X",
"tXiX2X2X/.{.$XH k.c.)._.N.a.l.s.l.I.H. .>.:.<.,.R.L.z.K.U.U.,.:.%.L.w   > #Xz y.Q./.c.G.s.[.`.H.H.A.S.&.~.&.$.1.T.A.G.F.1./.0X}.",
"1X0XiXiX_.{.%XK k.b.l.a.z.+. . .^ $.( Y #.+._ ( :.D.>.k.,.D D.>.E K.< l.> oXM N.Q.!.`.G.G.!.!.G.H.A.J.c.:XQ.@.$.F.$.c.`.G.s.S.<X",
"A.J.2X2XiX1X$X..b.b.H.a.&.l.&.Q Q &.*.Z z.:. .+.2.2.z.K.,.  Y.D.  U.  k.< +XM Q.'./.!.Q.Q.Q.|.G.G.G.J.c.>X0XG.Q ` -.Q.`.|.|.!.G.",
"G.A.}.iXaXzXjX{ Q.^.N.c.l.&.&.&.Q ^ :.S l.D.D.l.,.U.F K.K.  U.(.  (.  P.1 7X7.d.Q.Q.-X`.Q.~.|._._.G.H.~.aXiXQ.( ) R #.S.G.!.!.}.",
"0Xs.S.`.>XzX3XM { t.....t.H A b t c E j o.H &.X.| o.j D.K.  | oX  I.    3   K G { K K p.r.} { { t.t.K r.6X*Xd.v Y c ! ) -.S. XJ.",
"<X<XQ.S.:XzXxXG.(.]./.^.x.J } r.B A ,./ k.u.H B L w c S Y.  J P.  C.    &   m...] j s K r.e.K B n k G r.r.e.K L H 2 ( @.~ -.A.H.",
"[.G.!.A.S.lX$XX.F.=.s.= h.h.w.fXsX^.) . . p qXwXOX2.j   K.  k.P.  k.        k.  +.&.^ I.8X].9X7X7XwX8XqXdX7XwXeXsX9.Z ` -.) <.S.",
"-.[.`.`. X`.* * = w.w.w.9 9 9 . . . . 7 E J.J.J.{.z.h   K.w oX^.h           #   ,.Q.+.<.P.a.Y.H.b._.(.XX(.XX].].qXj.i ) ) @.;.;.",
";.S.!.7 - w.h.9 9 9 9 9 9 e.e.*.z.F.H.P.H.J.J.l.L.G.< b K.K.P.oXd           #   v.z.^ :.D.i.].`.b.^.P.7X:X(.^.].8Xi.T @.) ) -.;.",
"=.- 6.q.6.9 9 9 9 e.e.H.}.X.;.s.s.S.A.A.I.F./.F.{.^.4 o.P.I.XX(.            #   e.H._ :.&.O.^.'.^.P.^.).(.<X'._.0XM.v ) -.+.@.;.",
"C 9 9 9 9 f.V X.S.S.s.G.<Xa.G.:XQ.A.*.*.S./.} } a.X.h G A G G ..            d     } v v   b p.i.r.x._.(._.(.XX'.4Xv.b +.$.*.=.=.",
"> , , & ; B b V H } K { } C.0X,X7X/.I.G.l n n l H L g z x d w s 3 a & # # s 1 1 8 8 : 4 4 w l M l B L I I I L N.4Xv.& : ; & : e "
};
