/* XPM */
static char *result[] = {
/* columns rows colors chars-per-pixel */
"64 64 212 2 ",
"   c #776746",
".  c #78704F",
"X  c #7C7351",
"o  c #806F4C",
"O  c #8B784E",
"+  c #897753",
"@  c #8B7956",
"#  c #917D58",
"$  c #9B854F",
"%  c #97855D",
"&  c #9A865C",
"*  c #9E8957",
"=  c #A38C5D",
"-  c #A48B56",
";  c #A9935D",
":  c #B99B5F",
">  c #8D8265",
",  c #998660",
"<  c #9C8C6A",
"1  c #978B63",
"2  c #A59364",
"3  c #A99464",
"4  c #A7936A",
"5  c #AC9C6C",
"6  c #AA996A",
"7  c #B39C65",
"8  c #BB9D61",
"9  c #B49D6B",
"0  c #A69971",
"q  c #AC9D72",
"w  c #B29E72",
"e  c #BCA265",
"r  c #B5A26D",
"t  c #BBA56D",
"y  c #BFA96C",
"u  c #B4A066",
"i  c #AEA273",
"p  c #B5A373",
"a  c #BBA674",
"s  c #BDAA74",
"d  c #BCAB7B",
"f  c #B5A779",
"g  c #BCB17C",
"h  c #C3A464",
"j  c #C7AB67",
"k  c #CBAC66",
"l  c #C1A76A",
"z  c #C5AB6A",
"x  c #CBAD6B",
"c  c #C8A664",
"v  c #D1AF6C",
"b  c #CDB16D",
"n  c #CBB06B",
"m  c #D3B36C",
"M  c #DAB46D",
"N  c #D6B96E",
"B  c #DCBC6F",
"V  c #D3B367",
"C  c #C3AC75",
"Z  c #CAAD71",
"A  c #C2AD7B",
"S  c #C2A770",
"D  c #C5B175",
"F  c #CCB474",
"G  c #C4B37C",
"H  c #CBB57C",
"J  c #CEBA7C",
"K  c #CBB978",
"L  c #D3B573",
"P  c #D9B771",
"I  c #D6BA73",
"U  c #DBBC74",
"Y  c #D3B67B",
"T  c #D4BB7C",
"R  c #DBBD7B",
"E  c #E1BD75",
"W  c #E2BF78",
"Q  c #DCC176",
"!  c #D6C17C",
"~  c #DCC27C",
"^  c #DEC87E",
"/  c #E3C475",
"(  c #E2C47B",
")  c #E4C97D",
"_  c #EACC7E",
"`  c #E9C977",
"'  c #F1D17E",
"]  c #333790",
"[  c #5633A8",
"{  c #326DD9",
"}  c #27ABFA",
"|  c #79C8FA",
" . c #BBAE81",
".. c #B6AB81",
"X. c #BFB387",
"o. c #BEB489",
"O. c #C0AE82",
"+. c #C4B483",
"@. c #CAB582",
"#. c #C5BA83",
"$. c #CCBB82",
"%. c #C4BA8B",
"&. c #CEBD8B",
"*. c #D3BD83",
"=. c #DBBE82",
"-. c #D3BF8B",
";. c #CBBF92",
":. c #CBC18B",
">. c #CFC487",
",. c #D5C285",
"<. c #DCC483",
"1. c #DEC984",
"2. c #D5C38B",
"3. c #DBC58A",
"4. c #D6CB8E",
"5. c #DDCA8C",
"6. c #D4C592",
"7. c #D5C993",
"8. c #DDCB93",
"9. c #DCCC9A",
"0. c #D8C896",
"q. c #DED093",
"w. c #DCD19C",
"e. c #D2CA8E",
"r. c #E3C584",
"t. c #E8C785",
"y. c #E4CB84",
"u. c #EACB84",
"i. c #E2C68A",
"p. c #E3CC8B",
"a. c #EACD8B",
"s. c #E6D185",
"d. c #EBD185",
"f. c #E5D18C",
"g. c #EBD38C",
"h. c #ECD98D",
"j. c #E8D98A",
"k. c #F2D383",
"l. c #F1D984",
"z. c #F2D58C",
"x. c #F4DC8D",
"c. c #F8D98F",
"v. c #E3CD92",
"b. c #E9CE92",
"n. c #E0CF9B",
"m. c #F1CF93",
"M. c #E5D393",
"N. c #EBD493",
"B. c #E7D995",
"V. c #ECDA94",
"C. c #E4D49A",
"Z. c #ECD59A",
"A. c #E6D99B",
"S. c #ECDB9B",
"D. c #F1D593",
"F. c #F2DB94",
"G. c #F2D799",
"H. c #F2DC9B",
"J. c #F8DB97",
"K. c #F4E18E",
"L. c #EEE19C",
"P. c #EFE096",
"I. c #F4E395",
"U. c #F3E39C",
"Y. c #F9E49B",
"T. c #F4EA9C",
"R. c #FAEB9E",
"E. c #FAE396",
"W. c #D5CBA3",
"Q. c #DBCFA6",
"!. c #DCD2A3",
"~. c #DDD3AA",
"^. c #DFD9BB",
"/. c #E5D5A3",
"(. c #E5DAA4",
"). c #EBDCA3",
"_. c #E4DCAA",
"`. c #EBDEAA",
"'. c #F2DEA2",
"]. c #F1DFAC",
"[. c #EADEB2",
"{. c #E0D7B4",
"}. c #EEE2A4",
"|. c #EDE3AC",
" X c #E7E0AD",
".X c #F3E4A3",
"XX c #F5E9A4",
"oX c #F8EAA4",
"OX c #F2E5AD",
"+X c #F4EAAC",
"@X c #F9EDAA",
"#X c #FAF2AB",
"$X c #F7F1AB",
"%X c #EDE5B4",
"&X c #EBE6BD",
"*X c #E6E0B3",
"=X c #F2E5B2",
"-X c #F3EBB3",
";X c #F5EDBB",
":X c #F9EBB3",
">X c #F7F1B3",
",X c #FAF2B4",
"<X c #F9F3BD",
"1X c #FBF6B6",
"2X c #DAD4C2",
"3X c #EFE7C0",
"4X c #F7F2C5",
"5X c #F9F1C1",
"6X c #F7F2CA",
"7X c #FAF6D2",
"8X c #F0E7C4",
"9X c #E7F3F3",
/* pixels */
"@.:Xb.p.3.p.M.Y.#X#X#X1XB.:.).`.'.a.v.G.N.'.H.a.G.@Xg.x.R.T.@X%X6..X'..X-.i.G.c.J.S._ k.e S Z..X+XA.A.U.2.q.q.A.@X+X=.m.t.=.W a.",
"= ( y.y.h.j.s.h.V.h.h.I.s.:.N.g.t.y.p.V.G.a.b.V.Y.V.T y.( U _ p.d =.t.m.N.a.b.t.t.t.a.k.L A 5.C.M.B.M.Y.}.).A.M.oXw.P M M M W J.",
"# m Q B Q 1.! ! y.^ y.K.f.C R _ ( p.p.a.a.D.a.a.Y.p.R ~ u.~ r.p.O.Z.p.i.t.a.a.=.=.r.t.m.=.#.v.V.A.M.M.q.B.).S.A.A.:.( M M M E c.",
"# Q ~ / ^ s.^ s.j.f.y.d.s.7 x L U t.<.N.N.V.v.i.g.p.R y.z.p.y.g.a t.a.a.t.t.t.a.r.t.t.J.3.$.v.A.V.Z.M.w.4.V.S.U.U.8.x M M M B K.",
"& Q Q N Q _ _ s.f.U.f._ d.G M.C.R ~ p.p.a.p.v.v.N.1.Z h.a.G.f.M.a i.t.t.i.t.t.r.r.r.t.H.M.G 5.B.M.M.j.M.q.M.M.A.).2.v M M E M k.",
"$ N ) ) Q N Q ^ 1.I.f.^ _ G 2.3.Y x l t a s a 9 *.3.7 K K R 3.,.A a.m.=.r.=.r.r.a.=.r.N.M.G 4.8.4.2.q.q.>.,.5.,.,.A R L M P R z.",
"* Q Q Q ^ Q ^ Q Q y.S.F.I.S.V.F.g.k.Y.1.~ F.oX@X@XJ.h.<.<.5.L.}.a =.r.t.r.r.t.t.t.m.a.G.XX3.5.f.A.5.<.g f s s G 2.G G s p r S a ",
"O N N ^ Q N Q Q I _ T.L.j.3.p.p.p.b.H.f.f.) g.h.f.F.p.M.h.F.Y.}.a r.t.t.t.r.W t.t.a.i.G.H.! ) _ y.Q ' 1.B.}.V.V.L.+XM.V.S..XoXG.",
"X Q N Q Q Q V B Q Q j.I.B.3.3.<.1.p.g.<.<.y.y.d.g.V.N.1.1.) u.j.A =.t.=.r.t.r.r.t.a.m.m.3.( P P / Q / Q 2.Z.C.1.1.H.S.C.Z.v.Z.T.",
"+ n N Q Q Q b N Q ^ s.P.B.y.y.3.L t.g.<.p.v.p.a.z.! ) ) N N B / 9 t.t.m.t.a.m.t.r.i.G.G.5.y.` / / Q ` V <.1.b.M.5.p.Z.v.V.Z.Z.@X",
"% b Q Q V V N N N Q ) P.,.F U ! L N u.D M.Z.V.M.f.M.~ y.~ U N / 9 =.t.t.t.t.b.a.i.b.m.'.8.f.u.) / / / b <.1.v.p.1.p.3.5.M.H.L.1X",
"% y n b n n F z j j F ^ K +.F ,.b m / S f.p.f.h.F.V.y.p.~ / ` ) 9 Y =.@.Y =.b.v.b.i.=.b.3.y.^ ` / B / F v.=.y.M.1.a.C.p.p.A.Z.#X",
"5 Q Q Q ! ,.D r D D G H K o.6.7.e h I 7 p.f.a.N.F.p.V.h.r.y.~ d.Y t.5.1.=.=.9 A O.a A @.O.Y Y ~ Q n k t 8.p.R y.1.Y V.N.<.<.M.R.",
"2 w.(.A.|.+XH.g.F.I.I.F.x.F.F.F.D.F.x.C 5.V.f.1.F.N.p.p.) h.z._ Y a.y.a.t.F.v.n.'.b.a.G.H.J.V.V.f.y.I u -.p.<.U y.y.I <.p.M.v.z.",
"> %X|.|.%X%X[.=.k.u.a.p.<.y.p.g.g.D.XX$.v.V.M.V.U.H.N.f.1.f.y.y.Z W i.a.y.N.p.=.i.i.Y P R U R r.).S.N.s 4.v.v.<.<.~ ~ I y.p.C.C.",
"> %X-X%X%X;X{.l _ y.u.u.y.r.a.D.V.g.@X#.q..XZ.g.N.H.V.V.f.V.g.f.Y r.t.g.V.V.*.Z P r.t.i.i.i.i.=.W a.V.X.v.5.p.<.<.~ ~ x m U g.&X",
"< |.|.`.-X;X~.j E ( u.a.g.a.g.a.a.p.U.H ,.V.Z.f.Z.S.V.V.N.s.g.f.Y p.r.p.D.H.*.=.Y =.i.=.i.i.i.i.i.m.S.d p.v.Z.p.3.1.M.T b m ! Y.",
"+ *.A.(.*X%X~.h P U t.z.p.a.D.G.N.t.x.,.#.M.M.M.V.q.f.p.f.p.M.1.D u.p.p.N.b.@.i.=.=.m.v.3.b.b.0.-.D.G.w v.p.p.M.5.p.p.p.*.Y ! y.",
", a H &.6._. .l p.( a.H.).,.m.a.u.( c.<.:.q.4.f.Z.H G K $.J ,.,.7 Z =.*.*.v.w t.b.3.3.m.n.m.Z.m.v.C..Xp ,.,.H H G S r y 9 y T M.",
"f.V.y.) F.:XW.S r.=.f.v.V.Z.y.r.( ` ' R M.A.B.| 9X9X9X9X9X9X9X9X9X9X9X9X9X9X9X9X9Xb.v.v.m.9.n.m.D.H.'.*.1.p.5.p.V.K F u.y.F.T.R.",
"1.p.y.1.N.;XW.s y.V.N.H.H.G.<.r.R R u.F l x } [ 9X{ { } } } } } | | | 9X| | | | | 9Xn.b.n.G.b.i.i.G.Z.=.a.R t.r._ U y.) y.g.g.F.",
"^ f.y.B.f.k.4.C p.G.b.a.N.g.y.t.t.i.V.y e } [ 9X{ { } } } } } } } | | 9X| | | | | | 9X].0.b.8.b.3.v.Z.Y U m L E u.L T j.h.~ Q ` ",
"U Q ^ ) y.K.4.D p.N.D.G.M.u.i.t.N.Z.+X$.} [ [ 9X{ { } } } } } } } | | 9X| | | | | | | 9Xb.Z./.Z.n.).C.=.v P R r.a.K ! ^ ) 1.! ) ",
"s.p.p.y.j.I.4.p R p.g.M.Z.a.N.a.a.u.u.| [ [ 9X{ { } } } } } } } } | | 9X| | | | | | | | 9X'.).G.v.m.n.3.=.L r.=.b.Z ^ y.y.s.<.~ ",
"y.y.h.g.h.J.q.% 3 2 5 d +.s r 3 % = | } } } 9X9X9X9X9X9X9X9X9X9X9X9X9X9X9X9X9X9X9X9X9X9X9X9X6.-.-.b.0.-.Z.t.r.=.p.t N ) ) f.y.^ ",
"f.1.f.p.~ ' h.5.+XXX)..X}.3.H.C.5.,.} [ [ [ 9X{ { } } } } } } } } | | 9X| | | | | | | | 9X9X< < < w A a @.A 9 S A % N Q / ( f.y.",
"x.N.g.y./ V.4.2.Z.C.v.C.+XM.M.M.F..X} [ [ [ 9X{ { } } } } } } } } | | 9X| | | | | | | | 9X9Xa.r.=.v.).-.,.i.-.6.`.2 V P Q y.y.1.",
"h.h.h.) / / ! @.Z.n.4.3.XX$.V.v.3.N.{ [ [ [ 9X{ { } } } } } } } } | | 9X| | | | | | | | 9X9Xt.v v E r.9.Q.v.a.'.8Xp ( ! j.s.P.$.",
"y.! ^ U Q d.2.&.v.n.v.3.N.,.V.A.M.A.{ [ [ [ 9X{ { } } } } } } } } | | 9X| | | | | | | | 9X9Xi.R v M P t.'.b.t.'.).f ~ 1.<.f.S.j.",
"p.<.I I B h.2.#.8.v.v.C.N.-.H.Z.M.N.} [ [ [ 9X{ { } } } } } } } } | | 9X| | | | | | | | 9X9Xb.t.=.R W Z E U R t.g.g y.1.f.N.V.V.",
"K K ! f.B.+X#.:.v.8.8.v.G.*.N.V.N.M.| } } 9X9X9X9X9X| | | | | | 9X9X9X9X9X9X9X9X9X9X9X9X9X9Xr.r.Y W t.=.=.t.<.r.g.s 1.B.f.f.1.p.",
"7 r 2 1 2 7.+.+.@.@.H H G $.N.M.V.}.} ] [ [ } [ [ [ { { } } } } } } } 9X} } { { { { { { { 9XW =.R P t.t.( t.p.y.V.p f u 5 6 J 5 ",
",.oXXXV.F.F.f.f.y.b ,.y.T $.N.S.M.H.V.{ ] [ { [ [ { { { { { { { { } } 9X{ { { } } } } } 9X*.r.R a.R r.t.i.i.b.b.J.-.,.3.2.F L.f ",
"H Y.f.h.V.V.g.j.|.-X}.;XK J M.M.8.M.V.g.{ ] [ } [ [ { { { { { { { { } | { { } } } } } 9XO.Z ~ t.a.i.t.D.b.v.b.N.S.*.H.g.a.<.1.0 ",
"D f.f.1.y.~ ^ S.;X-XOX4X!.$.L.S.B.M.N.S.A.] ] [ } [ { { { { { { { } 9X{ { } } } } } 9XXX+.T =.i.a.D.i.v.b.m.C.H..X,.i.D.z.m.V.0 ",
"K ~ y.y.^ ^ 1.~ S.|.}.-X_.H M.L.V.M.M.M.p.N.] ] [ } [ { { { { { { } 9X{ { } } } } 9Xi..X+.Y t.r.r.b.b.C.v.b.m.b.Z.T i.a.g.g.N.q ",
"D y.V.p.~ b ! q.q.}.s.j.f.g ,.p.N.F.M.M.B.1.U.] ] { [ [ { { { { { } | { } } } } | C.,.A.&.Z u.i.i.a.p.v.'.n.v.b.N.H M.a.a.a.d.5 ",
"K 1.s.f.,.S.}.+X|.1.1.f.j.s ,.,.3.3.5.,.,.G ! 1.] ] } [ { { { { } 9X{ } } } } 9Xv.1.p.V.G S R i.i.i.p.v.C.v.v.v.v.A <.g.t.a.N.d ",
"D }.|.XXq.! ! <.! ~ y.1.s.s.h.y.h.V.S.,.,.~ 5.! y.] ] } [ { { { } 9X} } } } 9Xp.<.3.1.V.p.3.b.a.N.C.@.9 4 p O.@.-.a t a t Z <.w ",
"u Q 1.^ q.}.OX}.>X|.|.5XA.T ! ,.y.f.+XT.S.F.j.u.U / ] ] } [ { { } 9X} } } 9X<.v.V.v.i.V.p.y.z.k.g.z.@Xt.=.r.F.z.H.U.d._ s.` ` 7 ",
"r ,.~ 5.A.(.;X>X>X;X-X>XS.B.1.1.V.A.A.f.2.<.3.y.T x m ] { [ [ { } | } } 9X3.1.p.1.p.*.y.-.t.y.g.N.a..X*.3.p.*.R t.( T P U / _ 3 ",
"g S.B.A.}.A.}.+X+X|.}.}.5.f.f.1.g.I.T.f.5.v.5.f.y.<.F F ] } [ } 9X} } | p.a.v.p.p.v.<.y.T u.y.u.g.u.l.2.C.(.8.L U ( I I M P u.2 ",
"o.>X|.(.|.+X-X X(.M._ h.! q.1.s.g.f.h.! T ,.<.=.,.p.p.<.1.] } [ 9X} | <.*.y.p.p.<.f.p.a.y ( k.a./ z.oX`.5.=X`.<.v V ( E m I _ 2 ",
"0 (.%X X X|.(.,.K z z I z ! 5.! ~ p.f.g $.3.<.*.T y.L R r.<.] { | { F L F <.T H *.Y @.,.a Y =.a.R ( S.w.OX;X|.p.N k P M P Q _ t ",
"8 A.&X*X X X!.,.7.7.7.q.~ F ,.<.T 1.M.s 3.p.T ! ! ! ! D <.! p.] { Q R R I T C a F 2.!.Q.9.2.Y <.=.L C.6.`.:X;X8.k k L j h h / F ",
"L y.V.S.h.oX$X}.%X%Xf./ d.V.=XXXV.V..Xp J f.1.<.T <.p.T p.M.p.S.T h.( U _ u.R '.XXH.'.;X`.g.a.k.h.F.3.d A.`.`.(.Y I ).v.}.v.U b ",
"F N.g.U.N.T.B.7.9.9.<.m m M.OX;X X X4X .Y y.3.T p.,.f.3.3.8.).q.$.R R L m U e M R =.i.i.n.*.L P L u.a.A (.`._.`.A.t.).Z.A.3.U - ",
"n g.V.H.M.Y.M.4.3.*.F N j m <.A.(.`.6Xo.K ! <.<.<.,.p.v.v.5.S.w.H R T L L I l T R R L R b.C.=.<.*.p.F.s y.v.|.`.|.M.|.`.%XOXy.= ",
"x g.f.L.T.Y.M.9.8.<.x n k z k ~ <.M.5XX.K p.y.p.3.,.3.V.B.C.B.!.S m U U x I z R r.<.R <.<.p.M.v.3.v.N.A =.R ).OX=XOX;X=X_.`.f.= ",
"b N.p.p.y.u.Y 2.8.H F L b L F L F R V.C D <.! r.g.,.5.C.C.A.).9.C h v P P R Z T i.a.i.3.=.a.a.p.a.R u.r 5.=.~ N./.|.`.`.f.Z..X4 ",
"; $.,.D F ~ ; y C.9.,.! F <.3.5.M.v.S.A t s C D *.H A s g G 2.X.3 ; h e 8 8 7 3.5.v.p.v.3.i.p.=.W ( u.7 ,.5.J L 2.:.%.+.t 7 Z = ",
"p.-X=XB./ z.a A T p.<.Y 6.3.1.3.v.p..Xp.p.I.N.F.V.w.3.w.s.h.+XXXf.Q ! I I I 3 3.Z.v.C.G.F.Z.3.p.<.~ z.M.! y.g.u.F.S.Q.3./.%X]./.",
"=X=X[.[.N.c.W.a *.3.A.A.8.J 1.<.<.g.p.F U R ~ ( l.g.1.f.h.j.^ Q s.j.j.x.j.T.5 $.i.N.i.i.i.N.N.a.p.<.a.=.v.Y P ( d.t.t.a.( N.OXH.",
"].=X%X=XC.U.Q.a ,.y.3.T <.Y F F v U N h I I V m / y.! ~ ^ ^ s.Q ) s.y.y.f.P.0 8.n.b.C.i.i.b.b.i.i.t.a.3.).C.U U _ W ,.C.i.=.t.'.",
"t.a.`.[.=X'.W.+.5.1.8.*.T <.R z k ! T e <.( F I ( ) <.s.^ ^ h.1.s.h.f.f.N.XXq v.Z.N.b.v.i.n.G.v.v.3.a.,._.|.i.k B E i.H.H.G.b.i.",
"3.r.'.=X;X7X2Xd v.C.v.3.<.Y T T x n ~ y <.1.p.! ! h.T s.1.s.h.M.5.V.V.S.L.@X .*.C.n.Z.C.v.b.G.C.b.p.i.n.;XOXC.v M k L r.a.a.b.'.",
"OX=.t.G.[.7X{.q A @.G G @.p t 5 = 7 l 3 K s T H D ! D s.1.f.f.P.B.f.j.B.B.$Xg p A d A @.A A A A +.@.s +._.{.2.8 h 7 c M E t.a.b.",
"'..Xv.t.).6X8Xi.V.A.N.b.q.G H @.p 9 ~ b ,.%.d w f & D s.j.f.y.f.L.XXB.B.L.oX4.J C 3 , ..@.O.d w q 4 p +.+. .d a f # m P V W t.a.",
"D.t.b.=.t.5XQ.Y y.t.p.=.Y.-X;X,X-X}.( J.p.Y.@XoXI.^ s ~ s.f.j.f.4.f.}.q.V.B.>.R I T b N.XXH.XXU..X@XXX+X+XXX@X#X-Xo.h M E M E t.",
"E N.Z.Z.m..X6.*.t.r.t.V.G.,.C.a.Z.g.r.f.p.M.a.g.F.1.y 1.j.h.V.B.B.P.T.L.L.}.#.T ! p.I Q a.*.M.p.p.C.Z.U.A.S.S.).+X:.: M M M W ( ",
"W a.Z.G.G.G.=.Y W =.r.N.J.-.<.R r.p.p.f.a.a.a.1.d.i.D <.f.1.j.P.4.1.B.T.}.|.#.K 3.5.n / p.>.S.V.5.v.M..XL.B.M.A..X%.c M M P E E ",
"=.t.a.b.G.J.T =.a.i.r.i..XY R r.R t.y.t.b.y.b.y.F.M.H 1.f.j.A.V.T.q.S.P.q.L.:.q.C.1.I U u.H M.A.M.f.M.V.A.}.C.B.=X0.8 E U L P E ",
"Y Z R =.v.Z.C Y i.i.r.i.H.-.i.S.b.r.R R y.N.M.a.I.B.s ,.>.! ! B.B.4.4.q.4.q.i 1.w.M.U U I J B.}.B.B.M.A.q.S.).A.).4.7 Z E R Y R ",
"+       o w 9 9 C d d A A 9.OX`..XN.M.a.p.a.v.p.I.P.,.q.>.! g G i i 1 X . g q i ..f : l e K 5.M.8.A.}.A.A.S..X.XXX3.  + o   O = "
};
