/* XPM */
static char *result[] = {
/* columns rows colors chars-per-pixel */
"64 64 249 2 ",
"   c #3E1F22",
".  c #6C1E12",
"X  c #601E15",
"o  c #6E2114",
"O  c #732313",
"+  c #7B2914",
"@  c #752817",
"#  c #7C3514",
"$  c #7B3423",
"%  c #752D23",
"&  c #421E20",
"*  c #7B541F",
"=  c #786A49",
"-  c #842E15",
";  c #843A13",
":  c #983C17",
">  c #995D13",
",  c #974816",
"<  c #A34319",
"1  c #AA481A",
"2  c #B9541B",
"3  c #B14C1A",
"4  c #9E6A13",
"5  c #AB7914",
"6  c #A76A15",
"7  c #8E5436",
"8  c #8C4B2F",
"9  c #BE5D24",
"0  c #AE6C29",
"q  c #C1571D",
"w  c #C25C1C",
"e  c #C76B1C",
"r  c #C5641C",
"t  c #CB771B",
"y  c #C35D23",
"u  c #C5642B",
"i  c #CA7539",
"p  c #C36D33",
"a  c #8B784E",
"s  c #8A7855",
"d  c #8F704D",
"f  c #AB764D",
"g  c #AB7278",
"h  c #AF7A7B",
"j  c #A76C71",
"k  c #874A43",
"l  c #CD7E40",
"z  c #BDA512",
"x  c #CE821A",
"c  c #D18D1A",
"v  c #C89916",
"b  c #D69B19",
"n  c #D39419",
"m  c #DBAA18",
"M  c #D7A318",
"N  c #DDB517",
"B  c #C4AB13",
"V  c #D4922F",
"C  c #D2B333",
"Z  c #E2BE25",
"A  c #D4C912",
"S  c #E2C317",
"D  c #E4C817",
"F  c #E4C81C",
"G  c #E6D316",
"H  c #E8DD15",
"J  c #EAE714",
"K  c #EFF613",
"L  c #DCC233",
"P  c #E3C927",
"I  c #E5CA38",
"U  c #E7D829",
"Y  c #99865B",
"T  c #9B854F",
"R  c #A38C5C",
"E  c #BA995F",
"W  c #B08E59",
"Q  c #998964",
"!  c #8D8265",
"~  c #AA9564",
"^  c #AC9C6C",
"/  c #A69467",
"(  c #B39C65",
")  c #B49D6B",
"_  c #BC9867",
"`  c #A99B72",
"'  c #B59D73",
"]  c #B18C70",
"[  c #B5A26D",
"{  c #BCA56D",
"}  c #BCA366",
"|  c #AEA273",
" . c #B6A373",
".. c #BBA574",
"X. c #BDAA74",
"o. c #BCAB7B",
"O. c #B4A778",
"+. c #BCB17C",
"@. c #CD8549",
"#. c #D38E52",
"$. c #CB9659",
"%. c #CF9256",
"&. c #CBA95C",
"*. c #D7BA5D",
"=. c #D3A659",
"-. c #C59B6A",
";. c #C5AB6A",
":. c #CBAD6B",
">. c #C6A866",
",. c #D5A96A",
"<. c #CDB26D",
"1. c #C7B56D",
"2. c #D3B36C",
"3. c #DAB46C",
"4. c #D6B96E",
"5. c #D8BA6A",
"6. c #C3AC75",
"7. c #C2AD7C",
"8. c #CAAC73",
"9. c #D9AD71",
"0. c #C5B175",
"q. c #CCB374",
"w. c #C4B27C",
"e. c #CCB67C",
"r. c #CDB97D",
"t. c #CBB978",
"y. c #D3B573",
"u. c #D6BA73",
"i. c #DBBD74",
"p. c #D2B67B",
"a. c #D4BB7C",
"s. c #DBBC7B",
"d. c #DAB674",
"f. c #E2BD75",
"g. c #E2BE7B",
"h. c #E7B571",
"j. c #E0AC6D",
"k. c #DDC352",
"l. c #E4CB48",
"z. c #E5CC55",
"x. c #E9D247",
"c. c #DBC769",
"v. c #DCC175",
"b. c #DCC27C",
"n. c #D6C17C",
"m. c #E6CB67",
"M. c #E3C475",
"N. c #E2C47B",
"B. c #E4C97D",
"V. c #EACC7E",
"C. c #E8CA77",
"Z. c #E7D37B",
"A. c #EDD477",
"S. c #F0F147",
"D. c #B28388",
"F. c #B28E8B",
"G. c #BAAE82",
"H. c #BEB489",
"J. c #BDA3A4",
"K. c #C5B483",
"L. c #CAB582",
"P. c #CCBB82",
"I. c #C8BB88",
"U. c #D3BD83",
"Y. c #DBBE82",
"T. c #D4BC88",
"R. c #C8B488",
"E. c #C2ABAD",
"W. c #C8B5B8",
"Q. c #CAB6B6",
"!. c #C4ACB0",
"~. c #C09590",
"^. c #CDC289",
"/. c #D4C285",
"(. c #DBC483",
"). c #DEC985",
"_. c #D4C38B",
"`. c #DBC58B",
"'. c #D7CA8E",
"]. c #DDCA8C",
"[. c #DDCB92",
"{. c #D6C793",
"}. c #DED192",
"|. c #DDD39B",
" X c #D1C78F",
".X c #E3C584",
"XX c #E4CB84",
"oX c #EACB84",
"OX c #E2C68A",
"+X c #E3CC8B",
"@X c #EACD8B",
"#X c #E9C684",
"$X c #EBD284",
"%X c #E5D18C",
"&X c #EBD38D",
"*X c #ECD98D",
"=X c #E7D486",
"-X c #F4DB8D",
";X c #F2D588",
":X c #E3CD92",
">X c #E9CE92",
",X c #E1CB96",
"<X c #E5D393",
"1X c #EBD493",
"2X c #ECDA94",
"3X c #E4D49A",
"4X c #EBD599",
"5X c #ECDB9B",
"6X c #E6D999",
"7X c #F1D593",
"8X c #F2DB94",
"9X c #F2DC9B",
"0X c #F5D998",
"qX c #F1CF93",
"wX c #EEE19C",
"eX c #EFE096",
"rX c #F4E294",
"tX c #F3E39C",
"yX c #F9E49B",
"uX c #F7E89B",
"iX c #F4E18E",
"pX c #D7CDA2",
"aX c #DCD2A5",
"sX c #DFD9BB",
"dX c #E5DAA4",
"fX c #EBDCA3",
"gX c #EADDAA",
"hX c #E4D9A8",
"jX c #F2DEA2",
"kX c #E4DBB4",
"lX c #EDE2A4",
"zX c #EDE3AC",
"xX c #E7E0AD",
"cX c #F3E4A3",
"vX c #F5E9A5",
"bX c #F8EAA4",
"nX c #F2E5AC",
"mX c #F4EAAC",
"MX c #F9EDAA",
"NX c #F9F2AC",
"BX c #EDE5B3",
"VX c #E9E4BA",
"CX c #F3EBB3",
"ZX c #F5EEBA",
"AX c #F5E9B2",
"SX c #F9F3B7",
"DX c #F7F1C4",
"FX c #F1EAC5",
"GX c #DAD4C2",
/* pixels */
"L.AX>X:X(.+X1XuXNXNXNXSX*XI.gXfXfX&X>X8X4X9X9X@X9XvX*X-XuXuXNXBX XcXjXjXT.OX7X0XjX5XC.;X-.{ 6XcXmX6X4XtX^.}.}.4XNXvXY.qX@Xg.s.+X",
"R N.V.XX*X*X%X*X2X*X*XrX=X^.1X1X#XXXOX4X0X&X&X4XyX5Xa.#XN.d.XX@Xo.Y.@X@X4X@X@X#X#X#X@X;Xq.w.].<X1X6X1XcXlXwX6X3XvX|.d.3.,.3.M.yX",
"s 4.v.u.v.XXn.n.B.b.=XiX%X6.s.V.N.@XOX@X+X1X+X@XyX%Xs.b.XXN.XX+XK.4X@X.XOX@X@X.XY.#X#XqXs.I.,X4X6X}.}.}.4XlX5X6X5X^.g.3.3.3.f.-X",
"s v.v.M.b.=Xb.].%X1X).$XZ.( :.y.s.XXb.1X1X7X>XOX&XXXs.XX&X@XXX<X...XOXqX#X.X#X@X.X#XoX0X(.P.<X2X4X2X<X|.'.4X6XwXlX[.:.3.3.3.h.iX",
"R v.n.4.v.=X=X=X%XtX=XV.=Xw.<X3Xs.b.XXOX+XOX:X+X1X(.8.&X&X7X%X1X7.8.8.OXOX-.#X.X#X.X.X9X<Xr.}.<X1X<X2X<X}.<X1XeXlXT.<.2.h.d.3.;X",
"T u.V.B.v.4.v.N.).eX1Xb.V.w._.`.p.8.;...X.X... .U.'.( e.p.n.(.`.6.& qX.X#Xd.7 .X@XY.OX1X<Xw._.}.'._.}.'.^.n.'././.K.s.y.2.d.s.;X",
"T v.v.v.N.v.C.v.v.XXeX2XrXfX4XrX;X$XyX).b.8XbXMXMX0X$X).(.+XwX6X..U.Y.#X.X#X- >X#XqX@X0XnX(.].%X6X]./.+.O.X.X.w._.w.6.X...[ X.{ ",
"a u.u.M.v.<.v.v.4.V.tXwX*X`.+X+X+X%X9X:X=XoX=X*X&X8X<X:X*X2XuXlX' .XOX#X#X.XY.#X#X+XOX9X5Xv.C.B.).M.A.%X4XlX2X2XwXnX<X2XwXcXbX0X",
"a 4.v.u.M.v.2.u.v.v.=XtX6X(.`.).).+X&X(.(.XXXX@X*X2X1X).b.XXV.*X7.OXOX.X.X#X#X.X#XOX>X0X`.#Xi.i.M.v.C.u._.1X3X(.).9X5X3X4X+X1XuX",
"s <.4.4.u.c.<.5.v.b.=XeX<XXXOX(.u.XX7XY.+X:X].@X&Xb.N.N.u.4.5.M.) #X#X@XOX#XqX#XOX@X4X0X`.XXM.M.M.M.C.<.(.].<X1X].+X4X<X5X4X4XNX",
"s t.v.v.4.2.5.u.4.c.XX*X/.q.s.b.y.2.oX0.%X2X2X*X%X1Xb.XXb.u.i.M.' .XOX#X#X#XqXOXOX>X>XjX[.&XoXC.M.M.M.<.(.`.+X+X).OX`.).<X9XlXSX",
"Y ;.1.<.<.;.q.;.;.;.q.=Xt.K.t.a.:.2.M.6.<XOX&X1X2X2XXX=XN.N.C.N._ 8.p.Y.p.Y.7X:XOXOXY.7X'.XXb.B.M.. o 8 <X(.XX:X.X&X3X].OX5X2XNX",
") s.v.u.s./.0.[ X.0.w.r.t.H. X{.{ >.2.( +X1X+X*X8X+X2X&XXXXXb.$Xp.OX'.).Y.p.) 7.K.6.7.L.K.p.p.v.. >.. . [.+Xb.XX).u.*X1X).T.1XuX",
"/ |.fX5XzXmX5X&XrXrXrX8X-XrX2X0X;X8X-X6.).2X+X].8X1X+X@XXX&X;XoXp.$XoX@XoXrX:X3XfX>X@X9X0X7X*X2X%XXX4.. 7 +X).s.OXOXu.).+X<X+X7X",
"! BXzXzXBXBXkXY.;XoX&XOXN.XX@X&X&X2XvXP.[.5X1X1X$ $ _ &X).%XXXXXq.u u u OX1XOXU.OX.Xp.s.s.s.s.(.fX9X1XX._.:X<X(.b.).(.y.).@X1X3X",
"! VXZXBXBXZXkX>.V.XXoXoXOX.X@X1X1X&XNXP.}.cX+Xo o . . -.+X*X*X<X$.y q q q 2X(.8.9..X#X.XOX`.OX.Xs.@X5Xo.<X`.+X(.(.s.v.<.<.b.1XVX",
"Q zXBXzXBXZXaX;.M.N.oXoX&X@X1X@X@XOXyX0._.6Xf %X2X5X2X. <X%X=X%X$.q s.oX=.1XU.s.p.s.#XY..XOX,XT.OX7X9X..:X%X1X:X`.).&Xa.<.2.v.cX",
"s U.6XhXzXBXaX>.3.s.V.qX+X>X7X1X7XoXiXU.P.<X:X<X1X}.%X+X%X@X<X).$.2 +XOX1X1XL..XY..X>X,XOX>X>XOXY.4X5X' +X`.+X<X].+X%XOXU.r.b.XX",
"Y ..e.P.{.hXG.>.OXN.@X9XfX`.@X&XoXV.;X).^.}.'.].4XP.w.t.e.r././.W q v.a.T.:X...X>XOX.X>X,X4XfXqX,X>XnX' /.`.r.P.w.;.) X.[ X.r.<X",
"&X1XXXXX4XAXpX6..X(.%X:X5X1X#X.XN.N.V.g.}.wX1X5XlX2X1XcXwX2X-XrX;Xy S F 5XfX] OX4X>X,X,X4X,X>X>X7XcX9XU.).%X`.OX4Xt.q.oXB.8XuXuX",
").+X).).1XZXpXX.XX1X1X5X9X7X.X).s.M.oX7.;.;.q.p.T.2XdXCXnXY.2 3.5.=.b D mXi ` L.,X>X,X,X,XqX>XOXOX4X5XY.oXs.oXN.V.s.).Z.oX2X%X8X",
"b.=XoX2X%X;X'.X.@X5X1X@X1X&XOX#X.XOX4X;.} ;.<.a.P.`.3XDXgX3X>.=.2.N.D D NXkX` T.@XOXy y q q ,X,X[.>X4Xa.s.3.y.s.oXq.n.*X&Xv.v.B.",
"v.v.b.XXXXiX'.6.@X&X7X8X<XOXXX#X1X4XMXP.8.6.q.P.`.{. XZXnXlXq s.2.M.D I CX%.] Y.,X,X>X#.r y y 3X,X4X,XT.,.d.s.s.@Xy.b.b.B.(.v.B.",
"=X+X%X).=XrX'...s.OX1X1X4X@X1X@X@XoXoX7.q.w.r.U.[.{.T.3X5Xm.2 <Xi.D D yXCXVX9 L.>X,XOX4XP y l dX,X@X%.OXY.y..X).@X0.b.XXXX=X(.b.",
"XXoX*X%X1XrX}.Q ~ ~ ^ o.K.6.[ ~ Y Y ;.R ^  ...o.K. .U.<XtXN ,.b.k.D *.v.V.9 M F K.K.L.P.F @.{.T.T.y q L.4X.X.XY.OX..2.B.B.=XXXv.",
"%X).%X+XN.A.*X).mXvX4XcXlX_.5X3X[.`.+X[.P.'.K.o.I.Q 0.mX=Xc %Xb.D D :.<.V 2 m S e.Y Y S C ` / Q ! ' i q i 7.) ..7.Y u.v.N.N.%X).",
"-X1X*XXXv.2X[._.4X3X3X3XmX%X1X%X2XcX5XvXvXwX5X8Xj.^.q.&XF c r.a.D 5.5.v.q q m F u.s.P D |.@XOX.X.X>XgXy ,.`.T.{.gX/ 2.4.v.XX%X).",
"*X&X*XN.M.M.n.L.4X,X{.`.cX^.4X<X).1X1X[.1X5X%Xq yX6X;.*.F M SXr.D v.v.@.q q N m p.N.D G r.a.oX,.,.f.N y |.,X@XcXFX .N.v.&X=XeXP.",
"XXb.b.v.c.$X_.I.,X,X+X[.1X(.2X4X3X1X<X6X2X1X<Xq bX].t.c.F G z.*Xm.D k.q q t D e ,.I H J F p.OXs.:.*.S ,.9X>XoXjXgX| v.).b.%XeX<X",
"%X(.u.4.u.2X_.I.[.,X,X3X1XU.5X4X<X1X1X<X1X<X1Xt D %XP.b.F J D %X*XD * w q D m q q I K K D s.@XOXY.F D ,.f.s.s.#X&X+.%X).%X1XeX2X",
"t.t.b.'.2XnXK.^.,X[.[.:X5X/.1X2X1X<X<XcX6X+X4X2Xe l.X.).l.K H z.n.D 8 2 M D r q q q c K D 5.#X.Xp.D D I s.#XY.XX*X..(.*X%X%X(.=X",
"( [ / Q / '.K.K.P.L.e.e.7.P.1X<X6XcX'.+XXX5X<X1XtXm ^ /.1.J J D M x b q M D q q q q q K D D s.g.s.d.D F .XXXOX#X2X..O.[ ^ / P.^ ",
"/.bXuX2X8X5X<X=XoX1./.XXt.P.1X6X<X9Xj.2 2X5X<X6X5Xx P.2X8XD K B 2 w N b D G q q x q q H D q q s.@Xg.D D #XOX:X>X9XU.`.(._.0.5Xo.",
"0.tX<X*X2X2X&X=XzXCXlXZXa.U.<X1X].<Xy 1X1XbX3X1Xm.I /.+XN.D K 6 q 2 q N J G r q D q c D w D F m.@XOXD D >X>X>X1XcXU.9X&X@X).).` ",
"t.%X2X(.XXv.N.wXZXCXmXDXaXe.tX6X4X<Xu wX6XtX2X2XD a.).(.XXD b q q q q t D K t q e w N c q q D H m.m.F P >X>X>X9X9X`.OX7X;XqX1X` ",
"e.b.XX=Xb.b.).b.2XzXlXZXaXr.<XwX5X2 e C.].1X%Xz.x.r.(.).l.D : q q m q q t G D q e q q q q q D K J H oX>X,X>X4X>X1XU.).OX&X&X1X` ",
"0.XX1X=Xv.q.n.[.|.wX].&X=X+.'.].&X5Xq D x.).eXD tXt..Xa.S > . q n e q q q D n q D w q q q q b K K oX:X:XfXe >X>X1Xe.5X1X@X@XoX^ ",
"t.].].=X/.6XlXmXzX).XX=X=XX.n./.).(.s.D P t.D z.2X) a.; e : . + 6 m q q q D w q t D w q q q D K F OX+X,X=.+X:X:X,X7.(.V XX@X1Xo.",
"0.lXmXlX<Xn.n.(.n.n.+X).=X).*X=X*X2X1Xe F (.D k.XX(.7 3 2 + o ..f v x : - D . . - D m M w - t D P <XU.) m >.7.K.T.O.6.V W ;.(.' ",
"[ v.=Xb.}.lXmXzXCXzXnXSXaXn.s.(.=X}.vXuXI 8XA.l.v.B.- 2 1 . X '.w.n > : + v ; . 5 D D q D o q D P ;XvX#XY.P 8X8X9XtXI C.V.B.C.} ",
"[ n.v.'.6XdXSXCXSXCXCXSX6X6X).b.1X2XwXF /.(.`.D *.>.; n 6 . CX XL D r - . ; t q D D O l.D . 2 D F %XvXa..XD U.s.N.oXD d.i.f.V.~ ",
"o.6X|.6XlX5XzXmXCXzXlXlXXX%X<X).=XtXx.L ].:X).=XJ . O 4 5 $.*Xc.D t : + . . : m D 1 (.D a.o q r D F ;X_.l.x.{.y.d.V.D *.3.u.V.~ ",
"H.ZXzXlXzXmXmXxXdX%XXX=Xn.}.XXXX&X%XD I P.)./.b.K . . D # q.a.*.&.q.#.3 . 2 b D ; q I D X.M.+ q t D bXdXD BXhXY.:.2.z.S 2.d.V./ ",
"` dXBXxXxXzXdX/.q.1.;.v.0.t.].v.b.+XD L /./.U.0 # . > D _ (.1Xc.A 1.@.+ O , D K ; p.0.D C p.. q q t F G S.ZX. -.2.2.5.H $ v.V.[ ",
"{ 6XVXVXxXBX|.P.{. X{.].v.q.n.(.t.).%XK k./.. . . . . S D c.@XZ.S P t - . O A K 0./.aXD D /.D D q q e K J ZXfX2 >.=.U H o >.M.q.",
"y.B.4X5X2XuXNXzXBXBX<X8 o . CXAX2X2XnXG K + . . . . f c.D D ].5X*.J 5 < . o B > i i I D gX*XD oX+ q q D K K S N # 0 K b _ ,X# <.",
"<.1X1XrX*XyX<X{.|.% o E.!.E.Q.ZXzX$ . O O X   f #./.<X`.D D 9X9.. z K . - . v # + m D XX|.T.D y.i.oX+ q D D D D D D w 9.6X@ . R ",
":.&X2X2X1XyX1Xd F.. J.@ W.W.W.6XdX. . . o a.b.y.%./.%X%Xb.D #XS . z K . 2 o o 1 + N K @ u 1XD Y.U.i 1X{ q q q q r w ,.,Xu : -.R ",
":.%X%XwX9XvX. F.W.W.W.E.W.W.g j o & . . r.@X).OXq (.`.4XD B.n 4 . . 4 . q . . 3 + D K D . q D P `.i 2X7.U.q q q q q q q q L.+XR ",
"<.1X+X+X. . . . W.W.W.g g g g g q.s.2XX.0.b.s.).XXx ].Z.J q c D q . . 1 q q + + . D # . . D K +XOXq oX[ ].U.b.1XdXzXgXgX<X4XjX/ ",
"~ P.f % . W.k W.@ D.g g g g T.OX<X:X5Xw.[ { 0.0.e.x w.;.J q q H D > . } ( E ( u + . . . D K J 9 b.D i } /.`.t.y._.T.H.R..._ 8.R ",
"].) o D.W.W.W.W.g g g h '.`.`.).:X+XcXOX%XtX1X8X$Xm.'.}.G n q b K O 2.u.u.v.~ (.#.+ . . K J . o w D D %Xb.@X$XoX8X5XaX_.dXBXgXhX",
"' o % % W.W.!.g g g ] 3X[.U.(.(.N.&XOXt.s.v.N.3.D z.).3.q q q S 2 B.=X-X<XuX^ I.+X1Xy . H . # S w K S Y.,Xa.i.N.;XN.XXOXN.1XmX9X",
". D.W.W.W.D.g g ] +X`.a.).y.q.q.<.a.2.>.u.u.2.<.F G n.q q q q q B.XXXX%X%XeX| '.,X1X,Xq . . D 2 r J L `.fX,Xd.i.V.s.`.4X.XY..XjX",
"@ W.W.W.D.g g K.[.OX[./.a.(.a.:.:.v.s.} ).b.q.u.B.U J r q q . p %X*X%X%X1XuX| [.4X>X1X:X@.+ D q q N i `.gXzXOX:.3.f.OX9X9X4X>X@X",
"_ W.W.D.g ~.GXo.,X3X:X`.(.r.s.p.;.<.b.} (.XXXXb.b.A.K J r 2 : g.).2X2X2XwXMXG.T.<X,XfX1X:X>XG e q q i 3XCXAX,X2.5.:.d.#XOX@X>XjX",
"jXQ.D.g ~.DXsX` 7.L.w.w.P. ...^ ~ ( } ~ 0.6.p.e.0.x H D v o 2 eX6X%XeX6X6XvX+.[ 7.o.7.L.7.6.K S q y 0 K.hXhXT.} >.( >.3.f.N.7X>X",
"jXjXg D.jXFXFX@X2X4X1X:X}.7.e.L. .) ).;./.R.o.'  .q q w > : v.%XwXvX}.eXeXvX'.n.6.~ Q o.R.q J q 1 y o.K.K.G.o.....s 2.d.,.M.#XOX",
"qXOXOXY.@XDXpXL.OXXX@Xb.bXmXZXSXmXlXN.9X%XuXnXbXyXq q - o a.<X=X].}.lX}.6XwX^.n.u.a.q.;XcXq q < o h.cXvXSXcXmXNXCXR.} 5.f.3.g.#X",
"g.7X4X4XqXcX`.U.#X.X#X4X7X`.1XOX4X&X.X1X+X1X&X@Xh.q 2 o 8 2XeX}.*XeXeXwXeXwXH.s.b.].y.i..Xq < o y ,X2XlX6X5X6XwXNXI._ 3.3.3.g.N.",
"g.@X0X4X0X8XU.p.s.Y..X1X0XT.(.s..XoX+X%X@X>X+X(.2 . . 8 ).=X<XwX}.'.eXwXlXzXH.n.'.).2.M.y q . q ,.:X<XvXlX6X<X5XvX^.>.3.3.3.f.N.",
"Y.#X@X>X0XtXa.Y.@XOX#XOXcXp.s..Xb..XXX.X@X#X1Xg.q q . _ =X*XeX*XuX'.wXeX}.wXn.}.3X).y.s.< : . y Y.#X<X1X4XlX<X3XzX{._ 3.d.d.d.f.",
"d.<.s.s.:X4X6.e.OXOXOXOX5XT.OX5X,X.Xb.s.oX1X>XN.q q . d ^.^.n.*X}.}.}.}.'.}.| ^.|.[.d.y.O o . . : < q U.<X6XlX6XlX'.~ y.f.s.s.p.",
"s = = = = ' _ ) 6.7...7.7.|.nXzXcX1X&X@XOX>X>X@Xh.-.W -.t.n.+.+.| | Q = = +.| | G.o.( >.>.w._ -._ ' 6.-.p.6XlXcXlX'.= a d = a Y "
};
