/* XPM */
static char *result[] = {
/* columns rows colors chars-per-pixel */
"64 64 240 2 ",
"   c #3C1F23",
".  c #461E1F",
"X  c #4C1E1D",
"o  c #5D1E17",
"O  c #541E1A",
"+  c #5A1E18",
"@  c #651E14",
"#  c #6C1E12",
"$  c #6D2013",
"%  c #68261B",
"&  c #742413",
"*  c #7C2A14",
"=  c #762919",
"-  c #411E20",
";  c #492725",
":  c #563C33",
">  c #542E22",
",  c #752D22",
"<  c #68372B",
"1  c #7B3522",
"2  c #793526",
"3  c #7D3B32",
"4  c #5A211A",
"5  c #725A1D",
"6  c #64493B",
"7  c #774C39",
"8  c #5F4438",
"9  c #765A46",
"0  c #786748",
"q  c #842E15",
"w  c #8B3316",
"e  c #873015",
"r  c #953A17",
"t  c #9B3E18",
"y  c #813C26",
"u  c #803F36",
"i  c #944D17",
"p  c #A34319",
"a  c #AA481A",
"s  c #B44E1B",
"d  c #B9521B",
"f  c #9C6D12",
"g  c #85432C",
"h  c #87452A",
"j  c #8A4B32",
"k  c #84443A",
"l  c #945A3B",
"z  c #8D5234",
"x  c #9C623D",
"c  c #A35C1C",
"v  c #C1571D",
"b  c #C25C1C",
"n  c #C76C1B",
"m  c #C86F33",
"M  c #8E5649",
"N  c #856B4A",
"B  c #996748",
"V  c #8A7655",
"C  c #937B56",
"Z  c #8D6D56",
"A  c #A6764E",
"S  c #A87B57",
"D  c #A6714E",
"F  c #966268",
"G  c #9C6667",
"H  c #977F60",
"J  c #AB7278",
"K  c #A57B78",
"L  c #B49213",
"P  c #CE821A",
"I  c #D39319",
"U  c #DAA818",
"Y  c #DFB917",
"T  c #DEB517",
"R  c #E0BE17",
"E  c #D1B839",
"W  c #E4C917",
"Q  c #E3C417",
"!  c #E7D515",
"~  c #EFF613",
"^  c #EBE714",
"/  c #DFC32C",
"(  c #E5C92D",
")  c #C5C416",
"_  c #9A865A",
"`  c #9B854F",
"'  c #A9885A",
"]  c #B48659",
"[  c #AF955E",
"{  c #9A8865",
"}  c #8D8265",
"|  c #A48B64",
" . c #B58A63",
".. c #A89668",
"X. c #B49C6B",
"o. c #B69865",
"O. c #AB9B72",
"+. c #B29E72",
"@. c #BC9871",
"#. c #AE817C",
"$. c #B5A26D",
"%. c #BBA46E",
"&. c #BCA467",
"*. c #B6A374",
"=. c #BAA574",
"-. c #BDAA74",
";. c #BDAB7B",
":. c #B6A67A",
">. c #AEA473",
",. c #C49D64",
"<. c #C19F78",
"1. c #C2A66B",
"2. c #CBAD6B",
"3. c #C8A866",
"4. c #D2AA6A",
"5. c #CCB26C",
"6. c #C7B06F",
"7. c #D3B46C",
"8. c #DAB46D",
"9. c #D5B96E",
"0. c #DAB96D",
"q. c #C2AB74",
"w. c #C3AD7B",
"e. c #C9A876",
"r. c #C5B275",
"t. c #CCB373",
"y. c #C4B37C",
"u. c #CCB47C",
"i. c #CDBA7C",
"p. c #CAB879",
"a. c #D4B473",
"s. c #DAB771",
"d. c #D6BA72",
"f. c #DBBC74",
"g. c #D3B57B",
"h. c #D4BB7C",
"j. c #DBBD7B",
"k. c #D2A972",
"l. c #E1BD76",
"z. c #D7BF56",
"x. c #E9D05B",
"c. c #DCC176",
"v. c #DCC27C",
"b. c #D7C17B",
"n. c #DDC16F",
"m. c #E3C375",
"M. c #E2C57C",
"N. c #E4C97D",
"B. c #EACC7E",
"V. c #E9CB78",
"C. c #EED272",
"Z. c #DFC25A",
"A. c #AF7C82",
"S. c #AB8685",
"D. c #B99398",
"F. c #B49394",
"G. c #B4878C",
"H. c #B9AC84",
"J. c #BEB488",
"K. c #BDA2A4",
"L. c #C5B383",
"P. c #CAB482",
"I. c #CCBB83",
"U. c #CABB89",
"Y. c #D3BD83",
"T. c #DBBE82",
"R. c #D6BD8A",
"E. c #C7B38A",
"W. c #C2AAAD",
"Q. c #C4AEB1",
"!. c #C6B2B5",
"~. c #C8B5B8",
"^. c #CFBDB1",
"/. c #E1BC81",
"(. c #D4C285",
"). c #DCC384",
"_. c #DECA85",
"`. c #D4C38A",
"'. c #DBC48A",
"]. c #DDCA8C",
"[. c #D6CB8E",
"{. c #DCCB93",
"}. c #D8C796",
"|. c #DDD194",
" X c #CFC58D",
".X c #E3C484",
"XX c #E4CB84",
"oX c #EACB85",
"OX c #E2C68A",
"+X c #E3CB8B",
"@X c #E9CD8B",
"#X c #E8C786",
"$X c #EBD185",
"%X c #E5D18C",
"&X c #EBD38C",
"*X c #EAD78A",
"=X c #F2D48C",
"-X c #F3D889",
";X c #E3CD92",
":X c #E9CE92",
">X c #E0CF9B",
",X c #E5D393",
"<X c #EBD493",
"1X c #ECDA94",
"2X c #E4D399",
"3X c #ECD59A",
"4X c #ECDB9B",
"5X c #E7D999",
"6X c #F1D594",
"7X c #F2DB94",
"8X c #F2DC9B",
"9X c #F5D998",
"0X c #F1CF93",
"qX c #EEE09C",
"wX c #F3E29D",
"eX c #F7E598",
"rX c #F4E18E",
"tX c #D7CDA4",
"yX c #DBD1A6",
"uX c #DFD9BB",
"iX c #EBDDA3",
"pX c #EADDAA",
"aX c #E5D9A6",
"sX c #F2DEA4",
"dX c #E8DDB2",
"fX c #EDE2A4",
"gX c #EDE2AD",
"hX c #E7E0AD",
"jX c #F3E4A3",
"kX c #F2E5AD",
"lX c #F4EAAC",
"zX c #F8EBA6",
"xX c #FAF2AC",
"cX c #EDE5B4",
"vX c #E9E4BA",
"bX c #F5ECBB",
"nX c #F4E8B3",
"mX c #FAF4B5",
"MX c #F6EFC9",
"NX c #DAD4C2",
/* pixels */
"P.nX:X;X'.+X..  7 xXxXmX1XU.aXsXsX%X<X9X<XsX8X@X9XzX&X7XeXeXxXcX`.jXsXsXR.OX0X=X9XsXV.oX3.%.5XjXiX,X5XwX`.{.|.5XzXzXT.0X#X/.j.+X",
"' N.N.XX*X*X{ o 1X*X*XeX%X X<X&X.XXX+X<X6X@X:X1XeX4Xh.N.M.f.XX%Xw.R.@X@X<X@X@XOX; ,.@X=Xa.w.{.C - < '.jXfXfX5X5XlX|.s.8.8.8.l.eX",
"C 9.c.d.c.XXv.[ _.v.N O < -.j.N.M.@X+X@X@X1X+X@XeX&Xj.M.oXM..X+Xy.3X@XOX@X@X@XT.S 4./.0Xh.I.;X*.] & Y.;X<XiX4X5X4X Xl.8.8.8.l.-X",
"C c.v.m.v.$Xv.%X%X> # # XXo.2.a.j..Xv.<X<X3X:XOX@X+Xh.XX&X@XXX,X=.OX@X@X.X#X#X@X.X#X#X9XOXI.;X5X<X4.,X|.[.5X4XqXfX{.2.8.8.8.l.rX",
"_ b.b.9.c.$X$X_.%X. $ N.*Xy.,X2Xj.l.+X+X@X+X;X+X1X).t.*X@X7X%X,X;.#X.X#X#X#X/..X#X/.Y.: < :.%X,X,X,X,X,X,X,X,X1XfX`.5.8.8.l.4.B.",
"` 9.N._.c.9.n.v._.(.< v.V.y.}     C 1.%.=.-.=.*.Y.]...i.h.h.).`.q.@X:X)..X/.#X#X@Xj.' @ h L.`.{.`.`.|.{.(.b.].(.`.w.j.a.8.l.l.=X",
"` b.n.n.N.n.v.N.c.XXqX1XrXZ O + + - Z _.v.7XzXzXzX9X&X).).%X4XfX-.T./.#X.X#X#X#X#X:X).y z (.].%X4X].(.-.V V *.L.`.y.q.-.*.*.q.1.",
"` 5.d.m.c.9.n.c.c.N.wXqX  < h.+Xz # O %XXXXX*X=X%X7X%X:X-X1XeXfX=..X#X@X#X/.l.#X#X@X@X9X4Xv.V.B.XXc._   ; 0 9 5XqXlX,X1XqXsXzX8X",
"V d.d.n.c.c.5.n.c.c.*XqX(.' _._.x # # l _.+XXX%X*X<X<X_.XXXXN.*Xw.OX,..X/.#X.X.X#X#X:X9XR.N.f.n.m.2.  o Y.<X5X_._.8XiX,X3X;X<XeX",
"V 5.9.9.0.n.7.9.n.v.XXqX5XXXOX).# # # # h.+X@X*X1Xv.N.N.9.9.0.m.X..Xk., g.#X0X@X.X@X3X9X].a.] m.m.3.@ 2.).].:X .2 '.<X,X3X3X5XxX",
"} 5.n.b.9.9.9.9.9.n.N.rX(.t.j.x # # t & & m m m @X*Xv.XXc.j.0.m.@./..X#X# = /.@XOXOX:XsX{.&XS g x 3.# y ).'.+X+Xh.= u.].<X4XjXmX",
"_ &.5.5.5.6.t.1.3.6.p.N.r.L.t.g # & s P P n b P ( *XXXXXv.M.V.N.$.g.k.Y.j.B o   P.OXT.0X].XXm.h # # # # 2 1.a.l.,.&  .+X+X4X<XxX",
"$.b.c.d.b.b.r.%.-.r.y.i.i.J. Xk & v v Y W W W W W x.<X<XXXXXc.$Xi..X+X).T.e.# - - Z w.P.P.u.h.v.# # # # # # p b v v w ,X).T.,XzX",
"..|.iX4XcXlX4X&XrX7XeX7XrX7X-Xj v v v Y W ^ ~ ! W W N.+XXX&X=XoXh.&XXX&XXX7X).<   - g.9X8X7X*X1Xk.@ N % & a n W W Y I Z.;X,X@X&X",
"} cXcXgXcXkXcXT.=XoX&XOX.XXX%X&Xm v b n W ~ ~ W W ( *X%X_.%X_.B.t.M.XX@XXX<X+XT.@     h.j.j.j..XiX+ - 2 & v U Q W ! W W ( @X5X,X",
"} cXnXcXcXcXuX3.B.XXoXXX.X.X@X1X6Xd n W W ! W W W x.1X1X%X1X*X,Xg.v..X%X6X1XY.e.@     OXOXOX+X/.j.4   ;.Y.P Q ^ ~ ~ ! W / f.,XvX",
"{ gXgXgXcXbXyX3.l.M.oX@X&X@X<X@X@X( I Q W W W W x.4X4X4X<XXX%X%Xh.XX.X+X1X8XY.j.@     /.OXOXOXOXOXo   :.@XP W ^ ~ ~ ! W / 5.c.jX",
"V Y.5XaXgXcXyX1.s.f..X=X+X@X9X<X6XOXx.W W W V.%X1X{.%X@X%X@X&X_.r.oX+X+X<X5Xi.D @     OXR.:X:X}.R.o   +.%X0.W W ! W W W h.h.v.XX",
"{ *.i.U. XpXJ.1.@XM.@X8XsX'.@X@X@XV.=X.X X|.[.+X5Xi.y.y.i.i.(.(.X.q.(.Y.Y.+X@.2       OX:X3X3X:X:XX   +.(.'.5.z.Q W E -.$.%.h.%X",
"*X*XXXXX4XnX}.q.).v.%X:X5X<XoX.XM.M.B.l.|.5X1X4XjX6X,XsXqX4X*XeX$X$X6XjX4XiXB #     E.:X3X;X:X0X,     Y._.%X].+X1Xu.t.XXXX1XeXzX",
"_.+X_._.<XmXtX-.+X<X<X4X8X6X.X.Xj.l.B.u.1.2.5.h.Y.e.P.R.e.r r r r w # e.R.#.# -     S >X:X3XR.y O   X T.oXj.@XM.oXc.N.XX$X*X<X7X",
"v.*XXX1X%X-X[.-.@X4X<X@X<X&XXX.X.XOX4X%.&.3.6.h.* v v v b b b b v v v v $ # # -   X $ # >X>XS #     U.Y.f.8.7.j.oXt.b.*X$Xv.b.V.",
"c.c.v.N._.rX[.q.@X&X<X3X<X+X#X.X1X<XzXI.A A g # w w w d U U W W v v v v q # X - - a v p a B +     B 2XY.5.s.j./.&Xt.b.v.XXv.c.N.",
"$X+X%XXX%XeX].*.j.+X<X<X<X@X<X&X@XoXXX2 $ r v v s & # # W W W W v v v s q = & X & s d v s # X - h 3X2X'.T.s..XT.@Xt.v.$XXX%Xv.v.",
"_.$X&X%X=XeX[._ ....O.;.L.q.X..._ _ 1 # s U U U d d q # i W W W v v v & v v w # # # & q * o - @ = e.{.Y.9XOX.XT.OX=.9.V.N.$XXXv.",
"%X_.%X+XN.B.*X].xXjX3XjXfX'.4X2X{.e.# s n W W W Q v w # * U U b v v v & v d % 5 o # @ o o o > # L i ' X.P.w.X.=.w._ 9.c.M.v.%X_.",
"7X1X*XXXc.1X[.`.2X2X2X>XlX;X<X,Xj y # s v P W W Y v w # s v v v v v v & d p ; > - # X ) - @ i s # f c 7 '.].R.`.pX| 7.9.c.XX%X_.",
"=X*X*XN.m.m.v.I.2X;X].].zXI.g.2 # # # r v v a t p e @   v v v v v v v & # @ $ $ # o o O + h v v # i I t E.+X0XsXMX+.v.v.*X_.qXb.",
"XXv.v.n.c.*X XU.;X2X;X'.:X# # # s # # - # # # # @ +     & d v v v b w # # f f # # # # # - v v v # # p v z :X#XsXgX:.c._.v.%X5X,X",
"+Xv.d.n.9.1X XI.;X;X;Xe.# * s v v s q # + X             O w v v d q # # # $ 5 L L f # - v v v v # # q v y f.l.#X*X;._._.*X1XrX1X",
"i.t.v.[.5XlXy. X}.>XS # q v I Q Y v w # # @ X       -   . w v v v p # # @ X $ - - # - p d d s s @ X @ @ 6 l.T..X*X=._.5X%X%X).].",
"X.>..._ | [.L.L.Y.z # # v v v T Y a & # # +       o @ . ; e v v v b s p # @ o X O - - - # # # X         7 XX+XXX7X*.-.$.....i.>.",
"(.zXjX1X1X1X&XXX# # # s v v b d p # # # @   O # # # # X   $ r d v v v v d & # # # # # # # @ -         # #XOX:X:X9X`.(.'.`.u.4X:.",
"t.wX1X*X1X1Xe.& # # # * q v r * # # # # 6 L.  @ # # # # o   . & v v v d v p # # # # # # # -         O OX:X:X:X:X4XY.8X&X@X.X_.O.",
"r.%X,X_.XX5.# # & w & # # # # # # # @ | <X`.  @ # o   O # o .   o # # # o # # # # # # # O         X g.;X:X:X:X8XjX'._.6X=X%X<XO.",
"i.v.XXXXM.5.# # d v w # # # # #     y.,X@Xh.X @ @ -     . # @ - - - -   . # # # # # O           - # T.:X;X:X3X:X<XY.'.@X6X&X&XO.",
"r.$X1X_.b.,.# # v v a $ $ 7 >.*.%X9X2X,X5X).x O @ O O O   . .     X     - O O O X     +.        + # g.;XsX;X:X:X<Xu.<X@XXX@XoXO.",
"r.].%X$X(.4Xo.# d v v v h :.(.(.)._.{.Y.(.y.' # # # # # @   - -   X # @     O # $ 1 g.1X      @ # # g.;X:X>X;X;X:Xw.).%X@X@X*X;.",
"r.jXlXfX,Xh.] # & v v v h %X*XXX1X1X1X(.(.b.(.1 # o . @ @ X O # + + .   - o ' u.y.'._.1X# X + # # # e.X...*.w.L.R.:.%.%.%.6.).+.",
"$.b.XXv.,X4X@.# v v v & j b.b.(.XX|.lXeXqX(.    @ @ O - o - . . - X g :X(.h.).,X<X@XOX7XOXh # # & p # j.R..X6X7X4XwX&XB.B.M.V.&.",
"$.b.v.].5XaX=.# v v v & h 5X_.).1XqX1X] B j .       .   . @ # # 1 ).].+X].).+X+X].;Xh.@XR.a.# # & v s & S ].Y.l.N.XXh.f.f.f.B...",
";.4X|.5XfXqXfXj & a q # ] @X*X_.*X7XC - . + @ # .               : ).).+X;X@X@X].+X+X).XXh.oX] # $ w v w # @.{.a.s.N.d.7.8.f.B...",
"J.nXjXhXcXlXlXj # # # $ b.%X_.XX*Xu.-         @ %               o.t.v..Xh.XX@X+X_.%X@X@X%.N.@Xg # w v v a = }.'.4.7.m.m.7.d.V...",
"{ hXcXhXhXgXpXq.# # # # r.i.%Xb.v.              X           + $ ' t.a.t.t.(.h.u.Y.u.y.(.%.g.M.@X] # # r v p }.;X7.4.d.0.d.f.B.=.",
"# o.vXvXhX}.# # # # # # v.t.b.).h.                              : b.j.j.d.h.w.=.u.`.tXyX}.`.g.).h.# # # # # # +X3.3.d.3.3.3.m.t.",
"' + # $ 1 S e p t e # # 3.8XcXkX4X4X0                           8 $XM.j.B.B.f.sXjX9XjXbXpX*XoX=X=X1Xl # # # # o.$ # #  .iX;Xd.2.",
"a.(.6 6 6 < p d v v w # h %XgXbXhXpXE.                            C h.a.5.c.&.s.c..XOX#X>XY.a.s.d.XX@Xl # # # # $ # # # g ].f.' ",
"2.<X1XwX,XXX* e q q & # g 7.).4XaXgXMXH.$.                          9 a.a.d.1.d.h.j.a.j.:X2XT.).Y.@X6X-.e.# # # # # # # # j v.' ",
"2.@X@XqXwXeXe.B B # $ # Q.A.J J #.+XbXH.g.e.% # @ - -                   3.a.2.j.#X).T.OX.X+X<X:X'.+X1Xw.Y.# # B S M + aXB # # | ",
"5.1X%X].@XXXh.`.}.u.t.2 k !.G.J J J J J J J G G G G F F F F F F     O @ % o.e.h.'.+XOXOXT.@X+XOX+XT.oX$.'.# # l aXsXH @ {.O # | ",
"[ I.(.r.t.v.[ =.,X2XY.g F ~.~.D.G.J J J J J J J J J J J J J J J J J J J J J J E.R.OXR.R.R.T.OXY.v.M.oXo.Y.B # # e.H.{ E.Z N 1.' ",
"].lXnX5Xm.=X%.q.h.+X).g !.~.~.~.!.!.!.!.W.J J J J J J J J J J J J J J J J J J A.J J J J J J J +X).j.=X<X).oX$Xh   | yX].aXcXpXaX",
"gXkXdXpX:X7XtX-.).'.5X^.W.G F.~.W.S.S.W.~.~.~.~.~.~.K.D.D.D.D.J J J J J D.D.D.D.D.D.W.!.!.~.~.OX+X).+XT.:Xh.s.N.$XN..X+XM.1XkX8X",
"gXkXcXnX3X9XtX;.Y.].).z 1 W.W.W.~.!.~., !.W.!.!.!.J K ~.~.~.~.~.~.~.~.~.~.~.~.~.!.~.Q.!.!.tX:XOX+X.X@X`.aX|.d.l.oXj.'.3X.XT.#XsX",
"#X:XgXdXnXkXtXL.].].+XY.2.2.x $ ~.F.F.S.M # K F M F.F.K.~.K.~.F !.!.~.~.~.~.~.~.M K M K.W.e.3X;X+X.X@X'.pXkX'.4.0.l.OX8X9X3X:XOX",
"OX/.sXnXbXMXNX;.;X,X>X'.(.i.h.h.j j z $ # # # # , G A.~.2 A.% % ~.Q.K.M ~.~.K.D., G @ G.S. .3X3X:X;XOX>XbXkX,X5.0.4.s..X+X:X<X8X",
"sX)..XsXdXMXdXO.w.P.y.L.u.*.$.X.| o.1.: . . @ # # # y k $ 2 $ #.7 u , u u M % # # # # # 1 y.w.w.L.L.;.L.pXyX`.o.3.[ 3.8.l.M.0X:X",
"jXsX:X@XaXMXMXOX1X4X<X<X|.y.u.L.*.X._       ..+.@._ B ` $ # @ # $ $ # # $ 3 # # # # # M L.w.:.*.+...*.L.L.L.;.=.:.C 4.8.7.m.oXOX",
"6X.XOX/.#XMXyXY.XX.X@XT.wXkXbXmXnX|.;     ..jXzXeXN.-.b.XX%X' # # $ $ # # , # # y h.2.*XzX4XzXjXjXzXzXzXmXfXzXxXlXJ.&.8.l.8.l..X",
"l.<X8X0X6XsX`.T..X.XXX6X9X'.3X+X5X        | %X&X7XXXr.v.*X1X*X%X<XR.O       O  .v.;Xa.c.$XY.%X@X].,X,XfX4X4X4X4XlX X&.8.8.8.l.M.",
"j.@X3X9X9X8Xh.g.T..X.X:X8XY._.j.            u._.&X'.q.).*X_.*XqX].u.X         # ].).5.m.oXU.4X1X;X;X%XjXiX5X,X5XjX X3.0.8.8.s.l.",
"/.#X@X:X8X9XY.h.@X.XOX.XjXg.j.).              | -X5Xp._._.,XqXqXjX[.B @ # # # # 1 g.d.f.$Xp.,X5X,X%X,X5X5XfX2X5XlX{.o.0.l.s.s.M.",
"g.a.j.h.;X5Xq.u.OXOXOXOXiXR.OX4X                6 5X-.(.(.(.(.1X5X[.' $ # # # # # # ,.j.d.i.5XfX5X1X2X4X|.4XfX5X4X[.o.a.f.j.j.g.",
"V 0 0 0 N +.o.X.q.w.-.y.w.{.kXgX>X'.T.Y.h.R.Y.b.%XqX(.,X Xb.-.r.>.>.{ 0 0 *.| ..O.$.' 1.&.p.].,X[.5XfX5X4X4XfXjXfX[.0 V 0 0 V ' "
};
