/* XPM */
static char *result[] = {
/* columns rows colors chars-per-pixel */
"64 64 242 2 ",
"   c #3D1F22",
".  c #6C1E12",
"X  c #601E15",
"o  c #6E2013",
"O  c #6F2318",
"+  c #732313",
"@  c #7C2914",
"#  c #73281A",
"$  c #7A321D",
"%  c #421E20",
"&  c #7A3323",
"*  c #713122",
"=  c #5F4139",
"-  c #776746",
";  c #7A7250",
":  c #832D14",
">  c #8C3316",
",  c #983B17",
"<  c #A34319",
"1  c #AC491A",
"2  c #A7481B",
"3  c #B24D1A",
"4  c #BB531C",
"5  c #B7501B",
"6  c #8F4E2F",
"7  c #B65A26",
"8  c #B9642F",
"9  c #C1571D",
"0  c #C25A1F",
"q  c #C35C23",
"w  c #C4632A",
"e  c #C66A2E",
"r  c #C46126",
"t  c #C56D32",
"y  c #C36B35",
"u  c #C9733A",
"i  c #CA7438",
"p  c #806C4C",
"a  c #8B784E",
"s  c #8A7855",
"d  c #927C59",
"f  c #9B6645",
"g  c #A7774E",
"h  c #BB7943",
"j  c #A77850",
"k  c #AB7278",
"l  c #AF7A7B",
"z  c #A76C71",
"x  c #874A43",
"c  c #C97D42",
"v  c #95845D",
"b  c #9C8859",
"n  c #9B854F",
"m  c #A38C5C",
"M  c #BA9A5E",
"N  c #AE915D",
"B  c #8D8265",
"V  c #998A65",
"C  c #A59364",
"Z  c #AA9564",
"A  c #AC9C6C",
"S  c #A9966A",
"D  c #B39C65",
"F  c #B49D6B",
"G  c #BB9766",
"H  c #B9897D",
"J  c #AB9D72",
"K  c #A59873",
"L  c #B39D72",
"P  c #BF9776",
"I  c #AA8F63",
"U  c #BDA265",
"Y  c #B5A26C",
"T  c #BBA56D",
"R  c #B9A568",
"E  c #AEA273",
"W  c #B5A373",
"Q  c #BAA574",
"!  c #BDAA74",
"~  c #BCAB7B",
"^  c #B4A778",
"/  c #BCB17C",
"(  c #CB8448",
")  c #D28748",
"_  c #CA8C51",
"`  c #D28D52",
"'  c #CD9759",
"]  c #D49959",
"[  c #CF914E",
"{  c #D5A45F",
"}  c #C29A65",
"|  c #D49B61",
" . c #D89960",
".. c #C29F71",
"X. c #C2A56B",
"o. c #C5AB6A",
"O. c #CBAD6B",
"+. c #C8A766",
"@. c #D5A364",
"#. c #D8A968",
"$. c #CDB26D",
"%. c #CCB069",
"&. c #D3B36C",
"*. c #DAB46C",
"=. c #D6B96E",
"-. c #DCBC6E",
";. c #D2B267",
":. c #C3AC74",
">. c #CBAD71",
",. c #C3AD7C",
"<. c #C8A978",
"1. c #D8AC71",
"2. c #C5B276",
"3. c #CCB474",
"4. c #C4B37C",
"5. c #CBB57B",
"6. c #CDB97C",
"7. c #CBB978",
"8. c #D3B473",
"9. c #DBB472",
"0. c #D6BA73",
"q. c #DBBD74",
"w. c #D2B67B",
"e. c #D4BB7C",
"r. c #DBBD7B",
"t. c #DDB77D",
"y. c #E4B673",
"u. c #E2BC75",
"i. c #E2BE7A",
"p. c #E7BA78",
"a. c #E0B86F",
"s. c #DCC176",
"d. c #D6C17C",
"f. c #DCC27C",
"g. c #E3C475",
"h. c #E2C47B",
"j. c #E5C97D",
"k. c #EACC7E",
"l. c #E9C977",
"z. c #F1D17E",
"x. c #B28388",
"c. c #B28E8B",
"v. c #BAAE82",
"b. c #BEB489",
"n. c #BDA3A4",
"m. c #C7AF84",
"M. c #C5B483",
"N. c #CAB582",
"B. c #CCBB82",
"V. c #C8BB88",
"C. c #D3BD83",
"Z. c #DBBE82",
"A. c #D2BE8B",
"S. c #D9B986",
"D. c #CBBF92",
"F. c #E1BE84",
"G. c #C2ABAD",
"H. c #C8B5B8",
"J. c #CAB6B6",
"K. c #C4ACB0",
"L. c #C09590",
"P. c #CCC28A",
"I. c #D4C285",
"U. c #DCC483",
"Y. c #DEC985",
"T. c #D4C38B",
"R. c #DBC58A",
"E. c #D7CA8E",
"W. c #DDCB8C",
"Q. c #D4C592",
"!. c #D6C992",
"~. c #DDCB92",
"^. c #D8C997",
"/. c #DED193",
"(. c #DDD29B",
"). c #D1C78F",
"_. c #E3C584",
"`. c #E4CB84",
"'. c #EACB85",
"]. c #E2C68A",
"[. c #E3CC8B",
"{. c #EACD8B",
"}. c #E9C785",
"|. c #EBD184",
" X c #E5D18C",
".X c #EBD38D",
"XX c #ECD98D",
"oX c #E7D486",
"OX c #F2D58C",
"+X c #F4DB8D",
"@X c #F3D584",
"#X c #E3CD92",
"$X c #E9CE92",
"%X c #E5CF9A",
"&X c #E5D393",
"*X c #EBD493",
"=X c #ECDA94",
"-X c #E4D49A",
";X c #EBD59A",
":X c #E6DA9C",
">X c #ECDB9B",
",X c #E7D995",
"<X c #F1D593",
"1X c #F2DC94",
"2X c #F2DC9B",
"3X c #F5D998",
"4X c #F1CF93",
"5X c #EEE19C",
"6X c #EFE096",
"7X c #F4E295",
"8X c #F3E39C",
"9X c #F9E49B",
"0X c #F7E89B",
"qX c #F4E18E",
"wX c #D7CDA2",
"eX c #DDD3A5",
"rX c #DFD9BB",
"tX c #E6DAA4",
"yX c #EBDCA3",
"uX c #EADDAA",
"iX c #E4D9A8",
"pX c #F2DEA2",
"aX c #E4DBB4",
"sX c #EDE2A4",
"dX c #EDE3AC",
"fX c #E7E0AD",
"gX c #F3E4A3",
"hX c #F5E9A4",
"jX c #F8EBA4",
"kX c #F2E5AC",
"lX c #F4EAAC",
"zX c #FAEDAA",
"xX c #F9F2AB",
"cX c #EDE5B4",
"vX c #EAE4B9",
"bX c #F3EBB3",
"nX c #F5EEBA",
"mX c #F5E9B2",
"MX c #F9F3B7",
"NX c #F7F1C4",
"BX c #F2EBC7",
"VX c #DAD4C2",
/* pixels */
"N.mX$X#XI.[.*X0XxXxXxXMXXXD.tXpXpX&X{.1X*XpX9X$X2XjXXXqX0X0XzXcXQ.gXpXgXA.].4X3XgX;Xj.@X} ! &XgXzX-X;X8XT././.;XxXhXZ.4X{.F.r.[.",
"m h.k.`.XXXX[.XX1XXXXX7XoXP.*X.XY.}.[.;X3X{.{.;X3X;Xe.`.h.q.`. X~ Z.}.{.<X{.$X}.}.'.{.@X8.4./.&X,X,X,XgXsXyX:X&XzX(.9.q.#.*.g.9X",
"d 0.s.-.s.oXd.d.`.f.oXqX X<.r.j.h.}.[.[.[.;X[.{.0XoXq.r.'.h._.[.W $X$X].].{.<.].F.i.}.OXr.V.#X;X:X&X~.&X-XsX>X:X:XP.g.#.*.*.u.+X",
"d s.s.s.f.oXd.oX X.XY.|.j.D O.8.f._.h.*X*X<X*X_..X].r.[..X[.`.&Xd ].}.$X}.}.'.= _.].}.3XR.B.#X,X;X=X&X/.E.,X>X5X5X~.O.*.a.#.a.qX",
"b s.s.=.s.oXoXoX X6X Xk.XX4.&X,Xe.f.'.[.&X}.[.$X*XU.3..X{.1X X&X~ }._._._.}._.1.}._.}.3X&XM.~.,X&X&X,X&X/. X&X=XsXI.>.&.a.9.&.@X",
"n =.j.j.s.=.s.s.Y.7X=Xf.k./ T.R.w.>.X.Q T ~ W F C.~.A 7.w.r.U.Y.:.{.<XF.}.Z.}.].{.S._.*X*X4.T.W.E.T././.I.I.Y.T.T.4.t.8.*.q.r.OX",
"n d.0.s.f.s.j.s.s.`.6X=X7XsX=X1XOX@X9XU.f.1XhXzXzX1X.XU.U.[.6XtXQ S._.]._.}.}.'.}.$X[.<XhXW./. X:XW.I.^ ^ ! / 4.E.4.:.! W Y :.T ",
"n $.s.s.s.=.s.s.0.k.5X6XXXR.[.[.[.[.8X#XoX'..XXX.X1X[.$XXX=X0XsXQ }._.}.}._.t.}.}.{.{.3X>Xr.g.k.Y.g.z.oX;XsX=XXX5XhX&X=X8XpXjX2X",
"; s.=.s.s.s.;.-.s.s.oX6X,XU.Y.U.U.[.XXZ.I.}.`.oX.X=X*XY.f.`.k.XX~ ].}.F.F.}._.}.].}.$X3XR.j.q.q.g.g.l.q.T.*X-XU.U.2XyX*X;X#X&X0X",
"a $.=.s.s.s.$.=.s.f.oX6X,X[.W.U.0._.OXU.[.&X].{.XXd.j.j.0.=.=.g.F _.}.{.}.}.{.{.F.{.;X3XR.`.g.g.s.-.l.%.p S &X*X[.W.&X*X>X;X;XxX",
"v $.s.d.;.;.=.=.=.s.j.6XI.3.r.f.8.8.k.2.&X,X;X*X.X&Xf.`.f.q.=.g.W F.].}.}.].4X].].#X$XpX!..X|.j.l.s.g.%.C.  [.W.U.].W.R.*X2XgXMX",
"v R $.$.%.%.3.o.o.%.3.j.3.M.3.I.&.%.g.:. X[.XXXX1X=XY.'.h.h.l.j.F w.w.w.t.Z.4X#X$X].Z.<XW.[.s.g.g.-.g.8.#X  '.&X]..X,XW.].;X,XxX",
"Y s.s.s.s.I.2.W ! 2.4.6.7.b.).Q.U } =.D [..X[.<X*X$ *X.X_.`.f.|.w.].W.U.f.C.F ,.m.P <.N.m.7.w.f.s.o.;.R ~.[.f.'.R.0.=X*XU.I.*XjX",
"C (.tX:XdXlX>X.X7X7X7X1X+X7X=X2X1X1X+X2.W.=X[.W.1X. [.[.`.XXOXk.e.|.'..X}.1X#X] 9 9 t 2X3X1X=X=X*X[.=.Y I.[.I.r.'.`.0.U.[.&X[.OX",
"B cXdXdXcXcXaXZ.@X'..X].h._.{..X{.=XhX6.#X;X*X*X8X2X*X XY. X`.`.3.h.`.{.`.*X[.C.].].9 w f.r.r._.yX>X.X! Q.[.$XU.f.U.f.0.`.[.-X-X",
"B cXbXcXcXnXaX+.k.`.'.'.].`.{.*X=X XxXB./.gX,X.X=X=X>X1X XXX.X,X8.U.].{.<X] I.>.8.h.}.9 }.R.[.Z.i.{.=Xv.&XR.[.I.U.f.U.O.;.s.*XvX",
"V cXdXfXmXnXeX+.u.h.'.{.{.{.*X{.{.}.0X2.T.=X,X*X*X>X=X2X*X'.oX X0.u.].{.*X9 C.Z.r.S.F.q ].].].F.].<X>X~ $X[.,X#XR.U.XXe.$.&.s.gX",
"s C.:XiXdXcXeXX.9.q.j.OX[.*X<X<X*X'.+XI.B./.&X&X,X/. X[. X X.XY.:.9 9 ].<X,X9 ].Z.S.$Xq F.$X%X].S.;X<XW  X].[.&X~.[.[.[.C.w.f.`.",
"v ! 5.A.Q.iXv.X.[.j.[.2XpXR.{..X{.j.OX_.P./.E.[.;XB.4.7.6.6.T.I.F 8 0 8.C.[.h F.#X].c w %X;XpX$X%X*XkXL I.R.5.6.4.:.Y T Y T 6. X",
".X*X`.j.=XmXwX:.U.Z..X$X;X*X_._.h.h.z.r.&X:X,X>XgX*X,XgX>X=XXX7X|.@X#.4 $XyX9 F.*X$X].#X;X#X%X;X*X2XpXC.U. XR.W.=X3.3.`.`.1X0XjX",
"Y. XY.Y.*XnXwX! '.*X&X>X>X<X_.].r.i.k.5.X.o.$.e.C.;XtXbXkX-X=.=.=.l.] 0 nX .8 C.$X%X%X%X%X;X$XF.].<X>XZ.{.r.'._.k.s.`.j.oX.X*X+X",
"f.oX'.,X X@XE.:.{.>X*X{.*X.X`.'._.].;XX.U +.>.d.C.R.-XNXF.Z.7.&.;.9 9 zXnXu K S.#XF.#XpX#X%X].%XR.%X;Xw.q.*.8.r.'.3.d.XX|.f.s.j.",
"q.s.f.j.[.qXE.2.[..X;X<X*X].}._.*X,XzXN.>.:.2.C.R.!.Q.$X9 dX:X~.' 9 '.dX] vXK S.#X#X9 ;X%X;XyX%X%X3XtXS.O.9.r.h.{.5.d.f.oXf.s.f.",
"oX[.oX`. X7XE.W U.}..X*X;X{.*X{.{.'.{.2.2.4.6.C.R.!.Q.S.9.&XQ.,X9 e _.>Xq vXJ C.$XR.9 ;X$X9 yX;X].;X~.R.Z.8.].f.{.3.f.k.`. XY.f.",
"`.[.XX.XXX7X/.v Z Z A ~ M.! W Z v b T C A Y Q ^ M.^ C.].9 sXU.d.9 g.;.s.e 9 F ! M.y c A.4 T.!.R.A.$X^.A.<X_._.S.].T &.j.j.oX[.f.",
" XY. X[.f.z.XXY.bXhX;XgXsXR.>X&X#XR.[.].B.Q.V.~ B.V o.hX9 9 [.s.9 9 %.;.c 0 9 w.4.8 d K 9 q V V V J m.L V.<.F Q ,.v 0.s.j.s.oX`.",
"+X.X.X`.g.=X~.I.;X-X-X%XlX#X,X&X=XgX>XhXhX8X>XhXMX9 _ 1.}.q +.e.] 4 ;.=.9 9 9 #.q.q ].2X-X9 F.].F.#XyXQ.R.].A.^.uXC ;.*.s.`. XY.",
"XXXXXXj.s.g.d.M.;X%X!.R.hXB.=X#XW.*X*X~.,X=X[.*Xl.@.o.*.=.1.9 e.s.t { ) 9 9 9 9 e.{ 9 4XC.4 9 1.#.p.}.^.(.[.{.pXBXW j.f.oX[.6X6.",
"`.f.s.s.s.|.T.A.#X#X[.R.*XI.=X,X,X,X&X,X;X,X&X=X9 | 4.U.Y.#.9 i. X{ 9 0 9 9 9 9 1.U.9 9 !.9 4 r.$.&.#.`.2X$X'.pXdX^ s.Y.Y. X=X,X",
"[.U.0.=.0.qXT.V.^.#X%X-X*XI.2X>X$X*X,X&X&X#X*X>X9 9 ( Y.oX#.9 u.,X@.* 0 9 9 9 9 9 [.9 9 w 9 {.'.r.r @.>.i.q.r.}..X~ Y.oX XXX=X=X",
"7.7.d./.,XhXM.P.~.#X~.#X;XT.&X=X,X&X&X8X>X#X=X2X2X_ 9 #.W.I.4 9.6.[ 2 4 9 9 9 9 9 9 9 9 9 9 _._.9 @.}._.U._.f._.oX! I.,X XW.Y.[.",
"D Y C V C !.b.M.B.N.N.5.<.B.*X&X=XsXR.&X7X>X#X*XjX&Xh 4 / ! 9 g h 4 9 9 9 9 9 9 9 9 9 9 9 9 r.U.] r y.}.U.}.}._.2XW ! Y A A 6.A ",
"U.jX8X5X=X6X X|.oX$.U.U.0.B.,X=X&X2X=XW.;X>X,X;XzX5X>.9 =Xu.1 o 0 9 9 9 9 9 9 9 9 9 9 9 9 9 9 t.'.| 4 {.}.].$X$X3XI.A.U.T.2.5X^ ",
"3.8X&X X=X=X.X XsXmXdXnXB.e.&X&XW.&X=X*X,XhX;Xy.i.C.9 ( U.@ 1 1 9 9 9 9 9 9 9 9 9 9 9 9 9 9 9 9.{.}.9 ) $X$X$X$XsXC.2XOX{._.].K ",
"2. XXXY.[.f.f.8XnXcXlXNXeXB.8X>X;X&X*X>X=X2X*Xc 0X>.9 @.f.o 9 9 9 9 9 9 9 9 9 9 9 9 9 9 9 9 9 w 4X$X9 c $X$X%X3X2XR.].<XOX{.=XK ",
"6.d.`.oXf.g.Y.f.>XkXsXbXiX4.&X>X>X&X&X XW.*X9 _.8Xq 9 ( 9 9 9 9 9 9 9 9 9 9 9 9 9 9 9 9 9 9 9 q @.[.q *X#X$X;X$X,XC.@.#.}..X1XA ",
"2.oX&X[.d.$.s.E./.sXY.XX X/ Y.W..X>X;X&X>XY.4 { 8X5.9 9 9 1 > 4 9 9 9 9 9 9 9 9 9 9 9 9 9 9 9 9 9 9 w #XsX%X$X$X;X<.` i.i {.{.A ",
"7.W.oXoXI.5XsXbXdXY.Y..XoX! P.I.U.Y.[.O.+.4.9 i 1XF ' 9 4 , o @ 2 9 9 9 9 9 9 9 9 9 9 9 9 9 9 9 9 e #X#X9 t.#X#X$XX.S..X{..X*X,.",
"2.sXkXsX,Xe.f.f.f.d.[.Y.oXoXXX'.=XXX=X( c U.W.9 ] U.6 q 9 @ o W g 9 9 , : + 5 o 3 9 5 9 9 : 9 9 r [.C.F C 9 } M.A.9 T T T :.U.F ",
"Y s.oXf./.sXkXfXbXdXdXMX(.d.d.I.oX/.lX4 6X1X|.k.9 g.: 4 4 . . E.4.: 1 3 @ o @ @ 3 9 . 9 o o 9 9 w OXy.}.Z.9 ` +X1X9 { k.|.l.l.D ",
"D I.f.W.:XtXMXbXbXMXbXMX:X,XY.f.=X=X0 [.U.U.W.U.9 7 > 9 < . bX!.R ` 5 , . @ 9 9 9 > o '.N.. 9 9 w [.q ' U.9 ( u.j.h.9 ] q.q.k.Z ",
"/ :X,X:XsX:XsXlXlXkXsXsXY. X XY.oX2X4 r @.W.]._.4 < o . . G .X!.M w , @ < : , 1 3 3 9 4 C.. 9 9 w }.) c ) 9 _ 8.9.j.0.9 *.q.'.Z ",
"b.MXsXtXdXlXbXfXiX/.oX|.d./.Y.oX.X X=X8.4 | I.i q + . . . @.f.4.8 +.` 3 o 9 9 9 9 9 9 {.T g.@ 9 0 9 pXyXq ` iXS.%.%.y.9 &.0.l.C ",
"K tXcXfXdXdXtXI.7.o.o.0.$.6.W.f.f.[. X:.9 U.e.9 2 . . o 6 9 .XE.9 3._ + o 1 3 9 @ 3.9 I.W 0.. 9 9 9 q (.yX| . G =.{ e [ & q.k.! ",
"R :XvXvXfXfXeXP.).!.!.W.s.3.I.U.e.Y.&X9 u R.@ . . . . j 9 @. XyX9 t 9 : o 9 + 3 :.A.u u ^.R.w.@ 9 9 9 Q.tX .uX4 r 9 3.' o +.g.2.",
"8._.=X2X=X0XxXsXbXcX&X6 o . mXlX=X=XgX9 + o . . . . j O.9 &XW.>X' 9 9 9 . 9 . . i i pXe uX.X{.'.@ 9 9 q -X9 3 + 9 9 %X5 G %X$ %.",
"$.*XXX2X=X0X&XR.^.& o G.G.G.J.nXuX& . . . X   f [.U.$X8.@.~.pX1.o + 9 9 9 9 . . @ + o 9 %X9 8.9.q.'.@ 9 9 9 4 4 9 9 9 1.;X# . m ",
"%..X=X=X&X8X:Xf c.o n.# H.H.H.:XiXo . . . f.U.Y.U.8.[. X9 ~.F.. . . 9 : 9 3 @ 1 @ . . 4 w %X9 U.C.i <XW 9 9 9 9 9 9 1.[.r , } m ",
"o..X X5X5XhX. c.H.H.H.K.H.H.k z . % . o 6.[.].'.U.' W.,XF.9 , . . . 4 o 9 o . 3 @ . . 9 . 9 9 *XR.9 ;X,.C.9 9 9 9 9 9 9 9 m.[.C ",
"$.*X[.[.. . . . H.H.H.k k k k k 3.e.=X! 2.f.f.U.&XR.9 1.i.9 9 9 4 o o < 9 9 @ @ . . . . . . 9 [.[.9 i Y W.I.f.*XtXdXuXyX#X;XpXZ ",
"Z B.j * o H.x H.* l k k k k I.].&X#X2X4.T T 2.2.C.N.9 M ..9 9 9 9 o . U D M D w : . . . 4 9 9 7 f.9 i R C.R.6.3.A.Q.b.V.X.F >.m ",
"[.F o x.H.H.H.K.k k k l T.R.R.[.$X[.gX[.[.0X*X=X=XS.q #X9 9 9 9 > + *.0.0.s.C R.` @ . . . 4 q + 9 t OX*Xf.'..X'.1X>XwXR.iXdXuXiX",
"P . * & H.H.K.k k k H -X~.e.I.U.f..X}.3.q.s.h.s.@Xy.Y.*.9 9 9 9 9 l.oX=X X0XE B.].*X9 . . . . @ 9 t '.C.%X0.q.h.|.j.].}.i.*XlX2X",
". x.H.H.H.x.k k H W.U.e.U.e.3.8.$.0.0.R e.8.0.&.g.9 d.9 9 9 4 9 j.oXk. X X6XJ R.%X%X*X9 . . . 4 9 9 [.R.yX%X9.q.'.r.R.;X].Z.].pX",
"# H.H.H.x.k k m.R.W.#XC.e.U.r.o.O.r.s.U f.f.3.8.g.q 9 9 9 9 . t oX=X X X=XgXE ~.>X&X;X#X) @ @ 9 9 9 i R.iXdX].O.a.u.].2X2X<X$X}.",
"G H.H.x.k c.VXm.#X&X#XW.I.e.e.e.O.3.f.R f.[.`.d.r.4 9 9 9 5 , h.W.=X,X=X6XzXv.C.%X#X;X%X#X$X9 9 9 9 i %XnXkX&X&.*.%.8._.{.$X$XpX",
"pXH.x.k c.NXrXL ~ N.4.4.N.W T A C D X.Z 5.T C.5.2.9 9 9 5 o 4 6X,X X,X,X6XhX/ E M.~ ~ N.m.:.9 9 4 q 8 M.iXeXT.G +.M +.*.p.j.$X$X",
"pXyXk c.gXBXBX].=X>X*X$X/.4.5.N.L F f.$.I.V.:.L W 9 9 9 > , f.oX5XhX/.6X6XhXE.B.:.Z v ~ M.9 9 9 1 q ^ M.V.m.~ ^ ^ s %.q.;.p.'.}.",
"4X}.F.F.{.NXwXw.[._.{.U.9XmXnXMXmXgXh.2X X0XhXjX9X9 4 > . d.,X XW./.sX/.,X:XT.s.8.e.O.XXjX9 9 < + p.hXhXbXhXjXxXbXb.U -.y.*.i._.",
"i.<X;X;X4XjX!.Z._._.'.*X2XR.-X}.>X[.'. X$X[.&X$Xy.9 5 o 6 XXXX/.XX6X7X5X6X5XV.e.f.[.8.g.}.9 < . q &X=X5X:X>X:X5XlXP.M *.=.=.i.h.",
"i.{.>X4XpX<XC.w.r.F._.*X3XC.U.r._.'.[..X[.{.}.].4 . . 6 oX[. X6XW.E.6X5XhXfXb.7.W.U.;.f.q 9 . 9 @. X&XgXsX-X&X>XhXP.+.=.*.8.y.g.",
"Z.}.{.*X<X9Xe.S.{._.].{.gXw.r.U.f._.].h..X`.*Xi.9 9 . G oX X5X6X0X/.6X6X/.5Xd.,X-XW.0.q.< < . 9 Z.].&X=X;X5X&X:XkX!.G 9.u.9.9.g.",
"e.5.t.t.].;X:.w.].].Z.].2XA.].>X%X_.h.r.'.*X*XF.9 9 . f d.P.I.,X/.E.E./.E.(.E I.(./.0.s.+ o . o , < 4 C.&X:X5X:XsX).D 1.r.r.e.w.",
"a - - - p L F F :.~ ~ ,.,.^.kXkXgX*X X[.].$X{.].y.>.I G 7.d./ 4.E E v ; ; / E E v.^ M X.U 4.P G G G <...N.>XsXgXgXE.- a p - a m "
};
