/* XPM */
static char *result[] = {
/* columns rows colors chars-per-pixel */
"64 64 235 2 ",
"   c #3C1F23",
".  c #3E2124",
"X  c #461E1F",
"o  c #6C1E12",
"O  c #631E15",
"+  c #6F2115",
"@  c #71261B",
"#  c #411E21",
"$  c #452929",
"%  c #442829",
"&  c #51342E",
"*  c #553932",
"=  c #4F3430",
"-  c #783124",
";  c #752D23",
":  c #5C4137",
">  c #64483C",
",  c #715844",
"<  c #6D5241",
"1  c #7A6647",
"2  c #7A7250",
"3  c #874629",
"4  c #C1571D",
"5  c #C1591F",
"6  c #C45D23",
"7  c #C4642B",
"8  c #C76E33",
"9  c #CA753A",
"0  c #874A43",
"q  c #806F4C",
"w  c #8B784E",
"e  c #866C52",
"r  c #8C7554",
"t  c #8B7956",
"y  c #947C57",
"u  c #9B6646",
"i  c #B4794B",
"p  c #AB7278",
"a  c #AF7A7B",
"s  c #A76C71",
"d  c #CC7B42",
"f  c #95845D",
"g  c #9C865A",
"h  c #9B854F",
"j  c #A48C5C",
"k  c #A7925F",
"l  c #B89A5E",
"z  c #8D8265",
"x  c #9A8661",
"c  c #988A65",
"v  c #9D9071",
"b  c #A58F64",
"n  c #A59364",
"m  c #AA9464",
"M  c #AB956B",
"N  c #AD9B6D",
"B  c #A7966B",
"V  c #B39C66",
"C  c #B49D6B",
"Z  c #BA9964",
"A  c #B9897D",
"S  c #AB9D72",
"D  c #A69672",
"F  c #B39E73",
"G  c #BF9776",
"H  c #BDA365",
"J  c #B5A26D",
"K  c #BBA46D",
"L  c #BBA66A",
"P  c #AEA273",
"I  c #B5A373",
"U  c #BBA674",
"Y  c #BDAA74",
"T  c #BCAB7B",
"R  c #B5A779",
"E  c #BEB17C",
"W  c #C98149",
"Q  c #C98D54",
"!  c #CF9659",
"~  c #D59759",
"^  c #D58A48",
"/  c #D5A05E",
"(  c #DA9D62",
")  c #C3A464",
"_  c #C7AA65",
"`  c #CCAD66",
"'  c #C1A769",
"]  c #C5AB6A",
"[  c #CBAD6B",
"{  c #CBA666",
"}  c #D7A867",
"|  c #CDB26D",
" . c #CBB06B",
".. c #D3B46C",
"X. c #DAB46D",
"o. c #D6B96E",
"O. c #DCBC6E",
"+. c #D2B267",
"@. c #C3AD75",
"#. c #CAAD70",
"$. c #C2AD7B",
"%. c #C2A571",
"&. c #C5B275",
"*. c #CCB474",
"=. c #C4B37C",
"-. c #CBB57C",
";. c #CDB97D",
":. c #CBB978",
">. c #D4B573",
",. c #DAB673",
"<. c #D6BA73",
"1. c #DBBD73",
"2. c #D2B67A",
"3. c #D4BB7C",
"4. c #DBBD7B",
"5. c #D8B57F",
"6. c #D2AD73",
"7. c #E1BD75",
"8. c #E2BA76",
"9. c #E1B26C",
"0. c #DCC175",
"q. c #D6C17C",
"w. c #DCC27C",
"e. c #E3C475",
"r. c #E2C57B",
"t. c #E5C97D",
"y. c #EACC7E",
"u. c #E9C977",
"i. c #F1D17E",
"p. c #B28388",
"a. c #B28E8B",
"s. c #BAAE82",
"d. c #BEB489",
"f. c #BDA3A4",
"g. c #C09590",
"h. c #C1AF86",
"j. c #C5B483",
"k. c #CAB582",
"l. c #CCBB82",
"z. c #C8BB88",
"x. c #D3BD83",
"c. c #DBBE82",
"v. c #D1BE8B",
"b. c #DEBB8B",
"n. c #CBBD91",
"m. c #C2ABAD",
"M. c #C8B5B8",
"N. c #CAB6B6",
"B. c #C4ACB0",
"V. c #CDC289",
"C. c #D5C285",
"Z. c #DBC483",
"A. c #DEC985",
"S. c #D4C38B",
"D. c #DBC58A",
"F. c #D7CA8E",
"G. c #DDCA8C",
"H. c #CEC392",
"J. c #D3C593",
"K. c #DDCB92",
"L. c #D7C996",
"P. c #DED192",
"I. c #DED29A",
"U. c #D7D088",
"Y. c #E3C584",
"T. c #E4CB84",
"R. c #EACB84",
"E. c #E2C68A",
"W. c #E3CC8B",
"Q. c #EACD8B",
"!. c #E8C586",
"~. c #E6D184",
"^. c #EBD184",
"/. c #E5D18C",
"(. c #EBD38D",
"). c #ECD98D",
"_. c #E8D98A",
"`. c #F2D383",
"'. c #F2D58C",
"]. c #F4DC8C",
"[. c #F3D988",
"{. c #E3CD92",
"}. c #E9CE92",
"|. c #E0CF9B",
" X c #E5D393",
".X c #EBD493",
"XX c #E7D995",
"oX c #ECDA94",
"OX c #E4D49A",
"+X c #EBD59A",
"@X c #E6DA9C",
"#X c #ECDB9B",
"$X c #F1D593",
"%X c #F2DB94",
"&X c #F2DC9B",
"*X c #F5D998",
"=X c #F1CF93",
"-X c #F4E18E",
";X c #EEE19C",
":X c #EFE096",
">X c #F4E395",
",X c #F3E39C",
"<X c #F9E49B",
"1X c #F7E89B",
"2X c #D7CDA2",
"3X c #DCD2A2",
"4X c #DDD3AA",
"5X c #DFD9BB",
"6X c #E5DAA4",
"7X c #EBDCA3",
"8X c #EADDAA",
"9X c #E4D9A8",
"0X c #F2DEA2",
"qX c #E4DBB4",
"wX c #EEE2A3",
"eX c #EDE3AC",
"rX c #E7E0AD",
"tX c #F3E4A3",
"yX c #F5E9A4",
"uX c #F8EAA4",
"iX c #F2E5AC",
"pX c #F4EAAC",
"aX c #F9EDAA",
"sX c #FAF2AB",
"dX c #F7F1AB",
"fX c #EDE5B3",
"gX c #EAE4BA",
"hX c #F3EBB3",
"jX c #F5EDBB",
"kX c #F5E9B2",
"lX c #F9F4B7",
"zX c #DAD4C2",
"xX c #EFE8C0",
"cX c #F8F1C3",
"vX c #F4EDCB",
/* pixels */
"k.kX}.{.D.W..X1XdXsXsXlX_.V.8X7X0XW.(.*XoX0X&X}.*XuX).].1X1XaXfXJ.tX0XtXv.E.=X*X&X&Xt.`.) U XXtXpX@XoX,XS.K.P.XXsXpXY.=X!.Y.5.W.",
"j r.t.T._._.~.).%X).).>X/.V..X.XT.W.W..X+XQ.}.oX<X#X3.Y.t.<.T.W.$.c.!.'.$X{.Q.!.!.!.R.'.>.$.G. XXXOXOXtXwXwX@X XpXI.,.X.} X.e.1X",
"y o.0.1.0.~.q.q.T.w.~.-X_.$.1.!.r.!.T.}.Q..XW.Q.<XW.4.0.R.r.Y.W.$.+XQ.E.!.Q.Q.Y.Y.Y.!.'.5.v.K.#X@X X{. XOX7X#X@X#XV.r.X.X.X.8.[.",
"t 0.0.e.w._.w./././.W.^.t.V [ ..4.Y.Z.oX.X$X}.E.(.W.w.T.(.W.R.}.U W.E.Q.E.!.!.Q.Y.!.!.*XZ.l. XXX#XXX XP.F.oX#X;X#XK.[ X.9.X.9.-X",
"g q.0.0.0.~.~.~./.;X_.t._.=. XOX4.Z.T.!.W.W.{.W..XZ.*.(.Q.%X/.XXT !.!.Y.!.!.Y.Y.Y.Y.!.&XXX=.G.XX X X.XXXP. XXXoXwXC.6...O.,.,.`.",
"h o.t.t.0...0.0.A.>X.Xw.y.=.S.D.2.[ ' U U Y U J x.G.N 2.2.3.C.Z.%.Q.}.Y.Y.Y.Y.Y.Q.c.Y..XXXj.S.P.S.S.P.U.C.x.G.C.C.=.4.>.X.1.4.'.",
"h q.0.0.w.0.t.0.0.T.:XoX>X0X$X>X(.i.<XZ.w.%XuXaXaX%X(.Z.w.G.#XwXT c.Y.!.Y.!.!.!.!.=XE.*XtXD.G./.#XF.Z.E R Y Y =.S.E #.Y I I Y K ",
"h | O.0.0.o.0.0.0.t.,X:XXXC.W.W.W..X&X X~.R.(.).(.%XW. X).>X1XwXU Y.T.!.!.Y.8.!.!.Q.E.&X&X0.r.t.A.e.[.w.@XwXoXoX;XpXOXXX,X&XaX%X",
"2 0.o.0.0.0.+.0.0.0._.:XXXZ.A.Z.Z.W.(.Z.Z.W.T.W._.oX.XA.w.T.R._.$.D.Y.Y.Y.!.Y.Y.!.}.}.*XG.Y.1.O.e.e.e.0.v.oXOXZ.T.#X7XOX.X{.oX1X",
"t  .o.0.o.0.+.o.0.0.~.:XXXW.W.Z.>.Y.'.Z.W./.T.(.'.q.T.t.<.o.O.e.C !.!.Q.E.!.Q.Q.!.!.+X+XD.T.e.e.0.0.u.+.Z.G. X.XG.W.oX{.+X+XoXaX",
"f  .q.0.o.+...O.O.0.t.:XC.*.3.w.<.o.R.*.{.XXoX.XQ. X0.T.0.0.O.e.C c.!.!.Y.!.=X!.!.~ 6 4 d _.~.u.u.0.e.| Z.Z.W.G.Z.W.D.G. X&X7XlX",
"f L | |  . .*.] ] ] *.t.*.j.:.3.| | e.%./.W.(..X%XoXT.W.w.r.u.r.C 5.6.x.5.Y.}.{.{.8 c.=X6 9 r.r.e.O.e.*.}.Z.R. XY.(.OXW.W.#X+XsX",
"J 0.0.0.w.C.&.J Y :.=.;.;.d.H.J.H ) o.C /.(.W..X%X/..X(.t.T.0.^.3.E.G.Z.4.x.C $.h.%.$.l.7 4 2.w.0.] ` L K.W.q.R.A.3..XoXZ.Z.}.1X",
"n I.6X@XeXpX#X(.>X%X>XoX].>X%X%X%X%X'.@.A..X/.T.%X.XW.W.T.(.oXy.<.(.R.(.T.%X X|.0X}.!.*X7 4 oXoX).T.o.C v.W.w.4.R.A.1.Z.W.OX X(.",
"z fXeXeXgXeXqXc.`.R.Q.W.r.T.Q.).Q.oXtXl.K.#XOX.X,X&XoX/.A./.T.T.*.r.Y.Q.R..XE.c.E.Y.5.5.4 4.7.Y.7X7X.XY F.{.{.Z.w.Z.w.>.T.!.OXOX",
"z fXhXfXfXjXqX{ y.T.R.R.E.Y.Q..X%X(.dXl.P.tXoX(..XoX#X%X/..X). X2.Z.Y..XoXoXc.@.>.Y.T.Y.E.D.E.Z.8.Q.%Xs.{.G.W.Z.Z.4.Z.| | 1.).gX",
"c fXeXeXhXjX4X] 7.r.R.Q.}.Q..XQ.Q.!.1X*.S.XX#X.XoX&XXX&X.XT.9.4 { W.A.!.%X#Xx.5.2.5.T.b.!.!.E.D.E.=X#XT W.}.XXW.C.D.(.3.*...0.tX",
"r 3.@X9XfX8X4X) ,.1.t.'.W.Q.$X$X.XR.%Xx.=. X/. XXXK./.W./.W.(.} 5 Q.W.R..X+X-.E.c.Y.}.{.E.|.{.b.D..X$XF }.G.W.OXW.W./.W.x.2.w.t.",
"x U ;.l.J.9Xs.' W.r.Q.&X0XC.}.(.Q.r.[.Y.V.P.F.P.oXk.&.=.;.l.C.C.4 #.x.x.x.W.U E.}.E.b.+X|.+X0X=X{..XiXI C.C.-.3.=.%.J L L L ;. X",
"/..XT.T.&XkX2X@.Y.Z./.W.#X.X!.Y.t.r.i.4. X@X.X#XtX%XOXtX;XoX].9.6 ^.%XtX@XwXB Y.+X}.E.{.+X{.|.=X+X0X&Xx.A.W.G.D.oX-.*.R.T.oX1XuX",
"A.W.T.A..XjX2XY R.oXOX&X&X$XY.Y.4.7.y.-.'  .*.2.x.+X9XjXiXOX4 7 1.y.(.~ 4 4 4 6 Y.|.}.{.|.+X}.b.E.+X+Xc.R.4.R.Y.y.0.T.t.~.)..X].",
"w._.T.XX/.`.U.Y Q.#X}.Q..X(.E.T.Y.E.+X' H _ | 3.l.G.OXlXeX5.4 ..+.t.tX5 9 gXD v.d {.{.8XL.=X{.}.D.}.+Xl.1.o.>.1.R.*.q.).(.0.q.r.",
"0.q.w.t.W.-XF.$.W..X$X+X.XE.!.T..X+XaXl.#.@.&.l.D.J.H.jXwX,.8 G.+.e.oX9 jXgXD b.d {.=X0X|.+X7X+X|.+XOXc.6.X.4.Y.Q.-.w.w.T.A.0.t.",
"~.T.~.W.~.>XG.I 4.!..X.XoXQ..XQ.Q.R.Q.@.-.=.-.C.K.K.V.OX#X5 6.XX1.o.w.tXhXxXD x.{.D.{.}.+X+X7X}.6 =X|.E.5.<.Y.Z.Q.*.w.t.T.~.Z.w.",
"R.W.).(.).>XP.x m n N T j.Y J m f j K b C J R R j.U x. X7X9 ! Z.1.e...0.T.  v U j.j.k.v.S.v.4 7 b.}.{.v.!.4 c.8.!.I o.t.t.~.T.w.",
"/.A./.W.w.i.).A.hXyX+XtXwXD.#XOXK.C.W.W.l.L.j.E z.c &.pXwXW.5 0.) +.+. .1     -.:.f y D D D 4 c z F s.F d @.4 i =.f o.0.r.r.~.W.",
"].).).T.e.oXF.S.+XOXOX|.pX X.X X%XtX#XpXyX#X#XtXlXS.|  X XXXQ >.O.<.O.<.      Z 4.4.E.&XOXW.4 Y.b.W.0XJ.D.K.4 4 8Xm +.>.0.T./.A.",
"(.(.).r.e.e.q.k.+X|.D.G.yXl.oXK.G..X XG.oXoXW.).1X X] o.o.}.jX;.0.Z.q.1     . . 3.!.4.tXx.2.~ 4 } 7.!.L.L.{.4 4 xXR r.w._.W.:X;.",
"W.w.w.0.0.^.S.z.{.{.{.K.}.x.oX+XOX.X.XXX#XXX X#XaXW.:.Z.A.w.(.)./.Z.A.          F D.W.@XD.5.!.! 5 8 1.R.&XQ.4 } 8XR w.A.w./.oXXX",
"/.w.<.O.o.-XS.z.K.|.{.+X.XC.#XoX/..X X X X X.X#XtX/.;.A.W.A.W._.XX.Xx             W.OX&XS.x.}.!.c.8 4.[ 4.~ 7 !.(.E A.A./.).oXoX",
":.:.w.F.XXyXj.V.K.{.K.{.&Xx..X#XXX XOXtXXX{.#X&X&XA.=.G.A.C.A.G.3.<.                  W.:.2.Y.Y.} 7.R.Y.} 8 w.Y._.U A.XX/.U.A.W.",
"V J n c n L.d.j.l.k.=.-.$.l.OX(.#X;XG.W.&XoXW..X(.G.N V.=.R E B ,                           4.4.4.>.!.} X.!.!.Y.&XJ Y J N B q.N ",
"C.uXuXoX%XXX(._.T.*.Z.T.<.l..X#X X&X#XA.oX#X X6 #X;XC..XoX/.                                  4.Q.4.Y.!.E.E.}.}.&Xv.C.D.C.=.;XR ",
"-.1X/.).oXoX(./.wXkXwXjXl.;. XXXG. XoX.XoXyX} ~ ,XC.C.G.Z.                                    %.Q.E.E.oX}.E.}.}.0Xx.&X}.Q.Y.T.D ",
"@./. XA.W.w.t.;XjXhXhXcX3Xk.,XXX#X X.X#XOXoX4 ~ 1Xl.A.Z.q..                                   & Q.}.W.{.}.6 6 9.tXD.T.$X'.(..XD ",
":.w.~.~.w.0.w.w.@XeXwXhX9X=. X;X#X X XW.W.Q.5 /.,X;.C.A.&.                                    $ T.}..X}.8 !.}.4 ~ x.Y.Q.'.(.oXS ",
"&.~..X~.q.| q.P. XwXA._.~.E D.G.(.#X+X XXXA.4 &X,X-.Z.3.                                        E.!.{.{.0X{.}.4 8 l..XW.Q.Q.Q.N ",
"&.W.U./.q.;XwXpXeXA.A.(._.Y C.C.Z.Z.G.C.C.=.4 ! %XC C.                                          & {.W..X}.|.W.b.W $.Z.(.T.Q..XT ",
"&.wXpXtXI.q.q.Z.w.q.W.A.~.U..X~.).oX.XC.C.Z...4 T.Z.,         R e                               & OXx.M B I s.$.Q T K U U #.w.F ",
"H 0.T.A. XwXeXeXhXeXeXlX@Xq.q.Z.~.P.yXyX;X%X^.y.4.e.          F.j.                              & '.pX!.c.Y.%X^ %X,X^.y.y.u.u.V ",
"N Z.w.A.@X6XlXhXhXlXfXlX@XXXA.w.oXoXXX/.S.Z.A.A.3.)         hXJ.J r                   !.k.      & /.tXx.Z.G.x.0.!.y.3.1.,.7.u.m ",
"E @XI.@XwX@XwXhXhXiXwXwXA././.A./.,X,XP.G.W.W.OXZ.        V /.H.J g                 C.W.3..     & R.[.C.OX8XK.>.,.t.<.o.o.1.R.B ",
"d.jXeXwXeXhXhXrX6X/.t.[.q.U.G.T._./.).Z.l.Z.x.Z.>         2.3.:.C #.r #           . W.(.L r.    . $ yX8XG.fX9Xc.[ +.r.7...1.r.m ",
"B 6XfXrXrXwXrXq.:.#.] 4.| ;./.w.w.W./.@.x.Z.3.>       . m Z..XG.V *.y             -.-.x.I 2.        % |.kXjX  M X.` 1.X.* 1.^.L ",
"H @XgXgXrXrX3XV.F.J.J.U.0.*.Z.Z.;.A. XU C.Z.          y w.3.T.6XU k             U Z.2X3XL.S.2.        J.8XkX9X  ` } 2.l . ) e.:.",
"*.Y.oX&X).1XdXwXfXfX X3 + o hXpXXXoXtX  * % o       y ;.W. X{.#XM #             > > 0XjX8X.XR.R.      % 6XwX3X  $ j L.  D {.& [ ",
"*..X(.>XoX,XXXL.I.- + m.m.m.N.jXeX= X o o O   e W.Z./.S.G.G.tXF #                     W.|.v.>.,.1.Y.      &           M OX$   j ",
"[ (.oXoX.X,XXXu a.o f.@ M.M.M.@X9Xo o o   Z.w.Z.Z.x./.}.{.K.j.                          & .Xc.Z.x.W..XI             D n.$   Z j ",
"[ (.W.;X&X<Xo f.M.M.M.m.M.M.p s o       3.W.E.!.A.C.A.+X@XOX                                .X{.C.W.oX$.x.                d.W.b ",
" .oXW.W.o o o o M.M.M.p p p p p >.3.oXY &.w.w.w. XS.G.XXOX                                    {.!.Z.y.I W.x.0.+X6XeXwX8X{.+X7Xm ",
"m l.i @ o M.0 M.+ a p p p p Z.D. X{.#X$.J L &.=.3.j.$.U B             H l l V &               & w.r.R.V x.D.-.:.v.H.h.j.U C #.j ",
"G.N + a.M.M.M.M.p p p a J.D.A.D. XW.tXW./.,X.X%XoXI.G.I.            ] <.<.0.n D.e               & 4.'..XZ.R.^.R.%X#X4XD.6XiX8X9X",
"G o ; ; M.M.B.p p p A OX{.l.Z.Z.Y.(.T.*.4.0.w.0.[.(.A.K           q._.)._.,XS l.{.}.%             * !.c.OX2.8.r.^.t.W.!.7.$XpX&X",
"o p.M.M.M.p.p p A W.Z.3.Z.<.*.*.| <.>.) <.>.o...0.t.C.          A.~.T././.:XS G.{.}.}.            % Q.D.7XOX<.1.R.4.D..XE.c.Y.0X",
"; M.M.M.p.p p j.D.G.K.x.4.Z.4.[ ` w.4.H Z.r.*.<.t.t.C         : ~.)././..XuXS {.+X{.+X{.1           > C.9XeXE.[ O.7.E.&X*X+X}.E.",
"Z M.M.p.p a.zX$.G.OX XD.C.-.3.3.[ | q.L Z.A.T.Z.w.@.          &.G.oXoXoX;XaXs.x.OX{.7XOX}.}.        > |.hXkX{...X.` >.!.Q.}.}.0X",
"0XM.p.p g.vXqXM $.k.=.=.k.I J C n V ' m :.Y 3.-.=.            >XXX XXXXXXXuXE I $.T $.k.$.T         * j.9X9XS.Z ) V ) X.7.Y.Q.}.",
"0X8Xp A 8XvXxX{.;XXX.X}.P.=.-.j.F C w.[ x.z.U F I           :./.;XyXXXXX:XuXF.;.@.m x s.h.        % R j.j.s.T U U t +.1.X.7.!.W.",
"$X!.b.Y.Q.cX3X2.R.Y.Q.Z.<XkXjXlXkXtXr.&X/.1XpXuX<X        C./.U.U./.yXP.XXXXV.w.<.3.| '.uX        R uXuXlXtXaXdXhXd.) X.8.X.7.!.",
"4.$X+X+X=XuXJ.x.Y.Y.E.$X*XC.+XW.#XW.R.W.}.W.(.}.'       > ).:X XXXoX;X;X:XyXj.q.w.G.>.0.c.      % OXXXwX@X#X@X;XaXH.l X.X.,.7.r.",
"8.!.&X+X&X*X5.2.4.c.Y.oX&Xx.Z.4.Y.R.W.(.W.Q.W.Z.#     < /.~./.:XP.G.:X;XwXeXd.q.G.Z.| 0.$       m {. XtX7X@X X#XtXV.] X.X.o.8.7.",
"Y.T.Q.}.*X*X3.c.Q.Y.E.!.tX5.4.Z.c.T.Y.T.(.R..X5.      M U._.;XoX1XP.XX:XP.;XV.P.OXA.1.4.        k.x. XXX#X;X XOXkXF.Z ,.7.,.,.r.",
"3.*.5.4.E.#X@.k.W.E.b.E.0Xx.E.#X{.Y.4.4.T..X}.x.      e V.q.C.XXP.F.U.P.F.I.P q.I.{.1.<.$   #       . k. X@XwX@XwXF.V ..4.4.3.,.",
"w 1 1 1 q R Z C %.T U $.$.I.iXeXtX.X(.Q.E.}.}.W.I I b N :.q.E =.P P f 2 2 E P P s.R Z ' K -.M S M S R I j.#XwXwX;XF.1 r q 1 w g "
};
