/* XPM */
static char *result[] = {
/* columns rows colors chars-per-pixel */
"64 64 231 2 ",
"   c #3C1F23",
".  c #3E2124",
"X  c #461E1F",
"o  c #6C1E12",
"O  c #631E14",
"+  c #6F2115",
"@  c #72261A",
"#  c #432627",
"$  c #4D322E",
"%  c #51352E",
"&  c #4E3231",
"*  c #543933",
"=  c #793223",
"-  c #752D23",
";  c #5D4239",
":  c #624639",
">  c #654939",
",  c #6E503F",
"<  c #735947",
"1  c #776746",
"2  c #7A6B52",
"3  c #813E2B",
"4  c #8A492F",
"5  c #9F663E",
"6  c #C1571D",
"7  c #C1591F",
"8  c #C66D31",
"9  c #985E41",
"0  c #874A43",
"q  c #826C4C",
"w  c #8B784E",
"e  c #846B53",
"r  c #8A7856",
"t  c #957C58",
"y  c #9B6444",
"u  c #A56E4A",
"i  c #A97B53",
"p  c #AB7278",
"a  c #AF7A7B",
"s  c #A76C71",
"d  c #CD7E43",
"f  c #95845D",
"g  c #9C865D",
"h  c #9E8957",
"j  c #9B854F",
"k  c #A5895C",
"l  c #B4895C",
"z  c #A9925C",
"x  c #B7995E",
"c  c #8D8265",
"v  c #998561",
"b  c #998967",
"n  c #A38C66",
"m  c #A49264",
"M  c #AB9464",
"N  c #AC9B6C",
"B  c #A9966B",
"V  c #B39C66",
"C  c #B49D6B",
"Z  c #BA9664",
"A  c #B9897D",
"S  c #AB9C72",
"D  c #A59874",
"F  c #B29E73",
"G  c #BF9776",
"H  c #B5A26D",
"J  c #BBA46D",
"K  c #BCA367",
"L  c #AEA273",
"P  c #B6A373",
"I  c #BAA674",
"U  c #BDAA74",
"Y  c #BCAB7B",
"T  c #B6A779",
"R  c #BEB17C",
"E  c #CD884E",
"W  c #C39B67",
"Q  c #C3A464",
"!  c #C7AA65",
"~  c #CCAD66",
"^  c #C2A669",
"/  c #C5AB6A",
"(  c #CBAD6B",
")  c #C9A56A",
"_  c #D6AD69",
"`  c #CDB26D",
"'  c #CBB06B",
"]  c #D3B46C",
"[  c #DAB46C",
"{  c #D6B96E",
"}  c #DCBC6E",
"|  c #D2B267",
" . c #C3AC75",
".. c #CAAD70",
"X. c #C2AD7B",
"o. c #C7A170",
"O. c #C5B275",
"+. c #CCB374",
"@. c #C4B27C",
"#. c #CCB57B",
"$. c #CEBA7C",
"%. c #CBB978",
"&. c #D3B573",
"*. c #DAB772",
"=. c #D6BA73",
"-. c #DBBC73",
";. c #D2B67B",
":. c #D4BB7C",
">. c #DBBD7B",
",. c #E2BD75",
"<. c #E2BC77",
"1. c #DCC176",
"2. c #D6C17C",
"3. c #DCC27D",
"4. c #E3C475",
"5. c #E2C57B",
"6. c #E5C97D",
"7. c #EACC7E",
"8. c #E9C977",
"9. c #F1D17E",
"0. c #B28388",
"q. c #B28E8B",
"w. c #B9AD82",
"e. c #BFB488",
"r. c #BDA3A4",
"t. c #C09590",
"y. c #C0AF82",
"u. c #C5B483",
"i. c #CAB582",
"p. c #CCBB82",
"a. c #C8BB88",
"s. c #D3BD83",
"d. c #DBBE82",
"f. c #D2BE8B",
"g. c #DEBB8B",
"h. c #CBBF92",
"j. c #E2BA80",
"k. c #C2ABAD",
"l. c #C8B5B8",
"z. c #CAB6B6",
"x. c #C4ACB0",
"c. c #CDC189",
"v. c #D5C285",
"b. c #DCC483",
"n. c #DEC985",
"m. c #D4C38B",
"M. c #DBC58B",
"N. c #D7CA8E",
"B. c #DDCA8C",
"V. c #CEC392",
"C. c #D3C593",
"Z. c #D6C992",
"A. c #DDCB92",
"S. c #D8C997",
"D. c #DED193",
"F. c #DDD29B",
"G. c #D7D088",
"H. c #E3C584",
"J. c #E4CB84",
"K. c #EACB84",
"L. c #E2C68A",
"P. c #E3CC8B",
"I. c #EACD8B",
"U. c #E8C785",
"Y. c #E6D184",
"T. c #EBD185",
"R. c #E5D18C",
"E. c #EBD38C",
"W. c #ECD98D",
"Q. c #E8D98A",
"!. c #F2D383",
"~. c #F2D58C",
"^. c #F4DB8D",
"/. c #F3D988",
"(. c #E3CD92",
"). c #E9CE92",
"_. c #E0CF9B",
"`. c #E5D393",
"'. c #EBD493",
"]. c #E7D995",
"[. c #ECDA94",
"{. c #E4D49A",
"}. c #EBD59A",
"|. c #E6DA9C",
" X c #ECDB9B",
".X c #F1D593",
"XX c #F2DB94",
"oX c #F2DD9B",
"OX c #F5D998",
"+X c #F1CF93",
"@X c #F4E18E",
"#X c #EEE19C",
"$X c #EFE096",
"%X c #F4E295",
"&X c #F3E39C",
"*X c #F9E49B",
"=X c #F7E89B",
"-X c #D7CDA2",
";X c #DCD2A2",
":X c #DDD3AA",
">X c #DFD9BB",
",X c #E5DAA4",
"<X c #EBDCA3",
"1X c #E4DBAA",
"2X c #EBDDAA",
"3X c #E5D5A3",
"4X c #F2DEA2",
"5X c #E4DBB4",
"6X c #EDE2A4",
"7X c #EDE3AC",
"8X c #E7E0AD",
"9X c #F3E4A3",
"0X c #F5E9A4",
"qX c #F8EBA4",
"wX c #F2E5AC",
"eX c #F4EAAC",
"rX c #F9EDAA",
"tX c #FAF2AB",
"yX c #F7F1AB",
"uX c #EDE5B3",
"iX c #EAE4BA",
"pX c #F3EBB3",
"aX c #F5EDBA",
"sX c #F5E9B2",
"dX c #F7F2B4",
"fX c #F9F4B8",
"gX c #DAD4C2",
"hX c #EFE8C0",
"jX c #F3EBC4",
"kX c #F8F1C3",
"lX c #F7F2D1",
/* pixels */
"i.sX).P.b.P.].=XtXtXtXfX].h.<X<X4X).I.XX'.4XoXI.OX0XQ.^.=X=XrXuXC.9X4X9Xg.L.+XOXoXoX6.!.W U ].9XeX{. X&Xm.A.D. XrX9Xj.+XI.j.b.P.",
"k 6.J.J.W.Q.P.W.XXQ.W.%XY.c.'.'.U.J.P.}.OXI.'.}.*X X:.U.5.=.J.R.X.d.U.).'.P.I.U.U.U.I.!.+.@.B.`.].'.].9X6X6X|.].eXF.*.*._ _ 4.*X",
"t ] 1.} 1.J.2.2.J.3.Y.@XR.@.-.U.5.J.J.(.P..XP.J.*XP.>.<.K.5.U.P.X.}.I.L.L.I.I.H.5.H.U.~.>.p._. X|.{.A.{.{.6X X|.|.c.5.[ [ [ ,./.",
"r 1.1.5.6.Y.2.R.R.Q.J.T.6.Z ~ &.>.H.H.'.'.}.'.L.E.P.2.K.~.P.J.(.I L.I.I.U.U.U.I.g.U.U.OXM.p.P.|.].'.`.D.N.'. X#X#XA.~ [ [ [ } @X",
"h 2.1.{ 1.Y.Q.Y.R.#XR.7.Q.@.`.{.:.5.P.P.).J.(.(.}.n.+.W.I.XXR.]. .U.U.H.U.U.H.H.j.U.U.oX].@.B.].].`.].{.D.R.Q. X6Xm.` [ ,.,._ !.",
"j ] 6.6.1.{ 1.1.n.%XW.3.7.@.m.M.;.( ^ J I U I H s.M.N ;.$.>.v.n.Y I.).L.L.j.H.H.I.>.L.'.`.u.m.A.m.v.R.D.c.v.B.v.v.X.>.&._ <.>.~.",
"h 2.1.1.1.1.6.1.1.J.#X[.%X<X[.%XE.!.*Xb.3.XX0XrXqXoXE.b.b.P. X XI j.j.U.H.U.U.K.I.+XI.OX9XM.B.Q. XB.v.U I U U @.m.@. .U P H  .C ",
"j ` 1.1.1.{ 1.1.1.6.&X#XQ.b.P.P.P.'.oXR.P.7.Q.W.R.XXR.P.W.[.=X6XI L.L.I.U.j.<.U.U.I.L.}.oX1.5.7.J.1./.n.|.6X].[.#XeX{.'.&X9XqXOX",
"w 2.{ 1.1.1.| 1.1.1.Q.&X].b.B.b.b.J.'.b.b.P.J.K.Q.'.'.n.6.J.7.W. .L.L.<.j.I.j.L.U.I.I.u o o } -.4.4.8.-.m.'.{.b.n.oX X{.'.(.'.=X",
"2 ` { 1.{ 1.| { 1.1.Y.$X`.J.P.b.=.U.~.b.P.P.P.E.~.3.6.6.&.{ { 4.C L.I.I.H.I.~.I.g.I.OXo f.o 5 4.1.1.4.| b.B.`.'.M.P.'.`. X}.}.tX",
"f ` 1.1.{ | { { { 1.6.W.v.+.>.3.&.&.7.+.`.'.].'.R.'.3.J.1.1.{ 4.C j.L.U.U.U.+XL.).L.).4XA.E.+ 6.8.1.8.' b.M.P.P.b.P.M.M.`.oX6XfX",
"f K ` ` ' ' +./ / ! %.Y.O.u.%.:.` ~ 5.U R.P.E.'.[.[.J.P.3.5.8.8.C ;.;.;.*.g.).).L.L.d.+XB.3.1.6.4.} 4.+.P.b.J.).J.'.{.P.P. X'.tX",
"H 2.1.1.2.v.O.J O.O.@.$.$.e.V.Z.K Q &.C P.E.P.'.XXP.[.E.H.J._ 8 8 J.M.n.b.:.C Y y.o.X.i.u.;.:.1.1.~ | H _.J.2.J.B.;.[.'.b.b.).qX",
"m F.#X|.7XsX XI.XXXX%X[.^.%XXXXX^.XX^...B.[.P.P.XX'.P.P.J.W.~._ 7 ~.K.I.J.XX(.{.<X'.P.OXOXXX'.[.`.J.{ H p.P.n.>.J.J.=.b.P.`.(.E.",
"c uX7X7XuX7X5Xb.!.K.E.P.H.J.I.E.E.'.9Xp.(. X].'.&XoX'.E.J.R.J.J.7 H.H.I.L.'.P.s.U.J.s.*.>.>.>.L.<X X'.U m.(.`.b.1.H.3.&.J.P.].{.",
"c uXaXuXuXaX5X/ 6.K.K.K.H.H.I.'.}.Q.yX$.D.9X'.E.[.[. X[.P.'.,.7 ;.d.J.E..X[.b...;.j.U.L.J.M.U.d.<.I. XR {.M.P.b.b.>.n.( | -.'.iX",
"b 7X7X7XuXaX:X! ,.5.K.I.I.I.).I.I.J.=XO.m.].}.'.}.#X[.XX'.[ 6 R.$.K.L.J.'.oXs.d.*.>.L.g.L.L.L.g.L.'.OXY P.`.'.A.M.b.E.:.` ` 1.9X",
"r s.|.1XuXuX:XQ *.-.6.~.P.)..X'.'.I.^.s.p.D.R.`.'.D.R.P.6 6 E.n.+.I.P.J.'.}.#.U.M.g.).L.L.).(.L.g.}.}.P P.B.P.'.P.P.P.P.s.;.3.J.",
"v I #.p.m.1Xw.^ P.H.I.oX4XM.I.E.I.7.~.H.c.D.N.`.'.p.@.^ 6 %.v.v.N  .v.:.E 7 6 6 (.L.L.}._.}.4X).(.`.9XP b.m.#.$.@.U H U K U :.Q.",
"R.W.J.J.OXsX-X .5.b.R.(. X'.U.H.5.4.9.>.R.|.]. X9X}.'.U.,.}.^.XXT.T.XXoX8 7XB E 7 ).L.(.}.(.}.+ o 4XoXs.M.P.B.P.].;.` K.J.[.&XqX",
"n.R.J.n.'.aX-XY J.'.'.oXOX.Xb.H.>.<.K.O.^ ( +.;.s. X,X}.j.].{ { } 8.E.eXaXaXD p.d _.}._.(.3Xo 4 L.o  Xd.U.3.U.6.6.1.J.6.J.'.'.@X",
"1.R.K.].R.!.N. .E.}.).I.}.'.J.U.U.J.}.^ K ! ` :.p.M.{.kXd d.$.` | 7.6XdXfXiXD f.L.(.L.4XA.).o ).M.+ }.:.-.] &.,.K.&.2.Q.T.1.1.6.",
"1.2.3.J.J.@XN. .I.'.}..X`.J.U.H.'.}.eXp... .O.p.M.Z.V.pX4X2X|.B.] 1.Q.wXpXiXD g.(.).}.OX3X}.9 }._.<X{.d.] W o o u %.b.3.Y.3.2.6.",
"Y.J.R.J.Q.%XN.H d.J.E.'.}.I.'.E.I.I.K.@.+.@.;.f.M.A.V.{. X`.N.{.-.] 5.<XaXhXS i.(.S.L.}.}.}.<X3X(.+X_.g.d.o @ 4 o i 3.6.J.R.b.1.",
"J.R.E.E.E.%XD.g M m N Y u. .F M f g J m N H I Y u.P $.`.6X9Xv.3.} 4.] 1.T.pXw.T u.u.u.f.g.h.C.g.g.).M.f.+XW H.d.o k ] 6.6.T.n.1.",
"R.n.R.J.3.9.W.B.eX0X}.wX6XM. X`.B.M.P.P.p.Z.u.w.p.b O.eX XB.R.3.! | ' | -.W.s.:.#.v t D D B n b b F w.P i.X.C n = f { 1.5.5.Q.J.",
"XXQ.'.J.4.[.N.m.{.{.{.{.pXR.'.`.oX&X X0X9X&XoX0XfXm.+.'.'. X$.:.} =.=.=.-.    -.-.>.J.oX{.P.P.H.g.P.<XS.d.M.f.3 <XM ] =.1.J.R.M.",
"~.W.W.6.4.4.2.i.}.{.M.M.0Xp.[.(.M.'.`.A.]. XP.E.%X]./ { { (.fX$.` &.:.R.v.    J.:.J.d.4Xp.&.U.&.] <.U.S.S.g.o 4XhXF 6.>.Q.R.$X$.",
"J.2.3.1.1.T.N.a.(._.(.M.).v.].].`.[.`.]. X`.`.[.rXB.%.b.n.3.o.o l l v.K.t     b.M.M.P. XZ.;.L.>.( ] -.U.oXl I.4X2XT 1.n.3.R.[.].",
"P.3.=.{ { @Xm.a.A.(.{.(.'.v.oX}.`.].].`.`.`.o.o o B.p.n.P.n.) y ].Q.n.:.      I b.P.`.4XM.d.).J.d.>.<...,.>.<.U.E.R n.J.Q.`.[.XX",
"$.%.2.R.].eXu.c.A.(.A.(.}.d.`. X'.`.`.9X XZ o g.XX$.@.B.B.v.K >.:.$.+.>         T (.P.I.@.&.H.H.>.<.I.H.>.U.3.H.Q.I n.].R.G.b.R.",
"V H m b m Z.e.@.p.i.i.#.@.p.'.`.].9XB.P.XX+ #.'.qXD.N v.@.T R @.H N n               M._.X...>.j.>.&.5.U.L.U.J.H.oXP U H N B $.N ",
"m.qX9X[.XXoXP.Q.J.` v.J.%.p.`. X`.oX'.B.[.o `.}.eX#Xs.].[.XXB.e.Y X.                    t ;.H.>.U.d.L.U.U.L.).).OXf.m.b.m.O.#XT ",
"+.&XQ.Q.[.].E.R.7XpX6XjX:.:.`.`.B.`.[.'.].o d.].&Xv.v.J.3.J.e                               d.U.I.J.L.'.).L.g.(.;.s.oX'.I.H.P.D ",
"+.R.].n.J.3.6.#XdXuXeXfX;Xp.&X X X`.'. X X X;.[.&Xp.B.n.K.n.                                b.U.I.'.P.I.).L.(.OXW i L..X~.E.'.D ",
"$.3.Y.Y.3.1.n.1. XwX6XaX1X@.`. X X`.`.R.P.'.'.R.=X$.v.b.P.I                                 M L.H.I.}.).(.L.4 (.o i L.I.E.~.'.N ",
"@.K.].R.2.` 1.N.F.6XR.Q.G.O.m.P.E. X}.`.].B.=XoX&X$.n.b.$.    v v                             L.L.).(.(.4X(.o o 9 p.'.P.I.I.I.N ",
"O.n.n.R.b.|.6XpX7X3.n.T.Q.U v.v.b.b.B.v.p.%.:.B.[.C 2.b.      m.i.                    p.#     U.L.L.L.).}._.(.(.(.X.b.E.J.I.'.X.",
"O.wXeX6X{.2.2.b.b.2.P.n.Y.Y.W.J.[.'.[.v.v.b.B.:.J.b.%.C     U c.p.v                   [.% .   I.'.{.p.N n P y.u.f.I H ^ J  .b.C ",
"K 1.Y.3.D.6XwX6XpX7X7XfX,X:.2.b.Y.R.eX=X#X~.Q.K.-.8.W.<   b =XN.#.(.                  [.P..   % I.~.rX7.d.H.XX~.OX&XW.7.7.8.8.C ",
"N 2.2.B.].,XfXpXdXaXpXdX X].n.3.].#X#XP.m.b.M.P.:.~ >     <XaXC.H P.n               :.J.f.    % E.I.9Xs.L.M.s.<.U.6.=.>.-.,.7.M ",
"R |.{.|.6X|.6XeXpX7X6X6XB.R.R.J.R.$X#XR.B.P.B.R.b.n..   +.>.Q.C.C b.k             (.M.J.:.K.  # W.U.^.m.{.2XS.;.*.6.=.&.{ *.Y.M ",
"e.dX7X6X7XpXpX8X,XR.7.W.2.N.J.J.Q.R.W.v.s.b.b.b.v.: . b.b.+.s.@.V +.>.e           '.P.I.J 6.    # ~.qX<XM.uX< t ~ _ 4.,.] *.6.m ",
"D ,XuX8X8X7X,Xv.%./ / -.` $.G.n.3.P.R. .p.v.b.:.:     >.J.n.W.B.V +.+.+.        :.#.#.v.I &.b.    : |.{.sXaX2 (.&.| / *.-.-.7.J ",
"K |.iXiX6XuX;Xc.Z.C.C.G.2.+.3.b.$.n.`.U v.: .       >.O.3.:.R.<XJ >.-.k       C O.m.-X:XS.m.:.      e C.<XaX  n ) ~ ^ t Q Q 4.+.",
"&.H.].oX'.=XyX6XuXpX`.4 + o pXuX].[.9X    X O   q b.B.$.P.`.B. X:.E.M         ; 9X&X4XaX2X'.U.~.    .  .3X2X;Xv :.*.* n <X{.-.` ",
"` '.'.%X'.&X].N.S.= + k.k.k.z.fX2X7XhXo o O . >.J.v.P.M.B.(.9XA.s.#             & <.L.U._.s.&.*.&.U.    * 2X&   S.%   {.u.B.-.k ",
"( Q.[.[.].&X].y q.o r.@ z.z.l.}.,X= O O < 3.b.b.b.s.`.P.(.A. X;Xn                 % ;.>.).`.b.d.s.J..XY         v ).C.  w.2X6.z ",
"( E.R.#XoX9Xo r.x.z.l.k.l.l.p s o   kXa.#.P.b.P.b.v.B.}.|.{.].D X .         . &.        L.P.'.`.M.P.XXX.s.1.}.      dXuX2X2XE.n ",
"( }.P.P.o o o o l.z.l.p p p p p &.:.[.U O.3.>.n.'.M.B.`.{.|.y.    z | { &.>.+.:.H.        I.P.J.P.d.K.H P.s.>.}.3X7X2X2X(.}.4Xm ",
"M p.i @ o l.0 l.+ a p p p p b.B.`.(.oX@.H U  .O.p.#.@.I @.@.    # z ^ K Z x V b.L.(.          s.3.5.K.C v.M.%.+.m.V.e.u.J C ..k ",
"P.C + 0.l.l.l.z.p p p a m.M.B.M.(.P.9XP.R.&XE.XX[.F.M.F.n.J   $ R.1.2.=.=.1.M M.}.(.(.        P.b.>.~.E.3.I.K.K.XX X;Xm.,XuX7X3X",
"G o = = l.l.x.p p p A {._.p.b.b.H.E.P.O.-.2.1.5.!.W.n.Y.U     2.Y.Q.Q.W.Q.&XS p.(._.L.L.:     & U.b.U.:.`.:.-.5.K.U.U.J.5.'.wXoX",
"O 0.l.l.l.0.p p A P.b.s.5.;.&.+.` =.] Q -.&.{ ] 1.6.v.3.    % =.6.Y.J.Y.R.%XS N.(.'.).P.L.).    & H.I.M.<XF.*.,.7.>.M.}.L.>.U.4X",
"@ l.l.l.0.a p y.M.B.B.s.2.b.:.( ( >.:.K n.3.+.&.6.J.3.O.    U n.R.W.Q.P.'.0XS (.}.).'.(.A.(.}.<   : I.m.2X2XL.` } ,.L.oXoX}.).L.",
"Z l.l.0.p q.gXX.A.`.(.B.v.;.:.;.( ` 1.K b.J.P.>.3.W.:.V   ; W.W.B.[.'. X#XrXw.s.{.{.}._.(.).OX    : P.3XsXuX}.` { ~ &.H.I.I.+X4X",
"4Xl.0.p q.lX5XS X.i.@.@.i.P J N m Z K z $.U :.%.O.$.O.    %.R.$X].R.].].].yXR H @.Y Y i.X.X.I     r Y u.1X1Xm.Z Q C ! [ <.U.~.).",
"4X5Xp o.4XlXhXL.[. X'.'.F.O.#.@.F C n.' c.a.Y F P g %.  ; B.Y.R.#X0XD.$X$XqXN.$. .M v w.u.y.    < B P u.u.e.Y P P t ] *._ ,.U.U.",
"+XL.g.g.I.kX;X;.J.J.I.d.*XuXfXfXsX9X5.OXP.&XqXqX%X6.M . R.R.Q.R.G.R.6XD.].].c.1.&.:.` '.qXL.  * 4XrX0X0XeX9XrXtXdXe.K [ ,.[ <.U.",
"<.+X}.+X.X4XC.d.H.H.U.}.OXM.}.L. XP.J.E.P.'.'.I.XXn.  M Q.W.[.].'.$X&X#X#X6Xa.2.3.P.=.-.I.    % A.`. X#X|. X X XeXc.x [ [ { <.3.",
"<.I. XOXoX.Xs.;.>.d.L.'.OXs.b.>.H.J.J.R.I.I.P.b.E.    3.Y.R.Q.[.R.G.#X=X6X7Xe.2.M.b.` 4.J.     X(.P.`.9X<X].{. X9Xa.) *.[ *.*.<.",
"j.J.I.)..XoX:.d.I.L.H.U.9X;.>.H.b.U.L.U.I.I.'.J.U.    B.G.Q. X[.6XD.].$XD.#Xc.D.{.P.=.1.:.     X`.R.{.].|.#X{.].eXZ.Z *.,.*.*.5.",
"*.;.>.;.(. X .#.U.L.L.L.4Xf.L. X(.H.d.>.J..XI.P.[.    v.2.c.v.].].N.G.G.N.D.L 2.F.P.-.-.%       u.p.{.[.D. X<X|.6XN.V &.>.>.*.:.",
"r 1 1 1 e F Z C  .Y U X.X.S.wX7X9X'.E.J.P.).'.P.XXI m c.v.2.R @.L L b 2 2 R L L w.Y M ! t g B S B P 6X|. X X6X9X9XN.1 w q 1 w k "
};
