/* XPM */
static char *result[] = {
/* columns rows colors chars-per-pixel */
"64 64 236 2 ",
"   c #3C1F23",
".  c #3D2124",
"X  c #461E1F",
"o  c #4C1E1D",
"O  c #5D1E17",
"+  c #551E1A",
"@  c #5A1E18",
"#  c #651E14",
"$  c #6C1E12",
"%  c #53231E",
"&  c #6E2013",
"*  c #63271D",
"=  c #742413",
"-  c #772A17",
";  c #79311E",
":  c #421E20",
">  c #472626",
",  c #53342F",
"<  c #742C21",
"1  c #773124",
"2  c #7C3622",
"3  c #652C25",
"4  c #5C4238",
"5  c #654A3B",
"6  c #644738",
"7  c #734E3C",
"8  c #774115",
"9  c #725245",
"0  c #786647",
"q  c #7A7250",
"w  c #832E15",
"e  c #8B3316",
"r  c #893A19",
"t  c #963A17",
"y  c #983B17",
"u  c #803E28",
"i  c #964819",
"p  c #A24218",
"a  c #AC481A",
"s  c #A7481B",
"d  c #B54E1B",
"f  c #BB531C",
"g  c #B7501B",
"h  c #B26D17",
"j  c #84442C",
"k  c #87462D",
"l  c #864836",
"z  c #8C5638",
"x  c #945C3D",
"c  c #904A2E",
"v  c #C1571D",
"b  c #C35D1C",
"n  c #C86E1C",
"m  c #C46B35",
"M  c #8C4E49",
"N  c #806A4B",
"B  c #9D6443",
"V  c #966B49",
"C  c #8B784E",
"Z  c #8A7855",
"A  c #977C58",
"S  c #8F6558",
"D  c #A77952",
"F  c #A57249",
"G  c #9C6E6A",
"H  c #AB7379",
"J  c #A47A77",
"K  c #AE7A74",
"L  c #A48E16",
"P  c #CE811A",
"I  c #D3921A",
"U  c #DAA818",
"Y  c #DFB917",
"T  c #CCCC15",
"R  c #E4C817",
"E  c #E2C71E",
"W  c #E6D315",
"Q  c #EBE814",
"!  c #EFF613",
"~  c #E7CC35",
"^  c #9B8659",
"/  c #9B854F",
"(  c #A68A5D",
")  c #B5875A",
"_  c #B99B5F",
"`  c #AC935F",
"'  c #988963",
"]  c #8D8265",
"[  c #A78C63",
"{  c #A89668",
"}  c #B49D6A",
"|  c #B79965",
" . c #AA9B71",
".. c #B39E75",
"X. c #B88B6D",
"o. c #B5A26D",
"O. c #BCA46D",
"+. c #BBA366",
"@. c #B6A373",
"#. c #BBA674",
"$. c #BDAA74",
"%. c #BCAB7B",
"&. c #B4A778",
"*. c #AEA473",
"=. c #CFB64D",
"-. c #C49C6D",
";. c #C3A66B",
":. c #C5A96A",
">. c #CCAD6B",
",. c #C8A865",
"<. c #CCB26D",
"1. c #CFB863",
"2. c #D4B36C",
"3. c #DAB46D",
"4. c #D5B96E",
"5. c #DBBA6D",
"6. c #C4AC75",
"7. c #CBAC73",
"8. c #C3AD7B",
"9. c #C5A573",
"0. c #D1AD78",
"q. c #CCB374",
"w. c #C4B37C",
"e. c #CCB57C",
"r. c #CDB97C",
"t. c #C7B476",
"y. c #D4B573",
"u. c #DAB771",
"i. c #D6BA72",
"p. c #DBBC73",
"a. c #D3B57C",
"s. c #D4BB7C",
"d. c #DBBD7B",
"f. c #DBB77A",
"g. c #D7AA6A",
"h. c #E2BE76",
"j. c #CF8B4D",
"k. c #DCC175",
"l. c #DCC37C",
"z. c #D7C17B",
"x. c #E3C375",
"c. c #E2C57C",
"v. c #E4C97D",
"b. c #EACB7E",
"n. c #EAC978",
"m. c #EED370",
"M. c #DFC254",
"N. c #B07E84",
"B. c #AB8784",
"V. c #B89698",
"C. c #BBAD83",
"Z. c #BEB387",
"A. c #BD9BA0",
"S. c #BEA4A5",
"D. c #C7AC82",
"F. c #C4B483",
"G. c #CBB583",
"H. c #CCBB82",
"J. c #CABC89",
"K. c #D4BC82",
"L. c #DBBE81",
"P. c #D4BA8A",
"I. c #D2BA92",
"U. c #C8B5B8",
"Y. c #C5B1B4",
"T. c #C6AFAC",
"R. c #E0BD84",
"E. c #D4C284",
"W. c #DCC383",
"Q. c #DEC985",
"!. c #D4C38A",
"~. c #DBC48A",
"^. c #DCCA8C",
"/. c #D6CB8E",
"(. c #DCCB93",
"). c #D6C794",
"_. c #DDD194",
"`. c #CFC68A",
"'. c #E3C584",
"]. c #E4CA84",
"[. c #EACB85",
"{. c #E2C68A",
"}. c #E3CB8B",
"|. c #E9CD8B",
" X c #E8C786",
".X c #EBD184",
"XX c #E5D18C",
"oX c #EBD38D",
"OX c #E9D689",
"+X c #F4DC8D",
"@X c #F2D488",
"#X c #E3CD92",
"$X c #E9CE92",
"%X c #E1CB96",
"&X c #E5D394",
"*X c #EBD493",
"=X c #ECDA94",
"-X c #E4D49A",
";X c #ECD59A",
":X c #E7D99C",
">X c #ECDB9B",
",X c #E7D995",
"<X c #F1D594",
"1X c #F2DB94",
"2X c #F2DC9B",
"3X c #F2D799",
"4X c #F1CF93",
"5X c #EEE09C",
"6X c #F3E29C",
"7X c #F7E59A",
"8X c #F4E18E",
"9X c #D7CDA4",
"0X c #DCD2A5",
"qX c #DFD9BB",
"wX c #EBDDA3",
"eX c #EBDEAB",
"rX c #E5DAA7",
"tX c #F2DEA4",
"yX c #E7DCB3",
"uX c #EDE2A4",
"iX c #EDE2AC",
"pX c #E7E0AD",
"aX c #F3E4A3",
"sX c #F2E5AD",
"dX c #F4EAAC",
"fX c #F8EBA6",
"gX c #F9F1AC",
"hX c #EDE5B4",
"jX c #E9E4BA",
"kX c #F3EBB3",
"lX c #F5EDBB",
"zX c #F3E6B3",
"xX c #F9F3B5",
"cX c #F7F1C5",
"vX c #F5EECA",
"bX c #DAD4C2",
/* pixels */
"G.kX$X}.!.^.,X7XgXgXfXgX,X`.0XuXwX*X|.<X=XtX6X|.2XfX*X+X7X7XgXhX).uXtXaXP.{.3X+X6X>Xn.@X| x V :XdX:X>X2X!._._.>XgXaXL.4X XR.d.}.",
"( c.].].8XOXXX+X5X7 X k XX`.&XoX]. X}.;X<X|.|.;X2X2Xs.v.c.p.[.XX%.L. X4X*X|.$X X X X|.@Xy.w.^.&X&X,X&XaXuXwX>X&XdX_.u.u.3.3.h.7X",
"C 4.k.p.k.v.z.z.6 , B F XXt.p. Xc.}. X&X|.=X{.|.7X|.p.l.[.l.'.}.w.=X$X{. X|.|.R.'.R.R.|.;.$.%X>X:X8.. { &XuX>X>X:X`.h.3.3.3.h.+X",
"A k.l.x.l.OXz.XX6 5 Q.b.v.| >.y.d.].7., &X<X*X{.oX}.l.].oX|.].*X#.{. X|.{. X X|.R. Xa.> # j (.>X;X5 e.# 1 ,X>X5X5X(.>.3.3.3.5.+X",
"^ z.k.i.k..Xb.OXXXw.z.b.OX[ ^ ^ | d.W.z + 6.$X$X&XW.q.OX|.1XXX&X6. X X'. X Xh. X XR.0.~.&XF._.&X&X&X&X~.9.&XXX>XuXP.7.3.h.h.g.b.",
"/ 4.b.v.k.4.k.l.Q.8X,Xl.6 : X.!.a.>.;.O.O.l @.} K.^.{ r.s.d.W.!.$.|.$X'.'.R.'.'.|.d.'.} &Xw.!.^.!.. { (.`.s.^.E.!.w.d.y.g.h.h.+X",
"/ z.k.4.l.k.v.k.k.].5X=X5 l *X8XOX@X7XW.l.1XfXgXgX2XoX~.W.^.5X5X$.L.R. XR. X X[. X4X}.3XaX^._.r., 5 !.&.&.$.%.w.E.w.6.$.@.o.6.O.",
"/ <.4.v.k.4.k.k.k.].6X6XA # D D $ $ & 9.].[.OXOX|.1XXX|.OX1X7XuX$.R. X|. XR.h. X'.|.|.2X3Xk.n.| >   / E.&X>X,X=X5XdX&X,X6X6XdX3X",
"Z 4.i.k.x.k.1.k.k.k.OX5X,Xt.& & $ $ $ $ $ D ].}.oX=X,XQ.].c..XOX8.R.{.'.R. X XR. X|.4X3X~.c.u.p.k.      @ $ 2 s.Q.2X2X-X;X#X*X7X",
"Z <.4.4.4.k.<.4.k.k.OX5X&XQ.].W.j $ $ $ & u ].}.+Xl.c.c.i.4.5.x.} {.|.) 0. X|.|. X X;X3X(.].x.x.x.5.n.<.E.^.B $ }.^.,X&X;X;X,XgX",
"] <.k.k.4.1.4.4.4.k.b.8XE.q.>.q.j $ $ $ & & - c k &Xl.].z.p.5.k.O.R. X Xu c -.|. X$X$XtX).oXy.r x.x.x.<.E.{.2 7.W.{.~.~.&X2XaXxX",
"^ +.<.<.>.>.q.:.:.,.t.v.t.J.| $ d e $ p y = n P P m c.[.l.c.n.v.} 0.a.a.h.D $ ( 8.{.L.4X~.].l.2.; ; 3.y.s.$ $ ) >.oX:X^.{.;X,XgX",
"o.z.p.p.z.z.w.O.$.t.w.r.r.Z.F.$ $ f e v v v n R R v g.@X].].l..Xs.~.^.W.L.L.[ $ : , 8.G.D.s.s.z.j $ $ ` k & $ & $ j *X,XW.W.&XfX",
"{ _.wX:XiXkX>XoX8X1X8X1X+X1XoXB $ y v v Y Q Q ! R ~ XX].[.OXoXb.i.oX].OX X1X^.B : : 9 ;X2X1X=X,XOX$ & ( j $ e f p p v j.$X&X|.OX",
"] hXhXiXhXiXjXd.<X[.oX{.W.'.|.oXB c v I R ! ! ! R ~ *XXX].XX}.].q.'.'.|.].;X{.K.B : : } d.f.l.'.wX;XO   !.$ e v U R R R c.|.&X-X",
"] hXkXhXhXzXqX:.b.[.[.[.].].|.<X<X<Xc.U R ! Q W R ~ =X>X}.,XOXXXa.l.'.oX=X=XL.7.a.#     '.~. XW.d.|.O   &X= a P U Q Q W R M.&XjX",
"' hXiXeXkXlX0X:.h.c.[.|.oX|.*X|.|. X7X1.E R R R R m.*X1XoXXXOXXXs.].].}.*X>XP.L.a.#     {.{.{.L.{.$XO   }.#XP R R ! ! W R =.x.6X",
"Z K.:XrXhXyX0X,.u.p. X@X|.|.<X<X=X].+X!.r.R R R OX_.XX}.XX}.XXQ.t.|.{. X<X;Xr.{.L.#     {.$X%X{.~.$XO   }.^.P R R W R R s.r.l.v.",
"' #.r.`.).rXC.;.}.c.|.2XwX~.|.|.|.n.@X'.`._./.(.=XH.w.e.r.r.E.E.} 6.E.K.K.}.9.L.k +     %X;X;X;X$X%X@   E.E.e.4.=.=.=.=.o.$.r.,X",
"|.*Xc.].=XkX9X6.W.l.|.&X>X&X[.'.c.c.[.h._.:X,X>XaX*X&XaX5X,X+X7X.X.X=XaX>XwX{ X.&       ;X%X$X$X3X2X    W.}.^.}.=Xr.7.].v.1X7X7X",
"Q.}.].Q.*XxX9X$.].;X*X>X2X<X'.'.d.h.b.e.,.<.q.s.K.,XD.P.K.| t t t t w & D.I.A z +     G.%X3X$X{.9.$      Xd. X'.b.k.].].XXoX,X+X",
"l.OX].,XXX@X/.$.XX;X$X|.*X*X'.].'.{.>X;._ ,.>.s.s.- v v v b b b b v v e = & & $ : :   @ ).%X%XX.$     3 u.3.y.p.[.q.z.OXOXk.z.n.",
"k.k.l.v.].=X/.6.|.*X*X=X&X X X'.*X,XdXG.q.6.6.j y v a e f I U R R v v v v g $ +   : - p = -.-Xc +   : 9.y.3.d.'.OXq.l.l.v.W.l.v.",
".X}.XX].OX7X^.o.d. X*X*X>X|.<X|.|.[.[.6.t.#.$ $ $ $ $ & & R R R R v v v v $ $ +   % v v v d $ o   > 9.{.L.y.W.W.|.0.l.[.].OXl.z.",
"Q.XXOXOXOX7X_.^ { { { %.F.$.o.{ ^ ^ 9.[ V $ - a a s $ $ $ i W R R v v v e a a w # $ - a v g & o O #X).K.3X{.'.L.}.@.3.v.c..XQ.l.",
"XXQ.XX}.v.b.+XQ.kXaX:XaXuX~.>X&X(.~.}.V & t n P n b a = $ - U U b v v v - v v w O $ $ $ $ $ + . - 1 ....G.8.} #.8.^ 4.k.v.l.OX].",
"1XOXoX}.k.=X/.P.-X-X-X-XkX&X,XXX2X6X~.$ a b R R R U b e $ g v v v v v v = f s % T X $ + X X + r v a $ 2 L.^.P.(.rX{ 2.5.k.v.XXQ.",
"@XOX=Xx.x.x.l.G.-X-X~.~.aXK.=X(.^.*XK.$ d v U R R Y v e $ v v v v v v v = p w O o + $ o L o O s v v y h h G.|.tXvX..l.z.OXQ.5Xr.",
"}.l.k.k.k..X`.J.%X$X#X^.*XK.,X;X&X*X$ $ g v v v b v p $ X = v v v v v v = & $ $ # O o $ $ > v v v v p p v k |.tXiX&.z.Q.Q.OX,X,X",
"XXl.k.4.4.8X!.J.%X%X%X&X;XE.2X>X|.| $ $ + t t = $ $ O X   + e v v f w $ & & 8 L - & $ $ + t v v v v p w f j h.'.XX%.].v.XX,X=X+X",
"r.q.z./.,XdXF.`.(.#X(.#X3XE.*X=Xj $ $ = $ X :             : e v v v s & $ $ $ o T W L $ : : $ $ $ # $ $ # 6 L.'.*X$.E.,XXX}.Q.^.",
"} o.{ ' ' _.F.F.J.G.e.e.8.H.~.k $ = h U - $ @       o # X : e f v v v a s $ + o @ O & :   $ $ $ o   o : @ d.}.].8Xo.$.o.} { `.{ ",
"E.fX7X5X1X1XXXOX}.<.W.Q.y.6.$ $ & e P W r $ @   # $ $ $ o : # e f v v v v f - $ o o + $ $ $ # o       @ {.{.$X$X2XE.E.~.!.w.>X&.",
"r.6XXX*X=X,XoXXXuXkXuXlXr.$ $ $ a v b U b $ @   # $ $ $ $ O : X = v v f v v p $ $ $ $ $ $ $ :         @ $X{.$X$X2XP.2XoX|.'.Q. .",
"t.XX,Xl.}.z.l.6XxXkXdXcX).$ $ p v v v h - $ @   # $ O   + $ O :   O $ $ $ O $ $ $ $ $ $ $ +         7 R.$X;X;X3X6X~.W.<X@XoX*X .",
"r.l.v.XXk.v.Q.l.:XiXwXkXl $ e f v v v e $ # o o # #     : X $ $ X     X   X $ $ $ #               X X.&X{.$X;X&X=XK.{.|.<XoX=X .",
"t.].,XXXz.<.z.^._.uXQ.) $ $ e v y y w $ & # N B @ $ + + +   : :     + :               . +         O x {.tX%X$X$X&XG.,X|.[.|.}.} ",
"t.Q.XX].E.>XaXkXiXQ.}.) $ $ $ $ $ $ $ $ & 5 s.) $ $ $ # $ #   : : . o $ $ #     # $ 1 2 & :       $ $ s.%X-X}.#X#X6.W.oX X|.*X%.",
"t.uXdXuX_.z.z.l.z.k.B $ $ $ $ $ $ $ $ O ..W.{.D.1 $ O X # $ o O $ @ @ : .   + ( 6.e.W.=XK.# o o $ $ $ ( { @.D.F.P.#.O.O.O.6.W.} ",
"_ k.OXl.XXpXdXiXkX$ = s v $ $ $ # * 0 &X2X<X9.: X # # +   O : : X : o k K.s.W.|.,X|.}.=X}.$ $ $ $ = s & a.'.=X<X2X6XOXv.b.n.n.o.",
"*.z.l./.,XrXxXkXxX$ e v v $ & O E.,X5XXXA : # $ $ O + X : : # $ $ u W.}.^.~.}.}.}.}.E.].P.& $ $ $ - v d = ^.K.d.].].i.d.p.p.b.{ ",
"%.:X:X_.uX5XuXkXdX$ e f v f - q.oX2X6XN   .   o O O $ O       :   W.W.{.}.|.|.^.}.}.E.].s.[.x $ $ $ e v e l (.y.p.n.i.y.3.p.b.{ ",
"Z.xXpXuXiXdXkXpXrX$ $ s v v p y.OX}.E.              : + :     + # x l.W.K.].}.^.E.$X|.|.;.c.f.$ $ $ e v v m eXL.>.2.x.p.2.i.n.{ ",
" .rXhXpXpXpXpXz.e.$ $ p v v p D l.}.                          + X   D y.q.W.s.e.s.r.e.E.@.a.l.f.< $ $ $ t m rX#X2.g.y.5.i.p.[.O.",
"+.:XjXhXpXiX0Xz.).).$ p v v p $ r.Q.      .                 o $     ^ p.u.s.8.$.e.!.9X0X).!.s.W.j $ $ $ $ $ $ 0.>.,.i.,.,.,.x.q.",
"q.'.=X>X=X7XgXpXhXhX) - f g w $ &X,X                          X       ,.b.[.u.tXaX6XtXlXeX*X[.@X@X7.$ $ $ $ $ D i.y.wX(.wX#Xi.<.",
"<.*XoX6X,X7X_./.(.(.W.F $ $ $ $ rXiXyX4 > .                       X   | 2.p.+.5.h.d.{.}.-XK.a.y.i.].u $ $ $ $ $ $  XwX:X:X^.p.( ",
"<.*X=X1X,X6X:X^./.E.2.2.; $ $ $ rXiXvXZ.6.#.                  + O p # z y.i.;.a.d.d.y.d.$X&XL.W.K. X*Xx $ $ $ $ $ | iXiXiXiXv.( ",
",.oXXX&X,X7X$X_.(.P.) $ $ $ $ $ W.|.cXF.r.}.{. XE.E.7 .   X + $ - v f e $ y.>.d. XW.d.L.W.{.&X&X).{.=XD $ $ $ $ $ u kXkXeXeX$X( ",
"<.*XG.O $ F s.E.(.r.$ $ $ $ $ $ q.s.,X$.t.W.l.W.*X!.t.* # $ $ $ f f s & $ d.7.s.~.#X{.{.~.|. X|. Xl.[.V $ $ $ $ $ $ X.eX#X:XuX{ ",
"` K.E.} A O $ $ $ D.e v v f - & $ #XtXw.o.$.6.t.s.e.$ $ $ $ $ $ y p & z | _ | ~.{.$X#X$X~.].{.K.c. X[.V O ; x $ $ - ..F.O.} 7.( ",
"^.dXzX,Xh.@X    : : e v v v p $ $ #X6X{.XX8X*X1X=X1 $ $ $ $ $ $ $ #   +.i.k.[ P.;X#X&X3X3X,X^.{.X.K K ~.6 6 .X[.5 9 9X!.rXiXsX0X",
"sXsXyXeX4X+X9X$.E.~.) & $ $ $ $ S H K.9.0.0.0.0.L.M M M 7 9 M < +   0 XX{.tXX.D.P.P.G.-.H H H H N.H H G.$Xs.p.y.9.;.{. Xc.*XsX2X",
"eXsXjXzX-X2X9X%.E.{.E.s.c.- ; = V.U.A.H N.H H H H H H H H N.H H H H H H H H H H H H H N.N.H H H Y.Y.U.).wX%Xy.h.[.p.~.=X'.L. XtX",
"{.$XiXeXzXsX9XD.^.~.#XH.s.W.s.;.1 U.U.U.Y.A.A.A.A.V.H H H H H H H H H H N.H H N.N.A.V.S.U.U.U.U.Y.U.T.^.eXeX{.<.5.x.{.2X;X;X*X{.",
"{.'.tXzXlXvXbX8.#X&X#X^.E.s.s.s.2 U.T.T.U.Y.U.U.Y.U.U.U.Y.Y.Y.V.N.N.N.K N.Y.Y.Y.Y.U.U.U.U.Y.T.M A.Y.I.;XlXsX%X2.3.>.y.'.|.|.;X2X",
"aXW.'.3XrXvXqX..8.G.w.w.G.@.O.{ B.S.S S.U.S.G G l U.U.U.Y.Y.B.9 S.U.Y.U.U.U.U.U.U.U.U.U.U.M G < S.A.A F.eX0X!.| ,.| ,.u.h.c.4X$X",
"tXaX%X[.eXvXvX{.,X>X*X$X_.w.r.G.X.< B.B.B.U.U.U.S J & J B.N.H S.U.B.S.B.< U.U.V.M U.U.V.B.# & & $ = [ F.F.F.%.#.&.Z 2.u.g.h.]. X",
"<X{.|.R.|.cX0X0.].[.|.L.7XsXlXxXkX$ $ $ * U.N.B.u $ & < * 1 X.B.U.1 N.$ $ U.B.& 1 1 1 = $ $ $ & $ dXaXfXxXuXfXgXgXZ.+.3.h.3.h. X",
"h.<X;X;X4XaX~.K.'.'. X=X3X~.;X}.,X$X].|.$XI.+ + + + @ @ ) | $ # & $ $ $ G $ $ $ $ & M $ $ 1 | | ^.&X,X5XwX>X:X5XdX`._ 3.3.u.h.c.",
"f.|.;X=X3X2Xs.a.d.L.'.3X2XK.W.d.'.].}.oX|.|.          D.OXQ.OX5X_.Q.& & # $ $ $ $ $ $ >.XXH.>X>X#XXX&XuXwX:X&X>XaXJ.:.3.3.3.h.h.",
"'. X|.$X3X7XK.L.|.{.'.}.aXa.d.'.L. X'.].*X'.        9 ~.XXXX5X,X6X_.,X5X_.>XH.-X-X^.i.p..Xt.&X>X&XXX&X,X:X5X-X&XkX/.| u.p.y.y.h.",
"a.y.f.d.{.>X8.e. X{.L.{.wXP.{.wX&X'.d.d.].*X, . . .   @.z.`.z.,X_././././.-X*.E._.(.p.p.i.r.,XuX,X-X&X>X_.>XwX:XuX/.| y.h.d.f.d.",
"C 0 0 0 N ..| } 8.$.$.w.8.(.sXiXaX&XoX}.}.|.#XK.}.^.w.E./.z.%.w.*.*.^ q q %.*.*.C.%.| +.+.e.^.&X^.>XuX:X>X>XuXaX6X/.0 Z N 0 C ^ "
};
