/* XPM */
static char *result[] = {
/* columns rows colors chars-per-pixel */
"64 64 234 2 ",
"   c #3C1F23",
".  c #461E1F",
"X  c #4C1E1D",
"o  c #5D1E17",
"O  c #551E1A",
"+  c #5A1E18",
"@  c #651E14",
"#  c #6C1E12",
"$  c #6D2317",
"%  c #752513",
"&  c #742A1B",
"*  c #782815",
"=  c #7A3417",
"-  c #6B311F",
";  c #421E20",
":  c #51342E",
">  c #4F2D29",
",  c #793525",
"<  c #73362B",
"1  c #5E4138",
"2  c #654537",
"3  c #724633",
"4  c #6C5A1E",
"5  c #623B40",
"6  c #725248",
"7  c #766847",
"8  c #842E15",
"9  c #8B3316",
"0  c #85361A",
"q  c #953A17",
"w  c #9B3E18",
"e  c #913616",
"r  c #813E29",
"t  c #934E14",
"y  c #A34218",
"u  c #AC491A",
"i  c #B54E1B",
"p  c #BB531C",
"a  c #B4511B",
"s  c #AE5519",
"d  c #88771B",
"f  c #84432B",
"g  c #89482D",
"h  c #864737",
"j  c #8C5439",
"k  c #94583A",
"l  c #944738",
"z  c #9C613B",
"x  c #C1571D",
"c  c #C25B1C",
"v  c #C5661C",
"b  c #C67135",
"n  c #8E5650",
"m  c #8D574B",
"M  c #826B4C",
"N  c #9C6946",
"B  c #8A7756",
"V  c #967C57",
"C  c #8F6F53",
"Z  c #A56C47",
"A  c #A7754D",
"S  c #A77C55",
"D  c #B07F54",
"F  c #9B6966",
"G  c #AB7278",
"H  c #A57B77",
"J  c #A36C72",
"K  c #D19019",
"L  c #DAA918",
"P  c #DFB817",
"I  c #E0BB17",
"U  c #E4C917",
"Y  c #E3C71F",
"T  c #E7D516",
"R  c #EFF613",
"E  c #EBE614",
"W  c #E5CA36",
"Q  c #E4C720",
"!  c #9A865B",
"~  c #948355",
"^  c #A6885B",
"/  c #B6895A",
"(  c #AB935D",
")  c #B8985E",
"_  c #9A8964",
"`  c #8D8265",
"'  c #B88C62",
"]  c #A89568",
"[  c #B49C6B",
"{  c #B89965",
"}  c #AA9A71",
"|  c #B69E73",
" . c #A88873",
".. c #BCA365",
"X. c #B5A26C",
"o. c #BCA46E",
"O. c #BBA66A",
"+. c #B6A374",
"@. c #BBA574",
"#. c #BDAA73",
"$. c #BDAB7C",
"%. c #B6A67A",
"&. c #B8AB79",
"*. c #C79C68",
"=. c #C3A46C",
"-. c #CBAD6A",
";. c #C7A866",
":. c #CDB26D",
">. c #D3B36C",
",. c #DAB46D",
"<. c #D6B96E",
"1. c #D9B86D",
"2. c #C2AB74",
"3. c #C2AD7C",
"4. c #CAAC76",
"5. c #C5B275",
"6. c #CDB473",
"7. c #C4B27C",
"8. c #CBB57C",
"9. c #CEBA7C",
"0. c #C6B87B",
"q. c #D3B473",
"w. c #DAB671",
"e. c #D6BA72",
"r. c #DBBC74",
"t. c #D2B47A",
"y. c #D4BB7C",
"u. c #DBBD7B",
"i. c #D9B67C",
"p. c #D5AD6A",
"a. c #E1BD75",
"s. c #E2BF78",
"d. c #E8CD59",
"f. c #DCC175",
"g. c #DCC27C",
"h. c #D7C17B",
"j. c #E3C375",
"k. c #E3C47C",
"l. c #E5C97D",
"z. c #EACB7E",
"x. c #EACA77",
"c. c #EBD274",
"v. c #DBC242",
"b. c #A9A319",
"n. c #AF7B81",
"m. c #B38587",
"M. c #B89498",
"N. c #B48D90",
"B. c #BCB187",
"V. c #BB9FA0",
"C. c #BDA4A4",
"Z. c #C5B483",
"A. c #CCBB82",
"S. c #C9B886",
"D. c #D4BC82",
"F. c #DBBE82",
"G. c #D3BE8B",
"H. c #D4B287",
"J. c #CAB68E",
"K. c #C2AAAD",
"L. c #C4AEB1",
"P. c #C6B1B5",
"I. c #C8B5B8",
"U. c #D0AA81",
"Y. c #CCC28A",
"T. c #D4C285",
"R. c #DCC483",
"E. c #DECA84",
"W. c #D5C38B",
"Q. c #DBC48B",
"!. c #DCCA8C",
"~. c #D6CB8E",
"^. c #D4C592",
"/. c #DCCC93",
"(. c #D8CA97",
"). c #DDD193",
"_. c #D7D088",
"`. c #E3C483",
"'. c #E4CB84",
"]. c #EACB85",
"[. c #E2C68A",
"{. c #E4CB8B",
"}. c #EACD8B",
"|. c #E8C785",
" X c #EBD285",
".X c #E5D18C",
"XX c #EBD38D",
"oX c #EBD78B",
"OX c #F2D58D",
"+X c #F2D988",
"@X c #E3CD92",
"#X c #E9CE92",
"$X c #E5D394",
"%X c #EBD493",
"&X c #ECDA94",
"*X c #E4D49A",
"=X c #ECD59A",
"-X c #E6D99B",
";X c #ECDB9B",
":X c #E7D995",
">X c #F1D594",
",X c #F2DC94",
"<X c #F2DC9B",
"1X c #F5D998",
"2X c #F1CF93",
"3X c #EEE09C",
"4X c #F3E39C",
"5X c #F7E598",
"6X c #F4E18E",
"7X c #D7CDA4",
"8X c #DDD3A6",
"9X c #DFD9BB",
"0X c #EBDCA3",
"qX c #EBDEAA",
"wX c #E5D9A6",
"eX c #F2DEA4",
"rX c #E8DDB2",
"tX c #EDE2A4",
"yX c #EDE3AC",
"uX c #E7E0AD",
"iX c #F3E4A3",
"pX c #F8EAA4",
"aX c #F1E5AD",
"sX c #F4EAAC",
"dX c #F8EBA7",
"fX c #F9F2AC",
"gX c #EDE5B4",
"hX c #E9E4BA",
"jX c #F3EBB3",
"kX c #F6EDBA",
"lX c #F3E6B3",
"zX c #F9F4B4",
"xX c #F6EFC9",
"cX c #DAD4C2",
/* pixels */
"Z.jX#X{.Q.{.:X5XfXfXfXzX:XY.wXeXeX{.%X,X=X<X<X}.1XpXoX,X5X4XfXgXW.tXeXiXG.[.2X8.> # ^ OX=.O.:XiXdX*X;X4XW./.).;XpXsXF.2X|.F.s.@X",
"^ l.'.'.oXoX'.oX5XoXoX5X.XY.%XXX'.|.|.=X>X%X%X%X4X;Xy.z.k.r.]..X$.R.|.#X>X}.}.|.`.u./ ].q.7.!.$X:X*X:XiXtXtX-X:XsX).w.w.,.,.j.1X",
"V <.f.r.f.'.g.! X 3 '.6X.X3.u.l.k.{.|..X{.&X|.}.5X{.u.f.].k.`.{.Z.=X}.[.|.}.#XF.u.`.|.OXi.S.$X;X;X$X/.$X=X0X;X-X-XY.j.,.,.,.a.+X",
"B f.f.j.g. X5.. @ oXE. X X2 -.q.f.`.R.%X%X=X%XQ.XX{.u.{.XX}.'..X@.`.}.}.[.|.|.}.`.: ' 1XR.A.@X-X:X=X$X).~.:X;X3X3X/.-.,.,.p.a.6X",
"! f.e.e.f. X0.~ oX<X{.e.O.  ] -Xu.g.|.{.{.{.@X@X&XR.5.oX].>X{.:X2.[.|.|.|.|.`.`.2 3 |.1X3.] +.@X$X$X:X:X@X$X%X&XtXY.p.>.a.,.,.].",
"~ e.c.l.f.<.f.c.E.&X      2 W.~.y.6.=.@.@.#.@.[ D.Q.[ 6.y.g.Q.W.2.}.2XF.`.`.`.`.k f |. .: 7.  Z.~.T.Z.  A.y.~.T.T.Z.u.q.,.a.s.OX",
"! f.f.f.g.f.g.f.f.      y.{ ' *./ / *.y.g.,XpXfXfX1XXXQ.R.E.3XtX| F.`.|.`.`.|.|.|.F.}.#XaX    S.-X!._   O #.$.0.W.0.4.o.+.+.2.o.",
"~ >.1.j.f.<.f.f.e.    O # # , k % # # # g.].oXOX}.,X.X$XoX&X5XtX| |.|.|.|.`.s.|.`.}.{.1X=X      y.f.c./ k tX&X&X3XsX:X:X3X<XdX1X",
"7 f.f.f.f.f.>.f.f.    X # y.R.=.$ # # # # |.'.'.oX%X:XE.g.`.z.) m [.F.`.`.|.`.|.|.}.`.}.Q.u.(     X ;.r.Q.=X*XR.E.<X0X$X%X@X=X5X",
"~ :.:.f.1.f.>.<.f.g.~ ^ $X{.t.# 8 8 # # # @X{.}.OXg.k.l.e.<.1.j.Z # Z }.[.|.2X|.[.[.[.l 4.F.j.j.g # Z :.T.Q.#X*X{.!.:X%X;X=X=XfX",
"~ :.f.f.<.>.<.<.<.f.l.6XT.q.=.# i x p 9 # Z &X&X.X:Xg.'.g.f.1.j.[ F.# < 2 [.2X[.}.[.2XeXf % *.l.g # # = f g s F.R.{.Q.Q.$X<X3XzX",
"~ O.:.:.:.;.5.-.;.-.0.l.5.Z.=.u p K K v x e Z XX&X&X'.].g.k.x.l.[ 8.*.# ; : [.#X[.[.F.#X{ # # p.f # * u x # 8 p.w.}.*X{.{.:X=XzX",
"X.h.f.f.h.T.5.X.5.5.0.A.9.B.S.K U U U U U x y F.>X.X&XXX'.'.f. Xy.`.E./       } U.%.3.S.3.# # -.f % c c c % c x c b &X%XR.R.#XpX",
"] (.tX-XyXsX;XXX,X,X,X&X+X5Xc.U U T E U U P x u.,X%X{.{.].oXXX].y.XX'.}.q.O   B 0X#X|.1X1X>X+   @ % v P v K L L c b e.R.{.$X.XXX",
"` gXyXuXgXlXrXR. X].XX'.k.'. XU U R R R U I p.%X4X<X&X.XE..X'.'.6.k.'.}.[.@     [.[.i.i.g.u.+   =Xv U U U U U U U b g.q.`.'.$X*X",
"` hXjXgXgXhXrX;.z.].|.}.'.'.z.U U R R R U U d.}.&X,X;X&X{.&XoX.Xt.g.`.%X>X@     q.`.|.`.|.Q.+   u.j.U U R R R T U b R.:.>.f.=XhX",
"_ yXyXqXgXkX8X;.s.k.].}.}.}.#Xx.Y E T U U Y c.%X&X;X&X,X%X.XXX).9.}.Q.}.#X@     t.F.|.F.[.[.O   [.>Xv.U E R R T U W oXy.6.>.f.iX",
"B T.-XwXyXgX8X=.,.r.z.OX{.%X>X>XW U U U U W $X$X%X/.$X{..X{.oXE.5.{.|.|.g ;     F.F.#X@X[.#XO   F.%X+XU U T U U U W .X{.D.y.g.l.",
"! @.8.G.^.wXB.O.{.`.{.<X;XR.}.XX Xk.d.d.Y.).~.!.;X9.7.8.9.9.T.T.[ -.F.S #     7 #X[.[.#X@XU.    @X%XiXO.Q U U v.0.o.X.o.X.o.9.:X",
"XX:X'.l.,XjX7X2.R.g.XX.X;X*X|.`.l.k.+Xs..X;X:X;XiX%X$XeX3X&X+X4XoX X`.& ;     U.=X#X{.#Xm @     %XeX<XR.E.{.Q.{.&X6.6.'.'.,XiX5X",
"E.!.'.E.%XkX7X#.|.=X%X;X<X>X`.`.u.s.z.8.;.-./ { { =.w w q q 8 # # *./ # ;   ; @ ' =X*X' #     S [.=X;Xu.].g.|.`.z.f.E.l. XoX:XOX",
"g. X.X&X.X+X~.#.{.;X%X}.%XXX{.|.`.Q.=X2...* c p c c x c c x x x * # # O ; ; e x * g 4.# ;   O G.Q.@X=XH.r.>.>.u.].6.h.oX Xg.f.l.",
"f.f.l.g.{.oX~.2.|.%X%X,X$X|.`.`.%X' { S & 9 9 9 p K L U U x x x x # # o ; @ x x x i # X   < *X*X#X=XwXG.p.w.u.`..Xt.R.g. Xg.f.g.",
".X'..X'..X5X_.o.R.|.%X%X=X{.%X}.r % q x x p % # # U U U U x x x % x x 9 # # # q i u # ; j 0X0X-X@X=X@XF.F.q.`.R.{.6.g.l.'..XE.g.",
"'..XoXoX&X,X)._ ] ] ] $.Z.2.] , # s L L L x p 8 # t T U U x x x % x c = X # # # # # +   T.A.~.W.G.#X/.G.1X`.`.F.|.@.<.l.l. X'.g.",
".XE..X'.k.c.oXE.sXpX;XiXtXQ.`.# i v U U U P x 9 # * L L v x x x % x t O b.; # X 4 ; + - 8 , _ _ V } Z.+.S.3.[ +.3.! <.f.j.g..XE.",
"+X&XXX'.k.&X!.G.*X*X*X@XsX$Xg.# i x K U U P x 9 # i p x x x x x % % % # @ @ # X > @ - p x $ & f.[.#XqX^.Q.Q.G.Q.qX] -.<.f.'..XE.",
"OXXXoXl.g.j.f.S.=X*XQ./.iX9.$ # q x x u w w 9 o . x x x x x x x % # 9 = # @ o # # > x x x q K t / s.`.(.(.}.2XeXxX| g.g.oXE.3Xh.",
"E.R.f.f.f. XW.S.@X@X@XQ.%X# # # ; # # # # # +     % x x x x x x % # o b.= # # # ; p x x c p t U * ,.r.`.<X#X}.eXuX%.f._.g..X3X.X",
".Xg.h.e.<.6X~.S./.*X#X*X%X# * y # + X             O 9 x x p 8 # 9 @ o o d d t @ 0 x x x x 9 * i c f u.p.s.r.r.`.oX$.E.l..X:X&X6X",
"9.6.h._.:XsXZ.Y./.@X[.@Xh % K U = # # X       ;   . 9 x x x y # # @ ;   o o O t i i w # # @ # w p f }.`.F.`.R.`.oX@.E.:X.X'.E.E.",
"[ X.] _ _ ).B.0.S.Z.Z.8.f % v U s # # O   ; o @ .   9 p x x x i y # # @           # # # X   O # 8 3 k.|.`.'.|.`.,X@.#.X.} ] Y.} ",
"T.pX4X3X,X;X.X X'.6.F.`., 9 c K v # # X   # # # X . @ e p x x c c i % # # # # # # # # ; ;         2 `.|.`.[.#X#X1XW.T.Q.W.7.3X&.",
"6.4X.X&X&X:XoX.XtXlXaX| # x x v c # # X   # # # # o   . * x x p c c w # # # # # # @           ; o [.[.2X#X#X#X%X;XD.<XXX}.`.E.] ",
"5..X.XE.'.g.l.3XkXjXsXS # c x x y # @ . @ # +   O # o .   o # # # + # # # # # # # O           ; D %X}.[.#X#X#X<XiXQ.`.>X>XXX%X} ",
"9.g.'.'.l.g.E.g.;XyXQ.# # x x x % # +   # @       . # # ;   .   . . # # # @ . .               2.`.#X%X*X@X#X=X#X%XD.Q.}.OXXX&X} ",
"0..X&X'.f.:.h.!.$XtX# # # * i * # $ M m O # O O O   . .     O .                 O         ; o q.{.}.Q.@XiX@X#X#X%X8.%X}.|.}.}.} ",
"5.E._..XT.;XtXjXyXg.# # # # # # : 3 |.^ # # # @ # @     .   X @ # @   ; @ # & # ;         # % t.[.Q.@X@X*X*X@X@X@X3.R.XX|..XoX$.",
"5.yXdXsX).h.g.R.h.# # # # # N 8.oX&X&Xy., # + X @ # X + $ + + X     + ] 7.y.t.X         O # / 2X%X*XH.[ ] | B.Z.G.%.o.@.O.2.R.[ ",
"..f.l.g.$X0XsXuXjX# # # # * $ { .X).~.    @ @ O   o   . . ; X 3 7.@X`.$XD.y.4.O ;     + # g OX XXXOXdXz.F.`.>XOX,X4X Xz.].x.x.X.",
"X.h.g.~.:X0XzXkXzXwX# # y p e # Z A j X     . .   ; @ # # h uX^.X.}.{.|.!.~.q.# # @ @ @ # s.].XX>X{.iXD.[.Q.D.s.'.l.y.r.r.r.z.] ",
"&.-X-X).tX-XtXjXsXyX# y x x u % #   o @ # .             ; : .X(.X.R.Q.{.{.{.R.f # # # # # ].|.{.XX].+XQ.*X0X^.q.w.z.e.>.w.w.z.] ",
"B.kXyXtXgXsXsXuX0X{.# % a x x p % o     @ @               8.u.6.[ 6.f.R.F.|.@X/ # # # # { l.].}.j.OXaXwXN.*.G H.-.p.j.j.>.w.l.] ",
"} uXgXuXtXuXwXT.5.2.) # # y x x q # X     # .         + $ 4.t.W.[ 6.6.q.4.F.y.S # # # Z @.t.`.[.u.i.U.G G n.M.^.<.-.w.1.e.f.z.o.",
"{ 0XxXuXuXgX).Y.^.^.(.( # # 9 x x # +     # +         + ; ; @ @ O.r.f.f.r.y.2.@., $ # J.(.W.i.U.G G G G G I.I.I.;.;.y.;.;.;.j.5.",
"e.g.$X<X&X5XfXuXgXlX.Xr.= # 9 x x i # X   # +       ; @ ;       X O j / z.].a.eXj % w l J.H.G G G G n.M.P.I.I.I.y.e.0X@X0X$Xe.:.",
":.%XXX4X&X4X:X~.(.(.R.-.>.# # w i # # X   . +       O # ;             O @ w.{ ,.u.G G G G G G n.n.I.I.I.L.& I.n =X|.0X*X-X~.a.^ ",
"-.oX&X&X%X4X:X~./.D.q.<.-.@ + # # # # X   . @ . ; ; ; O                 6 F F G G G G G G G n.P.I.I.I.H m , N., 0X$XtXyXlXtXl.^ ",
"-..X.X3X4X5X$X/./.R.-.:.-.# + + # # # # X M N Z N N N : X     > : 5 G G G G G G G G G n.m.I.I.I.I.I.I.n H # # # lXaXzXlXqXqX.X^ ",
":.=X{.{.{.}.y.W.(.8.t.q.:.# + . # # # # # Z F.`.XXT.{.*Xr - F J n.G G G G G G G G K.K.P.I.I.I.I.I.C.< & # # # 4.wXyXqXwX/.=XyX] ",
"( A.T.5.q.f.] O.$X*XD.y.0.A + + 9 9 w y % = @.Z.U.Z.$.| H G G G G G G n.N.M.I.I.I.I.V.V.I.I.H H I.J # # $ ^ =.6.Q.G.B.S.O.[ -.^ ",
"!.sXlX-Xs.+XO.3.y.{.R.9.W.Q.+ + i x x x % # *  .H G G G G G G G G P.P.P.P.K.n I.I.I.H $ C.C.$ % & # # # y.|. X].,X;X8XW.wXgXqXwX",
"aXlXrXyX#X,X7X@.3 # # $ # # @ @ 9 q q * # $ m P.I.M.M.M.M.M.P.I.I.I.I.I.I.n n I.I.F m # V.n $ # # F *.y.%Xy.r.k.XXl.{.|.k.%XsXeX",
"qXaXgXlX*X4X7X$.T.: : : :   X # # # $ # # g ;.$ K.I.I.I.I.I.P.L.P.C.# G L.K.I.L.K.# # # # # & H.{.|.}.^.0X*Xw.r.z.r.Q.%X[.u.`.eX",
"|.#XqXrXlXeX7XZ.Q.~./.D./ # # # #     @ # j.6.k V.K.H P.I.L.N.M.n n # h $ & h # # # # ' H.y.#X#X@XQ.}.D.wXqX[.:.a.r.[.eX<X=X#X|.",
"[.`.eXlXkXxXcX3.{.$X@XQ.f # # # .   X , R.'.'.{ K.m.F P.I.I.K.K.M.# # # # & h 3.@X*X=X@X@X@X1X*X%X{.|.wXkXaX*Xp.,.-.q.|.|.}.#XeX",
"eXR.[.1XrXxXrX} 3.9.7.S # # # O     N ( 0.@.y.9.m $ 3 h h K., , $ # @ ; # h $.+.3.$.3.S.3.3.3.3.Z.Z.2.B.rX8XW...;.) ;.,.s.k.2X#X",
"eXeX#X].qXxXxX[.&X;X@X' # # @ .   O =.-.Y.S.@.| @._ Z D D / y.# # O ; ; # fX~.9.2.] _ %.Z.Z.%.| } ] +.Z.Z.Z.%.+.+.B >.w.>.s.|.|.",
">X[.}.F.|.xX7Xy.{.`.u.& # # o     j k.<X.X4XpXdX5Xl.O.g.'..Xh.# ; ; ; # .X:XT.g.e.y.-.&XpX;XiXiXiXfXpXdXjXiXdXfXjXB.;.,.a.,.j.`.",
"s.%X=X=X2XiX^.F.`.`./ # # @     ' XX`.XX{.%X%X}.,XE.5.E..X&X# o ; ; # S 3XtXS.y.g.!.w.f.}.D.oX{.!.%X:X4X-X;X;X3XsXY.) 1.,.w.s.k.",
"s.}.1X%X<X,XD.t.F.F.# # ;     =.`.].{..X{.}.}.E.].{.2.g..X'.# X   # $ E.tXsX$.9.~.R.>.f.'.Y.;X=X@X.X.XiX0X-X$X;XsXS.;.,.,.,.a.a.",
"F.|.}.#X1X1Xy.F.|.# # # .     3.R.}.`.'.%X`.%X{.,X$X0.E._.          O $ $ 7.Y.$X*X{.1.f. X5.$X;X@X$X$X;X;X3X$X*XsX/.) r.a.q.w.s.",
"t.q.u.u.#X;X2.U.}.r # # #         : u.g.|.&X$X|.5X:X#.T.Y.1                 @ O.(.).r.r.e.9.:XtX:X$X$X-X).;XtX-X3X~.{ 6.j.r.i.y.",
"C 7 7 7 7 | [ [ 2.3.[ =.| G.wX/.*XQ.{.|.[.}.@X{.6X3XT.$XY.h.X.X.] ] ` 7 7 +._ ] B.&.) =...0.).$X!.-XtX;X-X;XiXtXtX~.7 B M 7 C ! "
};
