/* XPM */
static char *result[] = {
/* columns rows colors chars-per-pixel */
"64 64 242 2 ",
"   c #3F102A",
".  c #381435",
"X  c #2D133B",
"o  c #44132B",
"O  c #4C1A2D",
"+  c #48172D",
"@  c #511E2E",
"#  c #491C33",
"$  c #531F32",
"%  c #55212F",
"&  c #542332",
"*  c #5C2533",
"=  c #5B2936",
"-  c #542A39",
";  c #622A36",
":  c #632B39",
">  c #692E3B",
",  c #6D323D",
"<  c #67383D",
"1  c #71353E",
"2  c #13134F",
"3  c #1C1347",
"4  c #191857",
"5  c #251646",
"6  c #371D46",
"7  c #2C1755",
"8  c #2B2756",
"9  c #3B2B4F",
"0  c #291C6D",
"q  c #231865",
"w  c #1D2767",
"e  c #1F3670",
"r  c #272672",
"t  c #253579",
"y  c #30356B",
"u  c #19205F",
"i  c #4C3451",
"p  c #713440",
"a  c #7A3C43",
"s  c #643940",
"d  c #453E6A",
"f  c #22437A",
"g  c #3C4676",
"h  c #51495C",
"j  c #774847",
"k  c #77534F",
"l  c #786647",
"z  c #544C64",
"x  c #595565",
"c  c #47486E",
"v  c #695C63",
"b  c #766B6C",
"n  c #5E6B78",
"m  c #834246",
"M  c #8D494B",
"N  c #864549",
"B  c #934E4E",
"V  c #94524E",
"C  c #9D5652",
"Z  c #9E5F53",
"A  c #8C514D",
"S  c #A25C54",
"D  c #8C7154",
"F  c #AA785B",
"G  c #AE6C5A",
"H  c #8D7B6B",
"J  c #B97A61",
"K  c #9A8758",
"L  c #A48A5C",
"P  c #B0925E",
"I  c #96886D",
"U  c #A99768",
"Y  c #B59B67",
"T  c #AA9976",
"R  c #B29C71",
"E  c #B08868",
"W  c #BBA46D",
"Q  c #B7A369",
"!  c #BBA574",
"~  c #BDAA74",
"^  c #BCAB7B",
"/  c #B5A476",
"(  c #AEA473",
")  c #C38B66",
"_  c #CA926A",
"`  c #C79866",
"'  c #C19F72",
"]  c #CBAD6A",
"[  c #C6A866",
"{  c #D6AC6E",
"}  c #CDB26D",
"|  c #CFB066",
" . c #D3B46C",
".. c #DAB46D",
"X. c #D8BA6E",
"o. c #C2AE7C",
"O. c #C4AA73",
"+. c #CDB474",
"@. c #C4B37C",
"#. c #CCB57B",
"$. c #C9B679",
"%. c #D6BA73",
"&. c #DBBD73",
"*. c #D4BB7C",
"=. c #DBBD7B",
"-. c #D4B576",
";. c #E2BD76",
":. c #DCC176",
">. c #DCC37C",
",. c #D8C27C",
"<. c #E3C474",
"1. c #E2C57B",
"2. c #E4CA7D",
"3. c #E9CB7B",
"4. c #F1D17E",
"5. c #293E84",
"6. c #2D3781",
"7. c #2A4788",
"8. c #30478D",
"9. c #2E4A92",
"0. c #314C93",
"q. c #335A9B",
"w. c #32529A",
"e. c #31588B",
"r. c #346699",
"t. c #365CA5",
"y. c #375BA6",
"u. c #3962AC",
"i. c #3469A5",
"p. c #3579AC",
"a. c #3B66B3",
"s. c #3C6CB4",
"d. c #3B77B8",
"f. c #4B6F8F",
"g. c #4476B5",
"h. c #747C8E",
"j. c #3A87BB",
"k. c #3889B5",
"l. c #5697B4",
"z. c #488AB2",
"x. c #728DAA",
"c. c #54A5B9",
"v. c #6694A4",
"b. c #71D4B3",
"n. c #3B8EC0",
"m. c #3C9AC4",
"M. c #3B93C2",
"N. c #3FA0C7",
"B. c #439AC5",
"V. c #4B8AC1",
"C. c #4BADCD",
"Z. c #45A4C8",
"A. c #4EB6D1",
"S. c #54BBD3",
"D. c #5BB8D2",
"F. c #52B0CA",
"G. c #6CA3CC",
"H. c #5BCCDB",
"J. c #58C6D6",
"K. c #66C9D9",
"L. c #68D2DD",
"P. c #76D4DC",
"I. c #6CCCCE",
"U. c #78D9E1",
"Y. c #7DE0E4",
"T. c #938E82",
"R. c #BCAD82",
"E. c #BEB38A",
"W. c #94A4A0",
"Q. c #C4B383",
"!. c #CAB986",
"~. c #D3BD83",
"^. c #D8BD85",
"/. c #C6B58B",
"(. c #D5C285",
"). c #DCC483",
"_. c #DEC985",
"`. c #D4C38A",
"'. c #DBC58A",
"]. c #DDCA8C",
"[. c #D6C98E",
"{. c #DAC993",
"}. c #DED195",
"|. c #CAC28F",
" X c #E3C484",
".X c #E4CB84",
"XX c #E9CB84",
"oX c #E3CC8C",
"OX c #E9CD8B",
"+X c #E3C68A",
"@X c #E5D18C",
"#X c #EBD38D",
"$X c #EAD488",
"%X c #F3D789",
"&X c #E3CE92",
"*X c #E8CE93",
"=X c #E5D393",
"-X c #EAD493",
";X c #ECDA94",
":X c #E5D49A",
">X c #EBD699",
",X c #EBDB9B",
"<X c #E6D99A",
"1X c #F2DC94",
"2X c #F2DC9B",
"3X c #F2D695",
"4X c #F1CF93",
"5X c #EEE19B",
"6X c #F3E29D",
"7X c #F7E599",
"8X c #F4E18E",
"9X c #D9CFA8",
"0X c #EBDDA3",
"qX c #E8DBA8",
"wX c #F2DEA4",
"eX c #E8DDB2",
"rX c #EDE2AC",
"tX c #EDE2A4",
"yX c #F3E4A3",
"uX c #F5E9A9",
"iX c #ECE5B5",
"pX c #F4EAB5",
"aX c #FAF3B0",
"sX c #88B0CD",
"dX c #89DCD4",
"fX c #8DD2CD",
"gX c #9DE5D1",
"hX c #B6EECB",
"jX c #B9EDCE",
"kX c #A5EBD6",
"lX c #ABE9CD",
"zX c #8ADDE4",
"xX c #8CE9E8",
"cX c #85E4E5",
"vX c #99E9E9",
"bX c #AFE6EB",
"nX c #B8D6E0",
"mX c #C9E9DB",
"MX c #F6F0C8",
"NX c #C5EAED",
"BX c #CDEBF0",
"VX c #D4DACC",
/* pixels */
"!.pX*X+X[.@X@X7XaXaXaXaX<X|.<XtXwXoX=X3X>X2X2XOX2XuX$X8X7XG.NXiX^.rXwXwX^.+X4X3XwX3X3.4.` ~ <XyXuX<X;X6X`.}.}.<XaXuX X4XXX X=.+X",
"L 1.3..X$X;X@X$X8X$X$X7X$X|.=X#X XXXoX4X3X-X#X>X2X2X*.XX1.vXBX Xo.^.+X&X>X*X*XXXXX+XOX4X .@.].=X=X<X=XyX5XtX:X=XuX}.....{ { <.7X",
"K  .:.&.:.2.,.,..X,..X8X@XO.=.2.1.oXoXOXOX-XoXOX7X@X=.:. XBX}._.Q.x.vX{.+X4XOX X;. XXX4X=.!.&X,X<X=X=X}.<X,X,X<X<X(.1.......;.%X",
"D :.:.1.,.$X,.@X@X;X.X4.2.Y ] -.1. X=.=X=X3X-X X{.oX=..XW.vX9X=X! x.vX*X X X+XXX X+XXX3X'.!.=X=X,X:X=X=X[.<X,X5XtX{.]  .....;.8X",
"K ,.:.:.:.2.2.@X$X6X$X3.$X@.=X<X*.1.oXoXoXoX&XoXnX;.+.#XW.g.|.:XO.x.xX9X+XXX X X'.'.+X2X=X@.].<X=X=X@X<X}.@X;X5XtX~. .{ ..;.{ 4.",
"K %.3.:.:.:.:.2._.5X@X>.4.^ '.[.-.] [ ! ! ~ ! Q VX].U R.n.d.E.(.O.z xX^. X;. X XE.=.+X4X=X@.[.].`.`.}.}.(.,.].(.`.@.=. ...;.=.%X",
"K :.X.:.:.:.2.:.:..X5X;X8X0X;X5X#X%X7X).>.1XuXaXBX7X$X|.A.D.h.qX' v.zX/. X XXX4XmX4XOX3XuX_.].@X,X].(.~ / ~ ^ ^ `.@.@.~ / W O.R ",
"K | :.:.:.} :.<.:.3.6X5X;X).oXoXoX*X6XoX$XXX@X%Xd %XoXV.H.D.6.qXE p.D.^.OX X;.zXbXOX+X2X>X>.2.2._.<.%X_.<XtX;X;X5XuX=X-X6X6XuX2X",
"l :.:.:.:.:.| :.:.:.$X5X5X(._._.).oX#X).).oX.XoX8 :X/.z.J.Z.t ;Xb Z.S.t ^. Xv.P.+XOX*X3X_..X&.&.<.<.2.:.`.-X<X)._.2X0X-X>X&X-X7X",
"K } } %.:.:.| X.:.>..X5X}..X_._.-..X#X).oX@XoXoXw |.8 d.m.S.t z e S.J.f +Xc u.W.^.OX>X3X'..X<.<.:.<.<.| ).].=X-X].].:X=X>X>X-XaX",
"K ~ :.:.X.|  .X.X.:.2.8X(.+.=.,.%. .3.$.=X-X;Xb e.r.2 g.Z.C.8.w 7.n.Z.e ^.9.S.z./.*X4XwX{.#XXX2.2.X.<.| ).'.oX+X'.oX'._.-X2XtXaX",
"K Q } } } | $.[ W | } .X$.Q.+.^.} | 1.W @XoXoXc 7.c.k.V.A.M.a.a.a.a.a.0.9.B.A.p.v I ^.4X'..X>.2.<.<.<.+.*X)..X=X X#X:XoXoX<X-XaX",
"( :.:.%.,.(.@.W O.$.$.!.$.E.|.{.[ [  .Q T.4 4 5.e.J.H.d.m.B.H.H.H.H.H.H.s.n.B.Z.J.D.4 u Q.$.$.,.=.[ | Q &XoX,..X'.%.;X-X).).=XyX",
"U }.0X<XrXuX;X#X8X1X8X-X8X8X1X/.e.f f e.c.D.D.L.p.V.A.a.a.d.H.H.Y.U.K.cXxXL.H.C.C.m.Z.A.7.7.E.E.@..X%.Q !.oX).=..XoX%.).&X=X#X#X",
"I iXrXrXiXpXeX^.$XXX$XXX;.I c k.D.cXcXcXbXNXNXNXbXa.m.d.a.J.K.zXxXxXY.L.K.H.H.S.B.m.J.J.J.J.k.p.y.T.-X~ '.&X=X).>. X,.%. XoX=X:X",
"I iXpXiXiXiXeX[ XXXX X^.e k.C.L.xXvXbXBXBXBXBXBXnXa.a.a.s.L.U.zXvXNXbXU.U.P.P.L.H.H.H.H.H.J.k.w.4 3 Q.R.=X'.oX).(.=.).}  .:.-XiX",
"I tXrXrXiXpX9X[ ;.1.z 5.S.J.xXvXbXBXNXBXBXBXBXBXV.a.a.a.a.V.K.vXbXBXBXBXBXBXBXNXbXbXbXvXZ.B.w 6 s : * D oX*X-X].].'.=X*.} | >.6X",
"D $.<XqXrXiX9X[ *.q sXNXH.H.H.xXxXvXxXhXhXNXsXu.* * * % * * c y.xXbXBXBXBXBXNXNXNXBXzXJ.m.s.3 > B _ A s &X'.oX=X].oXoXoX^.*.,..X",
"K / $.`.|.eXE.[ H s.bXL.H.P.dXP.Y.kXkXhXjXG.d @ p N N N N m > ; v.bXBXNXmXjXgXdXfXJ.J.m.k.8 $ M G _ _ O R ^.#.#.@.~ Q W Q W #.-X",
"@X;X.X.X2XpX{./ W.S.K.H.H.gXjXdXH.L.gXhXsX# , ; p J ) C C M + * i fXjXjXjXjXhXhXdXJ.m.m.7 $ B C , : : $ < @X].+X;X-.+.XX2.1XuX7X",
"_.]._._.#XpX9Xw G.L.H.H.P.jXjXdXH.H.U.fXi J G * p _ _ _ V o 1 G G c jXjXhXhXgXH.H.A.m.k.X @ S 1 1 V ) ) 1 ] OX X2.:.>.$X$X@X#X8X",
">.$X$X;X@X%XI g.P.H.H.U.cXlXhXK.H.H.U.P.1 [ E O o j A s O + ; .._ > hXdXhXhXgXH.H.m.m.7.o $ C ; M G { ..J : P &.XX%.,.$X$X>.>.2.",
"&.:.>.2.oX8Xx z.vXJ.H.Y.xXxXJ.H.H.H.H.fXm ... 6 s v   T.N o + S S ; H.H.H.lXlXdXm.m.i.2 o $ $ M G <.<.<..._ Z ).OX#.>.,..X>.>.>.",
"$XoX@X.X@X6Xz g.H.H.L.K.K.l.z.B.H.H.H.l.j J 9 . j @   m M   i { Z n H.H.H.dXH.m.i.i.5.4 o O : B E ) ) ` { _ j -.OX+.>..X.X$X>.>.",
".X@X$X@X#X8Xx 7.t.q.u.J.B.t 5.d.m.H.H.S.y C 1 y O :   a o i.h ; n J.J.gXlXv.e.w.a.5.5.4   O p p C C C _ _ _ Z -.oX!  .2..XXX.X>.",
"$X).$XoX1.4.x 5.y.q.q.a.w.6.g.B.m.d.V.H.v.  1 g t.i h f.H.c i x H.I.fXsXW.f u.a.s.M.y.0 .   + s m N N M F a : ( o.K X.&.1.1.@X_.",
"%X;X-X_.1.-Xx 5.w.g.l.t.y.0 a.s.d.a.9.i.H.c.f.  i F.H.H.H.c.J.I.b.l.i.u.y.y.u.j.d.d.a.r 4 .   + m N B ` Y [ J A qXU | %.:..X$X_.",
"%X%X$X2.<.<.z 8.s.B.xXg.y.r 0 a.a.M.r.9.7.F.S.S.H.H.H.H.H.J.I.b.c.J.D.g.g.s.M.k.5.a.a.a.0 4     o V P ] ` J E = MXR 1.,.$X].;X,.",
"].,.,.:.:.$Xz r.K.K.U.D.y.u 4 8.a.d.m.m.F.v.p.j.l.l.l.b.b.b.b.b.H.H.J.C.C.Z.A.j.5.5.y.a.0 0 2 3 y y c r.e.g y 7 rX( ,.]._.@X5X=X",
"@X).%.%.X.8Xx r.xXxXK.M.d.u ,X2 y.t.p.m.A.b.m.m.f 7.u.s.k.c.m.s.s.M.m.m.J.H.H.y.5.5.5.5.q 0 2 6.g.s.c.Z.gXB.V.w #X~ .X>.@X@X;X8X",
"$.+.>.}.=XtXI e g.K.B.n.w.R.=X;XT.t 7.j.Z.H.z.i.A.C.7.t.j.m.M.w.5.5.d.M.A.A.m.a.a.5.5.0 q v H e j.U.cXxXkXhXkXV.h / _.5X@X].(.@X",
"Y ( U K U [./.u t e.g.a.w.^ -X=X5X/.t u.d.r.e.k.Z.b.Z.0.s.m.i.7.w.Z.C.b.d.m.i.a.a.5.0 0 z O.=.2 i.m.U.xXkXhXkXV.h ( ^ Q U U (.U ",
"(.uX6X5X1X1XoX).9.5.0 w.9.^ -X,X=X2XT.t 9.5.5.y.n.m.b.j.a.n.9.5.m.m.m.I.u.7.5.t.7.q q c / ~. X! 4 q.j.P.M.U.xXF.j.T (.).`.@.,X^ ",
"+.7X=X#X;X<X#X'.8.a.0 0 q b =X=X@X-X7XR.b w e 9.w.m.m.q.9.a.t.y.d.d.d.V.7.t w 4 2 /./.pXQ.#. X X#.w p.p.B.I.U.B.s.T 2X#XOX X_.T ",
"$.@X@X_..X,.1.4 0 5.a.8.5.r 8 5X=X=X-X2X0XwX'.2 2 w 5.5.5.5.w.a.7.5.5.5.5.w 2 }.:X&X<XuXo.*. X X4X^.7.w.G.zXL.s.t.R.).3X#X#X#XT ",
"$.>.2.@X>.2.~.4 6.M.n.s.y.6.8 0X,X-X=X@XoX-X=X=X^.8 6 8 r 5.f 7.e w e 4 5 5 :X:X=X&X+XyXQ.*. X^. X4 6 7 f.l.n.y.0 T '.OX#X#X%XT ",
"$..X;X@X,.} h . . 9 i . a.9.- ].-X;X,X=X<X_.6X,Xp p * & # 4 4 4 5 .         j &X:X=X'.,X!.O.XX+Xb # N J F # 9 0 2 T -XOXOX$XOXR ",
"$._.@X@X).,Xk & p C C C O + & `.).).].(.(.$.*.D # = *   O % % % O     o       &X=XoX'.;X@.O.^.+Xs m S _ _ _ m + d ^ ).#X.XOX-X^ ",
"} uXtXtX:X$.= * M S J S B ; - .X;X;X<X(.(.,.|.c t # * @ o + % + o + @ + 7 7 7 = #.'.).;XoX).*X' , C ) <.{ G V p < ! W W W O.,.R ",
"Q :..X>.=X/.$ p M _ _ S B = & )..X}.uX7X,X1Xe a.q.e & % %         @ + y q.q.q.7   #XoX;XoXXX%X$ C G ..<.) C 1 * j 6X$X3.4.3.3.Y ",
"U (.,.].5X/.# 1 M _ _ J N ; & ).;X8X5X@X`./ p.j.a.7.X + % +     o O 6 u.d.u.q.8.4 oX^..X'.XX' ; C J ;.{ G M p * < >.*.&.&.&.3.U ",
"^ 5X}.<XtXQ.@ 1 M _ _ S p * - _.@X5X5X@X].8 J.Z.j.u.q   @ O     o @ w n.J.a.t.7.4 &X)..X*.OXo p a G _ S C p p * < 2.-.X...&.3.U ",
"E.aXrXqXrXqX= < M E G C , * & .X#X$X;X,.%.8 J.Z.j.t.0   : O     & 3 m.S.H.a.q.8.4 #XoXy w 8 9 9 9 1 M B m p : @ D | ;.;.%.%.2.U ",
"( 9XiXrXrXrXk = > : : : $ $ * =.>.oX}.~ ^ k.S.d.a.q.0 o : % +   # e.N.H.C.u.w.8.4 -.x t q.d.m.m.M.g # $ p * & +  .| ..X...&.3.W ",
"Q <XiXiXqXrXk . . H.H.g.7.  - (.$._.@X^ T J.A.d.u.q.0 o > > o o 6 k.H.C.a.t.a.q R `.2 q 4 i.m.A.H.S.y o O & & ^.[ | *.[ [ [ 1.+.",
" . X<X,X;X5Xx i.c.H.H.d.7.2 8 pX,X8XuX( T Z.j.s.w.t.6.+ ; > +   . k.A.N.a.p.M.q {.wXu t A.K.C.H.H.J.z.8.. + H wX-.%.,X&X0X&X&.] ",
"+.-X#X6X<X!.8.B.H.w r.J.0.q 8 pXrXrXMXR.I j.j.i.r.M.q.X # > +   - k.M.d.q.B.d.q O.;.t n.F.xXH.H.H.H.Z.y.8 o qXrX0X X0X:X0X'.&.L ",
"] -X;X1X;X|.7.m.Z.q.f.L.c.4 2 T.qXtXMXE.T y.a.q.Z.C.q.X # % +   f M.M.p.t.C.t v =.=.T w f K.cXH.J.C.M.u.w v rXqXrX*XrXqXrXrX3.L ",
"] #XoX5X7X!.9.k.w w w l.g.2 4 w ,.=XMXQ.I u.y.y.J.z.q.7 R.Q.T o f m.g.q.a.n.r v  X+X-.g e t D.U.B.n.a.y.H *.,XrXpXrXpXpXqXqX*XL ",
"| >X@XoXoX$Xz i.d.u.2 2 2 4 4 e +.*.1X~ I w.y.g.j.q.0 4 {.=X!.- f m.y.w.a.8.4 *.+X+X+X+X*.0.a.D.cXK.a.i ].^.>.>X0XrXrXqX@X<XyXU ",
"P ~.(.@.+.:.D t t t w t 4 t 5 T =X&X,Xo.I w.q.q.y.5.0 z ^ @.|.Q.w y.q.t w.r X [.].&X&X&X).!.T w 7.f H Y ~.'.#.-.^.|.E.Q.! Y O.L ",
"[.uXpX=X1.%X~ O.b 2 4 4 x '.'.&X*XoXyXoX.Xy 0 r r 0 q T..X5X7XuX4 8.0.0 r q . [.>X*X:X3X3X=X'.oX,.>.#X=X).XX$XXX1X,X9X'.qXiXwXqX",
"iXrXeXeX*X%X9XR (.'.,X:X}.~.).(. X#X.X$.=.$ o o o   + D OX$X>.:.3 q q q 3 X o A oX:X'.+X^.3X>X+XoX).XX~.*X*.&.1.XX1.XXOX;.>XuX2X",
"wXrXpXiX:X7X9Xo.)._.).~.>.%.+.+.} -. .[ *.$ + O O # @ O *.1..X,.  X . X o + @ A *X*X*X+X+X*X*X+X+X.X+X{.0X:X-.&.XX=.'.>X+X=. XwX",
"OX*XwXeXrXrX9XQ.'.].].~.*.(.=.} ] ,.=.Q 1.j * p p $ $ @ +.>.;X.X#.+     o @ * O !.&X>X&X&X&X>X*X&X+XOX^.qXwX].] ;.;.+X2X3X>X*X+X",
"+X XwXpXpXMXVXO.&X:X&X'.).*.*.*.] | :.W )._.$ p p > : @ o .X$X;XoX#.o * : @ @ $ !.:X0X*X&X-X>X*X*XoXoX:XpXiX*X ...| -. XOXOX-XwX",
"yX^. X>XeXMXeXR ^ !.@.@.!.W W U U Y Q P @.~ o.N p p , %   @X@X8X;X@X].= 1 ; % % % ^ ^ !.o.o.o.o.!.Q.o.Q.qX9X`.Y [ P [ ..;.1.OX4X",
"wXyX*XXXqXMXMX+X<X;X=X=X=Xo.#.!.R Y >.} (./.R j C M p , + _.@X@X5XyX=X!.m M 1 = % + l R.Q.Q.^ / U U / Q.Q.Q.^ ! ( K | ....;. XoX",
"4X+XOX X+XMX9X#..X XOX X7XpXpXaXpXyX1.2X@X7XuXD S C p p O @X@X}.}.@XyX}.o S V 1 * % F #XyX,XyX6XyXaXyXuXaXyXuXaXpXE.[ ..;...;.XX",
";.>X4X>X4XwX{.^. X X X3X2X^.:X&X,XOX.XoX@X=X#X#X+ V , < + 8X8X@X@X5X6X5X  V V , * O L :.OX^.#XoX].*X,X5X<X,X,X5XuX|.Y ......;.1.",
";.+X>X3X>X3X^.-.=. X X-X2X^.^.=. XOXoX$XOX*X+XO.; m a > = ~ $X5X=X].<XyX  @ @ * * @ F :.oX~.,X,XoXoX=XyX,X:X=X,XyX|.[ X.....;.;.",
" XXXOX*X3X7X*.^.OX X+X+XwX=.=. X=. X XXXOXOX^.> ) ) S p * k 5X;XyX].;XR > ) ) M * @ L :.$X$.=X,X=X=X=X<X,XtX:X:XuX[.Y &.;.-.-.;.",
"=.#.=.=.+X<XO.#.+X+X+X+X0X^.+X,X=X X1.=.XX-X@ N M a : ; % k (.;X}.[.`.& m m m ; @ U &.=.%.$.<X5X;X=X=X,X}.,XtX<X5X[.P } =.=.=.-.",
"D l l l D R Y R o.! ! o.o.}.rXrXyX>XoXOX+X*X+ * * * % O   k ~ ~ ( / K o o o o o   ^ P [ Q $.].}.}.<XtX<X<X5XtXyXyX[.l D D l D L "
};
