/* XPM */
static char *result[] = {
/* columns rows colors chars-per-pixel */
"64 64 225 2 ",
"   c #776746",
".  c #78704F",
"X  c #7C7351",
"o  c #FA0000",
"O  c #FA0906",
"+  c #FA0C08",
"@  c #F4140D",
"#  c #FA120C",
"$  c #F51710",
"%  c #F31E14",
"&  c #F91911",
"*  c #ED2B1E",
"=  c #F6271A",
"-  c #E93827",
";  c #F53C2A",
":  c #F53525",
">  c #DF462F",
",  c #EB4732",
"<  c #F34531",
"1  c #F34C37",
"2  c #E85736",
"3  c #F5573C",
"4  c #F1462F",
"5  c #F3613D",
"6  c #806F4C",
"7  c #8B784E",
"8  c #897753",
"9  c #8A7855",
"0  c #917D58",
"q  c #F25E40",
"w  c #EF6443",
"e  c #F26B49",
"r  c #EE714D",
"t  c #ED7C54",
"y  c #F67752",
"u  c #F57050",
"i  c #9B875A",
"p  c #9B854F",
"a  c #A38C5D",
"s  c #A48B56",
"d  c #A9935D",
"f  c #B99B5F",
"g  c #8D8265",
"h  c #998660",
"j  c #998B66",
"k  c #A28F63",
"l  c #A49364",
"z  c #AA9565",
"x  c #AC9967",
"c  c #AC9C6C",
"v  c #A5956D",
"b  c #B39C65",
"n  c #BB9D61",
"m  c #B59D6B",
"M  c #A59873",
"N  c #AB9C72",
"B  c #A39572",
"V  c #B29E72",
"C  c #BDA265",
"Z  c #B5A26D",
"A  c #BCA56E",
"S  c #BBA66A",
"D  c #AEA273",
"F  c #B5A373",
"G  c #BAA675",
"H  c #BDAA74",
"J  c #BCAB7B",
"K  c #B6A779",
"L  c #BEB17C",
"P  c #EB845E",
"I  c #F4865A",
"U  c #D69962",
"Y  c #E79A6A",
"T  c #F59973",
"R  c #F3976F",
"E  c #CBAD67",
"W  c #C1A76A",
"Q  c #C4AB6A",
"!  c #CBAD6B",
"~  c #C5A665",
"^  c #D2AE6B",
"/  c #CDB16C",
"(  c #CFB066",
")  c #D4B36C",
"_  c #DAB46D",
"`  c #D6B86E",
"'  c #D7B76C",
"]  c #C3AC74",
"[  c #CAAD71",
"{  c #C2AD7B",
"}  c #C6A977",
"|  c #DAAD79",
" . c #C5B174",
".. c #CCB374",
"X. c #C4B27C",
"o. c #CBB57C",
"O. c #CEBA7C",
"+. c #CBB978",
"@. c #D3B573",
"#. c #DAB771",
"$. c #D6BA73",
"%. c #DBBC74",
"&. c #D2B67B",
"*. c #DDB479",
"=. c #D4BB7C",
"-. c #DBBD7B",
";. c #E8A778",
":. c #E2BD75",
">. c #E3BD7A",
",. c #E9B77A",
"<. c #EAAB6F",
"1. c #DBC176",
"2. c #DCC27C",
"3. c #D9C47E",
"4. c #E4C373",
"5. c #E2C47B",
"6. c #E4C97D",
"7. c #E9CC7E",
"8. c #E9C977",
"9. c #F1D17E",
"0. c #BCAE80",
"q. c #B5AB82",
"w. c #BFB58C",
"e. c #C0AE82",
"r. c #C5B483",
"t. c #C9B581",
"y. c #C5BA83",
"u. c #CDBB82",
"i. c #C8BB8B",
"p. c #D2BD83",
"a. c #DBBE81",
"s. c #D2BE8B",
"d. c #E7B981",
"f. c #F1B48E",
"g. c #CFC387",
"h. c #CCC089",
"j. c #D5C285",
"k. c #DCC483",
"l. c #DEC984",
"z. c #D4C38B",
"x. c #DBC58A",
"c. c #D6CA8D",
"v. c #DDCB8C",
"b. c #CFC390",
"n. c #D5C492",
"m. c #D6C992",
"M. c #DDCB92",
"N. c #D9C997",
"B. c #DED193",
"V. c #DDD299",
"C. c #E3C584",
"Z. c #E8C484",
"A. c #E3CB85",
"S. c #EACB85",
"D. c #E2C68A",
"F. c #E4CC8B",
"G. c #EACD8B",
"H. c #EFC689",
"J. c #F1C888",
"K. c #E6D185",
"L. c #EBD186",
"P. c #E5D28C",
"I. c #EBD38C",
"U. c #ECD98C",
"Y. c #E8D98A",
"T. c #F2D283",
"R. c #F2D58C",
"E. c #F5DC8D",
"W. c #F4D988",
"Q. c #E3CD92",
"!. c #E9CE92",
"~. c #F1CE94",
"^. c #E5D393",
"/. c #EBD493",
"(. c #E6D995",
"). c #ECDA95",
"_. c #E4D49A",
"`. c #EBD59A",
"'. c #E6D99B",
"]. c #ECDB9B",
"[. c #F1D594",
"{. c #F2DB94",
"}. c #F2DD9B",
"|. c #F5D998",
" X c #F4E18E",
".X c #EEE19C",
"XX c #EFE096",
"oX c #F4E395",
"OX c #F3E39D",
"+X c #F9E49B",
"@X c #F7E89B",
"#X c #D8CDA5",
"$X c #DCD1A4",
"%X c #DFD9BB",
"&X c #E6DAA4",
"*X c #ECDDA2",
"=X c #E3DBAA",
"-X c #EBDEAB",
";X c #E3D5A5",
":X c #F2DDA2",
">X c #F1DFAC",
",X c #ECDEB1",
"<X c #EEE2A3",
"1X c #EDE2AC",
"2X c #F3E4A3",
"3X c #F5E9A4",
"4X c #F8EBA4",
"5X c #F2E5AC",
"6X c #F5EAAC",
"7X c #FAEDAA",
"8X c #FAF2AB",
"9X c #EEE5B5",
"0X c #ECE5BB",
"qX c #F2E5B3",
"wX c #F3EBB4",
"eX c #F5EDBA",
"rX c #F8E9B4",
"tX c #FBF3B4",
"yX c #F9F4B7",
"uX c #DAD4C2",
"iX c #EFE8C0",
"pX c #F9F2C1",
"aX c #F5F0CA",
"sX c #FAF6D2",
"dX c #F0E7C4",
/* pixels */
"t.rX!.D.x.F.^.@X8X8X8XtX(.h.&X*X*XI.G.}./.:X}.G.|.4XU.E.@X@X7X9Xn.2X:X2Xs.D.~.|.OX].5.T.W G ^.2X6X'.].OXz.B.B.].7X6Xd./.H.-.a.F.",
"a 6.A.A.U.Y.K.U.).U.U.oXK.b././.C.S.F./.|.G././.+X].=.C.C.$.6.F.J a.H.G./.G.G.Z.Z.S.G.T.@. .M.^.^.`.^.2X<X*X'.^.3XV.#._ _ _ :.+X",
"0 ` 1.%.1.6.3.3.A.3.A. XP. .%.Z.C.F.D.I.F.[.D.G.+XI.-.1.S.6.C.F.r./.!.D.D.G.G.D.d.k.Z.R.=.u.Q.].].^.B.B.'.*X.X'.'.h.5._ _ _ :.E.",
"0 1.1.4.2.K.3.P.P.U.A.L.K.b E @.1.C.5././.`./.D.I.D.3.A.L.I.D.P.G D.G.G.D.Z.Z.G.C.Z.G.|.D.u.M.].`.^.^.^.c./.]..X<XM.^ ^ _ _ _  X",
"i 1.1.1.1.K.K.K.P..XP.7.Y. .^._.=.5.D.D.I.D.Q.F./.k.[ U.G./.P.^.H C.D.Z.S.Z.C.C.C.C.Z.|.^.r.^.^.^.^.(.^.B.P.^.)..Xs.^ _ :.:.^ 9.",
"p @.7.3.1.` 1.4.l.oXP.6.7.X.z.x.&.! W G G H G F p.c.b O.&.k.k.x.} G.[.a.Z.d.C.C.~.a.C./.^.X.z.v.c.z.B.c.j.j.v.j.z.r.-.@._ #.>.R.",
"p 1.1.$.2.1.2.4.1.A.].).oX*X[.oXR.T.@Xl.2.{.3X7X7X|.I.l.3.v..X*XG a.C.Z.C.Z.Z.S.I G.F.|.2Xo o Y '.l.j.L K H H X.z.X.] H G Z ] A ",
"p / 1.o o ` 1._ o o o J.Y.x.F.F.o o o o A.A.L.U.G.o o o o {.+Xo @ o C.G.o o o Z.o o o o o o o o P 1.9.K.'.~.o o o o o o o 2X4X`.",
"9 o o o o % ) o o o o o (.x.= o o o o o o A.A.G.I.o o o o 6.S.o o o Z.d.o o o D.o o o o o o o o o 1.4.1.x.o o o o o o o o o ^.@X",
"9 o o o o o o o o o o y (.A.o o o o o o o o F.P.E.o o o o ` ' o o o o G.o o o G.o o o o o o o o o o 8.( k.o o o o o o o o o `.8X",
"0 ..o o o o o o o o o XXj.U o o o o o o o o o (.d.o o o o %.` o o o o D.H.o o D.o o o o o o o o o o 4./ a.o o o o o o o o o 2XtX",
"i S o o o o o o o o ..A. .o o o o o o o o o o I J.o o o o 5.6.o o o o =.o o ~.!.o o o o o l.o o o o 4...= o o o o P.'.F.v.o /.tX",
"m 1.1.o o o o o o  .X.O.O.o o o o o o o o o o o I o o o o A.1.o o o o x.d.o m J o o o o o o o o o o ( S 1 o o o o o o o l.a.^.4X",
"l $X*X].o o o o I  XoX).XXo o o o o E.o o o o o {.o o o o I.{.o o o o L.S.# Q._.o o o o o o o o o o $.Z | o o o o o o o F.^.Q.I.",
"g 9X9X-Xo o o o R.S.I.D.k.o o o o o 3Xo o o o o +Xo o o o I.A.o o o o G.v.I x.p.o o o o o o o o o ]./.H % o o o o o o o A.D./.'.",
"g 9XwX9Xf.o o o 8.S.S.S.A.o o o o o o o o o o o ).o o o o o o o o o o I./.{.k.! o o o o o o o o o G.].L O o o o o o 2.2 ( %.^.0X",
"j 1X9X-XqXo o o :.5.S.G.I.o o o o o o o o o o o /.o o o o o o o o o o D.[.].p.a.o o o o o o o o o 3 }.H t o o o o o o =./ / 2.3X",
"8 p.'.&X1Xo o o # %.A.R.F.G.o o o o o o o o o ; /.o o o o o o o o o o A./.`.O.D.o o o o o o o o o o & V < o o o o o o o o o 2.6.",
"h G +.u.n.o o o q C.G.}.*Xx.o o o o o o o o o Q.`.* o o o o o o o o | p.p.F.H C.o o o o o *Xo o o o o F o o o o o o o o o o O.^.",
"I./.A.A.y o o o o -.P.Q.]./.Z.o o & o o ; /.(.].3X).o o o o < o o o {.2X].*XB k.o o o o o Q.; o o o o o O o o o o o o o o o @X@X",
"l.l.A.l.,.o o o o /./.].}.[.S.o o >.o $ W / ..&.a.`.&Xo 5Xo ` o o o I.6XeXeXM p.o o o o Q.`.!.o o o o O S.o o o o o o o o o /.{.",
"3.I.A.).@ o o o # }./.G./.I.A.o o D.o - C ~ / =.t.x.V.o 1Xo O.o o 6..XyXyX0XM s.Q.o o R N.!.Q.o M.o o =.#.#.o -.S.o o o I.1.3.8.",
"1.1.3.A.A.oXo o F.I./.[.^.D.D.< ; `.o u.[ [  .p.x.n.b.o 2Xo '.O o 4./.1XwX0XB s.Q.o o }._.`.;X~.Q.o o s.^ #.o d.I.o o 1.S.3.1.6.",
"A.P.K.A.P.oXx.o -.G././.`.G./.G.G.S.o  . .{ O.s.M.M.b.d.].o m.t o ` 3..XwXdXV p.Q.o o `.~.*X*X*XQ.~.o x.a.#.o k.G.o 3.7.A.K.k.3.",
"A.K.U.P.W.oXB.o z z c J r.J Z z i a o k c F G J r.K =.^..Xo j.=.o 4.) 1.K.wXq.K r.} o s.s.s.s.s.s.!.o s.`.C.C.a.D., ' 6.A.I.A.2.",
"I.l.P.F.3.9.Y.o wX3X`.2X<Xx.}.^.M.z.o v.u.c.r.J i.h  .6X<XF.P.2.o ) ( / 1. X&.p.o.h o N B v v j j V 0.K t.{ m } J o ' 1.4.1.P.l.",
"E.U./.A.2.{.m.o T _._.Q.wXF./.^.).2X].y 3X.X}.3XtXz...^.^.'.o.3.o @.$.$.1.2.[ $.%.2 o }._.F.F.C.d.Q.:Xn.x.x.z.n.-Xl ( ' 1.A.P.l.",
"I.I.U.6.1.4.1.o : _.x.m.3Xu.).M.v././.o (.`.F.I.+X(.Q ' ` F.pX=.o k.1.P.l.(.O.A.&.S.o 2Xp.*.Z.@.^ >.Z.N.N.Q.G.:XdXK 6.3.Y.A.XXg.",
"A.2.3.1.1.L.z.o , Q.D.M.!.s.).).^.).G.o ).^.^.).4Xv.+.k.l.k.I.U.o l.x.A.P.'.g.k.x.k.o ].x.p.D.-.! ) %.Z.}.Q.S.:X-XK 2.l.6.P.).(.",
"F.k.$.` %.U.z.o 1 _._.!./.j.].`.Q./.^.^.^.^.).].2XP.u.l.A.l.P.P.o P.v.l.D.l.+.A.l.D.o :Xz.=.G.Z.a.-.>.[ >.%.-.Z.I.J A.l.P.P.).).",
"O.+.3.B.(.3Xy., ; M.M.Q.`.s./.)./.^.^.2X].M.).}.}.v. .v.x.j.j.A., =...Q Q %.C A.`.Q.o Q.o.&.C.D.-.2.S.C.2.Z.-.D.I.A l.(.B.P.l.F.",
"b Z l i l m.y.r.$ t.o.t. .u././.]..Xc./.}.).Q./.4XV.c g.X.J L L Z c x i l Q Z t.O.p.o Q.{ [ -.>.-.@.Z.Z.C.S.D.A.XXF H Z x x u.c ",
"j.4XOX).).].U.I.K./ x.l.@.u./.].^.}./.v.).].^.^.4X<Xj.Y.).).(..X(..X}./.^.`._.].`.^.&X;XF &.C.-.G.-.C.G.Z.D.!.!.|.z.j.x.z. .].K ",
"..OX^.).)./.I.P.<XwX<XeXO.u.^.^.v.^.)././.5X].)..Xp.j.v.l.A.K.v.+.]./.}.2X<XQ.'.].*X2XqX0. .2.Z.G.D.D.!.!.!.!./.*Xp.}.I.G.C.A.M ",
" .P.P.l.A.2.5..XeX9X6XpX$Xu.oX].`.^./.].`.oX`.).@Xu.x.l.A.l.A.c.J x.^.^.*XQ._.Q.^.^.`.6Xr.=.C.Z.G.[.F.F.!.!.Q.}.OXx.D.[.[.I./.M ",
"O.3.K.K.1.6.3.3.'.5X<X6X%Xo.^.].].^.^.P.v.).^.P.+Xu.k.k.F.P.A.z.X.F.Q.c.Q./.`.'.^.Q.v.2Xt.&.C.k.C.G.`.!.Q.!.`././.p.k.G.R.L.{.N ",
" .o o o o o o o o + P.I.P.L j.F./.o o o o o o o o o o o 3.3.A.c.o.j.x.Q.O !.3 o o ^.x.`.u. .Z.D.D.o o o o o o o o 4 /.G.D.I.G.c ",
"o.o o o o o o o o o o 3 Y.H g.j.o o o o o o o o o o o o o j.A.x.t.I.;.o o o o o o o v.).X.W a.D.;.o o o o o o o o o o G.S.G./.J ",
" .o o o o o o o o o o o o K.U.A.o o o o o o o o o o o o o l.Y.h.i.a.o o o o o o o o l.].Q.l.I.G./.o o o o o o o o o o o o [ 2.V ",
"Z o o o o o o o o o o o o o =.3.o o o o o o o o o o o o o &X3Xv.X.^.o o o o o o o o D./.F.S.R.R.I.o o o o o o o o o o o o o 8.b ",
"b o o o o o o o o o o o o o *.: o o o o o o l.D.=.! ) o w 1XwXm.Z o o o o o o o o o o D.z.A.S.L.).o o o o o o o o o o o o o 7.z ",
"L o o o o o /.T o o o o o o o 5 o o o o o o o o o o @.....-.^.b.m o o o o r Z.o o o o S.=.S.S.D.I.o o o o o N.o o o o o o o 5 l ",
"w.o o o o o 6X-Xo o o o o o o :.o o o o o o o o o o ; l.l.@.k.o.o o o o o o o o o o o o A 5.R.G.4.o o o o o -X;.o o o o o o e l ",
"v o o o o o o o o o o o o o d.* o o o o o o o o o o U =.k.k.Y.c.o o o o o o o o o o o o o &.>.S.-.o o o o o o o o o o o o o 9.A ",
"Z o o o o o o o o o o o o o k.o o o o o o o o =.k.o =...2.=.P.O o o o o o o o o o o o o o o =.k.=.o o o o o o o o o o o o o 5...",
") o o o o o o o o o o o o ].qXT o o o o o o o o O l.v.O.F.^.v.o o o o o o T.%.o o o o o o o G.L.I.o o o o o o o o o o o o M.1./ ",
"..o o o o o o o o o o o ) ^.1Xu o o o o o o o o o o o o o Q.o o o o o o o 1.C = o o o o o o o @.%.o o o o o o o o o o o '.x.%.s ",
"/ o o o o o o o o o o ' E @.l.o o o o o o o o o o o o o o M.o o o o o o @.#.W &.= o o o o o o o p.o o o o o o o o o o -X9X5XA.s ",
"E P.o o oX3XF.o o o E / ! Q E O o o o o o o o o o o o o o _.: o o o o #./ #.Q *.C.: o o o o o o z.F.o o p.1.:Xo o o wXwX-X-X^.a ",
"/ /.O o A.L.=.o o o @.@./ ....@.o o o o o o o o o o o o O '.*Xo o % ) #.$.-. .=.C.Q.Y o o o o F.D.5.o o v.p.5.o o o -X*XQ.`.>Xl ",
"d u.j. ...-.z H o o j.2.+.2.j.F.^.Q.o o o o o o o o X.G L o.z.* o d C C n n x C.D.Q.!.o o D.F.p.-.6.S.m j.x.O.@.o o w.r.A m ! a ",
"F.6XqX`.5.W.A * o r j.&.n.x.x.D.!.F.o o o o o o )._.c.V.A.).2X4Xo 2.%.$.$.=.z x.`.Q.d.o = /.x.F.k.-.R./.-.G.L.r o o $Xx.&X1X>X;X",
"9XqX,X,X/.E.#Xo o o `.'.M.p.k.k.2.I.o o o o o o T.I.l.P.I.Y.3.1.o Y.Y.E.P.@Xc u.Q.!.Y o D././.F.D.C.S.=.^.&.%.o o o D.S.5./.5X}.",
">XqX9XqX_.].#XO o o x.=.k.&./ ..) =.^ o o O 2 @.1.A.3.l.2.3.K.1.o A.A.K.P.XXD m.Q.!.o o P !.!.F.D.D.H.n.&X_.%.o o o x.`.D.a.Z.:X",
"Z.G.1X,XqX>XN.- o o v.u.=.k.=.! Q 3.3.o o o o @.6.6.l.K.3.2.U.l.o ).P.P.).3XN M.`._.o o o !.].Q.F.D.G.z.-X5Xx.E o o v.}.`.}./.D.",
"x.C.:XqXeXsXuXJ o o ^.x.x.&.=.=.Q / 1.$ o Y A.2.3.Y.@.K.K.K.U.).v.(.).)..X7X0.p._.Q.u o P !.`.~./.v.D._.wXqX^.) o o @.Z.H.!.!.}.",
"2Xs.C.`.=XsX,XN o t.X.X.t.K Z m a b W @ o H O.o.L 3. .K.K.P.P.XX).P.(.(.(.4XL F { J 0.o o { { { t.t.H r.=X=Xz.n o o ~ _ :.C.~.G.",
":X2XQ.S.-XaXdXD.o XX/.!.V. .o.r.F m 3.o o i.} V F i  .6.P.l.K.P..X3X(.(.).4Xc.O.] x h o o e.K F N v F r.e.0.J K K o ) #.^ 4.S.D.",
"[.H.!.d.D.pX#X&.o D.G.k.@XrXeXtXrX<X8.o o @X6X6XoX3.H 3.K.P.Y.P.v.B.<XV.).(.g.3.@.=./ o o }.3X2X2X7X3X6XyX2X6X8XwXo ~ _ :._ :.Z.",
">./.`.}.~.:Xn.a.o >.Z./.`.x.!.F.].G.D.= o F.I.G.{.A. .l.Y.U.).(.Y.XX@XXXXX<Xy.=.2.F.@.o o p.I.v.F.^.`.].].].]..X6Xo f _ _ _ 5.5.",
"-.D.}.`.|.`.a.&.a.a.Z./.}.p.C.-.C.S.F.P.o G.F.A.T.v.[ k.K.v.Y.(.v.c.XX.X<X1Xy.+.x.l./ o o g.].).Q.P.^.2X*X'.^.].2Xo E #._ #.:.:.",
">.Z.H./.|.}.=.a.G.C.D.D.2X&.-.C.-.D.D.A.I.S./.D.{.^. .v.K.Y..X(.@XB.XXXXV..Xh.B._.v.$.%.A.o.^.].M.^.^.).]..X_.^.5XN.n #.%.#.#.>.",
"&.&.-.-.F.].] o.D.D.d.M.}.s.D.].^.C.5.2.S././.D.oX(.H j.3.g.g.Y.B.B.v.v.c.V.K j.V.^.#.%.$.O.'.<X'.^.^.'.V.`.].'.<Xm.b ^ >.-.&.-.",
"7       6 V b m } { H X.{ N.qX-X2X/.G.D.D.!.Q.F.oXoXg.B.g.3.L L D D j X . L c D q.K f W S +.v.^.v.'.<X].'..X<X2X2Xc.  8 6   7 i "
};
