/* XPM */
static char *result[] = {
/* columns rows colors chars-per-pixel */
"64 64 234 2 ",
"   c #3C1F23",
".  c #6C1E12",
"X  c #661E14",
"o  c #71261B",
"O  c #7B331F",
"+  c #63251C",
"@  c #432729",
"#  c #4C312D",
"$  c #51352F",
"%  c #523630",
"&  c #7A3323",
"*  c #7A362C",
"=  c #7D3A31",
"-  c #5A4032",
";  c #62483A",
":  c #6F533F",
">  c #684F45",
",  c #755A46",
"<  c #765B45",
"1  c #6F5749",
"2  c #796547",
"3  c #7A7250",
"4  c #935538",
"5  c #884B39",
"6  c #836A4D",
"7  c #886A4B",
"8  c #9E6843",
"9  c #8C774E",
"0  c #846D53",
"q  c #8A7756",
"w  c #947B53",
"e  c #947B5B",
"r  c #987B56",
"t  c #A26942",
"y  c #A87854",
"u  c #AB794E",
"i  c #917E64",
"p  c #AB7278",
"a  c #AD787E",
"s  c #A76D72",
"d  c #8F5852",
"f  c #95845D",
"g  c #9A845D",
"h  c #9E8757",
"j  c #9B854F",
"k  c #A3865A",
"l  c #A38B5D",
"z  c #A78556",
"x  c #A9935D",
"c  c #B89A5D",
"v  c #8D8265",
"b  c #9B8661",
"n  c #9A8B66",
"m  c #A38C64",
"M  c #A48D68",
"N  c #A38862",
"B  c #A49264",
"V  c #AA9564",
"C  c #A6936C",
"Z  c #AB956D",
"A  c #AD9B6C",
"S  c #A99969",
"D  c #B39C66",
"F  c #BB9D62",
"G  c #B39C6B",
"H  c #B4996A",
"J  c #AB9C72",
"K  c #A49673",
"L  c #B29E73",
"P  c #BE937B",
"I  c #B48A72",
"U  c #B5A26D",
"Y  c #BBA46D",
"T  c #BEA86D",
"R  c #BAA265",
"E  c #B5A373",
"W  c #BBA674",
"Q  c #BDAA74",
"!  c #BCAB7B",
"~  c #B5A778",
"^  c #B7AB78",
"/  c #C3976A",
"(  c #C3A463",
")  c #C7AB67",
"_  c #CBAC66",
"`  c #C5AB6A",
"'  c #CBAD6B",
"]  c #C3A768",
"[  c #D1AF6A",
"{  c #D0AD67",
"}  c #CDB16D",
"|  c #CBB06B",
" . c #D3B36C",
".. c #DAB46D",
"X. c #D6B96E",
"o. c #DDBC6E",
"O. c #D2B267",
"+. c #C3AC74",
"@. c #CAAE71",
"#. c #C2AD7B",
"$. c #C5AB78",
"%. c #C6B175",
"&. c #CCB374",
"*. c #C4B27C",
"=. c #CBB57B",
"-. c #CEB97C",
";. c #CBB978",
":. c #D3B573",
">. c #DAB772",
",. c #D6BA73",
"<. c #DBBC73",
"1. c #D2B67B",
"2. c #D4BB7C",
"3. c #DBBD7B",
"4. c #DAB67B",
"5. c #E1BD75",
"6. c #E2BF78",
"7. c #DCC176",
"8. c #D7C17C",
"9. c #DCC27D",
"0. c #E3C475",
"q. c #E2C57B",
"w. c #E5C97D",
"e. c #EACC7E",
"r. c #E9C977",
"t. c #F1D17E",
"y. c #B07E84",
"u. c #B18588",
"i. c #B1908F",
"p. c #BCAE82",
"a. c #B5AB82",
"s. c #BEB388",
"d. c #BCA2A3",
"f. c #C29C85",
"g. c #C7A884",
"h. c #C5B483",
"j. c #CAB582",
"k. c #CDBB82",
"l. c #CDBD8A",
"z. c #C4BA86",
"x. c #D3BD83",
"c. c #DBBE82",
"v. c #D2BE8B",
"b. c #CBBF92",
"n. c #C2A8AC",
"m. c #C4ACB0",
"M. c #C8B5B8",
"N. c #C7B3B6",
"B. c #CDC18A",
"V. c #D5C285",
"C. c #DCC484",
"Z. c #DEC985",
"A. c #D4C38B",
"S. c #DBC58B",
"D. c #D6CB8E",
"F. c #DDCA8C",
"G. c #CEC392",
"H. c #D4C592",
"J. c #D6C992",
"K. c #DDCB93",
"L. c #DACB99",
"P. c #DED193",
"I. c #DCD29D",
"U. c #D7D088",
"Y. c #E3C583",
"T. c #E8C785",
"R. c #E4CB84",
"E. c #E9CB85",
"W. c #E2C68A",
"Q. c #E3CC8B",
"!. c #EACD8B",
"~. c #E6D184",
"^. c #EBD185",
"/. c #E5D18C",
"(. c #EBD38C",
"). c #ECD98C",
"_. c #E8D98A",
"`. c #F2D383",
"'. c #F2D58C",
"]. c #F4DC8D",
"[. c #F3D988",
"{. c #E3CD92",
"}. c #E9CE92",
"|. c #E5D393",
" X c #EBD493",
".X c #E6D995",
"XX c #ECDA94",
"oX c #E4D49A",
"OX c #EBD59A",
"+X c #E6DA9C",
"@X c #ECDB9B",
"#X c #F1D593",
"$X c #F2DC94",
"%X c #F2DD9B",
"&X c #F8DB97",
"*X c #F1CF93",
"=X c #F4E18E",
"-X c #EEE09C",
";X c #EFE096",
":X c #F4E294",
">X c #F3E39C",
",X c #F9E49B",
"<X c #F8E89A",
"1X c #D5CDA5",
"2X c #DDD3A5",
"3X c #E6DAA4",
"4X c #EBDDA3",
"5X c #E4DCAA",
"6X c #EBDEAA",
"7X c #E5D6A3",
"8X c #F2DEA2",
"9X c #F1DFAC",
"0X c #E8DDB2",
"qX c #EEE2A4",
"wX c #EDE3AC",
"eX c #E7E0AD",
"rX c #F3E4A3",
"tX c #F5E9A4",
"yX c #F8EBA4",
"uX c #F2E5AC",
"iX c #F4EAAB",
"pX c #F9EDAA",
"aX c #FAF2AB",
"sX c #F7F1AB",
"dX c #EDE5B3",
"fX c #EAE4BA",
"gX c #F2E5B2",
"hX c #F3EBB3",
"jX c #F5EDBA",
"kX c #F9EBB3",
"lX c #F7F2B4",
"zX c #F9F4B9",
"xX c #F8F2C4",
"cX c #EFE8C2",
/* pixels */
"j.kX}.W.S.Q..X<XaXaXaXzX.XB.5X8X8X}.!.%X X8X%X!.&XpX_.].<X<XiXdXH.rX8X8Xv.W.*X&X&X4Xq.`.] $.|.rXiXoX@X>XA.K.P.@XpXiXc.*X!.5.c.}.",
"l w.R.R.)._.~.).XX).).:X~.B. X XY.R.Q. X#X!.}. X,XOX2.R.w.>.w./.! c.T.#X X!.}.T.T.T.E.`.@.#.P.|..XXX|.rXqX-X+X|.pXI.>.>.....5.&X",
"q X.7.o.7.~.8.8.R.9.~.=X/.$.<.T.w.Q.T.Q.}.#XQ.!.,X/.4.7.E.q.R.Q.h.OX}.W.T.!.!.Y.c.Y.Y.#X4.l.|.OX@X|.|.P.oXqX-X+X.XB.q.......5.].",
"f 7.7.q.9.~.9././.).Z.^.~.D _ :.<.T.C. X X X XW.(.Q.8.E.(./.T.|.W Y.T.!.W.W.T.T.Y.T.T.&XW.k.K..X.X XoXP.D. X@X-X-XK._  .....o.].",
"h ,.7.,.7.~.~.~./.-X/.e._.*.|.oX2.q.Q.Q.!.W.{.Q. XC.$.).E.$XQ.|.$.Y.W.T.T.T.Y.c.Y.Y.T.&X.X*.F..X.X|.|.|.P.|./.@XqXA.[ ....5.[ `.",
"j ,.w.w.7.X.7.7.Z.;X).9.r.*.A.S.1.' ] W W +.W E x.D.D ;.2.c.Z.S.$.!.*Xc.T.Y.T.T.*Xc.c.#X|.h.A.K.A.A.oXU.V.8.F.V.V.*.4.:...5.5.'.",
"j 8.7.7.9.7.w.7.7.R.;XXX:X4X#X:X(.`.,XC.9.$XyXpXpX&X(.C.C.Q.@X+XI 3.Y.T.T.T.T.T.T.}.Q.#XtXS././.OXU.C.^ ^ W Q *.A.! +.Q W G $.G ",
"j } X.0.7.X.7.7.7.w.>X-X_.S.Q.Q.Q. X%X|.~.R.~.).^.$X|.{.).XX<XqX. 4 4.T.T.c.5.T.T.!.!.&XOX8.q.w.Z.0.[.Z.+XqXXX@X>XsXoXXX-X8XpX%X",
"9 7.X.7.7.7.O.7.7.7._.-X.XC.S.C.C.Q.(.c.C.Q.R./.).XXXXC.4.t t 8.! . . C.Y.T.Y.Y.T.!.*X*XS.w.<.o.0.7.r.7.A. XoXC.Z.@X@X XOX{. X<X",
"3 } X.7.X.7.O.X.7.9.~.;X.XR.Q.C.,.T.).C.Q./.Q.!.'.8.4 . t O.O.. 4 . / !.W.T.*XT.Y.W.OX%XS.R.0.0.0.o.r.| C.F.|.|.F.Q. X|.+XOXOXaX",
"f } 8.7.X.O.X.X.X.7.w.=XV.&.3.9.:.>.E.%.{. XXX(.Q.R.8 w.7.3.X.0.G c.Y.Y.T.T.*XW.W.}.}.8XK.(.E.w.r.7.0.O.C.Z.Q.Q.C.Q.S.S.|.%XqXzX",
"f T | } | | &.` ) ) ;.w.&.h.;.2.} [ 0.Q |.Q._. XXXW.u ~.9.q.e.0.G 1.1.4.4.c. X}.}.W.c.*XS.R.9.q.0.o.0.&.{.C.T.|.Y. XoXQ.Q.@XXXaX",
"A 7.7.7.8.V.%.Y Q %.;.-.-.s.G.J.Y ( X.D Q./.Q. X$X!.(. XY.w.9.^.1.R.F.C.C.4.G ! g.W $.j.j.-.2.9.7.) O.U {.Q.3.R.F.,.XX XC.C. XtX",
"B I.@X+XwXiX@X(.:X$X:X X].:X$XXX'.$X].@.F.XX!.Q.$X XQ./.R.).).E.4.!.Q.^.T.$X|.oX8X}.Q.&X%X$X).XX|.R.X.U l.Q.C.3.R.Q.>.C.Q.{.Q.).",
"v dXdXwXdXgX0XC.'.E.(.Q.Y.R.!.(./.XXtX-.{.OX|.XX,X%X X/.R./.R.~.&.9.T.!.Q.XXQ.c.O O 4.4.4.4.q.Y.4X@X XQ D.Q.{.C.9.9.9.,.Y.!.oXoX",
"v dXhXdXdXfX0X] e.R.E.T.Y.R.!. XXX(.sXk.P.rX X(..XXX@XXXQ.XX_.P.2.9.Y.(. XXXy . :.Y.. c.Q.C.W.C.6.!.%X! {.F.Q.S.C.9.9.} | <. XfX",
"n wXwX6XdXjX2X] 5.q.E.E. X!.}.!.!.Q.<X;.A..X X XXX@XXX%X XE.(./.2.E.C.T. X@Xx.4.4.c.W.c.W.}.W.v.W.}.%X! Q.{. XK.S.Z.(.2.} } 7.tX",
"q x.+X3XdXdX2X( >.<.T.(.Q.!.#X#X XT.].x.h.|.|.|. XP./.Q././.(.Z.%.Q.!.Q. X Xk.W.c.W.}.W.S.}.}.W.S. X#XL !.  , |.K.Q.Q.Q.x.2.C.w.",
"b Q ;.x.A.5Xs.] Q.w.!.%X8XS.!.!.E.r.'.Y.B.P.D.P.XXh.*.*.-.-.V.V.D +.V.2.V.!.Q W.W.W.S.*X}.OX7X*X{.}.uXL x.$ -.-.;.Q G T U T ;. X",
"/..XR.R.%XgX1X$.Y.9.Q.{.@X XR.Y.w.q.`.3.P.@X.XXXtXXX|.rX@X@X).:X(.^.XXrX4X4XZ W.OX}.{.{.*XL.oX*XOX%XrXx.F.Q.S.F. X;.&.E.w.XXtX<X",
"Z.Q.Z.Z. XjX1XQ Q. X X%X%X#XY.Y.3.6.E.*.] ' &.2.x.OX3XjXdXoXX.X.o.e.).rXjXjXK 1.}.}.7X{.{.*X}.W.W.OX@Xc.!.3.Q.q.E.<.w.R.R. X(.$X",
"9.^.~.@X/.`.D.+.!.OX X!.#X!.W.T.T.Q. X] ( ] ' 2.x.S.oXzXqXoX;. .O.w.qXlXzXcXK v.W.{.W.9XL.}.{.{.W.}.oX1.<. .>.6.  &.8._.'.7.7.w.",
"7.8.9.w.R.=XD.+.!.(.#XOX|.Q.R.R. XOXpXj.@.+.&.k.S.J.G.hXiXqX+XF. .<.(.wXgXfXK c.{.{.*X7XOXOX}.. . & 7Xc.[ >.4.4.    9.9.w.Z.7.9.",
"E.~./.R./.:XD.U 3.Q. X X X!. X!.!.E.^.$.%.*.-.v.S.J.H.oX+X|.J.|.X.} w.-XjXcXK l.}.L.W.*X7X4X& 7X4 . & S.c.>.Y.C.< g 9.~.R.~.Z.9.",
"R./.(./.).:XP.f V V Z ! h.Q U V f l Y m G E A ~ h.W -.|.-XqXV.      c 3.E.jXa.~ *.j.h.v.v.v.y v.v.t . v.*XW.c.c.T.W X.w.w.E.Z.7.",
"/.Z./.~.9.t.).Z.hXtX+XrXqXS.@XoXF.S.!.F.k.D.h.  h.n &.iXqXF./.6 c z j O.7.].x.2.*.b v J C Z M n n L . E k.$.G $.$.f X.7.q.q./.Q.",
"$X). XR.0.XXK.v.OXoXoXoXpX{..X|.@X>X@XtXtXK.@X  i A.&.|.|.XX-.8.X.k   ,.7.8.` <.<.4.Q.%XoXQ.Q.W.c.. & H.S.S.v.H.6XB O.X.7.R./.Z.",
"(.).).w.0.0.8.h.oXoXS.S.tXk.XXP.F. X|.K. Xq   g ,X|.` X. .|.xX2.,.  : /.Z..X-.R.2.Q.3.%Xx.4.R.[ [ 6.T.L.L.}.!.rXcX~ w.9./.Z.;X8.",
"R.8.q.7.o.^.A.l.{.{.{.S. Xx.XXOX|.XX|..XOX.X|.@XiXF.;.C.Z.9.^.<   2.Z./.Q.+XV.9.x.C.W.4XJ.2.Q.4.[ >.<.R.%X}.E.8XwX~ 7.Z.Z./.@X.X",
"Q.9.,.,.X.;XA.z.L.{.{.OX XV.@XOX|. X X|.|.|. X@XtX/.-.Z.~.Z././.@X/.S.9.Q.Z.;.Z.0 Q.|.8XS.x.E.T.c.4.6.@.5.4.3.T.(.^ R.Z./._.XX).",
"2.;.8.U..XtXz.B.{.{.K.}.OXA. XXX X|.|.rX@XK.@X%X$XF.%.F.D.V.C.Q.-.,.;.` _ 3.R Q.> {.Q.!.*.1.T.Y.4.3.T.Y.3.T.3.Y.(.Q Z..X/.F.Z./.",
"D U B n B J.h.h.l.*.j.*.$.k.|. X.X>XJ./.:XXX!.|.pXP.J B.*.^ ! *.^ A S h l +.U =.  x.S.{.#.@.4.Y.3.>.Y.T.Y.R.Q.R.%XE ^ U D S k.A ",
"V.tX>X@XXX@X^._.R.&.V.R.;.k.|.@X|.%XXXF.XXOXoX.XiX-X2..XXXXX|.-X.X;X>X X X+X|.A.  {.7X7XE -.Y.6.T.c.Y.T.Y.W.}.}.&XA.A.S.V.*.>X~ ",
";.>X_.).XXXX X/.qXhXqXjX-.2./.|.K.|.XX/. XtX.XXX-XV.C.F.Z.E./.Z.*.OX}.%XrX4XoX0 C %XrXhXp.@.c.R.!.W.W.#X}.}.}.}.4Xx.&X(.!.C.R.K ",
"%./.|.Z.R.9.q.-XzXdXuXxX2Xk.>X@XXX|. X%XOX-XXXOX<Xk.Z.Z.R.Z.R.D.Q D.{. XK {.{.0 J.{.OXtXh.1.Y.R.!. XW.}.}.}.}.%X>XS.C.#X'.(. XK ",
"-.9.~.~.9.0.Z.8.@XuXqXhX5X=.|.@X@X|.|./.F.XX|.!.>X-.V.C./.Q.Q.D.*.x.|.D.M +XOX  S.K.F.rXj.1.Y.S.T.}. X}.}.}.OX}. Xx.W.Q.(.(.$XA ",
"%.~..XE.8.} 7.K.P.qXZ.)./.^ D.Q. XXXOX|..XZ.,X>X>X;.Y.R.9.C.R.U.*.M W.{.M }.j.  oXK.S.OXl.$.E.W.W.W.{.}.4X{.}.}. X-. X!.!.!.!.A ",
"*.Z././.V.@XqXiXwXZ.F.^._.Q V.V.C.C.K.V.B.;.2.F.@XG 2.C.C.C.Z.V.j.G j.{.N j.e   |.  F.XX*.] c.W.W.W.Q.{.}.oX{.}.{.! C.!.R.!. X! ",
"%.qXuXqX.X2.8.Z.8.8.R.Z.~.~.).R.).XXXXV.V.8.D.3.~.C.;.x.8.Z./.J k.M < }.e c.e   C.  C.XXQ.C.(.!. XoXj.H C E p.h.v.~ Y Q T ` C.G ",
"R 7.~.9.|.3XiXeXsXwXuXxX+X2.8.V./.P.tX<X-X$X^.e.3.q.~.;XeX5X<XE $.L    Xe $.w    X  Q.XXQ.E.'.^.(.'.pXE.c.Y.$X#X&X>X^.e.E.e.r.G ",
"A C.8./..X5XlXhXlXjXiXlX+X.XZ.Z.).@X;XP.V.C.C.Q.3.'  .X.Q.4XhX  Y H   Q.N   e   6   2.W.x.T.T.'. X/.tX3.W.F.2.3.T.w.2.3.X.<.e.V ",
"^ -X.XI.qX+XwXiXiXdXqXqXQ././.Z./.>X>X/.F.{.F.|.Z.C.;.&.,.3.(.  g m   W.N   e       c.; 2.E.R.Q.(.T.[.A.oX3XK.:.<.q.>.X...<.E.V ",
"s.zXuXqXeXiXiXeX5X/.w.).8.P.Z.~._./.XXV.k.C.c.C.V.Q.Q.C.C.2.2.  w &.9.Y.2.          W.  Y q.!.!.0.'.yX3XF.gX6XS.' [ 0.5. .,.w.V ",
"J 2XdXeXwXeXqXB.;.` | ,.` 8.F.8.9.R./.Q k.C.C.2.2.R.:.3.C.C.V.  D &.&.:.1.          $.    4.q.!.4.q.@X2XuXjXwXQ.X.{ >.>.>.7.e.Y ",
"R +XcXeXqXwX2X-.J.J.J./.7.&.9.C.;.Z.|.W C.Q.x.8.9.3.8.%.9.3.~.  T 3.8.<.h           1X    A.x.C.c.&.+XH.4XjXjXK.) _ :.) ( ] 0.&.",
"&.Y.XX@X.XtXlXqXdXdX|.9.^.OXhXuX@XXXuXE -./.F.C.2.C.S.2.N |.K.  2.(.Y.<.k           rX>   (.E.E.; :XS.#.7X6X6X4X2.>.4X{.qX{.3.| ",
"}  X(.>X X<X.XD.K.L.C.} |  XuXjXeXqXxXp.;.Y.6 2.Q.f /.S.b K.rXK.k.3.3.:.w           Q.R.  x.:.>.  E.!.#.3X4X5XwX+XT.4XoX+XS.o.z ",
"|  XXX%X|.>X XD.S.V.&.X.'  .C.+X7XwXxXs.1.2., C.V.@ !.{.@ K.@XI.;.4.3.&.r           :.4.}.|.  C.  Q. XQ S.!.uX5XuX{.wXwXwXwX~.l ",
"' (.!.-X-X<X|.K.K.C.' ' ' ` ' 7.C.|.xXs.;.Y., Q.C.  W.XX  J +X2X+. .5.<.' 9       c.4.c.Y.Q.  |.  Q.#X#.x.3.%XgXuXwXkXhX5XwX!.m ",
"| XX/.F.E.!.2.A.J.j.:.:.} :.&.:.:.2.XXQ *.  3.C.|.*.F.|.  @X4XL.+.( [ r >.7.      S.Q.S.c.!.Q.Q.  9.E.E F.2.q.OX7XwX6X6X{.OXrXB ",
"x x.V.%.&.7.V ] oXoXx.2.=.o . . |.{.@X*.Y Q +.T . ~ 0 W ! *.D.! x x ( 7 F F       {.}.  S.W.!.x.  ; E.D x.F.*.:.k.b.s.h.T G @.l ",
"F.iXhXoXq.'.Y +.2.Q.C.. o d.M.M.M.Q.rXQ.R.. . + % l.e I.~.XXtXsX/.8.8.  ] ,.      {. X  OX% S.Q.C.3.'.(.  R.E.E.(.D.1XS.K dX6X7X",
"gXgX0X9X X$X1XW V.5 d.* d.= N.M.N.}.Y.. X + 9 7.[.(.Z.~.)._.9.7.] _._.  (.n     S. XS.  W.% }.W.Q.9.T.2.  1.X.7 Y.  W.1.y  XuX%X",
"9XuXfXgXoX$X1X! . u.N.M.M.m.m.m.p s X - <.:.X.:.0.R.V.9.9.  ~.8.R R.R.  /.g     {.}.}.; W.% }.Q.W.R.!.;   , ..7 0.  W.h.b c.W.8X",
"W.!.6X9XgX+X. = . = i.M.n.p p p p P 3.R C.9.&.:.w.R.8.~.9.  ).Z.Y './.  .Xm   A.OX}.OXq   % OXS.}.S.!.v.6X1 S.: [     < &XOX}.T.",
"W.Y.8XgXI = o N.d M.& a p p p p ' O.8.T C.Y.R.9.3.).2.~.~.  )..XE .XXX  @XpX# j.oX{.7XOX{.% OX  }.W.Q.oXjXgXoX< {   k Y.!.}.}.8X",
"8XW.W.y * y.M.M.M.d.p p p I E A x D ] V ;.Q 2.=.%.8.%.R.~.  V ;XQ *./.  .XsX3 A #.! ! j.#.6 @   h.j.#.p.5X5XB.F ( w ) ..5.T.'.}.",
"8X9Xy . = 5 M.M.n.p p p f.#.=.j.E G C.` V.z.! L E f ;.~./.    /.*.A..X  -XyXS.=.+.V b p.h.g.# ~ A C E h.h.p.! W E e  .>.[ 5.T.W.",
"#XT.. i.M.M.M.y.p p g.3.,XhXjXzXhXqXq.%X{.<XpXtX:XZ.Q 7.~.    /.E *.qX  XX+XB.8.>.2.' ).pXOXZ >XrXpXrXpXhXrXsXaXhXs.( ..5...5.T.",
"6.#X= M.M.M.y.s p Y.T.#X#XS.}.Q.OX(.Y.(.!.{.!.(.$XZ.%.h /.;.  .XW Z >XS ;X-Xz.3.9.{.:.<.E.B././.  |.XXqX@X@XOX-XiXG.c ......6.q.",
"4.T./ M.M.y.a f.4.c.T. X%Xx.Y.4.Y.E.!./.!.!.!.C.(.S.%.  R.~.Z..XE   ;X>XqXwXs.8.S.Z.| q.Q.k.@XOX  |./.tX-X+X|.@XuXl.) ....>.5.5.",
"c.!.}.M.y.p / v.!.S.T.W.rX1.3.Y.c.R.C.T. XT. XT.].|.;.  B .X@XXXh.*.+X@XP.-XB.P.oXF.,.7.~.;.|.@X    oX XOX@XoXoXuXJ.F ..5.:.>.6.",
"2.1.3.c.p g.] =.!.W.Y.W.4Xx.Q.@X{.Y.3.3.T. X XQ.$X=.m     U V..XD.D.U.U.U.-X~ 8.oX{.) R F G j.l.    @ k.oX+X-X+X-XJ.D :.3.3.4.4.",
"9 2 2 2 0 ~ H G $.! ! #.$.L.gXwXrX X(.Q.Q./.{.Q.$XE C A V n f f q E v 3 3 ^ J J a.~ c k r b Z J Z L ~ L L z.qXrXrXD.2 9 3 2 9 h "
};
