/* XPM */
static char *result[] = {
/* columns rows colors chars-per-pixel */
"64 64 212 2 ",
"   c #776746",
".  c #78704F",
"X  c #7C7351",
"o  c #806F4C",
"O  c #8B784E",
"+  c #897753",
"@  c #8B7956",
"#  c #917D58",
"$  c #9B854F",
"%  c #97855D",
"&  c #9A865C",
"*  c #9E8957",
"=  c #A48D5E",
"-  c #A48B56",
";  c #A9935D",
":  c #B99B5F",
">  c #8D8265",
",  c #998660",
"<  c #988B66",
"1  c #A59364",
"2  c #A99464",
"3  c #A7936A",
"4  c #AC9C6C",
"5  c #AA996A",
"6  c #B39C65",
"7  c #BB9D61",
"8  c #B49D6B",
"9  c #A69971",
"0  c #AC9D72",
"q  c #B29E72",
"w  c #BCA265",
"e  c #B5A26D",
"r  c #BBA56D",
"t  c #BFA96C",
"y  c #B4A066",
"u  c #AEA273",
"i  c #B5A373",
"p  c #BBA674",
"a  c #BDAA74",
"s  c #BCAB7B",
"d  c #B5A779",
"f  c #BCB17C",
"g  c #C3A464",
"h  c #C7AB67",
"j  c #CBAC66",
"k  c #C1A76A",
"l  c #C5AB6A",
"z  c #CBAD6B",
"x  c #C8A664",
"c  c #D1AF6C",
"v  c #CDB16D",
"b  c #CBB06B",
"n  c #D3B36C",
"m  c #DAB46D",
"M  c #D6B96E",
"N  c #DCBC6F",
"B  c #D3B367",
"V  c #C3AC75",
"C  c #CAAD71",
"Z  c #C2AD7B",
"A  c #C2A770",
"S  c #C5B175",
"D  c #CCB474",
"F  c #C4B37C",
"G  c #CBB57C",
"H  c #CEBA7C",
"J  c #CBB978",
"K  c #D3B573",
"L  c #D9B771",
"P  c #D6BA73",
"I  c #DBBC74",
"U  c #D3B67B",
"Y  c #D4BB7C",
"T  c #DBBD7B",
"R  c #E1BD75",
"E  c #E2BF78",
"W  c #DCC176",
"Q  c #D6C17C",
"!  c #DCC27C",
"~  c #DEC87E",
"^  c #E3C475",
"/  c #E2C47B",
"(  c #E4C97D",
")  c #EACC7E",
"_  c #E9C977",
"`  c #F1D17E",
"'  c #333790",
"]  c #5633A8",
"[  c #326DD9",
"{  c #27ABFA",
"}  c #79C8FA",
"|  c #BBAE81",
" . c #B6AB81",
".. c #BFB387",
"X. c #BEB489",
"o. c #C0AE82",
"O. c #C4B483",
"+. c #CAB582",
"@. c #C5BA83",
"#. c #CCBB82",
"$. c #C4BA8B",
"%. c #CEBD8B",
"&. c #D3BD83",
"*. c #DBBE82",
"=. c #D3BF8B",
"-. c #CBBF92",
";. c #CBC18B",
":. c #CFC487",
">. c #D5C285",
",. c #DCC483",
"<. c #DEC984",
"1. c #D4C38B",
"2. c #DBC58A",
"3. c #D6CB8E",
"4. c #DDCA8C",
"5. c #CDC394",
"6. c #D4C592",
"7. c #D5C993",
"8. c #DDCB93",
"9. c #DCCC9A",
"0. c #D8C896",
"q. c #DED093",
"w. c #DCD19C",
"e. c #D7D088",
"r. c #E3C584",
"t. c #E8C785",
"y. c #E4CB84",
"u. c #EACB84",
"i. c #E2C68A",
"p. c #E3CC8B",
"a. c #EACD8B",
"s. c #E6D185",
"d. c #EBD185",
"f. c #E5D18C",
"g. c #EBD38C",
"h. c #ECD98D",
"j. c #E8D98A",
"k. c #F2D383",
"l. c #F1D984",
"z. c #F2D58C",
"x. c #F4DC8D",
"c. c #F8D98F",
"v. c #E3CD92",
"b. c #E9CE92",
"n. c #E0CF9B",
"m. c #F1CF93",
"M. c #E5D393",
"N. c #EBD493",
"B. c #E7D995",
"V. c #ECDA94",
"C. c #E4D49A",
"Z. c #ECD59A",
"A. c #E6D99B",
"S. c #ECDB9B",
"D. c #F1D593",
"F. c #F2DB94",
"G. c #F2D799",
"H. c #F2DC9B",
"J. c #F8DB97",
"K. c #F4E18E",
"L. c #EEE19C",
"P. c #EFE096",
"I. c #F4E395",
"U. c #F3E39C",
"Y. c #F9E49B",
"T. c #F4EA9C",
"R. c #FAEB9E",
"E. c #FAE396",
"W. c #D5CBA3",
"Q. c #DBCFA6",
"!. c #DCD2A3",
"~. c #DDD3AA",
"^. c #DFD9BB",
"/. c #E5D5A3",
"(. c #E5DAA4",
"). c #EBDCA3",
"_. c #E4DCAA",
"`. c #EBDEAA",
"'. c #F2DEA2",
"]. c #F1DFAC",
"[. c #EADEB2",
"{. c #E0D7B4",
"}. c #EDE2A4",
"|. c #EDE3AC",
" X c #E7E0AD",
".X c #F3E4A3",
"XX c #F5E9A4",
"oX c #F8EAA4",
"OX c #F2E5AD",
"+X c #F4EAAC",
"@X c #F9EDAA",
"#X c #FAF2AB",
"$X c #F7F1AB",
"%X c #EDE5B4",
"&X c #EBE6BD",
"*X c #E6E0B3",
"=X c #F2E5B2",
"-X c #F3EBB3",
";X c #F5EDBB",
":X c #F9EBB3",
">X c #F7F1B3",
",X c #FAF2B4",
"<X c #F9F3BD",
"1X c #FBF6B6",
"2X c #DAD4C2",
"3X c #EFE7C0",
"4X c #F7F2C5",
"5X c #F9F1C1",
"6X c #F7F2CA",
"7X c #FAF6D2",
"8X c #F0E7C4",
"9X c #E7F3F3",
/* pixels */
"+.:Xb.p.2.4.B.Y.$X#X#X1XB.%._.'.'.a.g.G.Z.H.H.a.H.XXg.x.T.T.@X=X6..X'..X=.i.m.J.J.)._ k.w p B..X+XC.B..X1.8.q.B.@X+X*.m.a.R *.i.",
"= / y.y.h.j.p.x.F.j.h.I.s.:.N.N.r.u.p.N.G.N.g.Z.Y.S.Y y./ I ) p.s *.t.m.D.p.a.t.t.t.a.k.K Z v.M.N.B.N..X.X).A.B.XXw.L m m m E E.",
"# M W N W ( Q <.y.~ y.K.j.V I t.r.p.p.a.p.N.p.a.Y.a.T ^ u.! r.p.o.Z.a.i.t.a.a.,.r.r.t.D.T +.v.S.A.M.8.M.A.).S.A.B.;./ m m m R c.",
"# W ! W ( s.Q e.j.f.y.s.y.6 z K W r.! N.N.G.a.i.g.y.Y p.z.p.y.N.p t.p.a.i.t.t.a.*.t.t.J.2.=.8.B.B.B.B.q.3.B.S.L.}.8.c m m m N x.",
"* I W W W ( ) s.f.U.s.( l.F M.C.T ! p.p.p.p.v.p.Z.,.D g.f.D.f.B.Z i.i.t.t.t.t.r.t.r.r.J.B.F 4.B.C.M.N.B.q.M.N.V.}.1.c m m R c k.",
"$ K ( ( W M W ~ <.F.V.~ ( f 2.2.U z k r p a p e &.4.6 K U Q >.1.A t.m.r.r.*.t.r.a.*.r.N.M.O.1.q.1.1.M.e.:.&.3.>.>.o.T K m R T z.",
"* W P W ~ W ~ ^ W y.L.V.I.).Z.I.g.k.Y.2./ D.XX@X@XH.g.2.,.p.L.L.q r.*.t.t.t.t.t.t.b.p.G.XX2.4.f.S.4.<.d p a a F 1.F C p e i A 8 ",
"$ b W W W B W W W ( U.L.j.,.p.p.p.g.H.M.s.y.g.h.f.F.f.p.h.V.Y.}.p i.t.t.t.*.E t.t.a.a.G.G.T ( ( y.W l.<.A.}.V.V.L.+XM.A.U..X@XJ.",
"X W M W W W v N W W j.U.B.,.2.2.2.p.g.,.,.y.y.a.g.V.g.2.<.( ) j.Z r.r.r.r.t.r.r.i.t.m.G.2.y.N N ^ W ^ I 1.B.A.,.<.G.S.Z.Z.v.N.T.",
"+ v M W W W B M W W s.P.B.y.y.,.P r.z.,.p.f.p.f.x.! ( / M M N ^ 8 i.i.m.t.t.m.a.r.t.G.G.2.y.^ ^ ^ ^ _ b *.4.v.N.p.4.B.M.Z.Z.B.#X",
"% v W W B B M M M W ( K.>.D T ! K L ) D v.V.N.j.f.M.! y.W I N W 8 *.t.t.t.t.m.a.i.v.b.'.8.g.u.) ^ ^ _ b ,.2.p.p.2.p.2.2.N.G.'.1X",
"% t b v b b D l h h J ~ S @.D &.v z ^ a M.p.g.N.F.V.y.p.~ / ( _ 8 U U U U *.b.v.b.i.*.m.2.y.! / ^ N ^ D a.,.y.M.r.g.B.4.4.S.N.,X",
"4 W W W Q Q F e f S F H H X.5.7.r g M 6 p.g.p.N.V.p.V.g.y.y.W d.&.r.4.2.T Y 8 Z o.p Z +.o.U Y W W b b w 8.p.W y.4.K N.M.2.! N.oX",
"1 w.).A.|.+XS.g.F.K.I.D.x.I.D.F.z.F.c.V 4.F.p.i.F.N.p.p.y.g.g.u.L a.y.g.u.H.v.n.'.b.a.G.J.F.V.V.f.y.M e 1.4.,.T y.p.I ,.p.M.p.g.",
"> %X|.|.%X%X[.*.k.u.a.p.! y.a.g.g.V.XXH 8.S.N.B.Y.S.N.g.<.g.y.s.C E t.a.t.N.p.&.r.t.U L T T T r.).S.N.a 2.v.b.,.! ~ ! L y.p.B.C.",
"> %X-X%X%X;X{.l ) u.u.a.y.r.a.D.D.g.$X@.q..XB.g.V.F.V.S.p.N.j.f.&.*.t.b.Z.V.,.z U r.i.t.i.i.i.*.T a.V...v.4.p.1.,.T ~ v b I N.&X",
"< *X|.`.-X;X~.l E / u.u.N.a.a.a.a.p.Y.S 1.B.B.Z.Z.H.V.F.N.p.g.f.U y.r.p.m.'.&.*.U *.i.i.i.i.i.i.t.m.S.s v.p.B.v.2.,.g.Y v v W .X",
"+ Y A.(. X%X~.g L I t.z.p.a.G.D.N.u.x.>.@.f.f.N.B.v.f.p.f.p.g.3.S a.p.t.N.m.+.t.*.*.m.i.i.b.v.9.=.D.G.q p.4.p.N.8.p.p.p.&.Y ! y.",
", p G %.7._.| k p./ p.H.'.1.a.g.a./ z.r.;.q.7.p.B.#.F F H H >.>.6 V =.Y &.v.p *.b.2.2.b.n.m.Z.m.v.M..Xi ,.,.G H F a r t r r H f.",
"g.V.y.y.F.:XW.A ,.! g.v.S.N.t.r./ _ ` T M.A.[ } } } 9X9X9X9X9X9X9X9X9X9X9X9X9X9X9X9Xv.v.m.9.n.m.D.'.H.=.2.p.4.4.V.D D y.( V.R.oX",
"y.4.y.<.N.<XW.a p.N.N.H.G.G.r.r.T T ) D k [ } [ [ { { { { } 9X} } } } } } } } 9X9X9X9Xn.v.Z.v.i.i.G.Z.*.a.T t.r.( T y.y.y.V.g.x.",
"! g.y.B.p.k.3.a a.S.b.a.N.g.y.r.t.p.B.t [ } [ [ { { { { } } 9X} } } } } } } } } 9X9X9X9X9.b.v.b.2.v.Z.U I n L E u.n Q j.g.W W ( ",
"W W ~ ( y.K.3.V a.g.N.G.M.p.t.t.N.Z.+X[ } [ [ { { { { { } } 9X{ } } } } } } } } } 9X9X9X9XG.).m.n./.Z.*.c L T *.a.U ! ! y.~ W <.",
"s.p.f.y.f.I.3.r T p.g.N.Z.a.N.g.a.u.[ } [ [ [ { { { { { } } 9X{ } } } } } } } } } 9X9X9X9X9X/./.v.m.n.2.*.K r.,.p.D ~ ( y.f.,.W ",
"y.s.g.f.g.E.e., 2 1 4 s O.V e 3 % [ } } } } 9X9X9X9X9X9X9X9X9X9X9X9X9X9X9X9X9X9X9X9X9X9X9X9X9X=.=.v.0.=.Z.r.r.*.p.e M / ( s.y.! ",
"f.<.f.f./ ` h.4.-XXXZ..X).2.S.M.2.[ ] } [ [ { { { { { { } } 9X{ } } } } } } } } } } 9X9X9X9X9X< < q Z d +.Z 8 p Z & M W / / j.y.",
"D.h.g.y.W V.8.1.Z.C.C.n.-Xv.B.M.H.[ ] } [ [ { { { { { { } } 9X{ } } } } } } } } } } 9X9X9X9X9Xt.*.b.'.=.1.i.=.2.`.2 B P W y.p.<.",
"x.g.h.( ^ ^ Q O.C.v.8.2.XX#.V.p.2.[ ] 9X[ [ { { { { { { } } 9X{ } } } } } } } } } } 9X9X9X9X9Xc c E r.9.9.v.m.'.8Xd / T f.s.P.H ",
"<.! ~ W N d.1.%.n.v.v.2.b.1.V.A.B.[ ] 9X[ [ { { { { { { } } 9X{ } } } } } } } } } } 9X9X9X9X9XT c c R t.'.a.a.'.`.d W <.<.f.S.N.",
"p.! P I M P.1.@.8.v.v.C.N.,.H.V.v.[ ] 9X[ [ { { { { { { } } 9X{ } } } } } } } } } } 9X9X9X9X9Xt.*.R *.C R I T r.g.f <.<.f.j.V.V.",
"H K Q e.B.XX@.%.n.v.0.v.Z.=.N.S.B.' } 9X9X9X9X} } } } 9X9X9X9X9X9X9X9X9X9X9X9X9X9X9X9X9X9X9X9Xr.U T t.r.*.t.*.r.g.a <.B.f.<.<.y.",
"6 u 1 < 1 7.O.@.#.G G G Z #.N.f.V.L.' ' { ] ] ] ] ] ] ] [ [ 9X{ { { { { { { { { [ [ 9X{ 9X9XT *.R L t.t./ u.p.y.V.i a e 4 5 ;.4 ",
">.XXU.L.I.V.f.g.y.D ,.<.J #.N.S.M.H.V.' { ] ] ] ] ] [ [ [ [ 9X[ [ [ [ [ [ { { { { [ 9X{ 9XU r.T a.*.r.t.r.i.b.b.H.=.,.2.1.G S.d ",
"D U.N.g.V.V.g.f.}.-X}.;XH H N.N.8.M.V.f.' [ ] ] [ [ [ [ [ [ 9X[ [ [ [ [ { { { { { 9X{ 9X| G T t.a.t.i.N.b.b.b.b.H.&.H.g.a.,.y.9 ",
"S f.j.<.y.! / L.<X%X+X4X!.#.U.A.B.M.N.L.V.' [ ] ] [ [ [ [ [ 9X[ [ [ [ [ { { { [ 9X{ 9XXXo.Y r.t.a.N.p.v.b.b.Z.G..X1.r.D.z.g.N.9 ",
"H ! y.s.! ! <.Q S.|.}.:X_.F M.S.S.N.M.f.4.N.' [ ] ] [ [ [ [ 9X[ [ [ [ { { { { 9X{ 9Xi.XX+.U r.,.r.b.N.b.v.b.Z.N.Z.Y i.p.z.g.V.0 ",
"S s.V.s.Q v Y q.q.}.e.z.s.S 1.p.N.S.B.M.B.2.U.' [ ] ] [ [ [ } [ [ [ [ { { { 9X{ 9XM.1.S.%.C p.t.t.v.i.v..Xn.b.b.b.#.N.a.t.a.a.4 ",
"F <.f.f.<.A..X+X|.<.<.d.j.a >.>.,.,.p.=.>.S Q 4.' [ ] ] [ [ } [ [ [ { { { 9X{ } f.p.4.N.F k *.i.i.i.p.v.Z.v.i.n.v.Z ,.g.p.a.N.s ",
"S }.OX}.q.Q Q ,.Q Q p.<.s.e.j.s.V.V.V.>.>.<.3.Q ( ' [ ] ] [ [ 9X[ [ { { [ 9X9Xp.,.2.2.S.p.,.a.a.N.C.+.8 3 i s O.=.p e p r V ! q ",
"y W y.~ q.}.OX}.>X|.OX<X(.Y ! >.f.4.XXT.L.F.d.u.I _ ' [ ] ] [ 9X[ { { { 9X} ,.M.Z.v.y.V.p.y.z.k.g.z.@Xt.*.r.G.x.H.U.d.) ` / _ w ",
"e >.! 4.B.(.<X>X>X;X-X>XA.B.<.! h.S.L.f.>.,.4.y.Y j n ' [ ] ] 9X[ { [ 9X9X2.p.p.p.p.>.y.1.r.u.g.N.g..X&.i.4.&.T / y.Y I L ^ ) 2 ",
"f A.B.A.}.A.}.OX-XOX}.}.p.f.f.<.g.I.L.p.4.4.4.M.<.,.H D ' [ ] } { { 9X} p.p.p.p.p.p.,.y.Y u.y.a.g.u.l.1.C.).8.K L ) P L M L u.2 ",
"X.>X|.(.|.OX-X X(.f.s.d.Q q.<.s.g.f.h.>.Y 2.,.*.,.p.y.2.,.' [ } { 9X[ ,.&.y.p.r.,.g.p.a.r / z.a.^ z.oX`.4.%X X,.z B / I n P ( 2 ",
"9 (.%X X|. X}.>.J l l W l H f.Q ! 4.M.S >.>.,.Y Y y.K Y r.,.' [ 9X[ K K D ,.&.G &.G G =.i U E a.T / S.w.OX;X|.p.m j I m I I u.r ",
"w A.&X%X X|.!.:.7.7.7.4.W D ,.>.Y <.M.a >.p.&.Q >.T Q D ! T f.' [ I W T P Y Z p G >.Q.Q.9.1.Y ,.Y D C.6.).:X;X8.j x K j g x ^ D ",
"K r.B.S.j.XX$X}.%X%Xp.( u.S.-XOXB.V.XXi H p.4.,.Y ,.4.H p.M.4.S.Y g./ I ) u.I '..XH.'.;X`.N.u.d.z.J.2.Z /.`.`.(.U I ).n.).v.I v ",
"D N.g.U.N.Y.B.3.9.9.,.c B B.}.<X X|.4X .H 2.,.! y.,.f.2.2.8..X8.%.Y *.D n I w L E / i.t.9.&.U L I u.a.F ).)._.`.C.u.).C./.4.I - ",
"z g.V.V.N.U.B.7.2.>.D M l n ,.Z.(.`.6XO.J T ,.,.,.&.M.p.v.8.A.!.D W T K L K t Y Y T K Y b.N.,.*.&.p.N.s 4.v.|.`.OXM.}.|.|.}.y.= ",
"j g.v.U.U.Y.M.9.8.>.j v z h j ! ,.M.5X..H y.2.y.,.,.2.V.C.C.A.9.A n I I z K z T r.r.Y ,.,.t.N.N.2.p.V.Z &.! '.OX=X|.:X%X_.`.a.= ",
"v B.p.p.y.g.U 1.8.H K D D K D D D Y V.Z D ,.! ,.N.1.4.M.A.S.).8.A g c M L T C Y i.b.i.,.*.a.p.p.i.T ) i p.Y W Z.(.|.`.`.M.A.`.2 ",
"; %.>.S D W ; A M.9.>.! G ! ,.4.N.v.S.Z e a S D &.G F d F F 3...2 ; g w 7 7 6 ,.2.v.v.v.2.i.p.&.! / u.6 =.2.G K 1.5.$.O.r 8 C = ",
"p.+X=XB.^ z.p a Y p.,.U 1.2.2.2.p.p..Xp.p.I.N.V.V.w.2.w.e.h..XXXj.! Q I P Y 2 1.Z.v.N.G.G.A.2.p.,.T z.N.! y.g.u.F.S.Q.,.).|.]./.",
"%XOX[.`.N.F.W.p &.2.B.A.8.&.,.,.r.g.p.D W W ! W k.g.<.f.j.j.( W s.s.h.x.f.T.4 #.p.Z.2.i.2.D.N.p.t.,.t.&.C.Y I / d.r.t.p./ N.OXG.",
"].].%X=XC.F.Q.s ,.p.,.Y 2.K D D v P n k Y K L n W ( Q ,.~ ~ y.Q ( y.y.s.f.P.u 8.v.b.N.i.i.b.b.i.p.i.a.2.Z.n.L I ` I 2.Z.i.*.t.'.",
"t.b.].[.=X].W.F 2.4.M.#.Y ,.T l j ! W w ~ ! D K ( y.<.s.~ ~ j.<.s.V.f.f.V.U.0 8.Z.b.Z.v.i.v.G.v.p.,.a.2.`.}.i.z N I i.H.G.G.N.t.",
"2.r.'.=X;X7X2XZ v.C.8.2.,.Y Y Y l D ! w ,.r.y.! ! j.P s.y.s.g.B.3.V.V.B.L.@X| =.M.n.Z.C.n.b.G.C.b.v.i.n.;X=XC.n m z K r.a.b.b.).",
"OX*.r.G._.7X{.q Z +.F F +.i r 4 = 6 k ; G a Y G S Q S s.s.f.f.V.V.f.q.B.B.$Xf e F s s +.o.Z Z Z +.+.s O._._.1.7 x 6 x m E / m.b.",
"'..Xv.t.'.6X8Xi.V.S.N.N.q.Z G +.i 8 ,.v >.$.s q d & S s.g.e.y.j.L.XXB.P.P.oX4.H V 2 , s +.o.d i 0 3 q O.o.| s d p @ c I c ^ t.i.",
"D.t.b.*.t.6XQ.+.y.t.p.! Y.OX<X,X-X'./ H.f.Y.XXoXI.~ t Q s.f.j.q.e.f.}.q.V.A.:.Q K U D g..XG.XX.X.X@XXX@X>X.X@X#X-XX.g m R m E t.",
"E b.G.Z.m..X2.&.r.r.t.Z.G.2.C.p.S.a.y.g.p.M.N.a.F.y.V y.g.j.P.M.B.P.U.L.L.}.@.Y ! p.K ^ g.&.g.f.p.M.B.S.S.S.S.S.+X;.: m m m E / ",
"E a.G.Z.J.G.&.U T *.r.N.J.&.,.Y r.u.p.f.a.a.p.2.d.2.S ~ s.p.f.P.f.3.P..X}.|.@.J 2.<.b W y.%.S.B.v.f.M.}.).B.M.Z.OX%.x L m m R R ",
"*.t.a.b.G.J.&.*.a.2.t.t..XU T r.! r.t.r.g.y.g.t.F.M.G <.e.M.P.V.U.q.S.V.q.L.;.q.C.4.P W d.G B.S.8.N.M.V.B.}.A.A.+X0.7 L R L L E ",
"U U T Y i.S.V U t.i.2.i.G.=.p.S.M.2.E T t.N.N.p.I.B.a >.>.Q >.B.q.e.e.e.3.q.d Q C.M.I I P H B.}.B.B.B.A.M.A.).A.).3.8 c R T U T ",
"O       o q 8 8 Z s p F Z 9.=X].'.N.g.p.p.b.v.p.I.L.>.q.e.H S f u d < X . f u u  .s ; k w G 4.v.8.A.}.A.A.L.}..XU.3.  + o   O & "
};
