/* XPM */
static char *result[] = {
/* columns rows colors chars-per-pixel */
"64 64 229 2 ",
"   c #3C1F23",
".  c #51352F",
"X  c #68523D",
"o  c #675742",
"O  c #735947",
"+  c #786748",
"@  c #806D4B",
"#  c #8C774E",
"$  c #8A745A",
"%  c #8C7B5A",
"&  c #887654",
"*  c #947B53",
"=  c #917D5A",
"-  c #866B54",
";  c #917F63",
":  c #95845D",
">  c #9A855D",
",  c #9D8958",
"<  c #9B854F",
"1  c #A38C5D",
"2  c #A48B56",
"3  c #A9935D",
"4  c #BD9D5F",
"5  c #8D8265",
"6  c #998660",
"7  c #9C8C6A",
"8  c #988964",
"9  c #A28D62",
"0  c #A38F68",
"q  c #B28F6E",
"w  c #A49264",
"e  c #A99464",
"r  c #AC9967",
"t  c #A6936B",
"y  c #AC9B6C",
"u  c #AA976D",
"i  c #BE9465",
"p  c #B39C66",
"a  c #BB9D62",
"s  c #B49D6B",
"d  c #A59873",
"f  c #AB9B72",
"g  c #A39371",
"h  c #B49577",
"j  c #B29E74",
"k  c #BA9979",
"l  c #BCA264",
"z  c #B5A26D",
"x  c #BBA56D",
"c  c #BEA86D",
"v  c #B4A066",
"b  c #AEA075",
"n  c #B5A373",
"m  c #BAA674",
"M  c #BDAA74",
"N  c #B4A479",
"B  c #B9A57B",
"V  c #BCAB7B",
"C  c #B7AA78",
"Z  c #BEB17C",
"A  c #C1976A",
"S  c #C3A464",
"D  c #C7AA65",
"F  c #CBAC66",
"G  c #C2A66B",
"H  c #C5AB6A",
"J  c #CBAD6B",
"K  c #C8A466",
"L  c #D1AF6C",
"P  c #CDB16D",
"I  c #CBB06B",
"U  c #D3B46C",
"Y  c #DAB56C",
"T  c #D6B96E",
"R  c #DCBC6E",
"E  c #D2B267",
"W  c #C1A673",
"Q  c #C3AD74",
"!  c #CAAD72",
"~  c #C2AD7B",
"^  c #C9A87B",
"/  c #D2AF7A",
"(  c #C6B275",
")  c #CCB374",
"_  c #C4B27C",
"`  c #CBB57B",
"'  c #CEB97C",
"]  c #CBB978",
"[  c #D3B573",
"{  c #D9B771",
"}  c #D6BA73",
"|  c #DBBC74",
" . c #D3B67B",
".. c #D4BB7C",
"X. c #DBBD7B",
"o. c #E1BD75",
"O. c #E2BF78",
"+. c #DCC176",
"@. c #D6C17C",
"#. c #DCC27D",
"$. c #DEC87E",
"%. c #E3C475",
"&. c #E2C47B",
"*. c #E4C97D",
"=. c #EACC7E",
"-. c #E9C977",
";. c #F1D17E",
":. c #BBAE81",
">. c #B3AA83",
",. c #BFB387",
"<. c #BEB489",
"1. c #C1AF83",
"2. c #C5B483",
"3. c #CAB582",
"4. c #C5BA83",
"5. c #CDBB82",
"6. c #C4BA8B",
"7. c #CDBD8A",
"8. c #CDB08F",
"9. c #D5B484",
"0. c #D3BD83",
"q. c #DBBE82",
"w. c #D2BE8B",
"e. c #D6B58B",
"r. c #CBBF92",
"t. c #DABE97",
"y. c #CFC387",
"u. c #CBC08B",
"i. c #D5C285",
"p. c #DCC483",
"a. c #DEC984",
"s. c #D4C38B",
"d. c #DBC58B",
"f. c #D6CB8E",
"g. c #DDCA8C",
"h. c #CEC392",
"j. c #D4C592",
"k. c #D6C992",
"l. c #DDCB93",
"z. c #D9C898",
"x. c #DED193",
"c. c #DCD29C",
"v. c #D7D088",
"b. c #E3C584",
"n. c #E8C785",
"m. c #E4CB84",
"M. c #EACB84",
"N. c #E2C68A",
"B. c #E3CC8B",
"V. c #EACD8B",
"C. c #E6D185",
"Z. c #EBD185",
"A. c #E5D18C",
"S. c #EBD38C",
"D. c #ECD98D",
"F. c #E8D98A",
"G. c #F2D383",
"H. c #F2D58C",
"J. c #F4DC8D",
"K. c #F3D988",
"L. c #E3CD92",
"P. c #E9CE92",
"I. c #E0CB99",
"U. c #F1CF93",
"Y. c #E5D393",
"T. c #EBD493",
"R. c #E6D995",
"E. c #ECDA94",
"W. c #E4D49A",
"Q. c #EBD59A",
"!. c #E6DA9C",
"~. c #ECDB9B",
"^. c #F1D593",
"/. c #F2DB94",
"(. c #F2D799",
"). c #F2DC9B",
"_. c #F8DB97",
"`. c #F4E18E",
"'. c #EEE19C",
"]. c #EFE096",
"[. c #F4E295",
"{. c #F3E39C",
"}. c #F9E49B",
"|. c #F4EA9C",
" X c #FAEB9E",
".X c #FAE396",
"XX c #D5CBA3",
"oX c #DACEA4",
"OX c #DCD2A3",
"+X c #DDD3AA",
"@X c #DFD9BB",
"#X c #E4D6A3",
"$X c #E6DAA4",
"%X c #EBDDA3",
"&X c #E4DCAA",
"*X c #EBDEAA",
"=X c #F2DEA2",
"-X c #F1DFAC",
";X c #EADEB2",
":X c #E0D7B4",
">X c #EEE2A3",
",X c #EDE3AC",
"<X c #E7E0AD",
"1X c #F3E4A3",
"2X c #F5E9A4",
"3X c #F8EBA4",
"4X c #F2E5AC",
"5X c #F4EAAB",
"6X c #F9EDAA",
"7X c #FAF2AB",
"8X c #F7F1AB",
"9X c #EDE5B3",
"0X c #EBE5BC",
"qX c #E6E0B3",
"wX c #F2E5B2",
"eX c #F3EBB3",
"rX c #F5EDBA",
"tX c #F9EBB3",
"yX c #F7F2B4",
"uX c #FBF3B4",
"iX c #F7F2B9",
"pX c #F8F3BD",
"aX c #FDF9B6",
"sX c #DAD4C2",
"dX c #EFE8C0",
"fX c #F9F2C1",
"gX c #F7F2C7",
"hX c #FAF6D2",
"jX c #F0E7C4",
/* pixels */
"3.tXP.B.d.B.Y. X7X7X7XaXF.7.*X%X%XV.S./.Q.=X).V._.2XT.J.|.{.6X9Xj.1X=X=Xw.N.U._._.%X-.G.A W Y.1X6X!.R.{.s.l.x.~.6X2Xq.U.M.q.O.L.",
"1 &.m.m.F.F.m.D./.F.D.[.A.u.T.S.b.m.B.T.(.V.T.T.}.~.X.m.*.| =.V.~ 0.V.V.^.V.B.n.n.n.V.G.[ _ g.Y.Y.!.Q.1X>X>X!.Y.6Xc.{ Y Y Y o._.",
"= U +.R +.C.@.@.m.$.m.J.C.^ X.=.&.V.n.V.V.(.B.B.}.A.X.#.M.p.b.B._ Q.V.N.N.V.P.b.q.b.n.U...5.l.~.~.Y.g.W.Y.>X~.!.!.y.#.Y Y Y o.J.",
"= +.#.%.$.C.$.A.A.F.B.C.C.p J [ X.m.p.T.T.T.P.b.S.m.X.m.Z.V.m.Y.m N.V.V.n.n.n.n.b.n.n._.d.0.Y.!.~.R.Y.x.f.Q.~.{.'.l.J Y Y Y R `.",
", } +.+.+.C.*.C.A.{.A.=.F.( Y.W...&.B.B.V.N.L.B.T.p.) S.V./.A.R.^ N.n.b.^ b.b.b.n.b.b.).R.` x.Y.Y.Y.R.R.l.Y.R.R.>Xs.L Y Y { Y G.",
"< T =.*.+.U +.$.a.[.A.$.=.Z s.d. .! G m m M C n 9.f.r ......p.p.W V.U.b.  X.b.b.V.X.b.T.R._ s.x.s.i.Y.v.i...g.i.i.~ X.[ Y o.O.U.",
", +.+.T $.+.$.%.+.m.].E.[.%X(.[.Z.G.}.p.  /.3X6X7X/.Z.p.$.g.~.>Xk q.q.n.n.n.n.n.n.U.B.(.1Xd.g.A.!.x.i.C C M M _ s._ ( M n n W A ",
"< I T $.+.E +.+.} =.{.{.F.i.B.B.B.S.).Y.9 =.Z.D.S./.Y.L.S.E.}.>XB b.n.n.n.q.O.n.b.V.V.(.~.X.&.*.m.+.;.C.!.>XR.E.'.5XY.R.{.'.6X).",
"+ +.+.+.+.+.E +.+.+.F.'.R.p.g.p.p.B.T.q.p.B.m.V.F.T.Q.a.m.*.C.F.~ N.b.b.b.n.b.b.n.V.P.(.d.m.| R %.%.-.+.i.Q.Q.i.g.(.~.Q.Q.l.T. X",
"5 P P T +.+.I T +.$.C.].Y.m.B.p.} *.H.p.B.A.B.S.H.#.*.&.T T T %.s n.n.V.n.n.U.. 9.n.(.(.d.&.%.%.+.+.-.I p.g.Y.Y.g.B.Y.T.~.Q.Q.7X",
": I +.+.E E T T T +.*.D.i.) X.#.[ [ M.( L.R.E.S.A.Y.@.*.#.| R +.s b.b.n.n.n.U.N.N.L.P.(.O S.M.=.%.%.%.I p.d.B.B.p.B.d.d.Y.).'.aX",
": c I T I I ) H D D ] C.] 2.] ..P U %.W A.B.S.T./.E.m.V.&.&.-.-.s  . .9. .q.U.L.P.N.b.P.. m.$.%.%.R %.[ B.p.m.S.m.S.W.g.B.Q.T.7X",
"v +.+.+.X.i.( z M ] ] 4.] <.h.k.l S } p A.S.V.T./.B.E.S.m.*.#.Z. .b.g.p.p...s ~ 1.W ^ 3._ ' ..@.+.H E l l.B.#.m.g.[ E.T.i.i.T.3X",
"w c.$X!.,X5X~.S./.`./.E.J./././.H./.J.Q f.T.A.a./.T.B.V.m.S.S.M. .V.n.S.m./.L.W.%XP.B.(.(./.E.R.F.m.} s y.B.p.X.m.B.} p.B.T.L.S.",
"5 9X,X,X9X9X;X#.H.M.S.m.#.n.S.S.S.E.3X4.L.~.Y.E.{.).T.A.m.A.m.m.) &.b.V.n.T.B.0.b.n.9.X.#.X.X.b.%X~.Q.M d.L.A.b.#.#.#.[ p.V.T.W.",
"5 9XeX9X9XrX:XG =.M.n.V.n.b.V.T.^.S.8X5.l.{.Q.S.E.E.E.~.A.E.A.A...#.b.T.T./.i.! / O.n.n.n.d.n.p.O.V.~.V I.g.B.d.i.X.$.P E +.T.0X",
"7 ,X9X*XwXrX+XH o.&.M.V.S.V.P.V.V.n.{.] s.R.~.T.T.E.E.).T.C.S.A.` V.g.n.T.~.0.q. .q.b.b.b.N.N.N.N.^.T.V L.L.T.B.d.g.A...P P @.}.",
"& ..!.$X,X9X+XS Y | n.H.B.B.(.T.T.n.J.0.` x.A.Y.Q.Y.A.B.A.B.S.a.) M.B.m.T.T.' N.q.q.P.I.N.P.I.N.t.T.(.n B.g.B.T.g.B.V.B.0...#.m.",
"8 m ] 5.s.&X:.G V.$.V.).=Xd.V.S.Z.=.H.b.y.x.f.Y.R.4.] _ ' 4.i.i.r ! q.0.0.L.m b.P.N.N.P.I.(.#XU.L.T.1Xj i.d.' ' ( M v M v c ' Y.",
"S.R.m.m.).tXXXW p.#.V.Y.~.T.n.b.&.&.;.X.x.!.R.~.1XT.W.1X'.E.J.[.F.Z./.1X!.>Xu d.U.P.N.L.Q.I.I.U.Q.).=X0.p.B.d.B.R. .) M.m.E. X X",
"a.B.m.a.T.iXXXM n.Q.T.~.~.(.p.b.X.O.=.` S J ) ..0.~.$XeX4XW.T T R =.T.2XiXrXd ..I.P.P.I.L.Q.P.N.N.(.~.q.M.#.n.b.M.| m.*.m.F.T./.",
"#.S.m.R.A.G.v.M B.(.T.V.T.S.n.n.b.N.~.G l D J ..0.d.W.pX<XW.] P E %.>XuXpX0Xd w.L.L.L.-Xz.P.I.P.d.L.W...{ { U X.M.) X.F.K.@.X.-.",
"+.+.$.*.m.`.f.~ B.T.T.(.T.n.n.n.T.T.5X3.! ! ` 3.d.k.h.XX  t !.A.E +.T.>X9X0Xd q.L.L.P.(.Q.Q.Q.Q.W.P.W.q.L { X.b.V.) $.@.*.a.@.-.",
"C.B.A.m.A..Xf.z #.n.T.T.E.B.T.P.V.V.V.( ( ~ ' i.k.l.s.W.~.O k.Y.| T &.>XrXjXf 9.L.l.N.Q.Q.%X#XQ.t.- I.d.q.} b.q.V.) $.m.m.C.p.#.",
"m.m.D.A.S.[.x.> e w y V 2.V z w : 1 x 9 s n n C 2.C ' Y.~.1Xi...| %.E +.S.eX>.V 3.2.2.w.w.w.w.t.w.L.l.9.(.N.b.q.n.n T *.*.Z.a.#.",
"A.a.A.V.&.;.D.g.5X2XQ.4X>Xd.~.T.g.d.V.g.5.k.2.V 7.8 ) 5X>Xg.A.$.D E I E R [.5...] 6 ; u t g g 7 8 j :.B 3.^ s m ~ 6 T | &.&.A.m.",
"J.T.F.m.+.E.l.s.!.W.W.W.eXB.R.Y.).{.~.2X2X{.).2XaXs.) Y.Y.~.' @.R } T } | $.H | } ..N.).W.V.B.b.b.L.%Xj.d.d.q.j.&Xe E T +.m.A.a.",
"S.S.D.*.%.%.@.3.Q.I.d.d.2X5.E.B.g.T.Y.l.R.T.L.F.}.Y.H T T B.fX..} p.@.A.a.Y.4.m...n.#.{.0. .n.L L o.M.z.z.L.V.-XjXN *.#.F.C.].' ",
"m.$.$.R +.Z.s.7.I.Y.L.d.T.q.E.~.Y.R.Y.R.R.Q.Y.E.2Xg.] p.a.$.S.A.A.p.g.m.A.!.y.$.g.p.B.%Xd...n.X.L Y { n.).P.V.=X*XN +.a.p.A.R.R.",
"B.#.} T T D.s.3.l.L.L.W.T.s.~.Q.Y.T.T.Y.Y.A.T.~.1XY.5.a.B.a.A.A.R.A.g.a.n.a.] a.p.B.Y.=Xs.9.V.n.q.X.O.! O.| | b.F.Z a.m.A.D.E./.",
"' ] $.x.R.4X4.6.l.l.l.L.Q.i.T.E.T.Y.Y.1X~.B.~.).).g.( g.g.i.p.m.....] S F } a n.Q.I.B.A.`  .b.b...X.n.b.p.b.q.b.F.m a.R.A.a.p.B.",
"r z w 8 w x.4.4.5.3.` ` ~ 5.T.Y.R.{.f.Y.{.R.L.T.3Xx.y y._ C Z Z z y r , w ! z 4.` 0.N.I.~ !  .b.O.{ b.n.b.n.n.b./.m C z y r y.y ",
"i.3X2XE.E.E.S.F.C.P p.a.] 5.Y.~.Y.(.Q.g.E.~.Y.R.5X'.0.E.E.E.R.'.R.].{.T.Y.Q.R.!.~.Y.!.#Xb ..b.X.M.q.b.n.b.N.P.P._.w.i.d.s.` ~.C ",
"] }.A.D.E.Q.S.A.>X9X,XrX..0.A.Y.l.Y.E.F.Y.1X~.T.].i.i.a.a.m.A.a.` !.Y.).2X%XI.Q.(.~.1XwX,.! p.n.V.n.n.P.P.L.P.T.=X0.).T.V.p.b.d ",
"( A.A.a.m.$.&.].iXeX5XfXOX4.{.~.R.Y.T.).~.{.~.Q.}.5.g.a.m.a.m.f.V d.L.Y.~.W.Y.L.Y.W.Q.1X_  .p.n.V.T.L.L.P.P.Q.(.{.d.p./.H.S.T.d ",
"' #.m.m.$.$.a.@.~.,X>XwX&X' Y.~.E.Q.Y.L.g.F.T.A.{.5.i.p.V.A.m.s._ B.W.d.I.~.Q.W.W.I.B.1X2...b.p.b.P.T.P.L.P.T.P.Q.0.b.n.H.S.E.y ",
"( m.E.C.@.U @.x.c.>Xm.F.C.Z i.B.T.E.~.Y.R.a.{.).{.' p.m.$.#.m.f._ i.p.L.Y.Y.(.L.W.W.i.~.7.! n.N.n.L.B.L.>XL.P.P.P.' T.S.V.V.V.y ",
"( g.A.A.i.~.>X5X,X$.p.S.F.M y.i.p.p.g.i.y.] @.g.E.v i.p.p.p.a.s.3.T.T.L.d.m.B.T.Y.g.B.R.( W q.n.N.N.B.I.W.W.L.L.L.V p.S.n.V.T.V ",
"( >X5X>Xx.@.@.p.@.@.B.a.C.C.D.m.E.E.R.p.i.i.f.X.m.i.] ..@.a.A.u.5.s.Y.T.d.B.B.n.p.p.p.E.x.p.T.V.T.W.9.s 0 m :.3.w.B x m m Q p.s ",
"v +.m.$.A.<X4X>XyX,X4XpX$X@.@.i.C.g.2X2X]./.Z.=.+.-.Z.~.,X$X3Xf.` Y.m.B.i...p.Y.Q.A.B.E.B.M.H.Z.V.H.6X*.q.b.(.H./.{.Z.=.=.-.-.v ",
"s i.@.a.!.$XyXeXyXiX9XyX!.R.a.$.E.R.'.x.i.p.d.m. .P U } B.*XrXj.p n.B.B.B.d.g.B.B.B.i.m.w.n.n.Z.S.A.1Xq.b.g.0.#.n.m. .o.| o.=.r ",
"Z !.R.!.>X!.>XeX5X,X>X1XB.A.A.a.F.{.{.A.g.B.g.Y.a.p.[ ) ) +.F.h.m q.p.B.B.B.B.B.B.B.i.m...M.m.V.Z.M.K.s.W.%Xz.[ | %.[ T T { =.w ",
"<.yX,X<X9X5X5X<X$Xx.C.Z.@.v.g.m.S.A.E.i.0.p.p.p.i.B.B.p.p.) #.( p ) p.p.q.m.B.b.p.P.B.V.c &.H.V.&.^.3X&Xg.9X*Xp.J L %.%.U { *.w ",
"d $X,X<X,X,X$Xi.] I D +.I ' B.p.#.m.A.M 5.i.p.....m.[ X.m.p.E.f.r ) [ [ ) q.0.' 0.' ` i.m [ q.M.X.*.~.c.4XrX*XL.Y E [ { { | =.M ",
"v !.dX;X<X<XOX5.j.k.k.g.@.) $.i.] a.Y.M p.B.0...i.@.#.] #.@.V.%Xc X.@.X.| ..~ m ( d.OXoXz.s. .p...[ W.j.%XtXiXl.F F  .F D S %.) ",
"[ $.Q.~.D.3X8X>X9XwXY.$.Z.~.wX4X~.E.2Xn ' A.B.p.X.p.p.' B.Y.g.!.i.Z.&.X.=.=.| 1X2X).=XrX*XT.V.G.H./.d.~ #X*X*X%X .} %Xl.*XL.+.I ",
") T.F.}.Q.}.R.k.z.c.p.P E T.,XiX*X<XgX:.] p.p.@.m.i.B.g.d.l.>Xx.5.X.X.[ U | l T X.O.N.n.I.0. .{ { m.V.~ %X*X*X*XW.M.%XQ.#Xd.| 2 ",
"J S.E./.Y.}.R.f.d.i.) U F U p.Q.%X*XgX<. .#.p.p.p.0.Y.B.L.l.~.c.) X.X.) [ [ G  .X.X.[ ..T.W.q.p.0.V.T.V p.L.,X&X4XY.>X,X,X4X*.1 ",
"F S.Y.].].|.Y.l.l.i.J P F D J @.p.Y.fX,.] V.b.V.i.i.a.~.W.W.W.OXW U | X.P [ J X.b.p.X.q.p.n.T.P.d.B.E.~ 0.#.=XwX4X,XtXeX&X*XS.9 ",
"P T.B.B.V.M. .d.z.' [ [ ) ) ) [ ) ..E.~ ( #.#.p.T.s.g.Y.R.!.%Xl.! S E { [ X.! ..N.B.B.d.d.V.B.B.B.X.=.n g...&.T.#X,X*X&XL.Q.%Xe ",
"3 5.i.( ) #.3 c W.W.0.X.] X.p.g.T.L.~.~ z c Q ( 0.` ~ M Z _ j.Z 3 3 S l a 4 p p.N.L.L.L.d.N.L...O.b.M.p i.d.` ) s.r.6.2.c p ! 1 ",
"B.5XwX!.%.H.m ~ ..B.p.] j.d.d.B.B.B.1XB.A.{.T./.E.c.d.c.C.E.3X5XA.@.@.} } } w d.T.I.T.(.(.T.d.B.p...K.T.p.M.Z.M.[.~.oXd.$X9X-X#X",
"wXwX;X;XT.J.XXm 0.d.~.W.l.0.i.p.p.S.n.] X.#.#.&.K.S.p.A.F.F.&.+.Z.Z.F.D.A.|.y 0.L.P.d.N.b.T.T.B.n.p.n...L...| &.Z.*.N.n.O.T.4X).",
"-XwXwXwXW.).oXV i.g.p...p.[ ) [ P } [ S } U T U +.*.@.$.$.$.C.@.$.C.C.C.A.].b k.L.T.P.L.d.P.P.B.B.N.V.d.%XI.{ | M.| d.Q.N.q.n.=X",
"n.V.*X;XwX=XXX2.g.B.L.0.X.i. .P F #...l $.$.) [ *.*.p.C.$.$.D.a.C.E.A.A.R.|.b L.Q.P.T.L.B.L.~.I.B.b.V.d.*X,Xd.L R o.L.(.(.(.P.N.",
"d.b.=XwXrXhXsXV L.Y.L.g.i.] X...P P #.l p.b.m.#.@.D...C.m.C.F.Y.g.E.E.R.'.6XV w.I.W.Q.W.L.P.(.T.P.L.N.OXrXwXY.U Y E [ b.V.V.T.=X",
"4Xq.b.(.&XhX@Xf V 3._ _ 3.m x y 9 p G e ] m 0.` M @.( m.m.A.A.].E.A.x.R.R.3XZ n ~ V ~ 3.~ ~ ~ ~ 3.3.V 2.&X&Xs.a S p K { o.n.V.P.",
"=X1XL.n.=XgXdXg.R.~.Y.T.x.~ ` 3.n s $.J i.6.W j C > ] C.F.v.C.A.'.2XR.].].3Xf.' Q r 6 :.2.1.B N u t n 2.2.1.C N n % L { E O.n.V.",
"^.b.V.b.V.gXoX9.m.b.V.p.}.wXrXuXtX>X%.(.A.|.2X2X[.*.c @.C.A.A.A.v.A.>Xx.R.R.y.@.}  .U T.2X(.2X{.1X6X1X6XeX1X3X7XeX<.S Y o.Y o.n.",
"X.^.Q.Q.U.=Xd.q.n.n.n.T.(.q.Q.B.E.Y.n.Y.B.P.V.T./.a.Q m.F.D.].Y.R.].{.'.].>X4.@.#.g.[ | V.0.T.B.B.Y.R.'.%X~.~.'.6Xu.4 Y Y Y O.&.",
"O.n.(.(.(.(.0. .q.b.b.T.{.0.p.X.b.M.B.S.B.V.B.b.Z.N.( p.C.B.A.].x.g.'.{.2X,X<.] d.p.E %.V.5.).R.l.Y.A.1X~.!.Y.~.2X6.F Y Y { o.O.",
"q.n.V.P.(._...q.V.p.N.n.1X .X.b.O.b.b.b.S.n.T.n./.Y.] p.A.A.].E.|.x.R.~.x.'.4.R.W.B.} #.A.] Y.~.Y.A.W.R.~.%XW.W.4Xz.a { | { { O.",
" . .X.q.N.Q.W ^ 9.9.9.e.L.8.9.I.e.q.{ A ! / / ! X._ w n n n m _ _ V V V M 2.7 c 1.~ a a a s 3.u.2.2._ 3.2.3.6.!.>Xf.i ! O.X. . .",
"# + + + $ h q q k k k k k 8.t.t.t.e.9.A A A A A W n t y w 9 : : % % + o o 5 & % ; ; # * * > q u u j N N j n B B B t o @ + + # 2 "
};
