/* XPM */
static char *result[] = {
/* columns rows colors chars-per-pixel */
"64 64 229 2 ",
"   c #68523D",
".  c #675742",
"X  c #786748",
"o  c #806D4B",
"O  c #8C774E",
"+  c #8A745A",
"@  c #8C7B5A",
"#  c #887654",
"$  c #947B53",
"%  c #917D5A",
"&  c #917F63",
"*  c #95845D",
"=  c #9A855D",
"-  c #9D8958",
";  c #9B854F",
":  c #A38C5D",
">  c #A48B56",
",  c #A9935D",
"<  c #BD9D5F",
"1  c #8D8265",
"2  c #958463",
"3  c #998660",
"4  c #9C8C6A",
"5  c #9A8C64",
"6  c #A28E64",
"7  c #B28F6E",
"8  c #A49264",
"9  c #A99464",
"0  c #AC9967",
"q  c #A6936B",
"w  c #AC9B6C",
"e  c #AA976D",
"r  c #BE9465",
"t  c #B39C66",
"y  c #BB9D62",
"u  c #B49D6B",
"i  c #A59873",
"p  c #AB9B72",
"a  c #A39572",
"s  c #B49577",
"d  c #B29E74",
"f  c #BA9979",
"g  c #BCA264",
"h  c #B5A26D",
"j  c #BBA56D",
"k  c #BEA86D",
"l  c #B4A066",
"z  c #AEA075",
"x  c #B5A373",
"c  c #BAA674",
"v  c #BDAA74",
"b  c #B4A479",
"n  c #B9A57B",
"m  c #BCAB7B",
"M  c #B7AA78",
"N  c #BEB17C",
"B  c #C1976A",
"V  c #C3A464",
"C  c #C7AA65",
"Z  c #CBAC66",
"A  c #C2A66B",
"S  c #C5AB6A",
"D  c #CBAD6B",
"F  c #C8A466",
"G  c #D1AF6C",
"H  c #CDB16D",
"J  c #CBB06B",
"K  c #D3B46C",
"L  c #DAB56C",
"P  c #D6B96E",
"I  c #DCBC6E",
"U  c #D2B267",
"Y  c #C1A673",
"T  c #C3AD74",
"R  c #CBAD72",
"E  c #C2AD7B",
"W  c #C9A87B",
"Q  c #D2AF7A",
"!  c #C6B275",
"~  c #CCB374",
"^  c #C4B27C",
"/  c #CBB57B",
"(  c #CEB97C",
")  c #CBB978",
"_  c #D3B573",
"`  c #D9B771",
"'  c #D6BA73",
"]  c #DBBC74",
"[  c #D3B67B",
"{  c #D4BB7C",
"}  c #DBBD7B",
"|  c #E1BD75",
" . c #E2BF78",
".. c #DCC176",
"X. c #D6C17C",
"o. c #DCC27D",
"O. c #DEC87E",
"+. c #E3C475",
"@. c #E2C47B",
"#. c #E4C97D",
"$. c #EACC7E",
"%. c #E9C977",
"&. c #F1D17E",
"*. c #BBAE81",
"=. c #B3AA83",
"-. c #BFB387",
";. c #BEB489",
":. c #C1AF83",
">. c #C5B483",
",. c #CAB582",
"<. c #C5BA83",
"1. c #CDBB82",
"2. c #C4BA8B",
"3. c #CDBD8A",
"4. c #CDB08F",
"5. c #D5B484",
"6. c #D3BD83",
"7. c #DBBE82",
"8. c #D2BE8B",
"9. c #D6B58B",
"0. c #CBBF92",
"q. c #DABE97",
"w. c #CFC387",
"e. c #CBC08B",
"r. c #D5C285",
"t. c #DCC483",
"y. c #DEC984",
"u. c #D4C38B",
"i. c #DBC58B",
"p. c #D6CB8E",
"a. c #DDCA8C",
"s. c #CEC392",
"d. c #D4C592",
"f. c #D9C691",
"g. c #D6C992",
"h. c #DDCB93",
"j. c #D3CA99",
"k. c #DCC99B",
"l. c #DED193",
"z. c #DDD29C",
"x. c #D7D088",
"c. c #E3C584",
"v. c #E8C785",
"b. c #E4CB84",
"n. c #EACB84",
"m. c #E2C68A",
"M. c #E3CC8B",
"N. c #EACD8B",
"B. c #E6D185",
"V. c #EBD185",
"C. c #E5D18C",
"Z. c #EBD38C",
"A. c #ECD98D",
"S. c #E8D98A",
"D. c #F2D383",
"F. c #F1D984",
"G. c #F2D58C",
"H. c #F4DC8D",
"J. c #F8D98F",
"K. c #E3CD92",
"L. c #E9CE92",
"P. c #E0CB99",
"I. c #F1CF93",
"U. c #E5D393",
"Y. c #EBD493",
"T. c #E6D995",
"R. c #ECDA94",
"E. c #E4D49A",
"W. c #EBD59A",
"Q. c #E6DA9C",
"!. c #ECDB9B",
"~. c #F1D593",
"^. c #F2DB94",
"/. c #F2D799",
"(. c #F2DC9B",
"). c #F8DB97",
"_. c #F4E18E",
"`. c #EEE19C",
"'. c #EFE096",
"]. c #F4E295",
"[. c #F3E39C",
"{. c #F9E49B",
"}. c #F4EA9C",
"|. c #FAEB9E",
" X c #FAE396",
".X c #D5CBA3",
"XX c #DBCFA6",
"oX c #DCD2A3",
"OX c #DDD3AA",
"+X c #DFD9BB",
"@X c #E4D6A3",
"#X c #E6DAA4",
"$X c #EBDCA3",
"%X c #E4DCAA",
"&X c #EBDEAA",
"*X c #F2DEA2",
"=X c #F1DFAC",
"-X c #EADEB2",
";X c #E0D7B4",
":X c #EEE2A4",
">X c #EDE3AC",
",X c #E7E0AD",
"<X c #F3E4A3",
"1X c #F5E9A4",
"2X c #F8EBA4",
"3X c #F2E5AC",
"4X c #F4EAAB",
"5X c #F9EDAA",
"6X c #FAF2AB",
"7X c #F7F1AB",
"8X c #EDE5B3",
"9X c #EBE5BC",
"0X c #E6E0B3",
"qX c #F2E5B2",
"wX c #F3EBB3",
"eX c #F5EDBA",
"rX c #F9EBB3",
"tX c #F7F2B4",
"yX c #FBF3B4",
"uX c #F7F2B9",
"iX c #F8F3BD",
"pX c #FDF9B6",
"aX c #DAD4C2",
"sX c #EFE8C0",
"dX c #F7F2C5",
"fX c #F9F2C1",
"gX c #F7F2CA",
"hX c #FAF6D2",
"jX c #F0E7C4",
/* pixels */
",.rXL.M.i.M.U.|.6X6X6XpXS.3.&X$X*XZ.N.^.Y.*X(.Z.).2XA.^.|.}.5X8Xd.<X*X*X8.m./.J.*X/.$.D.B k T.<X4XE.!.[.u.l.l.Q.5X1X7.I.N.7. .N.",
": @.b.b.S.S.b.A.^.S.A.].C.e.Y.Z.c.M.M.W./.N.Z.W.(.!.] c.c.] $.b.m 7.N.N.~.M.L.v.v.v.v.G._ ^ l.U.U.T.U.1X:X$XT.T.4Xz.` L L U  .).",
"% K ..I ..B.X.X.b.O.b.H.B.W } $.@.M.M.N.N.~.M.M.{.C.} o.#.@.b.M.:./.N.m.v.v.N.7.7.c.c.~.{ 1.h.W.Q.U.K.l.T.&X$XT.W.e.@.L L L | J.",
"% ..o.+.O.B.O.C.C.S.M.B.B.t D _ } v.} Y.Y.W.N.m.Z.M.} b.Z.C.v.U.c m.N.N.m.v.N.N. .v.N.).i.6.U.T.W.T.U.U.i.T.!.`.`.h.G L L L I _.",
"- ' ......B.#.B.C.[.C.$.S.! U.E.{ @.M.M.N.M.M.K.Y.t.~ A.N.~.M.U.Y m.v.v.v.v.c.c.c.c.m.).T.^ l.U.U.T.U.T.h.U.Y.R.*Xu.G G L | G D.",
"; P $.#...K ..O.y.!.S.O.$.N u.i.[ S A j c m c h 5.p.0 ( [ } t.p.W N.I.7.v.7.c.v.N.} c.I.T.^ u.l.u.u.U.a.r.X.a.r.r.^ 7._ L |  .G.",
"- ....P O...O.+...b.'.R.].$X/.].G.D.{.y.o.^.2X5X6X).Z.t.t.a.!.`.n 7.c.v.c.v.v.v.N.I.m.^.<Xi.M.C.T.a.x.M M M T ^ u.^ R v x h c f ",
"; J P O...U ....' $.[.[.S.r.M.M.M.U.(.Z.M.#.Z.A.Z.^.C.M.A.'.{.:Xc c.v.v.v.7. .v.c.N.N./.(.} @.#.b...F.y.Q.:XT.R.`.4XU.T.[.<X2X^.",
"O X.P ......U ......S.`.T.t.y.t.y.M.Z.7.t.b.b.b.S.R.T.y.b.#.$.S.E m.c.7.7.v.v.7.v.N.I./.i.b.I ] +...%.] i.T.E.t.y.(.$XU.W.K.Y.{.",
"X J P ..P ..U P ..O.$.'.T.b.M.i._ c.~.t.M.U.M.N.~.o.@.@.K P P +.u c.v.I.v.v.I.N.v.v.W./.i.b.+.+.+...%.J 7.a.U.Y.M.a.Y.U.!.W.T.6X",
"* X.....P U P P P ..$.'.r.~ ] X.' P n.~ M.T.R.Y.N.Y.X.n.o.] I +.u c.v.c.v.N.N.N.v.L.L.*Xf.A.n.#.%.I +.U t.y.K.M.y.M.i.i.U.(.*XpX",
"* l J H J J ~ S C C ) O.! ,.) 6.H D +.v U.M.Z.A.R.R.b.b.O.@.#.#.u Q [ 5.[ 7.Y.L.P.m.7.I.i.#.O.@.+.I +.~ K.t.b.K.t.Z.E.M.M.W.Y.tX",
"h ......} X.^ h v ) ^ ( ( ;.s.g.g V ' t M.Z.N.Y.^.C.Y.A.#.b.o.V.[ v.a.y.} 5.u n :.Y W 5.^ ( { o...J U h K.M.o.b.a.' Y.Y.t.t.U.2X",
"8 z.$XQ.8X4X!.Z.^._.].Y.H.].^.^.G.^.J.T p.R.M.m.^.Y.M.M.b.Z.G.$.[ Z.M.N.b.].U.E.*XL.m./.(.^.A.R.U.b.' l 3.M.t.] c.M.] t.M.U.M.A.",
"1 8X>X>X8X3X-X} G.n.Z.M.@.b.N.Z.Z.R.1X1.K.!.Y.T.{.(.Y.Z.b.C.y.b.~ @.b.N.v.Y.M.5.7.m.[ } } } } c.$X!.Y.v p.M.K.t.o.O.o._ b.M.U.E.",
"1 9XwX8X9XeX;XS #.n.n.n.m.c.N.Y.Y.Z.7X1.l.[.T.Z.Y.R.!.R.M.R.S.U.[ o.c.Z.W.R.t.D ` c.v.m.v.i.M.7. .N.!.m K.a.M.i.t.} y.D U ] Y.9X",
"5 >X>X,XwXeXOXS  .@.n.N.N.N.Z.N.N.M.}./ r.T.T.Y.W.!.R.^.Y.C.Z.C.{ v.c.M.Y.!.6.} } 7.m.7.m.m.m.i.m.I.!.n K.U.Y.M.i.t.Y.{ H K ..<X",
"# 6.W.#X>X0XOXF ` ] $.G.M.L./.Y.Y.v.H.r.,.l.U.Y.T.l.C.M.C.M.C.y.! n.M.M.Y.W.( m.7.7.L.K.q.L.K.m.i.Y./.x M.i.M.Y.h.M.M.M.6.( X.#.",
"= c ) 3.d.%X*.A M.@.N.(.*Xi.N.Z.N.%.G.c.w.l.p.M.W.( ^ ^ ( ( r.r.0 R r.6.6.M.c m.L.m.m.L.L./.@XI.K.L.3Xd t.u.( ( ) v l k h k [ T.",
"Z.T.b.b.^.rXj.T c.X.C.K.W.Y.v.c.@.%.$.} l.Q.T.!.<XY.T.[.!.'.H.].Z.V.^.<X!.$Xw i.W.L.P.m.W.K.L.I.~.<X(.6.y.M.i.a.Y./ ~ n.b.R.}.|.",
"y.M.b.y.Y.uX.Xm v.T.Y.(.(.W.y.c.} | $./ C D ~ [ 6.W.#XuX3XE.P P I %.A.1XuX9Xp [ m.W.L.P.K.I.L.m.m./.!.7.n.o.v.c.b.] #.b.n.A.Y.H.",
"o.Z.b.T.C.D.x.Y L.R.L.N.Y.Z.v.v.c.M.W.A g C D 6.6.i.E.iX,XE.) K U #.:XuXiX9Xi 8.m.P.K.=Xk.L.P.P.f.K.E.5.] K _  .n._ X.S.Z...X.#.",
"] ..y.#.b._.p.E N.Y.Y./.Y.v.v.c.Y.W.4X,.R T / ( p.f.s.eX<X:XQ.h.U ..Y.:XwX9Xa t.K.K.L./.@XW.@XE.L.W.E.7.G ` } } N.[ o.o.#.y.o.#.",
"b.B.M.b.S.].p.h } M.Z.Y.W.M.Y.Z.N.n.N.T / ! ( 8.h.f.e.E.!.U.g.Y.] P @.:XwXjXp 5.P.K.m.W.W.W.*XW.P.W.P.m.7._ c.c.M.~ o.b.b.B.o.o.",
"b.M.S.Z.A.^.l.= 9 8 w m >.Y h 9 * : j 6 t x x M >.M { U.`.<Xr.X.] +.K ..B.eX=.n ,.>.>.8.8.8.8.f.i.P.h.9./.m.c.7.M.h P #.#.B.b.o.",
"S.y.C.M.@.&.A.a.4X1XW.3X:Xi.!.E.a.i.N.a.3.f.<.m 3.2 ! 4X`.l.C.X.V U J U ] _.{ { / 2 1 w a q 6 4 2 d m b ,.E u Y E = P ..@.@.C.b.",
"H.A.Y.b...R.h.u.E.E.U.E.4XK.T.U.^.<X!.1X1X(.(.1XpXu.~ Y.U.W.( X.I ' ' ' ..o.S ] ] } m.[.E.N.m.c.c.K.$Xf.i.i.8.f.&X9 U P ..b.B.y.",
"A.Z.A.#.+.+.X.,.W.E.f.i.1X1.R.K.a.Y.Y.p.T.T.M.Z.{.U.S P P M.dX[ ..o.X.C.y.U.1.b.[ v.o.(.6.[ v._ U  .c.k.k.M.N.*XjXb @.o.Z.b.'.1.",
"M.o.@.....V.u.3.P.K.K.a.Y.6.T.W.U.T.U.T.!.T.U.!.1Xa.) t.y.O.Z.S.K.t.a.a.C.T.w.t.i.y.m.$Xi.5.N.[ G G | v.*XN.N.*X&XM o.y.y.C.R.T.",
"M.X.' P I A.u.,.h.K.P.Y.Y.r.(.T.K.T.Y.U.U.K.T.R.<XU.1.y.M.y.M.C.T.S.y.O.b.a.( y.i.M.U.*Xu.7.N.v.7.}  .R | ] } c.Z.M b.B.C.S.R.R.",
"( ) o.p.T.4X<.2.h.P.h.K./.u.Y.(.W.U.U.<X!.M.!.(.^.a.! a.a.r.t.b.{ ' ~ S C ] < M.Q.K.M.M.! [ c.c.{  .v.c.o.v.} c.S.c t.T.C.a.y.b.",
"t h 8 5 8 g.<.<.1.,./ / E 1.U.C.R.[.p.M.].!.K.Y.7Xl.w w.N M N ^ x w 0 - 8 T h / / 6.m.P.T / }  .} _ c.v.c.v.M.c.(.c M l w 0 w.w ",
"r.2X<XR.R.R.N.S.b.H t.y.' 3.T.!.U.(.T.M.^.Q.U.W.4X`.r.R.R.^.U.`.T.`.(.Y.Y.Q.U.#XW.U.#X@Xx ( c.} n.} c.v.c.m.L.L.).u.u.t.u./ !.M ",
"~ }.U.S.R.R.Z.C.:X8X>XeX( ( U.U.M.U.W.S.T.1XW.T.'.6.r.a.y.b.C.y.) W.U.(.<X:XK.T.!.!.<XqX*.R t.v.N.m.m.~.L.L.L.L.$X6.(.Z.N.t.c.i ",
"~ C.A.y.b.O.o.[.uXwX4XfXoX1.[.!.T.U.Y.!.W.(.R.R.}.1.y.t.b.t.b.p.M i.U.Y.!.E.W.h.U.E.W.1X>.[ c.v.v.~.K.m.L.W.Y./.(.i.c.~.~.Z.Y.i ",
"( X.b.B.o.o.b.X.W.>X:XwX%X^ U.!.W.T.U.C.a.Y.U.C.{.( t.t.C.C.b.p.^ K.K.p.P.W.W.Y.U.U.a.<X>.{ c.t.c.L.W.L.m.L.W.Y.W.6.y.N.Z.Z.H.p ",
"! b.R.b.X.H X.l.E.`.a.Z.B.v p.M.Y.!.T.U.T.a.}.(.[.( y.y.X.O.v.p.^ t.i.K.U.U.Y.L.E.U.i.W.3.R n.m.M.L.m.P.<XK.L.L.Y.,.Y.Z.N.N.n.p ",
") a.B.C.r.!.:X4X>Xy.y.B.S.M w.X.t.t.K.6.1.) } a.!.l { t.t.t.y.u.,.C.W.K.i.M.M.Y.U.a.a.W.! Y 7.m.m.i.K.U.W.K.K.P.K.m t.Z.v.N.S.N ",
"! :X4X:XU.X.o.O.X.X.C.y.B.B.A.b.A.R.R.r.r.t.a.X.b.t./ 6.X.y.C.e.1.u.C.Y.t.N.M.M.t.t.y.!.M.t.Z.N.Y.U.5.t q b E >.9.c g c c R 7.d ",
"l ..b.t.l.:X>X,XwX>X4XiX#XX.X.r.M.l.1X}.R.^.S.b...%.V.R.8X#X}.p./ K.c.U.r.6.t.M.W.M.M.R.M.b.G.V.G.Z.5Xc.7.t.^.G.[.[.Z.$.$.%.%.t ",
"h r.o.y.T.#XtXuXtXuX8XtX!.T.y.O.R.R.`.C.r.r.a.b.{ D U P M.&XeXd.u M.M.M.a.i.M.M.M.K.} a.u.c.n.G.A.M.<X} b.a.6.] @.b.] ] ] | $.0 ",
"N Q.T.Q.:X#X:X3X3X4X:X:Xa.C.C.y.Z.[.`.C.a.C.a.U.y.t.[ ~ P { Z.s.h t.c.M.M.M.M.M.M.M.t.c.[ n.v.M.Z.N.F.u.P.#Xh.[ ] @.' _ _ ` n.8 ",
";.tX>X#X,X4XwX,XQ.l.#.Z.X.l.y.B.Z.C.R.r.6.r.7.t.r.M.b.i.t.) } / t ~ o.t.} b.M.M.y.K.M.Z.k @.G.v.@.G.2X&Xa.qX&Xi.G U +.| K ' #.9 ",
"i #X8X,X>X>X,XX.) ! S ..J ( M.X.o.b.C.v w.t.r.} } v.) } y.y.S.p.0 ~ K [ ) 7.{ / 6.( / 6.h [ c.N.} @.!.oX>XiX>XM.P Z ` ` ` ] $.k ",
"g Q.9X0X,X>XoX1.g.j.g.M...) o.t.' y.U.M r.M.{ r.t.{ X.~ t.} C.#Xk } o.] ] [ m v ~ u.XXXXj.i.{ t.{ [ E.d.&XrXuXa.C Z [ C V F +.) ",
"_ b.W.!.A.1X7X:X8XqXC.@.B.W.wX3XW.R.1Xx [ C.a.t.{ y.y.( M.U.a.!.6.V.c.] #.V.] *X<X(.<XeX%XZ.n.Z.G.^.i.Y @X&X&X#X[ ] !.K.$XU.] D ",
"H Y.A.{.Y.}.T.f.h.k.t.K U Y.>XeX,X,XdX*.( y.O.} b.r.M.i.p.M.:Xl.6.{ } ~ K ] g `  . .m.c.P.6._ ` _ n.Z.E #X*X%X&XQ.c.#XW.Q.i.] > ",
"D Y.R.R.Y.[.T.g.p.6.~ P S K t.W.#X>XgX-./ } t.t.t.6.U.M.K.h.!.z./ } ] _ _ ` A { { } [ } L.W.t.7.6.M.R.m a.K.>X&X=XY.>X>X>X3Xb.: ",
"Z C.C.[.`.}.C.k.K.r.D D Z C Z o.y.M.dX-.( M.y.M.t.t.t.W.E.E.W.oXT _ ] ` H _ S } c.c.} 7.t.m.Y.U.i.M.^.E 5.o.[.3XqX3XrXwX%X,XZ.: ",
"H Y.M.M.v.Z.{ u.h.( _ ) H [ ~ ~ ~ { R.T ! t.} t.Y.u.a.T.E.!.:Xg.A F U ' ] } R { m.K.m.i.i.N.M.M.M.} n.h h.} o.Y.@X>X&X&XK.W.*X8 ",
", 1.r.! ~ o., k P.z.r.} / } t.a.Y.K.$XE h v ! / 6./ E c N ^ u.<.9 , V g y y 0 c.i.K.P.N.i.c.M.} o.@.n.t u.i./ ) u.s.;.>.j u R : ",
"M.wXqXT.+.G.j E } M.t.[ d.y.i.a.K.M.[.M.M.].A.~.R.z.p.z.y.R.1X1XC...{ ' ' ' 9 t./.K.Y././.T.i.M.7.o.G.L.X.n.V.n.^.!.oXi.#X8X=X@X",
"qXqX-X-XY.J..Xc 7.i.Q.T.h.( y.7.t.Z.M.~ ' o.+.o.D.Z.y.C.S.S.#...B.S.S.A.C.}.w 3.M.P.m.m.c.W.Y.m.M.c.v.6.U.{ | @.D.@.m.M.@.~.3X(.",
"=X3XqXqXE.'.XXm r.a.t.{ y.[ ~ ~ K ' P V { ' K K ..#.X.o.O.#.b.{ #.B.b.B.C.'.w h.K.Y.L.M.i.L.L.M.M.c.N.f.#XP._ ] n.| i.Y.m.{ m.*X",
"m.M.=X-X8X*X.X:.a.a.M.6.{ t.{ D D } } g @.O.~ ' #.n.O.B.y.O.A.y.M.A.S.M.T.1Xz h.W.Y.W.K.M.L.(.K.M.t.N.7.&X>XM.U I | K./././.L.v.",
"m.c.*XqXeXhXaXE M.E.h.i.t.{ { { D H X.g t.y.b.t.X.A.( B.O.B.S.T.a.R.R.!.'.5X*.6.E.P.W.E.P.L.W.K.L.K.m.@XrXqXP.U L D _ v.M.N.Y.*X",
"3X7.c./.&XhX;Xp m ,.^ ^ ,.x j w : t A 9 ^ v { / v X.! b.B.C.B.'.T.S.l.T.T.2XN x E m :.,.>.E E E >.>.T >.%X%Xu.y V t F L | v.N.L.",
"*X*XL.N.$XgXjXm.R.!.Y.Y.l.E / ,.x u o.H r.2.c d x = ) B.C.a.B.C.`.1XT.'.'.2Xp.( T 9 3 n >.E n b s q d :.>.*.n c x @ G ] U  .v.M.",
"~.m.N.7.N.dXXX/ M.v.N.o.<X4XuXrXrX:X@.(.C.}.5X2X Xy.k X.B.C.A.C.x.C.:Xl.R.T.w.o.] { K Y.4X(.1X[.1X5X1X5XtX<X6X6XtX:.V L | L  .v.",
"| ~.W.W.I.<Xf.7.c.c.v.W./.i.W.M.W.Z.c.Z.C.N.N.L.H.y.! y.S.S.R.T.U.'.[.`.`.:X<.X.X.a._ ] N.6.Z.M.a.U.T.[.Q.Q.W.$X4Xe.y L L L  .@.",
"| N./.W././.5.{ 7.m.7.I.).6.t.} c.n.M.C.N.N.M.t.Z.a.! t.b.C.S.T.M.a.R.1X:X>X;.) i.t.H +.M.w.'.T.U.C.U.:X$XT.U.!.<X3.F ` L K | | ",
"7.v.N.L./.).5.} N.7.v.v.<X[ } t.} v.v.c.Z.n.L.v.J.U.) y.C.S.!.R.1Xl.!.R.l.`.e.T.E.b.' ..B.^ U.!.M.U.U.T.Q.!.E.T.4Xg.B ` | ` `  .",
"} [ } [ m./.Y W 5.5.5.9.P.,.9.P.m.5.Q B R Q Q Q { <.6 x x x c ^ N M m m M <.5 j :.E V B y u ,.3.>.>.,.1.>.,.3.Q.:Xp.t G | } [ [ ",
"o X X o + s 7 7 f f =.B f 4.k.q.q.9.Q B B B B B A x 8 w 8 5 = = @ @ X . . 2 # # & & O $ $ = 7 p e x b p d b b n b q . o o X O : "
};
