/* XPM */
static char *result[] = {
/* columns rows colors chars-per-pixel */
"64 64 244 2 ",
"   c #3F102A",
".  c #391538",
"X  c #2C113A",
"o  c #44142B",
"O  c #4C1A2D",
"+  c #511E2E",
"@  c #491C33",
"#  c #531E32",
"$  c #55212F",
"%  c #5B2532",
"&  c #582635",
"*  c #4F2233",
"=  c #692F3B",
"-  c #642B39",
";  c #6D323D",
":  c #64343C",
">  c #72363F",
",  c #14134F",
"<  c #1A1248",
"1  c #161A56",
"2  c #191758",
"3  c #351745",
"4  c #28184C",
"5  c #1A205C",
"6  c #282656",
"7  c #392E56",
"8  c #271A69",
"9  c #1C2565",
"0  c #1F356F",
"q  c #2A2473",
"w  c #292A76",
"e  c #263A7D",
"r  c #273677",
"t  c #2F3067",
"y  c #1E1A60",
"u  c #492643",
"i  c #483C57",
"p  c #713440",
"a  c #7B3C43",
"s  c #763A43",
"d  c #653846",
"f  c #443258",
"g  c #304A7C",
"h  c #734F4C",
"j  c #786A4B",
"k  c #53526B",
"l  c #645A6D",
"z  c #746A6B",
"x  c #706C71",
"c  c #594A5A",
"v  c #803F46",
"b  c #864648",
"n  c #9E5652",
"m  c #975C52",
"M  c #8F534E",
"N  c #A35D55",
"B  c #9B6353",
"V  c #8A7552",
"C  c #AE715B",
"Z  c #8B796B",
"A  c #BA7C61",
"S  c #9A865B",
"D  c #9B854F",
"F  c #AB935E",
"G  c #988766",
"H  c #918674",
"J  c #A79568",
"K  c #B49B67",
"L  c #A89976",
"P  c #B59D71",
"I  c #AD8865",
"U  c #BBA46D",
"Y  c #B8A36B",
"T  c #B6A373",
"R  c #BDAA74",
"E  c #BCAB7C",
"W  c #B8A577",
"Q  c #AEA273",
"!  c #CA916A",
"~  c #CC996A",
"^  c #C38966",
"/  c #CBAD6A",
"(  c #C4A867",
")  c #D3AA6C",
"_  c #CDB16D",
"`  c #CBB06B",
"'  c #D3B36C",
"]  c #DAB46D",
"[  c #D9BA6F",
"{  c #C3AC77",
"}  c #CDB474",
"|  c #C4B27C",
" . c #CBB67C",
".. c #CEBA7C",
"X. c #C5B276",
"o. c #D3B573",
"O. c #D6BA73",
"+. c #DBBD73",
"@. c #D4BC7C",
"#. c #DBBD7B",
"$. c #D5B778",
"%. c #E2BD76",
"&. c #DCC176",
"*. c #DCC27C",
"=. c #D8C37D",
"-. c #E3C474",
";. c #E2C47B",
":. c #E4CA7D",
">. c #E8CA7B",
",. c #F1D17E",
"<. c #293E84",
"1. c #2A3D85",
"2. c #313C89",
"3. c #2B468A",
"4. c #2E4B92",
"5. c #324A94",
"6. c #2D5692",
"7. c #32529B",
"8. c #33599A",
"9. c #325396",
"0. c #2E518A",
"q. c #336896",
"w. c #365CA4",
"e. c #3659A5",
"r. c #3962AC",
"t. c #3669A6",
"y. c #3678AB",
"u. c #3B66B3",
"i. c #3B6BB4",
"p. c #3B78B9",
"a. c #485A8D",
"s. c #4179B9",
"d. c #4472B2",
"f. c #517698",
"g. c #3A86BC",
"h. c #3B93BE",
"j. c #4484BE",
"k. c #4D92B4",
"l. c #7592A5",
"z. c #5CA6AD",
"x. c #7BA6AA",
"c. c #70D4B4",
"v. c #3B9AC4",
"b. c #3B94C2",
"n. c #3B8FC0",
"m. c #3FA0C7",
"M. c #4899C6",
"N. c #498EC2",
"B. c #47A8CA",
"V. c #56B5C9",
"C. c #4EB6D1",
"Z. c #52BCD4",
"A. c #55B3D1",
"S. c #4DB1CF",
"D. c #64B1CD",
"F. c #6A99C9",
"G. c #5BCCDB",
"H. c #56C4D7",
"J. c #65C9DA",
"K. c #68D2DC",
"L. c #72D0D5",
"P. c #77D9E1",
"I. c #6DD7E0",
"U. c #7EE1E4",
"Y. c #8D8886",
"T. c #B8AA83",
"R. c #BDB389",
"E. c #A6A28E",
"W. c #A9B0AE",
"Q. c #C8B785",
"!. c #D3BD83",
"~. c #DBBE82",
"^. c #D3BF8C",
"/. c #C6B68C",
"(. c #B8CCA9",
"). c #D4C284",
"_. c #DCC483",
"`. c #DEC984",
"'. c #D5C38B",
"]. c #DCC58A",
"[. c #DDCA8C",
"{. c #D6CA8E",
"}. c #DDCC92",
"|. c #D6C894",
" X c #DED196",
".X c #CEC58F",
"XX c #E3C583",
"oX c #E4CB84",
"OX c #EACB84",
"+X c #E2C68A",
"@X c #E3CB8B",
"#X c #EACC8B",
"$X c #E8C685",
"%X c #E5D18C",
"&X c #EBD38C",
"*X c #EAD488",
"=X c #F3D78A",
"-X c #E3CE92",
";X c #E8CE93",
":X c #E5D393",
">X c #EAD493",
",X c #EDDA94",
"<X c #E4D39A",
"1X c #ECD699",
"2X c #EBDB9B",
"3X c #E7D998",
"4X c #F3DB94",
"5X c #F2DC9B",
"6X c #F2D695",
"7X c #F1CF93",
"8X c #EEE19C",
"9X c #F3E39D",
"0X c #F7E599",
"qX c #F4E18E",
"wX c #D7CDA4",
"eX c #DCD3AA",
"rX c #EBDDA3",
"tX c #E6DAA8",
"yX c #F2DEA4",
"uX c #E8DDB2",
"iX c #EEE2A9",
"pX c #F3E4A3",
"aX c #F5E9A9",
"sX c #FAF2AB",
"dX c #EEE5B5",
"fX c #F4E9B6",
"gX c #FAF4B6",
"hX c #8AD3D3",
"jX c #96E3D3",
"kX c #A8E6CC",
"lX c #B7EECB",
"zX c #A6EBD6",
"xX c #8CDAE4",
"cX c #8CE9E8",
"vX c #87E5E6",
"bX c #94E9E8",
"nX c #B3EAEB",
"mX c #ACEAEC",
"MX c #A7DDC7",
"NX c #F7F1C8",
"BX c #CDEBF0",
"VX c #C5EAEB",
"CX c #D1DFCC",
"ZX c #88AACF",
/* pixels */
"Q.fX;X+X{.`.3X0XsXsXsXgX3X).tXrXyX#X:X6X>XyX5X#X5XaX*X4X0X0XsXF.BXpXyXyX^.+X7X4X5X1X>.=X( U 3XpXaX3X1X5X'.}.}.3XsXaX~.7X$XXX~.#X",
"F ;.:.oX*X,XoXqX8X*XqXqX*X.X:X%XXXoX#X>X6X&X>X1X0X2X#.:.;.+.$XbXBX~.+X7XwX#X#X$X$X$X#X7X) { @X:X3X3X3XpXrXpX3X3XaX X[ ] ] ) %.0X",
"V ' +.+.&.:.=.=.*.*.oXqX%X{ +.:.;.#X#X;X#X7X@X#X0X#X#.;.$XXXXXBX/.1X#Xi.mX#X7X_.XXXX$X=X#.Q. X3X3X:X}. X3XrX2X3X3X.X-.] ] ] %.=X",
"S &.&.;.:.`.=.%X*X3X`.*X*XK / o.*.XX#.>X:X1X>X_.&XoXE.oX#X$Xl.bXT.$X#Xd.mX$X$X#XXX$X$X5X].!.:X3X3X3X:X:X{.3X2X8XpX|./ ] ] ] ] qX",
"S &.&.O.&.:.,.%X*X8X%X>.*XX.:X3X#.*.@X@X#X@X-X@X>X_.BX&X&X4Xl.u.T.$X+Xd.cX$X$X%.~.XX$X5X3X| [.3X3X:X,X:X X%X,X,XiX!.) ' %.%.) ,.",
"D O.:.:.&.O.&.&.`.0X&X*.>.E '.[.$.( ( U U { T Y !.|.BXo...Q.n.j.L #X7X5 cX~.$X$X-X^.W.>X3X| {.[.'.). X{.).=.{.).).Q.#.o.) %.%.=X",
"D =.O.&.:.&.&.:.&.oX8X,XqXrX1XqX*X=X0X].=.4XaXsXsX5XBX_._.|.G.A.r ~.$Xn.D.$X$X$X$XeXCX6XpX_.[.%X3X}.{.R W R R | '.E { R T Y R U ",
"D _ &.&.&.' &.&.&.:.9X8X,X].@X@X@X>X5X%X#XoX*X&XOX4X, :X*Xj.G.B.0 $XZ S.N.{ ~.$X(.cX<X5X5X&.:.>.oX-.,.`.3XiX3X,X9XaX:X,X9XpXaX5X",
"D _ ' &.-.&.` &.&.&.*X8X8X`.{.`._.#X&X)._.#X`.*X&X,X, T.z p.H.B.q ].6 G.M.2 XXz s.|.;X1X].:.+.+.-.-.-.&.'.>X3X].`.2XrX>X1X}.>X0X",
"j ` &.&.[ &.' [ &.=.oX8X%X`.`._.$.:.&X_.@X%X@X#X&X#.1 (.7 p.v.S.9 , q.H.B.2 Q.e.N./.1X6X[.oX&.-.&.-.>.` _.{.;X>X[.@X:X>X1X1X3XsX",
"S X.&.&.[ ` ' O.[ &.:.qX)._ #.=.o.o.:.} -X,X,X>X&XT.<.y., s.Z.M.e.7.r.p.d.2 a.B.Z.0 7XyX{.&X,.>.-.-.-.` _._.@X@X_.@X].].>X5XpXgX",
"S Y ` ` ` ` } ( U ` _ :.X.Q...@._ ' -.U %X@X&X-X-X9 <.G.G.N.v.n.s.s.s.p.s.d.d.C.v.g 0 /.{.`.=.-.-.[ -.} ;X_.oX>XoX&X3X[.@X2X>XgX",
"Q &.&.&.&.).X.Y X.X.X.Q...R..X|.Y Y / z H H Z q.q.y.3.B.G.i.p.N.G.G.K.G.I.P.D.C.B.B.B.y.g.x Z R #.( ` Y }.@X#.oX[.$.,X3X_._.;X0X",
"J  XrX3XdXaX2X&X4X4X0X,X4XqX4X5X>Xk g v.m.m.cXbXcXcXJ.u.n.i.i.N.G.K.cXvXG.vXcXG.G.G.Z.v.m.m.v.6.1 1 ' Y !.@X_.#.XXoXO.XX@X:X-X,X",
"G dXiXiXdXdXuX_.=X:.&X$X_.oX!.L 6.B.J.cXbXmXnXBXBXBXBXu.s.i.u.G.I.cXcXmXvXG.G.G.G.Z.S.H.G.G.G.S.p.8.1 J {.-X%X_.*.*._.' XX#X:X3X",
"H dXfXdXdXdXuX( :.OXoX#XoX, 6.b.I.cXcXnXBXBXBXBXBXBX$ $ $ # # # x.bXBXBXBXBXBXBXBXI.G.G.G.G.G.g.1 , ,     [.@X]._.*.*._ ` #.:XdX",
"G iXiXiXdXfXeX( %.;.OXXXx f.D.G.I.cXmXmXnXVXVXVXY.@ p v b b b v - : MXBXBXBXBXBXBXBXBXVXbXD.b.0., u h n h h 7X[.]._.%X@._ ' &.pX",
"j ..3XtXdXiXeX( [ +.$Xk ZXBXJ.G.G.G.cXcXcXzXlXz = - p C ^ n n b o $ l.VXBXBXBXVXK.K.K.K.G.v.r.1 @ ; n ! ^ % ~.>X@X@X#X#X!...=.XX",
"G R ...X|.tXR.U #XXX~.8.hXG.G.H.lXlXG.xXjXlXH B A s % ! ! ! M o b C M x.VXlXlXlXlXlXhXH.v.y., . > n B B B $ G ..| R Y U Y U @.:X",
"&X,X`.:.2XfX|.{ ;.#.z I.xXH.G.zXlXlXG.G.L.bX# I ! @ o p v & o o % ] ~ % lXlXlXlXjXL.G.m.v.3., $ n b = b C C + oX>X..} oX:.4XaX0X",
"`.[.`.`.>XgXwXR oX}.7.G.G.G.I.zXlXkXG.G.K.cX& ~   6 # z   H M o + C N & lXkXlXlXK.G.H.v.n.9   $ n % > N ~ ~ N : :.&.:.oX*X:X&XqX",
"*.*X*X,X%X=X{.R ;Xx 3.N.G.G.bXxXvXG.G.G.G.vX& A o 7 v -   b v . * ~ b a.L.G.jXlXlXV.B.v.4.,   # = > n ) -.-.) N { } =.*X*X&.=.>.",
"&.&.*.oXoX4X{.{ @X9 1.r.7.A.J.L.D.V.H.G.G.I.9.; n 6 . =   s . 3.u # a.N.G.G.L.J.G.b.g.6.e , o O % n ) ) ~ ~ ] ^ - o.`.=.oX*.&.*.",
"*XoXoX`.*X0X{.Y c 1.7.u.7.i.u.w <.8.M.H.G.A.9.. - . <.t t r 7.u i a.Z.G.G.jXkXk.t.7.7.<.<.,   o > > n n C ! ! ! h { *.:.oX*X`.*.",
"`.oX&X&X&X0X[.S i 4.i.S.k.8.7.8 7.n.v.b.p.G.C.w.r.o . i.i.k.G.i.S.G.G.J.kXkXl.g i.u.p.p.<.2     + ; M n n N ^ s # ~ o.:.:.*X`.*.",
"%X`.%X%X*.,.,XE e D.J.cXvXF.2.8 4.p.p.i.w.q.G.G.M.M.M.M.H.G.G.G.G.L.c.z.t.8.7.7.i.p.p.i.e.8 , X o O > > a V C C M j ' -.;.;.*XoX",
"4X,X&XoX-.,X}.T.r vXvXb.b.r.w 8 8 w.i.n.g.g 3.k.G.G.J.G.J.G.G.G.G.c.k.G.M.i.u.u.v.6.4.u.u.2.8 ,       n ' -.~ ! ! o J [ &.oX%X`.",
"*X&X&X:.*.-.&.L q D.B.v.n.7.x L 2 8 u.u.v.h.Z.d.t.p.z.z.z.c.c.c.c.J.G.G.Z.C.B.B.B.4.1.5.u.2.8 y , c u 3 3 . 3 7 t f 3.L &X`.8X..",
"oX=.=.&.&.,.'.T.8 e w.n.i.6 ,X3X<Xi e u.8.v.B.c.v.v.3.3.r.i.h.B.B.d.p.v.M.v.H.G.S.4.1.<.3.w 8 2 , ) i w 9.9.y.M.MXMXF.9.J %X,X3X",
"%X=.O.&.&.,X).H e.1.5.u.4.Z 5X2X-X<X].g 1.y.M.G.z.t.H.m.3.r.g.v.h.7.e 3.g.v.Z.Z.n.u.e.<.1.8 2 Z #.#.G w w.i.B.bXzXlXzXs.6.R.,X,X",
"..} =.[.%XiXk 8 <.w.q w y ).:X,X1X:X:X8Xy e.d.8.3.h.b.c.V.4.u.b.8.<.t.S.V.c.g.b.8.u.w.q 8 y ~.$X#.#.$X9 r.P.vXcXzXlXbXP.g.9 `.`.",
"K Y J G J T.9 w 4.i.3.q y T.>X:X3X9X|.%X>Xg e 5.<.7.g.v.c.g.u.g.4.3.v.v.B.c.7.<.3.8.w 8 8 P ~.%.#.+.$Xk y.h.H.P.A.v.J.cXg.w z J ",
").aX9X2X5Xh . t h.h.t.7.w 6 :X,X:X5X,X[.,X<XR.5 9 4.4.v.v.t.4.r.w.w.p.i.p.j.1.<.2 , k .XL  .$X#.#X~._.$Xl e t.y.N.i.D.cXn.w Z T.",
"} 9X,X&X6XO p = O O 5.e.w 6 %X X[.:X,X>X3XaX1X>X5X7 i y e e <.1.e.w.<.<.<.e e 1 E.2XyXfXT.} #.XX#X$X$X>X;Xf 5 0.2.w.L.hXy.q Z L ",
"X.%X,X`.o % b n n n ; & 3 W 0X8X3X:X>X2X3X5X,X2XaX..P u u 3 5 3.<.<.9 9 5 X X X >X;X1XaXQ...~.$X#X>X-X+X;X7X].2 q 3 d m M u d L ",
"..=.OXI + - n ! ! M p ; & |  X8X2X>X:X%X[.&X:X%X9X..; ; $ $ $ , , , .         o Z -X@XpXQ.$.$XXXXX7X>X<X-X;X1X<   n ! ! A a & G ",
"X.*X:XM # v C ! ! M = + ..R {.[.>X,X>X:X3X`.9X5X9XJ . & - o O $ $ $ o   O   o   h }.'.2XQ.{ $X$X$X@X-X-XyX-X;Xo > n -.) A s d o ",
"X.oX`.@ p b ! ! N a % h *XR ).)._.].[.)... .=.[.,Xr 6.3 $ $ o o $     $ O 8 8     @ ].1XX.{ ~.$X].+X+X;X<X<X-Xo b N -.-.A s - + ",
"` pXR.O p n C A M ; + ~ :.%X,XoX,X,X,X).).`.{.=.oX<.t.r o + + o       O 6 w.e.9.7   M ,X#X].#X&X>X<X!.K J P T.o b N %.-.C a = # ",
"Y =.    o O O b a = o NXtX..&.`.`.%XpXaX,X4X*X:.#.0.i.8.2 o $ O     O O e u.u.r.6.q V ,X@X$X&X=X&X=XaX$X~.XX5Xo b N ) %.n a = + ",
"Q H 8.t.B.G.k 7 . + V gX2X3X`.*.qX8X8X[.{.]._.oX1 C.v.w.q   % O     O . 0.b.g.i.r.w j +X'.$XoX&X&X*XaX!.+X[.@.O > n ^ ! n s = # ",
"E H q.B.G.G.G.u.2 X <XiX@X#X%X`.%X8X9X%X{.@X@X:X1 C.v.t.q   = O   o - 1 p.Z.v.i.w.w l +X@.$XoXoX*XOX=X'.<XrX|.o > % & : p p % + ",
"R.e y.m.t.q.G.8.5 z OX*X=.[.`.oX&X%X,X=.@.].).=.1 Z.v.r.q   - % o   X t.B.G.v.r.t.w z #X( XX&X#X%.6XpXrX[.dXrXo u v.y.8.u 3 . O ",
"J e h.0 w a.P.k.y l ( #.X. .%X=.=.oX%XR !._.).#.1 C.v.u.q o = = o   t u.S.B.g.g.i.w l ~.T o.XX$X#.;.1XtXiXY.a.9.v.v.Z.G.B.r.e 4 ",
"K g h.u., r w.2 , , /.#X&.o.=.'...`.:XR '.@X@.!.=.6.v.g.8.o $ ; o . e v.G.v.w.n.5.7 wXeX|.].@.XX@.} <X|.tX1 e.w.p.m.G.G.G.m.w.5 ",
"+.Z 0 r , 2 , 2 , r |.;.OX2XfXiX,X,XaXT ..%X@X_...0.h.g.8.X @ & o 1 e.v.B.g.t.3.l pXpXfXtX>XOX*X=X4X{.E tX, q 9 D.G.G.G.G.B.r.9 ",
"' >X&X2 6.e 5.e 3.g =.' _ >XiXgXiXiXNXE ..XX_.=.@XL b.n.8.. @ * o 1 t.v.n.8.w.q Z #.+X+X<X!.$.$.$.OX#X| rX6 , b.J.cXG.G.C.v.u.9 ",
") >X1X|.T.R.T.L E.E } ' ( ' ].3XtXtXNXR...~.=._._.| 6.t.8.3.2 4 4 q t.y.i.8.w G #.#.$.#.;X;X_.~.!.$X>X{ {.[.4.h.k.cXU.I.J.D.4.5 ",
"/ &X%X8X8X0X:X X}.!./ _ / ( ` &._.%XNX/...oXoX#X)._., 7.8.8 8         8.8.8 Z $.$X_.#.~._.@X:X;X{.@X1X{ !.$., 9 u.5 k.xXL.2.< V ",
"` >X@X@X#X#X$.'.}...} $._ o.} o.} @.,XR X.=.*._.>X'.[.l 8 8 8 o $ $ $ o 8 y P @.].-X+X+X~.#X@X#X$X~.$XY -X~.*.H Y., 6.y 2 , ^.J ",
"F ).).X.o.*.F ( <X<X!.#.X._.].[.:X-XrXX.Y U X.X.!.Q.| R 7 2 . ; ; $ + $ O < K XX+X-X-X-X].$X@X~.*.XXOXY !.]...o.].^.R./.U K { F ",
"[.aXdX3X%.=XT { !.+X).$.{._.[.].;X@X9X#X#X9X>X,X>X X{. XoXl   a s p - + O #.J ).1X;X<X6X6X3X].-X*.#.=X%X=.oX*X$XqX2XeX'.rXuXuXtX",
"dXiXuXyX;X4XwXP !._.>X3X}.!.~._._.&X#X} &.*.*.;.=X*X`.%X*X*Xs B M p ; + o 9XJ !.@X<X].+X+X1X;X+X@XXX$X~.<X$.+.;.OX:.XX#X%.>XaX5X",
"yXdXfXdX<X5XwX{ ).[.].!._...} o._ O.' U O.' ' ' -.:.=.=.=.:.h n n p p ;   %XQ |.;X;X;X+X+X-X;X@X@XXX#X].rX XO.+.OX#.].1X+X~.$XyX",
"$X;XuXuXfXiXwXQ.[.@X-X!.@._.$./ / &.#.Y _.;.} o.XXoX`.*X:.=.j n b p p ; o   L -X1X;X<X-X+X;X5X-X-X].#X^.tXiX+X) %.%.+X5X2X1X;X+X",
"+XXX5XfXfXNXCX{ @X<X-X].).@.@.@./ ` &.U _.oX`._.&.&X..oX`.%Xh n v p ; # o o Z !.<X<XrX;X-X;X1X<X;X+X#X XfXfX<X_ ] / o.XX#X#X7XyX",
"yX].XX1XuXNXuXL { Q.| | Q.T Y K J K U F  .U @. .R =.X.:.oX#.- b a p -       h J { | E Q.{ | { { Q.Q.W Q.tXtX'.K ( K ( ] %.>.&X7X",
"yXyX;X$XtXNXNX+X2X2X>X:X:X{  .Q.P K *.` )./.R P W S X.oX&XO > > p = +       o  .{ J G E Q.Q.E T L J T Q.Q.| E T U V ' ] ] %.$X+X",
"&X$X#XXX$XNXeX$.oX$X@X~.pXaXgXgXfXpX;.5X%X0XaXaX0X:.R =.Y p > % - % o           O.$.' &XyX1XpXpX5XsXpXaXfXpXsXsXsXR.Y ] %.] %.$X",
"#.6X1X1X7XyX|.!.XXXX$X6X6X^.<X}.2X#XoX%X%X:X&X&XqX`.* b ^ A h ; ; = O o         =.}.o.&.OX!.>X@X@X:X3XpX3X3X2X2XaX.XK ] ] [ %.%.",
"%.#X5X1X5X6X~.$.~._.XX>X5X~.XX#.XXOX#X&X#X#X#X_.&XP - p > > > ; > : o           {._.' -.`.).2X3X-X:X%XpXrX3X X2XaXQ.( %.] ] %.%.",
"~.$X#X7X6X5X$.~.#X].$X$XpX$.#._._.$X_.XX>XoX>XXX4XW $ % & * % & % $ o         o <X[.O.+.*X .:X,X-X%X:X3X3XpX<X3XaX].K ] +.$.+.%.",
"$.) #.$.-X2X{ $.$X+X+X+XyX^.+XrX:X_.%.#.oX>X>X#X4X,XR ).).).=.,X%X{. X%X{.3XT !.<X%X+.[ O...3XiX3X:X<X3X X2XiX3XrX|.J _ %.%.$.$.",
"V j j j j P K P { W W { { }.dXyXyX>X>X@X@X#X%X@X4X8X.X:X{.=.R E Q Q G j j R Q L T.E F U Y  .%X:X{.3XiX2X2X3X9XpXpX{.j V V j V S "
};
