/* XPM */
static char *result[] = {
/* columns rows colors chars-per-pixel */
"64 64 243 2 ",
"   c #3C1F23",
".  c #461E1F",
"X  c #4B1E1D",
"o  c #541E1A",
"O  c #5A1E18",
"+  c #631E15",
"@  c #6C1E12",
"#  c #762715",
"$  c #793614",
"%  c #6F2012",
"&  c #421E20",
"*  c #5B2C22",
"=  c #4F302B",
"-  c #7A3325",
";  c #693226",
":  c #65482C",
">  c #6B4F29",
",  c #735945",
"<  c #786A49",
"1  c #822D14",
"2  c #8A3216",
"3  c #973B17",
"4  c #843E28",
"5  c #AC481A",
"6  c #A34318",
"7  c #B54F1B",
"8  c #B8551B",
"9  c #93721B",
"0  c #B07418",
"q  c #86452D",
"w  c #854636",
"e  c #965C3C",
"r  c #9E5926",
"t  c #C1571D",
"y  c #C35D1C",
"u  c #CA771B",
"i  c #C76B1B",
"p  c #CA773B",
"a  c #C5672C",
"s  c #C15A20",
"d  c #826C4D",
"f  c #8C774D",
"g  c #8A7855",
"h  c #947C59",
"j  c #976B4D",
"k  c #A26946",
"l  c #AB7A4B",
"z  c #B3794B",
"x  c #9A6965",
"c  c #AB7278",
"v  c #A97A7C",
"b  c #8B524B",
"n  c #CC7C41",
"m  c #B48D18",
"M  c #D18D1A",
"N  c #D69D19",
"B  c #D29419",
"V  c #C78F17",
"C  c #DAB617",
"Z  c #D6A918",
"A  c #E0BC17",
"S  c #D3A032",
"D  c #E4C817",
"F  c #E2C419",
"G  c #E8DB15",
"H  c #E6D316",
"J  c #ECEB14",
"K  c #EFF613",
"L  c #E2C82A",
"P  c #E5C936",
"I  c #DEC016",
"U  c #9B865A",
"Y  c #9B854F",
"T  c #A8885A",
"R  c #B4885C",
"E  c #A9935D",
"W  c #B99A5E",
"Q  c #998864",
"!  c #8D8265",
"~  c #A58E67",
"^  c #AC9B6C",
"/  c #A79467",
"(  c #B39C65",
")  c #B49D6B",
"_  c #BA9965",
"`  c #A99B72",
"'  c #B79976",
"]  c #B58B63",
"[  c #B5A26D",
"{  c #BCA46D",
"}  c #BBA466",
"|  c #AEA273",
" . c #B5A373",
".. c #BAA574",
"X. c #BDAA74",
"o. c #BDAB7B",
"O. c #B6A778",
"+. c #BCB17C",
"@. c #B8A44A",
"#. c #D28B4B",
"$. c #D5985B",
"%. c #C99254",
"&. c #D9B74E",
"*. c #C4A464",
"=. c #C2A46B",
"-. c #C5AB6A",
";. c #CBAD6B",
":. c #C8AA66",
">. c #D1AD6C",
",. c #DAA96B",
"<. c #CDB26D",
"1. c #C8B169",
"2. c #D3B46C",
"3. c #DAB46D",
"4. c #D6B96E",
"5. c #DAB96D",
"6. c #C3AC75",
"7. c #CBAC71",
"8. c #C2AD7C",
"9. c #C8A875",
"0. c #C5B275",
"q. c #CCB474",
"w. c #C4B27C",
"e. c #CCB57B",
"r. c #CEB97C",
"t. c #CBB978",
"y. c #D3B573",
"u. c #DAB771",
"i. c #D6BA73",
"p. c #DBBC73",
"a. c #D2B67B",
"s. c #D4BB7C",
"d. c #DBBD7B",
"f. c #DDB278",
"g. c #D7AE77",
"h. c #E1BC74",
"j. c #E2B876",
"k. c #C09B6B",
"l. c #DDC257",
"z. c #E5C952",
"x. c #DCC175",
"c. c #DCC27D",
"v. c #D6C17A",
"b. c #DCC566",
"n. c #E5CC65",
"m. c #E3C375",
"M. c #E2C47B",
"N. c #E5CA7D",
"B. c #EACC7E",
"V. c #E7C976",
"C. c #F0D773",
"Z. c #B38D90",
"A. c #BAAD81",
"S. c #BEB388",
"D. c #BCA2A3",
"F. c #C3AB81",
"G. c #C4B483",
"H. c #CBB582",
"J. c #CCBB82",
"K. c #C6BA87",
"L. c #D3BD83",
"P. c #DBBE82",
"I. c #D3BC88",
"U. c #CBBF92",
"Y. c #C8B5B8",
"T. c #C3A9AD",
"R. c #C59C83",
"E. c #CCC28A",
"W. c #D5C284",
"Q. c #DBC483",
"!. c #DEC985",
"~. c #D4C38B",
"^. c #DBC58B",
"/. c #D7CA8E",
"(. c #DDCA8C",
"). c #D4C592",
"_. c #DCCB93",
"`. c #D8C996",
"'. c #DED194",
"]. c #D1C78F",
"[. c #E3C583",
"{. c #E4CB84",
"}. c #EACB85",
"|. c #E2C68A",
" X c #E3CC8B",
".X c #EACD8B",
"XX c #E8C585",
"oX c #EBD185",
"OX c #E5D18C",
"+X c #EBD38D",
"@X c #ECDA8D",
"#X c #E6D386",
"$X c #F2D58B",
"%X c #F4DC8D",
"&X c #F3D584",
"*X c #E3CD92",
"=X c #E9CE92",
"-X c #E5D393",
";X c #EBD493",
":X c #ECDA94",
">X c #E4D49A",
",X c #ECD59A",
"<X c #E6DA9C",
"1X c #ECDB9B",
"2X c #E7D995",
"3X c #F1D593",
"4X c #F2DB94",
"5X c #F2DC9B",
"6X c #F5D998",
"7X c #F1CF93",
"8X c #F5E58E",
"9X c #EEE19C",
"0X c #EFE096",
"qX c #F3E39C",
"wX c #F7E69A",
"eX c #D7CDA4",
"rX c #DCD2A5",
"tX c #DFD9BB",
"yX c #E6DAA4",
"uX c #EBDCA3",
"iX c #EBDEAA",
"pX c #E4DAA8",
"aX c #F2DEA4",
"sX c #E8DDB2",
"dX c #EEE2A4",
"fX c #EDE3AC",
"gX c #E7E0AD",
"hX c #F2E4A3",
"jX c #F5EAA3",
"kX c #F2E5AD",
"lX c #F4EAAC",
"zX c #F9ECA7",
"xX c #F9F2AB",
"cX c #EDE5B3",
"vX c #E9E4BA",
"bX c #F2E5B2",
"nX c #F3EBB3",
"mX c #F5EDBA",
"MX c #F9EBB3",
"NX c #F9F3B7",
"BX c #F7F2C5",
"VX c #F5EECA",
"CX c #DAD4C2",
/* pixels */
"H.bX=X*XQ. X2XwXxXxXxXNX2XI.pXuXaX+X.X4X,XaX5X.X5XjX+X%XwXwXxXcX).hXaXaXI.|.3X6X5X,XB.&Xk.{ 2XhXlX>X<X.X~.'.'.<XzXjXP.7X}.P.j.*X",
"E M.N.{.@X@X X@X4X@X+X8X#XE.;X;X[.{. X;X6X.X+X,XwX1Xd.{.M.p.XXOX+.P.|.$X3X.X.XXXXXXX}.$Xy.w. X-X2X,X@ 1XdXdX>X2XlX'.u.5.3.3.h.wX",
"g 4.p.p.x.N.v.v.{.c.#X8XOX0.p.XXM..X}..X.X3X X.XwXOXd.d.XXM.[. X8.,X=X|..X.X.X[.[.[.XX$Xd.K.*X<X<X-X^.@ @ 1X1X1X1XE.M.3.3.3.h.%X",
"U x.c.m.c.#XQ.OXOX@X!.oX#X( ;.y.d.[.Q.-X-X,X.X|.+X Xs.}.+X.X{.-X..[.XX;X|.|.XXXXXXXX}.6X^.J.-X2X2X:X>X'./.@ 1X1XdX_.;.,.3.,.j.8X",
"U i.v.4.x.oXoX#XOXqX#XB.oXw.-X>Xd.Q.{. X.X X*X.X;XQ.0.+X+X3XOX2X8.|.XXXXXXXXXXM.XX[.q w w w.(.2X-X-X2X2X/.-X-X1XdX~.>.2.h.u.3.B.",
"Y i.N.N.v.4.v.x.c.0X:Xc.B.w.~.^.a.-.=.....X. . .L.(.( t.s.d.Q.~.6.XX3XP.XXP.XXXX.X7.k =X Xw./._.~.~.OX/.W.W.(.W.W.w.d.y.3.u.j.%X",
"Y v.i.x.m.x.V.m.x.#X1X:X8XaX:X0X$X&XwXQ.c.4XjXzXzX5X+X^.Q. X1X9X..P.[.|.XXXXXXXXXX.X|.5XhX(.(.OX1X/.Q.+.O.X.X.t.~.w.6.X.[  .6.{ ",
"Y <.x.m.x.4.v.x.x.N.qX0X2XQ. X X.X-X5XOX#X{.+X@XoX5X.X X@X:XwXdX..XXXXXX|.[.d.XXXX.X=X6X3Xv.V.N.{.m.&X!.<XdX2X:X9XlX-X,XqXqXlX5X",
"g 4.i.p.m.x.1.x.x.x.#X0X2XQ.^.Q.Q..X-XQ.Q. X{.}.+X;X:XQ.c.{.N.@Xo.[.[.[.P.XXXXXX|..X=X3X^.N.p.p.m.m.V.p.~.;X,XQ.(.5XuX;X;X*X;XwX",
"g 4.i.4.i.b.2.4.x.c.#X0X2X{. XQ.y.N.$XQ. X.X X X}.i.c.N.i.4.4.V.) |.XX.X|..X7X}.[.XX,X6X^.{.m.m.m.m.V.1.Q.^.-X-X^. X;X-X1X<X,XxX",
"g t.x.x.4.2.4.4.5.x.N.0XW.q.d.c.y.4.B.0.-X;X;X% q 4 e {.c.x.5.m.) [.|.XXXXXX=XXX|.*X7XaX_.+X#XB.m.p.m.<.Q.^.*X XQ. X^.^.-X5XaXNX",
"U } 1.<.1.1.q.-.-.:.t.N.t.G.q.W.<.>.M.6.'. Xk c.:X:X%  XM.m.B.m.) e.g.P.f.P.,X=X=X|.P.;X^.{.c.m.m.5.m.y.OXQ.{.+X{.+X>X X X1X2XxX",
"[ c.x.v.v.v.w.{ X.t.w.r.t.S.).).} *.4.( OXOX@ 3X4Xd.k -X{.[.c.oXa.|. XQ.P.s.) 8.F...8.H.H.a.s.c.x.-.1.} _. Xv.{.(.i.:X;XQ.Q.=XjX",
"~ '.uX<XcXlX1X+X4X0X8X3X%X4X4X4X3X6X%X6.(.;X|.(.4X2X X{.{.@X$XB.d.#.#.#.#.4X*X>XaX=X|.6X5X4X:X:X:X{.5.[ I. XQ.d.{.(.u.Q. X;X*X+X",
"! cXfXfXcXbXsXP.$X}.+X XQ.{.OX+XoX:XjXr. X1X2X;XqX1X,XoX!.OX{.{.%.8 p j.t $..XL.XXXXs.d.d.d.,.a t n ;XX.~.*X-XQ.c.M.c.i.{. X2X>X",
"! vXnXbXcXvXsX:.N.}.}.}.[.[..X3X,XOXxXJ.'.hX;X+X3X4X1X1X Xh.+X-X#.p !.-Xj.t W.7.y.P.XX,.|.^.#.,.,.s #.A.9.@ R ^.Q.d.c.;.2.h.-XvX",
"Q fXfXiXnXmXrX-.h.M.}..X+X.X=X.X.X XqXt.~.2X2X2X,X1X:X4X2Xp t t 8 }.!. X2Xa L.P.g.$.t t t P.|.|.|.XXp o.] *Xq (.^.Q.2Xd.;.2.c.qX",
"g L.<XyXcXsXrX*.u.p.XX+X X+X3X3X;XXX%XI.G.-X.X-X:X_.OX XOX{.OX#.:.}. X{.+X,XH.$.t a ,.*XI.t |.`.|.[.a ) .X(.e *X(..XoX XI.t.c.{.",
"Q ..e.I.).pXS.=. X[..X5X5X^.XX+XoXB.&XM.E.'./.*X<Xr.w.w.r.r.W.W.) 9.Q.L.L. X..$.t h.|.7X7X7X,X,X*Xp ,.' Q.~.r.r.w.X.[ { [ { s.@X",
"oX2X{.{.1XnX`.6.M.W..X-X1X,X X[.M.M.&Xd.OX<X:X1XhX:X2XqX1X5Xt N n.+X3XaXuXuX` $.F n.`.*X7X`.=X,X3XaX5X^.Q..X/. X:Xt.q.XXN.:XqXjX",
"!.(.!.[.2XNXeXX.{.;X;X5X5X3X[.[.d.h.}.0.*.;.q.s.L.,XyXnXn s D &.z.B.+XlXNXmX` e.D D =X*X=X,X=X|.|.,X,XP.}.d.XX[.N.p.{.N.#X+X+X4X",
"c.+X}.;X.X&X/.X.=X3X=X.X;X+X X}.{.|.1X=.} -.;.s.L.^.>XBXt A r.<.>.V.9X$.@ x ` I.V.D L iX`.=X*X*X^.|.g.P.u.u.y.h.}.y.v.@X@Xd.v.V.",
"2.T *.[. X8X/.6. X;X3X1X-XXX[.[.;X,XMXe.0.9.0.J.^.`.E.nXN dX<X(.2.p.+X7 @ # ~ I.=XG G P >X,XuX=X&.#.yXI.>.u.d.P.oXe.Q.c.{.!.c.N.",
"@ ' - @ @ @ ) T d. X+X;X,X.X;X.XXX}.}.w.q.0.7.L._.`.E.>XD -X/.>Xp.4.l.@ % 3 j L.=XH K D ,X,XyXC.i 3X*XP.P.u.[.Q.=Xq.c.N.{.oXc.v.",
"x Y.b # Y.Y.@ - % U ` o.G.6.[ / U T ..~ )  . .i =.O.W.-XD D b.v.p.m.5 @ 8 t % ..G.D K K I.I.).l.t -X_.I.3XXX|.P.|...4.N.N.#X{.c.",
"T.Y.Y.Y.Y.Y.D.Y.v - @ <XuX^.5X>X_.^..X(.J./.K.1.S k 0.lX9XD G b.:.%.5 @ y t 1 R &.D K K ~ ` Q @.t ' A.' H.8.) ..8.U 4.x.c.m.OX{.",
"c c Z.T.T.Y.Y.Y.Y.Y.- @ @ *X-X>X1XqX1XjXjXdX1XjX8Xt q.-X@Xz.J K l.X @ @ @ t y @ D G K J yX X|.XXy n.aX).^._.I.^.pX/ 2.4.v.{.OX!.",
"c c c c c c D.Y.Y.@ Y.@ Y.@ ,X*X(.:X-X_.;X2X.X+XC.t -.4.2.}.D K D X @ @ @ t 1 @ @ D K D L.a.XXy.M z.[.`.`.*X.XhXVX' m.c.+X#X2Xv.",
"^.H.c c c c c v Z.T.Y.Y.Y.- 4 I.-X2X2X2X,X;X-X1XH t w.Q.!.c.z.$ D 8 t t 7 # % 3 M D 5 $ q L.XXd.D &.h.[.5X*X}.aXdXO.c.!.c.OX:X2X",
" XP.i.y.c c c c c v Z.Y.4 Y.b @ s.2X-X-X-X-X;X1XD n.r.(.k $ @ m D t t t t t t M D D A @ t % &.D D d.h.;.j.d.d.XX+XO.#X!.@X-X:X:X",
"a.q.c./.2XdXc c c c c Z.Y.v Y.4 b *X=XhX1X X1X5XD P 8.l @ 6 C F D t t t t t A D D G G A m N 1 l.d.d.XX|.M.XXP.[.+XX.Q.2XOXOX!.#X",
"( [ / Q ~ /.S.w.Z.c c c c D.Y.Y.x _ ^.-X4X<XOX;XwXH } @ s M N C D u t t t t D t B G K G D M t >.d.u.[.}.,.[. X{.:X .X.[ ^ / J.^ ",
"W.jXqX1X4X1XOX+X}.<.F.c c c Z.Y.Z.P.2X(.,X1X-X,XzX@XH D D D y 8 D D u @ @ @ 8 # Z H J N N y 1 :.}.P.XXj.$.|.=X=X5XI.~.Q.~.w.0XO.",
"q.qX-X@X:X2X+XOXfXbXaXmXR.c c Z.).-X4X+X2XjX<X;XqXv.H K D D # 5 M D F @ @ @ @ V A H D 7 5 5 # t }.XXM.i =X=X=X;XhXL.5X+X.X[.(.` ",
"0.OX@XQ.{.c.m.9XNXcXlXBXeX' c c >X-X;X5X2X5X:X:XwX) H J 8 t H $ 3 u D C @ @ V V y D D 7 @ @ 5 t f.3X|.A =X=X=XuX5X^.[.3X$X+X;X` ",
"r.c.#X#Xc.m.{.v.1XfXaXbXsXF.9.c 9.;X-XOXD ;X-XOX8Xr D A t # m I @ 2 i C @ @ @ @ D D Z 7 @ @ t t ,..X;XD *X=X,X=X,XL.Q..X3X+X;X^ ",
"t.}.2X#Xv.q.v.'.'.dX!.@X#X+.Q.T @ 2 5 >XD L qX5X$ u Z D 8 % {.m 9 + & I       9 I N y @ & @ 7 t ,..XL L aX*X7X=X-XH.;X+XXX.XoX^ ",
"w.!.!. XQ.1XdXlXfX!.{.#X#XX.E.W.@ % t q K.H W. X2 A i s @ Q.{.W m I O       & D >   # X   + # t ,.[.z.*X>X=X*X*X=X8.d 3X X.X;Xo.",
"0.dXlXjX'.v.v.c.Q.v. X!.#X#X@X#X@ % 2 q l.b.^.*.0 u 5 % -.!.OXK.O I V     @ C N ; X s.1X  + @ 5 j.}.L ) / ..8.H.h O.h = / d Q.) ",
"} v.#XQ.-XdXfXgXNXfXfXNXrXv.s.Q.Q.=.O # D 0 @ @ m 3 % w fXgXwX/.+ $ >     X N   X ] |.:X X= @ @ 1 z N L I.[.:X, ;XhXXX% oX: m.) ",
"^ v.c./.2XyXNXnXNXnXnXNX<X2XQ.c.:X1X-XO 6 B N + 1 @ @ 4. XuXMX).E + .   % % m * @  XP.{.W._ o @ @ 5 t a |.|.s.X M.XX@ # p.; M./ ",
"+.1X2X<XdX1XfXlXnXfXdXdX!.OX@X!.+X0X9XOXd # @ @ @ @ e y.y.c.-X).[ & +   X *     e.*XQ.{.s.XX= X + @ @ 5 ^.uX`.@ l @ @ l ;.@ V./ ",
"S.mXfXyXgXlXnXgXyX-XB.oXv.(.#X{.+XOX@XW.s.^.~.Q.W. X XQ.Q.t.c.0.l +   & + + * = Q.OX X.X{ N.$X.X*.= . + @ @ iXh O @ @ @ @ 4 N./ ",
"` yXcXgXfXgXgXv.t.-.1.v.0.r.(.c.c. XOXX.J.W.Q.d.s.{.y.d.!.Q.2XR   % +         { L.e.H.L. .a.M.{.c.XXuX  @ @ @ @ @ @ @ @ @ p.}.{ ",
"} <XvXvXgXcX'.E.).).`.OXx.q.c.W.s.!.-XX.Q. Xs.W.c.d.v.t.s.d.R       X         o O # eXrX`.~.d.P.d.q.>X).yXnXmX_.l @ e :.*.*.m.y.",
"y.M.,XqX@XwXNXdXcXcX-Xc.}.1XnXkX2X:XlX .J.OX XQ.s.Q.(.r. XR         .         X     ; BXiX2X.X+X$X5X^.8.yXiXiXuXs.u.uX*XuX-Xp.1.",
"q.;X+X0X:XqX-X/.`.'.Q.2.2.-XkXmXdXiXBXA.s.Q.Q.s. XW.*X^.R           & +     O X       X ] L.u.u.y.}.oXw.uXuXiXiX>X{.uX>X<X^.p.T ",
";.+X:X1X;XqX;X/.^.W.q.4.:.2.Q.yXpXdXVXS.t.c.c.Q.Q.L.OX X@ o o       & @     + .           ' Q.P.L. X4XO. X*XiXiXkX-XdXfXcXiX{.E ",
";.+XOX0XqXwX-X`._.Q.1.<.;.-.;.v.Q.-XBXG.r. X[. XQ.W.Q.% t t % o     % l % o o               k.*X^.*X3X8.L.c.5XkXbXfXnXbXiXiX-XT ",
"<.;X*X X}.}.s.~.`.r.y.y.<.y.q.y.q.s.:XX.0.c.c.Q.2X^.L.# t t 1 X   f 2.u.4.d.e o               k. Xd.XX[  XL.c.,XyXfXiXuX*X,XdX/ ",
"E J.W.0.q.c./ { -X>XL.s.t.c.Q.(.-X*X1Xw.[ { 0.t.s.H.@ # 7 7 %   * E *.} W W ( _ o &           O R M.oX( W.^.e.q.~.U.K.K.{ ) 7.T ",
" XnXbX2Xm.%X{ 6.s. XQ.a.).^.^.|..X*XqX XOXqX;X3X2XL.@ @ @ @ @ @ OXx.v.i.i.i./ ^.,X@           O % T $X+Xc.}.+X}.4X1XeX^.yXcXkXrX",
"bXbXsXkX;X%XeX..L.^.2X<X_.s.Q.P.[.+X[.t.p.c.M.c.$X2 5 @ @ @ 2.x.oX#X@X%X@XqX` L.*X=X@         @ % @ XXP.=Xr.p.M.&XN.|.[.M.,XkX5X",
"iXkXsXcX>X5XeXo.Q. XQ.s.Q.s.q.q.<.i.y.*.i.y.2.2.%.t @ @   + c.v.N.{.{.#XOX0X` /.>X=X=XH.+ & o @ 7 7 k ^.yX>Xu.p.B.d.^.,X|.d.[.aX",
"XX=XiXbXbXkXeXF.(.(._.L.s.Q.d.-.:.c.v.} c.c.q.*.3 6 @ @   @ +X!. X@X@X(.:XqX` _.<X=X,X*X`.L.@ @ t t k ^.iXkX^.;.5.h.*X5X5X,X;X|.",
"|.[.aXbXmXVXCX8. X>X*X^.W.s.s.s.;.2.c.{ Q.{.[.7 5 + @ o @ _ +X:X(.:X:X2X5XxXA.I.=X>XuX=X*Xg.@ @ 1 t k >XnXbX=X2.3.;.u.[.XX=X;X6X",
"aX^.[.,XsXVXsX` 8.H.w.w.H...{ ^ ~ ( } / t.X.s.t 1 % O   + OX#X0X:XOX2X0X2XjX+.| w.o.8.H.8.@ @ @ @ 1 ] G.pXpX~._ *.( *.5.h.XX.X=X",
"aXhX=XXXuXVXVX|.:X1X-X-X-X8.w.H. .) c.1.W.K.o.7 @ +   = #X!.!.@X9XjX'.0X0XjX/.v.6./ U A.A.@ @ + o d  .G.G.A.o.O. .h >.p.3.h.[. X",
"3X|.=X[.XXBXrXa. X[..XQ.hXnXNXNXMXdXM.5X-XqXjX@ @ &   c.#XOX@X(.(.OXdX'.2X2XE.v.y.s.<.+X@ @ @   O lXjXzXNXhXzXxXnXS.*.5.j.3.M.XX",
"j.3X,X,X7XhX).P.[.[.[.3X6X^.=X X;X+X[.+X.X=X@ @ o   , #X#X@X0X2X2X0X0X9X9XdXK.d.c. Xy.p.@ @   O k.-X>XqX<X1X1X0XlXE.W 3.3.3.M.h.",
"d..X,X3X3X6XL.a.d.P.XX;X6XL.[.d.[.}. XOXXXk X     U 0.Q.#X(.@X'.(./.0X9XdXfXK.t./.Q.2.q @ X   @ *X.X-XhX1X<X-X1XjXK.:.3.3.u.p.h.",
"M.[.=X=X6XqXa.P..X[.|. XhXa.d.Q.P.[.{.[.;Xq 5 5   Q t.(.#X2X0X0XwX'.0X0X'.9Xv.'.>X(.i.X X   & % k w.2X2X<XdX>X>XlX`._ p.h.u.u.h.",
"d.y.d.d.*X1X6.e.|.|.[.|.aXI.|.1X;X[.M.c.{.w @ 2   , X.W.v.E.W.@X'.'.'.'./.'.| /.'.'.p._       . X O @ ~ '.1X1X<XuX/.( 7.d.d.P.a.",
"f < < , < ' _ ) 6.8...8.8.`.kXkXaX;X-XXX|.+X9.) X.w.X.'.W.v.+.+.| | Q < < +.` | A.O.W =.} ^ ' .. .o.G.A.o.9XdXhXhX/.< f d < f T "
};
