/* XPM */
static char *result[] = {
/* columns rows colors chars-per-pixel */
"64 64 249 2 ",
"   c #3C1F23",
".  c #3F2022",
"X  c #451E1F",
"o  c #4B1E1D",
"O  c #581E19",
"+  c #651E14",
"@  c #6C1E12",
"#  c #6C2216",
"$  c #732313",
"%  c #762818",
"&  c #6E361D",
"*  c #411E20",
"=  c #462624",
"-  c #553128",
";  c #7A3423",
":  c #6E3122",
">  c #74571F",
",  c #6B4731",
"<  c #5C4020",
"1  c #6C5341",
"2  c #796747",
"3  c #7A7250",
"4  c #822D15",
"5  c #893816",
"6  c #913616",
"7  c #953917",
"8  c #9C3E18",
"9  c #954719",
"0  c #A34318",
"q  c #AD491A",
"w  c #B6541C",
"e  c #AB5019",
"r  c #957019",
"t  c #A66B15",
"y  c #B36918",
"u  c #87442A",
"i  c #905033",
"p  c #A1783C",
"a  c #C1571D",
"s  c #C25C1C",
"d  c #C6681B",
"f  c #CB791B",
"g  c #C35C23",
"h  c #C5642C",
"j  c #C66722",
"k  c #CA763B",
"l  c #C36F35",
"z  c #8A7855",
"x  c #927C5A",
"c  c #8D704C",
"v  c #A8754D",
"b  c #A6754E",
"n  c #AB7278",
"m  c #AF7A7B",
"M  c #A76C71",
"N  c #874A43",
"B  c #CE7E44",
"V  c #BA9C19",
"C  c #D18B1A",
"Z  c #CE9318",
"A  c #DFB917",
"S  c #DDB318",
"D  c #CFA917",
"F  c #D7BC2F",
"G  c #D18C3E",
"H  c #E4C817",
"J  c #E2C218",
"K  c #E7D915",
"L  c #EBE714",
"P  c #EEF513",
"I  c #DEC439",
"U  c #E4C928",
"Y  c #E5C833",
"T  c #E9D925",
"R  c #EAE426",
"E  c #9A865B",
"W  c #9B854F",
"Q  c #A48C5C",
"!  c #B9985E",
"~  c #AE8D5B",
"^  c #998A65",
"/  c #8D8265",
"(  c #AC9B6D",
")  c #A89467",
"_  c #B39C66",
"`  c #B49D6B",
"'  c #BA9665",
"]  c #AB9C72",
"[  c #A69773",
"{  c #B59D74",
"}  c #B08C74",
"|  c #B5A26D",
" . c #BBA56D",
".. c #BCA367",
"X. c #AEA273",
"o. c #B6A373",
"O. c #BBA674",
"+. c #BDAA74",
"@. c #BCAB7B",
"#. c #B4A679",
"$. c #BCB17C",
"%. c #C9874B",
"&. c #D79A5B",
"*. c #C08C52",
"=. c #D9B54E",
"-. c #C69D66",
";. c #C5AB6A",
":. c #CBAD6B",
">. c #C6A866",
",. c #D7A668",
"<. c #CDB26D",
"1. c #CBB06B",
"2. c #D3B46C",
"3. c #DAB56C",
"4. c #D6B96E",
"5. c #DCBC6E",
"6. c #D2B267",
"7. c #C3AD75",
"8. c #C2AD7C",
"9. c #CAAA72",
"0. c #D5AD73",
"q. c #C5B276",
"w. c #CCB474",
"e. c #C4B37C",
"r. c #CCB67C",
"t. c #CEB97C",
"y. c #CBB978",
"u. c #D3B573",
"i. c #D6BA73",
"p. c #DBBC74",
"a. c #D2B67B",
"s. c #D4BB7C",
"d. c #DBBC7B",
"f. c #DAB772",
"g. c #E0B46B",
"h. c #E2BD75",
"j. c #E1BB78",
"k. c #DDC45B",
"l. c #DAC346",
"z. c #E4CB46",
"x. c #E3C855",
"c. c #EAD251",
"v. c #DCC176",
"b. c #DCC27C",
"n. c #D7C17B",
"m. c #DAC365",
"M. c #E3CB68",
"N. c #E3C475",
"B. c #E2C47B",
"V. c #E4CA7D",
"C. c #EACC7E",
"Z. c #E8C977",
"A. c #EED27C",
"S. c #B28388",
"D. c #B28E8B",
"F. c #BAAE82",
"G. c #BEB489",
"H. c #BDA3A4",
"J. c #C5B483",
"K. c #CAB582",
"L. c #CCBB82",
"P. c #C8BB88",
"I. c #D3BD83",
"U. c #DBBE82",
"Y. c #D3BE8B",
"T. c #D8B886",
"R. c #C4B48A",
"E. c #C2ABAD",
"W. c #C8B5B8",
"Q. c #CAB6B6",
"!. c #C4ACB0",
"~. c #D0AA89",
"^. c #CDC28A",
"/. c #D5C285",
"(. c #DBC483",
"). c #DEC985",
"_. c #D4C38A",
"`. c #DBC58B",
"'. c #D7CA8E",
"]. c #DDCA8C",
"[. c #D4C592",
"{. c #DDCB92",
"}. c #D7C995",
"|. c #DED193",
" X c #DDD29B",
".X c #D2CA8E",
"XX c #E3C584",
"oX c #E4CB84",
"OX c #EACB85",
"+X c #E2C68A",
"@X c #E3CC8B",
"#X c #E9CD8B",
"$X c #E8C785",
"%X c #EBD184",
"&X c #E5D18C",
"*X c #EBD38D",
"=X c #ECD98C",
"-X c #E6D486",
";X c #F2D58C",
":X c #F4DC8D",
">X c #F3D584",
",X c #E3CD92",
"<X c #E9CE92",
"1X c #E0CF9B",
"2X c #E5D393",
"3X c #EBD493",
"4X c #ECDA94",
"5X c #E4D49A",
"6X c #EBD59A",
"7X c #E6DA9C",
"8X c #ECDB9B",
"9X c #E7D995",
"0X c #F1D593",
"qX c #F2DC94",
"wX c #F2DC9B",
"eX c #F5D998",
"rX c #F1CF93",
"tX c #EEE19C",
"yX c #EFE096",
"uX c #F3E39C",
"iX c #F6E599",
"pX c #F4E18E",
"aX c #DDD3A5",
"sX c #D9D0A9",
"dX c #E5DAA4",
"fX c #EBDDA2",
"gX c #EADDAA",
"hX c #E4D9A8",
"jX c #F2DEA2",
"kX c #E4DBB4",
"lX c #EDE2A4",
"zX c #EDE3AC",
"xX c #E7E0AD",
"cX c #F3E4A3",
"vX c #F5E9A4",
"bX c #F8EBA4",
"nX c #F2E5AC",
"mX c #F4EAAC",
"MX c #F9EDAA",
"NX c #F9F2AB",
"BX c #EDE5B4",
"VX c #EAE4BA",
"CX c #F3EBB3",
"ZX c #F5EDBA",
"AX c #F5E9B2",
"SX c #F9F3B7",
"DX c #F8F1C3",
"FX c #F1EAC5",
"GX c #DAD4C2",
/* pixels */
"K.AX<X,X_.@X3XiXNXNXNXSX9XY.hXlXfX*X#X0X6XwXuX#XeXbX=X:XiXiXSXBX[.cXjXjXY.+XrXeXcXeXB.>X-.+.9XcXMX5X8XuX_.{.|.8XMXvXU.rXOXU.j.<X",
"Q B.V.oX=X=X-X=X4X=X=XpX-X^.3X3X+XOX#X6XeX*X*X3XuX8Xs.$XB.i.C.&X@.U.+X;X0X#X#XOX$X+X#X>Xw.e.].9X2X5X2XvXlXfX7X9XmX Xi.3.3.3.h.iX",
"x 4.v.p.v.C.n.n.oXb.oXpX-X7.p.$XB.@X#X#X@X0X#X#XiX@Xd.d.OXB.XX@X8.6X#X+X+X#X#XXXXXj.$XrXf.L.{.8X7X2X,X|.9XfX8X7X7X^.j.3.3.3.h.:X",
"x v.v.N.b.%X/.&X&X=X@X%X%X_ :.u.d.XXb.3X2X6X,X+X*X@Xn.OX*X@XOX2XO.+X#X#X$X$X+X#XXX$X$XeX`.Y.2X5X8X9X2X2X'.7X  lXtX{.:.3.g.3.g.:X",
"E v.v.i.v.-X&X&X&XuX-XA.-Xe.2X5Xd.b.@X+X*X@X,X@X3X).q.*X%X0X@X9X7.+X+XXX+X$XXXXX$XXXXXwX9Xe.{.9X2X2X9X2X|.9XI., lX_.:.3.g.j.2.>X",
"W 4.C.oXv.4.m.V.).qX9Xb.C.$.`.`.a.;.>.O. .@.o.| I.`._ a.a./.(.`.7.#XrXXX$Xj.$XXX#XU.XX0X5Xe._.{._._.2X'./.s.]././.e.d.u.u.p.d.;X",
"W v.v.i.B.v.b.b.v.oX8X4XpXcX6XyX;X>XiX).b.qXbXMXMXeX*X(.b.].yXlX{ XXU.$XXX$X$X$X$XrX+XeXcX`.x &X7X'./.@.#.+.+.e._.e.7.+.o.| 7.` ",
"z 4.m.v.v.2.m.B.p.V.uXyX9X(.@X@X@X2XwX2XOXoX*X;X&XqX&X2X=XqXiXlX{ XX$X$X$Xv j.$XXX#X@XeXwXv.  C.oXN.A.-X7XlX9X4XtXmX2X6XuXcXbXeX",
"z 4.i.m.N.v.<.5.v.v.-XiX9X/.).).).#X*X/.(.OXoX@X&X4X3X).b.oXV.=Xu +XXXU.v ,.i +X+X#XrXrX`.B.p.p.N.N.Z.d./.3X6X/.).wX8X6X6X].6XiX",
"z <.i.n.4.v.6.4.v.b.-XyX9XoX@X(.u.oX*X(.@X&X@X#X;Xb.V.B.i.4.5.N.@ 0.,.+XT.$X-.#XXX+X6XeX].oXN.N.v.5.Z.2.(.].2X6X+X].3X2X8X6X6XNX",
"z y.v.v.4.6.4.4.4.N.V.yX/.w.d.d.u.u.OXq.].) 8X=X&X3Xb.oXv.v.i.N.O.U.T.$X$X$X#X+X#X<X<XjX{.*XOXV.N.N.M.:.(.`.@X@X).@X`.`.3XwXuXSX",
"E ..<.<.1.1.w.;.;.;.<.).w.J.y.I.2.6.B. .1 @X*X3X4X4XoX#Xb.B.Z.Z.` 0.a.T.d.U.rX<X+X+XU.rX'.oXb.Z.N.5.N.w.*X/.oX2X+X*X5X].@X8X9XNX",
"| n.v.p.n./.q.| q.e.e.t.y.G.[..X..>.4._ = *X@X3XqX&X4X=XoXoXv.%Xa.+X].(./.d.` @.~.O.8.K.e.a.a.b.n.>.6...{.@Xv.oX].a.=X2X(.U.2XbX",
")  XfX7XzXAX8X*XqXpXpX3X:XyX0XwX0XqX;X7.'.4X@XoXqX3X@X#XoX*X;XOXa.%XOX#XOXqX,X5XfX,X+XwXwXqX4X9Xk a a ` Y.@X(.d.oX@Xi.).@X5X@X=X",
"/ BXzXzXBXnXkXU.;XOX*X@XB.oX&X*X@XqXvXt.,X8X9X3XuXwX2X&X).&X).oXw.(.OX#X+X4X@XI.XX+Xd.d.d.d.j.h h wX3X+.`.@X,X(.v.XXd.u.).#X5X5X",
"/ VXCXBXBXZXkX>.C.oXOXOX+XXX#X0X4X*XMXL.|.cX6X*X3XqX8X4X@X4X=X&Xa.B.XX*X3X4XU.9.f.U.$Xh h `.$Xa h #X4XF.5X`.@X)./.d.).:.6.h.3XVX",
"^ zXzXgXZXZXsX;.h.B.OXOX<X#X<X#X#X#XiXy._.9X9X3X#Xa a a a @X*X&Xy.OX).OX=X8XI.U.a.T.+XT.+Xa +Xa h <XwX@.,X@X,Xx `.`.*Xs.q.2.v.vX",
"z I.8XhXgXBXsX>.f.p.$X=X@X#XeX3X3X$X:X_.J.2X2X2Xa a @X@X&X@X*XoX9.#X@X@X3X6XK.$XU.+XrX+X+Xa 1X+Xa 3X6X{ @X`.@X3X].@X@X#Xs.a.b.oX",
"^ O.r.L._.hXF.>.@XB.#XuXjX`.#X*XOXZ.;XB.^.|.'.(.a t.e.e.g -././.( %.0.I.I.,XO.XX<X+X+X<Xh a 6X6Xh 5XvX{ /.`.r.L.r.O... .|  .t.&X",
"#X=XoXoX8XAXsX7.XXb.#X,X8X3X$XXXB.B.A.U.&X7X4X#X,.3X9XcXuXa h.pXg.B.g cX8XfX[ XX6X<X1X+Xh a <XrX0XwXjXI.).&X`.@X4Xy.q.OXoXqXiXbX",
").oX).).3XSXsXO.OX3X5X8XwX0XXX+Xd.h.OXe.;.;.w.u.%.8XdXCXXXa ,.4.5.Z.&.wXSXZX[ L.+X5X5X,Xa k <X+X+X6X8XU.OXd.OXB.OXv.).V.%X&X3X:X",
"b.&XOX9X&X>X'.7.#XwX<X#X3X*XXX$X$X+X6X;...>.9.s.l ].5XDXa h y.2.6.&.a nXSXVX[ Y.<X+X+XJ a <X,X1X+X,X5XI.p.3.u.d.OX<.n.=X=Xv.v.V.",
"v.v.b.oXoXpX'.7.@X2X0XeX2X#XXXXX3X6XMXK.7.7.w.L.`.}.^.a d =X7X].=.C k cXBXVX[ Y.,X,XY c.6X1XdX6X1X6XdXT.:.f.d.j.#Xy.).b.V.).b.V.",
"OX&X-XoX&XiX'.| d.OX*X2X6X@X0X*X#XOXOXe.w.q.a.Y.{.{.9.d J 2X'.9XH a p.8XCXFX] T.<X+XH 6X6XfX6X6X+X6X,X+XU.f.+X(.*X9.b.V.).OX).n.",
"oX&X=X&X=XiX].E ) ) ) @.J.7.` ) E Q  .Q ( o.O.@.J.o.d J =XlX/.k.H 5.6.p.OX4 ) @.e.Y J T._.Y.[.Y._.,X}.T.rXXXXXT.#X| 2.V.V.%X).b.",
"-X).@X@XB.A.=X].CXvX6XvXlX_.8X5X'.`.,X].L.'.J.F.L.^ Z H 8X2X&Xk.H 6.6.6.%.@ @ r.e.F H [ ) [ ) ^ ^ } J.#.K.8.` 7.8.E 4.v.B.B.-XoX",
"0X=X=XoXv.4X'._.6X5X5X1XmX2X3X2XwXuX8XvXvXyX8XbXSX_.H H =X9Xt.n.H u.i.i.4 @ 6 -.i.d.H H 5X@X+X+Xa ,.jXY.`.].Y.}.gX) 6.i.v.oX&X].",
";X*X=XV.B.N.v.J.6X1X`.].vXL.4X,X].3X2X{.6X4X@X2XiX8XF H =.&XDXt.Y k.v.%.@ q a @ s.XXY H K.d.OX0.g j.XX}. X,XOXnXFX{ B.b.&X-XyXt.",
").b.b.v.m.*X^.Y.,X,X,X].<X/.4X9X9X6X&X5X4X6X2X4XMX].y.H H x.*X=XM.H oX0 @ q a % -.`.,XH `.a.$Xd.g 3.p.XXwX<XOXjXgX#.v.).b.&X4X9X",
"&Xb.s.m.4.4X_.P.{.1X,X5X3X(.8X6X&X3X9X2X9X2X3XwXvX&Xt.).I H x.&X>XH > @ @ @ a a @ @XU H _.I.<X#Xd.U j.w.h.i.j.XX=X$.oX).&X4X4X4X",
"t.w.b.].9XmXJ.^.,X{.{.,X6X/.3X8X6X2X5XcX8X].8XwXwX].q.@X'.m.H x.n.H & 6 6 $ w 4 @ 6 t H H a.XXXXf.H +XXXU.+XU.B.=XO.).9X].-X).oX",
"_ X.) ^ ) '.J.J.K.K.K.r.8.L.5X*X9XtX].&XqX6X&X2XvX|.( ^.e.+.K H p L L Z d a 8 6 w w S t @ @ d.j.d.H Y $XB.$X#X+XqXo.+.| ( ) ^.( ",
"/.bXcX4XqX4X&X*X-X<./.oXa.L.6X4X2XwX4X].3X8X5Xk mXtXI.3X=X%XK K t H P L f a a a a a A H $ a 7 d.OXH Y OXXXU.g.rXeXY./.`./.e.8X@.",
"y.uX&X=X4X6X=X&XzXCXlXZXt.L.&X5X].2X4X3XB.bX6XG yX/./.+X).@ A K C f A K f a A C a a L L Z @ a M.H P N.3X<X<X,.&.fXT.wX*X#X+X).[ ",
"q.&X=X).oXb.B.yXSXBXmXDXaXt.8XyX8X2X3X,.8XwX9Xg.Y ^.).).n.# y K C w s S y 6 7 D 9 J P K C @ 6 t P T @X@X<X<X&.a wX`.).0X0X*X=X[ ",
"t.b.oX-Xb.b.).n.8XzXlXZXaXr.2XtX8X2X&Xa M.3X9X@XH t.(./.w.@ @ Z H d a D 5 @ t H 5 H J H 7 @ @ 0 K C.6Xj.,X<Xa B 6XI.(.#XrX*X;X] ",
"q.-X9XoXn.<.n.|.|.lX).*X-X$./.@X*XwX5X@Xd z.uXuXc.y.).d.@ @ @ @ K K 9 e $ @ Z t @ H A d @ @ # a U #Xk.XXjXx.k <X2XK.3X#XOX#XOX] ",
"e.oX-X&X/.8XcXmXzXoX).&X=X+.^./.(.(.{./.d l.n.).c.| a.@ q 8 @ O V L H 9 @ t H @ D Z A w @ @ a a h `.J h 3XJ =.,X,X8.(.#XOX@X=X$.",
"q.zXmXlX|.n.n.(.(.n.oX).%X).=X-X=X4X4X/.l.b.'.I V.(.i e a % # o.c > H D * V H   V & 4 @ @ o a a h 5X4.S ) H H K.Y.O.| 7. .7.U.{ ",
"..v.oXb.2XfXmXzXCXxXmXSX7Xn.s./.&X|.vXiXH :Xc.z.p.B.4 g 0 @ @ '.+.* < H o V A V D     @     4 a h ;XMXY T.XXH Y qXuX%XOXA.Z.Z._ ",
"( n.n.].9XdXSXSXCXSXBXSX7X9X).b.4X4XyX].n.n.).H d.>.6 a $ @ ZX[.| v 8 J     H H a = X oXL.  @ a h @XH b.+X].H H oXOXs.p.p.h.C._ ",
"$.7X9X7XlX7XlXmXCXmXlXlXoX&X&X).*XuXuXz.|.-XM.Z.U @ @ @ @ -.&X}.| ~ # H <   V H   O /.oXs.  @ @ 9 K R _.,Xz.z.u.f.Z.u.4.3.i.V.) ",
"R.SXzXdXxXmXBXxXdX&XV.=Xn.|.).%X*X&X4XH k.B.H /.H y @ # @ a.d.q._ <.%.H > w H > = @ @X#X .B.X @ a H R zX].H hXI.:.,.N.h.2.i.V.) ",
"[ dXBXxXxXzXfX/.e.1.;.v.q.y.&Xn.b.oX&X+.H K L i d 0 @ # ! d.3X'._ 1.! H . 9 H -   r.%.s.| a.  @ % f U  XvXH   ( 4.6.i.i.- p.C. .",
"_ 7XVXkXxXBXaXn.[.[.}.].v.y.b./.y.oX2X+.H P w $ $ @ @ v /.d.oXk  .! 0 H   = H . O./.k J }./.a.X $ 4 a [.fXL dX@ >.,.a.!   >.B.w.",
"u.oX8XwX4XiXNXxXBXCX2Xu @ @ CXmX9X4XnX@ C H @ @ @ # v t.@X2X0.B.'   . u . . H D u i vXU gX3XOXOX* @ % j Y P V = = Q +X+ ] 1X- :.",
"2.3X=XwX3XiX9X'.}.; @ E.!.!.Q.ZXzX; @ @ + + * b @X(.@X`.].@XhXJ r       o   S P J     H 1XI.a.h i.XXX 4 s P d + # @ @ { dX=   Q ",
"<.3X4XqX3XuX3Xc D.@ H.% W.W.W.6XgX@ @ @ @ n.b.d.(.I.&X,X,X{.J.V r       @   * S H H J = ; 3XU U.I.OX3Xo.@ @ @ @ @ @ ' Y.% O _ Q ",
";.&X*XuXcXvX@ D.W.W.W.!.W.W.n M # X @ @ a.@X+X@X(./.].6X5X5XO 5 &     . @ *   + S H w J = @ H ,X`.@X6X8.I.@ @ @ @ @ @ @ @ R.@XQ ",
"<.3X@X@X@ @ @ @ W.W.W.n n n n n u.s.9X+.w.(.d.).2X(.a 5X5X+ a 6 @     O @ @ X X   S H       @ J @Xb.OX| ,Xs.d.3XdXzXgXgX@X8XgX) ",
") K.b % @ W.N W.% m n n n n /.{.2X,XjXq.| +.q.q.L.r.H O.' 7 a a @     ..! ! _ ; X   w J       P B.B.C._ (.`.r.w./.[.G.R.O.` w.Q ",
"@X` # D.W.W.W.!.n n n m _.`.`.].@X,XuX@X&XyX=X0X4X&Xk.|.@ 6 w 6 O * :.i.4.n.) `.b X           L ; d.;X2X/.OX%XOXqX8XsX/.hXzXjXhX",
"{ @ ; ; W.W.E.n n n } 7X1Xa.).U.).*XXXq.d.v.v.v.>XA.H ;.# @ @ @ # b.-XpX&XuXX.L.+X<X#         X @ u OXU.,Xs.p.XX%XB.+X#Xj.0XnXwX",
"@ m W.W.W.S.n M } @X`.s.b.s.w.w.<.i.u.>.i.i.i.2.v.V.U S 7 @ + + b.%XoX&X&XyX( {.1X<X3X@       @ @ $ +X].fX1Xf.f.>Xp.`.3XXXU.$XjX",
"; W.W.W.S.n n ~.+X{.{.I.n.(.d.;.:.d.d._ ).b.u.u.V.V.m.Z # @ * u -X=X&X&X9XbX] ,X6X<X3X,Xb X * @ a a u Y.gXnX`.6.5.p.+XjXwX6X<X+X",
"' W.W.S.n D.GXJ.,X<X,X`.`.a.s.s.<.<.v.>./.oXoX/.b.w.7 7 @ + O u.].4X4X9XyXMXF.I.5X1X6X5X,X<X@ @ q a u dXAXAX5X6.3.:.f.$X+X#X3XjX",
"jXQ.S.n D.FXkX{ @.K.e.e.K.O.| ( Q _ ;.) y.+.s.t.7.a 0 @ +   # yX9X&X9XyX9XvX$.X.e.@.@.K.8.7.@ @ + q ; J.hXaX_.! >.' >.3.h.$X*X<X",
"jXjXn D.nXFXFX+X8X8X2X2X2X8.r.K.o.` b.;./.R.O.{ O.a @ + o O a.&XtXvX|.yXyXvX'.t.7.) ^ @.R.+ @ @ + % #.J.J.J.@.o.o.z 2.i.,.N.OX+X",
"rX+XT.XX#XDX1XK.OX+X#XU.iXnXSXSXAXcXB.wX&XiXMXbXiX6 # X   n.=X].].&XlX|.9XyX/.b.i.a.<.0XcX@ @ O   9.vXMXSXvXMXNXCXG.>.3.h.3.h.XX",
"j.0X6X6XrXbX[.U.XXXXXX0XeX`.5X+X6X&X$X*X&X2X#X<X,.@ #   , =XyX|.9XyXuXtXtXlXJ.n.b.@Xu.p.j.@ +   $ 1X9XtX8X7X7XtXmX^.! 3.3.f.j.B.",
"j.#XeX6XeXwXa.a.U.U.XX3XwXT.+Xd.+XOX@X&X#X#X@XXX+     1 -X-X&XyX&X].yXtXlXzXG.y.].).<.N.% @   @ ' @X2XcXfX7X2X8XvX^.>.f.5.3.g.j.",
"XX$X#X<XeXeXI.U.#X`.$X$XcXa.d.).d.B.oXXX*XXX3Xa.4 6   ) -X|.yX9XlX|.9XyX|.tXn.|.5X].i.p.O O   @ L.U.5X9X8XtX5X5XzX'.' 3.h.u.f.B.",
"a.u.d.d.+X8X7.a.+X#X+X+XwXY.+X8X5X+XB.d.OX3X<XU.@ 8   3 n.^./.=X|.|.'.|.'.|.X..X{.,Xi.s.=     * O O @ K.|.8XfX7XlX.X_ <.j.d.d.a.",
"c 2 2 2 3 { ` ` 7.O.O.8.8.}.nXzXjX3X*X@X+X<X,X$X9.o.) } y.n.$.$.X.X.E 3 3 $.X.X.F.@._ >...K.( ] ) { #.{ J.8XcXcXcX'.2 z c 2 z E "
};
