/* XPM */
static char *result[] = {
/* columns rows colors chars-per-pixel */
"64 64 218 2 ",
"   c #0B0B0D",
".  c #060405",
"X  c #1B0102",
"o  c #0E0F10",
"O  c #121214",
"+  c #151619",
"@  c #17181A",
"#  c #191A1D",
"$  c #0F1012",
"%  c #260000",
"&  c #2C0101",
"*  c #330101",
"=  c #3B0101",
"-  c #201F1C",
";  c #1D1E21",
":  c #1F2124",
">  c #212225",
",  c #24262A",
"<  c #27282C",
"1  c #28292D",
"2  c #2B2D32",
"3  c #2F3136",
"4  c #33353A",
"5  c #36393E",
"6  c #313338",
"7  c #3E372B",
"8  c #201F21",
"9  c #420101",
"0  c #4C0202",
"q  c #4C0A0A",
"w  c #540202",
"e  c #5C0303",
"r  c #56090A",
"t  c #650303",
"y  c #6C0404",
"u  c #740404",
"i  c #7C0505",
"p  c #681B17",
"a  c #70231C",
"s  c #413D35",
"d  c #763026",
"f  c #5A503C",
"g  c #3A3D43",
"h  c #373A40",
"j  c #3E4047",
"k  c #3F4148",
"l  c #42454C",
"z  c #46484B",
"x  c #58554A",
"c  c #464951",
"v  c #494C54",
"b  c #4C4F58",
"n  c #4E515A",
"m  c #51555D",
"M  c #565758",
"N  c #726951",
"B  c #535760",
"V  c #565A63",
"C  c #595D66",
"Z  c #5B5F68",
"A  c #5E626C",
"S  c #60646E",
"D  c #626671",
"F  c #656974",
"G  c #6A6E79",
"H  c #696C76",
"J  c #6D717C",
"K  c #73767C",
"L  c #7B7868",
"P  c #625F55",
"I  c #840C0A",
"U  c #87100D",
"Y  c #88110D",
"T  c #8B1B14",
"R  c #881710",
"E  c #8E2219",
"W  c #8D2319",
"Q  c #91251A",
"!  c #932B1D",
"~  c #942E22",
"^  c #963222",
"/  c #9C3C2B",
"(  c #993726",
")  c #923D31",
"_  c #9D422C",
"`  c #964A2E",
"'  c #9B4933",
"]  c #9C5439",
"[  c #A34C34",
"{  c #A24836",
"}  c #A6543B",
"|  c #A1492E",
" . c #A95B43",
".. c #887957",
"X. c #8E754F",
"o. c #AD6448",
"O. c #B16A47",
"+. c #B9784D",
"@. c #BA7854",
"#. c #B2734E",
"$. c #8B7058",
"%. c #C17C57",
"&. c #998558",
"*. c #A48A5D",
"=. c #BC8555",
"-. c #B1925B",
";. c #928666",
":. c #A99768",
">. c #B59C66",
",. c #A99C73",
"<. c #B49E72",
"1. c #B9A36B",
"2. c #BDAA73",
"3. c #BCAB7B",
"4. c #B7A575",
"5. c #B2A876",
"6. c #C4875A",
"7. c #C4925D",
"8. c #C89866",
"9. c #CA9765",
"0. c #C8A868",
"q. c #CCB16D",
"w. c #D3B46C",
"e. c #DAB46D",
"r. c #D7B96D",
"t. c #C5AC77",
"y. c #D4A975",
"u. c #CDB474",
"i. c #C3B37C",
"p. c #CAB579",
"a. c #D3B373",
"s. c #D6BA73",
"d. c #DBBC73",
"f. c #DBBD7B",
"g. c #D5B97A",
"h. c #D1A66C",
"j. c #E2BD76",
"k. c #DCC176",
"l. c #DCC37C",
"z. c #D7C17B",
"x. c #E3C475",
"c. c #E2C57B",
"v. c #E5CA7D",
"b. c #E9CB7B",
"n. c #717681",
"m. c #757A85",
"M. c #797E89",
"N. c #797C86",
"B. c #6F7480",
"V. c #7D828D",
"C. c #7F8390",
"Z. c #828691",
"A. c #858A94",
"S. c #8A8E99",
"D. c #8E929D",
"F. c #90949F",
"G. c #81848E",
"H. c #BAB088",
"J. c #969AA3",
"K. c #9EA1AA",
"L. c #A2A5AE",
"P. c #A8ABB3",
"I. c #AEB1B8",
"U. c #B3B6BD",
"Y. c #C9BA85",
"T. c #D8BD84",
"R. c #E1BE87",
"E. c #DCC483",
"W. c #DDCB8C",
"Q. c #D8C587",
"!. c #DACB93",
"~. c #DED195",
"^. c #D0C48D",
"/. c #E3C584",
"(. c #E4CB84",
"). c #E4CC8B",
"_. c #E9CC8C",
"`. c #E6C887",
"'. c #E5D18B",
"]. c #EBD38D",
"[. c #EAD488",
"{. c #F3D688",
"}. c #E2CE91",
"|. c #E8CD91",
" X c #E4D393",
".X c #EBD493",
"XX c #ECDA95",
"oX c #E5D59A",
"OX c #EBDB9B",
"+X c #E9D799",
"@X c #F2DB94",
"#X c #F3DC9B",
"$X c #F3D696",
"%X c #F1CF93",
"&X c #EEE19B",
"*X c #F3E29C",
"=X c #F7E599",
"-X c #F4E18E",
";X c #D5CBA1",
":X c #ECDDA3",
">X c #E8DBA8",
",X c #F2DEA4",
"<X c #E9DDB0",
"1X c #EDE3AD",
"2X c #EDE2A4",
"3X c #F3E4A2",
"4X c #F6E9A9",
"5X c #ECE5B6",
"6X c #F4E9B5",
"7X c #FAF3B1",
"8X c #BABDC3",
"9X c #BEC1C6",
"0X c #C4C6CC",
"qX c #D5D7DB",
"wX c #CCCDD2",
"eX c #E8E9EB",
"rX c #EEEFF0",
"tX c #EDE9D3",
/* pixels */
"Y.6X|.).^.W.XX=X7X7X7X7X X^.>XOX,X].'.$X+X#X#X_.#X4X[.@X=X=X7X5X^.3X,X,XT.).%X$X#X#Xb.{.7.2.+X3X4X+XOX*X^.!.~.OX4X4XT.%X_.j.T._.",
"*.c.v.(.-X[.(.XX-X[.XX-X[.^. X'./.`._..X$X.X.X.X=XOXf.v.c.f.v.).i.T.`.%X.X|._.`.`.`._.{.a.i.W. X X+X X3X2X&X+X X4X~.e.e.e.e.j.=X",
"X.w.k.d.z.v.z.z.l.l.(.-X'.t.f.b.c.)._.|.).$X).|.=X'.g.c.(.c./.).Y.$X|./.`._._./.R././.$Xf.Y.}.+XOX X~.~.+X2X2X+XOX^.k.e.e.e.j.{.",
"&.k.k.c.v.[.z.'.[.XX(.[.v.>.q.a.f./.l. X.X.X|./._.).f.(.{.).(..X<./.`.|.`.`.`.`.j.`.`.@XE.Y. X+X+X X X XQ.+X+X&X2X!.q.e.e.e.e.-X",
"&.z.k.k.k.v.v.[.'.&X[.b.[.i. XoXf././.).)._.}.)..XE.u.[._.@X_. Xt.R.`./.`./.j././././.#X+Xp.W.+XoX X X X~. X[.OX3XY.a.w.j.e.y.b.",
"&.s.v.x.k.r.k.v.l.&XXXl.b.i.^.W.p.0.0.4.4.2.4.<.T.!.J.J.J.U.8X9XU.L.J.J.T.R.R.`._.R./.%X XH.Q.W.Q.^.'.~.^.z.Q.Q.Q.i.f.a.e.j.c.{.",
"&.k.k.k.l.k.l.k.k.[.XXXX-X2X$X@X{.{.=XE.l.@X4X7X4X@XS J J m.n.m.m.A.G D f./.`._.`.%X`.$X3XW.W. X+XW.Q.3.5.2.2.i.^.i.t.2.4.1.t.1.",
"X.r.k.x.k.r.k.k.d.v.*X&XXXQ.).).)..X#X'._.(...c c j S 5 l F.A.A.D.v 4 D g c l $./._.).#XOXk.x.b.(.k.{.l.+X2XXX&X&X4X XXX#X3X4X#X",
"&.k.k.k.k.k.q.k.k.k.[.&XXXQ.W.E.E._.].E.x Z.Z M.J.C D n n : Z.A.> b c F B J.J.Z S.z _.#X/./.d.d.x.x.x.k.Q..XoXQ.E.#X:X|.+X}..X*X",
"N q.q.r.r.k.q.r.k.l.[.&X~.(.`.E.g.(.P G.L.U.G A.qXC.J C C 6 B B h B B B.M.qX8XH U.L.M.N Q.(.c.x.x.x.x.w.T.W.|..XW.).+X.X#X+X.X7X",
"&.q.k.k.r.w.w.r.r.k.v.-XE.u.f.z.M J P.I.0XrX8XC S.B J J C k h g j A H n.B D.S U.rX0XI.P.G.M (.c.x.k.x.q.Q.E.}.).E.).Q.Q. X#X,X7X",
"&.1.q.q.q.0.L A m V A l.P Z g Z J.J.U.rXqXJ.D < ; O F H F J A.A.n.D H G O # # D J.wXrX8XL.J.Z l M N x.u.|.E.(..X/..X+XW.).OX+X7X",
">.z.k.k.z.Q.L G J J K.D L.qXJ 5 J.0X0XA.B 6 + O , , # # # # > : @ @ # # , < # + 4 B A.0XwXJ.h F qX0Xx n qXZ F J W.s.XX.XE.E. X3X",
":.~.&X X1X4X;.J J m.m.C.J K m.H h M.C 4 @ O 3 ; O $ . X % % & % % & X . $ O # 3 $ ; 6 B G 4 H M.m.J.C 0XS.H A G /.).s.E.).|. X{.",
";.5X1X1X5X6X;.B M.F V S.N.c n N.S . #   > ; # O . & & & & & & & & & & & & . O # ; >   ;   Z M.n A.N.P.U.V.G S D l.E.l.s./.). XoX",
";.5X6X5X5X5XK G D D J K S.N.D A n.. $ # $ . X * * * * & * & * & * * * & * * * X . $ @ $ . B.Z D A S.P.eXJ.H S m E.g.l.q.w.f. X5X",
";.1X1X1X6X6XL B A n.C.G J F.j V.  + o . * * * * = = * * * = = = * * * = * = * = = = . o +   N.A G.0XF.A.I.A m b W.E..Xg.q.w.l.3X",
"N z.+X>X1X1XL D A A S.# v V.J o O     = = = = = = = = = = = = = = = = = = = = = = = =   . + . V 0XU.A M 0XC m c ).).).).E.p.z.v.",
";.2.p.^.^.>XD J F V.A.2 : A A.O . % = 9 9 9 9 9 9 9 = 9 = 9 = 9 = 9 9 9 = = 9 9 = 9 9 9 %   $ V.9XV., v qXA m v i.t.1.1.1.2.g. X",
"{.&Xl.(.XX7XL A F n.V.k , : S.: % 9 9 9 9 9 9 9 9 9 9 9 9 9 9 9 9 9 9 0 9 9 9 9 9 9 9 9 9 % o I.N.K 5 S 0Xm V v XXp.q.(.v.XX=X4X",
"W.(.W.E..X6XL m A F A.A 2 , n : 0 0 0 0 0 0 0 0 0 0 9 0 9 0 9 0 0 9 0 0 0 9 0 0 0 0 0 0 0 0 @ I.b 1 j Z.9XA V c v.l.l.[.(.XX'.@X",
"l.[.(.+X'.{.x A A A V.H c J j 1 0 0 0 0 0 0 0 0 0 w w 0 0 w 0 0 0 w 0 0 w 0 0 0 0 0 0 0 0 0 : I.5 v G V.0Xb m m _.s.z.[.{.k.k.v.",
"k.k.v.v.W.-Xj V A V K V.k ; A , w w w w w w w w w w w w w w w w w w w w w w w w w w w w w w : J.V.Z.j 8XP.m m b _.u.l.l.(.l.k.l.",
"(.[.(.W.[.-Xj A A A V.n 3 3 : , w w w w w w w w w w w w w w w r w w w w w w w w w w w w w w : C.3 3 A.c P.c v v _.u.l.(.(.[.E.l.",
"(.[.].[.V.K.A G A A N.M v c ; , w w w e e e w e w e e w e e e e e w w e e w e w w e e w e w : J j n m A U.k j j K.C.w.c.v.[.l.l.",
"'.E.'.p.H F.A A A V V.4 F F : 2 t t e t e e e t e e e t e e e e e t e t t e t t e e e t t t : J 5 V A C.I.5 6 6 J.J 1.k.c.c.[.(.",
"@XXXXX(., A h m m A J A k : ; + q t t t t t t t t t t t t t t t t t t t t t t t t t t t t w V A 4 A A A K.3 3 2 m   w.s.k.v.'.W.",
"[.{.].v.- D m 3 6 g : H b 3 ; + q t t t t t t t t t t t t t t t t t t t t t t t y t t t t r J n 5 k n.0X9X: : : l @ c.k.[.W.&Xz.",
"(.l.z.k.- H , S.K.O + + H : + ; q y y t y y t y y y t y t y t y y y y y t y y t y y y y t r G V j j S.l 4 A n.J A j k.l.W.'.XX+X",
"'.E.s.r.- K k A J m @ @ m.: + : r y y y y u u y y u u t y u u t y y y y y y y u y y y y y r A m k v K.P.eXP.G C.V.K i.W.[.'.-XXX",
"p.u.z.W., 2 j 4 z j ; : 2 3 k : r u u y u u y y u y u u u y u u u u y y u y u y u y u u u r v m G l m.rXqXP.V.I.J.L.A 5.'.(.Q.W.",
">.5.*.;.V.J.9XqX0XA.: : 3 m m # t u u u u y u u u u u y u u u y y u u u u u u u y u u u u r m m k n U.rXeXP.J.J.H D n x :.:.^.:.",
"^.=X&X'.l B m.Z.B.m < < h Z , ; u u u u u u u u u u u u u u i u u u u i u u u u u u u u i u ; v g M.wXwXK.8XqXc Z.J.M.b Q.p.OX4.",
"u.*XXXXX].x b Z g > 2 h h v O ; i u i u i i u u i u i u u i u u u i u u u i u i u u i u i u > v 3 n.9XJ.rXI.P.Z 8XM.M.m._.E.W.,.",
"p.'. X/.(.x D.L.K.D 2 h h n O ; i i u i i u i i i u i i i i i u i u u i i i i i i i i i i i 8 z l S D qXF 6 C 6 Z.l D C {.]..X,.",
"p.l.(.(.x.P Z.8X8XC h g g g O ; i i i i i i i u i i u i i i i i i i I u i u i i u i i u i u 8 l m G H C , 2 < 3 Z.n l b {.].%X,.",
"i.b.XX(.f.x M.K.L.m h g g g c ; i i i i u i i i i i i i i i i u i i i u i i i i u i i i i i : c V m m.m.j S G g J v v 1 `._._.,.",
"i.W.'.'.E.P S.D.D.v g g g h , ; i i I i I i I i I i i i i i i I i i I I i i I i I i I i i i : l v m D m I.D.M.v V.k z m `._..X3.",
"u.2X4X2XoXx M.J.M.m v l b g   ; i I i i i i I i i I I i I i i I I i i i i I i i i i I i I i : b 8 b C m D 5 n > M.3 1 g 1.0.E.<.",
">.k.(.l.oXM M.K.F., B.D b o . ; I I I I I I I I I I I I I I I I I I I I I I I I I I I I I I : b J F j D.F g 4 # H < > : [.b.b.>.",
"5.z.z.W.oXx V.K.D.D B.M.h   o ; I U U U U U U U U U U U Y Y Y U I Y Y Y Y Y Y Y Y Y Y Y I Y > l 3 ; n P.m 6 v 4 c : > > d.j.b.:.",
"3.OXoXoX2Xx B.K.B A.S.F ; l . 3 p T T T T T T R T T Y Y T R T T I Y R T R R R R T R T R R R : l l # Z n.b c c g 2 ; # X.r.d.b.:.",
"H.7X1X>X1Xx J m m.M.A.c h ; ; < p Q Q E E Q T T T E E Q E T E T R T E E T E E E T Q Q Q T d C.k 5 C v 5 v g 1 l     N j.w.s.b.:.",
",.>X5X>X1Xx j V Z D Z ; <   6 < p Q Q E Q Q Q Q Q Q Q Q Q Q Q ! E Q E E Q Q Q Q Q Q Q Q W a 0Xg ; > c H v c g   O f r.d.s.f.b.1.",
"1.2X5X5X>Xx < j h h b 6 3 ; o > a ~ ~ Q ~ ~ Q ! ! ! ! Q ~ ~ ~ ~ Q ! ! ! ! ! ! Q ! ! ~ ^ ~ a F.< J ; v C J.; @ @ s 0.g.0.0.0.x.u.",
"q.l.+X&XXXf , h l 6 l V   ; ; < d / ) ~ ~ ( ( ( ~ ^ ( ~ ( ( ( ( ^ ( ^ ^ ( ( ^ ( / / / / ) ~ V.2 < l v g J ; , ; s e.:X}.:X}.k.0.",
"q.XX'.&XXXC m 3 h h l < 3 < ; < d ' { ~ ( / ( ( / / / / / / { / ( ( ( ( ^ ( ! ( ( ( / / / d F 4 4 6 $ S.n., 2 > A b.>XoX:XW.d.*.",
"q.'.-X&XL 2 , 3 g h g ; > ; o +  .{  .) / _ _ | { / { / { { { ) _ _ _ / _ _ ( _ _ _ _ _ { ) M.c : 5 c n n.1 3 , 1 L 2X2X<X2Xv.*.",
"0.].'.!.m.Z.J D b v 2 > 3 . h O [ }  .' _ } [ [ [ [ [ }  .} }  ._ ` | | _ | / ) [ { { { { { ; b 2 , 3 l H 2 3 ; C.M.;X5X<X<X|.*.",
"q.XX).Y.K.8Xn.A B F Z 6 . o 6 O { }  .' ' } } } } } }  . . . . .| | | | [ } {  .} } }  . . .; C l   g n C H F H 8XL.Y.>X~.oX,X:.",
"-.Y.E.1.Z.M.V h j l j h c h F + O.o.#.] ] ] } }  . .} ] ]  .o.] ` ` | ] ' ] ' o.O.O.o.o. .o.; M.g k , Z V.k 6 h n.C.H.Y.2.>.t.*.",
"W.4X5X^.m.m.k 2 < , C B h B.< O +.+.%.+.+.%.@.%.@.@.#.@.@.@.=.6.=.O.O.O.O.O.{ @.%.%.@.%.%.@.; v D.C v n v @ # + m.m.H.Y.>X1X,X>X",
"5X1X<X;Xn.G h , < , b C k 6 h O +.6.6.#.+.+.+.%.6.6.%.6.6.6.=.+.6.6.6.6.%.9. .@.%.%.%.%.%.%.> g V A N.J.V.# > + G n.t.`.j..X6X#X",
",X1X5X;Xb H 6 < , < c g , h + o =.=.=.#.6.=.=.+.6.8.-.7.7.7.8.=.7.7.7.7.6.9.$.9.8.8.8.8.6.9.; 3 g b c m m.# ; O H b 3..XW.f./.,X",
"_.|.<X;Xh g , : ; > l < 6 # ; =.=.8.7.=.9.9.-.9.0.h.9.h.h.9.y.h.h.y.e.h.T.R.@.9.y.T.Y.H.h.y.z h 2 g c l C + + + g g t.,XOX+X|.`.",
"/./.,X6Xx n 1 : @ ; h g   ; y.y.8.0.w.>.w.k.f.a.a.c.0.f.e.f.b./.g.(.`.(.R.%XH.H.R.R.R.R.R.R./.7 6 , g g F # @ + B s a./.`.|.%X#X",
",XE./.#X1XtXN # @ @ g O f 2.1.:.*.>.0.:.p.2.g.p.p.^.p.v.v.'.v.&XXX X X&X X4X3.5.i.3.3.Y.t.t.t.t.3.O , F k + + O 0.:.0.e.j.c.%X|.",
",X,X|.`.,XtXN @ @ ; O N  Xi.p.Y.<.<.z.q.^.Y.2.<.5.&.p.v.[.W.'.[.&X3X X&X&X=XQ.z.t.:.&.H.Y.Y.3.<.,.:.+ 3 k : : @ 4...w.d.w.j.`.`.",
"%X_.|.T.%X6XP @ @ @ N /.=X6X6X6X6X3Xc.#X'.*X4X4X-Xv.5.z.'.~.[.W.W.'.2X~. X&X^.z.f.s.w..X,X+X4X3X3X7X3X..6 2 2 ; 6XH.0.e.j.e.j./.",
"f..X$X#X%X4X!.T./././.%X#XQ.+X|..X].`.).).'.].%X-Xv.i.v.v.-X&X'.XX&X&X&X&X2Xi.z.z.W.a.k.`.Y.].).W. X+X2XOXOXOX&X7X^.-.e.e.e.j.c.",
"j._.#X$X$X$XT.g.T.R./.%X#XT.E.f./.(.).].)._.'.l.[.W.2.v.v.~.[.&X~.z.&X&X2X1XY.z.Q.W.w.x.(.^.&X+X}. X'.3X&XoX~.OX4XY.0.e.e.e.j.j.",
"E./._._.#X#Xg.T._.Q./.`.,Xg.j.E.E././.(.].`.].W.&X~.p.W.'.~.&X&X&X~.XX&X~.&Xi.~.oXW.w.d.[.p.~.+X}.'. X+X+X2XoX+X4X!.>.e.j.a.d.j.",
"e.e.f.g._.+Xt.p.`.`.T.|.:XT.).:X|./.E.f.(..X X'.-X&X5.z.^.z.z.~.XX~.W.W.W.oX5.Q.~.~.d.s.s.p.+X&X XoXoX+X~.OX2XOX2X^.-.q.j.d.g.g.",
"X.N N N N <.>.>.t.3.<.Y.t.}.1X>X3X.X_.).(.%X'.'.&X-X^.~.z.z.i.i.,.5.;...N 5.5.,.H.3.-.0.1.p.~.'.~.+X2X+X+XOX2X3X*X!.N X.$.N X.*."
};
