/* XPM */
static char *result[] = {
/* columns rows colors chars-per-pixel */
"64 64 236 2 ",
"   c #3C1F23",
".  c #461E1F",
"X  c #4C1E1D",
"o  c #5D1E17",
"O  c #541E1A",
"+  c #5A1E18",
"@  c #641E14",
"#  c #6C1E12",
"$  c #6D2215",
"%  c #742413",
"&  c #7D2A14",
"*  c #752A1A",
"=  c #78321B",
"-  c #6B311F",
";  c #421E20",
":  c #452526",
">  c #4E342A",
",  c #553435",
"<  c #552B25",
"1  c #6B3626",
"2  c #7A3525",
"3  c #6E2E23",
"4  c #59221B",
"5  c #5C4138",
"6  c #644739",
"7  c #794734",
"8  c #6C5A1E",
"9  c #796746",
"0  c #7A7250",
"q  c #715747",
"w  c #832D15",
"e  c #8B3316",
"r  c #873015",
"t  c #9B3E18",
"y  c #933816",
"u  c #843F25",
"i  c #884317",
"p  c #974D15",
"a  c #A24218",
"s  c #AB4819",
"d  c #B54F1B",
"f  c #BC531C",
"g  c #B4501C",
"h  c #88771B",
"j  c #A26B14",
"k  c #85442C",
"l  c #88462D",
"z  c #874935",
"x  c #945738",
"c  c #8E5336",
"v  c #9C613F",
"b  c #C1571D",
"n  c #C35E1C",
"m  c #C6671C",
"M  c #CA751B",
"N  c #C97439",
"B  c #955B40",
"V  c #8E5650",
"C  c #8E554E",
"Z  c #866D4B",
"A  c #986544",
"S  c #8B784E",
"D  c #8A7855",
"F  c #957B59",
"G  c #936754",
"H  c #A66C48",
"J  c #A57954",
"K  c #A3714E",
"L  c #996567",
"P  c #9E766B",
"I  c #AB7278",
"U  c #A57B78",
"Y  c #D3921A",
"T  c #D9A818",
"R  c #DEB617",
"E  c #D9BA28",
"W  c #E4C917",
"Q  c #E2C51D",
"!  c #E7D516",
"~  c #EFF613",
"^  c #EBE614",
"/  c #E3C833",
"(  c #99845B",
")  c #9B854F",
"_  c #A68859",
"`  c #B4855A",
"'  c #A9925F",
"]  c #B9985D",
"[  c #998863",
"{  c #8D8265",
"}  c #A88B62",
"|  c #A99667",
" . c #BB9B64",
".. c #B59D6C",
"X. c #B79866",
"o. c #AC9C71",
"O. c #A69971",
"+. c #B49D73",
"@. c #B28969",
"#. c #B5A26D",
"$. c #BBA46D",
"%. c #BCA568",
"&. c #B6A374",
"*. c #BBA674",
"=. c #BDAA75",
"-. c #BCAB7B",
";. c #B5A578",
":. c #AEA473",
">. c #CD9557",
",. c #C39B6A",
"<. c #C1A46B",
"1. c #CBAD6B",
"2. c #C7A865",
"3. c #CCB26C",
"4. c #D4B36C",
"5. c #DAB46D",
"6. c #D6B96E",
"7. c #DAB96D",
"8. c #C3AC75",
"9. c #C1AD7B",
"0. c #C7AB72",
"q. c #C6B275",
"w. c #CCB473",
"e. c #C5B37C",
"r. c #CBB57C",
"t. c #CDB97C",
"y. c #CCBA75",
"u. c #D3B573",
"i. c #D6BA72",
"p. c #DBBC73",
"a. c #D3B57B",
"s. c #D4BB7C",
"d. c #DBBD7B",
"f. c #DAB775",
"g. c #D5AC6B",
"h. c #E1BD75",
"j. c #E2BF78",
"k. c #DCC176",
"l. c #DCC37C",
"z. c #D6C279",
"x. c #E3C375",
"c. c #E2C47B",
"v. c #E5C97D",
"b. c #EACC7E",
"n. c #EBC97A",
"m. c #EAD26E",
"M. c #A9A319",
"N. c #AF7C82",
"B. c #B58B90",
"V. c #B69898",
"C. c #B99599",
"Z. c #AF8889",
"A. c #BEB489",
"S. c #B9AC82",
"D. c #BDA2A3",
"F. c #C3AB83",
"G. c #CCBB83",
"H. c #C7B785",
"J. c #D3BD83",
"K. c #DCBE81",
"L. c #D4BE8A",
"P. c #CFB68E",
"I. c #C1AAAC",
"U. c #C4AFB1",
"Y. c #C6B1B4",
"T. c #C8B5B8",
"R. c #CEB7A8",
"E. c #D5C285",
"W. c #DBC383",
"Q. c #DEC985",
"!. c #D4C28A",
"~. c #DBC58A",
"^. c #DCCA8C",
"/. c #D6CB8E",
"(. c #DDCC93",
"). c #D8C895",
"_. c #DDD296",
"`. c #CFC58D",
"'. c #E3C484",
"]. c #E4CA84",
"[. c #EACB84",
"{. c #E1C68A",
"}. c #E3CB8B",
"|. c #EACD8B",
" X c #E8C687",
".X c #EBD185",
"XX c #E5D18C",
"oX c #EBD38D",
"OX c #EAD88B",
"+X c #F4DC8D",
"@X c #F3D589",
"#X c #E3CD92",
"$X c #E9CF92",
"%X c #E0CF9B",
"&X c #E4D394",
"*X c #EBD493",
"=X c #ECDA94",
"-X c #E4D49A",
";X c #ECD59A",
":X c #E7D99B",
">X c #EBDB9B",
",X c #E6D996",
"<X c #F1D593",
"1X c #F2DC94",
"2X c #F2DC9B",
"3X c #F5D998",
"4X c #F1CF93",
"5X c #EEE09C",
"6X c #F3E39C",
"7X c #F8E599",
"8X c #F4E18E",
"9X c #D7CDA4",
"0X c #DBD2A7",
"qX c #DFD9BB",
"wX c #EBDDA2",
"eX c #EADDAA",
"rX c #E5DAA7",
"tX c #F2DEA4",
"yX c #E8DDB2",
"uX c #EDE3A4",
"iX c #EDE3AD",
"pX c #E7E0AD",
"aX c #F3E4A3",
"sX c #F2E5AD",
"dX c #F4EAAC",
"fX c #F7EAA6",
"gX c #F9F2AB",
"hX c #EDE5B4",
"jX c #EDE7BC",
"kX c #F4EBB3",
"lX c #F5ECBB",
"zX c #F4E6B3",
"xX c #FAF3B6",
"cX c #F7F1C7",
"vX c #F5EECA",
"bX c #DAD4C2",
/* pixels */
"H.kX$X{.^.}.,X7XgXgXgXxX,XG.rXtXtX|.oX<X;X2X2X|.2XfXOX+X7X6XgXhX).5XtXtXL.{.<X3X2X;Xv.@X_ X @ o.fX:X:X2X!.(._.:XfXfXK.4X[.'.d. X",
"_ v.[.].OXOX].=X8XOXOX8XOX`.*X*X'.}.}.;X3XoXoX;X2X>Xd.].c.p.[.XX9.J. X<X<X}. X X X X|.@Xu.9.E.@.&X;X&XaXuXwX:X,XfX_.f.f.g.5.j.7X",
"D 6.k.p.k.v.z.z.].l.].8X} X 6 n.c.}.}.|.}.<X}.|.7XoXd.l.[.c.'.}.F.;X|.{. X|.|.'.j.'.'.@Xd.G.#X;X>X&X&X_.:XwX>X:X:XG.c.5.5.5.h.+X",
"F z.k.x.l.OXz.XXXX,X].z.: @ 1.u.p.'.q *X*X;X$X'.oX].s.].oX|.].*X*.].}.|.{. X|. X'. X|.3X~.G.> o.:X&X&X&X/.=X>X>XaX(.1.5.5.5.7.+X",
"( k.k.6.k..X.XXXXX6XOX6.J e.&X-X0.X.  } |.{.#X{.;XW.w.OXoX<XXX&X8.'. X X X Xc.'. X'. X3X,X5 7 ,X&Xe.-.;.^.&X,X=XaX!.g.4.h.h.g..X",
") 6.v.v.k.6.k.k.l.5XXXk.b.-.!.      6 $.*.9.+.+.J.~.| r.s.d.E.~.8. X4XK.'.K.'. X|.d.'.;X&Xz k (.[ > ^.  =.J.^.*.  -.s.u.g.h.j.@X",
") z.k.k.l.k.v.k.k.].5X=X8XwX      1.,.` ` ] ,.,.aX1XoXW.W.^.5X5X*.K.'. X'. X X[. X4X{.3XaX^.s.XX%X^.    | -.=.F   O 8.=.&.#.8.$.",
") 3.k.k.k.6.k.k.k.b.6X5X,X~.    O # # 2 x % # # # |.|.&XOX=X7XuX*.'.'. X X'.h. X'.}.}.3X3Xl.c.v.].x.      _.,X=XX.x &X=X6XtXfX3X",
"S 6.6.k.x.k.4.p.k.z.XX5X,XW.    O $ ].J.<.* # # # # *XQ.l.].b.OX-.{.'.'.J v  X X X4X|.3X~.c.p.4.7.x.p.'     > ,.{.3X>X*X;X#X*X7X",
"D 3.6.k.7.k.3.6.k.l..X5X,X].].D A '.oXw.# w w # # # v.c.i.6.6.x...{. X XL.>.# H K. X;X3X~.].c.7.l 2.7.1.K.l # H {.^.*X$X>X;X;XgX",
"{ 3.k.z.6.4.4.i.7.k.b.8XE.3.z.l.u.6.[. .# d b d e # v v.l.k.7.x...K. X X X X X# 1 6 $XtX).OX[.n.x.e % ` !.k # # 2 l k x '.>XuXxX",
"( %.3.3.3.2.y.2.2.2.y.Q.q.H.t.s.3.g.x.X.s b Y Y m f y H k.c.n.v...a.a.J.a.K.$XJ.@ . , {.^.].l.x.l.>.# # J.k # % d f $ e >.'.*XxX",
"#.l.k.k.z.z.e.#.q.e.e.t.t.A.`.).%.%.4.] Y W W W W W b a u.'.l..Xa.{.^.W.W.s...-.K ;     +.a.t.l.z.1.$ # r.l % b b b % b b b N fX",
"[ _.uX:XhXdX>XoX1X1X8X=X+X6X=X1X@X1X+X3.W W ! ^ ! W R b h.OXoXb.p.|.].oX X1X$X%XwXJ.O   F ;X=X=X=X].6.+   @ % M R m Y T R b N @X",
"{ hXiXiXhXiXyXW.@X[.oX}.l.].|.oXoX=X6X6.W W ~ ~ ~ W R g.].XXQ.b.w.c.'.|.].*X}.J.{.'.@     f.K.'.wX>XXX+   }.m W W W W W W W N :X",
"{ hXkXhXhXjXyX2.v.[.[. X].'.|.<X=XOXgX6.W W ~ ~ ~ ! W m.}.=XOX,Xa.W.'.oX<X>XW.1.f.'.@     K.}.K.d.|.=X+   ~.j.W W ~ ~ ~ ! W N jX",
"[ iXhXeXzXlX0X2.h.c.[.|.oX|.*X XoX}.6Xy.z.W ~ ! W W Q b.=XXXoX^.s.[.'.}.=X>XJ.K.a.a.@     {.{.{.{.$X;Xo   }.*X/ Q ^ ~ ~ ! W / 7X",
"D J.:XrXiXhX0X<.f.p.'.@X}.oX<X<X*X X+XE.e./ W W W W / }.XXXXoX}.q. X}.}.*X;Xr.{.K.l ;     #X#X{.~.4X;Xo   ~.}.OXW W ! W W W / [.",
"[ *.t.G.).rXA.<.|.c.|.2XwXW.|.|.[.n.@X'.`._./.m.m.y.8.r.y.t.0.8._  .0.0.J.}.*.W.` #     V :X;X;X#X*XL.    !.r.t.3.Q W W E %.t.XX",
"XXOX].].>XkX).8.W.l.XX$X;X;X}.'.v.c.[.j.XX:X,X,XaX<X2 2 2 = f f f g f t * 2 * 2 * ;     L.(.%X$X;XB @     }.^.}.,Xy.w.].XX=X7XfX",
"Q.}.Q.Q.*XxX9X-.].;X*X>X>X<X'.'.d.j.n.w.%.3.3.y.c y t d y f Y T W W b b b a y w # ;   ; # ,.|.{.` #     J d. Xc.v.l.Q.v.].,X*X+X",
"l.oX].=XXXb./.8.|.>X$X|.<XoX'.[.'.{.;X*.%.2.# # % # # # # # W W W W b b b b g # O   ; e b % k a.# ;   4 g.u.u.d.[.u.z.OXOXk.z.v.",
"k.z.Q.v.Q.8X/.q.|.oX;X<X&X}.{.'.;X*XfXJ.X.* # d b b b e # # j W W W b b b b # # @ ; $ b b b g # O   1 J.g.f.d.j.oXy.W.z.[.l.l.v.",
"].].].Q.OX7X/.#.d.}.oX*X;X|.*XoX|. X|.X.# % m W W W m b e # & R R m b b b % b b e # # # p s s @ ; % $ J a.u.'.W.|.w.l.b.].XXl.l.",
"[.].OXXXOX7X^.( | | | -.F.8.#.| ( _ *.( # d m W W W R b e @ s b b b b b b % b b = . $ # # # # o   g a $ c '.'.K.{.&.4.v.v.].].l.",
"OXQ.XXXXv.b.OX^.xXaX:XaXuX~.>X*X~.r.# # # g b M T T Y d w o b b b b b b b % b a X M.; # X 8 ; o i b d i j $ ..*.9.( 6.k.v.c.XX].",
"+X=XOX].k.=X(.!.;X-X-X&XdX#X*XK.= # # # # % b b y % & % O   & b b b b b y # % % # $ @ $ X > @ = f b g $ s T A ~.eX} 4.6.k.].XXQ.",
"oXoXOXv.x.x.z.H.;X#X).^.aX8.# # w e f w # O O + + + + X     + e b b f r # $ $ e = $ # o # # X p b b y # a f l tXvX+.v.z.OXQ.5Xz.",
"].l.k.k.k..X!.G.(.%X#X^.@.# # e b b b b e # # o             . e b b b a # # # + M.= # $ # ; # # $ # # # # d l tXuX;.l.Q.l.XX8X,X",
"}.W.k.i.i.8X!.H.#X#X#XJ.# # a b M R R b e # # # X     + @ ; ; e b b b b s # # o + h h p o ; # # # # # @ O   6 '.OX-.Q.].XX,X=X=X",
"t.y.z./.,XdXH.`.(.#X!.# # % b b b R T t # # # + O # # # # . ; @ a f b b b b % o ; @ @ O o # # # # # # O     6 '.OX*.Q.,XXXQ.W.XX",
"..#.| ( [ _.A.e.P.J # # # d b b b b w # # # # ;   @ # # # # + ; X & b b b f d # # @ o @ # # # # # # .       7 ].>X&.=.#.| | `.| ",
"E.fX6X5X1X>XXX.Xl.2 # # # # % s w # # # # @ [ L.; @ # o   o # @ ;   @ e f b b a # # # # # # # O         ; B $X$X3XL.E.~.!.r.>X;.",
"r.7XXXOX=X*XOXs.# # # # # # # # # # # + . ;X:XJ.; @ @ ;   ; ; # $ ;   4 & & 4 % # # # # # # ;           + {.$X$XtXL.6XoX|.'.Q.O.",
"q.OXXXQ.].l.c.# # e b a # # $ + + [ } !.,X5X:X|.x O # X X X   ; ;     X     ; 4 + + O     .         O # K.$X$X;X2X!.'.*X<XoX=XO.",
"t.z.].OXl.l.'.$ # d b a # # 6 5X;X*X&XXX}.*X*XXX,.# # # # # @ ;       X # @ $     @ # # # #         # # J.$X;X$X;XJ.'.|.oXoXoXo.",
"q.].=X].z.3.d.J # d b b a % ~.}.*X=X:X&X=X^.7X2X$X= @ o ; $ # ; o # O O .     + [ *.*.:XG.u O   . # # # {.$X$X$X*Xr.*X|.|.[.|...",
"e.Q.XXXXE.>X5X_.# # b b b % G.E.W.W.}.E.G.e.z.e.    @ # X ; @ ; ;   ; . * W.].&X|.^.{.;Xe.8.# o + # # @.-X&X#X#X%X9.E.OX XoX*X-.",
"q.dXdXuX,Xs.l.0.# t b b a $ OX].=X8X=XE.E.W.^.B ;     ; ; ;   @ # # 2 L.E.|.}.|.E.^.W.>X}.W.# # # # # A | *.F.H.L.*.$.=.$.0.W...",
"#.k.].l.&XwXsX).# d b b e # l.E.XX^.dX6X>X1X; @ @ #   ;               F J.z.E.#X*X$X}.=X}.].x # # # % >.J.K.<X+X1X6X.Xb.b.x.n.#.",
"| l.l.^.-XwXlXkX` w b a % # Q.l.=X=X5X^.E.(     ; ; ;                   e.E.}.}.}.}.s.}.!.[.].# # # % f w ~.J.d.'.v.i.d.p.p.b.| ",
"-.5X,X>XuX:XuXkX+.# # # # # XXQ.OX5X6XXX^.6                                 W.^.}.#XW.].s. X].x # # % b t $ (.u.p.v.i.u.5.p.b.| ",
"A.xXiXrXiXkXkXpXrXu # # # ~.}.].XXXX=XE.} :                                 : o.W.&X|.|.<.c.|.d.# # % b b f K W.g.4.x.h.6.i.v.| ",
"Z $ ).pXpXiXwX%.x # # # # r.}.l.l.].XX=.{                               - 3   F s.r.e.E.&.u.'. Xg.= # & t f e ` 4.1.6.7.f.p.b.$.",
"Z   # # # # _.$ # # # # # y.l.W.y.Q.&X*.(                 ; ; ;         i b g   #.!.0X0X).L.s.W.s.u.# # # # # # # 2.s.2.2.2.x.w.",
"u.c.8.O O X O e b b f r # X.zXsX=X=XdX&.8.,       ; ; o # # @ ;       - b b f = #X6XaXlXeX@X[..XoX1X/.K # % # # # # # c -X%Xp.1.",
"w.*XOX6X*X7X,Xr d d d t # # sXkXpXiXcX-.t.A k # # # # @ @ @ @ @ # ;   3 b b b t ,.c.{.{.%XL.u.f.u.[. Xe.wXG # # # # # # # E.p._ ",
"1.OX=X2X&X6X&XX.# # # # # U W.:XrXeXcXA.s.z.W.} X X ;           . +   X & g g # # f.u.s.$X&XK.W.J.}.;X=.Q.|.# # # # # # # $ b._ ",
"1.oX|.5X6X7X&X(.(.E.x x 2 @.U.N.I I I I I {.K.{.P , , , :         o @ O # # # # # # K.K.W.}.*X$X~.}.<X9.J.l.# # B J K # # # {.} ",
"1.=X}.^.]..Xs.!.(.r.y.u.J % T.U.Z.I I I I I I I I I I I L L L L L L L L L $ # @ # # {.{.K.|.}.}.}.l.b.&.}.J.u.# z eXyXF.o # z | ",
"' J.E.q.w.l.| <.-X-XJ.J.J D.T.T.T.T.B.B.B.B.I I I I I I I I I I I I I I N.I I I I I I I I I I I a.c.[.X.E.~.r.# @ +.A.;.  9 0._ ",
"^.kXkX,Xx.@X$.9.J.'.W.s.R.T.D.V T.T.T.T.Y.T.Y.Y.Y.Y.Y.D.I I I I I I I I I I I N.I I I I I I.Y.Y.L.l.@X&Xl. X.Xu.O   q ~.rXiXsXrX",
"zXsXyXeX$X+X9X;.J.~.:X:XF.L P Y.Y.Y.P C.L I.T.T.T.T.I.Z.T.T.T.T.C.C.C.C.C.Y.Y.T.T.T.T.T.T.T.T.R.}.'. Xs.%Xs.f.c.@Xv. X}.j.;XsX3X",
"eXsXhXzX;X2X0X=.W.}.W.s.W.c = # # I.T.U.G C.@ V U.I.2 U U T.T.Y.I.Y.Y.Y.T.Y.T.T.T.I.U.U U T.R.{.}.'.|.^.wX#Xp.p.b.d.!.*X{.K. XtX",
" X$XsXyXhXsX9XF.^.^.#XG.s.l.s. .] G C 2 V $ # 2 2 # I.I T.L I.C 2 D.Y.T.O.I.T.T.T.2 U 2 U T.# # A {.|.~.eXsX~.1.7.h.{.2X3X;X$X{.",
"{.K.tXzXlXcXbX9.}.&X#X~.E.s.s.s.1.0.d.<. .x x k # # # C V.3 Z.# 3 B.C.L L C.C.L # # # $ # # o O # {.{.%XlXsX&Xg.5.1.f.'.}.|.;X2X",
"aXK. X;XyXvXyXo.9.H.e.e.H.*.#...} X.%.| t.$.s.r.<.q.# # # # # $ 2 3 # # # # # # # # # # # X ; @ ` H.-.F.pX0X!. .2.X.2.5.h.c.4X$X",
"tXaX$X XwXvXvX{.=X>X*X$X_.9.r.H.+...l.3.`.H.8.o.&.{       + + + @ P J _ l % U # # o o o . . F &.o.O.&.H.H.F.-.*.&.D 4.p.g.x.[.{.",
"<X{.|.K. XcX0Xr.}. X XW.6XdXlXxXkXaXc.2XXX7XfXfX8X6             8.#XuX_.,X,Xt.# # @   X # &XaXaXaXgXaXfXxXuXfXgXxXA. .5.h.5.h.'.",
"j.*X;X;X4XaX).K.'.'.].<X3X~.&X}.=X|.].XXXX&X|.*X|           > `.$X3X6X5X>XuXH.d.l.}.u.p.oXJ.OX}.^.&X,X6X:X>X:X>XdX`.] 7.5.5.j.c.",
"d.[.3X;X3X<XJ.a.K.K.'.<X3XJ.W.s.W.|.|.XX}.|.|.W.}           XX,X_.^.5X5XaXiXA.z.^.W.4.x.|.G.5X*X#XXXXXaXwX,X&X>XdXH.1.5.5.5.p.j.",
"K. X|.$X3X6Xa.K.|.W. X{.aXa.d. Xd. X].'.oX].*X}.@.          5X8X7X/.5X8X_.5Xz._.-X^.i.z.XXr.&X:X#X&X&X:X:X5X:X:XdX/. .5.h.f.f.j.",
"d.a.d.a.{.>X8.a.{.{.{.{.tXL.}.>X&X'.l.d. X*XXX|.=.:         5 8X_./._././._.:.E._._.p.i.6.t.:XuX:X,X&X>X_.>XuX:XuX`.X.w.d.d.f.a.",
"Z 9 9 9 0 +.X...8.9.*.9.9.(.sXeXtX*XoX}.}.|.#X].6XXXe.!.t.=.:.=.:.:.[ 0 0 -.O.:.S.;.] 2.%.r.^.&X^.,XuX>X:X>XuXaXaX/.9 D Z 9 S _ "
};
