/* XPM */
static char *result[] = {
/* columns rows colors chars-per-pixel */
"64 64 230 2 ",
"   c #3C1F23",
".  c #6C1E12",
"X  c #601E16",
"o  c #692218",
"O  c #732A1D",
"+  c #422326",
"@  c #462A2A",
"#  c #4D312E",
"$  c #51352E",
"%  c #543833",
"&  c #4D3031",
"*  c #752D23",
"=  c #773026",
"-  c #7D3625",
";  c #7D3A31",
":  c #5D4239",
">  c #64483A",
",  c #715744",
"<  c #6B5242",
"1  c #796548",
"2  c #7A6453",
"3  c #7A7250",
"4  c #87472C",
"5  c #915537",
"6  c #895646",
"7  c #985F40",
"8  c #846B4C",
"9  c #9E6747",
"0  c #8C774E",
"q  c #8A7756",
"w  c #967C56",
"e  c #876D50",
"r  c #AC7952",
"t  c #A2724B",
"y  c #AB7278",
"u  c #AE797F",
"i  c #A76D72",
"p  c #95845D",
"a  c #9B845C",
"s  c #9A8657",
"d  c #9B854F",
"f  c #A48C5D",
"g  c #A8865A",
"h  c #A9935D",
"j  c #B7995E",
"k  c #B48759",
"l  c #8D8265",
"z  c #998662",
"x  c #988966",
"c  c #A48D66",
"v  c #B58C67",
"b  c #A59364",
"n  c #AA9564",
"m  c #AD9966",
"M  c #AB966B",
"N  c #AC9B6C",
"B  c #A6946B",
"V  c #B39C66",
"C  c #B49D6B",
"Z  c #B99862",
"A  c #B6897A",
"S  c #AB9C72",
"D  c #A59773",
"F  c #B29E73",
"G  c #B29E7A",
"H  c #BCA264",
"J  c #B5A26D",
"K  c #BCA46D",
"L  c #BBA66A",
"P  c #AEA273",
"I  c #B5A373",
"U  c #BAA674",
"Y  c #BDAA74",
"T  c #BCAB7B",
"R  c #B4A679",
"E  c #BEB17C",
"W  c #C2A05B",
"Q  c #C59D68",
"!  c #C3A464",
"~  c #CCAD66",
"^  c #C2A66A",
"/  c #C5AB6A",
"(  c #CBAD6B",
")  c #C9A967",
"_  c #D1AF6C",
"`  c #CDB26D",
"'  c #CBB06B",
"]  c #D3B46C",
"[  c #DAB56C",
"{  c #D6B96E",
"}  c #DDBC6F",
"|  c #D2B267",
" . c #C3AC75",
".. c #CAAD70",
"X. c #C2AD7B",
"o. c #C9AB79",
"O. c #C6B275",
"+. c #CCB374",
"@. c #C4B27C",
"#. c #CCB57C",
"$. c #CEB97C",
"%. c #CBB978",
"&. c #D3B573",
"*. c #DAB772",
"=. c #D6BA73",
"-. c #DBBC73",
";. c #D2B67B",
":. c #D4BB7C",
">. c #DBBD7B",
",. c #E1BD75",
"<. c #E2BF78",
"1. c #DCC176",
"2. c #D6C17C",
"3. c #DCC27C",
"4. c #E3C475",
"5. c #E2C47B",
"6. c #E5C97D",
"7. c #EACC7E",
"8. c #E9C977",
"9. c #F1D17E",
"0. c #B07E84",
"q. c #B18187",
"w. c #B38F8B",
"e. c #BBAE81",
"r. c #B5AB82",
"t. c #BEB388",
"y. c #BCA2A3",
"u. c #C89B85",
"i. c #C5B484",
"p. c #CAB582",
"a. c #CCBB82",
"s. c #C8BB88",
"d. c #D3BD83",
"f. c #DBBE82",
"g. c #D3BF8C",
"h. c #C7B18E",
"j. c #E0BE89",
"k. c #C2AAAD",
"l. c #C8B5B8",
"z. c #C6B1B5",
"x. c #C4ADB1",
"c. c #CDC189",
"v. c #D5C285",
"b. c #DCC483",
"n. c #DEC985",
"m. c #D4C38B",
"M. c #DCC58B",
"N. c #D7CA8E",
"B. c #DDCA8C",
"V. c #CEC392",
"C. c #D4C592",
"Z. c #D6C992",
"A. c #DDCB93",
"S. c #D9CA98",
"D. c #DED193",
"F. c #DDD29C",
"G. c #D7D088",
"H. c #E3C584",
"J. c #E8C785",
"K. c #E4CB84",
"L. c #EACB84",
"P. c #E2C68A",
"I. c #E3CC8B",
"U. c #EACD8B",
"Y. c #E6D185",
"T. c #EBD185",
"R. c #E5D18C",
"E. c #EBD38C",
"W. c #ECD98D",
"Q. c #E8D98A",
"!. c #F2D383",
"~. c #F2D58C",
"^. c #F4DB8D",
"/. c #F3D988",
"(. c #E3CD92",
"). c #E9CE92",
"_. c #E2CB96",
"`. c #E5D393",
"'. c #EAD493",
"]. c #E7D995",
"[. c #ECDA94",
"{. c #E4D49A",
"}. c #EBD59A",
"|. c #E6DA9C",
" X c #ECDB9B",
".X c #F1D693",
"XX c #F2DB94",
"oX c #F2DC9B",
"OX c #F5D998",
"+X c #F1CF93",
"@X c #F4E18E",
"#X c #EDE19C",
"$X c #EFE096",
"%X c #F4E295",
"&X c #F3E39C",
"*X c #F9E49B",
"=X c #F7E89B",
"-X c #D7CDA2",
";X c #DCD2A2",
":X c #DDD3AA",
">X c #E4D6A3",
",X c #E5DAA4",
"<X c #EBDDA3",
"1X c #E4DBAA",
"2X c #EBDEAA",
"3X c #F2DEA2",
"4X c #F1DFAC",
"5X c #E6DCB3",
"6X c #EDE2A4",
"7X c #EDE3AB",
"8X c #E7E0AD",
"9X c #F3E4A3",
"0X c #F5E9A4",
"qX c #F8EBA4",
"wX c #F2E5AC",
"eX c #F4EAAC",
"rX c #F9EDAA",
"tX c #FAF2AB",
"yX c #F7F1AB",
"uX c #EDE5B3",
"iX c #EBE5BC",
"pX c #E6E0B3",
"aX c #F2E5B2",
"sX c #F3EBB3",
"dX c #F5EDBA",
"fX c #F9EBB3",
"gX c #F7F2B4",
"hX c #F9F4B8",
"jX c #F8F2C5",
"kX c #EFE8C2",
/* pixels */
"p.fX).I.M.B.].=XtXtXtXhX].c.2X<X3XE.U.OX}.oXoX).OXqXW.^.=X=XeXuXC.9X3X3Xg.P.+XOX9XOX6.!.Q Y ].9X0X|. XoXm.D.D.|.rX0Xf.+XJ.f.<.(.",
"f 5.K.K.W.Q.Y.W.XXW.W.%XY.c.'.'.H.K.I.'..X'.).[.*X X:.J.H.-.7.R.T f.U.U..XU.U.J.J.J.L.~...@.B.{.`. X].9X6X X|.`.rXF.*.[ [ [ <.OX",
"w ] 1.} 1.6.2.3.K.3.Y.@XR.@.-.J.5.I.U.I.I..XU.I.*XR.-.1.L.5.K.I.X.}.U.P.J.U.U.H.H.<.J.~.:.s.(. X X`.A.`.|.<X X|. Xc.5.[ [ [ ,.^.",
"p 1.1.5.6.Y.3.G.R.E.n.T.6.Z ~ &.>.J.3.'.'.}.(.H.E.U.:.I.T.I.U.I.U P.U.U.P.H.J.U.j.J.J.OXP.d.`.`.[.].{.D.N.[. X X#XZ._ [ [ [ } @X",
"s =.1.1.1.6.Q.Y.R.&XQ.7.Q.@.`.{.:.5.I.I.I.I.(.I.'.b.+.E.U..XI.].T J.J.H.J.J.5.J.j.H.J.oX].@.A.].`.`.].`.D.R.W. X6Xm.( ] [ ,._ !.",
"d =.6.6.1.{ 1.1.n.[.E.3.7.@.m.N.;.( ^ U U Y U I d.N.m :.;.v.b.N. .U.).j.j.j.J.H.U.>.H.'.].@.m.B.m.m.`.G.v.d.B.c.v.@.>.&.[ ,.,.~.",
"s 2.1.1.3.1.6.1.1.K.#X[.%X3X.X%XE.!.*Xb.3.XXqXrXrXOX~.b.3.B. X#XU f.H.J.<.J.J.J.J.+XU.OX9XM.B.R.|.D.v.E R Y Y @.m.@.o.Y I I  .Q ",
"d ' { 1.1.{ 1.1.1.6.&X#XQ.v.I.I.I.E.oX`.Y.L.T.~.R.XXI.R.W.%X*X6XU H.J.J.J.j.<.J.J.).P.oXc   w 6.K.1.9.n. X6X[.[.#XeX`.[.&X3XrX}.",
"0 { { 1.1.1.` } 1.1.Q.#X].b.n.n.b.I.W.v.H.K.K.I.W.[.'.n.K.5.L.W.X.M.H.j.f.J.J.H.J.L.).OXg.:.  } 4.1.4.1.m.'.}.v.b.oX<X'.}.(.'.=X",
"3 ` { 1.1.1.| { 1.3.7.$X].n.M.n.&.J.E.b.I.(.I.U.W.2.6.5.{ { . . v H.L.U.j.U.+XJ.j.U.}.OXM.K.*.4.4.1.8.| b.B.`.'.B.I.].'.}.}.].rX",
"p %.1.2.{ | { { { 1.6.$Xv.+.>.>.&.{ L.+.R.].[.W.I.'.3.K.1.-.} . g j.J.J.J.J.).U.U.).).3XA.W.L.8.4.1.4.` b.b.(.I.b.I.M.M.'.oX9XhX",
"s L ` ` ' ~ +./ / ~ %.6.O.i.+.v.` ` 4.Y `.I.E.'.XX[.K.U.3.5.5.. g ;.;.;.*.j.).).P.P.f.+XM.K.3.6.4.1.4.&.(.b.K.`.H.W.{.B.I.}.].tX",
"J 1.1.=.>.v.O.J Y O.%.#.$.t.V.Z.L W =.V I.'.U.E.XXI.[.W.&.4 . ) :.H.B.b.f.:.C T u.T X.p.i.;.:.1.1.) ~ L A.I.1.K.B.:.].'.v.f.`.qX",
"b F.<X|.7XeX XE.%XXX%X[.@X%X.XXX.XXX^.o.B.[.I.I.XX'.;.- 6.E.~.L.:.T.L.R.L.XX(.{. X'.J.oXOXXX].[.W.K.{ J v.B.b.>.K.K.*.b.I.'.(.W.",
"q uX7X7XuXuX5Xf.~.L.U.U.5.K.R.E.U.[.0X$.B. X'.].OXP.. E.n.R.K.Y.+.b.H.U.U.'.I.d.P.H.;.>.>.>.:.H.3X X'.Y M.(.(.v.1.b.3.=.b.U.'.{.",
"l uXdXsXuXdX5X/ 8.K.K.U.H.H.U..X[.E.rXa.D.9X].'.[.. [. XI.'.Q.R.;.3.J.E.'.[.f...=.H.J.H.U.M.J.f.>.U. XT _.I.I.n.f.3.b.( ] -.'.iX",
"x uXwX2XsXdX:X/ ,.5.L.L.'.U.).U.U.U.=XO.N.]. X].[.b.v OX'.L.E.D.:.U.H.K.. . . . ;.>.H.j.P._.j.j.P.+XoXU (.(.[.I.M.M.W.:.+.] 1.9X",
"q d.|.1X2XuX:X! *.-.J.E.I.U..X.X'.H.^.d.p.I.I.`.].(.:.I.R.I.E.n.O.J.I.r H.}.p.5 . j.).(.f.).)._.M.'.}.I I.B.I.'.B.I.U.I.d.#.3.6.",
"z U #.a.C.1Xe.^ U.5.U.oX3XM.U.E.U.8./.H.c.D.Z.R.].p.@.@.a.$.v.v.m ..v.d.g.I.Y H.. P.P.)._.}.}.+X(.  < F v.M.#.$.@.K L K L U $.].",
"E.].K.K.[.fX-X .b.b.E.(. X'.H.H.5.5.!.>.D. X]. X0X[.`.9X#X[.^.%XE.T.[.&X X2XB 9 ).).(._.}._.{.}..X$   g.b.R.M.U.[.#.+.K.K.[.=X=X",
"n.I.n.n.'.hX-XT H.[.'. X X.XH.H.-.>.L.O.^ ( +.:.g.[.,XdXwX{.{ { } 7.Q.0XdXdXD :.P.)._._._.+X{.j.P.}.+ f.L.>.L.f.L.1.K.6.K.].'.^.",
"3.T.Y. XI.!.N.Y E.}.).U.'.U.U.K.H.U.}.^ H ) ( :.a.M.{.hX7X{.%.| ~ 7.6XgXhXiXD g.).(.(.wX_._.j.}.M.).{.a.-.*.. 4 . ` 2.Q.!.1.:.8.",
"1.1.3.6.K.%XN. .U.'..X}.'.U.J.H.'.}.eXa.....O.d.M.Z.V.sXwX6X|.D.] 1.'.6XuXiXD g.).(.).OX{.}.}.}._.}.{.f._ Q . f.>.;.n.3.Y.3.3.6.",
"Y.I.I.n.Q.%XB.J >.K.'.).[.I.'.U.L.L.L.@.O.@.#.g.M.A.V.{.|.`.Z.`.} { 3.9XsXkXG a.).M._._._.3X<X>X_.}._.P.f.. . <.U.o.3.6.K.R.3.3.",
"K.Y.W.R.W.%XB.p n b M T @. .J n a f U c M J U R i.U a.'.6X9Xv.2.} 4.| 1.T.sXr.T p.i.i.t . g.C.M.g._.A.g.}.>.. j.I.K { 5.6.Y.K.3.",
"R.n.R.I.5.9.W.B.gX0X|.9X2XM. X{.A.M.I.B.a.Z.s.T s.z O.eX<XI.I.1.W | ` | =.%X:.:.#.z w D 6 . x x z F e.I p.o.C F X.p =.1.5.5.R.K.",
"^.'.W.K.3.[.B.m.}.{.{.(.eX(.].`.XX9X X0X9X;.. '.hXc.+.].].`.#.5 =.=.=.=.1.3. .*.-.:.J.oX{.. I.H.j.U.3XC.M.P.g.A.2Xb | { 1.K.Y.B.",
"~.W.W.5.4.4.2.i.}._.M.A.0Xa.[.(.B.'.'.B.;.- I.9 XX].) { ] I.. $.-.b.2.R.n.e B K.:.H.b.&Xa.. L.&._ ,.J.S.S.(.L.4XkXI 6.3.Q.Y.$X$.",
"K.3.1.1.1.!.N.s._.{.(.M.'.v.[.].`.[.'.`.- ].`.I.k I.%.b.n.Q . W.R.b.B.R.R.    b.M.b.I.<Xo.. J.:._ [ *.J.oX).L.3X2XR 1.B.b.R.[.`.",
"I.b.=.{ { @Xm.s.A._.(.{.'.v.oX X(.].].`...(.'.o b.`.$.n.I.! . k  XR.n.3.b.    C b.M.{.O . . ).J.f.>.<...,.>.<.H.E.T K.K.R.W.[.[.",
"%.%.3.D.].eXi.c.A._.A.(.}.m.'.[.].(.`.0X|.I. XOXoXB.O.B.B.v.7 . t ;.+./ >       }.(.I.^ k ;.J.H.:.>.J.H.3.H.f.H.W.U G.Q.R.B.n.R.",
"m J b x b Z.t.@.a.p.#.#.o.a.`.`.[.9XN.I.OX XI.].rXD.N c.E R E @.J N n s +       c d.P._.X.o.>.f.<.=.J.H.H.H.U.H.M b Y J N m a.N ",
"v.0X9X[.[. XR.Q.K.` n.K.;.a.`.[.`.OX].B.[. X'.].eX#Xd.'.[.[.[.#X`.@.1               G >XI ;.H.>.L.f.j.K.H.P.).)., i.N.n.g.O. XT ",
"#.%X].W.[.[.E.E.7XuX6XdX$.$.].`.A.`.[.E.}.9X}.].&Xv.v.B.b.K.e                           x +.H.J.U.J.P..X).).).).|.o.OX'.U.b.K.D ",
"+.R.Q.n.K.3.3.&XdXsXeXjX;Xa.&X X XR.'. X X X[.}.=Xa.n.n.I.b.                              ;.H.H.U..XP.(.).).'.}.oXM.H..X.XE.'.D ",
"#.3.Y.Y.3.3.6.3.[.7X6XsX1X@.`. X X`.`.R.I.[.].R.&X#.b.n.I.b.  q Y                           H.b.H.).'.).).).}.).[.d.M.J.~.E.W.S ",
"O.Y.].L.2.` 2.Z.F.#XB.E.Y.@.m.R.'.oX].`.[.B.&XXX=X#.b.K.#.  w N.#.1                   @     L.P.J.(.(.(.3X_.).).'.#.'.U.J.U.L.N ",
"@.n.Y.R.v. X9XeX7XK.n.T.Q.Y v.v.v.b.I.v.a.O.2.B.[.C :.n.    3.N.p.M.                  [.@   :.P.P.M.P.(.}.`.(._._.X.b.E.U.U.'.T ",
"O.6X7X6XD.2.2.b.2.2.R.n.6.G.W.Y.W.[.[.v.v.n.N.2.K.n.#.J   p R.c.s.M.                #.XX$     U.'.{.d.C c I X.i.g.U K U K / b.C ",
"H 1.Y.n.`.6X7X7XgX7X7XhX,X2.:.v.R.D.0X9X#XXXT.L.=.4.T.a.  |.0XN.O.(.z             g.P.[.I.    !.T.~.eXJ.g.J.[.^.oX&XT.7.L.6.8.J ",
"N v.3.N.].,XdXgXgXdXsXgX#X].n.3.W. X#XR.m.n.M.b.:.( ]     2XsXC.K I.P.            I.f.I.g.    ~.W.I.9X:.P.M.d.<.6.K.:.-.-.,.8.m ",
"E  XD.|.6X X6XsXsXwX6X6Xn.D.E.n.E.%X#XI.B.I.B.`.n.b.K   ` >.].C.C b.b.8         P.(.b.K.:.L.  $ T.L./.N._.<XS.&.-.5.=.*.{ *.K.n ",
"t.gX7X6X7XsXsX8X,XR.7.E.2.D.n.Y.E.R.W.v.d.b.v.b.2.I.  n.b.#.3.O.V +.f.b.+     ;.b.R.I.U.L 5.  + 8 .XqX2XA.aX2 q _ | <.,.] =.6.n ",
"D ,XuX8X7X7X,X2.%./ / =./ $.R.2.3.B.R.O.d.v.b.>.,   e :.K.b.W.N.m +.&.&.,     #.d.#.#.v.U ;.b.  + 5. XF.wXdX2 (.{ ~ ( [ *.-.L.K ",
"J |.iXpX8X8XF.c.N.V.Z.R.1.&.3.v.%.K.`.Y d.>     8 :.3.+.b.2.L.,XK >.-.>.0     U O.M.-X:XS.m.:.    + _.C.2XdX  c ~ ~ ^ w ! ! 4.+.",
"] H.[.oXW.0XyX6XuXaX`.5.L. XsXeX[.[.wX    1 B.b.:.b.M.$.I.`.B. X:.E.m         > 0XoX9XdX2XE.J.!.    + o.>X2X;Xx ;.*.% c 6X_.1.` ",
"+.'.W.oX].=X`.A.Z.F.b.] ` '.wXdX2X2XjXr.#.H.b.3.I.b.I.M.M.I.<X(.d.:.w           *.<.P.H._.d.;.*.-.H.    % 2X&   S.$   |.i.N.-.g ",
"~ W.].OX'.&X].N.M.g.+.{ / ] v.}.,X7XjXt.:.3.b.v.b.v.R.`.(.Z.<XF.#.f +           & :.;.>.).{.b.f.d.U.[.T         w ).S.  G 7X6.h ",
"( '.I.#X&X=X`.A.A.f.( . . . ( 1.b.`.jXi.%.b.o L.n.v.P.}.|.`.|.F.w   / *.8   K >.      f.b.U.'.(.M.I.[.X.d.1.}.      sXsX1X7X(.f ",
"( [.I.I.I.L.:.M.A.. o x.l.l.l.+.+.:.'.. . X   3.`.v.B.`.{.|.<XD + h _ *.*.>.+.:.P.>     f.I.I.I.P.>.L.I B.d.>.}.>X7X7X,XI.}.2Xn ",
"h v.v.O.&.3.n 4 y.O y.= l.l.l.B.`.. . o , Y o.@.d.p.@.U @.@.m.  + h L ! j j V b.A.(.>     P.U.:.1.H.L.V v.M.#.+.m.V.h.i.K C ( f ",
"B.wXaX X5.~.. w.x.z.l.y.z.z.y i . $ #XI.I.%XW..X[.`.N.F.Y.].  @ E.1.1.=.=.1.b M.[.(.'.      N.I.b.>.~.E.3.U.T.L.XX X-XB.<XuX4X>X",
"aXaX5XuX. = . = k.l.x.y y y y A 3.E.U.+.-.1.3.5.!.R.n.Y.W.    1.Y.T.Q.[.E.=XS a.P.}.M.P.>     P.I.H.H.d.(.:.-.5.!.5.b.U.<.'.eXoX",
"4XwXv = o l.6 l.O u y y y y &.+.` :.] L :.&.{ ] 4.6.2.v.3.  $ 2.6.Y.K.Y.R.$XS N._.).'.P.P.).    P.H.U.M.<X_.*.>.L.>.M.'.P.f.J.3X",
"H.r = q.l.l.l.k.i y y A :.b.:.( ) 1.>.H 3.5.+.&.6.K.2.Y.m   Y n.Y.[.Q.R.'.=XS (. X(.}._.(.(.oX,   M.J.M.2X7XP.~ } ,._.OX}.}.).P.",
"r o ; ; l.l.k.y y y w.M.v.;.:.:.+.` 1.L b.n.K.3.3.W.:.Y.+ : Q.W.B.].[.[.#XrXe.g.`._.<X).(.).}.    I.I.>XdXwX`.] [ ~ *.J.L.).).3X",
"o q.l.l.l.0.y y A :.X.i.#.U J N b Z ^ h #.Y d.#.O.$.O.    %.Y.#X].E.].].].qXE P X.T T p.i.o.U   & p.T i.1X1Xm.Z ! V ) [ ,.J.U.).",
"- l.l.l.0.y y P.[.$X'.'.D.@.#.i.F C b.` c.s.U F U a O.  : R.Y.R.#X0X].].$XqXN.a. .n z T i.e.    S B I i.i.e.T U T q _ -._ 4.L.P.",
"Q l.l.0.y k.;X;.K.H.U.b.*XrXdXhXfX6X5.OXR.=X0XqX%XK.m   Y.R.Q.B.G.R.6XD.].].v.1.=.:.] '.0XP.  9X9XrX9XqXgX9XrXtXsXt.! [ ,.[ <.J.",
"<.l.0.y u.*XC.f.H.H.H..XOXg.}.I.[.(.K.E.I.'.).U.XXn.  m Q.].@XD.].[.=X#X#X6Xs.:.3.B.&.1.U.  '.I.I.`. X#X X|.|.#XrXc.j [ [ [ <.<.",
"<.(.y u.OX}.d.;.<.f.H.'.OXd.b.:.H.L.I.R.U.U.I.b.T.    b.Y.R.R.$XR.N.#X&X0X8Xt.=.B.n.` 1.I.   X}.(.R.`.6X<X].`. XwXc.) [ [ *.*.<.",
"f.J.j.+XOX%Xd.>.U.P.H.I.9X;.>.H.f.H.H.K.E.J.'.I.H.    n.R.Q.#X].&XD.[. XD.#Xc.D.{.I.*.-.:.  a. XI.`.`.[. X#X{.{.wXZ.Z [ ,.*.*.<.",
">.=.>.:.I. X .p.P.P.b.P.oXg.P.3X`.H.b.<.H.'.E.I.].    v.2.c.v.`.D.G.G.G.N.D.P G.F.(.-.-.$       i.a.{.|.`.|.6X|.6XN.V &.<.:.:.*.",
"e 1 1 , 8 I v C  .X.T o.X.S.wX2X9X'.U.I.H.'.(.U.XXU B v.v.2.E @.P R x 3 3 E N P r.R j ^ s a M C B P 6X X|. X6X9X#XN.1 q 8 1 0 f "
};
