/* XPM */
static char *result[] = {
/* columns rows colors chars-per-pixel */
"64 64 236 2 ",
"   c #3C1F23",
".  c #4B1E1D",
"X  c #531E1B",
"o  c #5A1E18",
"O  c #5D1E17",
"+  c #641E14",
"@  c #6C1E12",
"#  c #782715",
"$  c #77321E",
"%  c #692517",
"&  c #421E20",
"*  c #793226",
"=  c #7A342B",
"-  c #573830",
";  c #7F412A",
":  c #6E473D",
">  c #776647",
",  c #7A7250",
"<  c #832D14",
"1  c #893216",
"2  c #983C17",
"3  c #813E27",
"4  c #A24218",
"5  c #AC481A",
"6  c #B44E1B",
"7  c #BA521C",
"8  c #83442C",
"9  c #87492E",
"0  c #874835",
"q  c #98512D",
"w  c #B35A31",
"e  c #9E643B",
"r  c #C1571D",
"t  c #C6691C",
"y  c #C87137",
"u  c #935251",
"i  c #8B5757",
"p  c #9B6643",
"a  c #8B784E",
"s  c #856C52",
"d  c #8A7956",
"f  c #937D56",
"g  c #806F4C",
"h  c #A36D46",
"j  c #AA7C53",
"k  c #AA744F",
"l  c #9D5F61",
"z  c #957064",
"x  c #AA6C6C",
"c  c #AB7278",
"v  c #A57C79",
"b  c #B06B61",
"n  c #A45B4E",
"m  c #D28F1A",
"M  c #CD9817",
"N  c #DAA918",
"B  c #D5B02D",
"V  c #E4C817",
"C  c #E2C417",
"Z  c #E6D316",
"A  c #ECED14",
"S  c #EEF513",
"D  c #E4CA30",
"F  c #EDEC32",
"G  c #9B865A",
"H  c #9B854F",
"J  c #A58A5B",
"K  c #B6875A",
"L  c #BD965D",
"P  c #AD8E58",
"I  c #998561",
"U  c #998A66",
"Y  c #8D8265",
"T  c #B78D61",
"R  c #A59364",
"E  c #AC9A6C",
"W  c #A89569",
"Q  c #B39C66",
"!  c #B49D6B",
"~  c #BB9765",
"^  c #A89A73",
"/  c #B29D73",
"(  c #A98870",
")  c #B5A26D",
"_  c #BBA46E",
"`  c #BCA467",
"'  c #B6A373",
"]  c #BBA674",
"[  c #BDAA74",
"{  c #BCAB7B",
"}  c #B8A679",
"|  c #AEA473",
" . c #C5985A",
".. c #CF8B4E",
"X. c #C39A68",
"o. c #C7AA65",
"O. c #CCAC66",
"+. c #C5AB6A",
"@. c #CBAD6B",
"#. c #C4A566",
"$. c #CDB26D",
"%. c #CBB06B",
"&. c #D3B46C",
"*. c #DAB56C",
"=. c #D6B96E",
"-. c #DCBC6E",
";. c #D2B267",
":. c #C3AC75",
">. c #CBAC71",
",. c #C2AD7B",
"<. c #CCAC7B",
"1. c #C5B175",
"2. c #CCB474",
"3. c #C4B37C",
"4. c #CBB57C",
"5. c #CDBA7C",
"6. c #CBB978",
"7. c #D3B573",
"8. c #DAB771",
"9. c #D6BA73",
"0. c #DBBC73",
"q. c #D3B57B",
"w. c #D4BB7C",
"e. c #DBBD7B",
"r. c #D1AD75",
"t. c #E1BD75",
"y. c #E2BF78",
"u. c #DBC26B",
"i. c #DCC176",
"p. c #D6C17C",
"a. c #DCC27C",
"s. c #DEC87E",
"d. c #E3C475",
"f. c #E2C57B",
"g. c #E4C97D",
"h. c #EACC7E",
"j. c #E7CA77",
"k. c #F3D77C",
"l. c #B18F8E",
"z. c #B9969A",
"x. c #B1898B",
"c. c #B9AC82",
"v. c #BEB489",
"b. c #BD9BA0",
"n. c #C5B383",
"m. c #CAB582",
"M. c #CCBB82",
"N. c #C9BB8A",
"B. c #D3BD83",
"V. c #DBBE82",
"C. c #D3BF8C",
"Z. c #C6B78A",
"A. c #C8B5B8",
"S. c #C6B1B5",
"D. c #C3AAAE",
"F. c #D4C285",
"G. c #DCC383",
"H. c #DEC984",
"J. c #D4C38A",
"K. c #DBC58B",
"L. c #D6CA8E",
"P. c #DDCA8C",
"I. c #D4C592",
"U. c #DDCB93",
"Y. c #D9C995",
"T. c #DED192",
"R. c #DED29B",
"E. c #CFC58D",
"W. c #E3C584",
"Q. c #E4CB84",
"!. c #EACB84",
"~. c #E2C68A",
"^. c #E3CB8B",
"/. c #EACD8B",
"(. c #E8C785",
"). c #E6D185",
"_. c #EAD185",
"`. c #E5D18C",
"'. c #EBD38C",
"]. c #ECD98D",
"[. c #E8D98A",
"{. c #F2D58C",
"}. c #F4DC8D",
"|. c #F2D585",
" X c #E3CD92",
".X c #E9CE92",
"XX c #E0CF9B",
"oX c #E5D393",
"OX c #EBD493",
"+X c #E7D995",
"@X c #ECDA94",
"#X c #E5D49A",
"$X c #ECD59A",
"%X c #E6D99C",
"&X c #ECDB9B",
"*X c #F1D593",
"=X c #F2DC94",
"-X c #F2DC9B",
";X c #F4D898",
":X c #F1CF93",
">X c #EEE19C",
",X c #EFE096",
"<X c #F3E39C",
"1X c #F9E49B",
"2X c #F6E597",
"3X c #F4E18E",
"4X c #D7CDA4",
"5X c #DDD2A5",
"6X c #DFD9BB",
"7X c #E5DAA4",
"8X c #EBDCA3",
"9X c #E4DCAA",
"0X c #EBDEAA",
"qX c #E5D5A3",
"wX c #F2DEA4",
"eX c #E8DDB2",
"rX c #EDE2A4",
"tX c #EDE3AC",
"yX c #E7E0AD",
"uX c #F3E4A3",
"iX c #F5E9A4",
"pX c #F8EAA4",
"aX c #F2E5AC",
"sX c #F4EAAC",
"dX c #F9EDAA",
"fX c #F9F2AB",
"gX c #EDE5B4",
"hX c #EAE4BA",
"jX c #F2E5B2",
"kX c #F3EBB3",
"lX c #F5EEBA",
"zX c #F9EBB3",
"xX c #F9F3B7",
"cX c #F7F2C5",
"vX c #F3EDC8",
"bX c #DAD4C2",
/* pixels */
"m.zX.X~.G.^.oX1XfXfXfXxX+XN.8XwX8X/.'.$X@XwX-X/.-XpX'.}.1X<XfXgXI.uXwXwXC.~.:X=X-X-Xh.|.~ [ oXuXdX%X+X<XJ.U.T.&XdXsXV.:X(.V.e./.",
"J g.Q.Q.].[.^.].=X].[.2X).E.OXOXW.!./.OX;X/..X@X1X&Xw.Q.f.0.!.`.{ V.(./.*X/./.(.(.(.(.{.7.1. XoXoX%XOXuX>XrX%XoXsXR.8.*.*.*.y.-X",
"f =.i.0.i.Q.p.p.Q.s.Q.3X[.:.0.(.f.^.!./.^.OX/./.1X`.0.f.!.f.Q.^.3.@X.X~.(..X.XW.V.W.(.{.e.M. X+X%XoXT.oXoXrX&X%X+XE.f.*.*.*.t.}.",
"f i.i.i.s.).s.^.[.`.Q._.).Q @.7.a.W.V.+XOX*X.XK.'.^.w.!.'.^.Q.`.] ~.(..X~.(.(.(.(.(.(.;XK.N. X%X$X$XoXT.L.+X&X>X>XU.@.*.*.*.-.3X",
"G p.i.9.i.).).`.`.<X[.g._.3.oX#Xw.f.~.^.^.^.^..XOXG.>.[./.=X`.oX:.~.(.(.(.(.W.W.(.W.~.-XoXn.P.+XoXoX+X+XT.oX+X&XrXF.r.&.*.t.*.h.",
"H =.g.g.i.=.u.s.H.=X'.s.h.{ J.P.q.@.#.] [ { ' ! B.P.Q 6.5.e.G.K.,./.:XV.(.V.W.W./.e.(..XoX3.L.U.L.J.T.L.F.w.H.F.F.,.e.7.*.t.y.{.",
"H p.9.i.f.i.s.f.i.Q.>X@X3XrX@X=X].|.1XK.a.=XpXdXdX;X'.K.G.^.&XrX/ V.W.(.W.(.(.(.(..X(.;XiXK.P.`.+XT.G.{ } [ [ 3.J.3.1.[ ' ' :.~ ",
"H $.u.f.i.&.u.i.i.g.<X>X[.K.^.^.^.`.-X`./.h.[.{.`.=X`..X].@X2XrX:.(.W.(.(.W.y.(.(././.$X-Xa.f.h.H.d.k.H.%XrX+X&X>XdXoXOX<XwXdX-X",
"d =.9.i.i.i.;.-.i.i.[.2X+XK.K.G.H.^.'.V.G.^.Q.`.'.@X+XH.a.Q.g.].,.K.~.W.W.(.W.W.(./.:X:XK.g.0.-.d.d.j.0.J.OXoXK.P.-X&XOX$XU.OX1X",
"d 2.=.=.i.u.$.=.i.i.).,XoXQ.Q.G.7.(.'.G.^.`.^.`.{.p.f.g.9.=.-.d.T ~.(./.(.(.:X/.V./.$X;XP.Q.d.d.d.-.j.;.G.P.oXOX^.P.oX.X&X$X+XfX",
"Y %.i.i.=.;.=.=.=.i.).,XF.2.e.p.7.=.h.2.oXOX@X'.'.oXp.!.a.0.0.d./ V.(.(.(.(.:X~.~..X.XwXU.`.!.f.d.i.d.$.G.K.^.P.G.^.K.P.oX-XuXxX",
"G ` $.$.%.%.2.+.+.o.$.H.1.n.6.V.$.@.f.:.`.^.'.OX=X@XH.!.f.f.j.j.X.q.r.B.q.V.OX.X X~.V.:XK.Q.f.f.d.-.d.2.`.G.!.oXG.'.#X^.^.&X$XfX",
") i.i.9.p.p.1.' 1.3.3.5.5.v.E.Y.` #.=.! ^.OX^.{.q./.OX'.f.Q.a._.q.~.P.K.e.w.! { n.:.<.m.n.4.w.L p.O.;.)  X^.p.!.P.9.@XoXK.p.OXpX",
"R R.8X%XgXsX&X'.=X}.2X@X}.,X=X=X{.=X{.:.P.@X^.P.~ T ^./.Q.].'.!.9.'.!.'.!.=X.XXXqX.X~.;X-X=X@X@ +XQ.-.) N.^.a.e.Q.H.0.G.^.oX^.'.",
"Y gXtXtXgXjXeXG.|.!.'.^.a.(./.'.'.@XiXM.U.&XOXOXp ~ +X'.Q.`.Q.Q.2.a.!./.^.OX^.B.W.(.q.e.e.e.e.e wX$XOX[ L. X.XG.a.W.a.9.W./.$X#X",
"Y gXlXgXgXhXeX#.h.Q.(.(.Q.Q./.OXOX'.fXM.T.<X@X.Xh @X&X@X`.@X`.`.q.G.H./.@X@XV.>.8.V.(.(.~.~.~.@ X./.&X{  XP.^.G.F.e.G.%.;.0.+XhX",
"U yXtX0XkXlX5X+.t.f.!.!.OX(..X(.OX(.2X3.J.+X$X+XOX>X+X-X+X!.].`.6./.W.^.OX&XB.V.q.V.(.V.~. X~.T X.*X$X{ oX.XOX^.G.K.'.w.%.$.i.uX",
"d V.&X7XgXeX5X#.8.0.(.{.^.OX*X*XOX!.}.F.5.T.`.oXOXT.`.^.`./.'.P.2.!.^.^.OX$Xq.~.V.V..X.XK..X Xb K..X@X' ^.K.P.+XU.^.`.^.V.5.p.Q.",
"I ] 5.N.J.9Xv.#.^.f./.-X&XG./.'./.h.|.W.F.T.P.U.$XM.1.3.5.5.F.F.E >.B.B.B.^.[ V. X~.~.XX.X$X$X:X XoXaX/ F.K.4.5.3.:.! _ ) _ w.oX",
"`.[.H.Q.&XzX4X[ W.G.`.oX&X$X~.W.f.f.!.y.T.%X+X>XuX*X#XuX&X&X].3X_._.=XuX&XrX^ G.:X.X~. X$X XXX:X*XwX-XV.H.^.P.~.@X2.2.!.).,X1X1X",
"Q.P.H.W.OXlX4X[ !.OXOX&X-X*XW.W.e.t.!.<.#.+.2.w.V.$X7XlXsXoX=.=.-.h.'.sXlXlX^ B. X:XXX.X X$X.X~.~.$X-XV.(.e.!.W.g.0.Q.g.).+XOX}.",
"a.[.!.+X/.|.L.[ /.&X.X/.OX'.W.Q.Q.P.$X+.` o.2.w.M.K.t cXyXR.6.$.;.3 >XxXlXhX^ C.m. X XwXXX.X~.XX~. X$XB.8.7.7.t.!.7.p.[._.i.p.j.",
"0.p.s.g.Q.3XL.1.^.OX*X$XoX^.(.(.OX@XsXM.>.>.2.m.K.I. .kXaXrX%X`.&.-.@ <.hXhX( V.~.0 <.wX.X#XwXqXXX8X#XC.&.8.e.V.`.q.G.a.Q.g.a.g.",
"!.).^.H.[.2XL.) e.!.OX.X@X/.OX/.(.(./.1.1.3.4.F.Y.V.B #X>Xy L.+X0.=.a.+   vX/ B..Xm.@ <.$XwXqXC./ ;X XV.V.8.W.V./.2.a.g.Q.`.a.a.",
"Q.`.'.'.OX2XP.G R R E { n.:.) W G G :.R E ) ' { n.Z u.`.rXy u.a.-.d.&.k     } { n.n.@ 8 K.C.C.U /  XU.C.$XW.V.V.~._ 7.g.g._.Q.a.",
"`.H.`.`.f.k.].P.kXiX&XuXrXJ.&X#XU.K./.K.M.Y.Z.{ M.B 1.sX&X XD u.o.;.%.;.e   ) 5.3.G d   ( ^ U > z ^ n./ m.<.! :.,.G =.i.f.f.).H.",
"}.'.'.H.i.@XP.J.$X#XXX#XsX X+XoX-X<X&XiXiX<X&XiXxXV $.oX`.+XC u.-.9.9.9.i.&   i.0.e.V.  R./.^.W.W..X8XY.G.U.C.Y.9XW ;.-.i.g.`.H.",
"'.].].g.d.d.p.m.&XXXK.K.iXB.@X XK.+XoXU.OX@X..'.k.V A =.=.F xXw.9.G.p.`.K.&   Q.w.W.q.  B.w.(.&.&.t.~.Y.Y././.wXvX/ f.p.[.).&XF.",
"^.a.s.u.0.].E.N. XXX XK.OXF.@X+XoX+X+XoX&XOXC &XfXj.S a.H.F Z _.`.G.K.^.9 .   p.K.G.V.  Y.q.(.q.r.&.0.Q.wX/.(.wXyX} p.).G.`.&XoX",
"`.a.9.=.-.].J.M.U. X.XXX$XF.&X$XoXOXoXoXoXoXA @XT.D S h M S S m 5 w p p @     H.H.^.U.  G.V..X~.e.e.t.>.t.0.t.~.[.{ H.s.`.[.@X@X",
"5.6.p.P.+XaXn.E. XU.U. X$XF.oX@XOXoXoXuX&X/.F S N N S V V t 7 r 7 r r 1 .   e J oXK.O   3.q.(.W.e.e.(.W.y.~.e.W.'.[ F.+X`.`.H.Q.",
"Q ) R U R Y.v.3.m.m.4.4.<.M.OXoX+XuXP.`.<.q m t 7 r r m M 2 r r r r r @     + 5 2 @   - :.<.e.y.e.8.W.(.W.Q.^.Q.-X) [ ) E W F.E ",
"F.pX<X>X,X&X'.].Q.2.G.H.6.M.+X&XoX-XOX@ @ 7 r 7 r r 6 @ @ @ r r r r 2 + & $ r 1 < . . @ @ q.(.e.(.V.W.(.~.~..X:X-XB.G.K.J.3.>X] ",
"2.<XoX].@XOX'.`.rXgXrXlXw.B.`.oXP.oXw.@ r r < @ @ @ @ @ @ < r r 7 7 < # . 4 7 r * . + r < @ #.W./.~.~.OX.X X.X.XuXB.-XOX/.G.H.^ ",
"6.`.`.H.Q.a.i.>XxXkXsXcX5X5.<X&X$X4.@ r 6 7 @ @ @ @ @ @ @ 6 r r r 4 r 6 + $ l c c b @ # 7 r @ !./.OX/. X.X.X.X-X-XK.H.*X{.'.OX^ ",
"5.p.Q.).i.s.Q.p.$XtXrXkX9X3.T.&X<.@ @ @ @ @ ^.`.@ @ + & @ 6 r r r 4 r % S c c c z.A.5 # r r @ Q.(..XOX.X X.X$X.XOXB.K.(.*X'.@XE ",
"1.Q.+X).p.$.p.T.R.>XP.].).[ L.`.@ @ # 7 6 8 1X-Xn.    &   6 r r r w x x c c c c S.A.x.@ # @   @ >.~. X XwX X.X.XOX4.OX/.Q././.E ",
"3.Q.).`.G.%XrXsXtXH.H._.[.[ F.F.G.@ @ 1 r @ 2.^.n.  + @   @ n b c c c c c c z.A.S.S.= @ @     . @ 3 ~. XOXXX X X X{ G./.(./.OX{ ",
"1.tXsXrXoXp.p.G.F.p.^.H.).).].Q.}.+X#.@ 1 # G.w.W.  u u u c c c c c c c b.S.A.A.x.v @ @ o o O @ r @ B.! W } { n.C.} _ [ _ >.G.! ",
"` i.Q.s.oX7XsXrXkXtXsXxX5Xp.p.G.^. XuX>.@ @ K !.q.i c c c c c c z.z.A.A.A.A.z u 0 + 7.OX^.(.h 4 5 @ sX(.V.W.*X=X=X<X_.h._.j.j.) ",
"E p.s.L.+X7XxXkXxXlXsXxX%X+XH.H.+X@X>Xw.1 r 2 K c c c c x.l.D.A.@ A.x.A.@ @ @ = X m.w.^.C.Q.X + % 9 uXV.K.P.B.0.(.Q.9.e.0.0.h.Q ",
"{ %XT.+XrX%XrXsXsXtXrXrXP.`.`.H.'.'.+X@ 5 5 @ + z A.z.A.l.A.A.l.x.b.@ l.O p s s  XoXG.!.V.3 @ . @ !.|.J.#X8XU.q.0.f.9.7.*.0.!.R ",
"Z.xXtXyXsXsXkXyX7X`.g.[.p.P.H.Q.@ @ @ @ @ @ @ * C.A.A.$ A.= c @ @ @ @ 8 w.!.^.~.H.`.^./.@ + @ X ~ {.iX0XP.jX0XG.;.&.t.t.&.0.g.R ",
"^ 7XgXyXyXtX7XF.6.1.+.i.%.5.`.p.    s [ @ @ @ K @ + 0 + @ = @ & @ k 2.q.2.F.V.5.B.4.4.F.  & @ @ @ g.&XR.aXlXtX^.&.O.0.*.9.0.h._ ",
"` qXhXgX9XgXR.E.I.I.I.`.i.2.p.G.6.H.oX[ F.P.k &   @ @ . & . @ @ _ i.e.0.9.w.[ ] 3.F.Y.3   + @ @ @ 7.#XI.8XzXlXU.O.O.q.O.#.#.d.2.",
"&.Q.OX&X@X1XsXrXgXgXoXd.!.&XkXaX+X&XiX' 5.K         .           w.[.W.0.h.!.0.wXpX-X8X@ 5X~.@ & @.-XK.{ qX0XyX8Xw.9.&X X8X X0.%.",
"2.+X'.<X+X<X+XL.Y.R.G.$.&.oXtXlXyXtXcXc.2.&         . +       o o 9 e.7.&.0.` 8.t.V.V.  XXC.- & &.!./.,.7X0X9X0X#X(.8X#X#XP.0.J ",
"@.'.*X=X+X<X+XL.L.F.7.&.@.&.G.&X8X0XcXv.@ 2 # o     . +     . .     X $ L 7.#.w.e.e.7.J   #XV.V.B.^.=X{ H..XtX0XtXoXtXtXtXaXQ.J ",
"@.'.^.>X>X<X`.Y.U.G.@.$.O.+.%.p.G.oXcXE r r r @     . +     O .         O X.+.e.(.G.e.G.W.^.oX.XJ./.@X,.V.p.wXjXaXtXzXkX9X0X.XJ ",
"@.@X`.^./._.w.K.Y.M.7.7.%.7.2.7.2.w.@X@ r r 6 +     X @ .   o               + T G. X~.~.V.^.^.^.^.e.(.' ^.w.a.OX7XtX0X7X X$XrXW ",
"R M.F.1.2.e.R +.oXXXV.w.3.e.K.P..X X@ @ @ @ @ X $ 8 = ] ; 8 @                 + ~ ~. X XK.W./.B.a.f.h.Q C.K.4.7.J.E.v.Z.[ Q >.J ",
"^.sXkX#Xf.|._ ,.V.P.F.w.I.H.K.H.^.q.< @ @ @ @ @ ].R.P.R.Q.+XiX@                 @ T OX$X-XOXK.P.G.e.{.OXp.!.'.!.=X&X5XK.qXgXtXqX",
"jXaXeXjX.X}.4X} F.K.%X$XU.M.H.G.a.q 6 @ @ % @ a.|.[.H.).[.[.g.i.+             O @ @ j ~.~.*X.X/.~.W.!.V. Xw.0.f.|.W.Q.^.f.OXaX-X",
"0XaXeXjX#X-X4X] G.H.K.w.W.7.2.2. .6 # @ @    .&.d.Q.F.a.a.s.).9.g.a.@.@ O &   + 1 r 2  XK..X.X^.^.W.(.I.8XR.9.0.!.0.K.$XW.V.Q.wX",
"(..XjXjXjXaX4Xn.K.P.oXM.w.G.e.L 4 5 @ @ . + @.q.f.Q.s.).Q.s.[.H.`.].oX`.OXoX3 @ 2 r 5  X X X-X X X~.(.G.9XtX~.@.-.t.~.-X-X:X.X~.",
"~.V.-XjXlXcXbX,. XoXU.K.G.w.9.K r < @ + & @ Q.p.p.].w.).H.).].+XH.+X].&X<XfX= @ @ 5 5 #X X.X$X.X X^./.5XzXjXoX&.*.O.7.W./..X$X;X",
"uXV.(.-XeXvX6X/ ,.m.3.n.4.' _ K 6 @ @   . p B.4.[ p.1.Q.H.`.).,X+XoX[.+X+X0 % @ @ @ q m.n.<.,.{ m.n.{ n.9X5XJ.Q #.Q o.*.t.f.:X.X",
"wXwX X(.wXvXvXK.&X&XoXOXR.,.1...1 @ X   p N.] / ' G 6.).[.`.H.[.>XuX+X+X>X8 @ @ + @ f ,.n.{ } } ^ W ' n.n.n.{ ' ' d &.7.&.t.!.~.",
"*X~..XV.(.cX5Xq.Q.W./.V.-XsXlX! @ o   : `.<XsXpX2XH.[ i.).`.[.T.`.T.rXT.+X@ @ . & J $.{.iX&XpX<XuXdXiXdXxXuXdXfXkXv.#.*.t.*.t.(.",
"t.*X$X$X*XuXI.V.f.W.Q.*X;XY.h @ %     ^..X`.'.'.=XH.:.H.[.].,XT.[.>X2X>X@ @ .   @ P.7.0./.B.OX^.P.OX+X&X&X%X&X>XdXE.L *.*.*.y.f.",
"e./.$X;X;X;Xe.q.e.V.(..X-XB.# &     !.`./././.W._.^.:.G.).P.[.+X`.L.,X>X@ @   o T ~.&.f.!.N.>X+X XoX`.uXrX%XoX&XuXN.o.*.*.7.t.t.",
"V.(.(.:X$X<XB.e./.~.~./.pXq.2 5 *   H.W./.Q.OX^.}.oX6.H.`.[.,X,X<XT.,X+X. .   O 0 h 9.0._.6.oX$X X`.oX+X%X>XoX#XsXY.X.-.t.8.8.t.",
"q.7.e.e./.$X:.<.~.~.V.~.wXC.@ < O   ! e.!.OX`.^.2X+X[ F.p.F.s.+XT.T.L.T.        & X @ # f 5.%XrX+XoX#X&XT.$XrX%XrXE.Q r.t.q.q.e.",
"a > > > g / ! ! :.,.} <.,.Y.Y.Z.n.:.:.^.~..X.X^.,X>XF.T.E.p.{ { | | G , , [ Y Y U U a J G 6.P.`.T.%XrX%X%X>XrXuX<XL.> d g > a J "
};
