/* XPM */
static char *result[] = {
/* columns rows colors chars-per-pixel */
"64 64 237 2 ",
"   c #3C1F23",
".  c #3D2124",
"X  c #461E1F",
"o  c #4C1E1D",
"O  c #5D1E17",
"+  c #541E1A",
"@  c #5A1E18",
"#  c #651E14",
"$  c #6C1E12",
"%  c #6D2013",
"&  c #68261B",
"*  c #742413",
"=  c #7C2A14",
"-  c #762A19",
";  c #411E20",
":  c #482827",
">  c #55372C",
",  c #752D22",
"<  c #7A3421",
"1  c #7A3626",
"2  c #703A2F",
"3  c #5A211A",
"4  c #725A1D",
"5  c #63493B",
"6  c #794A36",
"7  c #5F4438",
"8  c #745744",
"9  c #786847",
"0  c #842E15",
"q  c #8B3316",
"w  c #873015",
"e  c #963A17",
"r  c #9B3E18",
"t  c #813D27",
"y  c #803F36",
"u  c #944D17",
"i  c #A34318",
"p  c #A9481B",
"a  c #B44E1B",
"s  c #B9521B",
"d  c #9C6D12",
"f  c #85442C",
"g  c #89472C",
"h  c #8A4C32",
"j  c #844539",
"k  c #8B5538",
"l  c #935939",
"z  c #9D643D",
"x  c #A35C1C",
"c  c #C1571D",
"v  c #C25B1C",
"b  c #C5651C",
"n  c #C7682D",
"m  c #8E5649",
"M  c #866C4B",
"N  c #9A6747",
"B  c #8A7755",
"V  c #947B58",
"C  c #8F6E55",
"Z  c #A6764E",
"A  c #A87B56",
"S  c #A56F4C",
"D  c #966268",
"F  c #9C6667",
"G  c #AB7278",
"H  c #A57B78",
"J  c #B49213",
"K  c #CE811A",
"L  c #D0881A",
"P  c #D59A19",
"I  c #DAA918",
"U  c #DFB917",
"Y  c #E4C917",
"T  c #E2C61A",
"R  c #E6D315",
"E  c #EBE814",
"W  c #EFF613",
"Q  c #E7CD35",
"!  c #C5C416",
"~  c #99855A",
"^  c #9B854F",
"/  c #A9895A",
"(  c #B48658",
")  c #AD955E",
"_  c #9A8865",
"`  c #8D8265",
"'  c #A48B65",
"]  c #A59364",
"[  c #AA9769",
"{  c #B49C6B",
"}  c #B69965",
"|  c #AB9B72",
" . c #B29E73",
".. c #BC9871",
"X. c #B2866E",
"o. c #B5A26D",
"O. c #BBA46E",
"+. c #BCA467",
"@. c #B6A373",
"#. c #BAA574",
"$. c #BDAA74",
"%. c #BDAB7B",
"&. c #B7A67A",
"*. c #AEA473",
"=. c #C69150",
"-. c #D2B84E",
";. c #C29E62",
":. c #C19F78",
">. c #C4AA6A",
",. c #CBAD6C",
"<. c #C6A767",
"1. c #D5AA6A",
"2. c #CCB16C",
"3. c #C7B06F",
"4. c #D4B46C",
"5. c #DAB46D",
"6. c #D5B96E",
"7. c #DAB96D",
"8. c #C3AB74",
"9. c #CBAB74",
"0. c #C3AD7B",
"q. c #C9A777",
"w. c #C5B275",
"e. c #CCB373",
"r. c #C4B37C",
"t. c #CCB47B",
"y. c #CDBA7C",
"u. c #CAB879",
"i. c #D3B473",
"p. c #DAB771",
"a. c #D6BA72",
"s. c #DBBC74",
"d. c #D2B47B",
"f. c #D4BB7C",
"g. c #DBBD7B",
"h. c #D2AD77",
"j. c #E2BE76",
"k. c #DCC176",
"l. c #DCC27C",
"z. c #D7C17B",
"x. c #E3C374",
"c. c #E2C57C",
"v. c #E4C97D",
"b. c #EACB7E",
"n. c #EAC978",
"m. c #ECD17A",
"M. c #E9D05F",
"N. c #AF7C82",
"B. c #AB8685",
"V. c #B99398",
"C. c #B49394",
"Z. c #B4878C",
"A. c #B9AC84",
"S. c #BFB387",
"D. c #BDA2A4",
"F. c #C5B383",
"G. c #CAB482",
"H. c #CCBB83",
"J. c #CABB89",
"K. c #D3BD83",
"L. c #DBBE82",
"P. c #D2BE8B",
"I. c #DABC8A",
"U. c #C7B38A",
"Y. c #C2AAAD",
"T. c #C4AEB1",
"R. c #C6B2B5",
"E. c #C8B5B8",
"W. c #CFBDB1",
"Q. c #E1BC81",
"!. c #D4C285",
"~. c #DCC383",
"^. c #DECA85",
"/. c #D4C38A",
"(. c #DBC48A",
"). c #DCCA8C",
"_. c #D6CB8E",
"`. c #DCCB93",
"'. c #D8C796",
"]. c #DDD194",
"[. c #CFC68A",
"{. c #E3C484",
"}. c #E4CB84",
"|. c #EACB85",
" X c #E2C68A",
".X c #E3CB8B",
"XX c #E9CD8B",
"oX c #E8C786",
"OX c #EBD185",
"+X c #E5D18C",
"@X c #EBD38C",
"#X c #EAD78B",
"$X c #F3DC8D",
"%X c #F2D589",
"&X c #E3CD92",
"*X c #E9CE92",
"=X c #E0CF9B",
"-X c #E5D394",
";X c #EBD493",
":X c #ECDA94",
">X c #E4D49A",
",X c #ECD59A",
"<X c #ECDB9B",
"1X c #E7D999",
"2X c #F1D594",
"3X c #F2DB94",
"4X c #F3DC9B",
"5X c #F2D699",
"6X c #F1CF93",
"7X c #EEE09C",
"8X c #F3E29D",
"9X c #F7E599",
"0X c #F4E18E",
"qX c #D7CDA4",
"wX c #DBD1A6",
"eX c #DFD9BB",
"rX c #EBDDA3",
"tX c #EADDAA",
"yX c #E5D9A6",
"uX c #F2DEA4",
"iX c #E8DDB2",
"pX c #EDE2A3",
"aX c #EDE2AD",
"sX c #EBE4A9",
"dX c #F3E4A3",
"fX c #F2E5AD",
"gX c #F4EAAC",
"hX c #F8EBA6",
"jX c #F9F1AB",
"kX c #EDE5B4",
"lX c #E9E4BA",
"zX c #F4EBB4",
"xX c #F5ECBB",
"cX c #F4E6B3",
"vX c #FAF4B5",
"bX c #F6EFC9",
"nX c #DAD4C2",
/* pixels */
"G.zX*X X[..X:X9XjXsXjXvX].[.yXrXrX@XXX2X;XuX4XXX4XhX#X$X9X9XjXkX/.dXuXuXI. X5X$X8X<Xc.%Xl k ).dXgX1X1X8X/.].].1XjXdXQ.6XXXQ.g..X",
"/ v.}.}.0X#X^.$X8 o g 0X#X[.-X;X{.oX.X,X5X@X;X2X9X<Xg.{.c.s.}.+X%.I. X%X;XXX*XoXoXoXXX%Xe.w.).-X-X1X;XdXpXrX1X-XgX>Xp.p.1.5.x.9X",
"V 6.k.s.k.v.z.7 > z N 0X+Xw.s.oX{.XX}.+X.X2X.X.X9X@Xg.k.|.c.{..Xr.;X*X XoXXXXXQ.Q.{.L.g.9.H.`.1XG.  ' ].1XrXrX1X1X[.j.5.5.5.j.$X",
"~ k.l.k.l.OXl.5 5 +X^.OXv.} ,.i.g.e.> ;X;X;X;X X;X}.f..X@XXX.X-X#. XXXXX XoXoXXX{.h.: # f P.&X:X5 K.# < _.;X<X7X7X`.,.5.5.5.5.0X",
"^ f.z.k.k.m.OX+X$.`.+Xb.$.M V %.g.g.k + 0. X.X&X;X~.e.@X.X3X+X-X0.oX XoXoXoX{.{.oX9.h.4X-Xr.).1X-X-X^.8.].-X#X1XrX/.,.5.j.5.1.%X",
"^ 6.v.v.z.6.k.l.^.3X#X5 o / (.(.d.9.>.#.h 0.#.{ K.).} y.f.f.~.~.$.XX*X{.{.Q.{.{.XXL.' ;X-Xr._.].: _ +X].!.f.).!.!.F.g.i.5.j.j.%X",
"^ z.k.k.l.k.x.k.k.}.:X5 h uX,X7X%XOX9X^.k.3XhXjXjX3X@X~.~.).<XpX$.L.Q.oX{.oXoX|.oX6X.X5XdX).u.: 5 ).!.%.&.$.$.r./.r.8.$.@.o.8.#.",
"^ 2.6.x.k.6.k.k.k.v.8X~ # Z Z $ $ $ h..X+X}.#X@XXX3X.X-X#X0X9XsX$.Q.oXoXoXQ.j.oXoXXX X4X5Xk.} :   C m.!.-XpX1X:X8XgX-X:X7XdXhX5X",
"B k.k.k.x.k.4.k.k.k.#X7X!.% % # $ $ $ $ A |.}.OX#X:X;X^.v.}.v.#X0. X;.Q.Q.|.{.Q.oX X6X5X(.}.s.7.      O $ f ).~.^.<XrX-X;X`.;X9X",
"9 2.2.6.6.k.2.6.k.l.OX7X-X}.}.f $ $ $ $ t }..XXX2Xz.v.v.a.6.7.x.{  Xh., d.oX6XXX{.XX5X5X(.i.( x.k.x.n.2.I.l # @X.X X-X;X4X,X,XjX",
"~ z.k.k.6.4.6.6.6.x.m.0X!.<.,.f $ $ $ $ $ - h h +X#Xl.}.k.s.7.x.O.Q.oXoX$ - g.XXoX&X;X4X`.@XA f z 7.x.2.l.1 q. X^..X(.(.-X4XdXvX",
"~ +.2.6.2.<.e.>.>.>.3.^.w.@.$ a q $ i e * b L L n XX}.}.c.~.v.v.{ d.d.d.h.S @   G. XL.2X(.v.x.f * l 7.<.$ $ ( h.^.@X>X). X1X;XvX",
"[ z.k.k.z.z.w.@.$.w.r.y.y. .$ $ a q c c c K Y Y c 1.@X;X}.}.k.OXd.{.).^.L.<.$ ;   C 0.G.F.d.f.l.$ $ =.6 $ $ $ $ f p.:X;X^.~.-XhX",
"] ].pX1XaXzX<X@X0X$X9X:X$X3XN $ r c c U E E E R Q ;X}..X}.@X%X|.f.OX}.XX|.3X~.2     d.5X3X3X:X:X<.# l - $ q c i i c =.l..X-X.X@X",
"` kXsXaXlXfXiXL.%XXX@XoXc.{.XXN g v P Y W W W Y Q 4X;X@X^.+X^.OXw.{.}.XX X;X XK.#     d.g.g.j.{.rX+ . $.$ w s I Y Y Y 6.{..X;X1X",
"` lXzXkXzXlXiX<.b.}.}.XXoX{.XX$X2X5.P Y W E Y Y Q :X<X<X.X:X#X+Xf.l.{.@X2X<X~.9.#      XXX(. XL.g.+ . %.* a L I E E R Y -.k.;XlX",
"_ aXaXaXcXxXwX>.x.c.|.XXXXXX;XXXXXXXm.T R Y Y T M.7X:X4X-X}.@X+Xd.}.}..X:X<XK.Q.#     I. X X XI.(.@   &..XK Y Y W W R Y -.4.k.8X",
"B K.1XyXaXkXwX<.p.s.oX%X.X;X2X2X;X{.$X!.Y Y Y +X;X&X+X.X+X+X+X^.e.XX.X{.;X;Xy.S #      X X*X*X X~.@   o..XK Y Y R Y Y }.f.f.l.}.",
"~ @.y.J.[.yXA.>..Xc.+X4X<X(.XXXX|.c.%X{.[.]._.-X1XH.w.t.y.y.!.!.[ 9.!.K.K.&X..1 ;     *X=X,X5X,X&Xo    .~./.a.-.-.-.-.#.+.O.y.-X",
"#X:X}.}.4XzXqX8.~.L.OX&X<X,XoX{.c.n.OXj.].1X:X<XdX;X-XuX<X<X$X9XOXOX3XdX<XrXC $     F. X,X&X=X6X<     K.^..X).).<Xy.>.}.v.3X9XhX",
"^.).^.^.;XxXqX$.}.,X;X4X<X2X^.{.g.s.b.t.<.>.2.f.K.q.F.P.q.e e e e 0 $ q.I.X.$ ;     V =X=X5XI.< +   o K.|.k.XXc.b.k.}.v.+X#X;X$X",
"l.OXOX1X+X%X).$.+X,X*XXX;X@XoX{.{.).,X>.+.<.e.f.= v c c v v v v v v c c % $ $ ;   + * $ '.,XA $     P.d.p.i.4.g.|.e.z.#X#Xk.z.v.",
"k.k.l.v.}.0X_.8..X;X2X5X;XXXoXoX;X,XgXH.Z Z f $ q q q s P I Y Y c c c c w $ o ; ; p c i p N @ ;   N >XI.4.p.g.Q.XXy.!.l.}.l.l.v.",
"OX+X+X}.+X9X_.o.g.XX@X-X;X.X;XXXXX|.|.1 % e v s s * $ % Y Y Y Y c c c a * 0 % + * a s c a $ o ; f ,X=X(.L.p.{.~.XXe.l.m.}.+Xl.l.",
"^.+X#XOX@X9X).~ [ ] [ %.F.8.o.[ ~ ~ < $ a I I I v s w % u Y Y Y c c c - c c q $ $ $ = = = O ; # - q.`.K.2X{.{.L.oX@.6.v.v.OX^.l.",
"+X^.+X.Xc.m.#X).zXhX<XdXpX(.<X-X`.9.$ a b Y Y Y U s q $ = I I b c c c * c s & 4 O $ # O O @ > # J u / &.G.0.{ @.0.~ 6.k.c.c.+X}.",
"$X:X#X}.l.:X`./.,X>X>X-XzX&X;X-Xh t $ a c L Y Y U v q $ s c c c c c c * s i o > ; $ + ! ; @ e a $ d x 1 (.).I.'.tX] 4.6.k.v.+X^.",
"%X@X#Xv.x.x.z.G.>X&X'.(.dXy.f.< $ $ % e c c p e r w O ; c c c c c c c * % $ $ # $ O @ + @ u c c $ u P r G.&XXXuXbX .l.l.#X}.7Xy.",
").l.k.k.k.OX[.J.&X>X&X X*X$ $ $ a % $ X $ $ $ $ $ @     * s c c v s q $ % d d % % $ $ % : c c c $ $ i c h XX|.uXaX*.l.^.^.+X:X1X",
".Xl.6.k.6.0X/.J.`.&X=Xq.$ = a c c a 0 $ + o             + q c c s 0 $ $ $ # 4 J J d $ ; c c c c $ $ 0 s f g.g.oX;X%.^.^.+X#X:X:X",
"y.e.z.].1XsXH.[.`.&XA $ 0 c L T U c q $ $ $ o       X   : q s c v i % $ # + # o o % ; i a s a a # ; # # 5 j.~.{.#X$.^.#X+X^.^.}.",
"{ o.] _ ] _.S.r.H.k $ $ c c v U U p * $ $ O       O # X X w v c c v a i $ # O o ; ; ; ; $ $ $ +       ; 6 {.XX}.3X@.%.o.[ [ [.[ ",
"!.hX8X7X3X:X+X}.$ $ $ a v s c c i $ $ $ #   + $ $ $ $ o ; # e s c c c c s * $ $ $ $ $ $ $ # ; ;       # {.oX*X*X4XK.!.(./.t.1X&.",
"e.9X-X#X:X;Xq.* $ $ $ = 0 v e = $ $ $ $ 5 F.  # $ $ $ $ @ ; : * c c v s c i $ $ $ $ $ $ # ;       . + oX*X*X*X,X<XP.4XXX@X{.^.| ",
"w.+X-X^.}.2.$ $ $ q - $ $ $ $ $ $ $ # _ ;X/.  # $ @   + $ O X   O $ $ $ O % $ $ $ $ $ $ @         o G.XX*X*X-X5X8X(.^.2X2X@X;X| ",
"y.l.}.}.c.2.$ $ c c q $ $ $ $ $ ; ; G.+X).g.o # # ;     X $ $   ; ; ;   X $ $ $ $ # +           ; $ I.*X&X*X,X,X;XK.(.XX@X@X@X| ",
"w.}.:X.Xz.<.$ $ c c i * % 6 *.o.;X<X;X-X1X~.N + # + + +   X X   ; o     X + + + +      .        @ $ d.&XuX&X*X*X-Xy.;XXX|.XX|.| ",
"u.^.+X+X~.<X} $ s c c c g %.[.!.~.~.`.!.H.u.( $ $ $ $ $ #     X   o # $     @ # $ < d.:X      $ $ $ d.*X,X=X X&X&X%.~.@XXXXX#X%.",
"3.sXgXpX-Xf.A $ * c c c f ^.#X+X$X:X:X!.!.~.!.< $ @ X # $ o @ $ O + :   ; @ ' d.w.).^.3X$ o @ $ $ $ q.[ ' &.%.F.I.&.O.#.#.>.~. .",
"+.k.}.l.*XtX;.$ c c c * h f.l.!.^.].hX8X1Xz.    # # + ; O   X X X o f .XK.K.~..X;X&X X:X Xf $ $ * i % j.I.{.3X$X3X8XOX|.m.c.n.+.",
"o.z.z.).1XrX#.# c c c * h -X^.l.:X7X1X/ N h ; ;     o     # $ $ < ~.)..X.X^.)..X).&Xg. X/.i.$ $ * c a * A (.K.g.}.v.f.s.p.s.b.[ ",
"%.yX1X1XpX1XfXh * i 0 $ ( +X#X^.#X0XZ   ; @ # % ;               > ~.^. X.X.X.XXX.X.X~.}.f.|.( $ % q c q % ..`.i.j.c.a.p.7.s.b.] ",
"S.zXsXyXkXgXgXh $ $ $ $ l.].}.}.+Xy.        ; # %               { e.l.{.K.}..X).~.+X.X@XO.c.XXf $ q c c p - =X~.,.4.j.s.4.s.v.[ ",
"_ sXkXsXaXaXyX8.$ $ $ $ w.y..Xz.l.              o           @ $ / e.i.e.e.~.f.y.K.y.G.K.O.d.c.XXA % % e v i '..X6.1.6.7.6.s.b.O.",
"$ } lXlXyX'.$ $ $ $ $ $ k.e.!.~.y..                             > l.g.g.a.f.8.#.t.!.qXwX'./.f.~.g.$ $ $ $ $ $ (.<.<.f.,.<.<.x.e.",
"/ @ % % < ( w r r q $ $ <.<XzXfX1X>XC                           7 @Xc.s.b.OXg.uXdX4XdXxXtX;X|.|.%X2XN $ $ $ $ ..% $ $ ( rX&Xs.,.",
"i.~.5 5 5 2 i s v c q $ f @XaXxXtXtXS.                          . B g.i.2.s.+.5.c.g. X X>XP.p.p.a.|.|.l $ $ $ $ % $ $ $ f _.s./ ",
",.;X:X:X1X X= 0 0 w * $ t 4.~.<XyXtXbXA.O..                     .   8 i.p.p.+.f.g.g.i.g.*X-XL.~.K..X;X#.,.$ $ $ $ $ $ $ $ h l./ ",
"<.@X.X7X8X8X9.N N % $ $ T.N.G G X.&XbXA.e.q.& $ # ; ; ; . .             >.4.,.g.oX~.g.~.~.XX-X&X(..X2X0.K.$ $ S A m @ wXN $ $ ' ",
"2.:X-X.X.XOXf./.`.t.e.1 m Y.Z.G G G G G G G F F F D D D D D D D     + # & } 9.K.(..X.X(.L.XX.XXX.X~.|.o.(.$ $ l yXtX_ # &X+ $ ' ",
") K.K.w.e.k.) O.>X>XK.f D E.R.V.Z.G G G G G G G G G G G G G G G G G G G G G G P.I.I.I.I.I.I.I.L.l.{.|.} K.N $ % q.A._ U.C M <./ ",
").zXfX1Xc.%XO.0.f. X~.f R.E.E.R.R.R.R.R.Y.G G G G G G G G G G G G G G G G G G G G G G G G G G ).~.l.%X+Xl.|.OXf   ' qX(.yXkXtXyX",
"kXfXiXtX,X$XqX#.L.(.:XW.Y.F C.E.Y.B.B.Y.E.R.E.R.E.E.D.V.V.V.V.G G G G G V.V.V.V.V.V.Y.E.E.E.E..XoX~.oXg.&Xf.j.c.OXc.oX}.c.;XgX4X",
"tXfXkXcX>X4XqX$.!.).~.k < Y.Y.Y.E.R.E., R.Y.R.R.E.G N.E.E.E.R.R.E.E.E.E.E.E.E.E.E.E.T.R.R.qX*X X.X X|.'.rX>Xa.p.OXg.(.,X{.L.{.uX",
"oXXXtXiXcXfXqXF.(.).`.K.,.9.z $ W.C.Z.B.m $ H D m V.C.D.E.E.E.D R.R.E.E.E.E.E.E.m H m D.Y.q.,X&X.X~.XX(.yXaX(.,.7.j. X4X5X,X*XoX",
" X{.uXcXxXbXnX0.&X-X&X(.!.y.f.f.h h k & $ $ $ $ , F H E.2 H # $ E.R.D.8 E.E.D.V., F # Z.Z.( ,X,X*X&X.X=XxXfX>X4.5.1.i.{.XXXX,XrX",
"dXI.{.,XtXbXeX .0.G.r.r.G.#.O.[ ] } +.> : o # $ $ $ 1 j & 1 # X.y m , 2 j j , $ $ $ $ % < w.0.0.F.F.$.F.tXwX/.} <.} <.5.j.c.@X*X",
"uXdX*X|.tXbXbX(.:X7X-X;X].0.y.G. .o.~ .     [  .@.~ S Z % $ # $ $ $ $ $ * y $ $ $ $ $ m F.0.&.@.| [ &.F.F.F.%.#.@.B 4.5.1.x.oX.X",
"2X XXXQ.oXbXqXd.}.{.XX~.9XfXxXvXzX`.:     ' dXhX9Xl.$.l.}.+X/ # $ $ $ $ $ - $ $ t f.2.;XgX<XhXdX8XjXdXgXzXdXjXjXjXS.+.7.j.5.j.oX",
"j.;X,X,X2XdX(.I.{.{.oX;X4X(.,X.X,X. .     ' @X*X3X}.8.}.OX:X#X+X*XL.+       + X.l..Xi.j.OXK.+X.X.X-X:XpX<X<X1X<XzX[.} 5.5.5.j.c.",
"g.XX,X,X4X5Xg.d.L.Q.{.;X4XP.~.a.            t.^.@X).9.!.OX^.#X7X).t.+         # ).^.,.k.}.J.8X1X&X-X+XdXrX1X-X<XdX[.<.5.5.5.j.j.",
"j.XXXX*X5X8XK.g.XX{. XXXdXd.g.{.              ' $X-Xu.^.+X+X7X7XdX_.N $ $ $ $ $ < d.s.s.OXu.-X1X&X+X-X1X1XpX1X>XaX`.} 7.j.i.p.j.",
"p.i.g.f..X1X8.t.XX{.L. XuXP..X<X.               5 :X$.!.z.[.!.-X].`.' % $ $ $ $ $ $ ;.a.a.y.-X7X1X-X-X1X].<XpX1XpX_.} 9.s.g.f.f.",
"C 9 9 9 M  .{ { 8.&.$.0.0.`.cXtX&X(.K.K.d.I.!.f.+X9X[.]._.z.$.r.*.*._ 9 9  .] [  . ./ >.+.u.].-X`.1XpX<X1X<XpXdX8X_.9 B M 9 B / "
};
