/* XPM */
static char *result[] = {
/* columns rows colors chars-per-pixel */
"64 64 239 2 ",
"   c #3C1F23",
".  c #461E1F",
"X  c #4C1E1D",
"o  c #5D1E17",
"O  c #551E1A",
"+  c #5A1E18",
"@  c #641E14",
"#  c #6C1E12",
"$  c #6E2215",
"%  c #6F2318",
"&  c #752413",
"*  c #7C2914",
"=  c #762917",
"-  c #7A3518",
";  c #421E20",
":  c #482726",
">  c #523130",
",  c #7C3521",
"<  c #793528",
"1  c #6A3529",
"2  c #5F4439",
"3  c #654538",
"4  c #794733",
"5  c #6D503C",
"6  c #755E1D",
"7  c #4C3C40",
"8  c #745745",
"9  c #78694A",
"0  c #832D15",
"q  c #8B3316",
"w  c #873015",
"e  c #973B17",
"r  c #803F36",
"t  c #884915",
"y  c #995015",
"u  c #A24319",
"i  c #AB481A",
"p  c #B44E1B",
"a  c #B9521C",
"s  c #AE5519",
"d  c #85432B",
"f  c #874529",
"g  c #964827",
"h  c #864636",
"j  c #8B563A",
"k  c #955738",
"l  c #80711C",
"z  c #C1571D",
"x  c #C25A1C",
"c  c #C6671C",
"v  c #C9731B",
"b  c #C67034",
"n  c #8E5650",
"m  c #955655",
"M  c #894E47",
"N  c #846F4B",
"B  c #9B6747",
"V  c #8A7856",
"C  c #947D58",
"Z  c #8A7650",
"A  c #A3744C",
"S  c #A87851",
"D  c #9C6665",
"F  c #AB7278",
"G  c #A57C79",
"H  c #AD7E72",
"J  c #9A8F1A",
"K  c #D18B1A",
"L  c #D29019",
"P  c #DFB717",
"I  c #DBAA18",
"U  c #DABB29",
"Y  c #E4C917",
"T  c #E4C91F",
"R  c #E7D516",
"E  c #EFF613",
"W  c #EBE614",
"Q  c #E4C930",
"!  c #9C865A",
"~  c #9B854F",
"^  c #A9865A",
"/  c #B48759",
"(  c #B9995E",
")  c #B09258",
"_  c #998763",
"`  c #8D8265",
"'  c #A99667",
"]  c #B49C6B",
"[  c #B79865",
"{  c #AA9C71",
"}  c #B29C72",
"|  c #AF8772",
" . c #B5A26C",
".. c #BBA46E",
"X. c #BCA467",
"o. c #B6A374",
"O. c #BBA674",
"+. c #BDAA74",
"@. c #BCAB7B",
"#. c #B7A679",
"$. c #AEA473",
"%. c #C39A66",
"&. c #C49C7D",
"*. c #C4A56B",
"=. c #C5AB6B",
"-. c #CBAD6A",
";. c #C7A765",
":. c #CDB26D",
">. c #D3B36C",
",. c #DAB46D",
"<. c #D6B96E",
"1. c #DBBA6D",
"2. c #C3AB75",
"3. c #C2AD7B",
"4. c #CBAC75",
"5. c #C5B275",
"6. c #CDB473",
"7. c #C5B37C",
"8. c #CBB47C",
"9. c #CEBA7C",
"0. c #C6B87B",
"q. c #D4B573",
"w. c #DAB672",
"e. c #D6BA72",
"r. c #DBBC73",
"t. c #D3B57B",
"y. c #D4BB7C",
"u. c #DBBD7B",
"i. c #D1AF71",
"p. c #E1BD75",
"a. c #E2BF78",
"s. c #E2B269",
"d. c #D99F5F",
"f. c #DCC176",
"g. c #DCC27C",
"h. c #D7C17B",
"j. c #DFCD62",
"k. c #E3C375",
"l. c #E2C57B",
"z. c #E4CA7D",
"x. c #EACC7E",
"c. c #EAC77B",
"v. c #EBD175",
"b. c #D5C25B",
"n. c #AF7B81",
"m. c #BE9383",
"M. c #B99398",
"N. c #B69899",
"B. c #B59495",
"V. c #B08A8B",
"C. c #BEB38A",
"Z. c #B9AD83",
"A. c #BCA2A3",
"S. c #AB9F96",
"D. c #C29A84",
"F. c #C5B383",
"G. c #CBB582",
"H. c #CCBB82",
"J. c #C8BB88",
"K. c #D3BD82",
"L. c #DBBE82",
"P. c #D4BE8A",
"I. c #D0B584",
"U. c #D6BE90",
"Y. c #C7B68A",
"T. c #C1AAAC",
"R. c #C4AEB1",
"E. c #C6B2B5",
"W. c #C8B5B8",
"Q. c #CEB9AE",
"!. c #D5C284",
"~. c #DCC383",
"^. c #DEC985",
"/. c #D3C38B",
"(. c #DBC58A",
"). c #DCCB8C",
"_. c #D6CB8E",
"`. c #DDCB93",
"'. c #D7C895",
"]. c #DED192",
"[. c #DED29D",
"{. c #CFC58B",
"}. c #E3C484",
"|. c #E4CB84",
" X c #EACB85",
".X c #E2C58A",
"XX c #E3CB8B",
"oX c #EACD8C",
"OX c #E8C786",
"+X c #EAD284",
"@X c #E5D18C",
"#X c #EBD38D",
"$X c #ECD98D",
"%X c #E7D385",
"&X c #F3D88B",
"*X c #E3CD92",
"=X c #E9CE92",
"-X c #E0CF9B",
";X c #E5D394",
":X c #EBD493",
">X c #ECDA95",
",X c #E4D49A",
"<X c #ECD69A",
"1X c #E6D99B",
"2X c #ECDB9B",
"3X c #E7D995",
"4X c #F1D594",
"5X c #F2DC94",
"6X c #F2DC9B",
"7X c #F2D699",
"8X c #F1CF93",
"9X c #EEE19C",
"0X c #F3E29C",
"qX c #F8E69A",
"wX c #F4E18E",
"eX c #D7CDA4",
"rX c #DCD2A5",
"tX c #DFD9BB",
"yX c #EBDDA3",
"uX c #EBDEAA",
"iX c #E5DAA7",
"pX c #F2DEA3",
"aX c #E8DDB2",
"sX c #EDE2A4",
"dX c #EDE3AC",
"fX c #E7E0AD",
"gX c #F3E4A3",
"hX c #F2E5AD",
"jX c #F4EAAC",
"kX c #F8EBA6",
"lX c #F9F2AC",
"zX c #EDE5B4",
"xX c #E9E4BA",
"cX c #F3EBB3",
"vX c #F5EDBB",
"bX c #F4E7B3",
"nX c #FAF4B5",
"mX c #F6EFC9",
"MX c #DAD4C2",
/* pixels */
"G.cX=X*X(.XX3XqXlXlXlXnX3XJ.iXpXpXoXoX5X:XpX6XoX6XkX#X&XqXqXjXzX'.9XpXpXP..X4X5X6XG.: # Z 2.3XgXkX,X2X0X/.`.].2XkXjXL.8X XL.L.oX",
"^ z.z.|.$X$X|.$X>X$X$XqX%X{.:X:XOX|.XX<X7XoX:X:XqX2Xy.|.l.r. X@X3.!.OX8X:XoXoXOXOXOX Xa.S 3.).;X;X1X3XgXsXsX1X3XjX[.w.,.,.s.p.qX",
"V <.f.e.g.z.h.h.|.! . 4 @X5.r.OXl.XX.XoXoX4XoXoXqX#Xr.g. Xl.}.XX7.<XoX.XOXoXoX}.}.}.OX&Xt.H.*X2X1X;X`.;X<XyX2X2X3X{.p.,.,.,.p.&X",
"! f.g.k.g.%Xh.@Xh.: @ +X%X[ -.5 g.|.g.>X;X:X;X.X#X.Xu.|.#XoX|.*XO..XXXoX.XOXOXOXL.OXOX> ' I.`.2X3X:X,X]._.3X2X2X9X`.-.,.,.,.s.wX",
"! e.f.e.f.%X%X%X9.^ @Xz.%Xo.O.  ! l.OX.XoXXX*X*X<X~.6.@X X5X@X3X2..XOXOXOXOX}.}.l.}.3 4 3X7.@.#.#.XX3X3X].;X:X2X9XP.i.,.1.p.i.x.",
"~ <.z.z.f.<.f.f.^.5X>Xg.      8 t.q.*...O.2.O.] K._.] 8.y.L.~.!.2.OX8XL.OXL.OX}.8XL.k h ;XV > _.  3.]._.O.  !.!./.7.u.q.w.w.a.&X",
"~ h.e.f.z.f.z.k.f.|.>X      7.[ / / [ / / oXkXlXkX5X#X^.g.^.9XsXO.L.}.OX}.OXOXOXOX=XOX.XgXK.@X    F.!.+.V   + F./.7.2.+. .o.2...",
"~ :.f.f.f.:.f.f.f.|.0X    O # # , k & # # # l.&X@X5X#X*X#X9XqXsXO..X}.OXOX}.p.OXOX=XOX6X7Xg.z.      z.^.,X[ k 3X9XjX,X3X0XgXkX7X",
"Z <.f.f.f.r.:.f.f.f.%X    O # y.L.4.& # # # # oX#X>X:X^.l.|.z.$X3..X}.}.}.OX}.OXOXoX8X7X(.}.1.>.(   ; : ] ;X<X~.^.6X2X:X<X`.:XqX",
"V :.<.<.1.j.:.<.f.f.%X9X! C .X~.;.# 0 0 # # # oX$Xh.z.z.e.<.1.k.] L.OXoX.XOXoXOX}.OX<X7X(.|.k.k.f.p.f # B (.;X>X).^.<X*X2X<X<XlX",
"` :.h.f.<.>.<.<.<.f.z.$X!.6.u.g.;.# p z a w # B oX@X~.|.g.e.1.k.] / r OXOXOX=XOX.X=X=XpXG.l. Xc.k.k.f # & , h f k a..X(.:X6X9XnX",
"! X.:.:.-.-.6.=.=.;.6.%X0.F.6.K.%.i z K K c z q S :X|.|.l.l.z.z.] t./ # k L.<X=X*X.XL.8XL.j %.i.k.1.f # & p a $ q d.L.oX.X3X<XnX",
"$.h.f.<.h.h.5.o.+.0.0.H.9.C.{.'.( I Y Y Y Y Y z u t.$X:X}.|.g.+Xy.OX^.(.# X   @.D.2.2.I.3.y.d # / ;.f & a x z * z z z b ~.~.;XqX",
"' ].yX1XzXjX2X#X5XwX5X4X&XwX5X6Xx.Y Y Y W Y Y P z c.XXXX|.$X&Xx.t.&X|.#Xq.# ; > (.:XXX7X6X5Xu.# # :.f & c P c L I I x b @X;X;X:X",
"` zXdXdXzXbXaXu.&X X#X|.g.|.@X#Xv.Y Y E E E Y Y s.2X:X@X^.@X^.%X4.g.|.oX.X%.:     8.t.u.u.u.u.d # G.#Xc Y Y Y Y Y Y Y b }.|.;X3X",
"` xXcXzXzXxXaX=.c. X XXXOX}.oX4X&XY Y E E E Y Y j.5X2X5XXX$X#X@Xy.g.}.#X4X5Xt.+   8 .XOXXX(..Xu.o   <X..Y Y E E E R Y b >.r.:XxX",
"_ zXdXuXzXvXrX=.p.l. X X:XoX=XoXoXk.T E R Y Y T v.2X>X5X:X%X#X@Xt.XX^.|.4X2XK.#     }.L..XXX.XU.o   2XO.Q T W E E R Y Q -.>.g.0X",
"V y.1XiXdXzXrX;.w.r.OX&XXXoX4X4X:X XQ Y Y Y T Q <X].;XXX@XXX:X^.6.XXoX|.:X:X0.@     =X*X.X=X=X.XO   <Xo.z.Y Y R R R Y Q K.9.g.|.",
"_ O.0.P.'.iXZ.*.XXl.oX6XyX(.oX#X+Xc.&Xl.b.j.`.].:XH.7.0.0.O.3.4.' =.~.K.K.*X] @     U.8X*X<X<X=X+   sXo.!.f.T Y Y U o.+. .O.9.3X",
"#X$X|.|.>XbXeX2.}.g.@X;X<X:X|.}.l.c.x.u.;X1X>X>XgX%., , e a a a u - :XgX2XyX<       *X.X<X*X=X=X+   2XK.^.XX(..X<X8.5. Xz.>XqXqX",
"^.@X|.^.:XnXeX@.|.<X:X2X6X4X}.}.u.a.x.8.=.;.( e e i z a v L K z z z e g U.B #     7 Y.U.*X7X=X[     <XL. Xg. X}.z.g.^.z.%X#X#X5X",
"g.#X|.3X@X+X_.2.oX<X=XoX:X#X}.|.}.^.<X+.X.A p a u # p Y Y Y Y z z z x x u # .     D._.S.`.:Xr @     ,XI.r.,.q.p. X>.h.#X#Xg.f.z.",
"e.g.g.z.|.wX_.2.oX:X:X7X;XXX.XOX:X<XgXS A d # # # # # Y Y Y Y z z z x x e # .   . @ ^ <X,X| $     } ,XK.i.w.u.L.oX8.^.g.|.g.g.z.",
"|.%X@X|.@XqX_. .g.|.:X:X:XoX:XoXoX|.d $ e z z p & # # * Y Y P z z z z i # X   : e z w h 4.@     1 .X*X(.y.w.}.~.oX6.g.z.%X@Xg.h.",
"|.%X#X@X&XqX`.! ' ' ' @.F.2. .' C = # s I I I z a w # = v v z z z z z # # @ ; # a x a s # O   < P.=X`.I.7X}..XL.XX..<.z.z.+X|.g.",
"@X^.@X@Xl.v.$X(.cXgX1XgXsX(.2X:X8.# a c Y Y Y P z q # z z z z z z z * z z q # # # e i u @ . @ < _ } Z.#.G.3.] *.3.! <.f.l.g.@X^.",
"&X$X:X|.g.>X`.P.,X,X,X,XcX*X3X;X~.# p z K Y Y P z q # z z z z z z z = z z < ; # # # # # o   i # S =XyXU.(.(.U.'.iX' >.>.g.|.@X^.",
"$X#X$Xz.k.k.h.G.<X,X(.(.gXH.>XXX# # e z z i e e q o   & i z z z p p & z u ; J ; & O 6 ; o t z p q / OX'.[.*X XpXmX} l.g.#X%X3Xh.",
"|.g.g.f.f.%X/.J.*X-X`.(.:X!.7X# # # ; # # # # # o     . w a z p # # # # # # # # # X   # - z z p y y # %XpXoXoXpXdX#.f.^.g.@X>X3X",
"XX~.<.f.<.wX/.J.'.=X=X,X:XP.4.# 0 e & + X         X   ; q z z z u # # # t t # # o # # : a z z a y L u ) p.r.r..X#X@.^.^.@X3X>X$X",
"9.6.h._.3XjX0.{.`.*X`.=X7X^ # & v Y - # # O   ; O # ; . q a z z u # # # o J t - = # . p a a p # $ u a f L.OXu.}.$X..^.3X@X|.^.@X",
"]  .' _ _ ].C.0.H.G.7.8.O.d # & K Y s # # X   # # # o   + * a z p 0 # @ o @ 6 6 t O + $ w * # X $ * a f l.|.XX|.9Xo.@. .' ' {.' ",
"!.kX9X9X5X9X@X#X|.:.(.}.;.# # q x L c # # X @ # @ @ # @ ;   o i p z a 0 o X o o O . . # # @     . o @ 3 .X.X=X=X6XK.!.(.!.7.6X#.",
"5.qX3X#X$X3X#X@XdXcXsXvXr # # z x c z # # O @ # +   ; # # X   ; # * * & # # o $ @ # # # . .         o =X=X=X=X:XgXK.6X#X#X~.^.{ ",
"5.@X@X^.|.g.l.9XvXcXjXvX# # # z x z u # o . + @         o @     X # # o # # # # # # #             o XXXX=X=X:X7X6X(.}.4X4X#X:X{ ",
"9.g.|.%Xg.z.^.h.3XdX9XhX# # # z z z & @ _ / @ # @ # #           ; ; ; ; # # # @ .                 8.,X=X*X=X,X<X:XK.(.oX#X#X:X{ ",
"5.%X3XXXh.:.h.].;XsX^.$ # # # & p * # 1 _./ # # @ @ # @   ; + O O .                 X         . # t.*X*XpX*X=X=X:XG.:XoX XoX X} ",
"6.^.%X@X~.2X9XjXdX^.^.# & # # # # # > P.y.7.d # +   @ # + + # # # # @ @     < - , , (.#       # # 4.XX=X:X-X.X*X*X@.~.#XXXoX$X@.",
"5.sXhXsX[.h.h.g.h./ # u z i & $ O ' $X!.@.    X + @ ; . ; + + +   _ I.K.3.G..XXX!.^.^.#   X # # # I.I.] ' o.3.F.P.O...O...2.~.] ",
" .f.%Xg.@XfXjXfXbX/ $ a z a = d XXXX4 @ # O ;         ; @ o $ 4 7.*X^.oX!.h.~.@X<X@X.X:X# # # # # a.bX XP.}.4X5X6X0X+Xx.x.c.v.] ",
" .h.g.).3X1XvXlX,X$ # a z z & f |.3     . o # o               2  .oXXXXX).~.).XX).XX~.|.# # # # $ t.gXL.}.).K.g.z.|.y.r.r.r.x.' ",
"@.1X].1XfX9XsXcXsXh # = z z z , [           o @ ;           : > ] g.^..XoXXXoX.XXX*X~.^.# # # # * ( &X!.,XyX'.q.r.l.q.q.,.r.x.' ",
"C.vXdXsXdXjXzXfXiX/ # # e z z @               . +         ; @ @ : ..g.~.K.|.XX|.~.:XoX.X# # # a u # gXyX).zXuX~.-.>.k.k.>.r.z.' ",
"{ iXzXfXfXfXsX!.6.=.) # q z z q +             . # +       ; #       6.q.6.~.K.8.y.8.0.!...h # z z q # rXhXvXuXXX,.-.1.,.1.r.x...",
"[ iXxXaXfXdX[.{.'.'.'.$ # u z p O               O # #   X % ;       y.f.r.y.3.O.8.!.eXrX'.^ # & z z & d uXvXvX`.-.;.q.;.;.;.k.6.",
"<.z.2X6X$XkXlXyXzXzX].f.# # # # +                 ; @ + @ ;           u.x. Xr.pXkX6XgXvXuX:Xw.# * i = = U.uXuXyXt.r.yX*XyX`.r.-.",
":.:X$X0X#X0X;X_.'.[.~.-.( # # # o               > 4.=XU.1 ;           2 :.r.X.<.u.a..X}.-XP.t.q., & # # # # iXsX,X XyX,X,X_.r.^ ",
":.#X:X>XO B 3X_.(.K.>.& u 0 # # # @             ! K.*X*X'.V ; ;       : [ 1.*.y.y.u.t.u.=X=Xg.&.| m m m r # # = U.;XhXuXzXsXz.' ",
"-.@X@X9X3X3 # # # # ( & x z z * # # ;         8 H.!.(.<X,X,X,X9 ; O ; > > [ 4.t.}.}.F F F F F F F F F F m # # # S uXvXbXiXdXoX^ ",
":.:X@XXX|. X1 . . . . $ e z z a # # @         3 =X!.D.m.m.D.D.| D D D F F F F F F F F F F F F F F F F F n # # # # -XuXiX*X<XdX' ",
"' K.!.5.6.g.' O.,X[.!.y.k # # # # h A.R.F F F F F F F F F F F F n.F F F F F F F F F F F n.V.V.M.W.W.W.A.# # # # # # Y.F...] =.^ ",
"^.jXcX,Xp.&XX.3.y..X~.y.'.^.d # # % A.R.F F F F F F F F F F F F F F F F F F F F F N.E.E.W.W.W.W.G n.W.Q.*.# # # # # eX~.iXzXdXiX",
"zXhXaXaX8X&XeXO.!.(.3X,X`.9.~.~.# # A.W.W.W.W.M.M.M.B.M.M.M.M.M.M.B.M.M.N.M.E.W.W.W.W.W.W.W.W.D M G W.H =XS # # k l.OXXXl.:XjX6X",
"uXhXzXhX,X0XeX@.!.XX~.y.~.t.:.6.# # A.R.R.W.W.W.R.E.W.W.W.W.W.R.F F E.E.W.R.W.W.W.R.W.W.W.W.< M.# # N.d yX_   k x.u.(.:X}.u..XpX",
"OX=XuXaXbXhXeXF.).(.`.P.y.~.y.-.# # A.M n W.W.E.B.B.n A.n B.W.A.< A.W.W.W.n M W.W.n A.W.B.n % # # # # 8.iX'.F.-.1.p.XX6X7X<X=X.X",
".X}.pXbXvXmXMX2.*X:X*X(.~.9.y.y.# # @ < N.N.N.W.A.T.A.V.$ D , 1 R.N.R.< G # < B.D # V.V.# # # # , k XXrXvXbX=Xi.,.-.q.}.oX=X4X6X",
"hXL.OX7XaXmXtX} @.H.7.7.G.o. .] # # ; X # # V.< < < $ # @ $ $ $ < @ h $ < # < % $ $ # | o @ ] @.F.G.@.F.aXrX!.[ ;.[ ;.,.p.c.oX=X",
"6XgX*X XyXmXmX(.3X2X:X=X].7.7.F.# # ;   X # O.} $ # # %X%X%X^.%XgXhX[ ^ / / S A B j j B | F.#.o.{ ' o.F.F.F.@.#.#.V i.r.>.p.OXoX",
"4X.X=XL.OXmXrXG.|.}.oX~.qXjXvXnX# # .   ; o 0XgX$ # $ g.%X].$X].).@XsX].3X1X{.L.q.y.-.$XkX2XjX0XpXlXkXkXnXsXkXlXlXC.X.,.p.,.p.}.",
"p.:X<X4X4XgX(.L.OX}.OX:X7X(.,X.X@ .         *.oX%.( +.^.%X$X$X].:X2XqX9X2XsXJ.y.g.*Xq.k.+XK.#XXXXX*X3X9X1X2X2X9XjX{.( ,.,.w.a.l.",
"a.oX7X<X7X5XK.t.u.L.OX:X6XL.~.t.# # # ;     $ .X#X(.5.~.%X^.3X9X]._.9X9XsXfXC.e.(.^.:.f.|.H.2X3X*X@X;XgXyX3X;X2XgX{.;.,.,.,.p.p.",
"L.OXoX=X7X6Xt.L.oX.X.XOXgXt.u.}.# # # # # # @ f &X3X0.^.%X3X9X$X9X].wX9X3X9X{.].,XXXe.f.@X0.;X2X`.@X3X3X1XsX,X,XdX`.[ ,.p.q.w.a.",
"u.e.u.y.oX2X2.8..X.X~..X6XP..X2Xr # # # # # # d wX3X+.!.h.{.!.$X].].].]._.].$.!.[.).e.e.r.y.<XsX,X3X;X1X].2XsX1XsX_.[ 6.p.u.t.u.",
"Z 9 8 9 N } ] ] 2.3.@.3.3.'.hXhXpX~.L.L.y.L.L.~.6X9X!.;X_.h.+.@.$.$._ 9 9 @.$.$.Z.@.( *.X.0.).;X).2XsX1X2X2X9XsXgX_.9 Z N 9 Z ! "
};
