/* XPM */
static char *result[] = {
/* columns rows colors chars-per-pixel */
"64 64 240 2 ",
"   c #3F102A",
".  c #371538",
"X  c #2B123B",
"o  c #44142B",
"O  c #4C1A2D",
"+  c #48172D",
"@  c #511E2E",
"#  c #491B32",
"$  c #511D31",
"%  c #55212F",
"&  c #552332",
"*  c #5B2433",
"=  c #572937",
"-  c #492337",
";  c #652B39",
":  c #672D39",
">  c #6D313D",
",  c #64363B",
"<  c #72363E",
"1  c #13134F",
"2  c #1E154A",
"3  c #151452",
"4  c #181958",
"5  c #241549",
"6  c #30184F",
"7  c #19215E",
"8  c #262659",
"9  c #382956",
"0  c #291B6D",
"q  c #251865",
"w  c #1C2666",
"e  c #1F3B72",
"r  c #282874",
"t  c #263679",
"y  c #2D346B",
"u  c #1C1F61",
"i  c #483959",
"p  c #533049",
"a  c #723540",
"s  c #7A3C43",
"d  c #6A3D46",
"f  c #284378",
"g  c #364A75",
"h  c #4A435D",
"j  c #7B4745",
"k  c #6F4C4D",
"l  c #796A4B",
"z  c #4E4967",
"x  c #746D6E",
"c  c #6F5C65",
"v  c #884749",
"b  c #924D4D",
"n  c #95504E",
"m  c #9D5552",
"M  c #87584C",
"N  c #A35C54",
"B  c #8E7255",
"V  c #A96658",
"C  c #B2735D",
"Z  c #AD735C",
"A  c #88796F",
"S  c #BA7D61",
"D  c #9B8757",
"F  c #AA8F5D",
"G  c #95886B",
"H  c #BC8564",
"J  c #A99668",
"K  c #B59C67",
"L  c #AB9974",
"P  c #AC916C",
"I  c #BBA46E",
"U  c #B7A36B",
"Y  c #BBA674",
"T  c #BDAA74",
"R  c #B8A778",
"E  c #B2A876",
"W  c #C48A67",
"Q  c #CA926A",
"!  c #C89D67",
"~  c #CBAD6A",
"^  c #C6A866",
"/  c #D5AC6E",
"(  c #CDB26D",
")  c #CFB066",
"_  c #D3B36C",
"`  c #DAB46D",
"'  c #D8BA6E",
"]  c #C2AE7B",
"[  c #C4AC74",
"{  c #CDB474",
"}  c #C4B37C",
"|  c #CBB67A",
" . c #D3B573",
".. c #D6BA73",
"X. c #DBBC73",
"o. c #D4BC7C",
"O. c #DBBD7B",
"+. c #D5B777",
"@. c #E1BE75",
"#. c #DCC176",
"$. c #DCC37C",
"%. c #D8C27C",
"&. c #E3C474",
"*. c #E2C57B",
"=. c #E4CA7D",
"-. c #E9CB7B",
";. c #F1D17E",
":. c #293E84",
">. c #2E3A88",
",. c #313C8C",
"<. c #2D4B8D",
"1. c #2A4587",
"2. c #33498B",
"3. c #2E4C93",
"4. c #304F97",
"5. c #335A9A",
"6. c #335398",
"7. c #2D5891",
"8. c #2E699D",
"9. c #336597",
"0. c #365DA5",
"q. c #3759A5",
"w. c #3962AD",
"e. c #3668A4",
"r. c #3676A9",
"t. c #3B66B3",
"y. c #3C6CB4",
"u. c #3A78B7",
"i. c #417ABA",
"p. c #476EA9",
"a. c #4A6794",
"s. c #3A8BBE",
"d. c #3985BA",
"f. c #3C8EB6",
"g. c #4586BA",
"h. c #4D87B3",
"j. c #6A9BAD",
"k. c #76D8AF",
"l. c #70D3B3",
"z. c #3B94C2",
"x. c #3C9AC4",
"c. c #3B8FC0",
"v. c #3FA0C7",
"b. c #469BC6",
"n. c #5291C3",
"m. c #47A7C9",
"M. c #4EB7D1",
"N. c #54B8D2",
"B. c #54B0CC",
"V. c #6DB4CD",
"C. c #5BCCDB",
"Z. c #57C3D7",
"A. c #5BC4CA",
"S. c #6AD3C2",
"D. c #63CAD8",
"F. c #69D4DE",
"G. c #78D3D9",
"H. c #6FCACD",
"J. c #79DAE1",
"K. c #7FE1E4",
"L. c #8E8E8B",
"P. c #B8AA83",
"I. c #BAB28B",
"U. c #8DA3B0",
"Y. c #C9B884",
"T. c #D3BC83",
"R. c #D8BE86",
"E. c #C4B085",
"W. c #D4C384",
"Q. c #DCC484",
"!. c #DEC984",
"~. c #D4C38B",
"^. c #DBC58B",
"/. c #DDCB8C",
"(. c #D6CA8E",
"). c #DCCC92",
"_. c #D6C694",
"`. c #DDD296",
"'. c #CFC58B",
"]. c #E3C583",
"[. c #E4CB84",
"{. c #EACB84",
"}. c #E3CC8B",
"|. c #E9CC8B",
" X c #E3C78A",
".X c #E5D28C",
"XX c #EBD38C",
"oX c #EAD588",
"OX c #F3D78A",
"+X c #E2CE92",
"@X c #E9CE92",
"#X c #E5D393",
"$X c #EBD493",
"%X c #ECDA94",
"&X c #E4D49A",
"*X c #ECD699",
"=X c #EBDB9B",
"-X c #E6D99A",
";X c #F2DC94",
":X c #F2DC9B",
">X c #F2D695",
",X c #F1CF93",
"<X c #EEE19B",
"1X c #F3E39C",
"2X c #F7E599",
"3X c #F4E18E",
"4X c #D7CFA8",
"5X c #EBDDA3",
"6X c #E7DBA8",
"7X c #F2DEA4",
"8X c #E8DDB2",
"9X c #EEE2A4",
"0X c #EDE2AC",
"qX c #E7E0AD",
"wX c #F3E4A3",
"eX c #F5E9A9",
"rX c #F9F2AC",
"tX c #ECE5B5",
"yX c #F4EBB3",
"uX c #F5EAB6",
"iX c #FAF3B6",
"pX c #87DBD4",
"aX c #89CFCD",
"sX c #98E4D3",
"dX c #A9E8CD",
"fX c #B6EECB",
"gX c #B9EDCF",
"hX c #A5ECD6",
"jX c #8EDCE4",
"kX c #8CE9E8",
"lX c #87E5E6",
"zX c #97E8E8",
"xX c #AEE6EA",
"cX c #AAD5E4",
"vX c #CFE7DB",
"bX c #F4EFC9",
"nX c #C8EAEE",
"mX c #CDEBF0",
"MX c #DAD4C2",
"NX c #9CD0BE",
/* pixels */
"Y.uX@X X(./.%X2XrXrXrXiX-XY.6X9X7X|.XX>X*X:X:X|.:XeXXXOX2X1XtXbX_.9X7X7XR. X,X>X:X:X-.OX! [ -XwXeX-X%X:X~.).).-XrXwXR.,X|.@.R. X",
"F *.=.[.oXoX!.3X<XoX3X3XoX'.#XXX].[.}.*X>X@XXX*X2X=XO.{.=.X.V.mX] R.].,X@X@X@X{.].].|.{./ ] }.#X#X-X-XwX9X9X-X-XeX`.` ` ` ` @.2X",
"B _ #.X.#.=.%.%.$.%.[.3X.X] O.-.].}.}.|.|.>X}.}.2XXXO.$.{.Q.zXmX] *X|.].+X@X|.].].].{.,Xo.Y.#X=X-X#X).#X-X=X5X-X-X'.@.` ` ` @.OX",
"D #.#.*.=..X%..XoX%X!.oX=.K ~  .@.=.R.$X$X*X@X].|.}.o.[.OX XxX6XY  Xj.zX+X].{.{.].].{.>X^.T.).-X*X-X#X#X/.*X=X<XwX).~ ` ` ` @.3X",
"D %.#.#.#.=.=..XoX<XoX=.oX} #X&Xo.@. X}.@X X}.+X*XL.{ XX|.U.zX4X/ {.j.zX+X X].].].]. X:X#XY..X-X#X#X%X#X`..X#X%X1X~./ ` ` @./ ;.",
"D  .-.$.#.' #.=.$.<X$X$.;.T ^.(.o.( [ I Y T Y U T.vXK | / j.w.I.] ,Xp.jXR. X]. X|.R. X,X-XT ~.).~.W.`.`.'.%./.W.~.P.O. .` @.@.OX",
"D #.' #.$.#.=.&.#.[.<X<X3X7X*X<XOX{.2XQ.$.;XeXrXrXvX,XQ.E.s.b.4XQ R.c jXR.].].{.{.4X X>XwX/./..X=X/.W.T E T T } (.T [ T Y U Y Y ",
"D ) #.#.#._ #.#.#.[.1X<XoXQ.}.}.}.$X:X.X.X=.oXXXXXvX}.@X`.C.N.t R  Xj.G.R.].].]. XxX}.:X:XO.*.=.!.*.;.!.-X9X%X%X<XeX#X-X:XwXeX>X",
"B #.' #.#.#.( ' #.#.oX<X<X!.!.Q.Q.}.XXQ.Q.}.[.{.oXh #X^.b.C.m.t ] E.s.N.L.-.].R.kXMX#X=X^.=.X.X.&.#.&.X.~.$X&XQ./.:X=X#X*X+X*X2X",
"l ( ( #.#.&.( ' #.*.[.<X`.[.}.W.+.].OXQ.}.}.}..XXX7 T.c i.N.m.t K i m.N.t {.T.q.U.}.=X%X).{.&.&.&.&.-.( Q./.#X$X/.}.*X$X*X*X*XrX",
"D %.#.#._ ) ' ..' #.=.3XW.{ X.%.+.' {.{ #X%X%X$X}.e I.8 u.x.M.>.3 f N.N.t }.:.i.j. X$X:X).oXoX-.*.&.&.) Q.Q.+X}.Q. X/.^.$X:X<XiX",
"D U ( ( ( ) { ^ ^ ^ { [.{ Y.{ W.( ~ &.T }.}.XX$Xx <.5.3 c.M.v.q.<.5.u.g.e A y.Z.h.E.R.,X/.$.$.#.&.' &.{ @XQ.[.#X[.XX&X/.}.-X$XiX",
"J %.#.#.$.%.} U T { | Y.| I._._.U ^ ' J /.!.}.'.t 7.C.C.n.v.c.y.y.y.y.y.i.t.n.x.r.7 8 %.T %...%.#.~ ) U ). X%.{.!.o.$X*XQ.Q.@XwX",
"J `.5X-X0XyX=XXX3X;X3X;X;X3X;X%X%X~.| P E L.1.1.e.<.N.C.y.d.c.C.C.F.C.C.J.n.b.M.v.M.m.7.9.I.I.-X#X[.' U R.}.Q.O.[.[...Q.}.#X#XXX",
"G tXqX0XtXtXqXR.XX{.|.}.Q.}.|.XXh r.s.f.f.J.lXpXlXB.y.g.t.t.i.C.C.lXlXC.J.kXJ.C.Z.Z.x.x.v.f.f.h g h $XT ~.+X#XQ.$.Q.Q._ [.}.*X-X",
"G tXyXtXtXtX8X^ {.{.{.{.[.T.x e m.D.kXzXzXxXmXmXmXxXy.s.i.p.C.F.kXkXzXkXC.C.C.C.Z.m.m.C.C.C.C.f.u.4.x R #X^.}.Q.Q.O.$.~ _ X.#XtX",
"G qX0X6XyXuX4X~ @.@.|.R.A 8.b.G.J.kXxXmXmXmXmXmXmXc i i i p z j.kXxXmXnXxXxXcXxXjXC.C.C.C.C.M.u.r 3 X k }.}.*X}.^.^.XXo.~ ( $.1X",
"l o.-X6XqXtX4X^ ` @.].4 p.C.C.lXxXnXmXnXnXmXmXU.o < a a a s a ; & cXmXmXnXmXmXmXmXmXmXnXnXx.z.3 p : < > d /.}.#X/.}.}.}.R.o.%.[.",
"D T | '._.6XI.^  XY.>.cXjXC.C.C.K.kXkXkXfXfXL.; * < V C m m n * : x xXmXnXmXmXzXjXjXlXJ.M.s.6.. > n Q Z = T.| | | T U T U T o.#X",
"$X%X[.[.=XuX_.[ ].A t.zXD.C.sXdXpXC.gXhXfXL.b n & j W Q W V + a b B aXnXvXgXfXdXdXgXC.M.x.r.. & n W Q Q $ Y /.{.%X| { =.=.:X2X2X",
"!..X!.!.$XuX4X[ P.U.Z.C.Z.C.dXfXpXC.C.jXNX> / ! = O Z Z V & o < / Z : fXfXfXfXfXsXG.Z.z.z.5 % m b ; : j s % oX*.=.#.[.[.[.XX$X;X",
"$.oX[.%X.XOX(.T q V.C.C.C.G.fXfXpXC.C.J.H.v ` p . # c + x > o O C Z : fXfXfXfXpXC.C.m.x.e.  % m > > n W W M M @.{. .%.oXoX$.#.-.",
"#.$.$.=.!.3X(.h n.jXC.C.lXkXhXdXC.C.C.J.G.a N 6 6 b o   : m   # O.S = fXG.dXfXfXD.Z.z.z.1.o @ b : n H &.&.Q v B .X+.$.$.=.$.%.=.",
"{.[..X!.oX2X!.h u.J.C.F.J.kXkXC.C.C.C.C.aXk C : 9 ; : o v = 9 i M d 0.C.C.C.dXpXG.x.z.7.3 o @ * b H &.` / ` Q j }.| $.[.[..X$.$.",
"[..XXX.XoX2X/.9 g.C.C.C.D.B.2.1.r.Z.C.C.t.9 o s y t o   6 t t * * g.N.C.C.C.pXC.d.1.1.:.3 . O > v N N H Q Q Q m R.U ' =.=.{.[.$.",
".X!..X.X=.;.3Xz 1.5.5.e.b.g.>.3.s.x.N.Z.Z.9.9 p   y 3.3.6.g.i a.n.C.C.pXhXgXp.3.4.t.7.<.4   + ; < n m m H Q C M Y D ..X.*.$.oX[.",
";X%XXX[.#.%X.Xz :.5.w.5.t.6.t y.x.x.y.e.C.N.B.0.6.6.t.B.N.C.N.N.Z.A.l.h.p.a.2.q.t.u.z.w.r 5 o o * : : : , j a ; 4XF _ ..#.=..X!.",
"OXoXXX=.*.&.#.h :.q.y.V.5.q.0 0.t.t.y.3.<.N.C.C.D.C.C.Z.C.C.C.C.k.l.g.i.p.t.t.p.z.u.t.t.r q X   O v m V &.@.@.Q : R *.%.oX[.<XY.",
"!.$.#.#.#.oX(.z 3.d.b.kXV.q.w 0 4.t.d.u.r.9.r.h.n.S.S.S.S.S.S.S.S.N.Z.Z.m.b.n.c.d.:.4.t.t.0 q X 6 6 > j B M j j - E $.!.!..X<X#X",
".X$.#.' #.oX~.Y.g lXlXD.v.u.7 3 2.t.u.x.b.Z.k.f.z.y.y.y.k.k.k.k.l.C.C.N.b.x.m.Z.d.:.:.4.t.0 q 1 ,.0.e.0 0 0 q 5 ^.T !.!..XoX<X%X",
"| | %./.#X9XY.'.e G.kXB.x.u.w =XG 2.4.8.x.M.S.m.u.r.5.5.t.c.z.z.y.q.r.x.x.C.C.M.0.4.:.:.t q q 1 5.D.G.N.N.h.u.3.!.T !.-X.X/.!.!.",
"K U J G J (.I.} L 2.B.z.u.t.w #X6X5Xw :.u.b.C.5.r.m.Z.1.6.u.z.c.3.:.:.u.c.v.m.v.t.t.:.>.0 q L 1 5.x.kXzXzXdXaX3.#XI E U K J W.J ",
"W.eX1X<X%X=XXXoX}.9 1.3.q.t.r *X#X:X^.g 0.t.1.6.z.f.l.A.0.t.z.9.:.8.M.Z.k.y.d.<.t.w.:.0 q A ].@.r d.J.lXgXgXkX3.$XT.~.Q.~.| =XR ",
"{ 2X.X$X%X%XXX.X0XL.t.>.0 >.7 #X/.#X>X~.w t :.:.w.d.x.B.e.w.u.4.:.x.x.x.A.4.:.1.3.w 4 4 G [ ]. Xt 6.b.m.H.sXkX3.&XT.:XXX|.].!.L ",
"{ .X.X!.[.$.=.<XuXL.y.q.0 0 0 9 -X#X$X=X-XP.1 7 :.<.z.z.r.:.t.t.t.t.t.t.t.1.:.4 3 1 *XeXE.+.].].t 6.e.x.m.kXv.8.&XR. X>XXXXX$XL ",
"| $.=..X$.=.$.$.#Xq r e.t.3.>.0 P.$X#X.X/.*X$X/.G x u e t :.:.<.q.:.:.:.e r w x #X#X XwXE.T.].[ 5 >.e.B.kXD.x.5.).T.Q.|.OXoX$XL ",
"} .XoX/.#.( %.(._.q 1.s.n.w.w.>.P.>X*X#X-X/.1X=XwXM d p 6 2 1.1.1.4 4 4 X .   _.&X+X^.=XT.( P o < # - V.b.i.t.3.^.Y.$X|.}.|.{.L ",
"| !./.oXW.=X9XyX6XX + O $ * t 6.u Q.).T.o.| %.!.%X> < @ @ @ 5 2 2 X o           +X X X-X] P > m H Q Q v r.5.0 A +X] Q.|.}.|.XX} ",
"{ 9XeX9X#X%.%.Q.| O < n m m v * @ #X%XW.W.Q.(.o.B 6 * : + o % % % O   O o o     K ^.^.>XL > m S @.` Q Q * 6 4 x R.R U T I ~ Q.L ",
"K #.oX$.`.9X0X9X+ % a m W S m > + .XeX1X%X;XoXo.1.3.. @ % o o @   o @ O   q 0 0   T. X| > m S Q &.&.Q V < * 3 >X:X1XXX-.;.&.-.U ",
"U W.%.!.-X5XyXyXo ; a C Q W N a + %X<X.XW.Q.R 7.y.0.e + # @         +   2.e.w w t f 3 + n S Q &./ S n s a $ T.O.].[.+.X.X.X.-.J ",
"R -X`.-X9X<X9XyXo ; a C Q H v > O <X1X.X(.I.b.M.c.t.4.2 + & O     o # 8 w.w 1 t 3.d.d.g $ Q Q Q V m s > & L ).+.` -. .....X.-.J ",
"I.iX9XqX0XyXyXqXo ; < C Q S s a O .X$XW.#.9.C.C.m.z.e.0 o @ @     + * w d.3 w f f 5.f.x.u.p S m n a < > & 4X7X~.~ _ &.&._ X.-.J ",
"L qXtXqXqXqX6X%.F * < V V m v * + !..XT A m.C.B.x.u.0.0   ; @     * a 4 s.1 u.J.K.B.M.N.N.u.p j s a > @ k uX0X}.` ) +.` ..X.{.U ",
"K 5XtXtXqXqX-X'.R.& : + . # . - + /.`.c x.x.f.d.0.5.5.0 o ; @ +   * % 7 d.3 3 H.kXF.C.C.C.z.3.  a $ $ * 5XuXuX).^ ^ +.^ ^ ^ @.{ ",
"_ [.-X=X3X1XeXqXuXL.9 y A.C.g.4.X P.&X8.x.f.9.v.N.r.2.0 o > > O o & % w s.1.4.s.kXF.C.C.C.s.3.  $ O j [ 6X5X6X6X+...5X+X5X+XX.~ ",
"{ $XXX2X#X2X`./._.g 5.Z.C.C.n.3.1 1 g c.z.r.s.v.u.4.0 4 o @ > o   * * w d.x.7.7 7.G.C.C.m.s.3.  o   [.] 5X5X6X0X-X{.5X&X5X^.X.F ",
"~ XXXX<X-X2X-X(.T.f x.Z.e f D.u.4 3 t t.t.e.s.u.4.0 z &XZ B ; +   < 5 y.x.x.8.<.h.lXlXf.s.s.1.. Y }.>XY /.+X0X8X7X$X0X0X0X6X=.F ",
"~ XX.X<X1X2X#X).'.:.x.c.5.f K.G.3 3 t.t.5.w.q.2.0 9 (.*XG B * o   a 5 t.s.z.d.1.4 h.kXn.t.w P.R.^.+X>X] T.$.:XtXyX0XuXuX8X6X#XF ",
"( $X+X}.{.|.o.~.R.f s.3 4 1 3.0.1 1 5.6.6.6.6.0 4 Q./.&X-X-X5XE.  a 5 q.t.b.d.5.r.4 f.7.8 +X X}.}.O.{.U ).o.*.$X6X5X5X6X.X*X5XJ ",
"F o.W.[ { $.F [ &XG 0.u.t.3 3 3 t 4 6.,.0 :.0 q A Y.} Y } Y.'.L B M B 1.w.t.w.5.t 8.e 3 ^. X}.R.$.].{.K W.^.| { ^.Y.E.Y.T K [ F ",
"/.yXtX%X@.OXU Y R.^.4 4 7 7 3.3 4 3 t 5.<.0 3 1 }.#X_.`.!.oXwXrX.X%.O.3 2.t.w.6.r 5.0 q *X*X^.}.R.O.OX.XQ.{.oX{.;X=X4X).6X8X7X6X",
"tXyX8X7X*X;X4XY T.^.%X_.x x x A Q.i 5 6 6 5 o o [..X!..XoXoX$.#.oXoXoXoXh 1.1.0 q 2 2 X R.,X*X+X}.*.{.R.+X+.X.*.|.=. X}.@.>XeX:X",
"7X0XtXtX&X;X4X[ W./.Q.T.[.+._ _ ~ , @ @ $ @ @ @ X.=.%.$.=.%.=.%.$.oX!.oX/.`.. 6 X   O O B +X@X X}. X|._.5X&X+.X.;.X.^.,X Xo. X7X",
" X@X7X8XtXeX4XE./. X).T.%.Q.o.( ~ M * a a % @ % o [.Q.oX!.%.3X!..XoXoX`.#X2X= % * @ % % % M *X+X X X{.~.6X7X X) X.@.+X:X*X*X@X X",
" X].7XuXuXbXMX] +X#X+X^.Q.| o.o.~ ~ # a a : ; & o oXo.[.=..XoX-X/.<XoX%X<XrXR < < : ; ; & $ ^.$X@X+X X&XuXtX&X/ ` )  .].{.@X,X:X",
"wXR.].*X8XbX8XL ] Y.} } Y.I U L F J K = n a > ; + l } .X=..X.X3X%X#X.X%X-XrXE E * m n a > @ & ] Y.E.T } 6X6XR.K ^ K ^ ` @.-.,X@X",
"7XwX@X{.7XbXbX X%X=XXX$X#X] | Y.Y K o.< m m v a = - { ;.oX(.=..X<X1X-X<X<X2X(.%.T j m b s > O L L P Y E.I.E.R Y E B ) ` / @.]. X",
">X X@X]. XbX4X+.[. X{.R.2XyXuXiXuX9X*.%X; m m a , , T %..X.X-X.X`..X9X`.-X<X'.#.+.+.* m m a * = 1XrXwXrXrXwXrXrXyXI.^ ` @.` @.{.",
"@.,X*X,X,X7X_.R.].]. X>X>X^.&X}.%X@X[..X}.> n > < , E =..X3X3X.XoX<X<X<X<X9XT %.%./.+.; m > * & /.#X-X:X5X-X=X<XeX'.K ` ` +.@.@.",
"O.{.>X*X:X>Xo.+.O.O. X,X:XR.Q.O.].{.}.#XF > v < < , I %.oX.XoX-X.X(.3X9X9X0XY.%.^.Q._ * j s & = +X+X.XwX9X&X#X=XwX'.^ ` ` ` @.@.",
"]. X|.@X>X:XR.O.|. X]. X7X+.O. XO.].].Z s W W b < % U !.(..X<X%X9X`.-X3X`.<XY.(.&X X..j W b * = #X.X#X-X-X<X&X&X0X).K ` @...+.@.",
"+./ O.O. X*X[ Y. X XR.+X5XR. X=X&X X{ ; v v a : & @ J W.%.'.%..X-X(.`.(.(.<XE '.)._.* v < : & = -X-X#X=X).=X5X-X9X(.J ~ @.@.O.+.",
"B l l l B L K U R [ [ ] ] +XtX5XwX@XR.% * * * % +   U `.'.%.} T E E G l l E J E P.B * * ; @ % = /.-X9X-X-X<X9XwXwX(.l B B l B D "
};
