/* XPM */
static char *result[] = {
/* columns rows colors chars-per-pixel */
"64 64 212 2 ",
"   c #776746",
".  c #78704F",
"X  c #7C7351",
"o  c #806F4C",
"O  c #8B784E",
"+  c #897753",
"@  c #8B7956",
"#  c #917D58",
"$  c #9B854F",
"%  c #97855D",
"&  c #9A865C",
"*  c #9E8957",
"=  c #A38C5D",
"-  c #A48B56",
";  c #A9935D",
":  c #B99B5F",
">  c #8D8265",
",  c #998660",
"<  c #9C8C6A",
"1  c #978B63",
"2  c #A59364",
"3  c #A99464",
"4  c #A7936A",
"5  c #AC9C6C",
"6  c #AA996A",
"7  c #B39C65",
"8  c #BB9D61",
"9  c #B49D6B",
"0  c #A69971",
"q  c #AC9D72",
"w  c #B29E72",
"e  c #BCA265",
"r  c #B5A26D",
"t  c #BBA56D",
"y  c #BFA96C",
"u  c #B4A066",
"i  c #AEA273",
"p  c #B5A373",
"a  c #BBA674",
"s  c #BDAA74",
"d  c #BCAB7B",
"f  c #B5A779",
"g  c #BCB17C",
"h  c #C3A464",
"j  c #C7AB67",
"k  c #CBAC66",
"l  c #C1A76A",
"z  c #C5AB6A",
"x  c #CBAD6B",
"c  c #C8A664",
"v  c #D1AF6C",
"b  c #CDB16D",
"n  c #CBB06B",
"m  c #D3B36C",
"M  c #DAB46D",
"N  c #D6B96E",
"B  c #DCBC6F",
"V  c #D3B367",
"C  c #C3AC75",
"Z  c #CAAD71",
"A  c #C2AD7B",
"S  c #C2A770",
"D  c #C5B175",
"F  c #CCB474",
"G  c #C4B37C",
"H  c #CBB57C",
"J  c #CEBA7C",
"K  c #CBB978",
"L  c #D3B573",
"P  c #D9B771",
"I  c #D6BA73",
"U  c #DBBC74",
"Y  c #D3B67B",
"T  c #D4BB7C",
"R  c #DBBD7B",
"E  c #E1BD75",
"W  c #E2BF78",
"Q  c #DCC176",
"!  c #D6C17C",
"~  c #DCC27C",
"^  c #DEC87E",
"/  c #E3C475",
"(  c #E2C47B",
")  c #E4C97D",
"_  c #EACC7E",
"`  c #E9C977",
"'  c #F1D17E",
"]  c #333790",
"[  c #5633A8",
"{  c #326DD9",
"}  c #27ABFA",
"|  c #79C8FA",
" . c #BBAE81",
".. c #B6AB81",
"X. c #BFB387",
"o. c #BEB489",
"O. c #C0AE82",
"+. c #C4B483",
"@. c #CAB582",
"#. c #C5BA83",
"$. c #CCBB82",
"%. c #C4BA8B",
"&. c #CEBD8B",
"*. c #D3BD83",
"=. c #DBBE82",
"-. c #D3BF8B",
";. c #CBBF92",
":. c #CBC18B",
">. c #CFC487",
",. c #D5C285",
"<. c #DCC483",
"1. c #DEC984",
"2. c #D5C38B",
"3. c #DBC58A",
"4. c #D6CB8E",
"5. c #DDCA8C",
"6. c #D4C592",
"7. c #D5C993",
"8. c #DDCB93",
"9. c #DCCC9A",
"0. c #D8C896",
"q. c #DED093",
"w. c #DCD19C",
"e. c #D2CA8E",
"r. c #E3C584",
"t. c #E8C785",
"y. c #E4CB84",
"u. c #EACB84",
"i. c #E2C68A",
"p. c #E3CC8B",
"a. c #EACD8B",
"s. c #E6D185",
"d. c #EBD185",
"f. c #E5D18C",
"g. c #EBD38C",
"h. c #ECD98D",
"j. c #E8D98A",
"k. c #F2D383",
"l. c #F1D984",
"z. c #F2D58C",
"x. c #F4DC8D",
"c. c #F8D98F",
"v. c #E3CD92",
"b. c #E9CE92",
"n. c #E0CF9B",
"m. c #F1CF93",
"M. c #E5D393",
"N. c #EBD493",
"B. c #E7D995",
"V. c #ECDA94",
"C. c #E4D49A",
"Z. c #ECD59A",
"A. c #E6D99B",
"S. c #ECDB9B",
"D. c #F1D593",
"F. c #F2DB94",
"G. c #F2D799",
"H. c #F2DC9B",
"J. c #F8DB97",
"K. c #F4E18E",
"L. c #EEE19C",
"P. c #EFE096",
"I. c #F4E395",
"U. c #F3E39C",
"Y. c #F9E49B",
"T. c #F4EA9C",
"R. c #FAEB9E",
"E. c #FAE396",
"W. c #D5CBA3",
"Q. c #DBCFA6",
"!. c #DCD2A3",
"~. c #DDD3AA",
"^. c #DFD9BB",
"/. c #E5D5A3",
"(. c #E5DAA4",
"). c #EBDCA3",
"_. c #E4DCAA",
"`. c #EBDEAA",
"'. c #F2DEA2",
"]. c #F1DFAC",
"[. c #EADEB2",
"{. c #E0D7B4",
"}. c #EEE2A4",
"|. c #EDE3AC",
" X c #E7E0AD",
".X c #F3E4A3",
"XX c #F5E9A4",
"oX c #F8EAA4",
"OX c #F2E5AD",
"+X c #F4EAAC",
"@X c #F9EDAA",
"#X c #FAF2AB",
"$X c #F7F1AB",
"%X c #EDE5B4",
"&X c #EBE6BD",
"*X c #E6E0B3",
"=X c #F2E5B2",
"-X c #F3EBB3",
";X c #F5EDBB",
":X c #F9EBB3",
">X c #F7F1B3",
",X c #FAF2B4",
"<X c #F9F3BD",
"1X c #FBF6B6",
"2X c #DAD4C2",
"3X c #EFE7C0",
"4X c #F7F2C5",
"5X c #F9F1C1",
"6X c #F7F2CA",
"7X c #FAF6D2",
"8X c #F0E7C4",
"9X c #E7F3F3",
/* pixels */
"@.:Xb.p.3.p.M.Y.#X#X#X1XB.:.).`.'.g.a.G.Z.H.J.b.J.oXh.x.T.Y.@X%X6..X'..X-.i.m.J.J.G.t.k.h s V..X+XC.B.U.2.q.q.Z.@X+X=.m.a.W =.i.",
"= ( y.y.h.j.s.h.V.h.h.I.s.:.N.g.r.r.p.V.G.b.b.V.H.S.T y.r.U _ p.d =.t.a.D.a.b.t.t.t.a.k.F A 8.B.C.V.C..XL.}.A.B.+Xw.P M M M W E.",
"# m Q B Q 1.! ! y.^ y.K.f.C R _ ( p.p.a.a.N.p.a.Y.g.R Q u.( y.p.G V.b.i.i.a.a.=.=.r.r.D.T $.v.B.S.M.v.M.C.).S.A.A.:./ M M M E c.",
"# Q ~ / ^ s.^ s.j.f.y.d.s.7 x L ( r.~ N.N.V.b.i.a.p.T y.g.a.y.f.a i.t.b.t.t.t.a.r.t.t.J.i.$.M.C.A.B.M.q.4.V.S.L.L.8.x M M M B x.",
"& Q Q N Q _ _ s.f.U.f._ d.G M.C.T ( i.p.f.p.v.p.V.<.D g.a.F.f.M.A t.i.t.t.t.t.r.r.r.t.H.M.#.p.B.M.M.M.B.q.M.M.S.}.2.v M M E v k.",
"$ N ) ) Q N Q ^ 1.I.f.^ _ G 2.3.Y x l a a s p p *.5.7 K K R 3.,.a a.m.=.r.=.t.r.a.=.t.b.M.G 2.q.2.2.f.4.,.T 1.,.,.d =.L M E W z.",
"* Q Q Q ^ Q ^ Q Q y.S.F.I.S.V.F.g.k.Y.<.~ F.oX@X@XJ.g.3.<.5.L.}.a =.r.t.r.t.t.t.t.m.i.F..X5.5.f.S.4.<.g f s g G 2.G C a a 9 a 9 ",
"O N N ^ Q N Q Q I _ T.L.j.3.p.p.p.g.U.M.y.u.d.z.g.F.p.v.h.F.E.}.a r.t.t.t.=.W t.r.a.a.G.H.R ( ) 1./ l.1.A.}.V.V.L.+XM.V.U..X@XJ.",
"X Q N Q Q Q V B Q Q j.I.B.3.3.<.<.p.N.<.<.y.y.f.g.V.N.1.1.) _ h.A i.=.r.=.t.t.t.t.a.m.m.i.r.B U / Q / Q -.V.B.3.1.H.).N.N.8.V.Y.",
"+ n N Q Q Q b N Q ^ s.P.B.y.y.3.I r.z.<.p.v.p.p.x.! ) ) N N B / 9 t.t.m.t.t.m.t.=.a.G.G.4.y./ / / / ` n <.5.v.N.5.p.B.N.Z.Z.Z.#X",
"% b Q Q V V N N N Q ) P.,.F U ! L N u.D f.V.V.g.p.M.~ y.! U B Q 9 =.r.r.t.a.b.a.b.v.b.'.8.g.u.` / Q / V <.<.v.p.<.p.3.5.N.S.}.1X",
"% y n b n n F z j j F ^ K +.F ,.b V ( S M.p.g.N.F.V.y.u.~ ( ` ( 9 Y Y =.Y =.b.b.i.i.=.m.3.1.^ ( / B / F v.<.y.N.r.g.C.5.i.Z.V.#X",
"5 Q Q Q ! ,.D r D D G H K o.6.7.e h L 7 v.f.g.g.F.p.N.g.y.y.Q d.@.t.i.1.=.T 9 A O.a A @.@.Y T ! Q z V r v.i.! y.5.T N.B.3.! N.oX",
"2 w.(.A.|.+XH.g.F.I.I.F.x.F.F.F.x.F.x.C 5.V.p.i.V.V.p.f.y.g.z.u.P m.y.g.y.F.v.n.'.b.i.G.H.F.V.V.g.y.I u :.p.<.U y.y.I r.p.C.p.g.",
"> %X|.|.%X%X[.=.k.u.a.p.<.y.p.g.g.N.XX$.p.B.C.N.U.S.N.g.1.f.1.s.Z ( r.a.p.N.i.*.t.t.Y R R R R r.).S.N.s 2.v.p.<.Q r.~ L y.p.V.C.",
"> %X-X%X%X;X{.l _ y.u.u.y.r.a.D.G.g.$X$.q..XV.g.V.F.V.S.f.V.g.f.Y =.r.N.G.V.<.x Y =.t.t.t.3.t.=.W a.V.X.M.3.f.3.<.R <.x V U M.&X",
"< |.|.|.%X;X~.j E ( u.u.N.a.g.a.a.p.Y.D 2.V.V.M.V.S.V.H.M.y.g.p.T u.r.p.Z.H.*.=.Y =.i.=.i.i.i.i.i.D.Z.d v.f.V.p.3.<.g.T F m ! Y.",
"+ *.A.(.%X*X~.h P U t.z.p.a.D.G.N.t.x.2.$.q.M.M.V.v.p.p.f.f.g.5.Z a.p.p.D.m.@.i.=.=.m.v.i.b.v.0.=.Z.G.w p.5.p.C.8.p.p.i.=.K ! y.",
", s H &.6._. .l p.( a.U.).,.a.a.u.( z.( :.q.4.p.V.+.G H J J ,.,.6 Z *.*.*.p.w r.i.v.v.m.n.m.G.m.v.N..Xp ,.3.H T G y u s 9 y T M.",
"g.M.y.) F.:XW.S r.<.p.p.S.Z.u.r._ ( ' R M.A.B.| | | | 9X9X9X9X9X9X9X9X9X9X9X9X9X9Xb.i.n.m.0.n.b.Z.'.'.*.<.p.5.i.N.T F y.y.F.T.R.",
"1.p.1.y.N.;XW.C y.Z.N.H.H.G.r.r.R Q u.H l x | [ [ { { | 9X} } | | | | | | | 9X9X9X9Xn.b.b.Z.b.i.i.G.Z.=.u.R r.r._ U 1.) y.g.N.F.",
"~ g.y.B.f.l.4.C p.H.b.a.N.g.y.t.r.i.Z.l e } [ [ { { | | 9X} } | | | | | | | | 9X9X9X9X].0.b.v.b.3.v.Z.*.U P L W u.L ! g.h.Q Q ` ",
"Q Q ^ ) y.K.4.C a.N.N.G.M.t.y.r.N.V.+XH | [ [ { { { | | 9X} } | | | | | | | | 9X9X9X9X9XZ.Z.).m.v.Z./.=.v P T r.a.H ! ^ y.^ ! ) ",
"s.p.f.y.f.I.4.r R p.g.N.Z.p.N.a.a.a.d.| [ [ { { { { | | 9X} } | | | | | | | | | 9X9X9X9X9X)././.v.Z.v.-.=.P r.=.a.D ^ ) y.f.^ ~ ",
"y.s.g.f.g.I.q.% 3 2 6 d G A r 3 % = | | | } } } } 9X9X9X9X9X9X9X9X9X9X9X9X9X9X9X9X9X9X9X9X9X3.-.-.b.v.-.G.r.r.=.t.a N ) ) d.1.~ ",
"f.1.f.f.( ' h.5.-XXXS..X}.3.S.C.3.3.| [ [ { { { { { | | 9X{ } } } } } } } } | | | 9X9X9X9X9X< < # w ..f @.A 9 a A % N Q / ( f.y.",
"x.V.g.y./ V.4.2.Z.C.C.n.-Xv.N.M.S.T.} [ [ { { { { { | | 9X{ } } } } } } } } | | | 9X9X9X9X9Xi.r.i.b.).-.=.v.-.0.`.2 V P Q y.f.1.",
"g.g.h.) / / ! +.Z.C.3.3.XX$.V.v.3.N.} [ [ { { { { { | | 9X{ } } } } } } } } | | | 9X9X9X9X9Xt.L M W r.0.9.v.a.'.8Xp ( ! g.y.V.>.",
"y.~ ~ Q Q d.2.&.9.v.v.3.N.*.S.B.C.N.} [ [ { { { { { | | 9X{ } } } } } } } } | | | 9X9X9X9X9Xi.R Z v E t.H.b.a.'.`.f ~ 1.^ j.V.M.",
"p.~ Q N N h.2.#.9.v.v.C.Z.,.H.B.f.N.| [ [ { { { { { | | 9X{ } } } } } } } } | | | 9X9X9X9X9Xm.t.=.R W Z W E U t.g.g 1.1.f.B.V.V.",
"J L ! q.B.+X#.&.v.8.8.v.G.*.N.V.V.M.| | | | } } } } 9X9X9X9X9X9X| | | | | | 9X9X9X9X9X9X9X9Xr.r.Y W t.=.=.r.=.r.g.s 1.B.f.y.1.y.",
"7 i 2 1 2 4.#.+.$.@.H H A $.N.M.B..X4.} [ [ [ [ [ [ [ [ 9X} } } } } } } } } } } } 9X} } 9XZ R =.W P t.t.( y.p.y.V.p s u 5 6 :.5 ",
",.oXT.L.I.S.f.g.y.F ,.y.T $.B.V.M.H.V.] } [ [ { { { { [ | [ { { { { { { { } } } } 9X} } 9X*.r.R u.=.=.a.r.t.b.b.H.-.2.<.2.G S.f ",
"F U.M.g.V.V.g.f.}.-X}.;XH J M.M.5.M.V.N.] { [ [ { { { { } [ [ { { { { { { } } } 9X} } 9X .Z ( r.b.t.i.m.b.v.b.b.'.*.H.g.a.r.y.0 ",
"D f.j.1.y.~ / L.<X=X+X5X!.$.H.L.A.M.N.S.B.] { [ [ { { { [ 9X[ { { { { { } } } 9X} } | .X+.T =.p.u.N.p.i.b.Z.b.H.H.2.r.D.z.a.N.0 ",
"J ! y.s.~ ~ 1.! S.|.}.-X_.G M.L.S.M.M.f.p.V.] { [ { { { { | [ { { { { { } } | } } 9Xi.+X@.Y r.r.r.a.Z.Z.v.b.Z.b.V.*.3.a.z.g.F.q ",
"D y.V.y.! m ! q.M.}.1.g.s.g 1.5.g.H.Z.M.B.5.U.] { [ { { { } [ [ { { { } } } 9X} 9Xv.2.B.-.Z t.i.i.b.p.v.'.v.b.b.N.@.N.g.p.a.a.5 ",
"K 5.f.f.,.S.L.-X|.1.1.j.j.s :.,.,.<.5.,.$.K ! i.] { [ { { [ 9X[ { { { } } 9X} 9XM.5.p.V.G S T i.i.i.v.v.Z.n.v.v.v.C <.g.u.a.N.d ",
"D }.+X}.q.! ! ^ ~ ! i.1.s.s.B.y.h.V.V.,.,.~ 4.T y.] { [ { { 9X[ { { } } 9X} | p.<.1.1.V.p.3.N.a.N.C.@.9 4 p  .+.-.p r a a Z <.9 ",
"u Q y.^ M.}.|. X>X|.|.<X!.! Q ^ p.f.+XT.L.I.d.u.U ` ] { [ { | [ { { } | } 9X<.v.N.M.i.V.i.u.z.k.g.k.@Xt.=.r.F.z.H.U.d._ u.` ` u ",
"u ,.~ 1.C.A.1X>X>X;X%X1XA.B.<.^ V.V.L.5.2.3.<.i.T n m ] { [ } [ { } } 9X9X3.i.p.p.v.! p.*.r.u.g.D.p..X,.r.5.*.( r._ T U U Q _ 7 ",
"d S.B.A. XS.}.%X-X+XL.}.5.f.f.5.j.U.L.f.5.f.p.f.1.<.L D ] { [ 9X[ } 9X| p.p.f.i.p.p.<.y.T u.p.u.g.u.l.2.n.).0.L U ( I M M P u.2 ",
"o.>X|. X|.+X%X|.(.f.s.d.! q.5.s.g.f.h.,.T 3.,.<.! p.y.3.<.] { } [ | { <.,.y.p.i.<.g.p.a.y ( a.a.( z.oX).5.=X|.,.v v / E N P ` 2 ",
"0 (.%X X X X}.,.H z z Q z ! 1.~ ! p.f.C *.<.,.! T r.T R y.<.] { 9X{ b T F <.T H *.H H ,.a Y ( a.R ( S.w.=X;X|.p.N k P N P I _ a ",
"u A.&X*X X|.!.! 6.7.7.5.Q F ! 3.K 1.M.s ,.5.*.,.! R ! D <.! p.] { U R R I T C a G 3.W.!.9.2.T r.R L C.6.).;X;X8.k k L j h h / F ",
"I r.V.H.h.oX$X X%X=XM./ d.S.-X=XV.V.+Xp T p.y.<.T <.5.T p.M.5.S.T g.( U _ u.R '..XH..X;X`.g.u.a.g.F.4.d /.`.).(.T P ).v.}.v.U D ",
"F N.g.U.N.U.C.4.9.9.,.m V M..X;X|.`.6X..Y y.<.T y.3.f.3.3.p.}.q.$.R =.L b Q e M W R i.i.n.*.L P P u.a.A ).`._.|.A.r.).C.A.3.U - ",
"x g.V.V.N.T.B.4.4.*.L N j m ,.S./.|.6X+.K ! <.<.,.,.p.v.v.8.S.w.H Q T L L N l T R R L R b.C.=.<.*.p.V.C r.v.|._.OXb.|.|.|.].y.; ",
"x g.f.L.U.T.M.0.v.=.x x x j x Q <.M.5X+.J i.r.p.3.,.1.Z.C.C.A.w.S m U U b L x R r.r.R =.r.p.b.N.2.p.G.A =.! '.=X=X|.,X=X_.|.p.= ",
"b N.p.p.y.a.T 3.0.H K L b L F L L T V.s D <.~ <.g.2.5.B.C.S.).9.C h v P L R Z T i.v.i.3.=.a.p.i.p.=._ r 5.=.~ N./.|.`.).v.Z..X4 ",
"; *.,.D F Q ; a C.C.,.R H ! 3.5.M.v.S.G r y D D *.H A a g G 2.g 3 ; h e 8 8 7 <.3.v.v.v.3.i.a.T ~ ( u.7 ,.3.H L 2.;.%.+.y 7 Z = ",
"5.+X-XC.( z.y s T i.<.K 6.<.3.5.v.p..Xp.f.U.N.F.V.w.5.w.s.h.+X+Xf.Q Q I I T 3 3.Z.v.b.V.H.Z.4.p.<.R z.N.! u.d.u.I.S.W.3./.%X]./.",
"=X=X[.[.b.x.W.a =.1.V.C.v.J <.,.r.g.i.F R Q Q / k.g.1.f.h.j.^ Q d.j.d.h.f.XX5 $.p.b.3.i.i.N.Z.p.t.<.r.=.C.T U ( k.r.i.y.( N.OXH.",
"].=X%X%XC.H.Q.d ,.i.3.,.<.T F L x U N h I I L L Q y.! <.^ ^ s.Q ^ s.y.j.f.I.5 7.C.b.b.p.3.b.a.i.v.t.a.3.).9.L U u.U 3.Z.i.=.t.'.",
"r.a.[.=X=X'.W.+.5.5.p.$.T <.R x x ! R 8 ^ ~ F L ) ) <.s.^ ^ h.1.f.h.f.f.V.T.i 8.Z.b.Z.v.v.v.Z.v.p.r.a.3.).|.3.V B E v.G.S.G.b.i.",
"i.r.H.=X;X7X2XA 5.C.v.3.,.Y T T x b ! y <.y.y.! ! h.I s.1.s.h.M.5.V.V.V.S.@X .*.C.n.Z.C.v.b.G.Z.v.v.i.n.;X=XC.v M k P r.a.a.b.'.",
"'.<.t.G.[.7X{.w d @.G G @.p t 5 ; 7 l 3 K a T H D ! D s.1.f.s.P.B.f.B.B.B.oXg i +.d d @.A A A A @.+.d +._._.2.8 h 7 c P E _ a.b.",
"'.].v.u.).6X8Xi.V.L.M.N.q.G H @.w 9 ^ x ,.%.d w p & D s.j.f.y.f.L.XXq.P.P.oX4.! C 3 %  .@.O.f p 5 4 a +.O. .d a p # m P v E t.i.",
"D.t.b.=.t.5XW.@.i.y.a.R Y.:X;X,X:X`.( H.p.Y.+XoXU.^ s ! s.f.j.q.5.q.XXq.V.B.>.! I T b N..XS.XXU..X@XXX+X>X.X@X#X>Xo.h M E M W t.",
"W Z.Z.Z.m..X3.=.r.r.t.G.G.2.Z.p.V.g.r.f.p.N.g.a.F.y.z 1.j.h.P.M.j.L.P.L.L.}.#.T ! p.L / a.=.N.p.5.C.V.S.).S.S.).+X:.: M M M W ( ",
"R a.Z.G.J.G.T Y R =.r.b.J.*.<.R r.a.p.g.a.a.p.r.g.<.D <.j.1.f.P.f.4.P.T.}.|.o.! 5.<.V Q p.$.S.S.p.f.M..X).A.M.B.+X&.c P M P P W ",
"W t.a.b.G.H.*.=.a.i.t.i..XY R <.R r.r.y.N.y.N.r.x.C.K 1.s.f.L.V.T.q.B.P.q.L.:.q.C.5.I U d.K C.B.v.M.M.V.A.L.C.B.OX0.8 P E P P W ",
"R Y R Y v.Z.S Y a.i.=.v.).*.i.S.C.r.( ~ r.D.N.p.I.B.s ,.! >.,.B.q.4.4.5.4.w.i ^ w.M.I U P J B.}.A.B.C.A.q.S.).A.).4.7 v E R Y R ",
"+       o w 9 w S d d Z A 9.:X`.'.V.p.p.i.a.M.i.I.L.,.q.>.! g G i i 1 X . g 5 i ..f : y e H 5.M.5.A.L.A.S.S.}..X.X4.  + o   O = "
};
