/* XPM */
static char *result[] = {
/* columns rows colors chars-per-pixel */
"64 64 243 2 ",
"   c #3F102A",
".  c #2A113B",
"X  c #381436",
"o  c #44142B",
"O  c #4A192D",
"+  c #511D2E",
"@  c #481C33",
"#  c #511D31",
"$  c #55212F",
"%  c #5A2433",
"&  c #572433",
"*  c #562E39",
"=  c #642B39",
"-  c #662C38",
";  c #6D313D",
":  c #643039",
">  c #71353E",
",  c #13134F",
"<  c #1E154A",
"1  c #181857",
"2  c #281543",
"3  c #331A48",
"4  c #332955",
"5  c #291B6D",
"6  c #241865",
"7  c #2A1E70",
"8  c #1C2766",
"9  c #1F3C73",
"0  c #292A75",
"q  c #263779",
"w  c #2C326F",
"e  c #1A215F",
"r  c #48395A",
"t  c #552D47",
"y  c #723540",
"u  c #793B43",
"i  c #673E53",
"p  c #274579",
"a  c #394171",
"s  c #4B455D",
"d  c #794846",
"f  c #6C5357",
"g  c #776649",
"h  c #5A5365",
"j  c #4D4C67",
"k  c #6A5B64",
"l  c #786C68",
"z  c #6E6C72",
"x  c #546679",
"c  c #803F46",
"v  c #884649",
"b  c #9D5552",
"n  c #8E524C",
"m  c #A35D55",
"M  c #8D7154",
"N  c #B2735C",
"B  c #AB6B5A",
"V  c #89776C",
"C  c #BB7F63",
"Z  c #7B807E",
"A  c #9B8658",
"S  c #A48A5D",
"D  c #B3945F",
"F  c #95876C",
"G  c #BE8363",
"H  c #A99668",
"J  c #B59C68",
"K  c #AA9A72",
"L  c #B29D73",
"P  c #A4896D",
"I  c #B9A46B",
"U  c #B5A374",
"Y  c #BAA574",
"T  c #BDAA73",
"R  c #BCAB7B",
"E  c #B6A67A",
"W  c #AFA074",
"Q  c #C48967",
"!  c #CA916A",
"~  c #C79767",
"^  c #D09D6B",
"/  c #CBAD6A",
"(  c #C4A867",
")  c #D5A96D",
"_  c #CDB16D",
"`  c #CBB06B",
"'  c #D3B46C",
"]  c #DAB46D",
"[  c #D8BA6E",
"{  c #C3AE7C",
"}  c #C4AB74",
"|  c #CDB474",
" . c #C4B37C",
".. c #CCB57C",
"X. c #CAB779",
"o. c #D3B573",
"O. c #D6BA73",
"+. c #DBBD73",
"@. c #D4BB7C",
"#. c #DBBD7B",
"$. c #D4B678",
"%. c #E2BE75",
"&. c #DCC176",
"*. c #DCC27C",
"=. c #D7C17B",
"-. c #E3C474",
";. c #E2C57B",
":. c #E5C97D",
">. c #E9CA7B",
",. c #F1D17E",
"<. c #293E84",
"1. c #293881",
"2. c #303B8B",
"3. c #2D4B8D",
"4. c #2A4588",
"5. c #2E4C93",
"6. c #314D97",
"7. c #33599B",
"8. c #345498",
"9. c #304F8F",
"0. c #34639C",
"q. c #306595",
"w. c #365CA4",
"e. c #3659A4",
"r. c #3962AC",
"t. c #3766A6",
"y. c #3775A8",
"u. c #3B66B3",
"i. c #3C6CB4",
"p. c #3B71B6",
"a. c #3A7BB8",
"s. c #417AB7",
"d. c #496FA3",
"f. c #526894",
"g. c #3986BA",
"h. c #3B8FB9",
"j. c #4887BA",
"k. c #4DAABC",
"l. c #7195A7",
"z. c #76D8AF",
"x. c #70D3B3",
"c. c #3B94C1",
"v. c #3B9AC4",
"b. c #3B8EC0",
"n. c #3FA0C7",
"m. c #469BC6",
"M. c #4C8FC3",
"N. c #47A7C9",
"B. c #55ACCD",
"V. c #4EB6D1",
"C. c #56B9D2",
"Z. c #51B5CD",
"A. c #6CB6CC",
"S. c #5BCCDB",
"D. c #57C4D7",
"F. c #5BC4CA",
"G. c #6AD3C2",
"H. c #64C9D8",
"J. c #77D4DB",
"K. c #6DCDD6",
"L. c #78DBE2",
"P. c #7FE1E4",
"I. c #B9AB82",
"U. c #BEB388",
"Y. c #BCB498",
"T. c #929AA5",
"R. c #8F9690",
"E. c #C4B583",
"W. c #CDBC83",
"Q. c #C9B786",
"!. c #D3BD83",
"~. c #D9BD84",
"^. c #C4AF85",
"/. c #ACCCAF",
"(. c #D5C284",
"). c #DCC483",
"_. c #DEC985",
"`. c #D4C38A",
"'. c #DCC58A",
"]. c #DDCA8C",
"[. c #D6CA8E",
"{. c #DDCC92",
"}. c #D6C894",
"|. c #DDD194",
" X c #CFC58D",
".X c #E3C484",
"XX c #E4CB84",
"oX c #EACB85",
"OX c #E2C68A",
"+X c #E3CC8C",
"@X c #EACD8B",
"#X c #E8C685",
"$X c #E5D18C",
"%X c #EBD38D",
"&X c #EAD588",
"*X c #F3D789",
"=X c #E3CE92",
"-X c #E8CF93",
";X c #E5D393",
":X c #EBD493",
">X c #ECDA94",
",X c #E4D49A",
"<X c #EBD599",
"1X c #EBDB9B",
"2X c #E6D99A",
"3X c #F3DB94",
"4X c #F3DC9B",
"5X c #F2D696",
"6X c #F1CF93",
"7X c #F3E29D",
"8X c #F7E599",
"9X c #F0E197",
"0X c #D6CFA8",
"qX c #ECDDA3",
"wX c #E8DCA9",
"eX c #F2DEA4",
"rX c #E7DDB4",
"tX c #EEE2AD",
"yX c #EDE2A3",
"uX c #F3E4A3",
"iX c #F5E9A9",
"pX c #EDE5B5",
"aX c #F4EAB6",
"sX c #FAF3B0",
"dX c #87DBD4",
"fX c #84CBCE",
"gX c #97E3D2",
"hX c #A9E8CD",
"jX c #B6EECC",
"kX c #B9EDCF",
"lX c #A5ECD6",
"zX c #83DBE2",
"xX c #96DBE5",
"cX c #8CE9E8",
"vX c #87E5E6",
"bX c #98E8E9",
"nX c #AEE6EA",
"mX c #BBDDE9",
"MX c #CEE9DB",
"NX c #F5F0C7",
"BX c #C8EAEF",
"VX c #CDEBF0",
"CX c #D4DACC",
/* pixels */
"Q.aX-X+X[._.>X8XsXsXsXsX>X X|.yXeX@X%X4X:XeX4X@X4XiX&X3X8XyXNXpX`.uXeXeX~.OX5X5XeX4X:.*X~ T 2XuXiX,X>X7X`.|.|.1XiXiX~.6XoX%.~.@X",
"S ;.oX:.>X&X_.9X9X&X&X8X&X X;X:X.XoXOX:X5X%X:X:X4X1X#.>.oXA.VX$XR ~.OX-X6X=X@X#X#X#X@X*Xo.T ].;X>X2X2XuXyX1X<X,XiX|.[ ] ] ] %.4X",
"A ' &.[ &.:.=.=.&.*.XX9X&X{ #.>.;.+XXX:X+X:X+X@X8X%X#.*.oXbXVX+XE.6X=X{.OX@X@X.X.X%.#X6X@.W.{.<X2X;X{.|.2XqX1X2X1X X%.] ] ] %.*X",
"M &.&.;.:.&X=.$X&X>X_.,.:.J / o.#..X).:X:X5X:X.X@X+X=.XX+XnX,X;XY l.bX-X#X#X#X@X.X#X#X4X'.!.;X2X>X2X;X;X[.>X1XqXyX|./ ] ] ] ] 8X",
"A =.&.&.&.:.&X_.$X9X&XXX&X .2X2X$.;.OXOX+XOX;X+XT.).X.%XT.cX0X:X{ T.bX=XOX#X.X.X.X.X#X4X;XE.|.,X;X;X$X2X|.$X>X>XyX`.) ] %.%.] ,.",
"A O.>.&.=.[ &.-._.9X>X*.>.R `.'.$./ ( Y T } Y I MX].J ..l.u.U.(.Y f.cX}.#X.X.X.X#X~.#X-X;X .(.{.`.`.|.|. X=.[.(.(.R #.o.] ] #.*X",
"A &.&.&.&.&.&.&.&.XX9X>X8XqX>X9X&X*X8X).*.3XiXiXMX3X6XQ.g.m.}.wXY h xX0X#X#X#X#X0X-X+X5XiX_.$X$X1X].(.T E T T  .[. . .T U I } J ",
"A ` [ -.&.&.&.&.&.:.7X9X&X).+X+X+X:X7X;XXXoX&X%XMX5X%X}.D.C.1.yXR l.J.Q.#X.X%.#XnX@X@X4X5X=.-.:._.-.*X_.2XyX>X>XqXiX;X:X7XuXiX4X",
"M &.&.&.&.&.` &.&.&.&X9X2X_._.).).+X%X(.).+XXX$Xs >X:XM.S.N.q &XK h.C.R.%.#X!.zX0X-X@X4X'.XX[ +.-.-.>.+.`.;X2X)._.4X1X2X:X=X:X8X",
"Z ` ` &.[ -.` [ &.*.,.9X|.$XXX(.O.XX%X.X+X$X+X+Xe E.k s.C.V.q %.4 B.Z.w .XQ.d.fX'.OX<X5X'.XX-.;.-.-.-.` ).].;X:XOX].:X;X1X<X:XsX",
"M ` &.&.[ ' [ [ [ &.:.9X(.| =.*.o.' >.} ;X:X>X=Xw /.e s.v.C.q , p V.C.p .Xq M.l.OXOX6XeX{.%XXX:.-.+.-._ ).).-XOX_.+X'.].;X4XyXsX",
"A ( ` _ ` ( X.( ( ( | _.X.E.| ~._ ' ;.T $X+X%Xl p q., b.V.m.e.5.7.a.g.0 V y.D.g.Q.OX~.6X].*.:.:.-.+.-.| ;X).XX;X.X%X,X].OX1X<XsX",
"J &.&.&.&.(. .I T X. . .X.U. X[.I ( ' I $X;X .0 9.H.S.j.v.b.i.i.p.i.i.i.u.m.n.y.1 w } .. ...X.*.&./ ` I {.OX*..X].$.:X;X).).-X8X",
"S |.yX9XtXaX>X%X3X3X8X3X3X9X3X3X!.E...P Z p 4.y.9.C.S.p.b.M.S.S.K.S.S.L.B.m.N.N.Z.N.3.q.Q.W.>X>X:XXX[ I `.+X_.+.XXXX+._.+X2X+X>X",
"F pXyXtXpXpXrX).*XoX%XOX).XX@Xs y.h.g.k.L.P.zXvXZ.i.N.u.u.s.S.S.cXvXS.P.cXL.S.D.D.v.v.n.g.h.4 s s qX%XT `.=X-X).*.*.#.o.XX+X2X;X",
"F pXpXpXpXpXrX( >.>.oXoX~.z 9 n.H.cXcXbXnXVXVXVXmXu.g.a.i.S.S.cXcXbXcXS.D.S.S.C.N.N.S.S.S.S.n.a.e.k >XI.=X].+X'.).=._./ ' #.:XpX",
"F yXtXyXpXaX0X` %.%.~.V 0.N.K.P.cXnXBXBXVXVXVXVXk r r r r h l.bXnXBXBXnXnXnXnXxXS.S.S.S.S.V.p.0 , . n R +X;X:X{.'.).:X@._ ' &.uX",
"g =.2XwXpXpX0XI O.+.1 r.S.S.vXnXBXBXBXBXBXVXT.  y y u y y y = # nXBXBXVXBXBXBXVXVXVXBXBXv.h., 3 y y y * +X].+X:X+X+X$XOX!.@.=.:.",
"F T =. X XwXU.( W., t.xXS.S.S.P.cXcXcXjXkXR.: * u B N b b v % = z mXVXVXBXVXxXxXxXxXJ.C.c.9.X y b ! N * ..'..... .} I I I T @.;X",
"&X>X=._.1XsX}.} F r.mXH.S.gXhXdXS.kXjXkXR.v b % u ! ~ G B O y b M fXBXMXjXjXjXhXhXS.V.v.y.3 % b G ! ! @ L $X].OX>XX.| XX:.3XuX8X",
"_.$X_._.:XaX0XU 3.VXxXS.H.gXjXdXS.S.gXgX= ) ~ & @ B N B & o ; ) N - jXjXjXjXjXgXJ.D.v.v.2 # b n = : d u $ &.oX.X:.&.XXXX&X%X%X3X",
"*.&XXX2X$X*X[.z A.J.D.S.J.jXjXdXS.S.J.fXu ] i X @ k @ l ; o O N N - jXjXjXjXdXS.S.N.v.q.o + b ; ; b G Q v M ' #.oXO.=.&X&X=.&.:.",
"&.=.:.:.XX*X[.p xXS.S.S.cXlXhXS.S.S.L.fXu m 3 X v o o ; b   O +.N y jXJ.hXjXjXS.D.v.v.4.o # n - b G -.-.~ v M .X%X| *.*.oX*.=.:.",
"&XXXXX$X&X9X[.e B.S.S.vXcXcXS.S.S.S.S.fXh N t 4 = -   v * 4 r n i 7.S.S.D.hXdXK.v.v.7., o # % n G -.' ] ] ! d #.@XX.*.XXXX$X*.=.",
"*.$X%X&X%X8X|.1 w.S.S.S.A.2.6.t.D.S.S.u.4 o c w w o o 3 1.q & + j.D.H.S.S.dXD.g.4.4.<.1   O > v m m C ! ~ ~ m ..OXI ' :.:.oXXX*.",
"&X_.$X$X;.,.h 4.7.7.s.i.6.1.6.M.v.V.D.D.7.r 3 o w 6.9.8.s.r f.j.S.S.J.hXjXl.4.5.u.7.4.e   o - > b b b Q ! N n L ^.A [ %.:.*.&X_.",
"3X>X:X_.-.%Xh 1.7.r.7.7.6.1.u.b.v.i.t.S.Z.Z.t.8.8.i.B.C.S.C.C.S.S.x.j.d.f.4.w.u.a.c.r.7 2 o o % - - - - d y = Q.wXH ` [ &.:.$X_.",
"&X&X*X:.&.-.h 4.w.N.A.7.e.5 r.s.u.i.3.3.C.S.S.S.S.S.S.S.S.S.S.z.z.j.s.r.u.u.i.c.i.u.u.1.6 .   o v b m -.-.%.! - NXL ;.=.$X$X2X=.",
"XX*.&.&.&.*.a 0.B.cXcXA.4.6 7 6.u.g.y.y.0.y.j.j.G.G.G.G.G.G.G.G.C.D.D.m.m.b.b.a.<.6.u.u.5 6 . X o ; d n n d d + yXE &._.*.$X2X>X",
"$X*.=.O.&.E.q vXvXm.v.m.1.1 , 6.u.p.v.n.S.x.v.h.d.s.i.x.z.z.z.x.S.S.D.v.v.V.D.g.<.<.6.u.5 6 , < 6 6 6 6 5 6 w r.h R _._.&X>X9X>X",
"X.| *.|.|.|.a cXJ.v.v.b.j Q.-XF 9.8.t.v.V.G.k.a.t.0.e.u.c.v.v.u.7.y.v.v.S.S.V.r.6.<.<.q 6 6 1 h 5 2.0.s.h.Z.A.A.j.l _.;X$X[.)._.",
"J W H A H [.j 8.0.p.g.i.h Q.;X:X:X8 1.p.m.S.q.y.N.C.4.8.i.v.g.5.<.<.a.g.N.n.v.u.u.<.<.5 6 F $.;.4 7.r.g.C.cXjXjXzX7.h I H H =.W ",
"[.8XuX9X4X4Xh 0 0 e.u.1 X.W.;X1X2X=Xa w.r.<.7.g.v.x.D.0.u.v.0.<.t.C.D.z.u.g.4.u.w.1.5 5 l ...X#.r t.H.cXbXcXjXjXL.i.e.V `...qXE ",
"X.7X;X%X:XOXa w.6.q 2.6 L W.&X;X].;X{.8 q 4.<.w.g.n.k.t.w.a.6.1.v.v.v.F.6.4.4.3.0 1 1 Y.I....X#XE.0 p.C.C.C.F.A.bXB.w.h +X)._.K ",
"} $X:X_.XXU 6 0 e.r.0 5 6 R 7X1X<X;X:X1XI., 8 1.4.v.v.y.<.u.u.u.u.u.u.r.<.<.1 , , |.<XuX^.$..X.X@X1 5 0.v.v.m.J.vXc.u.6 +X%X:XK ",
"X.*.XXXX;.1 5 3.g.p.6.4.6 E ;X1X1X;X$X|.].,X{.F F 8 0 q <.<.5.e.4.<.<.q 8 8 V ,X;X;X].iXE.$..X)..X=XF 6 q 8.a.J.H.h.8.6 +X%X%XK ",
"X.$X&X$X#.2 X X 3 4 s.<.6 W (.$X:X>X<X,X2X].8X7XM t t X 1 <.4.<.1 1 1 2 . X +X;X2X=X'.<X!.} #X+X@XOX=X'.R.7 0 2.2.a.7 , ~.@X@XL ",
"X._._.$X~.o ; b b b + o   K (.(.).).].(...X.=.].y y # # $ 2 < < . o   o     o :X-X+X].>X .} ~.OXOXOXOX-X. % % % & & O   #.&X%XR ",
"| yXiXyXP $ v m b b v = d [.%X$X>X>X>X(.(.).{.g 3 % - O o $ + + O o O o       Y (.'.).>X+X).@X#X:X,X!.H @ b ! ) ! N y O J ( ).L ",
"I &.XX_.  = C ! ! b > $ M =.=.=._.$XiX7X1X4X(.4.9.X $ # o o $   o O O . 5 5 X o !.;XOX>X+XoX*X*X%X*XiX.X% b ^ -.Q b y & o >.-.I ",
"W =.=.P + > Q ! ! b y % M ,X_._.9X9X9X|.(.).E.5.7.9 o + + o       o 2 9.w.w.w.0 o =X#.+X!.oXXX%X%X&XuXo v N -.-.Q b y $ o %.>.H ",
"R 2X2XP $ v m ! ! b y # n =X&X_.&X9X7X$X].+XW.8.r.5.< o $ O     o 2 5.u.b.u.u.3.3 OX)..X@.oX+XoX%XoX*Xo v ! ) -.m v y $ o +.>.H ",
"U.sXyXF + c m G C y =   (.|._.XX$X$X>X(.!.).9 c.p.w.5   + + o   X 3.p.v.c.a.u.3.1 ;X@X@XI #X@X*X-.6X8X+ v N ^ Q b u y $ o +.:.H ",
"K wXpXf $ ; = = v y = o } =.].=.*.+X$XT (.`.p n.c.w.7   - +     e w.B.N.c.s.e.4.1 ....(.Y $.%.@X%.:.V % u v N m v y $ @ o #.>.I ",
"I 1XCX  o x D.S.j X     &.X.).(.@._.;XT (.+Xp N.c.w.7 o - $ O   w t.S.N.u.7.a.e.1 ~.0XwX}.!.$.~.~.| V   X X o   o * # # D ( -.| ",
"' :.:Xp 7.B.S.S.M.e., A ,.1XaXiX>X>XiXY ..$Xp S.h.u.7 o - ; O , w.N.D.m.7.y.s.2.V eXuXaXwX:X@X@Xr q 4.v.v.c.y.8.4 @ # P eX;X+./ ",
"o.:X;Xq h.N.9 S.M.1 1 _ ` ;XtXaXtXyXNXI.@.).R k.v.a.8.o & ; O , w.C.v.y.7.a.1.h ~.~.#X.X,X!.$.J w 8.i.v.V.D.S.s.e.1.o P 2X].+.S ",
"_ %X1 w.v.M.e P.B.1 1 , ( ' ).,XwXwXNXU.X.#.X.h.v.a.7.. @ - . 7.t.h.c.w.8.5., $.#.#.$.#.-X,X~.K 9 1 p N.C.S.S.S.p.6.X Y.tXtX:.S ",
"/ $Xe g.v.8 1 q.j.< 1 6 f ( ` &._.+XNXU.@.OX).x m.a.7.. @ # 6 8.y.v.i.8.7.0 P O..X.X#.~..XOX=XI., t.K.cXS.S.S.N.v.6.1 pXtXtX+XS ",
"` :X+Xq c.i.8 , , , , 3.h o.X.o.| @.3XT X.=.=.l h.v.i.p , , 6 6 8.r.r.8.6 P | @..X=XOX'.~.=XOXL 7.g.H.cXL.S.v.v.b.6.4 wX{.2XyXH ",
"S (.=.V q q q 0 8 <.8 q U =.).].;X=X1X .I T } X.1 a.w.9.6 . 2 3 4 8.8.q , J J ).'.-X=X=X'.OX+X..K e 1.H.L.L.A.H.r.f.W.E.Y J } S ",
"].iXpX,X&., 1 , 1 4 ~.$. X'.).].-X+XuX+X+X7X%X3X$Xq 7.7 o + + + + @ 0 1 [ +.H (.<X=X:X5X4X<X'.+X~.E 1 8 p.m.N.m.1 U.,X].wXtXeXwX",
"aXtXrXtX:X3X0XY @.].<X<X{.!.).(.;.%XOX| &.=.&.*.&XW.1 6 X & % & # $ o 1 &XuXW (.=X,X'..XOX:X6X=X+X;..Xl V l V l P ;..X+X-.:XaX5X",
"tXtXpXtX<X4X0X{ (.].).!.).@._ o._ +.' ( +.o.[ ' -.XXX., X > > ; = + + X $X9XK [.-X-X-XOX.X=X-XOX+X.X+X'.wX,XO.+.oX%.'.:X.X~..XeX",
"#X@XeXrXtXaX0X{ ].].=XW.#.).#./ / =.#.I *.*.o.$.:.XX*.$XM # b u > % + o :XuXL {.<X-X<X=XOX,X5X=X=XOX#X~.wXeX'./ +.%.OXeX6XqX:XOX",
"OX.XeXaXaXNXCX} +X,X=X'.(...@.@./ _ *.I ).XXXX=.=.%X=.XX&X# b b > > = O { qXI.!.,X=XqX,X=X<X<X-X-XOX+XwXaXaX,X' ] / o.#X@X@X:X4X",
"eX(..X5XrXNXrXK { E. . .E.U I K H J I D X.T !...T =.X.XXXX).u b v y ; # o o E L { { R Q.{ { { { Q.E.} E.wXwX!.I ( J ( ] %.;.6X-X",
"uXtX-XoXwXNXNXOX>X1X:X:X;X .....L J *./ (.U.T L U A X.:.%X.X> b y > > # o   !.!.} H A I.E.^.E U K H U E.E.I.R Y E M ] [ ] %.oX.X",
"6XOX-X.XOXNX0X$.+XXX@X#.8XaXaXsXaXuX;.4X&X7XiXuX8X:.T =.$X_.= c y y ; o     W.#.O.@._ %XiX4XuXuXuXiXuXiXsXyXiXsXsXU.I [ %.] %.#X",
"%.6X6X5X6XeX}.!..X.X#X5X5X'.,X-X>X@XXX+X;X-X%X%X9X_.} XX$XO ; ; y > + o     E.#.=.+Xo.-.oX!.%X$X].:X2X1XqX1X2X9XiX XD ] ] ] %.;.",
"%.#X4X<X4X5X@.$.#.)..X6X4X!.).#..X@X+X%X+X@X+X.X&X].} @.H > c + = $ +       U.| ]._._ &.+X(.1X>X=X;X$XuXqX2X$X1XuX X/ [ ] ] %.%.",
".X.X@X:X5X4X~.#.@XOXOXOXuX$.#..X#..X.XXX:XoX:XXX*X2X: d Q Q v ; ; ; +       E.;X,X].O.#.XXX.;X1X;X$X;X2X1XqX,X2XiX{.D [ %.$.O.%.",
"O.o.#.~.'.>X{ ..OXOX'..XeX!.OXqX,X.X;.#.#X:X-X+X3XL : > > > > > > - O     f U ).|.|.+.+.O...2XyX2X2X,X<X|.1XyX2XyX XH _ %.#.$.$.",
"M g g g M L J J } { Y { ^.{.iXwXuX:X@X+X+X@X%X+X4XU $ & % = % % % $ O     A W W I.R D ( I X.{.&X[.2XyX2X1X1XyXuXuX[.g M M g M S "
};
