/* XPM */
static char *result[] = {
/* columns rows colors chars-per-pixel */
"64 64 231 2 ",
"   c #3C1F23",
".  c #461E1F",
"X  c #4C1E1D",
"o  c #5D1E17",
"O  c #531E1A",
"+  c #5A1E18",
"@  c #641E14",
"#  c #6C1E12",
"$  c #6F2013",
"%  c #67281A",
"&  c #752513",
"*  c #772A18",
"=  c #77321E",
"-  c #411E20",
";  c #7C3623",
":  c #7E3931",
">  c #6E3226",
",  c #553125",
"<  c #73621E",
"1  c #7F412A",
"2  c #654A3E",
"3  c #5F4448",
"4  c #776746",
"5  c #7A7250",
"6  c #695053",
"7  c #832D14",
"8  c #8B3316",
"9  c #963A17",
"0  c #823E2A",
"q  c #924D18",
"w  c #A24218",
"e  c #AB481A",
"r  c #B44E1B",
"t  c #BC531C",
"y  c #B7501B",
"u  c #83432C",
"i  c #86482F",
"p  c #884A36",
"a  c #995532",
"s  c #C1571D",
"d  c #C86E33",
"f  c #836E4D",
"g  c #9B6745",
"h  c #8B784E",
"j  c #8A7855",
"k  c #957D56",
"l  c #8E6755",
"z  c #A46D47",
"x  c #A97B56",
"c  c #A6744B",
"v  c #9B6C68",
"b  c #987968",
"n  c #AA7B61",
"m  c #AB7278",
"M  c #A87B7A",
"N  c #AB7575",
"B  c #8A4F48",
"V  c #CD7C42",
"C  c #9B865A",
"Z  c #9B854F",
"A  c #A68B5B",
"S  c #B68759",
"D  c #BA965D",
"F  c #AD8E58",
"G  c #8D8265",
"H  c #998965",
"J  c #B78D61",
"K  c #A59364",
"L  c #AA976A",
"P  c #BB9565",
"I  c #B39C65",
"U  c #B49D6B",
"Y  c #BC9B64",
"T  c #AA9A71",
"R  c #B59B75",
"E  c #AD8C70",
"W  c #B5A26C",
"Q  c #BBA46E",
"!  c #BCA467",
"~  c #B6A373",
"^  c #BBA674",
"/  c #BDAA74",
"(  c #BCAB7B",
")  c #B9A679",
"_  c #AEA473",
"`  c #C3995E",
"'  c #D28C51",
"]  c #C39A6D",
"[  c #C7AA65",
"{  c #CCAC66",
"}  c #C5AB6A",
"|  c #CBAD6A",
" . c #C5A567",
".. c #CDB26D",
"X. c #CBB06B",
"o. c #D3B36C",
"O. c #DAB56C",
"+. c #D6B96E",
"@. c #DCBC6E",
"#. c #D2B267",
"$. c #C3AC75",
"%. c #CBAC72",
"&. c #C2AD7B",
"*. c #C1A779",
"=. c #C5B175",
"-. c #CCB374",
";. c #C4B37C",
":. c #CBB57C",
">. c #CDB97C",
",. c #CBB978",
"<. c #D3B573",
"1. c #DAB771",
"2. c #D6BA72",
"3. c #DBBC74",
"4. c #D2B57B",
"5. c #D4BB7C",
"6. c #DBBD7B",
"7. c #D3AD73",
"8. c #E1BD75",
"9. c #E2BF78",
"0. c #DCC175",
"q. c #DCC27C",
"w. c #D7C17B",
"e. c #E3C475",
"r. c #E2C47B",
"t. c #E4C97D",
"y. c #EACC7E",
"u. c #E9C977",
"i. c #F1D17E",
"p. c #B18F8E",
"a. c #B58B90",
"s. c #B79698",
"d. c #BBAD82",
"f. c #BEB489",
"g. c #BD9BA0",
"h. c #BDA3A4",
"j. c #C5B383",
"k. c #CAB582",
"l. c #CCBB82",
"z. c #C9BB8A",
"x. c #D3BD82",
"c. c #DBBE82",
"v. c #D3BF8B",
"b. c #DABF89",
"n. c #C6B78A",
"m. c #C4ACB0",
"M. c #C8B5B8",
"N. c #CEB9B1",
"B. c #C2A8AC",
"V. c #D5C285",
"C. c #DCC384",
"Z. c #DEC985",
"A. c #D5C38A",
"S. c #DBC58B",
"D. c #D6CA8E",
"F. c #DDCA8C",
"G. c #D4C592",
"H. c #DDCB93",
"J. c #DAC995",
"K. c #DDD193",
"L. c #DED29B",
"P. c #CFC58D",
"I. c #E3C584",
"U. c #E4CB84",
"Y. c #EACB84",
"T. c #E2C68A",
"R. c #E4CB8B",
"E. c #EACD8B",
"W. c #E8C785",
"Q. c #EBD185",
"!. c #E5D18C",
"~. c #EBD38C",
"^. c #ECD98C",
"/. c #E7D486",
"(. c #F2D58D",
"). c #F4DC8D",
"_. c #F2D585",
"`. c #E3CD92",
"'. c #E9CE92",
"]. c #E6CF9D",
"[. c #E5D393",
"{. c #EBD493",
"}. c #ECDA94",
"|. c #E4D49A",
" X c #ECD59A",
".X c #E6D99C",
"XX c #ECDB9B",
"oX c #E7D995",
"OX c #F1D593",
"+X c #F2DC94",
"@X c #F2DC9B",
"#X c #F4D898",
"$X c #F1CF93",
"%X c #F4E18E",
"&X c #EEE09C",
"*X c #F4E294",
"=X c #F3E39C",
"-X c #F9E49B",
";X c #F8E89A",
":X c #D7CDA4",
">X c #DDD3A5",
",X c #DFD9BB",
"<X c #E5DBA4",
"1X c #EBDCA3",
"2X c #E4DCAA",
"3X c #EBDEAA",
"4X c #E5D5A3",
"5X c #F2DEA2",
"6X c #F1DFAC",
"7X c #E8DDB2",
"8X c #EDE1A4",
"9X c #EDE3AC",
"0X c #E7E0AD",
"qX c #F3E4A3",
"wX c #F6E9A4",
"eX c #F8EAA4",
"rX c #F2E5AD",
"tX c #F4EAAC",
"yX c #F9ECAA",
"uX c #FAF2AB",
"iX c #F7F1AB",
"pX c #EDE5B4",
"aX c #E9E4BA",
"sX c #F2E5B2",
"dX c #F3EBB3",
"fX c #F6EEBA",
"gX c #F9EBB3",
"hX c #F9F4B6",
"jX c #F7F1C4",
"kX c #F5EECA",
"lX c #DAD4C2",
/* pixels */
"k.gX'.`.A.R.{.;XiXuXuXhXoXz.1X1X5XE.{.OX X5X@XE.@XwX{.).;X;XyXpXG.8X5X5Xb.T.$X#X5X#Xr._.] Q oXqXtX|.}.qXA.K.K..XyXwXc.$XE.9.c.R.",
"A r.t.U.^.^./.^.}.^.^.*X/.P.{.{.I.U.R.{.#X~.'.}.-X}.5.W.r.2.W./.( b.E.'.{.R.E.Y.I.W.E._.<.;.R.[.[.oXoXqX8X1X.X[.yXL.1.O.O.O.e.#X",
"j +.0.2.0.t.w.w.U.q.U.%X!.$.3.W.r.R.R.E.R.OXT.E.-X~.6.q.Y.I.I.R.;. X'.T.W.E.E.I.9.I.W.(.5.l.`..XXX[.`.K.oX1XXXoX.XP.9.O.O.O.8.).",
"C 0.q.e.q./.Z.Z.!.^.U././.I | <.q.I.q.{.{.}.'.T.~.U.w.U.~.Q.U.[.^ I.Y.E.T.I.E.E.I.E.W.#XT.z.[.oX.X[.[.|.D.oXXX&X&XH.| o.O.O.@.).",
"C 2.0.+.w./././.!.*X!.y._.;.[.|.6.q.U.R.E.R.E.`.{.C.-.~.E.+X!.[.*.T.W.W.W.W.I.I.I.I.I.#XoX;.D.oX[.[.oXoXK.!.^.&X8XA...O.8.O.7.i.",
"Z +.t.t.0.+.0.t.Z.&X^.q.t.;.A.S.4.|  .^ Q ( ~ W x.F.I ,.5.5.C.A.*.T.$XI.I.c.I.W.E.c.T.OXoX;.A.H.A.V.K.K.V.V.F.V.V.;.6.<.O.8.9.(.",
"Z w.0.0.r.w.u.0.0.U.&X^.*X8X}.+X~.Q.;XC.q.+XeXiXyX@X~.V.C.R.XX&X*.9.c.W.I.W.W.W.W.$XR.#XqXS.!.!.XXF.V./ ) ) / ( A.;.$.Q ~ W *. .",
"Z ..+.r.0.#.0.0.0.t.*X&XoXC.R.R.E.{.@X!.!.U.~.~.!.+XE.[.^.}.;X8X^ b.W.W.W.I.8.W.I.E.R.#X#Xq.r.y.Z.e._.Z.oX8X}.&X&XtX|. X=XqXeX X",
"h 0.0.0.0.0.#.0.0.0./.=XoXA.Z.C.C.E.^.c.C.U.U.!.^.}.oXC.q.t.y.^.*.b.I.I.I.W.I.I.I.E.$X$XS.r.2.3.e.0.u.0.S.oX XV.Z.#X1X{. XH.{.;X",
"5 X.#.0.0.0.#.+.0.q./.&XoXU.R.C.<.I.{.C.R.[.R.Q.(.q.t.t.2.+.+.e.U E.W.E.c.E.E.$XI.W. X#XH.U.e.e.e.0.e.#.c.S.{.oXR.F.oX[. X X}.iX",
"G ..0.w.#.#.+.+.+.w.y.^.V.-.3.q.2.+.Y.%.!.{.oX{.E.[.q.U.q.0.@.e.Y I.W.W.W.W.$XR.T.'.$X5XH.Q.Y.y.u.0.e.X.C.S.E.F.C.R.F.S.{.#XqXhX",
"C ! X...X.X.-.} [ [ ,.t.-.j.,.x...| e.$.[.R.~.~.}.}.U.Y.q.r.t.t.R k.7.x.6.c.'.'.'.T.b.'.S.U.q.e.e.@.e.-.E.C.U.[.C.{.[.R.R..X XuX",
"W w.0.0.w.V.=.Q =.=.;.k.>.f.P.G.!  .+.I `.~.R.(.+X/.oX{.U.U.q.Q.4.I.F.C.q.5.U ( j.R &.x.j.:.5.q.0.X.#.W H.R.6.U.F.2.^.{.V.C.[.eX",
"K L.1X.X9XdXXX~.+X%X*X+X).*X+X@XOX+X).$.S.oXE.F.+X{.R.R.U.~.~.y.5.~.R.E.Y.+X`.].@X'.T.#X+X+X}.}.[.U.+.W A.F.C.3.U.R.2.C.E.[.E.~.",
"G pX9X9XpXsX7X6.~.Y.~.T.q.W.R.^.E.}.wX>.F.XX{.{.=X@X{.Q.U.!.U.U.-.r.U.E.R.}.T.x.T.T.4.6.6.6.9.c.5X X^./ F.`.{.V.q.C.C.2.I.R.|.|.",
"G pXdXpXpXaX7X} y.Y.Y.Y.U.I.E.{.}.^.iXl.K.qXoX{.}.}.XX}.!.^.!.[.4.q.I.~.OX}.b.| 1.I.W.I.T.T.R.c.c.E.}.d.H.S.E.C.C.6.q.....3.oXpX",
"H pX9X9XdXfX>X} 8.r.Y.E.~.E.{.Y.'.Y.;X=.A.}..XR.%.@XoX+X{.U.~./.5.4.5.U.OX}.x.c.x.1.W.b.T.T.W.b.T.OX#X) `.E.oXH.S.C.~.5.....q.=X",
"j 5..X<X0XpX>X .1.3.W.(.E.E.OX{.{.W.).V.k.K.`.D # F.[.R.!.R.!.Z.=.E.a 0 {. X>.T.c.p T.`.b.'.'.k.x.'. X~ E.F.R.[.F.E.R.R.x.5.q.W.",
"H ^ :.z.A.2Xd. .R.r.E.@X1XS.E.~.E.r.(.I.V.K.D.i ; # ;.;.l.>.A.V.U $.x.0 - S.) C.'.T.# 0 ]. X1X* 9 x.qXR V.S.>.l.;.} W / W Q >.!.",
"Q.{.U.U.XXgX:X*.C.C.!.'..X{.W.I.r.u.i.6.K..XoXXXqXw # 5X&X}.).*XQ.Q.+X5X#   K T.$X'.b.# $X`.'.s # s ' x.C.R.S.R.}.:.-.U.U.}.;XeX",
"Z.R.U.Z.{.fX:X/ W.{.[.}.@XOXI.C.6.9.y.:. .} -.5.c.s s r 9X|.+.+.@.u.^.rXfX-   5.T.].`.@ 2 ].' s t s ' b.Y.q.W.r.t.q.q.y./.^.^.+X",
"w.~.U.oX!._.F./ {.OX{.E.{.~.U.W.I.F. X .! [ ..5. .s s t 9X|.,.#.#.y.&XhXjXp   *.'.`.`.@   '.s s s s s 4.3.o.<.6.Y.2.w.^.Q.q.3.t.",
"0.0.C.t./.%XD./ R.{.}.#X[.R.W.W.{.}.yXk.} $.:.>.7.s t d qX9X4XK.o.0.{.9XpXp   j.`.'.$X@    XV s s s b.c.7.1.6.r.E.4.V.w.U.C.q.t.",
"/.!./.Z.!.*XD.Q 6.R.'.'.}.E.{.E.Y.Y.E.$.:.:.:.v.H.S.%.|.XX[.D.[.2.+.q.&XfX;   R '.`.T.@    X4X' s E.|.b.6.<.I.C.E.-.q.y.U./.q.q.",
"U.!.^.Q.~.*XK.C K K L ( j.*.W L C C ^ K U ~ ~ ) j.^ >.[.1XqXV.q.0.e.o.0.3.-   L k.j.j.O   v.G.v.b.`.J.v.#XI.I.c.R.W +.t.t.Q.U.w.",
"!.C.!.R.r.i.^.F.dXwXXXwX8XS.}.oXJ.S.E.T.l.D.n.( z.H =.tXXXR.!.q.[ #.#.{ # -   5.:.H l     L K H H R d.) k.&.U ^ &.C +.0.r.q.!.U.",
"+X~.^.U.0.}.D.A.|.].|.|.dX`.oX[.}.=XXXtXqX=XXXwXhXP.-.!.!.oX& & & +.+.2.#     ` 6. .@ - i R.T.I.b.`.1Xv.S.S.b.G.2XK #.+.0.t.!.Z.",
"(.^.^.r.e.e.w.j. X|.S.S.wXl.}.F.F.{.{.D.oXoXE.[.*XoX .s s s s s s s s #     e 8 J #   - l.6.Y.7.#.8.I.J.L.R.E.6XkXR t.q.~./.&X>.",
"Z.w.q.0.0._.A.P.`.|.`.S.'.V.}. XoXoX{.oXoXoX'.XXS.0 t y & s s s s s e # @ @ s s 9 o - 1XS.4.I.6.7.7.8.I.@XE.Y.5X9X_ 0.Z.q.!.}.oX",
"!.q.2.+.0.^.A.j.J.`.|.'.{.V.@X.X`.}.[.[.[.[.'.4.# e e # # r s s s s 7 s # # # 7 & - T.5XS.x.E.E.6.6.9.| 9.6.6.W.^.( Z.Z.!.oX*X}.",
">.,.q.F.oX9Xl.P.J.`.J.`. XV.{.}.oX`.{.qXXXR.4.# 7 s s t # # s s s s 7 y   , # X o - J E.;.4.I.I.5.9.Y.I.6.I.c.U.^.^ Z.oX!.!.C.Z.",
"I W K H K D.f.;.l.k.:.:.&.l.{.[.oXqXF.`.+Xx.# w s s s s # 9 s s s s & 9 O O # < O q r ; &.%.9.c.6.<.I.W.I.W.R.I.+X~ / W L L >._ ",
"V.eX=X&X+X+X!.^.!...C.Z.2.z.oXXX[.@X{.F.C.$ # w s s s t # r s s s s # # # # @ # = s s & & 5.I.6.E.6.I.E.W.T.'.'.@Xv.A.C.A.;.XX) ",
":.;X!.^.}.oX~.!.8XpX8XfX>.>.[.[.F.[.}.c.* r $ # e 8 @ #   # t s s 9 # # o q & X s s s * t  .6.W.E.R.I.'.'.'.'.{.XXx.@X{.E.I.Z.T ",
"=.!.oXq.U.q.r.&XhXsXrXjX>Xl.*XXX.X!.}.& s s 8 $ -           e s 9 # # . @ . @   r r w # s & I.W.E.OXR.`.'.'.].#XqXS.I.OX(.~.{.T ",
">.w.U./.q.q.Z.w..XrX8XgX2X;.[.&X XoXI.s s s t # $       #   e s s w # #         O # o $ # & I.C.I.'.{.'.`.'.{.'.}.x.C.Y.~.~.}.T ",
"=.U.oXR.w...0.H.[.&XF.~./.( V.K.{.@X* s & & $ O - X @ # #   & s s s t # # @ @ # $ +     -   W.T.R.R.`.`.5X`.'.'.'.>.}.E.Y.E.E.T ",
"=././.!.A.XX8XtX9XZ.Z./././ V.V.C.%.# $ # $ .   !.  # # # o . % s s s y # # # # O         P c.T.T.T.T.`.[.].`.`.`.( C.~.R.E.^.&.",
"=.8XrX8XK.w.q.Z.w.w./.Z././.^.Z.).z w #   Q ;.w.U.  # @   @ o   o # @ $ # # # # -       + C.~.E.'.|.x.U K ~ j.j.v.) W Q ^ } c.U ",
"W 0./.q.[.8X9X0XiX9X9XjX>Xw.w.Z.C.& s y &X+XQ.Y.0.@ +       # .       O O O           > R.Y.(.Q.~.(.yXI.b.I.}.(.@X=X~.y.i.r.u.W ",
"W w.w.F.oX<XdXdXfXfXtXhXXXoXZ.q.%.s s 9 $ C.S.I.5.D $ # # X     X o X     X X o       ; x.W.Y.(.~.!.wXx.I.F.5.q.t.W.2.6.3.9.y.L ",
"( .XoXL.8X8X8XdXdX9X8X8XZ.!.!.Z. .s s # $ `.F.{.F.5.# # @ #   # X .   X l f E.S     O # x.U.R.U.~.E._.A.|.1XJ.<.3.u.1.<.O.2.y.K ",
"f.fXrX8XpXtXtX0X<X!./.Q.w.!.Z.U.%.s s # u C.C.C.w.  . # - o - .   = w.q.5.U.E.P O X # #  .t.(.E.r.(.wX1XF.pX0XS.| o.8.e.+.2.t.K ",
"T <XpX0X0X8X0XV.,.} } 3.=.>.!.w.` 8 e # l.C.C.x # +         # # k -.-.2.,.C.x.:.P # # y # 4.c.Y.3.t.XXL.sXfX9XR.o.{ 2.1.2.2.Q. .",
"W .XaXaX0XpXL.P.G.G.$ g 0.,.C.x.Y # # / A.F.c     O #           A 3.q.3.2.5.*./ :.# # s y 0 4.C.c.<.|.G.1XfXfXF.{ { 5.[  . .e.<.",
"+.I.}.XX^.;XiX<XpXpX;.# z }.sXx # @ g ~ 5.S         X         @ 5.~.I.3.y.Y.3.5XqXT.# & s & r.(.~.+XS.( 4X3X3X4X4.2.1X`.1X`.2.X.",
"..{.^.@X{.=XoXF.J.L.C.F O # u w 7 # x d.5.-         . #       + o i 6.<.o.3.! O.9.r.] # 8 s & 1.1.Y.E.&.1X1X2X9X|.W.1X|.|.F.3.A ",
"| ~.}.+XoX=XoXD.A.A.<.+.| F 8 r s # n f.# 9 & o     . @     X X     O = D <. .5.5.6.<.# # 8 & 6.:.5.}.( R.`.9X<XrX[.8X9XpX9Xy.A ",
"| E.[.XX=X;X[.J.H.C.| | | [ c # w # x E s s s #     - #     @ X         o P } 6.I.I.5.c.# @ # J # # c.&.x.q.5XsXrXrXgXdX2X3X[.A ",
"..}.!.R.U.Q.5.A.J.>.2.<...,.-.D 0 # n p s s r @     O # .   +               # J T.R.R.S.b.* # @ O # # U R.5.q.{.4X9X3X<X`. XrXK ",
"K l.V.=.-.q.K } |.L.x.6.:.C.C.F.`.H.M.m m > # O = u : ^ 1 1 # -               @ P `.`.`.T.T.# > , O # # # S.>.<.A.P.f.n.Q U | A ",
"R.tXsXoXr._.Q *.5.T.V.5.A.C.S.T.`.x.M.m.m m m m m K.D.L.U.}.wX#                 # J [.#X#X X# 4.S.  z # # U.E.Y.+XXX>XS.<XpX3X4X",
"sXsX7X7X{.#X:X^ V.C..X.XH.l.C.C.I.N.M.M.m.M m m m m M E OX^.u.e.#             + # # x T.S.OX# # R.$.4.  '.5.6.r.Q.t.T.Y.9.{.tX#X",
"6XrXpXsX|.*X:X( V.R.C.5.C.2.<.,.` v s.M.M.M.B.M m m m m m ] a.4.Z.q.| # @     @ 8 s 9 T.T.`.R.c - I.Y.J.1X|.1.3.Y.6.S.'.T.c.T.5X",
"W.E.rX6XsXrX:Xj.S.F.`.x.5.C.5.D w w v M.M.m.s.M.B.g.g.m m m m m m R.!.!.{.'.p # 9 s e `.H.'.XX`.`.S.Y.A.2X9XS.#.@.8.`.@X#X X'.E.",
"S.c.5XsXfXkXlX*.`.[.`.S.V.5.3.S s 7 # v v M.v : M.s.M M.s.s.m m m m m M `.].l # # w e $X`.'.#X'.'.T.R.].gXsX[...O.{ <.I.R.E. X#X",
"qXV.W. X7XkX7XT &.k.;.;.k.~ Q S r # #   X g $ # M s.v M.M.M.M.s.a.a.a.m m m m m : # a k.&.&.&.&.j.k.( j.2X>Xz.!  .I  .O.8.r.$X'.",
"5X5X'.W.1XkXkXT.}.XX{.'.K.;.%.` 8 # O   g n.x # $ p.s.p.p.$ M.M.M.M.M.M.M.M.M.v @ $ C ) j.j.) ~ T L ~ j.j.j.( ) ~ k o.2.O.8.W.T.",
"OXT.'.I.E.jX].k.R.T.E.c.qXgXfXP # +   2 ~.=XwXwX*Xu $ $ $ > h.B N M.M.h.h.h.M.6   x ..~.wX}.wXqXqXyXwXeXfXwXyXiXdXf.! O.8.O.e.I.",
"9.$X X X'.qXG.c.I.r.Y.}.#Xb.z # #     !.E.[.~.'.).Z.} # # # # # M.M # > # M.3 - $ R.<.0.E.x.{.R.R.[.oX&X.XXXXXXXyXP.D O.O.O.9.r.",
"9.Y.#X X#X#Xx.4.9.c.I.'.@Xv.*       R.~.Y.E.R.C.^.S.=.C.Z.u # # l $ # $ # # - + P C.o.r.R.V.@X}.H.[.!.qX1XoX|.XXqXz.| O.O.1.8.9.",
"c.W.E.'.OX-X4.c.E.S.W.E.-X4.9 e >   I.I.{.U.{.R.).[.:.Z./.oX&XoX.XA.!.V.. .   o p g 2.3.!.=.[..X`.!.[.oX.X&X[.oXsXD.Y O.8.1.1.9.",
"6.4.6.5.R..X*.4.T.T.b.T.5Xv.# 7 %   Y 6.W.{.~.E.*XoX/ V.V.V.w.oX[.D.D.K.        O X # * k 5..X8XoX[.|.XXK.XX8X.X8XD.U 7.9.6.4.6.",
"f 4 4 4 f ~ I U *.( *.&.&.J.J.j.j.*.^ R.U.'.`.R.*X&XV.K.P.w.=.( _ ~ C 5 5 / G b H H h A C =.F.!.K..X8X.XXX&X8X8X=XD.4 f f 4 h C "
};
