/* XPM */
static char *result[] = {
/* columns rows colors chars-per-pixel */
"64 64 242 2 ",
"   c #3F102A",
".  c #3B1334",
"X  c #2A113A",
"o  c #43132B",
"O  c #4D1A2D",
"+  c #48172C",
"@  c #511E2E",
"#  c #481C33",
"$  c #521E31",
"%  c #55212F",
"&  c #5A2433",
"*  c #552333",
"=  c #5C343C",
"-  c #642B3A",
";  c #692E3A",
":  c #622A36",
">  c #6C313C",
",  c #63353D",
"<  c #70343F",
"1  c #13134F",
"2  c #1D154D",
"3  c #181857",
"4  c #271645",
"5  c #32184E",
"6  c #292657",
"7  c #352D5A",
"8  c #291B6D",
"9  c #241865",
"0  c #2A1E70",
"q  c #1C2665",
"w  c #1E3A71",
"e  c #222C6C",
"r  c #272874",
"t  c #25367A",
"y  c #32346A",
"u  c #1B225E",
"i  c #453D59",
"p  c #4F2F49",
"a  c #723540",
"s  c #7A3C43",
"d  c #693B45",
"f  c #493F6B",
"g  c #274678",
"h  c #37477D",
"j  c #745051",
"k  c #78694B",
"l  c #5B5567",
"z  c #4A4A65",
"x  c #665B69",
"c  c #6F696E",
"v  c #554A5D",
"b  c #864548",
"n  c #875A4A",
"m  c #95524F",
"M  c #9E5652",
"N  c #9D5B53",
"B  c #914D4D",
"V  c #A25B54",
"C  c #8B7153",
"Z  c #A86358",
"A  c #AE765D",
"S  c #B2745D",
"D  c #8E796A",
"F  c #9B8658",
"G  c #A48A5D",
"H  c #B2985F",
"J  c #96876D",
"K  c #A99768",
"L  c #B59C67",
"P  c #AA9973",
"I  c #B59D74",
"U  c #AB8668",
"Y  c #BAA46B",
"T  c #B5A273",
"R  c #BDAA74",
"E  c #BCAB7B",
"W  c #B9A676",
"Q  c #B5A979",
"!  c #C48A67",
"~  c #CA926A",
"^  c #C99767",
"/  c #D19F6C",
"(  c #CBAD6B",
")  c #C5A767",
"_  c #D3A96C",
"`  c #CCB16D",
"'  c #CBB06B",
"]  c #D3B36C",
"[  c #DAB46D",
"{  c #D9BA6E",
"}  c #C3AC75",
"|  c #C2AD7B",
" . c #C6AB75",
".. c #CDB474",
"X. c #C4B37C",
"o. c #CBB57C",
"O. c #CAB779",
"+. c #D3B573",
"@. c #D6BA73",
"#. c #DBBD73",
"$. c #D4BB7C",
"%. c #DBBD7B",
"&. c #D5B679",
"*. c #E2BD75",
"=. c #DCC176",
"-. c #DCC27C",
";. c #D6C17C",
":. c #E3C474",
">. c #E2C47B",
",. c #E5C97D",
"<. c #E9CA7B",
"1. c #F1D17E",
"2. c #293E84",
"3. c #2C3481",
"4. c #2A4286",
"5. c #2B488B",
"6. c #33488C",
"7. c #2E4C92",
"8. c #314F99",
"9. c #334993",
"0. c #2D5694",
"q. c #33599A",
"w. c #325398",
"e. c #2D5689",
"r. c #396895",
"t. c #365DA5",
"y. c #3556A2",
"u. c #3962AD",
"i. c #3667A6",
"p. c #3575A8",
"a. c #3B66B3",
"s. c #3B6BB4",
"d. c #3A79B7",
"f. c #415492",
"g. c #4472A7",
"h. c #507B94",
"j. c #3A87BB",
"k. c #3A92BD",
"l. c #4688BC",
"z. c #4B8EAF",
"x. c #52ACB9",
"c. c #6FB4B1",
"v. c #71869C",
"b. c #71D2B2",
"n. c #3C8FC0",
"m. c #3B9AC4",
"M. c #3B94C2",
"N. c #3FA0C7",
"B. c #479AC6",
"V. c #4B8EC2",
"C. c #49ADCD",
"Z. c #48A5C9",
"A. c #54BBD3",
"S. c #5BB9D2",
"D. c #4EB2CF",
"F. c #69B9D2",
"G. c #5BCCDB",
"H. c #57C4D6",
"J. c #62CBDA",
"K. c #6AD4DD",
"L. c #77D5DA",
"P. c #70CCD0",
"I. c #77D8E1",
"U. c #B9AC85",
"Y. c #B8AD88",
"T. c #8DACAC",
"R. c #93999F",
"E. c #CDBB83",
"W. c #C7B786",
"Q. c #D2BD83",
"!. c #DABE84",
"~. c #C3B38B",
"^. c #9FCDBB",
"/. c #D4C285",
"(. c #DCC383",
"). c #DEC985",
"_. c #D4C38A",
"`. c #DCC58A",
"'. c #DDCA8C",
"]. c #D6CA8E",
"[. c #DDCC93",
"{. c #D5C794",
"}. c #DED296",
"|. c #CEC48D",
" X c #E3C584",
".X c #E4CB84",
"XX c #EACB84",
"oX c #E2C68A",
"OX c #E3CB8C",
"+X c #EACD8B",
"@X c #E8C786",
"#X c #E5D18C",
"$X c #EBD38D",
"%X c #EAD488",
"&X c #F3D789",
"*X c #E3CE92",
"=X c #E8CF93",
"-X c #E5D393",
";X c #EBD493",
":X c #ECDA94",
">X c #E5D49A",
",X c #EBD699",
"<X c #EBDB9B",
"1X c #E6D999",
"2X c #F3DC94",
"3X c #F2DC9B",
"4X c #F2D696",
"5X c #F1CF93",
"6X c #EEE19B",
"7X c #F3E29D",
"8X c #F6E599",
"9X c #F4E18E",
"0X c #DBD2A7",
"qX c #D7D1AC",
"wX c #ECDDA3",
"eX c #E8DBA9",
"rX c #F1DDA5",
"tX c #E7DDB4",
"yX c #EDE2AD",
"uX c #EDE2A4",
"iX c #F3E4A3",
"pX c #F5E9A9",
"aX c #EDE5B5",
"sX c #F4EAB6",
"dX c #FAF3B0",
"fX c #98B5CF",
"gX c #88DBD4",
"hX c #87D0D1",
"jX c #9BE6D4",
"kX c #B6EECB",
"lX c #B0E9CF",
"zX c #81DEE3",
"xX c #8CE9E8",
"cX c #87E5E5",
"vX c #97E9E8",
"bX c #B6E8EC",
"nX c #A5E8EA",
"mX c #AEDDE8",
"MX c #F6F0C8",
"NX c #C8EAEE",
"BX c #CDEBF0",
"VX c #D0E1D4",
/* pixels */
"W.sX+XOX].'.:X8XdXdXdXdX#X|.wXuXrX$X$X4X:XrX3X+X3XpX%X9X7XvXBXaX{.uXeX0XQ.oX5X4XrX<X<.&X^ Y -XiXpX1X:X7X_.[.}.<XdXiX!.5X5X%.%.+X",
"G ,..X.X%X9X).9X:X%X9X8X#X|.-X#X X@XOX;X4X+X5X:X3X<X&.XX(.bXtXOXU.Y.qXwX-X=X+X@X@X@XXX&X..X.'.-X1X1X-XiXiX<X1X-XpX}.[ [ [ [ *.8X",
"C ] #.#.=.,.;.;.,.,.).9X#X .#.,.,.oXOX+XOX4XOX+X8X$X%.-.R.vX}.OX| v.nX{.@X+X+XoX X X@X5X&.E.}.<X<X-X*X}.1XwX6X1X1X|.*.[ [ [ *.&X",
"F =.-.:.;.%X;.#X#X#X).%X%XL ( +.%. X X-X-X4X;X(.T.oX;..XR.F.{.-XR v.vXeXoX@X@X+X*.@X@X3X`.Q.-X>X1X-X-X>X].1X<X<XuX[.( [ [ [ [ 9X",
"F ;.=.=.=.,.,.#X%X6X#X<.%XO.-X>X%.-.OXOXOXOX*XOXVXoX..'.z.a.Y.>XY.x xX{.@X@X X*.Y.!.oX3X-XX.#X-X-X-X:X-X}.#X:X1XuX_._ [ *.[ _ &X",
"F { <.=.=.] =.,.).6X$X-.<.E _.].$.( ) Y R } W L VX{.K U.B.A.Y./.U.x xX!. X!.@X@XtX%.oX,X-XW._.[.]._.}.].|.;.)././.X.%.+.[ *.*.&X",
"F =.{ =.,.=.,.:.=..X6X:X9XuX:X2X&XXX8X(.-.2XpXdXR.2X+XT.G.A.t eXI z.J.W. XoX@XqXbX5XOX4XiX'.'.#X1X'./.R Q R R X._.E  .R W Y R I ",
"F ' =.:.=.` =.=.=.,.7X6X:X(.OXOXOX;X3X-X.XXX%X$X7 4X-XV.G.n.t uXK Z.A.r @X!.c.cX[.+XOX4X3X;.,.,..X:.&X).1XiX1X:X7XpX-X1X7X7XpX3X",
"k =.=.=.:.=.' =.=.=.%X6X#X).).).(.OX$X(.(..X.X$Xq |.6 d.C.D.3.~.q D.A.t !.D u.T.oX@X5X5X`.,.#.#.:.:.:.=.(.1X,X(.).3XwX-X:X*X1X8X",
"F ' ' =.{ =.] { =.=.%X6X}.#X.X/.&.,.$X(.OX-X-XJ 5.v.3 d.m.D.3.3 g N.A.w `.3.C.x.W.@X5XrX]..X:.:.:.:.<.` !.'.-X-X'.'.-X;X,X,X;XdX",
"F R =.=.] ] ] @.{ =.,.9X/...%.;.+.{ ,...#X,X,Xl e.p.t V.A.M.g.a.a.g.a.4.q V.H.p.U.!.5XrX[.%X,.<.:.{ :.` (.`.#X'.(.OX`.'.-X3XrXdX",
"F Y ' ' ' ' ..) ) ' ..)...W.../.` ] -.R E.J c t e.G.H.V.m.m.Z.Z.Z.Z.Z.Z.a.n.m.M.p.z.D J '..X-.,.:.{ :...OX(.@X-X.X;X-X'.OX,X:XdX",
"K ;.=.=.;.;.X.Y } X.X.o.O.Y.{.].7 3 3 1 e.Z.B.S.5.B.G.a.s.d.J.G.zXJ.K.xXxXG.G.m.M.M.C.H.3 3 O.;.-.' ' Y *XOX%..X'.&.:X;X(.(.=XpX",
"K }.1X6XaXpX3X$X9X9X8X:X2X'.U.e.Z.J.H.P.vXnXnXbXL.a.M.s.s.B.G.I.xXxXK.K.I.K.G.H.D.m.C.C.C.C.4.4.t $.] Y E.OX(.%..X.X@.(.OX-X*X&X",
"J aXyXyXaXaXtX!.%XXX#X).i r.j.H.I.xXbXNXNXBXBXBXmXa.s.s.s.G.I.xXxXbXbXG.G.G.G.G.H.H.G.H.G.G.m.s.q 6 '.R ].*X*X(.-.>.-.@..XoX-X>X",
"J aXsXaXaXaXtX) <.XXP u Z.H.xXxXvXBXBXBXBXBXBXBXfXf.f.f.f.c.hXxXNXBXBXBXBXBXBXbXI.I.I.I.H.N.8.3 5 + + Q *X'.OX`.(.%.(.( ] #.1XaX",
"J wXyXuXaXsXqX( *.c t fXG.G.K.vXnXnXvXkXkXBXfXj ; ; ; ; ; ; j x vXNXBXBXBXBXBXNXBXBXmXI.m.d.2 : b A b d =X=X,X[.`.(.#X$...` =.iX",
"k ;.1XeXyXaX0X) C 3 V.J.G.G.G.L.cXxXxXkXkXkX$ ; a M V M M m ; a c BXBXBXNXNXL.G.G.G.G.N.j.e @ s N ~ ~ O I `.OX-XOXOX+XOXQ.&.(.,.",
"F Y O.|.].tXU.Y h.fXbXJ.G.jXkXgXG.gXlXkXT.a B & s ! ~ S V ; & s D gXkXkXkXkXkXkXjXG.Z.m.g # s V m m n % C !.o.$.X.} Y Y Y Y $.$X",
"-X6X)..X:XsX{.Y 5.NXJ.G.L.kXkXgXG.G.I.gXj _ _ - * ~ ~ ~ > o s ! N < kXkXkXkXkXP.G.G.m.m.4 % V s , B U A & OX'.oX;XO....X,.:X8XpX",
").#X.X).;XsX0Xg nXG.G.G.L.kXkXL.G.G.gXhX< _ n o o d : p @ o @ ) ^ ; kXlXkXkXgXG.G.m.m.5.o $ M : s Z ^ / S @ !.>.,.=.).,.%X#X:X2X",
"-.%X.X1X#X&X].q F.G.G.I.xXvXL.G.G.G.J.hX< S . 5 j =   j m o O / S : L.G.L.kXkXgXZ.m.p.q o $ > s M ] :.:._ S C =.XX+.;.%X%X-.=.<.",
"=.=.-.,.).9X'.q B.J.G.cXcXL.A.A.G.G.G.F.j ! p 5 < > o M < 5 7 H j r.G.G.H.gXG.D.k.j.4.3 o + & M _ [ / ^ { ~ ; &.$X..).-.%X-.=.-.",
"#X.X#X.X#X8XE w t.l.C.J.z.t 2.s.C.G.H.l.i ; j y 5 @ o p f 6.p # v.G.G.L.hXhXj.q.0.2.4.3 o O a s M M Z ^ ~ ~ Z &.+Xo.-.,.).#X-.-.",
".X.X$X$X$X8Xl 4.y.q.i.g.y.3.a.M.m.n.D.G.j.  o   u.i.u.l.H.& v.H.G.G.kXkXkX4.t.a.a.n.y.0     $ < m M M V ! j ; W.OXY ] ,..X%X).-.",
"#X).#X#X-.1.l t y.d.g.8.y.0 a.j.n.a.9.B.G.G.g.i z V.H.G.G.G.H.b.b.b.a.q.7.7.t.d.d.n.a.0 2 . o O ; > > n n N b G | F { =.:.>.#X.X",
":X:X$X).>.:Xl 5.d.L.zXt.y.8 3.g.a.n.w.4.r.H.G.H.G.H.G.G.K.G.J.b.x.C.Z.a.a.a.j.j.7.a.a.y.9 2 o   % M ! :.[ ^ ~ , eXG ] { =.,.#X).",
"&X%X&X,.-.L t l.L.zXzXzX3.3 8 2.a.d.M.Z.j.0.0.s.b.b.b.b.b.b.b.G.G.G.G.H.G.m.m.d.2.2.u.a.8 8 1 4 . o . o . o . . MXI (.;.%X#X1X;.",
").;.=.=.=.R t xXxXm.m.m.t D U.e t.u.j.m.A.b.M.m.8.7.u.z.x.x.x.x.B.C.N.m.D.A.G.s.2.2.5.8.8 8 1 1 9 r 3.9.q.r.i.j.f.P -.).).#X6X:X",
"#X-.;.;.{ 9Xv xXS.m.m.s.c _.<X,Xh 2.4.m.D.G.b.0.A.n.5.s.k.Z.m.a.2.5.m.M.G.G.N.a.a.2.2.0 9 1 6 P 8 w.t.s.k.zXlXlXL.w .X).#X#X:X:X",
"$...;.].1XpXz r 3.a.d.7.Y.!.>X3X$Xc t a.l.l.e.j.m.J.p.0.s.B.p.2.5.i.V.x.j.m.j.u.a.2.r 8 7 o. X Xi u.V.S.L.xXkXkXgXy.q #X#X#X(.).",
"L T K F G ].z w.r 3.a.3 | Q.-X-X:X6Xc 7.y.4.5.s.m.x.b.l.a.k.w.2.k.N.C.b.a.0.4.a.y.0 0 3 W &.%.%.i 9.Z.xXxXxXnXjXvXl.r.c K K |.K ",
"/.pX7X6X2X~.9 y.a.4.0 8 l E.1X<X-X3X-Xl z t t y.i.m.m.5.y.a.y.5.n.n.k.Z.2.2.t q 1 l l 0XT &. X%.+X3 2.V.m.m.m.B.xXA.s.9 ~.| <XW ",
"..8X-X$X4Xc 8 t i.a.3.r 9 E $X-X'.-X:X$X[.E.R.q q 0.i.0.2.8.t.a.8.8.8.8.2.t 3 Y.~.<XiXsXU. .>.@X+XJ 9 2.p.i.m.I.zXM.s.9 `. X).P ",
"X.#X:X(..X3 8 0.m.n.a.2.9 W 7X<X1X-X;X3X,X3X1X:XuX1 1 q 2.2.2.2.2.4.2.u 1 1 }.[.=X>X,XpXX.&.(.oX+X5XoX1 1 9.q.P.m.g.r 9 oX$X:XP ",
"@.-..X.X(.. $ - - = h y 5 W -X<X<X-X-X#X'.;X-X-Xa a - # 4 e e e 1 X 2     o | >X>X*X'.iXE.$. X(. X=X,X>XU.5 5 5 6 6.5 4 oX$X$XP ",
"X.%X#X).%.o ; M M M s ; O T _.'.;X2X1X-X1X.X7XI * > % o @ # # # #             =X>X>X/.<XE. .XXoXoXOX[.=X~.b S S A N >    X+X+XP ",
"X.).#X%Xo : M Z Z M b & C R /./.(.(.[./.E.O.;.x u O > O o @ $ @ + o $ + . . o j OX'.'.:XX.) !.oXoXoX*X*X& m ~ *.~ A a O ..+X$X| ",
"} iXpX|.+ < ! ~ ! M a $ n ].#X#X:X9X:X/./.;.W.8.w.6 % % + o o o o O . e 2.2.. o n `.(.<X*X(.$X+X;X>XQ.n a M *.:.! M a * o ( (.I ",
"Y ;.).G % s ! ~ ~ M a & C ;.-.).#X'.pX7X6X:X/.0.a.e   + @   o       9 u.g.t.y.5 o *XOX:XOXXX&X%X$X&XpXo b ! *.:.! M a % + :.:.Y ",
"L /.;.G * b M ~ ~ b > O W.1X).-.:X1X6X#X/.(.R.j.d.t.u o @ @     + @ q s.C.j.t.6.5 OX!.@XQ.@X@X$X$X#XiX+ b ! _ [ M b a % + *.<.K ",
"E 1X}.P $ b M Z V > ; o @X+X#X).%X6X6X#X].OXg x.n.t.0   & @     @ 4 7.Z.H.j.a.9.2 OX(..X$.XX.X+X%X.XY % b Z ~ S M a & @ o @.,.K ",
"Y.dXyX  # p i i j : &   ;.'.#X.X%X#X:X/.;.(.g N.n.i.8 o - $ o   * 6 s.A.G.j.u.6.3 -XOX+XY  X&X+X>.5XG * ; - b b - ; % O ( +.,.K ",
"P uXtX6 y h.G.G.g.h 4   ' o.'.;.-.OX#X} /./.g H.n.u.0 o ; - o o . w.k.H.C.d.q.9.3 ..E.Q.W &.*.+X#.J v h f.r.0 7 o $ % n [ #.1.Y ",
"L eXtXg t.J.H.G.l.7.1 OX=.../.).@.(.:XR /.'.g A.M.s.r + - a + o e s.Z.C.M.w.j.w.9 (.0X0X{.!.Q.!.i u.j.M.m.m.G.i.2.7 $ C ) ) >...",
"] /.Y.5.m.Z.u K.V.1 9 K XX<XsXpX1X6XiXR O.#XE.p.m.d.w.. # ; + X t n.m.m.i.d.8.f rX7XiXsXeX1X+XW t t 2.m.D.G.G.Z.t.6.o W.wX*X#.( ",
"` ;X3 d.m.u.u xXzX1 1 1 k <XyXsXyXyXMXU.&..XO.p.m.d.q.. # & + 1 q.n.m.d.w.i.3 +.#.*.oXoX>XE.&.U 3 w F.I.G.G.G.G.n.8.2 >X,X].#.G ",
"( $Xc p.m.q 1 u 8.1 3 r x +.(.1X0XuXMXY.O.;.;.x m.d.q.4 5 # o 1 t.n.j.t.w.2.v &.%.%.&.%.=X=X!.P q d.L.cXG.G.A.Z.n.8.1 yXyXyX<.G ",
"( #X#Xc i.s.u 3 1 9 q w.l ) ] =.(.OXMXY.$..X.X`.g i.q.2.9 4 4 8 q.p.a.q.r c ( #. X X%.!. XoX=XU.q w e.xXcXG.m.m.d.2.qXsXeXeX#XG ",
"` ;X>XP 6 1 5.4.t 6.6 6 ] ] ....&.$.:X} X.(.;.(.6 w.w.8 8 5 o o o h w.r 2 #.X.$.`.OXOX`.!.+XoXoX'.y t.k.S.cXcXcXt.Y.eXuX-X,XuXK ",
"K Q.Q.X...P C J U.Y.Q.$.O.(./.'.-X*X<XX.Y R } X.Q.l 3 8 8 o % % % O 5 9 D H K  XoX=X=X=X`.oX+XQ.%.-.I 3 2.e.e.e.6 ~.Y.W.R L ..G ",
"'.pXaX<X%.&XY } $.OX/.&._.(.'.).OX*X7XOX.X8X$X9X4X>X6 3 5 ; < % % % O 4 { =.K ).,X*X-X4X4X1X].oX(.-.$X-X$..X.X@X2XwX0X'.eXtXrXeX",
"rXsXtXrX=X2XqXI /.`.<X>X[.E.(.(.>.$XoX..=.;.-.>.&X%X.Xl   s a < - % n 2X#X8XP /.oX>X`.oX`.4X;XOXoX X X!.-X$.#.>.&X X@XoX*.;XpX3X",
"rXyXaXaX>X3X0XI (.'.(.$.(.&.....] @.+.) @.{ ] ] %.,.%.} < M m < - % j %X#X6XP ].=X=X=XoX`.=X=XOXOX XOX`.wX>X@.#.1.#.`.,X X!. XrX",
"OX5XrXyXaXpX0X~.`.'.[.Q.%.(.%.( ( ;.#.Y (.-...+.,.<.(. .b m M < : % o O.:X7XI *XwX=X,X*XoX=X,X=X=X`.+X`.eXrXoX( { #.oX3X<X,X5XoX",
"oX!.rXsXsXMXtXU.*X-X[.'.(.O.$.$.( ` -.Y (..X.X} L W K O @ & b < % o o D <XdXU.E.*X*XwX=X*X=X4X=X=XoXoX>XsXaX>X] [ _ +. X+X+X5XrX",
"iX!. XwXtXMXtXP | E.X.W.o.T Y L G L R K O.R } % > > m ! ! B < % O o     % pXE Q X.E E W.| | W.E W.W.} W.eX0X_.L ) H ) [ *.<.+X5X",
"rXrX=X@XrXMXMXoX1X1X-X+X}.X.o.W.Y L -.( /.W.I + o o O & b B j % o o       8X].;. .K F U.~.W.W W K K T W.W.W.W W Q C ] { ] *. XoX",
"5X X+X X@XMX0XW.@XoX+X(.7XsXsXdXsXuX,.3X#X7XpXj o o   o o & % % o         1X|.=.@.&.` $XiX3XiX7XrXdXiXpXdXiXpXdXdXY.) [ *.[ >.@X",
"*.4X,X;X5XrX`.!. X>.@X4X4X`.>X*X<X+X X#XOX;X$X+X,     o o o %             uXW.@.;.OX@.=.XXQ.$XOXOX-X1XuX1X1X<X6XpX|.L [ [ [ *.*.",
"%.XX<X4X3X4XQ.&.*.!. X;X3XQ.oX%. XXXoX$X+X+XOX(.XX| K o                   yXY.;.'.(.] -..XE.6X1XOX-X#XiX<X1X>X<XiXE.) { [ [ *.*.",
" X@XOX5X4X3X&.!.=X XoX@X7X&.%. X(. X.X X$X@X:X@X&X-X| }                   6X|.#X>X'.{ #.$XO.-X<X[.#X-X<X<XuX-X>XyX[.L { *.+.[ !.",
"&.+.%.&.=X<X ...@XoX!.OXrXQ.oX<X=X X>.%.@X:X*XOX2X:XR /.;./.C           F 1XQ ;.}.*X@.#.@.O.1XuX1X-X-X1X}.<XwX1XuX].H ` %.#.%.%.",
"C k k k k I L I  .E E | | [.sXeXiX;X*XOXoX+X*X.X8X6X/.-X|.O.          . k E P P U.E H Y ) O.'.-X[.1XuX<X1X<XiXiXiX].k C C k C G "
};
