/* XPM */
static char *result[] = {
/* columns rows colors chars-per-pixel */
"64 64 214 2 ",
"   c #776746",
".  c #78704F",
"X  c #7C7351",
"o  c #806F4C",
"O  c #8B784E",
"+  c #897753",
"@  c #8E7D59",
"#  c #887653",
"$  c #917D58",
"%  c #9B854F",
"&  c #97855D",
"*  c #9A865C",
"=  c #9E8957",
"-  c #A48D5E",
";  c #A48B56",
":  c #A9935D",
">  c #BD9D5F",
",  c #B2985F",
"<  c #8D8265",
"1  c #998660",
"2  c #988B66",
"3  c #A59364",
"4  c #A99464",
"5  c #A7936A",
"6  c #AC9C6C",
"7  c #AA996A",
"8  c #B39C65",
"9  c #BB9D61",
"0  c #B49D6B",
"q  c #A69971",
"w  c #AC9D72",
"e  c #B29E72",
"r  c #BCA265",
"t  c #B5A26D",
"y  c #BBA56D",
"u  c #BFA96C",
"i  c #B4A066",
"p  c #AEA273",
"a  c #B5A373",
"s  c #BBA674",
"d  c #BDAA74",
"f  c #BCAB7B",
"g  c #B5A779",
"h  c #BCB17C",
"j  c #C3A464",
"k  c #C7AB67",
"l  c #CBAC66",
"z  c #C1A76A",
"x  c #C5AB6A",
"c  c #CBAD6B",
"v  c #C8A664",
"b  c #D1AF6C",
"n  c #CDB16D",
"m  c #CBB06B",
"M  c #D3B36C",
"N  c #DAB46D",
"B  c #D6B96E",
"V  c #DCBC6F",
"C  c #D3B367",
"Z  c #C3AC75",
"A  c #CAAD71",
"S  c #C2AD7B",
"D  c #C2A770",
"F  c #C5B175",
"G  c #CCB474",
"H  c #C4B37C",
"J  c #CBB57C",
"K  c #CEBA7C",
"L  c #CBB978",
"P  c #D3B573",
"I  c #D9B771",
"U  c #D6BA73",
"Y  c #DBBC74",
"T  c #D3B67B",
"R  c #D4BB7C",
"E  c #DBBD7B",
"W  c #E1BD75",
"Q  c #E2BF78",
"!  c #DCC176",
"~  c #D6C17C",
"^  c #DCC27C",
"/  c #DEC87E",
"(  c #E3C475",
")  c #E2C47B",
"_  c #E4C97D",
"`  c #EACC7E",
"'  c #E9C977",
"]  c #F1D17E",
"[  c #5633A8",
"{  c #326DD9",
"}  c #27ABFA",
"|  c #79C8FA",
" . c #BBAE81",
".. c #B6AB81",
"X. c #BFB387",
"o. c #BEB489",
"O. c #C0AE82",
"+. c #C4B483",
"@. c #CAB582",
"#. c #C5BA83",
"$. c #CCBB82",
"%. c #C4BA8B",
"&. c #CEBD8B",
"*. c #D3BD83",
"=. c #DBBE82",
"-. c #D3BF8B",
";. c #CBBF92",
":. c #CBC18B",
">. c #CFC487",
",. c #D5C285",
"<. c #DCC483",
"1. c #DEC984",
"2. c #D4C38B",
"3. c #DBC58A",
"4. c #D6CB8E",
"5. c #DDCA8C",
"6. c #CDC394",
"7. c #D4C592",
"8. c #D5C993",
"9. c #DDCB93",
"0. c #DCCC9A",
"q. c #D8C896",
"w. c #DED093",
"e. c #DCD19C",
"r. c #D7D088",
"t. c #E3C584",
"y. c #E8C785",
"u. c #E4CB84",
"i. c #EACB84",
"p. c #E2C68A",
"a. c #E3CC8B",
"s. c #EACD8B",
"d. c #E6D185",
"f. c #EBD185",
"g. c #E5D18C",
"h. c #EBD38C",
"j. c #ECD98D",
"k. c #E8D98A",
"l. c #F2D383",
"z. c #F1D984",
"x. c #F2D58C",
"c. c #F4DC8D",
"v. c #F8D98F",
"b. c #E3CD92",
"n. c #E9CE92",
"m. c #E0CF9B",
"M. c #F1CF93",
"N. c #E5D393",
"B. c #EBD493",
"V. c #E7D995",
"C. c #ECDA94",
"Z. c #E4D49A",
"A. c #ECD59A",
"S. c #E6D99B",
"D. c #ECDB9B",
"F. c #F1D593",
"G. c #F2DB94",
"H. c #F2D799",
"J. c #F2DC9B",
"K. c #F8DB97",
"L. c #F4E18E",
"P. c #EEE19C",
"I. c #EFE096",
"U. c #F4E395",
"Y. c #F3E39C",
"T. c #F9E49B",
"R. c #F4EA9C",
"E. c #FAEB9E",
"W. c #FAE396",
"Q. c #D5CBA3",
"!. c #DBCFA6",
"~. c #DCD2A3",
"^. c #DDD3AA",
"/. c #DFD9BB",
"(. c #E5D5A3",
"). c #E5DAA4",
"_. c #EBDCA3",
"`. c #E4DCAA",
"'. c #EBDEAA",
"]. c #F2DEA2",
"[. c #F1DFAC",
"{. c #EADEB2",
"}. c #E0D7B4",
"|. c #EDE2A4",
" X c #EDE3AC",
".X c #E7E0AD",
"XX c #F3E4A3",
"oX c #F5E9A4",
"OX c #F8EAA4",
"+X c #F2E5AD",
"@X c #F4EAAC",
"#X c #F9EDAA",
"$X c #FAF2AB",
"%X c #F7F1AB",
"&X c #EDE5B4",
"*X c #EBE6BD",
"=X c #E6E0B3",
"-X c #F2E5B2",
";X c #F3EBB3",
":X c #F5EDBB",
">X c #F9EBB3",
",X c #F7F1B3",
"<X c #FAF2B4",
"1X c #FDF9B6",
"2X c #F9F3BD",
"3X c #F7F1B8",
"4X c #DAD4C2",
"5X c #EFE7C0",
"6X c #F0E7C4",
"7X c #F7F2C5",
"8X c #F9F1C1",
"9X c #F7F2CA",
"0X c #FAF6D2",
"qX c #E7F3F3",
/* pixels */
"@.>Xn.a.3.5.V.T.%X$X$X1XV.&.).].].h.n.G.A.J.J.h.K.OXj.G.E.R.#X&X7.XX].].-.p.H.v.].H.` l.r D N.oXoXZ.D.Y.2.9.w.V.#XoX=.M.s.Q =.y.",
"- ) u.u.j.k.a.c.G.k.j.U.d.:.B.B.t.i.p.A.H.h.h.A.J.D.R _ ) U ` a.f =.y.F.F.a.n.y.y.y.i.l.P O.w.N.V.V.N.XX|.|.S.Z.#Xe.I B N N Q K.",
"$ B ! V ! _ ~ 1.u./ u.L.g.Z E ` ) p.p.s.s.F.a.s.T.h.E ^ i.t.t.a.S A.s.p.y.s.s.=.=.t.t.v.T @.b.A.D.N.b.N.Z.|.D.S.S.:.) N N N W v.",
"$ ! ^ ! _ d.~ r.k.g.u.d.d.8 c P ^ t.^ B.B.A.s.3.h.p.E u.h.f.p.k.s p.s.s.p.y.y.s.t.y.y.K.p.-.w.S.S.V.Z.w.5.V.D.P.P.9.l N N N V L.",
"= Y ! ! ! _ ` d.k.D.g.` z.H b.Z.R ) a.a.s.a.b.s.B.<.G k.s.H.g.N.S p.p.y.y.y.y.t.y.t.y.J.N.#.b.V.N.N.V.N.w.g.N.C.].2.A N N W b l.",
"% P _ _ ! B ! / 1.J.k./ _ H 2.3.T c z s s Z a e *.5.8 T T R ,.3.D y.M.t.t.=.t.t.s.=.t.n.N.H 2.4.2.2.w.4.,.,.3.,.,.O.E P N W E x.",
"= ! U ! / ! / ( ! u.I.C.U.|.C.J.h.l.T.<.^ F.OX#X#XW.h.,.1.5.D.|.s =.=.y.t.y.y.y.y.n.p.H.XX5.5.g.D.4.1.h g d h L 2.H A d t s D 0 ",
"% m ! ! ! C ! ! Y _ Y.P.k.<.a.a.a.h.Y.N.d.u.k.j.g.F.a.N.k.G.W.|.e y.y.y.y.t.Q y.y.s.i.J.H.^ _ ` 1.( ] 1.A.|.V.C.P.@XN.V.Y.].#XJ.",
"O ! ! ! ! ! C ! ! ! k.U.V.<.5.<.<.a.j.=.<.p.u.a.j.V.B.<./ u.` j.O.p.t.t.=.y.y.t.y.M.s.H.3.) Y V ( ! ( ! 2.N.A.<.1.J._.n.A.b.V.T.",
"X n n B B ! C B V / d.I.N.u.a.<.P u.x.,.s.g.a.f.x.^ _ ) I B B ( 0 y.y.M.t.y.M.s.t.p.H.H.q.u.( ( ( ! ' C <.5.N.N.a.5.V.b.D.A.V.#X",
"& n ~ ! B C B B B ! ` I.,.G E ^ P I i.G N.V.C.B.g.B./ u.^ Y B ( 0 t.t.y.y.y.n.s.p.n.n.].9.f.u.' ( ! ( n <.3.a.a.<.a.3.5.N.J.XX1X",
"& u m B m k G x x k L / F #.G *.n m ( D N.a.f.B.C.C.u.u.^ ) ' _ 0 T T @.T t.n.b.n.p.=.M.3.u./ _ ( ! ( G s.<.u.B.t.k.Z.a.a.A.B.,X",
"6 ! ! ! ~ <.F t d L L #.K o.6.8.t j B 8 a.h.a.F.F.g.j.j.t.u.^ f.T y.5.<.=.R 0 S O.s S @.@.T T ^ ! k C t 9.a.^ u.5.P C.B.<.<.n.OX",
"3 e._.S. X@XD.h.U.G.G.G.c.U.F.G.c.G.v.Z 5.V.s.p.J.B.a.p.u.j.x.` T s.i.h.i.G.b.m.(.M.p.K.H.G.j.A.k.u.Y 8 &.a.^ E u.a.U <.a.N.b.j.",
"< &X X X&X-X{.=.l.i.h.p.<.u.f.B.h.F.oX$.9.D.B.V.Y.G.B.k.u.g.1.u.A Q p.s.a.B.a.=.y.y.T T E E =.t._.J.B.d 3.b.N.<.^ ) ^ P t.a.N.Z.",
"< *X;X&X*X-X}.x ` u.i.i.t.t.s.x.B.h.%X$.w.Y.V.h.C.A.D.J.a.C.k.N.T t.t.h.H.C.*.c P t.y.t.s.=.s.=.E s.D.f N.3.a.3.,.E / n C Y B.*X",
"2  X&X'.-X2X^.k Q ) i.i.B.i.n.s.s.i.T.F 2.A.V.B.B.J.C.J.N.u.f.g.T a.u.p.F.J.*.=.T =.p.=.p.p.p.3.p.F.H.f b.b.V.a.3.<.h.R G M ! Y.",
"# R D.). X=X^.j N Y y.x.a.n.F.B.H.p.c.,.#.g.N.N.V.b.g.a.g.g.h.5.G i.a.p.B.A.@.y.=.-.M.p.p.n.b.p.=.A.A.e s.5.a.N.9.a.h.p.*.K E u.",
"1 s J $.7.`. .z a.t.s.J._.3.s.h.i.) v.<.:.w.4.g.V.@.H J K K ,.,.8 Z =.*.*.b.e p.M.p.3.M.m.M.M.A.b.B.+Xa ,.3.J K J u i d i y K N.",
"h.V.u.u.C.>XQ.D ) <.g.b.D.B.y.t.) ' ] E w.S.| | | } qXqXqXqXqXqXqXqXqXqXqXqXqXqXqXqX0.b.M.m.m.M.F.].J.*.<.g.3.a.B.K G u.u.C.E.E.",
"1.a.u.<.B.:X!.d u.B.B.D.J.H.t.t.E E ` G x | [ [ { { | qX} } | | | | | | | qXqX| | qXqXb.M.(.M.p.p.A.A.=.i.E y.t._ Y u._ d.k.B.c.",
"^ k.u.S.g.z.r.D s.D.B.s.B.h.p.i.t.p.A.u } [ [ { { | | qX} } | | | | | | | qXqX| | | qXqX;.M.b.m.p.b.A.@.I I P E i.P ~ k.x.~ E ' ",
"Y ! _ _ u.L.8.S s.B.H.C.B.t.t.t.B.A.@X| [ [ { { | | qX} } | | | | | | | | | qXqX| | | qXqXA.(.A.m.A.Z.=.b I E Q s.J <.~ u./ ~ _ ",
"d.a.g.u.g.U.4.t E p.h.B.A.s.B.h.s.i.| [ [ { { { | | qX} } | | | | | | | | | qXqX| | | qXqXqXA.].b.A.m.p.=.I p.<.s.G / ` u.u.1.^ ",
"u.d.j.h.j.W.4.* 4 4 7 f +.d t 4 = { | | } } } } qXqXqXqXqXqXqXqXqXqXqXqXqXqXqXqXqXqXqXqXqXqXqX-.-.m.p.-.A.t.t.=.p.y B _ _ d.u.~ ",
"g.1.a.a.) ] j.4.,XXXA.XX|.3.D.Z.9.{ | [ [ { { { | | qX{ { } } } } } } } } | | qX| | | qXqXqXqX2 1 e  .g @.S 0 s S & U Y ) ) g.u.",
"G.k.j.u.! C.9.2.A.Z.Z.m.@Xb.V.N.C.{ } [ [ { { { | | qX{ { } } } } } } } } | | qX| | | qXqXqXqXt.t.n._.-.3.5.-.3.'.4 C B ! u.d.1.",
"x.h.j._ ( ( ~ +.A.m.5.5.oX*.C.9.3.{ } [ [ { { { | | qX{ { } } } } } } } } | | qX| | | qXqXqXqXb b W t.0.0.b.M.].6Xg ) ^ k.d.I.$.",
"u.^ ) ! V k.2.&.b.b.b.3.n.2.C.A.N.{ } [ [ { { { | | qX{ { } } } } } } } } | | qX| | | qXqXqXqXE b b W y.J.n.i.].'.g ~ 1.t.g.C.V.",
"a.<.U U V j.2.#.9.m.b.Z.B.,.D.A.N.{ | [ [ { { { | | qX{ { } } } } } } } } | | qX| | | qXqXqXqXp.=.E Q A W E Q p.h.h u.1.g.N.C.C.",
"K L ~ r.V.@X#.&.9.b.9.b.H.2.B.C.V.{ | | | } } } } qXqXqX| | | | | | | | | qXqXqXqXqXqXqXqXqXqXt.T Q y.t.E t.E u.k.s 1.V.g.g.1.u.",
"8 t 3 2 3 8.+.+.@.@.J J Z $.N.B.V.XX[ } [ [ [ [ [ [ qX} } } } } } } } } } } } qX{ { { } } qXQ =.Q P t.y.t.i.p.t.J.a d i 7 7 $.6 ",
",.OXY.D.J.D.g.f.u.G ,.1.G $.B.D.V.J.A.[ } { { { { [ qX[ [ [ { { { { { { } } } qX{ } } } qXT t.E i.Q t.s.y.p.b.n.J.-.2.3.,.J D.g ",
"G R.N.j.j.V.h.k.|.;X|.:X$.K N.N.5.N.C.k.[ [ { { { { } [ [ [ { { { { { { } } qX{ } } } qX .J =.i.s.p.y.n.n.n.n.n.].*.J.h.s.<.u.q ",
"G g.g.1.u./ / P.3X-X;X2X~.$.Y.D.A.N.B.D.V.[ [ { { { [ qX[ [ { { { { { { } } qX{ } } qXoX+.T t.t.s.B.b.p.n.n.n.H.Y.3.t.H.x.h.B.q ",
"J ^ u.d.^ ) u.^ S.+X|.>X`.J N.P.A.V.N.a.g.B.[ [ { { { } [ [ [ { { { { } } qX{ } } | 5.XX@.T t.<.y.n.n.A.b.n.A.A.A.*.<.i.x.h.C.w ",
"H d.V.d.~ n ~ 4.Z.|.1.k.d.h 3.5.B.C.A.N.C.5.Y.[ [ { { [ qX[ [ { { { { } | { } } qXb.3.A.&.A i.p.p.a.b.b._.b.n.n.B.J B.a.i.s.s.6 ",
"F 1.g.g.<.S.P.;X X/ 5.f.k.d >.~ <.<.5.,.$.F ~ 5.[ [ { { } [ [ { { { } } qX} } qXN.5.5.C.H D =.p.p.p.p.b.B.Z.b.b.b.S <.h.p.s.B.S ",
"F |.@X|.Z.~ ~ ^ ~ ~ a.1.d.1.j.u.j.C.C.,.,.1.4.~ ` [ [ { [ qX[ [ { { } | { } | a.<.<.<.C.a.<.s.s.B.Z.*.0 5 a  .+.-.g y s y A <.0 ",
"i ! u./ w.|.+X X;X X@X2X).~ ~ <.d.w.oXoXP.G.f.u.Y ' [ [ { } [ [ { } } qX} qX<.a.A.N.a.C.a.u.x.x.h.x.@Xy.=.t.G.x.G.Y.f.` i._ ' i ",
"t ,.^ 5.V.).,X,X,X3X&X,XD.V.1.<.V.D.P.w.<.<.<.a.R m M [ [ { qX[ { } qX} qX3.5.a.a.a.*.u.-.t.i.h.F.a.oX*.<.a.*.E t.i.U E Y Y ' 4 ",
"f S.V.S.|.).|.@X;X X|.|.a.g.g.1.k.U.P.g.4.a.5.N.u.<.J G [ [ } [ } | } { s.a.s.5.a.a.,.u.R i.u.i.h.i.z.2.Z.).9.P Y ' I M B Y i.5 ",
"%.;X X).&X@X&X X).g.d.z.~ 4.1.d.h.a.C.<.R 3.<.^ ,.u.u.3.<.[ [ qX} qX{ <.*.u.s.p.<.h.s.s.u ) x.s.( x.OX'.5.-X'.3.c b ( Q B U ` 4 ",
"q ).&X.X X X).,.K x x U m K g.~ ^ a.g.d $.<.,.R *.u.P E t.<.[ } qX{ G P G <.R J *.J @.,.a P t.i.E ) D.0.;X:X'.a.B l I Y I Y ` y ",
"r S.*X{.).&Xe.:.8.8.8.5.^ G ^ ,.G 1.N.d <.a.R ,.<.R ^ F ^ ~ a.[ { ~ ~ E Y R S s J ,.!.!.0.2.R <.E G Z.7.).<X:X9.k l P c j v ( G ",
"P t.V.J.C.R.%X|.&X&XN.) f.D.-X+XC.C.@Xa $.g.a.<.R <.1.K a.N.5.D.R x.) Y ` i.Y ].XXJ.].:X'.j.s.i.j.J.3.S (.'.'._.T U _.b._.b.Y m ",
"G B.k.J.B.R.Z.5.9.9.<.m C N.+X:X X X7X..R <.<.R u.,.s.3.5.b.|.w.$.E E P m Y r B Q ) p.p.m.*.T I Y i.i.O._._.`.'.A.u._.Z.(.3.Y ; ",
"c k.A.G.V.Y.V.4.q.*.P B k B <.S.).'.9XX.K ^ ^ <.<.*.N.b.5.9.D.~.J E R P I U z R R E P R n.n.=.<.*.p.H.d 5.b. X'. XB.|. X+X Xu.- ",
"c h.g.P.Y.R.s.9.9.,.c n c x c ~ <.g.7XX.K p.u.a.<.,.a.A.Z.Z.S.e.D M Y Y n I D E t.<.E =.t.p.B.B.2.s.C.S *.^ ].-X+X+X>X-X`. Xa.- ",
"c A.a.a.s.d.R 2.9.@.P P m P G P G R G.d G <.^ 1.N.,.5.N.Z.S._.9.Z j b Y I E A R p.b.p.3.,.s.a.p.p.^ ` a a.R ^ B.(. X'.'.N.A.|.5 ",
": $.,.F G ~ : y Z.Z.*.E J <.,.a.N.b.D.H t d Z F *.J S s h H 2.X.: : r r 9 9 8 <.p.b.b.b.p.t.a.*.^ ) i.8 -.3.J G 2.;.o.+.y 0 A - ",
"5.@X;XA.( v.y S R p.,.R 2.<.3.p.b.s.XXa.g.U.B.F.C.e.5.e.d.C.oXoXk.~ ~ U P Y 3 3.A.b.B.A.K.V.3.a.<.E x.B.^ i.f.i.U.D.~.3.). X[.(.",
"-X-X{.{.B.c.Q.a R 5.A.Z.9.$.<.<.<.h.u.G Y ~ ( ^ l.k.1.g.j.k._ ! f.k.k.c.k.R.6 *.a.n.5.p.p.F.n.p.p.t.y.=.Z.T Y ) i.` u.p.) B.@XH.",
"[.+X{.-XZ.J.!.f ,.5.<.R <.P P G M U I r U P B P ! u.~ / / / u.~ _ u.u.u.g.U.q 9.Z.n.n.p.3.n.n.b.a.t.i.7._.m.Y Y l.E 3.B.p.=.p.].",
"p.s.-X-X-X].Q.+.5.a.9.,.R <.R m c R E r ) / G P ) _ 1.d._ / j.1.d.C.g.g.V.oXp 9.A.n.A.b.p.Z.H.b.b.3.i.3._. X3.b V Y p.].J.A.B.p.",
"p.=.J.-X:X0X4XS a.Z.b.3.,.R R R c M ~ u <.<.u.^ ^ j.L d.1.u.k.B.5.C.C.C.D.#X .*.Z.m.A.Z.b.B.A.n.n.a.a.m.:X-XN.b N l P y.y.n.F.H.",
"].3.y.H.{.0X}.e f #.H H @.a y 6 4 8 z 4 J y R J F ~ F d.d.r.d.I.V.g.V.V.V.%Xh t +.f f @.+.S S S +.+.d +.`.`.2.> v 8 v I W y.M.n.",
"].].b.y.].9X6Xp.D.D.B.N.w.H J @.e 0 / c ,.%.f e a * F d.k.5.d.g.P.oXV.V.I.OX5.K D 4 1 f +.S g g e 5 a +.O. .f g a @ b I C W y.p.",
"F.p.n.t.y.7X!.@.u.y.i.=.T.+X:X<X,X_.) J.g.E.XXOXU.1.d ~ u.g.k.g.r.w.R.w.C.S.>.E I T c j.@XD.oXY.XX#XXX#X,XXX#X$X;X%.r N W N W y.",
"W B.A.A.M.].-.=.t.t.y.H.H.3.A.a.A.h.t.g.s.b.B.s.G.u.x u.k.C.I.w.V.I.P.P.P.|.#.R <.a.P ( i.*.B.a.a.N.V.|.D.D.S.P.@X:.> N N B W ) ",
"E i.H.H.].F.=.T E =.t.B.J.*.<.E t.i.a.h.i.s.a.<.h.3.Z <.d.g.g.P.w.5.D.R.|. XX.~ 4.1.M ! u.>.P.A.b.g.N.|._.S.N.C.+X&.v I N N W W ",
"=.i.n.n.H.J.*.E s.3.y.s.XXT E t.=.t.u.t.B.u.B.a.c.N.L 1.g.g.I.C.R.w.C.D.w.P.:.w.Z.5.U Y a.L N.A.b.N.N.V.A.|.Z.Z.+Xq.9 I W I P W ",
"E T E T p.D.D T s.p.=.p.].*.p._.N.<.t.E u.B.s.s.U.V.d ,.>.,.~ V.w.4.r.4.r.w.p ~ e.a.Y U U K V.|.V.V.V.A.w.D._.S._.4.8 b W E T E ",
"#       o e 0 0 S s f Z S 0.+X XXXB.s.i.p.n.B.p.U.Y.>.w.>.~ F H p p 2 X . h p p ..f , x r J 5.N.9.S.|.S.S.P.Y.XXXX4.  # o   O - "
};
