/* XPM */
static char *result[] = {
/* columns rows colors chars-per-pixel */
"64 64 15 1 ",
"  c black",
". c gray10",
"X c #1E1E1D",
"o c #23231E",
"O c #222221",
"+ c #2C2A25",
"@ c #2C2B25",
"# c #353124",
"$ c #383B2E",
"% c #3B2F33",
"& c #3A3E31",
"* c #464234",
"= c #504D42",
"- c #66674F",
"; c #80835A",
/* pixels */
" =&&&&&&=&===========================================- O$oooXoX.",
" =&&&&&&=&===========================================-  @ooooXo.",
" &&&&&&&=&===========================================- .$oooooX.",
" =&&&&&&=&===========================================- O$oo..oo.",
" &&&&&&&=&===========================================- O$oo$ Xo.",
" =&&&&&&=&===========================================-  $oooXXoX",
" =&&&&&&=&============================================  @oooooo.",
" =&&&&&&=&===========================================- O$XoooooX",
" =&&&&&&=&============================================ O$oXoooo.",
" =&&&&&&=&===========================================-  $ooooooX",
" =&&&&&&=&===============-&***=*====================== .$ooooooX",
" =&&&&&&=&================-%***=*=**=*=*=============- O$oo..ooX",
" =&&&&&&=&=================;%**********=*=*=*========= O$oo$ XoX",
" =&&&&&&=&==================-========================-  $XooXXoX",
" =&&&&&&=&===========================================-  $oXooooX",
" =&&&&&&=&===========================================- O$XoXooo.",
" ##&&&&&=&============================================ O$oooXXoX",
" #&#####*#***=*=*====================================-  $ooooXX.",
" #######*#**=*================-======================= .$ooooooX",
" =&&&&&&=&==================&=&;=====================- O$oo..oo.",
" #&&&&&&=&===================%=%-===================== O$oo$ Xo.",
" =&&&&&&=&====================%=&====================-  $oooXXoX",
" =&&&&&&=&===================&-&=&===================-  $o+oooo.",
" =&&&&&&=&====================&;=====================- O$X++oooX",
" =&&&&&&=&=====================%;====================- O$o+o+oo.",
" &&&&&&&=&======================%;===================-  $oo+o+o.",
" =&&&&&&=&===============-======-%**=*=*=============- .$ooooo+.",
" &&&&&&&=&===============&-======-%****=*=*==========- O$oo..oo.",
" =&&&&&&=&================%-======-%=================- O$oo$ Xo.",
" =&&&&&&=&==================-========================-  $oooXXo.",
" =&&&&&&=&===========================================-. @oooooo.",
" =&&&&&&=&===========================================-OO$Xooooo.",
" =&&&&&&=&===========================================-.O@oooXoo ",
" =&&&&&&=&===========================================-  $oooooo.",
" =&&&&&&=&===========================================- .@oooooo ",
" =&&&&&&=&===========================================- O$oo..++ ",
" &&&&&&&=&===========================================- O@oo$ X+ ",
" =&&&&&&=&===========================================-  @oo+XXo ",
" =&&&&&&=&===========================================-  @Xooooo.",
" =&&&&&&=&===========================================- O@oXoXoo ",
" =&&&&&&=&=================-&**=**=*=*===============- O@oXXoXo.",
" =&&&&&&=&==================;%*******=*=*=*==========-  @oooXoX ",
" =&&&&&&=&===================-=======================- .$oooooo.",
" =&&&&&&=&===========================================- O@oo..ooX",
" =&&&&&&=&===========================================- O$oo$ Xo.",
" =&&&&&&=&============-&**=*==*=*=*==================-  @oooXXoX",
" =&&&&&&=&=============-%*********=*=**=*=*==========-  $oooooo.",
" =&&&&&&=&==============;%****************=*=*=*=====- O@oooooo.",
" &&&&&&&=&===============-===========================- O$oooooo.",
" =&&&&&&=&===========================================-  @oooooo.",
" &&&&&&&=&===========================================- .$oooooo.",
" =&&&&&&=&===========================================- O$oo..oo.",
" =&&&&&&=&===========================================- O$oo$ Xo.",
" =&&&&&&=&===========================================-  $oooXXoX",
" =&&&&&&=&===========================================-  @oooooo.",
" =&&&&&&=&===========================================- O$XoooooX",
" =&&&&&&=&===========================================- O$oXoooo.",
" =&&&&&&=&===========================================-  $ooooooX",
" =&&&&&&=&========================-&**=*=*===========- .$ooooooX",
" =&&&&&&=&=========================;%****=*=*========- O$oo..ooX",
" =&&&&&&=&==========================-&===============- O$oo$ XoX",
" =&&&&&&=&===========================================-  $oooXXoX",
" =&&&&&&=&===========================================-  $oXooooX",
" =&&&&&&=&===========================================- O$ooXoXo."
};
