/* XPM */
static char *result[] = {
/* columns rows colors chars-per-pixel */
"64 64 91 1 ",
"  c #1D0A0A",
". c #1A1A19",
"X c #1D1D1C",
"o c #261E1A",
"O c #221E1C",
"+ c #152A18",
"@ c #162B19",
"# c #172D19",
"$ c #162E1C",
"% c #182F1C",
"& c #19301D",
"* c #1A311D",
"= c #1A311E",
"- c #2B231E",
"; c #2E231E",
": c #21361C",
"> c #22371C",
", c #23371C",
"< c #23371D",
"1 c #23391E",
"2 c #243A1F",
"3 c #212120",
"4 c #272320",
"5 c #2C2724",
"6 c #312722",
"7 c #352720",
"8 c #352722",
"9 c #3D2D24",
"0 c #3D2D27",
"q c #253C20",
"w c #263C21",
"e c #263D21",
"r c #2C3030",
"t c #3B3835",
"y c #333838",
"u c #47342A",
"i c #30471F",
"p c #3D511E",
"a c #3F521F",
"s c #2A4024",
"d c #304921",
"f c #314A21",
"g c #324A21",
"h c #344A22",
"j c #344B22",
"k c #334C24",
"l c #344C25",
"z c #354F26",
"x c #364F26",
"c c #365027",
"v c #385127",
"b c #395128",
"n c #3A542A",
"m c #3B552A",
"M c #40531F",
"N c #425320",
"B c #405422",
"V c #435622",
"C c #445823",
"Z c #455823",
"A c #455924",
"S c #475924",
"D c #475A24",
"F c #43403B",
"G c #45413F",
"H c #3B4142",
"J c #4A4641",
"K c #4A4A45",
"L c #4E4B46",
"P c #544E46",
"I c #504D4A",
"U c #565143",
"Y c #57534E",
"T c #5B564A",
"R c #575852",
"E c #5B5953",
"W c #666050",
"Q c #67625D",
"! c #6B6659",
"~ c #666A62",
"^ c #746E65",
"/ c #787260",
"( c #72736F",
") c #7F7A6B",
"_ c #7B7C73",
"` c #858373",
"' c #878B85",
"] c #88908B",
"[ c #92948A",
"{ c #9D9D8B",
"} c #A0A7A2",
/* pixels */
"0)QQQQIH6u0u60600QE~QH536)[EIIII0/QQQQIH0I5H555H6)QQQQQy8(UJe=*@",
"0)~QQQQH0I5H555H0)EEEEI36uu066660)QQQQIH0IEQEEI56))QQQQHhbnSSxz%",
"0E)~QQQH0IEQEEI50)EEEEE30H3335350)~QQQQH0EQQQEQ56//~IIHH0;o,M<#<",
"0)/~IIHH0EQQQEQ50)EEEEH30IHHIEE30E)~QQQH6Q~QEQEH0/Q~^IH56HXO.d+>",
"0)Q~^IH56Q~QEQEHu{~EIEH36IEEEEE30)/~IIHH0/Q~IQIH0)QQQQE56yGzlVBd",
"0)QQQQE50/Q~IQIH0E)/HIIH0HIEEEE30)Q~^IH50/QQIIQH0)QQQQQ56IEFFt&:",
"0{QQQQQ50/QQEIQHuu00000u6HHEIEE50)QQQQE50/QQIEIH0]QQQQI56ERLl&%f",
"u}~QQEQH0/QQIEIHuI5H555H6HEEEIE50{QQQQQ50/~Q^IQHu}~QEQI50QEFrq1@",
"0)[)EQE50/~Q^IQH0IEQQEI56EEEEEE u}~QQEQH0)~QQQQH0[{)IEEIuJczkBCf",
"u0u)QEII0)~QQQQH0EQEQQQ56E/EEEE50)[)EQE50)QQQQQ5uu00000u-LLFrt$@",
"6u0u66660)QQQQQ56QEQQQQH6/QEEIE3u0u)QEII0)~QQQEHuH353335uEELCVB+",
"665H555H0)~QQQEH0/QQQQIH0/EQEEH56u0u66660))EQEQ50HIEEIH36HFFFz&a",
"0IEQEEI50))EQEQ50)QQQQIH0)E~~EE5665H555H6[QQEQE50IEIEEE30/ELqF1@",
"6EQQQEQ56[QQEQE50)~QQQQH0)QEE~E30IEQEEI50}QEQEI56EIEEEE50WFFFFBf",
"0Q~QEQEH0}QEQEI50E)~QQQH0)QQ~EE56EQQQEQ56)[EIIII0QEEEEH56/CZzz$+",
"6/Q~IQIH6)[EIIII0)/~IIHH0{QE~~E30Q~QEQEH6uu066660)EEEEH50/LLFCzf",
"6/QQIIQH6uu066660)Q~^IH50/EQQEIH6/Q~IQIH0H555H5H0)~EEEE56LKFKFV+",
"6/QQIEIH0u555H5H0)QQQQE500600u0u6/QQEIQH0EIIEQQ30I)~EEE56/)Wv21@",
"6/~Q^IQH0EIIEQQ30{QQQQQ56I5H555H6/QQIEIH6EQQQQQ50/Q~HH5567hj,;;<",
"6/~Q~QQH6EQQQQQ5u}~QQEQH6IEQEEI56/~Q^IQH0IEQQQQ50/E~QH4X>tOOrf>$",
"0//~QIEH0IEQQQQ50)[)EQE56EQQQEQ56/~Q~QQH6IIQEQQH0/EEEEIpazZzzwld",
"0[Q/QIIH6IIQEQQHu0u)QEI56Q~QEQEH0//~QIEH6IQQQEQH0)EEEEE36FFJZC&@",
"0[QQ)^I56IQQQEQH6u0u66660/QQIQIH0[Q/QIIH6EQQQQQ u{~EEIE50GLLFJz@",
"0]QQQQI56EQQQQQ 6I5H555Hu/~QIIQH0[QQ)^I56E)QQQQH0/E)IEI36Gtw22VB",
"0}~QQQI56E)QQQQH0IEQEEI56QQQIEIH0]QQQQI56)/QQEQ5u0u/EIH30IZxZ&&k",
"6){))EEI6)/QQEQ56EQQQEQ5uQQQQEI50}~QQQI50)Q/QQIH6u0u66660L!YJJx$",
"6060600u0)Q/QQIH0Q~QEQEH6IQQQQQH6){))EEI0)Q~~QQH6I5H555H6)/JFxwk",
"6I5H555H0)Q~~QQH6/Q~IQIH0)QQQQIH6060600u0{/QQ~Q50IEQEEI56GYYJJ&$",
"6IEQQEI50{/QQ~Q56/QQIIQH0)QQQQIH6I5H555H0{//~QQH6EQQQEQ50TJ**&J1",
"0EQEQQQ50{//~QQH6/QQIEIH6)Q/QQI56IEQQEI50}/Q~~Q50Q~QEQEH8bZxww&$",
"6QEQQQQH0}/Q~~Q56/~Q^IQH0)QQQQQH0EQEQQQ50)[//QEH6/Q~IQIH6)JUJFw>",
"0/QQQQIH0)[//QE06/~Q~QQH6[~Q~QE56QEQQQQH00600u0u6/QQEIQH0)QJz*&@",
"0)QQQQI500600u0u0//~QIEH6))))EIH0/QQQQIH6I5H555H6/QQIEIH6[~JJC2@",
"0)~QQQQ36H3533350[Q/QIIH6u0u000u0)QQQQI56IEQEEI56/~Q^IQH6))D2ll2",
"0E)~QQQ36HIEIIH30[QQ)^I56H3353350)~QQQQ36EQQQEQ56/~Q~QQH6uM7o;gh",
"0/~QIIEH6IEEEIE30]QQQQI56IEIIEH30E)~QQQ36Q~QEQEH0//~QIEH0GOr>@>1",
"0//~^II56E~EIEI50}~QQQI56IIEEII30/~QIIEH0/QQIQIH0[Q/QIIH0IEwFzl@",
"0)Q/QIIH0QEEHEH56){))EEI0HIIIEI30//~^II5u/~QEIQH0[QQ)^I50EQJxqx@",
"0)QQQ^I5uQ~EHHE56060600u6HHEHHH50)Q/QIIH6QQQIEIH0]QQQQI56QKxzJq1",
"u]QQQQI56EEEHIH56I5H555H0HEEEII50)QQQ^I5uQQQQEI50}~QQQI50/YRtJtk",
"0}~QEQI5uEEEEIH36IEQQEI50E/EEEE5u]QQQQI56IQQQQQH6){))EEI0/QJ22*$",
"u[{)IEE36HEEEEE50EQEQQQ56/QEIEE50}~QEQI50)QQQQIH6060600u0/QZlC2$",
"uu06000u0/EEEEH56QEQQQQH6HEEEEI5u[{)IEE30)QQQQIH6I5H555H0/RJP%*1",
"uI5H553H0/EEEEH50/QQQQIH0/EEEIE5uu06000u6)Q/QQI56IEQQEI50)~xZZZk",
"0IEQQEI36/EQEEH30)QQQQI50/EEEEI5uH3533350)QQQQQH0EQEQQQ50)YYJJw@",
"6EQEQQQ50/EEEEE50)~QQQQ36/EQEIE30HIEEIH36[~Q~QE56QEQQQQH0)~Q*xz1",
"0QEQQQQH6)~E~EI30E)~QQQ30/EEIEI36IEIEEE36))))EII0/QQQQIH0))zxqw@",
"6/QQQQIH6/)//IHH0/~QIIEH6E~EEIH30EIEEEE56u0u000u0)QQQQI56_xJFJzf",
"6)QQQQIH6u0u000u0//~^II56/)/HHHH6QEEEEH56I55H55H0)~QQQQ30'YLJq%@",
"6)QQQQQH6I55H55H0)Q/QIIH6u0u60606/EEEEH56EQEEQI30E)~QQYX-Ts&2%l%",
"6))QQQQH6EQEEQI30)QQQ^I50I5H555H6/EEEEE56EEQQEE50/~QIIE1aNNh@g@>",
"6//~IIHH6EEQQEE5u]QQQQI50IEQEEI56)/EEEE50IEEEQE50//~^II5;tOOOBa$",
"0/Q~^IH50IEEEQE50}~QEQI50EQQQEQ56QQ~HH556IIQIIIH0)Q/QIIH0EGGL**d",
"0)QQQQE56IIQIIIHu){)IEEI6Q~QEQEH0QE~QH530IQQQEEH0)QQQ^I56EQwxZZ>",
"0)QQQQQ50IQQQEEHuu06000u0/Q~IQIH0)EEEEI30E)QQQQHu]QQQQI50IzJxw*@",
"0]QQQQI50E)QQQQHuI3533350/QQIIQH0)EEEEE36)/QEQQH0}~QEQI56GGYFJx1",
"u}~QEQI56)/QEQQH0HIEEIH30/QQIEIH0)EEEEH36IQQQQEHu){)IEEI6tJZZqw$",
"0){)IEEI6IQQQQEH6IEIEEE30/~Q^IQHu{~EIEH30)QQQEQHuu060009oFxxJJJi",
"uu00000u0)QQQEQH0EIEEEE50)~QQQQH0/)/HIIH0)QQQQEHuE5H553H6E)YYx*$",
"uI5H555H0)QQQQEH6QEEEEH50)QQQQQ5uu00000u6)Q/QEQ50IEQQEI36TUJwqw@",
"0IEQQEI56)Q/QEQ56/EEEEH50)~QQQEHuI5H555H0)QQEQE56EQEQQQ4;DZSZxlk",
"0EQEQQQ50)QQEQE56/EEEEE50))EQEQ50IEQQEI56[~QQEI50QEQQQQH0Txcewx$",
"6QEQQQQH6[~QQEI56)/EEEE56[QQEQE50EQEQQQ56)))IIII6/QQQQIH8`U**c*>",
"0/QQQQIH6)))IIII6QQ~HH550}QEQEI56QEQQQQH6u0u60606)QQQQIH;mvSAwx$"
};
