/* XPM */
static char *result[] = {
/* columns rows colors chars-per-pixel */
"64 64 216 2 ",
"   c #776746",
".  c #78704F",
"X  c #7C7351",
"o  c #806F4C",
"O  c #8B784E",
"+  c #887653",
"@  c #8E7D59",
"#  c #917D58",
"$  c #9B854F",
"%  c #9E8A53",
"&  c #95845D",
"*  c #9A865C",
"=  c #9D895B",
"-  c #A48B56",
";  c #A38C5D",
":  c #A9915B",
">  c #A9945E",
",  c #B2985F",
"<  c #BD9D5F",
"1  c #8D8265",
"2  c #998660",
"3  c #968A62",
"4  c #988B64",
"5  c #9C8C6A",
"6  c #A28F63",
"7  c #A49364",
"8  c #A99464",
"9  c #AC9967",
"0  c #A5936C",
"q  c #AC9C6C",
"w  c #B39C66",
"e  c #BB9D61",
"r  c #B49D6B",
"t  c #A39572",
"y  c #A59873",
"u  c #AB9C72",
"i  c #B29E72",
"p  c #B4A066",
"a  c #BCA265",
"s  c #B5A26D",
"d  c #BBA56D",
"f  c #BEA86D",
"g  c #AEA273",
"h  c #B5A373",
"j  c #BBA674",
"k  c #B5AA77",
"l  c #BDAA74",
"z  c #B6A67A",
"x  c #BCAB7B",
"c  c #BEB17C",
"v  c #C3A464",
"b  c #C8A664",
"n  c #C7AA65",
"m  c #CBAC66",
"M  c #C1A76A",
"N  c #C5AB6A",
"B  c #CBAD6B",
"V  c #D1AF6C",
"C  c #CBB06B",
"Z  c #CDB16D",
"A  c #D2B267",
"S  c #D3B46C",
"D  c #DAB56C",
"F  c #D6B96E",
"G  c #DCBC6E",
"H  c #C2A770",
"J  c #C3AC74",
"K  c #CAAD71",
"L  c #C2AD7B",
"P  c #C5B275",
"I  c #CCB374",
"U  c #C4B27C",
"Y  c #CBB57B",
"T  c #CBB978",
"R  c #CEB97C",
"E  c #D3B573",
"W  c #D9B771",
"Q  c #D6BA73",
"!  c #DBBC74",
"~  c #D2B67B",
"^  c #D4BB7C",
"/  c #DBBD7B",
"(  c #E1BD75",
")  c #E2BF78",
"_  c #DCC176",
"`  c #D6C17C",
"'  c #DCC27D",
"]  c #DEC87E",
"[  c #E3C475",
"{  c #EBCA75",
"}  c #E2C47B",
"|  c #E4C97D",
" . c #E8C87A",
".. c #EACC7E",
"X. c #F1D17E",
"o. c #B5AB82",
"O. c #BBAE81",
"+. c #BFB387",
"@. c #BEB489",
"#. c #C0AE82",
"$. c #C5B483",
"%. c #CAB582",
"&. c #C5BA83",
"*. c #CDBB82",
"=. c #C4BA8B",
"-. c #CEBD8B",
";. c #D3BD83",
":. c #DBBE82",
">. c #D2BE8B",
",. c #CBBF92",
"<. c #CFC387",
"1. c #CBC08B",
"2. c #D5C285",
"3. c #DCC483",
"4. c #DEC984",
"5. c #D4C38B",
"6. c #DBC58B",
"7. c #D6CB8E",
"8. c #DDCA8C",
"9. c #D7D088",
"0. c #CEC392",
"q. c #D4C592",
"w. c #D9C691",
"e. c #D6C992",
"r. c #DDCB93",
"t. c #D3CA99",
"y. c #DCCC9A",
"u. c #DED193",
"i. c #DDD29C",
"p. c #E3C584",
"a. c #E8C785",
"s. c #E4CB84",
"d. c #EACB84",
"f. c #E2C68A",
"g. c #E3CC8B",
"h. c #EACD8B",
"j. c #E6D185",
"k. c #EBD185",
"l. c #E5D18C",
"z. c #EBD38C",
"x. c #E8D98A",
"c. c #ECD98D",
"v. c #F2D383",
"b. c #F1D984",
"n. c #F2D58C",
"m. c #F4DC8D",
"M. c #F8D98F",
"N. c #E3CD92",
"B. c #E9CE92",
"V. c #E0CF9B",
"C. c #F1CF93",
"Z. c #E5D393",
"A. c #EBD493",
"S. c #E6D995",
"D. c #ECDA94",
"F. c #E4D49A",
"G. c #EBD59A",
"H. c #E6D99C",
"J. c #ECDB9B",
"K. c #F1D593",
"L. c #F2DC94",
"P. c #F8DB97",
"I. c #F2D799",
"U. c #F2DC9B",
"Y. c #F4E18E",
"T. c #EFE096",
"R. c #EEE19C",
"E. c #F4E295",
"W. c #FAE396",
"Q. c #F3E39C",
"!. c #F9E49B",
"~. c #F4EA9C",
"^. c #FAEB9E",
"/. c #D5CBA3",
"(. c #DBCFA6",
"). c #DCD2A3",
"_. c #DDD3AA",
"`. c #E4D6A3",
"'. c #E6DAA4",
"]. c #EBDDA3",
"[. c #E4DCAA",
"{. c #EBDEAA",
"}. c #F2DEA2",
"|. c #F1DFAC",
" X c #E0D7B4",
".X c #EADEB2",
"XX c #EDE2A3",
"oX c #E7E0AD",
"OX c #EDE3AC",
"+X c #F3E4A3",
"@X c #F5E9A4",
"#X c #F8EBA4",
"$X c #F2E5AC",
"%X c #F4EAAB",
"&X c #F9EDAA",
"*X c #F7F1AB",
"=X c #FAF2AB",
"-X c #E6E0B3",
";X c #EDE5B3",
":X c #EBE5BC",
">X c #F2E5B2",
",X c #F3EBB3",
"<X c #F9EBB3",
"1X c #F5EDBA",
"2X c #F7F2B4",
"3X c #FBF3B4",
"4X c #FDF9B6",
"5X c #F7F2B9",
"6X c #F8F3BD",
"7X c #DAD4C2",
"8X c #EFE8C0",
"9X c #F0E7C4",
"0X c #F7F2C5",
"qX c #F9F2C1",
"wX c #F7F2CA",
"eX c #FAF6D2",
/* pixels */
"%.<XB.g.6.8.A.!.=X=X=X4XS.-.'.}.}.g.z.I.D.}.P.A.P.@Xc.m.^.~.&X;Xq.+X}.+X>.f.K.M.P.U. .v.e l D.XX&XF.J.Q.5.u.u.H.&X&X:.C.h.) :.f.",
"; } s.s.c.x.j.c.D.c.c.E.j.1.A.A.a.s.g.A.I.h.B.D.U.J.^ s.} Q  .l.x :.a.C.A.h.B.a.a.a.h.n.E U r.Z.S.Z.Z.@XXX].S.Z.%Xi.W D D D ) P.",
"# S _ G _ | ` ] s.3.s.Y.j.L /  .p.g.f.z.h.K.f.g.!.z./ / d.} p.g.#.G.B.f.a.h.h.:.p.:.a.C./ -.r.D.H.Z.r.Z.G.R.J.H.S.1.[ D D D ( M.",
"@ _ ' [ | j.` u.x.x.s.j.j.w B E _ p.} A.A.G.A.p.z.f.^ d.z.h.s.S.j a.a.B.f.a.a.h.p.a.a.P.:.-.N.H.H.D.Z.u.7.G.J.J.XXr.B D D D G Y.",
"* _ _ F _ j.| j.l.Q.j...b.U N.F.^ } f.f.g.f.N.B.A.3.I z.h.L.l.Z.H f.a.a.a.a.a.p.a.p.a.U.Z.U u.Z.Z.Z.Z.S.u.Z.S.D.XX2.V D D ( V v.",
"$ F | | _ F _ ] 4.L.S.] ..c w.6.~ B M j j J h h ;.8.w T ~ ^ 3.2.L h.C.p.p.:.:.a.h.:.:.K.Z.U 5.u.7.2.l.u.2.;.8.2.2.L / E D ( ) n.",
"% _ _ _ | _ ] [ _ s.T.D.E.].D.L.z.v.!.3.' L.#X&X&X!.z.6.3.8.R.XXi :.:.a.p.a.a.a.a.B.f.I.+X8.8.l.H.8.2.k k k P U 5.$.L l h s H r ",
"O F F ] _ A _ _ _ ..Q.R.x.6.g.g.g.z.Q.Z.j.d.j.c.j.L.g.N.c.L.W.XXL a.a.a.a.p.) a.a.h.h.U.U._ | ..s.[ b.4.G.XXD.S.R.%XZ.D.Q.}.&XU.",
"X _ F _ _ _ A G _ _ x.E.S.6.3.3.3.g.c.:.2.f.s.h.z.S.A.4.| s...c.L :.f.:.:.a.a.p.a.h.C.I.f.a.G G [ [ [ ! 2.G.Z.3.3.U.H.A.G.r.A.^.",
"+ C F _ _ _ Z F _ _ j.T.S.s.s.6.E a.n.3.g.z.g.g.n.' | | Q F F [ r f.a.C.p.h.C.a.p.f.I.I.w.s._ [ _ _ { Z 2.8.Z.G.8.g.G.A.J.G.G.=X",
"& Z _ _ F A F Q F _ | T.2.I / ' E F d.I Z.D.D.x.l.x.' s._ ! G _ r :.a.p.a.a.C.f.f.N.B.}.r.j.j. .[ [ { C 3.f.g.g.3.g.6.8.A.U.J.4X",
"& f C Z C m I N N n T ] I $.T ^ Z Z [ l l.g.z.A.K.J.s.g.} '  .[ r ~ ~ :./ :.B.B.B.f.:.C.6.s.]  .[ G [ I l.3.s.Z.p.A.Z.8.f.H.A.3X",
"q _ _ _ ` ` P s l P T R R @.0.e.a v Q w g.A.g.c.L.l.A.c.s.s.] k.~ a.8.6.' ^ r x #.j L %.%.~ ~ ' _ n A s N.f.' s.8.Q c.G.3.3.Z.^.",
"7 i.].H.;X%XJ.z.E.L.E.D.m.E.L.D.n.L.M.J 8.K.g.4.K.D.f.g.s.z.n...~ h.d.h.s.L.B.V.}.C.a.I.U.K.S.D.S.s.F s 1.g.3.! s.f.Q 3.g.Z.B.c.",
"1 ;XOXOX;X>X.X:.n.d.z.f.p.s.h.z.h.D.@X*.r.J.S.A.Q.U.D.l.f.l.4...K } a.h.f.D.g.;.p.a.~ / / / :.p.].}.A.l 6.N.A.3.' 3.' Q p.h.Z.F.",
"1 ;X,X;X;X1X XN  .s.d.d.p.p.h.A.D.z.*X*.u.Q.G.z.D.I.D.J.j.S.z.S.~ p.p.z.K.D.:.K ~ :.a.p.a.6.a.:./ j.I.x N.6.g.6.2._ ' Z Z ! Z.:X",
"5 OX;X{.>X1X_.n ) } d.d.A.h.B.h.h.h.E.T 5.D.S.S.A.J.D.U.A.j.z.8.^ j.s.g.A.I.;.:.%.:.f.:.f.f.f.f.f.C.U.z B.g.G.8.8.3.z.^ I Z _ Q.",
"+ ;.H.'.;X.X_.v W ! a.n.g.h.K.A.A.a.L.2.%.Z.g.Z.D.u.l.g.l.g.x.4.K d.f.f.A.F.R f.:.:.C.f.w.B.N.w.:.G.I.h g.6.8.A.8.g.l.f.;.~ ' s.",
"3 j R ;.5.[.O.M f.} g.U.}.6.h.z.d. .n.3.<.u.7.Z.G.Y U U Y *.2.2.q K 2.;.;.g.j a.C.f.w.C.C.G.I.C.N.B.$Xi 2.6.R R Y j s f s f ^ S.",
"j.S.s.s.J.<X/.J p.3.j.B.J.A.a.p.}  .X./ l.H.S.J.@XD.Z.+XR.D.m.E.k.z.K.+XJ.XX0 f.C.B.N.N.I.w.V.C.I.+XU.;.4.g.8.f.D.T I d...D.Q.^.",
"4.u.s.3.A.5X/.J a.G.Z.J.J.K.p.p./ ) d.Y M B I ~ 2.S.'.1X$XF.F F G ..c.+X1X1Xy *.f.V.C.V.N.G.B.w.f.G.J.:.d./ a.p.s.! ] s.d.x.S.n.",
"] j.d.S.l.v.7.l z.G.A.h.A.z.a.s.a.f.G.M a n K ^ %.8.F.qXOXF.T Z A | R.5X6X8Xy ;.N.N.f.|.N.V.w.C.f.N.F.~ W W E ) d.E ` x.z.' _ | ",
"! _ 4.| d.Y.7.J h.z.D.I.A.f.f.a.z.G.&X%.K J T %.6.w.0.,X+XOXH.u.S _ A.OX>X:Xt :.N.V.C.].`.C.G.G.V.G.`.:.V W / :.h.E ` ' s.4.' | ",
"j.g.j.g.j.E.7.h ' f.B.A.D.h.A.h.h.s.d.U P U ~ 2.8.r.0.F.J.u.w.Z.G F ' Q.,X9Xu -.B.f.w.C.I.`.].].N.C.V.6.:.W p.3.B.I ] ..s.j.' ' ",
"s.d.c.l.c.W.7.* 8 7 q x $.J h 8 * ; d 6 q s j z $.z ^ Z.J.+X2.' ! [ S _ j.,Xo.z %.$.$.>.>.>.>.>.>.B.w.>.G.p.a.:.f.s F | | j.s.' ",
"l.4.l.g.} X.c.8.,X@XH.+XXX6.J.Z.w.6.g.f.*.w.&.O.*.4 P %XR.8.l.' n A A C G E.;.^ Y 2 @ u 0 t 6 5 5 i #.z %.L r h L * F _ [ } l.s.",
"L.c.c.s._ D.7.>.G.F.F.V.%XN.S.Z.D.@XJ.@X@XR.U.+X3X2.I Z.S.G.R ^ G Q F ^ _ ' N ! ! ^ f.U.V.h.f.p.:.B.}.>.6.6.6.w.{.7 A F _ s.j.7.",
"z.z.c.| [ [ ' %.G.F.6.6.+X*.D.N.8.A.A.r.D.H.g.z.!.S.N F F N.6X^ Q 3.' j.3.S.%.s.^ s.' U.;./ a.E V ( p.y.y.N.h.}.9Xz } ' z.d.T.*.",
"s.' ] ! _ k.q.-.N.V.N.6.A.2.D.D.S.G.S.Z.H.A.S.D.&X8.I 3.4.4.j.G.j.3.8.s.l.H.<.4.6.f.g.].w.~ a./ V V ( a.}.h.h.}.{.k ' 4.4.j.J.S.",
"g.' Q Q ! c.5.&.r.N.N.V.A.2.J.G.Z.z.A.Z.S.Z.A.J.+Xl.R 4.s.4.j.l.J.S.3.4.s.4.T 4.3.f.Z.}.6.^ B.a.:./ ) K ) W / a.z.k j.4.j.S.D.D.",
"R T ' 9.S.@X&.-.N.N.r.N.I.2.A.J.S.Z.Z.XXH.N.D.U.U.8.U 8.8.2.6.s.R Q T n B Q < g.H.N.g.B.Y ~ p.p.~ ) a.p.) f.:.p.z.l 4.S.l.8.4.s.",
"w s 7 4 7 e.&.$.%.%.%.Y L *.Z.A.D.R.6.Z.L.D.B.Z.@Xu.g <.c k c U k q 7 = 7 K s Y R ;.6.N.x K / :.) E p.a.p.s.f.s.L.h l p q q *.q ",
"2.^.Q.J.D.D.l.z.d.Z 5.s.Q *.A.D.Z.U.A.8.D.J.Z.A.%XR.2.S.D.D.S.R.S.J.U.G.Z.G.Z.J.H.B.].`.g ~ p./ h.:.:.h.f.a.N.B.P.>.2.6.2.Y J.z ",
"T Q.S.c.D.D.z.l.OX,XXX1X%.R Z.S.8.Z.D.S.G.+XS.G.R.;.2.s.4.s.l.4.T J.A.J.@X].Z.F.J.J.+X>X+.K ' p.h.a.p.K.B.N.B.A.].;.U.h.h.p.4.y ",
"K l.x.3.s.] | R.5X;X%XqX).%.R.J.H.l.A.U.H.Q.D.J.~.;.8.3.s.3.s.7.x 6.N.Z.].Z.F.N.Z.F.G.+X$.^ p.a.h.A.f.N.B.C.B.U.Q.6.p.K.n.z.A.y ",
"R ' s.s.] ] ] ' D.OXXX,XoXU Z.R.D.G.Z.g.8.c.Z.l.Q.R 3.3.l.l.s.7.L g.Z.8.N.G.G.F.Z.Z.f.@X$.~ p.3.a.h.G.B.N.B.G.B.D.;.6.h.z.z.L.u ",
"U j.S.s.` Z ` r.i.XXj.z.j.l 7.g.A.I.H.A.S.4.Q.Q.Q.T p.3.2.' d.7.U 2.6.N.Z.S.A.Z.F.Z.6.H.>.K h.f.a.N.N.N.}.N.B.B.A.R A.h.h.h.d.u ",
"P 8.l.j.2.R.XX%XOX] 8.j.x.l <.2.2.3.8.2.2.U ` f.D.s ` 3.' 3.4.2.%.B.D.g.6.f.f.A.l.8.8.G.U H ^ a.f.6.f.N.G.V.N.N.N.x 3.A.a.h.A.c ",
"P XX%XXXu.` ` 3.' ` g.4.j.j.c.d.c.D.D.2.2.` 7.^ s.3.T ;.` 4.l.1.*.2.A.A.3.l.f.l.:.6.3.D.g.6.h.h.A.F.*.w 7 z L $.>.z s H h K ' i ",
"p _ s.| u.XX$XXX2XOXOX6X'.R ` 2.j.Z.+X~.R.E.k..._  .k.J.;X'.~.7.Y Z.3.B.2.^ 3.B.D.S.f.D.f.d.n.k.z.n.&Xa.:.p.K.K.L.Q.j...X. .{ w ",
"s 2.` 7.S.'.2X,X2X5X$X2XH.S.3.] D.J.R.u.2.6.3.s.^ Z S Q g.{.1Xe.r g.f.h.g.6.8.g.g.N.' s.2.d.s.z.n.g.@X;.p.8.;.! a.s.Q ) W ! ..9 ",
"x H.S.H.XX].XX,X,X$XXXXX8.l.x.4.z.R.R.l.8.g.8.l.4.3.E I I ! z.t.h :.4.g.g.g.g.f.g.g.2.s.;.a.s.h.z.d.b.2.F.{.r.~ W  .E F W ! d.8 ",
"@.2XOX'.;X%X%XoX'.l.k.k.' 8.4.j.z.j.D.2.~ 6.2.3.2.f.g.3.4.T ' P w I ' 3.;.s.g.f.3.l.g.z.M } n.h.} n.+X{.8.;X{.2.V A ) ) S Q  .7 ",
"u '.;XoXOXOX'.2.T N N Q P R j.2.' s.u.P <.6.2./ ^ s.Q / p.3.z.7.9 I E E I 3.^ R ;.~ %.;.h ~ ) h./ } ].F.$X1XOXg.F m W F F ! k.d ",
"a '.:X-X'.OX).<.e.e.t.u._ E 3.:.^ 4.Z.l 3.g.^ 2.' ^ ' P ' ^ g.].f / / ! Q ^ J j I 5.(.).t.6.^ :./ E F.t.{.,X1Xr.m m ~ m v b  .I ",
"S p.D.J.D.#X*XXX;X;Xl.[ k.H.>X%XD.D.+Xh T g.f.3.^ 3.8.R g.Z.g.H.^ z.p.! ..d./ }.@XU.}.1X{.A.d.k.c.I.6.J `.].{.].E Q ].N.].N.! B ",
"I A.z.Q.S.Q.Z.w.y.y.3.Z Z A.$X1XoXoX0Xo.~ 3.3.` g.3.l.6.8.N.+Xu.*./ / E S ! a D ) :.a.p.V.;.~ W Q d.f.U ].{.[.{.H.a.'.G.H.6.! - ",
"Z z.D.L.D.Q.S.7.6.2.I F n S 3.H.'.XXwX=.T ' 3.3.2.2.g.N.g.r.J.).T / ^ E E Q M ^ ^ / ~ / B.Z.:.3.;.f.K.x 8.B.OX{.$XN.XX{.;X$Xs.; ",
"N z.l.R.Q.^.B.r.r.2.B Z B n B ' 3.l.0X+.R f.s.f.6.2.4.J.F.F.H.i.J S W ! m E N / p.p.^ :.3.a.A.A.6.g.K.L ;.' }.>X%X$X<X,X[.OXB.; ",
"Z A.l.f.g.j.~ 5.y.^ I E Z E I I I ^ D.J P 3.' 3.A.2.8.Z.F.H.].r.J v V ! W ) U ^ f.h.f.6.6.h.g.f.g.' d.h g.^ _ F.`.OX{.'.N.G.+X7 ",
"> *.2.P I _ > j V.F.;.' T 3.2.g.Z.B.J.L s f J P ;.Y L j P U 5.+.> : a a e e 9 p.6.B.N.N.6.p.g.;./ } d.w 2.6.R E 6.,.=.$.d r K ; ",
"g.%X<XF.[ n.d J ^ s.2.~ q.3.6.f.Z.g.+Xg.l.W.A.L.D.i.8.i.9.D.@X%Xl.' _ Q Q ^ 7 6.G.N.A.G.P.F.6.g.3.' n.z.2.d.k.a.L.H.(.6.'.;X{.`.",
";X>X.X.XA.M./.j ;.8.H.S.r.*.3.2.} A.s.I ! ' } _ v.z.3.l.c.x.| _ k.j.b.D.x.~.u *.g.A.6.f.6.K.A.g.g.p.a.^ Z.^ ) } n.} f.f.) K.%XI.",
"|.$X;X>XF.D.(.x 2.f.3.^ 3.Q I E Z Q E v Q Q S E _ s.` 4.] ] j.Q | s.s.j.l.T.u 8.V.B.A.f.f.B.B.g.g.p.h.w.].y.Q W .._ f.A.f.:.a.}.",
"f.h.|..X>X|./.U 8.g.r.;.^ 3./ B B ' ^ a 3.' I Q | ..2.j.] ] x.4.j.c.x.u.z.@Xi N.H.B.F.N.f.N.I.N.N.f.h.6.{.{.f.m G ( f.U.J.I.B.f.",
"f.:.}.<X1XeX7XL N.N.N.6.2.~ ^ ^ B Z ' a 3.s.s./ ' x.Q j.4.j.c.S.7.D.D.D.R.&XO.>.N.V.].B.V.B.I.A.N.f.f.F.1X$XF.S D m ~ a.a.B.B.}.",
"$X:.a.I..XeX Xu L %.U U %.h s r 7 w M 8 T l ;.R l ` P 4.j.j.l.T.S.x.S.S.S.#Xc h L x x %.#.U L L %.%.x $.[.[.>.e b w b D ) } C.B.",
"}.+XN.a.].wX9X6.D.R.G.B.u.U Y $.i r ' B 2.=.j i z * T j.x.8.j.j.R.+XS.S.D.#X7.R J 9 2 x $.L z h u 0 h $.$.#.x j z @ S E A ) s.a.",
"K.f.B.:.a.0X(.~ s.p.h.:.!.<X5X5X<XXX .I.g.Q.#X#XW.] f ] s.l.x.u.8.l.XXu.D.S.<.' E ~ B c.@XU.+X+X}.&X@X#X,X+X&X=X%X+.v D ( D ) a.",
") K.I.G.C.+Xw.:.p.p.a.D.I.6.B.g.J.h.s.l.g.A.A.h.L.4.l j.j.D.T.u.S.T.~.R.R.XX&.^ ' N.E [ h.;.A.g.g.Z.H.R.J.J.H.R.%X0.< D D W ) ) ",
"/ h.G.I.U.I.:.~ / 3.p.A.U.;.3./ p.d.g.l.h.h.g.p.k.p.J 3.k.j.j.T.j.7.D.@XXX%X+.T 8.6.A _ g.*.J.S.r.l.Z.+XJ.H.Z.J.+X=.b W D W ( ( ",
") a.h.B.I.P.~ :.h.p.f.a.+X~ / p./ a.p.s.A.s.A.s.L.S.T 4.9.S.R.D.@Xu.J.J.u.R.<.u.F.8.Q _ j.U S.J.Z.l.Z.D.H.XXF.F.>Xy.e W ( E W ) ",
"~ ~ / / N.G.H Y f.a.f.f.}.;.f.J.Z.p.p./ s.A.A.f.W.S.k 2.` <.2.S.u.7.7.9.9.u.k 2.i.g.! ! ! ~ F.XXS.F.Z.H.Z.S.XXF.].7.w V ( / / ~ ",
"o       o i r r L x j L L y.>X{.+XG.g.g.a.h.Z.f.L.T.<.S.2.` c U g g 3 X . c q g o.x , f a T l.Z.r.S.XXH.H.J.+X+X@X7.  + o   + - "
};
