/* XPM */
static char *result[] = {
/* columns rows colors chars-per-pixel */
"64 64 226 2 ",
"   c #030303",
".  c #0B0B0C",
"X  c #070708",
"o  c #0E0F10",
"O  c #0F1012",
"+  c #121314",
"@  c #161619",
"#  c #191A1D",
"$  c #17181A",
"%  c #1D1E21",
"&  c #1F2024",
"*  c #212226",
"=  c #24262A",
"-  c #27282D",
";  c #292A2E",
":  c #2D2C25",
">  c #2B2D32",
",  c #2F3136",
"<  c #303237",
"1  c #33353B",
"2  c #36393E",
"3  c #3D3A38",
"4  c #352A28",
"5  c #241E22",
"6  c #482B30",
"7  c #7F383F",
"8  c #5A503D",
"9  c #60553F",
"0  c #373A40",
"q  c #3A3D43",
"w  c #663E46",
"e  c #3E4047",
"r  c #3F4249",
"t  c #42454C",
"y  c #46494D",
"u  c #464951",
"i  c #494C54",
"p  c #4C4F58",
"a  c #4E515A",
"s  c #4C5057",
"d  c #51555D",
"f  c #545558",
"g  c #574C4D",
"h  c #6A534D",
"j  c #686355",
"k  c #7A7359",
"l  c #75684A",
"z  c #535760",
"x  c #565963",
"c  c #595D66",
"v  c #5B5F68",
"b  c #5D616B",
"n  c #61646E",
"m  c #6B6967",
"M  c #626671",
"N  c #656974",
"B  c #6A6D76",
"V  c #6A6E79",
"C  c #676C78",
"Z  c #6D727D",
"A  c #71747D",
"S  c #78757F",
"D  c #79716C",
"F  c #615B64",
"G  c #943339",
"H  c #B32124",
"J  c #AA4E55",
"K  c #897855",
"L  c #8A7750",
"P  c #827B68",
"I  c #856873",
"U  c #9D5860",
"Y  c #9B8657",
"T  c #A48C5C",
"R  c #AF965F",
"E  c #8A8268",
"W  c #998A64",
"Q  c #8A8872",
"!  c #A99768",
"~  c #B59C67",
"^  c #AA9B72",
"/  c #B39E71",
"(  c #BBA56E",
")  c #B7A36A",
"_  c #B6A374",
"`  c #BDAA74",
"'  c #BCAB7B",
"]  c #B9A776",
"[  c #B0A778",
"{  c #C6AA68",
"}  c #CCB26D",
"|  c #D3B46C",
" . c #DAB46D",
".. c #D9BB6E",
"X. c #C2AE7C",
"o. c #C4AC73",
"O. c #C5B175",
"+. c #CCB474",
"@. c #C3B37D",
"#. c #CBB57B",
"$. c #CDBA7C",
"%. c #D3B472",
"&. c #D6BA73",
"*. c #DBBC73",
"=. c #D4BB7C",
"-. c #DBBD7B",
";. c #D6B677",
":. c #D1AF6F",
">. c #E2BD76",
",. c #DCC176",
"<. c #DCC37C",
"1. c #D7C17B",
"2. c #E3C475",
"3. c #E2C47B",
"4. c #E5CA7D",
"5. c #E9CA7C",
"6. c #717682",
"7. c #757A85",
"8. c #777B88",
"9. c #7A7E89",
"0. c #797D86",
"q. c #6F7480",
"w. c #8C7A84",
"e. c #7D818D",
"r. c #7F8490",
"t. c #81848E",
"y. c #828691",
"u. c #858A95",
"i. c #898C97",
"p. c #8A8E99",
"a. c #8D929C",
"s. c #91949E",
"d. c #9A979F",
"f. c #9B868E",
"g. c #AD858E",
"h. c #B8AD84",
"j. c #9396A1",
"k. c #9599A3",
"l. c #9A9DA6",
"z. c #9C9FA8",
"x. c #9DA1AA",
"c. c #A2A4AD",
"v. c #A6A9B1",
"b. c #AAADB5",
"n. c #A4A7B0",
"m. c #AEB0B8",
"M. c #ADB0B7",
"N. c #B3B5BC",
"B. c #B6B7BE",
"V. c #B4AFB5",
"C. c #CDBC82",
"Z. c #C6B785",
"A. c #D3BE83",
"S. c #DBBE81",
"D. c #D2BF8C",
"F. c #C0AE82",
"G. c #D4C384",
"H. c #DCC483",
"J. c #DEC984",
"K. c #DBC58B",
"L. c #DDCB8C",
"P. c #D5C68B",
"I. c #DACB92",
"U. c #DDD194",
"Y. c #CFC589",
"T. c #E3C584",
"R. c #E4CB84",
"E. c #EACB85",
"W. c #E2C68A",
"Q. c #E3CC8B",
"!. c #E9CC8C",
"~. c #E8C685",
"^. c #E5D18B",
"/. c #EBD38D",
"(. c #EAD588",
"). c #F3D689",
"_. c #E2CE92",
"`. c #E8CF93",
"'. c #E5D393",
"]. c #EBD493",
"[. c #ECDA95",
"{. c #E5D599",
"}. c #ECD699",
"|. c #EBDB9B",
" X c #E6D999",
".X c #F3DB94",
"XX c #F3DC9B",
"oX c #F2D695",
"OX c #F1CF93",
"+X c #EEE19B",
"@X c #F3E39C",
"#X c #F7E599",
"$X c #F4E18E",
"%X c #D9CFA5",
"&X c #EBDDA3",
"*X c #E7DBA8",
"=X c #F2DEA4",
"-X c #E8DDB2",
";X c #EEE2A3",
":X c #EDE3AD",
">X c #E7E0AD",
",X c #F3E4A2",
"<X c #F8EAA4",
"1X c #F4EAAC",
"2X c #F6E9A9",
"3X c #FAF2AB",
"4X c #EDE5B3",
"5X c #E9E4BA",
"6X c #F4EAB5",
"7X c #FAF4B5",
"8X c #BABDC3",
"9X c #B7B9C0",
"0X c #BEC1C6",
"qX c #BFC2C8",
"wX c #C2C5CA",
"eX c #C6C8CD",
"rX c #CBCDD1",
"tX c #D7D7DB",
"yX c #D2CCD0",
"uX c #E4DADD",
"iX c #F4EDC4",
"pX c #DDDEE1",
"aX c #E8E9EB",
"sX c #EEEFF0",
"dX c #EFF0F1",
"fX c #DEE0E2",
/* pixels */
"Z.6X`.!.P.U.[.#X3X3X3X7X+XZ.*X;X=X!./..X}.XXXX!.XX<X[..X#X#X3X4XP.,X=X=XK.W.OXoX=X|.5.).~ o.'.,X2X X[.XXY.I.U.|.3X2XS.OXE.S.S.!.",
"T 3.4.R.(.(.R.[.$X(.(.$X^.Y.]./.T.E.W.}.oX].].].#X}.;.4.3.;.E.^.F.A.~.].].!.!.~.~.~.E.).:.X._.'. X X'.,X;X;X{.'.1XU. . . . .>.XX",
"Y | *.*.,.4.1.1.J.<.R.$X^.o.-.4.3.Q.Q.`.Q.].Q.!.#X!.-.<.E.3.T.Q.X.oX`.W.!.!.!.T.>.T.~.oX-.C.U.}.|.'.'.U. X&X&X X|.C.3. . . .>.).",
"K ,.,.3.4.(.1.^.^.[.R.(.R.~ :.%.-.T.<.].].oX`.W./.Q.1.R././.R.].] W.~.!.W.T.~.!.T.~.~..XW.C._.{.[.'.'.{.L.].|.+X&XU.:.|  . .>.$X",
"Y 1.,.,.,.4.4.^.^.@X(.5.(.#.'.{.-.-.Q.W.Q.W._.Q.].T.+./.!.[.Q.'.o.W.W.~.~.~.~.>.~.T.W.XX'.@.U.'.{.'.'.'.U./.].[.=XY.:. . .>.:.5.",
"Y &.4.2.,...,.4.<.+X/.<.5.' P.P.=.{ { ( ` o.] / A.L.~ $.=.-.H.K.X.!.OXS.T.S.W.~.!.S.T.OX].@.P.U.P.Y.U.U.G.G.L.G.G.X.-.%. .>.>.).",
"Y ,.,.,.<.,.4.,.,.^.+X[.$X&X.X+X/.).#XH.<..X<X3X2XXX/.k.k.k.N.8X8XN.x.l.k.~.~.E.~.OXQ.oX2XK.Q.^.|.L.J.` [ ` ` @.P.@.X.` _ ) o.o.",
"L | ,.2.,.| ,.,.,.4.@X+X[.H.Q.Q.Q.].XX'.R.E.(./.(..XQ.b Z Z 6.7.6.7.u.V n T.>.~.T.!.Q.XXoX-.3.4.T.,.(.J.{.,X X[.+X1X'.[.+X=X2XoX",
"l ,.| ,.,.,.} ..,.,.(.+X'.J.P.J.H.Q./.H.H.R.R.^ y u e n 2 t s.y.i.j.i 1 M q u u W !.OXOXK.4.*...2.2.2.*.P.]. XH.H.XX|.{.]._.].<X",
"Y { ,.,.,.,.} ..,.,.(.+X'.R.Q.H.;.R.oXH.L.j u.c 9.j.x M a a & y.u.5 p u N z j.j.n i.g XXI.R.2.2.2.2.2.} H.K.'.].L.W.].].|.}.].3X",
"Y ` ,.,.| | | ,...,.4.$XG.} *.1.;.| E.k 9.c.N.Z u.tXe.Z c c 1 d z 1 x z 6.9.tX8XV m.c.r.P (.E.4.2.2.2.| H.K.W.Q.J.Q.K.K.'.XX&X7X",
"Y ) } | } { +.{ { { +.R.+.Z.#.A.} j Z v.m.eXaX8Xc p.x Z Z c e q q t v B 6.z p.n N.sXeXm.v.e.j 3.2...2.+._.H.R.].W./. XL.Q.}.].7X",
"~ 1.,.,.<.G.O.( O.O.@.$.$.[ v r v k.x.B.sXtXc.M - % + N C N Z u.u.q.M M V + % # M l.tXsXN.x.l.b g b L ) _.Q.-.Q.L.;.[.].H.H.].<X",
"W U.+X+X:X1X|./..X$X#X[.W v.pXC 2 s.eXeXu.x < + + - - # # # # * & # # % % = = # @ 1 z y.eXrXa.2 M tXqXl Y.Q.H.*.R.R.;.H.Q.'.Q./.",
"E 4X4X>X4X4X-XS./.E.].P tXb.7.6.C 2 7.c < $ + < * + + + M s.qXr q 8Xz.u X O + # , + $ 1 x V 2 C e.6.x.tXm ^._.H.<.H.1.&.T.Q.'. X",
"E 4X6X4X4X5X-X{ 5.E.P m.x.qXp.a 7.n X # X * % # + u u.p.x.b.j.c c j.n.l.y.y.u $ # # * . # . b 8.s i.rXx.B.D Q.H.H.<.<.} | -.].5X",
"W :X4X*X6X6X%X{ >.-.v.N b f v N c 6.X + # O @ u 6.p.c.b.rXaXZ r.r.A aXrXb.x.p.e.b = o # o   Z b b b s b N v.^.Q.K.K.].=.} } ,.<X",
"K 1. X*X:X4X%X{  .*.< b n z x c e.. + . O B u.l.v.b.0.7.C n v.e.e.n.b B e.e.v.n.x.y.Z + o @ . e.b d s b b , L.'.L.Q.^.Q.A.=.-.4.",
"W ] $.C.P.*Xh.o.Q.d A q v a.x x . + + 2 u.p.z.c.e.n v d x M B.y.r.B.b b s b b Z c.x.a.u.e . + . b d i.b e Z b $.#.( ) ( ) ( $.'.",
"(./.J.R.}.1X%Xo.H.k.n.pX9.+ x X + X q u.s.j.c V u.% > 1 d Z B.n.x.B.b x , > % 6.B f s.a.u.s X O X a # e.pXv.s.@.[.#.+.E.R.[.#X<X",
"J.R.J.J.].6X%X' m j.v.aXA - + . . d p.i.i.q 7.$ # 2 2 q q.Z 9Xu.i.N.N Z e 1 2 = @ 6.e i.p.r.b . . O & Z aXv.s.M 5.,.R.4.(././..X",
"<.(.^.[.^.).L.` u.z.eXrXu $ + . u y.i.y.2 q = > < , - t.M u.8Xi.p.0Xb.M y.; , y ; = e 2 u.u.y.; . + + i rXrXx.x.#.+.1.(.(.<.,.4.",
",.1.<.J.L.$XL.D 7.9XaXe.- o o   N y.m.> 1 0 b M < 6.i.d x.b.m.i.r.M.x.x.d i.7.# n b 2 1 - s.u.M   o + & e.fX8Xu.P #.H.<.R.H.1.4.",
"^.R.^.R.(.$XL.s M eX9.q . % . - 7.a.q M y.c t t C t 6.qXb r l.7.7.x.u b qXS t e.t r b r.M c a.7.1 . + o e e.qXp.d #.<.5.R.(.<.1.",
"R.R././.[.$XU.n s.M.x $ X X X d a.p.z r = u r * > i 6.6.i a m.9.e.b.d i 6.6.i r * r u - e c u.a.b . o . $ d M.M.M / | 4.4.(.4.<.",
"(.J.Q.(.<.e.x.v.M.a.r < = . o Z a.x q % 2 , a d c v > b j.M b.e.e.b.N s.b , b b i a , 1 % , c j.6.+   * 1 r p.v.n.c.t.,.4.<.(.J.",
").[.].J.,.Z s.M.B.a.b s * + + v 8.e.. , q > 9.x.j.n d 2 M 8.b.C C v.e.C 1 a b s.x.e., 2 , o e.8.b @ . & s b p.v.b.k.Z | ,.R.^.P.",
").(.[.4.,.: b d B B N d + . - > d z o > 0 < r t a M v 7.wXN.0.d d e.v.qX7.b M b t r , q > $ z a ; - + % f n Z A F d . <.(.R.+X=.",
"L.<.,.,.,.: N p.x.B.p.u &   # t t t @ < 1 q = M b Z wXV S N e.a.a.e.M 6.C qXZ i N = q 1 , & t r e %   1 b p.N.x.p.y $ R.J.^.[.[.",
"(.<.1.| ..: B * i.x.; u &   @ e r t + > < c 2 & Z c.c i y.x.8XsXsX0Xn.y.a x n.v.& 1 c < , # t r q @   2 b - k.a.& u & J.(.'.[.[.",
"$.$.1.L.[.: 7.e n V d f =   $ > u u + * v i 1 0.a.t q v.s.M.sXdXsXaXx.s.n.e t e.t.1 i b * # y u ; #   2 C d C N r z & [.L.U.H.R.",
"! ) ! W W : , e 1 t e x <   O = u u @ M x > - d t e rX0Xk.s.fXsXfXpXk.k.0XrXe - a = > d N = u i * +   & > & > > & > = ) ! ! 1.^ ",
"G.<X@X+X[.e.k.wXtXeXu.b t > & & u u 7.V $ 0 6.z 1 q A V.uXuXc.v.c.c.fXuXB.D q 0 z 9.0 # V 7.u u & & % t n y.wXaXqXj.e.G.G.O.|.' ",
"+.@X[./.[.t x 0.y.q.a 1 & % . > u q q 1 > ; b p > 6 6 7 J w.yXq.A uXg.U h 6 1 - u M - > < a q u > o + & 1 a q.r.9.z t /.!.W.H.^ ",
"O.^./.J.R.<.l s v t = . . X X t z q d + % p 9.> % F U G H G w.w.0.f.J H G m F % - r.u % + r q a t o   X X = r n p h J..X)./.].^ ",
"$.<.4.^.<.,.k a.c.l.b % X X o z x < > * # p.q.> % 6 w.w.J U D g g I J J w.w.0 % > q.a.% = # < z z o   X % n l.8Xa.j P.E.OX/.].^ ",
"O.^./.R.1.} k y.8Xm.c % X X o p z q . * t 8.c z - % M w I I d.= > f.w.I 7 n % = a v 8.r = . q z p o   . # x m.rXy.j ].!.!.(.!.^ ",
"@.J.^.^.H.|.E 9.x.b.a % o X @ x x 0 % C - = t x 0 & 5 4 g B N u p N F g 6 5 * = c u & > N 0 0 x x $   . % d m.9X9.j H./.R.!./.X.",
"O.;X1X;XU.=.k i.s.s.u % o X % M N u q 2 > . % v z % 5 + q x M e.8.M d 0 + % % d v % . ; 1 r u N M % X o % u j.c.i.h ( ( ` { H./ ",
") ,.(.<.'.*XQ 9.j.r.z & o o @ v n t y # = u @ q c x % 0 t t 8.x.x.9.p u 0 5 x c r + u = % 0 r b v % . o % a 9.j.e.k (.E.5.2.5.~ ",
"^ 1.<.L. X*XQ e.z.s.a = + o + x z r @ @ a % % @ * a p 1 q r < u.w.0 i 0 0 i d q % % % d @ o r z x @ . O * a a.x.e.j *.-.*.>.5.! ",
"' +XU. X;X+XP 8.z.a.z & o X o z z t   + i r v = + O a M b c & i i = z M M p + O & v q p + . t z d O   o & d a.m.e.j ;.| | *.5.! ",
"h.6X:X;X4X1Xk 6.z.a.a % X   o v a q o o . > * 1 s b = o a M.j., , a.8Xz . = v d 0 % , . o o q p b O   . & a u.qXA 9 2.,.| ;.4.! ",
"^ >X4X>X>X4Xk q.n.a.t # X & 0 = a 0 u r q ; . . O e c c > # z q 0 z % - v v q % . o - q q u 0 a = 1 * . # t a.qXZ 9 &...*.*.5.( ",
") {.iX>X>X:Xk N l.y.r $ X   - p q @ > 0 y 9.c % u , 1 z a.b c r q v q a.x 0 > q & x r.u 0 > % r i ; . X # r y.8XB 8 ;.{ { { 2.+.",
"| J.].|.[.<XP b p.q.0 + X   = q q % > q x % q 0 1 2 s + r > b t q b , r O i 0 % 0 r + x q - $ 0 2 = X . O 1 Z v.b 9 &X_.&X_.*.{ ",
"+.].(.#X[.+Xk s y.M 1 . o   - < 0 % 1 > = @ b q r q . < z 1 s , 0 p > x 0 . q > q M + = > 0 % 0 , - . . . , n c.d h &X{. XK.*.T ",
"} /.[.+X^.+Xb 0XtX9Xa ; +   % - 0 q = > 0 0 > = q c t & x 2 e B N q , x % q x q = > 0 0 > % q 0 * & . + - f B.tX0Xb :X:X4X:X5.T ",
"{ /.Q.@XXXh.> a 6.C < o . & e e 0 u % X o o o o o o + p t z p.x d y.B t d + O . O . o o X + t q e r * o o < N a.a ; h.4X*X:XQ.T ",
"} [.Q.Q.W.8.t.A c x b A c - + . q a y.p.i.a % z n v q.v Z u.r x.l.t 0.A v Z n C z % i p.p.u.a q o O # b A b x x A t.8.&XU.{.=X! ",
"R C.G.O.O.n.9Xj.i.a.u.8.b t $ & r t q q r 0 q 0 r t r x j.i u i.y.y t a.x t t t 0 r 1 r q q t t & @ , b 8.y.a.j.s.B.n.h.` ~ O.T ",
"L.1X6X X>.y.7.a.l.Z n c a t # , x N b V M V C C C b b M i C r b b t Z i n b n N C C C M C N N c < # , s c M Z a.a.8.r.G.*X-X=X*X",
"4X:X-X=XOX8.8.p.v.a.d u 2 - + , u 0 2 t 7.0 q v 0 t i i 1 i Z r e Z z < s i t q v q 0 7.u 2 1 u , + * 2 u f a.j.a.7.7.W.>.].1XXX",
"=X:X4X4X{.6.V 6.e.M u r > % . * 1 , - < 0 0 0 1 1 0 2 2 n e a a s a u b 2 2 2 < 2 2 0 2 < > < 1 & . @ > t u b Z 6.C 7._.W.S.T.=X",
"W.OX-X-X-Xp C M b x 2 , * o   $ % % # * - > > ; ; = = q ; ; , - - ; > - q - = - ; > > = & % % % #   X * , 2 d b M C p }.}.}.OXW.",
"W.T.XX6X6Xq q q 1 , & @ + & 4 =.} | <.( H.H.R.-.1.[.=.R.R.R.(.[.Q.[.[. X|.2Xh.D.`._.XX{._.`.}.`.'.3 % + + & > 1 0 e q >.!.`.OXXX",
":XS.T.}.-Xm a t s a 1 q 3 _ ( ~ T ~ o.! O.` C.#.O.$.O.4.4.^.(.+X[.^.'.+X'.<X' [ X.' X.Z.X.X.X.X.Z.Z.' 6 q 1 a b t z 8 | >.3.OX`.",
"=X,X`.~.=XiXiXW.[.+X/.'.U.@.O.Z._ ~ 1.} G.Z.o./ [ W $.4.(.U.4.(.+X,XU.+X+X<XP.1.o.! W ' F.X.h._ ^ ^ ] F.Z.h.' _ ] K :.*.| >.~.W.",
"OXW.`.T.~.iX%XA.R.W.!.T.#X6X7X7X6X,X3.oX/.@X2X2X$X4.` 1.^.^.(.U.U.^.;XU.'.+XY.,.;.=.} /.2XoX<X@X@X3X,X3X7X,X3X3X6Xh.{  .>. .>.~.",
">.oX}.OXOX<XD.S.T.T.T.].XXD.`._.].'.R./._.!././.$XJ.O.^.4.[.$XU.^.+X#X+X+X;X@.1.1.Q.&.>.!.A.].^.L.'.].|.&X[.|.|.1XY.~  . . .>.3.",
">.!.}.oXXXoXS.A.-.S.T.`.XXA.T.-.T.Q.Q./.Q.!.Q.W.(.U.` <.(.^.^. XU.L.+X+X;X:XZ.1.K.H.| <.Q.G.|.[._.'.^.,X&X X'.}.,XZ.{  . . .>.>.",
"T.T.!.`.}.XXA.;.!.T.W.!.=X;.-.T.-.T.R.T./.E./.Q.$XU.1.L.^.U.+X[.+XU.[.[.U.+XZ.U.{.L.&.*.(.@.'.|._.^.'.[.|.&X{. X1XI.~  .>.;.;.>.",
";.:.-.-.W.}.o.#.!.W.T.W.=XD.W.&X'.T.T.-.E.].^.Q.$X[.[ 1.Y.1.1.U.U.U.U.L.Y. X[ 1.U._.*.&.&.$.'.;X X{.{. XU.|.;X X&XI.~ :.>.-.;.-.",
"L l l l L _ ~ ~ X.] ] X.X.I.1X*X=X]./.Q.T.`.'.J.#X+XY.U.Y.1.O.O.) [ Y k k ' ^ [ h.' R { ) #._._.L. X;X|. X+X;X,X,XP.l L L l L Y "
};
