/* XPM */
static char *result[] = {
/* columns rows colors chars-per-pixel */
"64 64 240 2 ",
"   c #3F2527",
".  c #3E2528",
"X  c #5F251F",
"o  c #63251E",
"O  c #6B251D",
"+  c #72291E",
"@  c #792D1F",
"#  c #432526",
"$  c #4C2524",
"%  c #452A2B",
"&  c #532522",
"*  c #5B2520",
"=  c #513731",
"-  c #682C23",
";  c #742E24",
":  c #7E3121",
">  c #7C3B2C",
",  c #763429",
"<  c #763630",
"1  c #7A3A35",
"2  c #66352B",
"3  c #7D412E",
"4  c #754736",
"5  c #5A453B",
"6  c #6E5243",
"7  c #78694B",
"8  c #833322",
"9  c #8D3A24",
"0  c #883925",
"q  c #943E25",
"w  c #9B4226",
"e  c #994728",
"r  c #824431",
"t  c #874D38",
"y  c #8B523B",
"u  c #87563C",
"i  c #925A3F",
"p  c #8B4D25",
"a  c #A54828",
"s  c #AB4C2A",
"d  c #A14728",
"f  c #B3512B",
"g  c #B9552D",
"h  c #BE582E",
"j  c #A85A2A",
"k  c #9C6F31",
"l  c #A57A2D",
"z  c #C2652F",
"x  c #C26835",
"c  c #C77832",
"v  c #C05E2E",
"b  c #8A554A",
"n  c #935D42",
"m  c #8A5350",
"M  c #986848",
"N  c #8B784E",
"B  c #8A7756",
"V  c #977957",
"C  c #8B6C51",
"Z  c #A67957",
"A  c #A5754E",
"S  c #995E61",
"D  c #9E7573",
"F  c #946663",
"G  c #A97278",
"H  c #A77B7D",
"J  c #B37F7B",
"K  c #A2594D",
"L  c #A59134",
"P  c #CD8834",
"I  c #D08E35",
"U  c #D29535",
"Y  c #D9AD39",
"T  c #E2C53C",
"R  c #E3CB3D",
"E  c #E7D93E",
"W  c #9B875A",
"Q  c #9B854F",
"!  c #A7895C",
"~  c #B3855A",
"^  c #B0975E",
"/  c #998964",
"(  c #8D8265",
")  c #A78A61",
"_  c #B48B64",
"`  c #A59365",
"'  c #AB9465",
"]  c #AA986B",
"[  c #B39B64",
"{  c #B49D6B",
"}  c #BB9767",
"|  c #AB9C73",
" . c #B49D72",
".. c #B08976",
"X. c #B5A26D",
"o. c #BCA46D",
"O. c #BCA467",
"+. c #B6A374",
"@. c #BBA574",
"#. c #BDAA73",
"$. c #BDAB7B",
"%. c #B8A67A",
"&. c #AEA473",
"*. c #CB9255",
"=. c #C19B69",
"-. c #CBAD6B",
";. c #C6A867",
":. c #CCB26D",
">. c #D3B36C",
",. c #DAB46D",
"<. c #D6B96E",
"1. c #DBBA6D",
"2. c #C4AC75",
"3. c #CBAC72",
"4. c #C3AD7B",
"5. c #C8A776",
"6. c #C5B275",
"7. c #CCB374",
"8. c #C4B37C",
"9. c #CBB57C",
"0. c #CEBA7C",
"q. c #CBB978",
"w. c #D3B573",
"e. c #DAB672",
"r. c #D6BA73",
"t. c #DBBC73",
"y. c #D2B57B",
"u. c #D4BB7C",
"i. c #DBBD7B",
"p. c #DAB57B",
"a. c #D2A96F",
"s. c #E1BD75",
"d. c #E2BF78",
"f. c #E5C952",
"g. c #EDF443",
"h. c #EAE841",
"j. c #DCC176",
"k. c #DCC27C",
"l. c #D9C37C",
"z. c #DCC46A",
"x. c #E3C375",
"c. c #E2C57B",
"v. c #E5C97D",
"b. c #EACC7E",
"n. c #EBC97A",
"m. c #E8CE6E",
"M. c #AE7E83",
"N. c #AA8787",
"B. c #B69699",
"V. c #B48F8E",
"C. c #BEB388",
"Z. c #BCA6A8",
"A. c #BB9CA0",
"S. c #C4B383",
"D. c #CBB482",
"F. c #CCBB82",
"G. c #CABB8A",
"H. c #D4BD83",
"J. c #DBBE82",
"K. c #D3BE8A",
"L. c #D1B384",
"P. c #C9B186",
"I. c #C1ABAE",
"U. c #C0A7AB",
"Y. c #C2ADB0",
"T. c #C6B4B7",
"R. c #E0BC80",
"E. c #D4C285",
"W. c #DCC484",
"Q. c #DECA85",
"!. c #D4C38B",
"~. c #DBC58B",
"^. c #DDCA8C",
"/. c #D6CB8E",
"(. c #D4C592",
"). c #DCCC93",
"_. c #D9CA97",
"`. c #DDD195",
"'. c #CFC58D",
"]. c #E3C584",
"[. c #E4CA84",
"{. c #EACB85",
"}. c #E2C68A",
"|. c #E3CB8B",
" X c #EACD8B",
".X c #E8C785",
"XX c #EAD185",
"oX c #E5D18C",
"OX c #EBD38D",
"+X c #E9D78A",
"@X c #F4DC8D",
"#X c #F3D488",
"$X c #E3CD92",
"%X c #E9CE92",
"&X c #E0CF9B",
"*X c #E5D394",
"=X c #EBD393",
"-X c #ECDA94",
";X c #E5D49A",
":X c #ECD59A",
">X c #E7D99C",
",X c #EBDB9B",
"<X c #E7D995",
"1X c #F1D593",
"2X c #F2DC94",
"3X c #F2DC9B",
"4X c #F5D998",
"5X c #F1CF93",
"6X c #EEE09B",
"7X c #F3E39C",
"8X c #F6E599",
"9X c #F4E18E",
"0X c #D7CDA4",
"qX c #DCD2A5",
"wX c #DFD9BB",
"eX c #EBDCA3",
"rX c #EBDDAB",
"tX c #E4DAA7",
"yX c #F2DEA3",
"uX c #E8DDB2",
"iX c #EDE1A4",
"pX c #EDE3AC",
"aX c #EBE5AD",
"sX c #F3E4A3",
"dX c #F5E8A5",
"fX c #F8EAA4",
"gX c #F2E5AD",
"hX c #F4EAAC",
"jX c #F9ECAA",
"kX c #F9F2AB",
"lX c #EDE5B4",
"zX c #E9E4BA",
"xX c #F2E5B2",
"cX c #F3EBB3",
"vX c #F5EDBB",
"bX c #F9EBB3",
"nX c #F9F4B5",
"mX c #F7F1C4",
"MX c #F5EECA",
"NX c #DAD4C2",
/* pixels */
"D.cX%X}.!.^.<X8XkXkXkXnX<XG.eXrXyXOX%X2X:X3X7X X) 7X+X2X8X7XkXlX(.sXyXyXK.}.1X4XsX3Xn.#X} #.=XsXjX<X>X7X!.).`.,XkXdXR.5X.XR.i.$X",
"! v.[.[.9X+XXX+X7X+X+X9X+X'.=XOX].[.|.=X4X%X=X=X4XZ i.].v.r.{.oX$.J. X X1X X X.X.X.X{.#Xw.8.).*X;X<X` sX7XrX>X*XjX`.e.1.,.,.s.8X",
"N <.j.t.j.v.l.l.[.k.XX9XoX4.i.n.c.|..X X}.=X~. X8XoXu.x.{.].].|.4.:X X}..X%X XW.].R..X5Xi.F.$X<X>X*X9.&X7 (.+./.>X'.d.,.,.,.s.@X",
"W j.l.x.k.[.l.oXoX+X^.XXv.[ -.w.i.[.W.=X% 4X .= W.|.u.{.XXoX{.=X@.}. X X}..X.X.Xd..X.X4X~.F.).,X,X*X*X*X$.. ,X  `.).-.>.,.,.1.@X",
"W r.j.r.l.XXXXoXoX2XoX[.+X8.*X;Xu.k.[.].. . $X. # ~.3.OXXX2XoX*X4.}..X.X.X.XR..X].].}.3X;X9.`.<X*X*X<X8.. $.*X# &X'.a.,.,.s.a.b.",
"Q r.v.v.j.<.j.k.Q.7X+Xl.b.8.!.~.y.-.2.o.& $.V . . ~.[ q.u.K.E.W.@. X5XR..XR.].]. XJ.].1X*X8.!.^.!.!.F.# ; u.~.; 9.8.i.w.,.s.d.@X",
"Q l.j.j.k.j.v.x.j.[.6X9X9X,X-X7X+X#X8XQ.; 2X5.. C.3XXXW.l.^.6XiX@.R.5..X]..X.X{..X5X}.4XsXQ.^.oX,X^.o O +.#.! 3 E.8.2.#.+.X.5.o.",
"N <.<.x.z.<.<.k.j.b.7X6X<XW.|.|. X=X3XoX=.[.O t XX2X$X*XOX2X8XiX@.].t R..XR.d..X]. X X~ :Xl.v.b.[.M O O ;XiX<X<X6XjX*X<X7XsXdX4X",
"B <.z.j.j.j.:.z.l.j.+X6X<XW.~.W.Q..X=XJ.W.M O ; [.<X=XQ.k.[.b.+X4.}.].0 r .X].}..X X%X5.M a.s.t.x.s.O O r *X;X~.Q.,XeX*X:X|.*X8X",
"B :.7.<.r.z.>.<.j.j.XX<X<X[.|.W.w.[.OXQ.|.O 8 O O u.c.v.r.<.<.x.{ }.|.%Xi $ _  X].}.:X4X< O ,.x.x.1.M O f 8  X=X^.|.=X*X,X:X:XkX",
"( :.j.j.<.>.<.r.<.z.XX9XE.7.i.l.w.w.{.3.9.O h f 8 ; i.[.l.j.1.x.o.R.}.}.a.- . C  X$X5X3X^.- > n.x.x.x ; 9 h p.|.W.|.~.^.*X3XsXnX",
"W O.:.:.-.-.7.;.;.;.q.Q.q.S.q.u.:.>.x.#.y.h c P z f 9 k.c.c.n.v.{ y.y.p.p._ # . L.}.J.5X^.M * j.1.*.h q h h e.*X].=X*X|.|.,X=XnX",
"X.j.j.j.j.E.6.X.#.q.8.0.q.C.'.(.O.;.>.[ p.T T T T Y h _ [.[.k.XX0.].^.~.k.H.V # # %.4.D.S.} . 2.t.h h h h h h [.~.u.+X=XW.W.$XfX",
"` `.tX>XlXhX,XOX8X2X9X-X@X8X2X4X@X2X@X2.c.T T h.R T z a.[.OXOXb.u.XX.XXX{.2X} . # =X.X7X4X3.. E. XP U I Y U h i.[.|.t.W.|.*XoXOX",
"( lXaXpXlXcXuXJ.XX{.OX|.].[.|.+X X-XsXF.[.T h.h.g.T c XX[.oX[.[.7.c.]. X].=X} . . }.p.p.i.=.# 3.:XT R R T T P W.k.c.k.r.[.|.=X;X",
"( zXcXxXzXzXuX;.n.{.{..X].]. X1X<XOXkX0.Q.T h.g.g.T T 2XoX<X+XoXy.W.].=X=X3Xt # . R..X}..X .  3.d.T E g.h.T P Q.E.i.W.-.:.j.=XzX",
"/ aXaXpXxXvXqX;.s.x.{. XOX X=X X X{.8X9.!.m.E h.T T f.3X=X{.OXoXq.{.[..X1X%X$ . # i.}.R.}.%.# 5.}.f.R h.g.T T ).~.Q.OXu.:.>.l.sX",
"B H.,XtXaXlXqX;.1.i..XOX X X1X=X=X.X@XE.9.`.T T T T *X|.oXoXOXQ.7.|.|.}.5X- $ .  .}.%X}.~.1 . P.~.m.T R R T T =X^.|.oX|.H.q.k.v.",
"/ #.9.G.!.uXC.o.|.c. X3XeX~. XOX Xn.#XW.E.`./.z.m.D.8.9.0.8.4.4.) } q.H.5.O . . } }.}.&X; $ # K.$X=Xm.R T z.9.0.8.o.X.o.X.o.u.*X",
"XX=X[.[.,XxX_.2.W.W. X*X,X=X.X].c.c.b.c.`.,X<X-XsX1XV > > e g g g : ; eXL.O # $ - Z }.L.- # = 5X1X3X7Xu.Q.oX~.|.=Xu.7.{.[.-XfX8X",
"Q.^.Q.[.=XvX_.$..X=X=X,X,X1X].].i.d.b.3.O.:.:.u.3.} g h h h I I h h f O O     q h q =.o # $ P.}.}.:X3XJ..Xi.{.].v.t.[.b.XX+X=X2X",
"k.XXXX<XoX#X/.#. X,X=X X1X=X[.].].^.:X2.O.;.-.O O g g O f T T T h h h @ O O * f h h ; * # 5.}.&X~.$X;Xy.s.w.w.i.{.7.l.+X+Xj.j.v.",
"j.l.k.v.|.9X/.6.|.OX=X,X*X.X.X.X=X=XjXF.2.2.y O d w @ O O T T T h h d f h - O O 8 0 ; $ L.;XeX;X&XeX;XK.a.e.i.i.XX0.W.l.[.k.l.v.",
"XX{.oX[.oX9X/.+.J.{.=X=X=X X=XOX X{.{.2.7.O O p z z h + O l T Y h h a f f . - O o X O # O eX:X:X$X5X$X}.i.r.].W. X9.k.b.[.oXk.l.",
"Q.oX+XOX+X8X^.W ' ' ] $.S.#.X.' W W o.` 3 O s T T Y x e O e c z h h a f w   = O $ L - $ a t (.!.K.%X_.K.4X].W.J.}.o.>.v.b.XX[.l.",
"oXQ.oX|.v.b.+X^.cXdX>XdXiX~.,X;X).~. X> O O h Y T T c d O h h h h h a O O O O X & $   * g j 0 / / | S. .S.4.{ 5.4.W <.j.c.l.oX[.",
"2X-X+X[.c.-X^.!.:X;X*X;XjX$X<X*X2XsXr - O O h h z z h + O h h h h h a O l o O o O X   9 h I Y 3 R.$XyX(.~.~.K.(.uX` >.>.j.v.XXQ.",
"#XOX+Xv.l.x.j.S.:X&X~.~.dXF.-X).~.y 9 c : O : w - X O $ & 8 h h h d O O X L l l O . . 9 h h U j =.d..X_._.$X XyXMX .x.l.oXoX<XE.",
"Q.l.l.z.t.+X'.K.).;X$X^.=XK.-X:X*Xa c R w O $ .     . . . & h h s O O O $ o . o $ . . 0 h O O h y ,.t..X3X X{.yXpX&.l.Q.Q.oX<X<X",
"|.W.j.r.1.-X!.S.).$X$X*X=XE.,X=X+ f c T h 9 O O .     #   & h h h d O O X . X $ . # O O O * O s i s.d.3.s.i.i..X+X$.Q.Q.oX+X-X2X",
"q.q.l.^.<XdXS.'.).$X).$X:XE.*X} 8 h f f q O O .   # O O # & f h h h h : O O     # $ O O # . o O 6 i..X].W.].J.].OX#.Q.<XoXoXQ.[.",
"[ X.` / ` _.S.S.D.D.9.D.4.H.=Xt 8 8 O O O O . . # O O O * # O s h h h h 9 O O o O O O # . . .   n e.].].].[..X[.2X+.#.X.] ] 0.| ",
"E.fXsX6X2X<XXX+X{.:.E.[.r.G.oXo O O X * . B !.:X. O O X O * . & s s a s w O O O O O # . . . . * }.J.]..X}.}.%X%X3XK.!.Q.K.8.,X%.",
"q.7XoX+X-X,XOXoXiXcXiXvX0.0.n w d O . W.$XdX>X=X. O O . # O o   $ O O $ O O O O O X # . . . . ;. X}.}.1X%X$X%X%X3XH.3X=X X].Q.| ",
"7.oXoXQ.[.l.c.6XvXcXhXmXqX9.O s h : =X3X>X3X<X=X& X   . . $ O #         X X X . . . . . . # ) .X X1X$X}.%X5X&X3XsX~.Q.1X1XOX=X| ",
"0.l.[.XXl.v.Q.l.,XaXiXvXtX' g h h 8 _ *X^.+X*XoXZ O O O O . . . # O     . . . . . * . . . & ].].]. X:X%X%X%X5X%X=XH.W.{.OXOXOX| ",
"8.{.<XoXl.:.j.).`.6X^.+XoX! h h s O ~ *X<XQ.7X3X_ O O X O & . & . & & & .   & 2.5.- . . # O > }.}.%X^.$XyX$X;X%X=XD.=XoX{. X X| ",
"6.Q.Q.oXE.>XiXcXaX[.^.XX+X! h h s O Z E.E.8.l.^.2XO O   O O   O O - % = , /.|.=X*X* . . O O , .X~.}.|.$X;X;X$X}.$X$.W.OX{. XOX$.",
"6.iXhXiX`.j.l.E.l.l.[.Q.XX2.h h s O oXE.E.W./.u.    $ O   # * * & $ ].=X~.|.|..XW.} * $ O O :  X=X;XL.{ ` +.S.P.K.@.o.o.@.;.W.{ ",
"O.l.XXk.*XeXiXpXcXaXdXmXtX;.O s O u dXsX,X+Xo O & # . . . $ X o u $XW.*XH.l.W.$X=X$X~ O O q @ a.#XOXjX{.J.].=X@X3X7X+Xb.b.n.n.X.",
"[ E.E.Q.>XtXO  .bXvXcXcX,XE.O O y ,X,X^.0.$ . $ o O   . . . . . 5  X|.|.^.~.^.|.|.|.E.O O q Y p } oXsXH.].^.H.i.v.[.i.t.t.s.b.[ ",
"$.>X<X>XiX>X6 O G.aXiXiXi.O O O =.7X7X~.$ . . . . X # . . . . $ #.W.W.|.oX|. X^.|.|.W.w.O O h L O c.#X!.;XeX).w.e.v.r.w.>.r.{.` ",
"C.cXaXtXlXhXhX$ O t v.3 O O O O +XoX{.$ . . . . . $ O . . .   O 3 3 k.W.u.{. X^.W.=X X X, O h z a r fXeX^.lXrX~.-.>.x.t.>.t.v.` ",
"| iXaXaXpXaXeXE.! & O e h s O O k.|.[ & & $ . . . # O . . .   &   X u } 3.E.u.0.u.q.S.H.@.i O 0 h 8 ,XqXgXvXrX|.,.-.,.1.r.t.b.o.",
"O.>XzXzXrXlXqX0./.(.n O g h O O r.M 8 h w O $ . . $ - . . . O $     . . O O #.#.9.!.0XqX_. .O O O O Z _.O vXvX^.;.;.r.;.;.;.x.7.",
"7.].-X3X<X8XkXiXlXxXH.~ O 9 O - :Xt h h h O & . . $ O . . . O $ . . . .   $ M L.sX7XsXvXrX=Xa.O O O t , O O 4.tXr.r.eX$XeX$Xt.-.",
":.=XOX7X<X8X>X~._._.W.>.y > O ; tX< h h g O $ # # $ O X     - . . . . . . . . o O i..X.X&XH.y.~ O O - O & O O uX>X{.eX:X>X~.t.! ",
":.OX-X-X=X7X>X/./.E.w.>.;.a.y.A.Y.N.K 8 : O $ * * O 5.} O o * . . . . . . . . # o > w.u.%X=XJ.W.} O - . # O O ; _ =XpXaXaXaXv.! ",
"-.OXoX6X7X8XoX`.).W.-.:.-.;.-...Y.G G G S < < }.W.W.}.:X;XK.A & . . . . . . . . . $ O J.].|.*X*XK.O ~ $.6 * y - O rXvXxXrXrX*X! ",
":.=X|.|.|. Xu.!._.0.w.w.:.7.7.Z.T.Y.G G G G G G V.5.^.*X;X,XeXZ * . . . . . . . . o O > J. X|..X}.O > { ^.# ;.$ O rXrXtX|.>XsX` ",
"^ F.E.6.7.l.^ o.&X&XH.u.9.H.T.V.T.T.T.V.M.G G G G G G ..%.S.!.P.M 2 $ $ # #   . . O - 9 - R.|.H.W.0 O ! 4./ #.V K.K.C.G.o.[ 3.! ",
"^.hXxX>Xx.#Xo.$.u.|.W.u.!.4.1 Z.T.T.T.T.T.G G G G G G G G J J eXoXl.j.r O O $   * O s h g 5.~.|.W.J.d.# ) [.XX{.2X,XqX~.tXlXrXtX",
"xXxXuXrX=X2X0X@.H.~.=X;X5.q - m T.T.B.I.N.T.T.B.B.B.G G G G G G H 9.oX@XOX7X] _ O O s h h 5.5X|.}.W..XJ.$Xu.t.c.{.n.}.{.c.=XgX3X",
"rXgXxXxX;X3XqX$.E.^.W.H.> h O O 4 Z.T.T.I.U.D T.Y.U.T.B.G G G G G G G G L.3X| !.O O O h h 5.%X|.|.]. X(.eX&Xe.t.{.i.~.=X}.i.}.yX",
".X XrXuXxXgX0X4.^.|.$XH.x h O O O $ C F O O D T.m b Y.T.T.U.A.N.G G G G G G G G S m ; ; g 5.3X$X$XW.{.~.eXpX~.-.1.x.}.yX4X3X=X}.",
"~.].yXbXvXMXNX4.}.;X$X~.x 9 O O X # A o.r O o < T.T.T.T.A.Z.T.T.T.T.T.T.M.M.M.M.G S O O n %X:X;X%X$X|.&XvXxX*X>.,.-.w.].}.%X=X4X",
"yXW.].3XuXMXuX| 4.F.8.8.x ; O & . . o.' 9.O O ; 4 S F N.+ F T.T.T.T.T.T.T.T.T.T.Z.2 # - 4.4.4.4.S.S.$.S.rXqX!.[ ;.[ ;.,.s.c.#X%X",
"yXyX$X XeXMXMX}.<X>X*X*X, O o # # ] k.-.E.G.#. .M O o O O N.N.6 F T.T.T.N.N.D T.B.  # Z P.S.%.+. .` +.S.S.S.$.%.@.B >.1.>.s..X}.",
"1X}. XR.}.mXqXD..X.X X> O O # . 7 rXc.4XoX8XjXdX8X[.t O O < O O T.T.< < m O Z.Z.% # O OXsX,XfX7XsXjXdXjXcXsXfXkXcXC.O.,.s.,.d..X",
"s.1X:X:X5XdX~.J.].].p.o . . # B -X$X[.OX|.$XOX%X2X[.2.c.=.O O O m O O O - O o & # O Z t.{.H.=X|.^.*X<X7X>X,X>X6XjX'.} ,.,.,.d.d.",
"d.{.3X:X4X1XH.y.J.].i O O & # 2.].{. XoX X X|.Q.{.^.2.l.+XQ.<X{ O - O - O O O . * - -.x.|.E.6X<X$X*XoXsX6X;X*X,X6X'.;.e.,.e.e.d.",
"R.}. X%X4X8XL.i.{.R.n 9 g > . 3.k.].Q.].OX.X=X|.2X*Xq.^.Q.+X6X+X8X`.+X6XS.# . . . * O O } ! *X,X*XoX*X<X>X6X;X>XhX_.} ,.s.r.e.d.",
"r.w.i.p.|.,X4.y.}.}.A - - & . . $X}.c.i.[.=X*X.X9X<X#.E.l.'.E.<X`./.`./.'.6 5 . . .     o o # G.<X*X;X>X`.>XiX6X6X'.[ 3.s.r.p.i.",
"C 7 7 7 7 +.{ { 5.%.5. . .G.tX_.>X=X X|.}.%X X|.7X6X!.oX'.l.#.q.&.&./ 7 7 $.| ] | &.! [ ^ o.G.!.^.>XiX,X>X6XiXiX7X_.7 N C 7 N W "
};
