/* XPM */
static char *result[] = {
/* columns rows colors chars-per-pixel */
"92 92 124 2 ",
"   c #020202",
".  c #080707",
"X  c #070808",
"o  c #0C0B0A",
"O  c #0D0F10",
"+  c #141413",
"@  c #191614",
"#  c #1A1817",
"$  c #171919",
"%  c #1D1C1B",
"&  c #221F1D",
"*  c #21201F",
"=  c #242322",
"-  c #2B2623",
";  c #272827",
":  c #2B2926",
">  c #242728",
",  c #262A2B",
"<  c #2D2C2A",
"1  c #302E2B",
"2  c #2E302F",
"3  c #33312E",
"4  c #2E3131",
"5  c #343534",
"6  c #393733",
"7  c #363837",
"8  c #393836",
"9  c #373A3A",
"0  c #3A3D3C",
"q  c #423D35",
"w  c #3D403F",
"e  c #47453C",
"r  c #3A3F40",
"t  c #3D4243",
"y  c #3F4749",
"u  c #414646",
"i  c #464946",
"p  c #414749",
"a  c #444B4C",
"s  c #484E4E",
"d  c #524C42",
"f  c #4D514F",
"g  c #54534B",
"h  c #58554C",
"j  c #5D5A4F",
"k  c #464F50",
"l  c #484E50",
"z  c #475152",
"x  c #4B5355",
"c  c #4D5659",
"v  c #4F595B",
"b  c #515653",
"n  c #565953",
"m  c #5B5C54",
"M  c #505C5E",
"N  c #595E5A",
"B  c #5B615C",
"V  c #646155",
"C  c #6A6455",
"Z  c #62645C",
"A  c #6B6758",
"S  c #6C685A",
"D  c #525E61",
"F  c #546265",
"G  c #5C6563",
"H  c #5F6867",
"J  c #576669",
"K  c #596668",
"L  c #57686C",
"P  c #5A6A6D",
"I  c #5B6D71",
"U  c #5E7175",
"Y  c #616762",
"T  c #646962",
"R  c #6B6C62",
"E  c #636D6B",
"W  c #696F69",
"Q  c #716F61",
"!  c #64706E",
"~  c #6D746D",
"^  c #747161",
"/  c #787260",
"(  c #71766D",
")  c #76786F",
"_  c #7C7B6C",
"`  c #637272",
"'  c #6C7672",
"]  c #6D7A76",
"[  c #637679",
"{  c #64787C",
"}  c #6C7C7D",
"|  c #737A74",
" . c #7A7C72",
".. c #717C7A",
"X. c #797E7A",
"o. c #807C6D",
"O. c #75817E",
"+. c #7D837B",
"@. c #80857B",
"#. c #83897F",
"$. c #677C80",
"%. c #6F7E80",
"&. c #748384",
"*. c #7C8581",
"=. c #768789",
"-. c #7B8B8A",
";. c #7A8E90",
":. c #7E9293",
">. c #808681",
",. c #848A83",
"<. c #8B8F86",
"1. c #828E8A",
"2. c #85908C",
"3. c #8C928B",
"4. c #92948A",
"5. c #849393",
"6. c #899491",
"7. c #8A9896",
"8. c #85989A",
"9. c #9BA29D",
"0. c #8FA1A1",
"q. c #91A2A0",
"w. c #9DA8A5",
"e. c #9AAAA8",
/* pixels */
"e.w.9.3.3.4.4.o./ / / / / / / / / T F c x :     + - - 7 7 - 7 w t x ~ ,.#._ / / Y D M l 0 6 2.w.9.3.3.4.4.o./ / / / / / / / / Y D c z , + -.q.8.8.8.:.[ { { [ G V Z +.+./ / E B c l <   ",
"0.6.*...| | | ) ^ Q Q R T T T R Q T F M x 7 $ t f n h Z V e h B Y W (  .' ~ R T F M M c 0 6 -.6.*.....| | ^ ^ Q Q W T T R T R T G M c 7 = +.2.O.} } { I I ` ~ ! G H ~ ~ A Z F v M c 7 + ",
"5...Y F F F G R S T T G F F F G T T G F M u 8 &.1.@.+.+.+.Q ^ _ +.@.( G F F F F D M D M u 6 %...Y F F F G R R Y Y G F F F G R T G F v y 8  . .G F F F F F T ^ ` P F F F F F M v D M u < ",
"$.I F F F G Q R T F F F F F G T Z G F F F z a =.O.W H L K F Q ^ W R T F F F F F F D v D x y I U F F F Y ^ R T F F G F F G T T G F F F z u Z H F F F G T Q R F F K F F F F F F F v D k r ",
"{ I F F P I Y G G G F G T G T T G F F F v y w &...G F F G R R T G K K F F F F F F F D F l 7 L I F F P ` Y G G Y F G Y Y T T G F F F v t 7 C G F F P U ` E G F F F F F F F F F F D D l 3 ",
"{ I F G U U F G G G G T T T Y G F F F F x w 8 } { F F J H R Y G F F F F F F F F F F F D u 3 L I F G I U F F G Y G Y T Y Y G F F F D x t 8 A T F G P U U J F F F F F F F F F F F D D y - ",
"{ I J T ` U F Y T F G T T F F F F F F F x u y I P F F U U F F F F F F F F F F F F F F v t 3 L I F T ` U F Y Y F T T Y F F F F F F D x y i A S K / T F F F F F F F F F F F F F F D D t - ",
"U U F R E J F F G G G G G F F F F F M c v z y I I F Y ` U F G G F F F F F F F F J F x a 7 3 J I G R E K F F G Y G G G F F F F F B c v k i A ^ R R G F F F F F F F F F F F F L F x k 8 : ",
"{ ` T T G F F K G Y G F F F F D F F v c F x u I ! T T E P G G G G F F F F F F F F v z y 7 9 P ` T T G F F G G G F F F F F F F M M c D c y G ^ ^ T G F G G F G F F F F L F L F M k t 0 2 ",
"U ' ^ G F F F Y Y F F F F F v v F v v F F z y U ~ / T G G T G G T F F F F F L U v z s t r y I ~ Q G F F F Y G F F F F F v v F M M F F z y U Q Q S G G T G G Z F F F F F F I M z k t r r ",
"Y E ` F F F F F F F F F F F v c F D F F F x y ' _ ^ T T G G G G K F F F F L P P v k s t 7 5 N E ` J J F F F J F F F F F c c F F F F F x y ~ _ / T T G G G G G F F F F L P I v z k t 7 < ",
"Z H P J F F F F F F F F F v x x F F F F F x a O. .^ R T G G T T F F F F L F D F c z s y 0 8 n G I F F F F F F F F F F v x x D F F F F x k +.+.Q R G T G T G F F F F L F F M c x k t 0 5 ",
"m N F F F F F F F F F F D z k x D F D F F x a _ _ ^ T G G Y Y H F F F F L v z x c c l u t t n N F F F F F F F F F F F l k c D D F F F x i ) +.Q T G F Z G G F F F F L v z x x c k y t t ",
"x v F F F F F F F F F J J x x v F M M F F x u S ^ T F F F F F F F M D F x c v M D D c l p t s v F F F F F F F F F J J x x v F D M F F z u A Q T K F F K F F F M D D x x v B F M c l p r ",
"s x v F F J F F F F J F v c v D M D D F F x t Z T G F F F F F D M v D v c v F F F F M x a t a x v D F F F F F F J F v c v D v D B F F x u Z T G F F F F F F D M D D c v D F F F D x p t ",
"l k x D F F F F F J J M x v M D v D F F F x y B G F F F F F D D v B M v v M F F F F F c a t a k x D F F F F F J J M x v M D v D F F F x t B G F F F F F F D v D v v v F F F F F D c a r ",
"l l x D F F F F J I c x v D M M D M v F F x y v F F F F F F v D D D D F F F F F F F F F l t a l l D F F J D L P c c M D D M D D M F F x t M F F F F F F M M F v M F F F F F F F F F z t ",
"l l v D F F F L F v c v D M D D F D D F F k 7 c F F F F D D D D D D D F F F F F F F F F a 7 p l v D F F D L J v c v D D M D D D v F F k 7 v F F F F F M M v M D D F F F F F F F F F a 3 ",
"l c M F F F D D M l c D F M D F F F F F D u < x D F F F D D D D M D F F F F F F F F F D p 1 a c D F J F v D D l c D D D D F F F F F F u 2 x B F F F D v D F v F F F F F F F F F F M y - ",
"M M D D L F l l l l D F F D F D F F F F v t < z D F D D F F F F F F F F D F D D F F D c u 1 l D D D L F l l l l D D D D D D J D F F v t < z v F F F F F F F F F F F F D F F F F F v t - ",
"c c x x c c l l l c D F D x x x v F F F c 4 + a c x x x c F F F F F F D c l c c D F D c 0 1 s b c x c l l l l v D F D c c c M D F F c w 2 f x x x x v F F F F F F D x x c v D F F x 4 X ",
"4 9 q r 0 w p r t s x x x a p u t a k y 4 $ X 7 e 0 0 0 y x a a x x x x a a p u s k p r < % 8 r 0 0 0 r a t r l x x k p p p w s z u w : # , 5 w 0 0 t x a a x x x x k y p t s z y 4 $   ",
"+ = 3 1 3 6 u 6 6 i u u i u i u 3 0 0 : + X X : 3 3 1 3 6 u 7 5 t r r t t t 0 5 r r 1 1 # o & = - - - < 0 1 < r r r 0 0 r 7 : 5 7 - - @   O * 5 4 5 7 y 7 5 r t t t t t 0 < 0 8 < O X   ",
"-.>.) V C C S C C S S S S S S S C N v s t 4 < H | ~ V V C A V n k r y k a a x K P F s p 7 * = = = = = - < - = > > = > = > = - : : * * % > G } { P L L I x t t p k k x x x k s a u t *   ",
"0.2.) T T T T Q / Q Q R T T T T S T G M c 0 6 } *.( H T W ~ W B c x s p l M K E ` H D c 0 - = = = = = = = = * = * * * * > * > - - = * * < ' +.] I I I I D l p y k x M M M D M c x z 4 + ",
"8.%.Y F F F G R R T T F F F F Y T T G F M u 7 ] ] G F J P [ Y H F Y b t a P { T T G D D u < = * * = = = = = * * = = * * * = - - - - * * ; ~ ( G F F J J F M l y k v F F F F F M v x w - ",
"8.%.F F F Y Q R T F F G F F G T T G F F F k y I I F F I ` T G G T T b t l ` &.W K F F D x 9 = * = = = % = = * = = * * * = = = = - = = * - B G F F I U D F D c k c D F F F F M M F c t - ",
"8.%.F F P I T G F F D F G Y T T G G G F c y 7 P I J I P L G G G G G F F l P ] G F F F v t 1 = = 5 E ! E P M a 5 > % % * = = = = * = * * : V T K I I L F F D D x c F F F F F D M v B u - ",
";.{ D G ` ` F F F F F Y T T T Y G G G D x w 7 P I J I L F F G G F F P I D I U F F J D x r < = - 0 5.5.=.=.{ F a 4 = % = = = - & * - * * : C W P ` H F F F D D c v v F F F F F F v D a 2 ",
"{ I F T ` U F F F F Y T T R G F T G F F x a y I I F F F F F F F F F F J [ { U F F F D c a 0 < - 6 -.[ F F F G T a 4 = = = - = - - - * = < V ~ [ E F F F D D M D c x D F F F F F F v z t ",
"{ I F R E K F F F F G Y T G G Y G F M x v k y c D F F F F F F F J D F F L U U J F F D M l 0 : * 7 >.' D F F v a 5 > = - & = - - - * % & 1 V W E G G G F F F D M c x F F F F F F F D y 2 ",
"$.I T R F F F F F F G Y Y F G G F F M c M x t u x v M F F D F F J F F F D L I D F F F F x 0 ; * 5 | ! F F J v r > = = - q s s s i i u i g G Y N G G G F F F F M c k D D F F F F F F a 4 ",
"[ ' Q F F F F D F F Y G F F F F F M M F F x t t p l c D D c D D F F F D M D D F F F F F x w > = 3 B G F F U F w ; * ; * ! 9.:.;.-.+.,.#.+.O.F f B G F F F F F F c z D M M F F F F F x t ",
"Y W ` J J F F J F F J K F F F F F D F F F x t y p u l x c D D D F M M M D M M F J F F F z 9 > > 3 A G F F W j 2 : * * * B <.1.&.{ E } [ P L c a Z G F F F F F M c c x v F F F F F F x t ",
"V G I F F F F F F F F F F F F F F F F F M z t a l k c c v c x c c c M D F D D D F F F F c 9 > * : e B Z F T g = - = ; 2 B +.O.` P F P P F F z y B L P F F F F M M M v v M F F F F L x t ",
"N N F F F F F F F F F F F F F F F F F D v k t s c v F D D x x x z c M D F F F F F F F F z t * $ * * g Q G B i * * * < s ' +.[ P K F F F F v z a M U U L F F D M D F F D M F F F F L x t ",
"l M F F F F F D F F F F F F F F F F D v v s t x M D F F F D F D D x c F F F J F F F F F x 0 ; = = - g Z T f 7 = * * w -.-.[ L G G F F F F y u z D F I U I F c D F F F F F F F J L v a t ",
"l x v D F D F J F F F F F D F F D v x x x a t x D F F F F F F D M M M M F F F L F F F F a 3 = * * = w B Z s 7 * * & 5 7.;.` R G F F F v a a v P } U U U U L D D D F F F F L L J F x u t ",
"l l l D F J F D D F F J J J D D c x x x x a t x D F F F F F F D M D D M F F J L F F F F y - = * * = 2 w n t 4 * * * 5 5.-.' ^ G F F D y 0 x K } &.O.U U U I F M D F F F J L L F v x a 9 ",
"l l x D F F F D D F D L I I F c k v D c D z y x D F F F F F F F F D F F F J J M v v F v t - - = * - = = * = ; * % * w -.+.^ R G F F y 5 , L ! T T K F F F F F F F F F L L M v M F v t - ",
"l l b M D D M D F I L D D v c x M M M D M a 5 a M D D D D F F F F J D F F L L v M D D l 8 - = = * : * * * * : * * * 7 { ' B T G M a 7 * $ F ! T K F F F F F F F F F F J F c M M M M y 7 ",
"l v v M D D v D F F F M l l l c v M M D v t < p b M M D D F F F F F D J F J J D D D D t < % % * * = * * ; * * * * 8 i P L G G B y , > $ $ v P G F F F F F F F L F F F F F v D D v z y 7 ",
"M v M D M M D M x l l x c l v M k M D c v w 1 u x M D M D D F F F F F J I D M D M c x 3 +   % * * = * * * * * : < B +.L F F F y ,   % * > k v F F F D F F F F F F F F F F F F M b t 4 * ",
"v M D M v v M x l l c c x M v c D M M D x 0 < u l x v M D M D F F D L L v x x c v x t # X   $ * * : * * * * * ; B R G F F M y > + $ * * * y c M F c x x D F F F F F F F F M z t 5 3 * o ",
"t u p t u i s w w p l l a l l p p a l p w : # 5 8 r u i a a a a x x c c a p p t a y 5 # .   $ * * = * * % * ; : W ! F F M y > + + * = = - 8 w u z y w u k z x z x x z k t t 2 = - # o   ",
"6 6 6 5 3 8 a 6 6 u p i p u u w 3 0 0 1 1 & o 1 6 3 1 3 6 u 5 1 r y u u u u e 3 0 0 1 < % . % = 4 4 2 5 2 2 2 6 ( O.J F z 7 O % ; = < - - * * 1 9 2 2 w w w t t y y i w 3 3 $ $ < +     ",
"2.3.<.X.X.o.@.Q C S S S S S A A C N n l p 5 1 ..,. .V V C S q - < j S S S S S C N v s i 5 & . t &.O.&.} L L L P -.&.L y b M y v x s f 0 * + # - < 5 7 < 9 w w z H +.) ^ C C b z s t =   ",
"0.6.>...| ..| ) Q Q Q R T R T R Q T D M c w 5 1.2.| G Y T R h q < g Z T T R T R T F M c w - @ g -.O.O.{ I I ! ~ +.! v b B J F J D M c 7 # w f j n B m d h B G ~ ' O.~ T R S B M M b 7 + ",
"5.%.Y D F J G R Q Y T Y D F J G T T Y F D u 8 &.&.Y F F D H R j 7 t x F F D N T T G F v u < - m @.W G F F L B ^ ^ B f B G F F F F M x 2 $ } 1.@.+.+. .^ ^ _ +.+.( Y F J F F D D D D p : ",
"$.I J D D Y Q R T D D J F F G T T G F D F l p =.} F F F Y Q R E L 0 y F F c v Y G F F F z 9 < j +.H F F F B R R R Z B F J F F F F F x 9 3 &.&.T H L F G Q ^ W R T F F F F F D D v D k r ",
"{ I D D P I T Y G Y J D Y Y T T J F J F v p 0 &.%.F F P I Y G J F 7 3 r a k x G M v F c u 3 5 B +.K F F U ! I G B Y G F F F F F F F x 0 5 &.} G F F H S Q T G G F F F F F F F F D D a 3 ",
"$.I J K U U D F G Y G Y T Y Y G D J D D x r 8 %.] F F ` [ F D D v 5 = = 5 0 y c x c v x w 3 7 Z +.K G P U U I G G Y G F F F F F F F c y 8 } } F F L P R Z G F F F F F F F F F F F D p - ",
"[ I J T ` ` D T Y F T T Y F F F F J D D x p y I I F Y ` ` F F D s 3 - * = = > r x v z f t w < e Q B R R F F G T J Y Y F F F F M v F F x y I I F F U U F F F F F F F J F F F F F F v t - ",
"$.I D Q E J J D G Y G G J D J F F F D c v k p I I F Q E J F D M a < l ..( f 5 < 7 0 y y w 3 5 h / R R T F G G G B Y Y J F F M D F F F a 7 P I F G ` U F G K F F F F F F F F L F x a 0 - ",
"[ I T R G J D J G Y F F F F D D F D M c D x p I ` T T G F F D x a i W -.+.G x g 0 4 4 7 3 : w B _ Q T G F G G G Y Y B F D D M D F F F a 7 P ! T T E P G G G G F F F F F F J D D l y 9 3 ",
"U ' Q F D D J Y Y F F D J D M M D M M F F x p I ~ Q G F F F x p p X...F F I } <.B 0 ; - - : 9 G +.R B F F F G T J J F F M M D M v F F x y I ~ ^ S K G T G G T F F F F F F I M l a t r r ",
"Y W ` J D J D J F F F F F F v c D F D F F c t N E ` J J J D l x P E P F F L P E P ! ( i 3 < s W +.R J J F F B J B F F M M D v D D F F x y ]  ./ W Y G G Y G F F F J F L I I v k l t 7 < ",
"Z Y P D J D J D F F F F D M z x D J J F F z u m H I D D D v M D I J F F F F J D L U ( M w 3 B ( O.Y F F F F F F F F D D D M D D F F F c a  .o.Q S Y G G Y H F F F F J D D D v l l t 0 5 ",
"N N F J D J D J F F F F D l l c D D D F F x y n D D J D v z P I D F F F J F D J F F M M w 8 ) ( B B F F F F F F F F F F M M F F F F D z a  ._ Q Y G G Y T G F D D J J M l x c c k p t r ",
"l v D J F D J D F F F P P z x v D D D F F x r l v J D c c D J D F F F F D F F D F M M M s u +.~ F F F F F F F F F L L x z v F F F D c a u S Q T G F F F G F F M D D x c M D D D v k y t ",
"l x v D J D J J J D L D D x c D D D D F D x r l l D D D D D J J D J F D F J D D M x x c a y ^ ~ F F F F F F F F J F M x M D F F F D x u y Z Y G F F F F F D M M M M x M D D F D D l p t ",
"l l l D D J D D F J J M z D D D D D D D D x t a l l D D F F D D J D J J L D D c x z z z a y S T F F F F F F F J I D z v D F F F F F x a t B G F F F F F D D M D M M M D F F F J D v l r ",
"l l x D J D J D J I c x v D v v D D D F J c t a l l D J D F D D D J P I I D c l v M v B x w S Y F F F F F F J I I D z D F F F F F F v t < v F F F F F F M M D M M D F F F F F F F F l r ",
"l l v D D J D P D v c v D D D D D D D F D a 5 a l c D D D v D D P P D v v c c v M M M M y w M B M F F J F J F M v c v F F F F F F F F a 0 v F F F F F M D D M D F F F F F F F F F D l 1 ",
"c c D D J J D D M l c D D M D F F F F F D p 1 a x M M M D M D D F F D l l l c v v D D v t 1 x D v D D J F F D l l l c D D F F F F F F l r c F F F F D D D D M D F F F F F F F F F D u - ",
"v D D D P D l l l l D F F D D D F F F F D r - l v M D M M D M x l l z c l D D l v D v v w 1 l D D v D D D c l s l l k c D D D F F F D p 1 l D D D D F F F F F F F F F D D D F F D D u - ",
"v c x l c x l l x c D D D c x c M D F D x 4 + p M M M v v M x l l v c l D c c D M v D x r 1 a v M D D D v l r p t y u l x v D D D M x r 1 s c x l c v F F F F F F D c x c v D D D c r - ",
"w w q r r w p w t k x x x p p p u a x p r = X 7 u u u w u s w u a l l a l l p p a s p r < # 5 q u l l p t 7 7 r 7 0 r p p a x l p t r < % 7 u 8 0 0 u l l a x x x k a p p u l l p r < @ ",
"6 6 3 3 1 6 i 6 6 p i i u i p w 1 0 0 1 1 % o 1 5 5 3 1 7 p 7 7 p p t u t t 0 1 7 0 1 1 # . 1 5 6 t 6 1 1 3 6 u 5 8 i i u u u 5 1 1 1 % o < 5 1 1 1 6 i 6 5 t r t t r t r 3 r r 1 < & . ",
"2.,. .B V C S C C S S S S S S S C N c l i 5 < X.1.%.I L L I I P I N n n l a a p a s s l < O ' ,. .Y C C C C C S C S S S S S S N x s i 7 < T | ( Z V A S V n a t y k a l x L I D s p 3 & ",
"0.2. .Y T R T Q Q Q Q R R T T R Q T G M x r 6 2.2.X.` I I I I ` ~ E E D c l l l l c v c 7 = *.2.) Y T R R Q / Q Q R T R R R Q T G M x 0 5 } *.( Y T W ~ E N v b l p l v J ! ! E M c w - ",
"8.%.Y K D D D Q R Y Y H D D D G T T G D M u 8 <.>.G F F F D G Y Q ` E D D D c l c D D c 0 5 &.%.Y J F F F S R Y T G D F F D T T G D M u 6 } ] G F F P [ E Y F Y x t a L [ T T T D M u < ",
"8.%.D D D Y ^ R Y D K D D J G T T G J D F l p +...D F F J Y R T K J D D J D D D D D D l 0 6 &.} D D J Y Q R T F F F F F G T T G D F D x y I I F F I ` E K G T R b y l U *.T K D D D l r ",
"8.%.K D P I T J D J D K Y T T T G G G F v p q X...F D P ` ` E Y D J J D D J J D J J L c 0 6 %.%.D J L I T Y F F F G Y T T T G G G F v p 7 I I F I I K G Y G G F D D l P $.G J J D D p 3 ",
";.{ D K U U L D D J K T T T T Y G G G D x r 8 @.| F Y E U ` L D J D J D J D D J J D D c r 8 } [ F F ` U F F F F F T T T T Y G Y Y D x r 9 L I J I L F F G G F F P I D L U F J D D c w 1 ",
"{ I K T ` [ D D J D T T T T G F T G F D x a a #.| J Q T D J F F D J D J D J J D D D l l p a I I F T ` U F F F F T T R T G F T G F D x p y I I F F F F F F F F F D J [ $.U F D J D c p t ",
"{ I J Q E D D J D F G Y T G G Y G F D c v k p ^ ) R R G F Y J F Y J D D J D J D L D l l r 7 I I G Q E J D J J D F T T G Y G K F D c M k y c D F F F F F F F F F F J L U U J D D D D z r ",
"$.E T R T D J D F F F Y G D G G D D M c D x u A ^ R T G G Y G Y Y F D J D J D J J v l l t 7 L ` T T G J J D D J F Y G J G G F D D c D x r y l M D D D D D F F J F F D L I J D J J D c r ",
"[ ~ Q D D J D J F F T G D J D J D D M D F x i S S T F Y Y F Y G D J D D D J J P v l l v l y I ~ Q G D D D D J D T Y D F D F F D v F F x r r p l v D D v D D F D D D v D D D D J D J c r ",
"Y E ` J J D J D J D F G J D J D J D D J D x u S Q T F F G T G F J D J J D P J c c v D D x t N ` ` J J D D J D J F F F F F F F D D D F x y p p p l x c D D D D D D M D D D D J D J D z r ",
"V H I J D J D J F F F F F F F F D J D D D l u S R G F G G T G F J D F J J F D x v D D F z p n T I D J D F D D J F F F F F F F F F F M x t a k k x v c c c x v v v D D D D F F F F F x r ",
"N D D D D D J D F F F F F F F F J D J D M a u A R F F Y T T G F F F D F J M z v D D F D l u n N D J D J J J F D F J F F F F F F F F v a t a c M F F M x x x x x D D F F F F F F F F x t ",
"l v D J J D D J F F F F F F F F J D D v v s u S T F F Y Y F F F D F v x z c v D D D D v a r l D J D J D D D D J F F F F F F D D M v v k t x M F F F F D M D D x v F F F D F F J F F x r ",
"l x D D D J J D D J J F F F F D D v c x x p i S T F G T G F F F M v x l x v D M D D D c a r a l M D D J D J J D F F F F F F D v c x x a t c M F F F F F F F v v D D F F F H J F F F k 5 ",
"l l l D D J D D D F F J F J F M c l l l x s u S T G T T G F F F M x x x v D D M D D D v p r a l z D J D J D D J F F J J F D c c x x x a y x M F F F F F F M M F D M D J J L D D D D p - ",
"l l c D J D J M D F D L I I F v l v D v D l i S Q R T G F F F F F D D F D M v D D D D D r 1 p l z D D J D M D D F P I I D c l v M c M x t x M F F F F F F F F F D D D L L M v M D M u - ",
"l l c v D D D D D I I D M v c x M v D D D p 5 N Y T G F F F F D D D F D D D D D D D F D l 7 a l c D D D M D D P I D v v c x v v M D M y 5 a v F M D F F F F F F F F F L L v M D F l 7 - ",
"l x v M D D M D D D J M k l x x M M M D v u 1 x G G F F F F D M M F F D M D D M D J J D l 0 l x c D D D D D D F J M l l l c D M M M v y < y c D M D F F F F F F F F L L J M D D D t 5 ; ",
"M M v D M M D M c l l x c l v M l v D v c u 1 s M D D F D F c c D J D J D F D J D D D D u 1 s v D D M M D M x l l l v l v M l v D v M t < u x v D D v F F F F F F F P F M D M c x 5 - - ",
"v M D v v v M b l l v c l D v x D M M D x 0 1 p c M F v x x v D J D J D D J J D J D D x q 1 l D D D c M M x l l v v x M v x D D M D x 0 < u l l v D D v D F F F J J v x x v M x t 1 # . ",
"u u u u u p s w r a k k a x l y p a s p 0 < # > 7 u l p r p k x c x c z x z x c l p t r < % 8 p p t w p l t u p k k l l l p p a s u 0 < & 5 q r t u y k a a x x c c a p u t p u 7 < @   ",
"- - - - - 3 r 1 3 t r t r t r 0 - 6 7 - - @     + < 0 1 1 t t r r r r r r y r r 3 - - - @ . & : - - - 3 r 1 1 w t r r r r 9 ; 7 7 - : # . & : - - - 2 t < 5 t t t t t t 8 - 7 7 - - @   "
};
