/* XPM */
static char *result[] = {
/* columns rows colors chars-per-pixel */
"64 64 73 1 ",
"  c #0D0C0B",
". c #100F0E",
"X c #11100F",
"o c #151412",
"O c #181715",
"+ c #1A1816",
"@ c #1C1B19",
"# c #262321",
"$ c #2B2724",
"% c #272827",
"& c #2D2927",
"* c #2E2B29",
"= c #322E2B",
"- c #35312E",
"; c #39342F",
": c #363431",
"> c #393632",
", c #3C3935",
"< c #3C3D3C",
"1 c #413F3B",
"2 c #3D403F",
"3 c #43413E",
"4 c #3C3F40",
"5 c #3E4242",
"6 c #424544",
"7 c #494643",
"8 c #454947",
"9 c #4C4A46",
"0 c #464A48",
"q c #4D4C49",
"w c #514E4B",
"e c #4F514E",
"r c #55524D",
"t c #59564F",
"y c #575550",
"u c #595652",
"i c #555952",
"p c #5D5B55",
"a c #5E5D58",
"s c #615D57",
"d c #625E59",
"f c #5F6159",
"g c #656255",
"h c #696557",
"j c #66625D",
"k c #69645D",
"l c #6D695C",
"z c #716D5F",
"x c #75705F",
"c c #666760",
"v c #6B6760",
"b c #666860",
"n c #6B6A61",
"m c #726E63",
"M c #6D7066",
"N c #6E7068",
"B c #757164",
"V c #797566",
"C c #73756B",
"Z c #7B7669",
"A c #7E7C6C",
"S c #777A71",
"D c #7B7D71",
"F c #7E8176",
"G c #7F827A",
"H c #84826E",
"J c #838274",
"K c #82867B",
"L c #88887A",
"P c #8D8F85",
"I c #878D88",
"U c #969584",
"Y c #969B92",
/* pixels */
"zljjjjjdvjvmju7@AUUUZZZklJVzds3@AYIPPZBBmmBmks2X $-2=10aGKVmjs9&",
"kjjjvdccjjcbkdr:SSBnlnmmkbkkddr;JSvmmmnvvjkljjyewgMMglCSNnkvsst=",
"Bkjjdvjcjjccjjp6jjjjbnkkdkkkdsu6mvdkxbjjjjcjjjjgjjlvkmMncjjddps<",
"BkjBkjcccccjjjw,hkkMVvkjkjjjdds1zkvmkjcjcccjjjgajjjknvjjjjjcddp;",
"ZkbBkcdccjdvjdw6hlxljjjjkdjkjdr;zvbmkjjbvjjjjjsdjjdBvjjjjjjjjdy=",
"Zlzljjcjckjddyu0lxljjjjjdvkdkr6:zlmvkjccjjjjdpdsdjcmdcvjkkjjkr6=",
"ZBkjjcdvddpjadd0Mxbjbjjjvjvmuq46mmkkjcjjjjsjsyudpdcvbccjjjjmyq6<",
"lBjjjcvdvdyjdjd0FVbbjbjjjjvvuq4>smkjjjjjjdrjddpsgjdcvcjdjkvvyq4=",
"djjjjjkjdrrddvd0SVbjbbjjjjuyuw44ujjjdvdjdrrddsdjjjjvjvjdjkuuuw44",
"rdjkjjjkvrydddd0lljjjjjsdyudduq6qgjjkdvjvrpdsdjjjjjjjdjpdyudduq4",
"wrdjjjdkuudsdjd0lkjjjjadsudjjdw69rjjkkkkuydsddjjjjjjvdpdssdjjdw5",
"wwdjjkmuudsdsdd0lbjjjadudjjjjjd69wdjdkmyudsdsjjjjjjjjadddddjjjd6",
"wudjjduudddjdjs,hkjjsdddjjjjvds>9ydkdjtydsdvdkjjjjjjddudjjjjjju:",
"uddjwwwdddjddjr;jvjjdjjjjjjjdvr-wdjjwwwsdddddjsdpdjdjjjjjdjjjjy=",
"w9wwq9rpswwrsp7=dcvjjjkjjjkjdd9O399w99rasrwwdu9rr99wduaadwwrdu7$",
"1;;16,60664-<:*ONmcvjjjjjjjjvdw.+-;>7,68066>3;+o->->7<66634>3>*o",
"hzLJmmmduw97qw7+dmcccdcdjjjjjd7OlDgklhlllllkdw1=mCddlaq6qqrlnrwg",
"ZmZmvvxmjdrwrsu=dkkkdvdvjvjjjd=oACjklmvbkkkbjdy,ZVjmZbda6qnnnjuj",
"kBvkvzkkjjddsdw>skkmjkjdkdjjdd*oFnjkzkjjdkccvju7Bvvmcccj0yZbjjtd",
"dvkBBvkdjkkjdsr>hlmlkddsddjkdr-=Jmjmkkjjccjjvdw1mvBvjcjvvuVcjjur",
"dkmkdjjjkjjjddu6vZbjjjpsyddjy555mnbVjjjccbccjdw6mkvjjjjkvZZvjjuu",
"dddjkkjkjjddduw,dbvcjjdpydddu,u<lnmljjjvcjcjdyu6wddddjjjdlmdjjsa",
"ddjjjjjjjjvdvw94qdcjjjjdrgaju8cqmmkddvdccdjjsds:19udpddddddkjdty",
"ddjjvjvjjvddvwr66ajjjjdsyypuiDv0gmkkvdvvdkjjjds470rydpdssdskyrsp",
"sddvbbjjjjkmuyw6000jkkdsddyqCNj6ujjjjjjjjjjjjdy:7uddrrrudddkdddd",
"ddjbbjjcjjjmrwp69wwpZksddyemncy5qdjjjjkjjjjjdu3=rdjjdddyddkdjkdd",
"dcbbjjjjkjdpypw6rnABVmjpy8Cbcuq45rajkddvjjduuw<$wdjjjjssddvvdjdj",
"mvvvcjjjjdpwswy>lnbkkkjsu;dpagr=2qfgjddjmmsqsu*.wdjjjjjjdkvdsjjk",
"kkjjjddjddydppu6nnjjjdpyqhjugpr<7ssdadvkdsrsu3&#7dsddkkjkdksddud",
"pdjjjydjdpwudpu:rjjgjus6:fjjgr5-gjdpdsddswswu=$$7udsddjkkvddsusw",
"9rswwudauywayw7&7rar9:&#O<yr5=#oigspprdduudd7:1$37ruysdddrwrw677",
"&>0160000060>=+o-;2-=$.X$->;@$X ifddwswpusddwdr+=;-16160086;4-*X",
"olLJBmmSZvjdurdmCg,<=<4rZZlhuw1oijjjssurypyeNdw=BDjjlhlllllhar7#",
"&CCvvvmVZvjjjjjvnmCChDKSmvkkddw-ijjgjjjsu64DCdr,JZjjlmlbkklblar-",
"-CvckvbbvjjjjjjjkkkvkmNMjjjjdsp4pjjfxsdy4%*ccvp0Lmjkzbjcjjbbjja5",
"<CvvBmccjjjjjjjjkdkkzvjjvjkddds,ljfjteeq4**uddw1JnjBkjjjjlbjjjq:",
"=gkzjvcjvjjjpjjjdvdBjjjjjjjjvjw>nu5<&FAZmd>4ajw6BvbVjjjbcnjcjdw5",
"5lnljcjccjdadjjjvdbBvcjjjjjjjr6-riDlpllkjjppqwu0mnzkkjjjcdcvgia5",
"0Snjjjcjjjsdpjjjjjbvcjvjjjvmyq448jnvjjjjjjpjy6u0mmkjjjjccjjjada6",
"fSnjjjjjdpdpjjjkjjccjvjjjjvvyq4:izkjjjjjjdyjda06gBjjjjjjjjjjdca5",
"FNjjkjkjjdsdjjkjjjcjccjjjkuuuw54ujjjvdvddrrdddu>ujkkjjjkjjjjjdu6",
"Kbjjjjjkjyujjjjkjcjvjjjpdrudduq5qgjjdvdvvrujdjd8kkddjjjjjjjjdpy4",
"Vkjjvdkvuudjjjjjjjjjjdpdsudjjdw69rjjkdkkuudsddd0lhddjdjkvdduyrw5",
"Bkjjdkmvudjjjjjjjjjjjpdpdjjjjjd69wdjdkmyudsdsdd0zjjkddddmmswaua6",
"dsdjjvyrudjjjjjjjkjjadpdjjjjdvp>9yjkdjtydsdvdds>ljjgsdsdsurspdr:",
"sdsdjr9wqudjjjjjjdjdjjjjjddjjdr-wddjwwwddddddvr;llgadddsuudwspr*",
"9wpur6646qwdprwrs79wpsddpwwrsp7=999w99rpdwwrdu3@lvapjdkdsdddddq&",
";16,;>4>46631;*+;>:>6<46666>3:&+=;;>7,68066>3>*OCndjjjkddddpdjrX",
"HScdhhlkhlllur7=BZjdmsq609ynmy9yaaahlhllhlljdr7=lvdcjjkkkddpddyX",
"UZkkkmklkklbbgr,ZCjvVvaa0qnnvdpdjbjkkzvvkkkvcdw,ZNvdjkzmvdspppw$",
"Umkkzvvdjjbbjjp6mvjmvccj0rAnjjjjjjjkzldcjjccjds6vvdvbmkkkdddsd9=",
"Uvkmvjjclbcjjjr,mvmvjcjkluVjjjjjjjjmkjvdlbvvbdw<DvvmBvjjdsdddk9=",
"ZvvVkdjcccccjjq6mvjjjjjjjZZkkjjjjjjjdvdcbbcbjdw0Gmxkjjjjdvdddww4",
"Znvvkkjjcdcvdyu0wdjjjjjjjkmjdkjjjjjjcjvcbjjjduu0mmnjbjcjvdvkjw9:",
"Zmlvdvjccdvdada66qududjjgpjjkdvjjjkjjjjcjcjjsds0lbkcjbjjdkdmtww6",
"lmvdvdjjdvdkdca677wydpdsadajdvdvjvjjjjjjjjjjdjs0lkjjbjjjjkkyydp6",
"djjjjjjjvjjjjdu6wuddrwwudjdjjjjjjjjjjjjkdvdvddu0vcjcjjjjdvuudds6",
"rdjjjjjjjjjddpy6rddjdjdydjkkjjjjjkjjjjjjvdkddsy6vvjcjjjdrrudsdw6",
"uydjjjjjjddpyrw6ydjjjjsdsjjvjjdjjvdjjdjjkkdprrw6kkjcjjdrrudsdjw4",
"wwjkjkjjjjswsua6yjjjjjjdjjvsujsjkdvjjsjkvmpwdus8lvcjjjjddjsdjjr*",
"susdjdsjddyspdy:9dsdjjjjjjvpdddjjssdsdkkuyypsdr,skjjjddddddddjs<",
"sudsdsdjdsswduw-7udsjjjjjvddpsdjdpdddprwywpwsur-wdjjjudjjddjjjs=",
"dcdsssddddddddw*39ruupddjrwrruuyruywu99ywuryyy7&1raweuadddddsr7$",
"cjddddjsdpdjddrO$==:4:46631=1-*o&==-5:46664-<-$  &5:46566556-=# "
};
