/* XPM */
static char *_f11dd17849241ccc29292a6ac2b84bfAKPEF7g2ryXkUDqZ[] = {
/* columns rows colors chars-per-pixel */
"96 128 7 1 ",
"  c None",
". c #73533C",
"X c #255D43",
"o c #2C6B48",
"O c #438144",
"+ c #4E964F",
"@ c #51A64A",
/* pixels */
"                                                                   ooooOOO+XoO+OoXXXXoXO+Oo     ",
"                                                                 oOoooOO++@OXOOXXXXXoooXXo      ",
"                                                                ooOXoooXXOO+XooO++@OXXoo        ",
"                                                                ooooooooooXooooOO@++OXXXo +     ",
"                                                                @+oooooooooo+OoooOO+OOXoo+     @",
"                                                                +O+ooo+@OooO@+OooooooooooOooooO@",
"                                                                ++OOo+O+ooo+@@+XoooooooooOXXooOO",
"                                                                XXOOXOOoXXo+OXXXoooOoooooooooOoX",
"                                                                +XXOXOXXXXXOXXooooooOooOooooooXo",
"                o                                               +oooooooooooooooooooOooOoooooooo",
"                                                                OXooooooo+oooOooooooOXX@@+Oooooo",
"        oo     o                                                ooooooooOooooOXoO+@+oo++@+oooooo",
"           ooooooooo                                            oo+oooooOXXooooooX+OOXO++Oo@+OOo",
"       oooooOoooo                                               ooo+ooooooooOoooooXOOXOOXXo+@++O",
"         oooOo  ooooooo                                         OooOooooooooOoooooooooooooOO@+OO",
"        ooooOXX ooooo   O++@                                    oooOXoooooooOXXoooooooooO++@XXXX",
"   ooooooo         ooOoO+@@+OoXX                                XooooooooooooooooooooOoO+@@+OoXX",
"   oooooooooo   oooooOXoXO+OOX                                  oooooooooooooooooooooOXoXO+OOXoo",
"    oOO+oooooooooo+oooooooXOOXX                                 oooooOO+oooooooooo+oooooooXOOXXo",
"    O+@+OXo+@Ooooo+oooooooooO X                                 oOooO+@+OXo+@Ooooo+oooooooooOoXo",
"   ooXXOOXOO+OOoooOXXoooOooo                                    oOoooXXOOXOO+OOoooOXXoooOooooooo",
"  ooooXXoXOOXooo    oo+ooOo                                     oOooooXXoXOOXooooooooo+ooOoooooo",
"  XX+@OXoXoXXXXo Ooooo+ooOX                                     oOXX+@OXoXoXXXXooOoooo+ooOXoooOo",
"   OO+OoO+@+ooooo+ooOoOXoo                                      oooOO+OoO+@+ooooo+ooOoOXooo  oOo",
"   OO  o+@@++oooo+oOoooo                                        XooOOooo+@@++oooo+oOooooooooooOX",
"         X+OOXoooOoOooo ooo                                     oooOoooooX+OOXoooOoOooooo       ",
"          XOOXXo OXOX                                             ooooooooXOOXXooOXOXoO+Ooo     ",
"            O X                                                 ooooOoooOoooOoXooooooooO@+o     ",
"                                                                   ooOooOoOoooooooooooXX+OOX    ",
"                                                                    oOooOXOooooooooooooXOOXXX   ",
"                                                                     OXXooOXXo@@OOooooooXo      ",
"                                                                      ooooooo++@Ooooo           ",
"                                                                                                ",
"                                                                                                ",
"                                                                                                ",
"                                                          +                                     ",
"                               @@+          +O           +     @@+                              ",
"                              O@+O+   +@O  O@+O          Ooo  O@+O+   +@O                       ",
"                             oOO++OOo+O+ooo+@@+Xoo     ooOXXooOO++OOo+O+o                       ",
"                      oo ooooOoXXXOOXOOoXXo+OXXXXooOoo   ooooOoXXXOOXOOoXXooo                   ",
"                           oooXo+XXOXOXXXXXOXXX     O oOooooooXo+XXOXOXXXXX                     ",
"                 ooo  oOoooooooo+ooooooooooo       oOooOoooooooo+ooooooooooooo oo               ",
"                     XX@@+OoooooOXooooooo+oooOooooooOXX@@+OoooooOXooooooo+oooOo                 ",
"        oo     oO+@+oo++@+ooooooooooooooOooooOXoO+@+oo++@+ooooooooooooooOooooOXo                ",
"           ooooooX+OOXO++Oo@+OOooo+oooooOXXooooooX+OOXO++Oo@+OOooo+oooooOXX    ooooo            ",
"       oooooOoooooXOOXOOXXo+@++Oooo+ooooooooOoooooXOOXOOXXo+@++Oooo+ooooo   Ooooo               ",
"         oooOo   oooooooooOO@+OOOooOooooooooOoooooooooooooOO@+OOOooOooooooooOoooooooooo         ",
"        ooooOXX    oooooO++@XXXXoooOXoooooooOXXoooooooooO++@XXXXoooOXoooooooOXXoooooo   O++@    ",
"       ooooo     ooooOoO+@@+OoXXXooooooooooooooooooooOoO+@@+OoXXXooooooooooooooooooooO O+@@+O   ",
"      oooooooooooooooOXoXO+OOXoooooooooooooooooooooooOXoXO+OOXoooooooooooooooooooooooOXoXO+OOX  ",
"     OO+oooooooooo+oooooooXOOXXooooooOO+oooooooooo+oooooooXOOXXooooooOO+oooooooooo+oooooooXOOXXX",
"    O+@+OXo+@Ooooo+oooooooooOoXooOooO+@+OXo+@Ooooo+oooooooooOoXooOooO+@+OXo+@Ooooo+oooooooXXOX  ",
"    oXXOOXOO+OOoooOXXoooOooooooooOoooXXOOXOO+OOoooOXXoooOooooooooOoooXXOOXOO+OOoooOXXoooOX      ",
"    ooXXoXOOXooooooooo+ooOoooooooOooooXXoXOOXooooooooo+ooOoooooooOooooXXoXOOXooooooooo+o O      ",
"    +@OXoXoXXXXooOoooo+ooOXoooOooOXX+@OXoXoXXXXooOoooo+ooOXoooOooOXX+@OXoXoXXXXooOoooo+ooOX     ",
"   OO+OoO+@+ooooo+ooOoOXooooooOooooOO+OoO+@+ooooo+ooOoOXooooooOooooOO+OoO+@+ooooo+ooOoOXooo     ",
"   OOooo+@@++oooo+oOooooooooooOXXooOOooo+@@++oooo+oOooooooooooOXXooOOooo+@@++oooo+oOooooo       ",
"   O   ooX+OOXoooOoOoooooooOoooooooOoooooX+OOXoooOoOoooooooOoooooooOoooooX+OOXoooOoOoooooooO    ",
"        ooXOOXXooOXOXoO+Ooo+OoooooooooooooXOOXXooOXOXoO+Ooo+OoooooooooooooXOOXXooOXOXoO+Ooo+O   ",
"        OoooOoXooooooooO@+o@+oOoooooOoooOoooOoXooooooooO@+o@+oOoooooOoooOoooOoXooooooooO@+o@+   ",
"        OoOoooooooooooXX+OO+OXOOooOooOooOoOoooooooooooXX+OO+OXOOooOooOooOoOoooooooooooXX+OO+OX  ",
"        OXOooooooooooooXOOXOOX+@oXOooOooOXOooooooooooooXOOXOOX+@oXOooOooOXOooooooooooooXOOXOOXX ",
"        ooOXXo@@OOooooooXoXOX+O+XXOXoOXXooOXXo@@OOooooooXoXOX+O+XXOXoOXXooOXXo@@OOooooooXoXOX   ",
"       oooooo++@Oo   O++OXooXO+OXoooooooooooo++@OooooO++OXooXO+OXoooooooooooo++@OooooO++OXoo    ",
"      oOOO+XoO+OoXXXXoXO+OooXoXXoooooooOOO+XoO+OoXXXXoXO+OooXoXXoooooooOOO+XoO+OoXXXX           ",
"      OO++@OXOOXXXXXoooXXoooooooooOoooOO++@OXOOXXXXXoooXXoooooooooOoooOO++@OXOOXXXXX            ",
"      oXXOO+XooO++@OXXooooooooooooOXoooXXOO+XooO++@OXXooooooooooooOXoooXXOO+XooO++@OXX          ",
"       oooXooooOO@++OXXXoo+oooooooooooooooXooooOO@++OXXXoo+oooooooooooooooXooooOO@++OXXX        ",
"         ooo+OoooOO+OOXoo+ooooo@@+oooooooooo+OoooOO+OOXoo+ooooo@@+oooooooooo+OoooOO+OOX         ",
"          oO@+OooooooooooOooooO@+O+ooo+@OooO@+OooooooooooOooooO@+O+ooo+@OooO@+Ooooooo           ",
"          o+@@+XoooooooooOXXooOO++OOo+O+ooo+@@+XoooooooooOXXooOO++OOo+O+ooo+@@+Xoooo            ",
"          o+OXXXoooOoooooooooOoXXXOOXOOoXXo+OXXXoooOoooooooooOoXXXOOXOOoXXo+OXXXoooOooo         ",
"           OXXooooooOooOooooooXo+XXOXOXXXXXOXXooooooOooOooooooXo+XXOXOXXXXXOXXooooooOooOo       ",
"           oooooooooOooOoooooooo+oooooooooooooooooooOooOoooooooo+oooooooooooooooooooOooOoo      ",
"           ooOooooooOXX@@+OoooooOXooooooo+oooOooooooOXX@@+OoooooOXooooooo+oooOooooooOXX@@+O     ",
"           ooOXoO+@+oo++@+ooooooooooooooOooooOXoO+@+oo++@+ooooooooooooooOooooOXoO+@+oo++@+o     ",
"           ooooooX+OOXO++Oo@+OOooo+oooooOXXooooooX+OOXO++Oo@+OOooo+oooooOXXooooooX+OOXO++Oo@+OO ",
"           oOoooooXOOXOOXXo+@++Oooo+ooooooooOoooooXOOXOOXXo+@++Oooo+ooooooooOoooooXOOXOOXXo+@++O",
"           oOoooooooooooooOO@+OOOooOooooooooOoooooooooooooOO@+OOOooOooooooooOoooooooooooooOO@+OO",
"X          oOXXoooooooooO++@XXXXoooOXoooooooOXXoooooooooO++@XXXXoooOXoooooooOXXoooooooooO++@XX  ",
"          oooooooooooOoO+@@+OoXXXooooooooooooooooooooOoO+@@+OoXXXooooooooooooooooooooOoO+@@+O   ",
"         ooooooooooooOXoXO+OOXoooooooooooooooooooooooOXoXO+OOXoooooooooooooooooooooooOXoXO+OOX  ",
"     OO+oooooooooo+oooooooXOOXXooooooOO+oooooooooo+oooooooXOOXXooooooOO+oooooooooo+oooooooXOOXX ",
"    O+@+OXo+@Ooooo+oooooooooOoXooOooO+@+OXo+@Ooooo+oooooooooOoXooOooO+@+OXo+@Ooooo+oooooooooO X ",
"     XXOOXOO+OOoooOXXoooOooooooooOoooXXOOXOO+OOoooOXXoooOooooooooOoooXXOOXOO+OOoooOXXoooO       ",
"      XXoXOOXooooooooo+ooOoooooooOooooXXoXOOXooooooooo+ooOoooooooOooooXXoXOOXooooooooo+ooO      ",
"    +@OXoXoXXXXooOoooo+ooOXoooOooOXX+@OXoXoXXXXooOoooo+ooOXoooOooOXX+@OXoXoXXXXooOoooo+ooOX     ",
"   OO+OoO+@+ooooo+ooOoOXooooooOooooOO+OoO+@+ooooo+ooOoOXooooooOooooOO+OoO+@+ooooo+ooOoOXooo     ",
"   OO  o+@@++oooo+oOooooooooooOXXooOOooo+@@++oooo+oOooooooooooOXXooOOooo+@@++oooo+oOoooooo      ",
"   O    oX+OOXoooOoOoooooooOoooooooOoooooX+OOXoooOoOoooooooOoooooooOoooooX+OOXoooOoOoooo   O    ",
"        ooXOOXXooOXOXoO+Ooo+OoooooooooooooXOOXXooOXOXoO+Ooo+OoooooooooooooXOOXXooOXOXoO+Oo +O   ",
"        OoooOoXooooooooO@+o@+oOoooooOoooOoooOoXooooooooO@+o@+oOoooooOoooOoooOoXooooooooO@+o@+   ",
"        OoOoooooooooooXX+OO+OXOOooOooOooOoOoooooooooooXX+OO+OXOOooOooOooOoOoooooooooooXX+OO+OX  ",
"        OXOooooooooooooXOOXOOX+@oXOooOooOXOooooooooooooXOOXOOX+@oXOooOooOXOooooooooooooXOOXOOX  ",
"       XooOXXo@@OOooooooXoXOX+O+XXOXoOXXooOXXo@@OOooooooXoXOX+O+XXOXoOXXooOXXo@@OOooooooXoXOX   ",
"      ooooooo++@OooooO++OXooXO+OXoooooooooooo++@OooooO++OXooXO+OXoooooooooooo++@OooooO++OXoo    ",
"      oOOO+XoO+OoXXXXoXO+OooXoXXoooooooOOO+XoO+OoXXXXoXO+OooXoXXoooooooOOO+XoO+OoXXXXoXO+Oo     ",
"     oOO++@OXOOXXXXX   XXoooooooooOoooOO++@OXOOXXXXXoooXXoooooooooOoooOO++@OXOOXXXXXoooXXo      ",
"      oXXOO+XooO++@OXXooooooooooooOXoooXXOO+XooO++@OXXooooooooooooOXoooXXOO+XooO++@OXXoooo      ",
"        ooXooooOO@++OXXXoo+oooooooooooooooXooooOO@++OXXXoo+oooooooooooooooXooooOO@++OXXXoo+     ",
"      oooooo+OoooOO+OOXoo+ooooo@@+oooooooooo+OoooOO+OOXoo+ooooo@@+oooooooooo+OoooOO+OOXoo+      ",
"          oO@+OooooooooooOooooO@+O+ooo+@OooO@+OooooooooooOooooO@+O+ooo+@OooO@+OooooooooooO      ",
"           +@@+XoooooooooOXXooOO++OOo+O+ooo+@@+XoooooooooOXXooOO++OOo+O+ooo+@@+XoooooooooOXX    ",
"           +OXXXoooOoooooooooOoXXXOOXOOoXXo+OXXXoooOoooooooooOoXXXOOXOOoXXo+OXXXoooOoooooo      ",
"          XOXXooooooOooOooooooXo+XXOXOXXXXXOXXooooooOooOooooooXo+XXOXOXXXXXOXXooooooOooOoo      ",
"        ooooooooooooOooOoooooooo+oooooooooooooooooooOooOoooooooo+oooooooooooooooooooOooOooo     ",
"     oooo+oooOooooooOXX@@+OoooooOXooooooo+oooOooooooOXX@@+OoooooOXooooooo+oooOooooooOXX@@+O     ",
"       oOooooOXoO+@+oo++@+ooooooooooooooOooooOXoO+@+oo++@+ooooooooooooooOooooOXoO+@+oo++@+o     ",
"   oooooOXXooooooX+OOXO++Oo@+OOooo+oooooOXXooooooX+OOXO++Oo@+OOooo+oooooOXXooooooX+OOXO++Oo@+OO ",
"     ooooooo+oooooXOOXOOXXo+@++Oooo+ooooooooOoooooXOOXOOXXo+@++Oooo+oooooo      ooXOOXOOXXo+@++O",
"      oooo  O ooooooooooooOO@+OOOooOooooooooOoooooooooooooOO@+OOOooOoooo         oooooooooOO@+OO",
"    Xoooo   OXXXooooooooO++@XXXXoooOXoooooooOXXoooooooooO++@XXXXoooOXo               oooO++@XXXX",
"   ooooooo        oooOoO+@@+OoXXXooooooooooooooooooooOoO+@@+OoXXXooooooo           ooOoO+@@+OoXX",
"   oooooooooo       oOXoXO+OOXoooooooooooooooooooooooOXoXO+OOXooooooooooooo     oooooOXoXO+OOX  ",
"    oOO+oooooooooo+oooooooXOOXXooooooOO+oooooooooo+oooooooXOOXXooooooOO+oooooooooo+oooooooXOOXX ",
"    O+@+OXo+@Ooooo+oooooooooOoXooOooO+@+OXo+@Ooooo+oooooooooOoXooOooO+@+OXo+@Ooooo+oooooooooO X ",
"   ooXXOOXOO+OOoooOXXoooOooooooooOoooXXOOXOO+OOoooOXXoooOooooooooOoooXXOOXOO+OOoooOXXoooOooo    ",
"  ooooXXoXOOXooooooooo+ooOoooooooOooooXXoXOOXoooooo   +  OoooooooOooooXXoXOOXo      oo+ooOo     ",
"  XX+@OXoXoXXXXooOoooo+ooOXo  O oOXX+@OXoXoXXXXo O    +ooOXoooOooOXX+@OXoXoXXXX  Ooooo+ooOX     ",
"   OO+OoO+@+ooooo+ooOoOXo     O  ooOO+OoO+@+ooooo+ooOoOXoo    O oooOO+OoO+@+o   o+ooOoOXoo      ",
"   OO  o+@@++oooo+oOoo       oOXXooOO   +@@++oooo+oOooo      oOXXooOOXXXO@@++oooo+oOoooo        ",
"         X+OOXoooOoOoooooooOoooo  oO     X+OOXoo O O            o oOXX   X+OOXoooOoOooo ooo     ",
"          XOOXXooOXOXoO+Ooo+Ooo           XOOXXooOXOX              XX     XOOXXo OXOX           ",
"            O X   oooooO@+o@+o              OoXo                            O                   ",
"                    ooXX+OO+O.X.                                                                ",
"                     ooXOOXOOX.                                                                 ",
"                        XoXO                                                                    ",
"                                                                                                "
};
