/* XPM */
static char *cc620b2b11714c2fd1f5bbea66b9ccbaznNIhFhb1HHtRKVv[] = {
/* columns rows colors chars-per-pixel */
"96 128 10 1 ",
"  c None",
". c #674937",
"X c #73533C",
"o c #255D43",
"O c #2C6B48",
"+ c #815E43",
"@ c #8E6444",
"# c #438144",
"$ c #4E964F",
"% c #51A64A",
/* pixels */
"+++@@+++++++++++++++++++++++++++                                +++OOOO###$oO#$#OooooOo#$#O+++++",
"+++++++++XX+@@@@++++++++++++++++                                +O#OOO##$$%#o##oooooOOOooO++++++",
"@+++++@@@@@@@+++++++@@@@+++XX+@@                                OO#oOOOoo##$oOO#$$%#ooOO+++XX+@@",
"++@@@@@@@+++++++++++++++++@@@@@+                                OOOOOOOOOOoOOOO##%$$#oooO+$@@@@+",
"++++++++++@@@@@++XXX+@@+++++++++                                %$OOOOOOOOOO$#OOO##$##oOO$+++++%",
"+@@++++@@@@@+++++@@@@@++++++++++                                $#$OOO$%#OO#%$#OOOOOOOOOO#OOOO#%",
"++++@@@@@@++@@@++++++++@@@++++++                                $$##O$#$OOO$%%$oOOOOOOOOO#ooOO##",
"@@@@@@@@+++++++++++++++++++++XX+                                oo##o##OooO$#oooOOO#OOOOOOOOO#Oo",
"X++@@@++++++++++++@@@++++XXXXXXX                                $oo#o#ooooo#ooOOOOOO#OO#OOOOOOoO",
"@@@@++++++++++++O+++++++++++@@@@                                $OOOOOOOOOOOOOOOOOOO#OO#OOOOOOOO",
"+++@@@@@@+++XXX+@+++++++++++++++                                #oOOOOOOO$OOO#OOOOOO#oo%%$#OOOOO",
"@@@@@@++OOXXXXXO+@@++@@++++++++@                                OOOOOOOO#OOOO#oO#$%$OO$$%$OOOOOO",
"+++++++++++OOOOOOOOO++++++++++++                                OO$OOOOO#ooOOOOOOo$##o#$$#O%$##O",
"@++++++OOOOO#OOOOXXX+++XXXXXX+@@                                OOO$OOOOOOOO#OOOOOo##o##ooO$%$$#",
"+++++@@++OOO#O@+OOOOOOOXX+@@@@@@                                #OO#OOOOOOOO#OOOOOOOOOOOOO##%$##",
"++++++++OOOO#o.XOOOOOXX+#$$%@+++                                OOO#oOOOOOOO#ooOOOOOOOOO#$$%oooo",
"+++OOOOOOOXXXXXXXX+OO#O#$%%$#O..                                oOOOOOOOOOOOOOOOOOOOO#O#$%%$#Ooo",
"XX@OOOOOOOOOOXXXOOOOO#oOo#$##.+X                                OOOOOOOOOOOOOOOOOOOOO#oOo#$##oOO",
"+@++O##$OOOOOOOOOO$OOOOOOOo##..+                                OOOOO##$OOOOOOOOOO$OOOOOOOo##ooO",
"XXXX#$%$#oO$%#OOOO$OOOOOOOOO#X.X                                O#OO#$%$#oO$%#OOOO$OOOOOOOOO#OoO",
"@@@OOoo##o##$##OOO#ooOOO#OOOXXX+                                O#OOOoo##o##$##OOO#ooOOO#OOOOOOO",
"++OOOOooOo##oOOO++++OO$OO#OX+@@@                                O#OOOOooOo##oOOOOOOOOO$OO#OOOOOO",
"++..$%#oOoOooooO+#OOOO$OO#.+++++                                O#oo$%#oOoOooooOO#OOOO$OO#oOOO#O",
"+++##$#O#$%$OOOOO$OO#O#oOOX+@@++                                OOO##$#O#$%$OOOOO$OO#O#oOOO+@O#O",
"+++##@+O$%%$$OOOO$O#OOOO@@@@@@@@                                oOO##OOO$%%$$OOOO$O#OOOOOOOOOO#o",
"++++@++++.$##oOOO#O#OOO@OOO+++++                                OOO#OOOOOo$##oOOO#O#OOOOO+++++++",
"++++++@@@@.##.oO+#.#.@++++++++++                                ++OOOOOOOOo##ooOO#o#oO#$#OO+++++",
"++@@@@@@@+++#@.@++++++++++++++++                                OOOO#OOO#OOO#OoOOOOOOOO#%$O+++++",
"@@@@@++XXX+++++++++++XXXXXXX+@@@                                @@@OO#OO#O#OOOOOOOOOOOoo$##.+@@@",
"XXXXXXX@@+++@@++++++++@XX++@@@+X                                XXXXO#OO#o#OOOOOOOOOOOOo##...@+X",
"XXXX@@++++++++++@@@@@@@@@@@@++++                                XXXX@#ooOO#ooO%%##OOOOOOoO@@++++",
"++@@+++++++@@@@@@@@@@+++++++++++                                ++@@++OOOOOOO$$%#OOOO+++++++++++",
"+++@@++++++++++++++++++++++++++++++@@++++++++++++++++++++++++++++++@@+++++++++++++++++++++++++++",
"+++++++++XX+@@@@+++++++++++++++++++++++++XX+@@@@+++++++++++++++++++++++++XX+@@@@++++++++++++++++",
"@+++++@@@@@@@+++++++@@@@+++XX+@@@+++++@@@@@@@+++++++@@@@+++XX+@@@+++++@@@@@@@+++++++@@@@+++XX+@@",
"++@@@@@@@+++++++++++++++++@@@@@+++@@@@@@@+++++++++++++++++$@@@@+++@@@@@@@+++++++++++++++++@@@@@+",
"++++++++++@@@@@++XXX+@@++++++++%%$++++++++@@$#@++XXX+@@++$+++++%%$++++++++@@@@@++XXX+@@+++++++++",
"+@@++++@@@@@+++++@@@@@++++++++#%$#$+++$%#@@#%$#++@@@@@+++#OO++#%$#$+++$%#@@@+++++@@@@@++++++++++",
"++++@@@@@@++@@@++++++++@@@+++O##$$##O$#$OOO$%%$oOO+++++OO#ooOO##$$##O$#$O@++@@@++++++++@@@++++++",
"@@@@@@@@++++++++++++++OO+OOOO#Oooo##o##OooO$#ooo.OO#OO+++OOOO#Oooo##o##OooOOO++++++++++++++++XX+",
"X++@@@++++++++++++@@@++++XXOOOoO$oo#o#ooooo#oo.+++@@#+O#OOOOOOoO$oo#o#ooooo+++++++@@@++++XXXXXXX",
"@@@@+++++++++++++OOO++O#OOOOOOOO$OOOOOOOOOOO+++++++O#OO#OOOOOOOO$OOOOOOOOOOOOO+OO+++++++++++@@@@",
"+++@@@@@@+++XXX+@++++oo%%$#OOOOO#oOOOOOOO$OOO#OOOOOO#oo%%$#OOOOO#oOOOOOOO$OOO#O+@+++++++++++++++",
"@@@@@@++OOXXXXXO#$%$OO$$%$OOOOOOOOOOOOOO#OOOO#oO#$%$OO$$%$OOOOOOOOOOOOOO#OOOO#oO+@@++@@++++++++@",
"+++++++++++OOOOOOo$##o#$$#O%$##OOO$OOOOO#ooOOOOOOo$##o#$$#O%$##OOO$OOOOO#o.+@@@OOOOO++++++++++++",
"@++++++OOOOO#OOOOOo##o##ooO$%$$#OOO$OOOOOOOO#OOOOOo##o##ooO$%$$#OOO$OOOOO++X#OOOOXXX+++XXXXXX+@@",
"+++++@@++OOO#O@++OOOOOOOOO##%$###OO#OOOOOOOO#OOOOOOOOOOOOO##%$###OO#OOOOOOOO#OOOOOOOOOOXX+@@@@@@",
"++++++++OOOO#o.XXXXOOOOO#$$%ooooOOO#oOOOOOOO#ooOOOOOOOOO#$$%ooooOOO#oOOOOOOO#ooOOOOOOXX+#$$%@+++",
"++++XXXOOOOOXXXXXOOOO#O#$%%$#OoooOOOOOOOOOOOOOOOOOOOO#O#$%%$#OoooOOOOOOOOOOOOOOOOOOOO#@#$%%$#+++",
"XX@+++OOOOOOOOOOOOOOO#oOo#$##oOOOOOOOOOOOOOOOOOOOOOOO#oOo#$##oOOOOOOOOOOOOOOOOOOOOOOO#oOo#$##.+X",
"+@++@##$OOOOOOOOOO$OOOOOOOo##ooOOOOOO##$OOOOOOOOOO$OOOOOOOo##ooOOOOOO##$OOOOOOOOOO$OOOOOOO.##...",
"XXXX#$%$#oO$%#OOOO$OOOOOOOOO#OoOO#OO#$%$#oO$%#OOOO$OOOOOOOOO#OoOO#OO#$%$#oO$%#OOOO$OOOOOOO..#.XX",
"@@@@Ooo##o##$##OOO#ooOOO#OOOOOOOO#OOOoo##o##$##OOO#ooOOO#OOOOOOOO#OOOoo##o##$##OOO#ooOOO#.XXXXX+",
"++@@OOooOo##oOOOOOOOOO$OO#OOOOOOO#OOOOooOo##oOOOOOOOOO$OO#OOOOOOO#OOOOooOo##oOOOOOOOOO$OX#XX+@@@",
"++++$%#oOoOooooOO#OOOO$OO#oOOO#OO#oo$%#oOoOooooOO#OOOO$OO#oOOO#OO#oo$%#oOoOooooOO#OOOO$OO#.+++++",
"+++##$#O#$%$OOOOO$OO#O#oOOOOOO#OOOO##$#O#$%$OOOOO$OO#O#oOOOOOO#OOOO##$#O#$%$OOOOO$OO#O#oOOO+@@++",
"+++##OOO$%%$$OOOO$O#OOOOOOOOOO#ooOO##OOO$%%$$OOOO$O#OOOOOOOOOO#ooOO##OOO$%%$$OOOO$O#OOOOO@@@@@@@",
"+++#@++OOo$##oOOO#O#OOOOOOO#OOOOOOO#OOOOOo$##oOOO#O#OOOOOOO#OOOOOOO#OOOOOo$##oOOO#O#OOOOOOO#++++",
"++++++@@OOo##ooOO#o#oO#$#OO$#OOOOOOOOOOOOOo##ooOO#o#oO#$#OO$#OOOOOOOOOOOOOo##ooOO#o#oO#$#OO$#+++",
"++@@@@@@#OOO#OoOOOOOOOO#%$O%$O#OOOOO#OOO#OOO#OoOOOOOOOO#%$O%$O#OOOOO#OOO#OOO#OoOOOOOOOO#%$O%$+++",
"@@@@@++X#O#OOOOOOOOOOOoo$##$#o##OO#OO#OO#O#OOOOOOOOOOOoo$##$#o##OO#OO#OO#O#OOOOOOOOOOOoo$##$#.@@",
"XXXXXXX@#o#OOOOOOOOOOOOo##o##o$%Oo#OO#OO#o#OOOOOOOOOOOOo##o##o$%Oo#OO#OO#o#OOOOOOOOOOOOo##o##..X",
"XXXX@@++OO#ooO%%##OOOOOOoOo#o$#$oo#oO#ooOO#ooO%%##OOOOOOoOo#o$#$oo#oO#ooOO#ooO%%##OOOOOOoOo#.+++",
"++@@+++OOOOOO$$%#O@@@#$$#oOOo#$#oOOOOOOOOOOOO$$%#OOOO#$$#oOOo#$#oOOOOOOOOOOOO$$%#OOOO#$$#oOO++++",
"+++@@+O###$oO#$#OooooOo#$#OOoOooOOOOOOO###$oO#$#OooooOo#$#OOoOooOOOOOOO###$oO#$#Ooooo+++++++++++",
"++++++##$$%#o##oooooOOOooOOOOOOOOO#OOO##$$%#o##oooooOOOooOOOOOOOOO#OOO##$$%#o##ooooo++++++++++++",
"@+++++Ooo##$oOO#$$%#ooOOOOOOOOOOOO#oOOOoo##$oOO#$$%#ooOOOOOOOOOOOO#oOOOoo##$oOO#$$%#oo@@+++XX+@@",
"++@@@@@OOOoOOOO##%$$#oooOO$OOOOOOOOOOOOOOOoOOOO##%$$#oooOO$OOOOOOOOOOOOOOOoOOOO##%$$#ooo++@@@@@+",
"+++++++++OOO$#OOO##$##oOO$OOOOO%%$OOOOOOOOOO$#OOO##$##oOO$OOOOO%%$OOOOOOOOOO$#OOO##$##o+++++++++",
"+@@++++@@@O#%$#OOOOOOOOOO#OOOO#%$#$OOO$%#OO#%$#OOOOOOOOOO#OOOO#%$#$OOO$%#OO#%$#OOOOOO@++++++++++",
"++++@@@@@@O$%%$oOOOOOOOOO#ooOO##$$##O$#$OOO$%%$oOOOOOOOOO#ooOO##$$##O$#$OOO$%%$oOOOO+++@@@++++++",
"@@@@@@@@++O$#oooOOO#OOOOOOOOO#Oooo##o##OooO$#oooOOO#OOOOOOOOO#Oooo##o##OooO$#oooOOO#OOO++++++XX+",
"X++@@@+++++#ooOOOOOO#OO#OOOOOOoO$oo#o#ooooo#ooOOOOOO#OO#OOOOOOoO$oo#o#ooooo#ooOOOOOO#OO#OXXXXXXX",
"@@@@+++++++OOOOOOOOO#OO#OOOOOOOO$OOOOOOOOOOOOOOOOOOO#OO#OOOOOOOO$OOOOOOOOOOOOOOOOOOO#OO#OO++@@@@",
"+++@@@@@@++OO#OOOOOO#oo%%$#OOOOO#oOOOOOOO$OOO#OOOOOO#oo%%$#OOOOO#oOOOOOOO$OOO#OOOOOO#oo%%$#+++++",
"@@@@@@++++XOO#oO#$%$OO$$%$OOOOOOOOOOOOOO#OOOO#oO#$%$OO$$%$OOOOOOOOOOOOOO#OOOO#oO#$%$OO$$%$O++++@",
"+++++++++++OOOOOOo$##o#$$#O%$##OOO$OOOOO#ooOOOOOOo$##o#$$#O%$##OOO$OOOOO#ooOOOOOOo$##o#$$#O%$##+",
"@++++++++++O#OOOOOo##o##ooO$%$$#OOO$OOOOOOOO#OOOOOo##o##ooO$%$$#OOO$OOOOOOOO#OOOOOo##o##ooO$%$$#",
"+++++@@++@@O#OOOOOOOOOOOOO##%$###OO#OOOOOOOO#OOOOOOOOOOOOO##%$###OO#OOOOOOOO#OOOOOOOOOOOOO##%$##",
".++++++++++O#ooOOOOOOOOO#$$%ooooOOO#oOOOOOOO#ooOOOOOOOOO#$$%ooooOOO#oOOOOOOO#ooOOOOOOOOO#$$%oo++",
"++++XXXXXXOOOOOOOOOOO#O#$%%$#OoooOOOOOOOOOOOOOOOOOOOO#O#$%%$#OoooOOOOOOOOOOOOOOOOOOOO#O#$%%$#+++",
"XX@++++++OOOOOOOOOOOO#oOo#$##oOOOOOOOOOOOOOOOOOOOOOOO#oOo#$##oOOOOOOOOOOOOOOOOOOOOOOO#oOo#$##o+X",
"+@++@##$OOOOOOOOOO$OOOOOOOo##ooOOOOOO##$OOOOOOOOOO$OOOOOOOo##ooOOOOOO##$OOOOOOOOOO$OOOOOOOo##oo+",
"XXXX#$%$#oO$%#OOOO$OOOOOOOOO#OoOO#OO#$%$#oO$%#OOOO$OOOOOOOOO#OoOO#OO#$%$#oO$%#OOOO$OOOOOOOOO#XoX",
"@@@@@oo##o##$##OOO#ooOOO#OOOOOOOO#OOOoo##o##$##OOO#ooOOO#OOOOOOOO#OOOoo##o##$##OOO#ooOOO#XXXXXX+",
"++@@++ooOo##oOOOOOOOOO$OO#OOOOOOO#OOOOooOo##oOOOOOOOOO$OO#OOOOOOO#OOOOooOo##oOOOOOOOOO$OO#XX+@@@",
"++++$%#oOoOooooOO#OOOO$OO#oOOO#OO#oo$%#oOoOooooOO#OOOO$OO#oOOO#OO#oo$%#oOoOooooOO#OOOO$OO#o+++++",
"+++##$#O#$%$OOOOO$OO#O#oOOOOOO#OOOO##$#O#$%$OOOOO$OO#O#oOOOOOO#OOOO##$#O#$%$OOOOO$OO#O#oOOO+@@++",
"+++##@+O$%%$$OOOO$O#OOOOOOOOOO#ooOO##OOO$%%$$OOOO$O#OOOOOOOOOO#ooOO##OOO$%%$$OOOO$O#OOOOOO@@@@@@",
"+++#@+++Oo$##oOOO#O#OOOOOOO#OOOOOOO#OOOOOo$##oOOO#O#OOOOOOO#OOOOOOO#OOOOOo$##oOOO#O#OOOO@++#++++",
"++++++@@OOo##ooOO#o#oO#$#OO$#OOOOOOOOOOOOOo##ooOO#o#oO#$#OO$#OOOOOOOOOOOOOo##ooOO#o#oO#$#O+$#+++",
"++@@@@@@#OOO#OoOOOOOOOO#%$O%$O#OOOOO#OOO#OOO#OoOOOOOOOO#%$O%$O#OOOOO#OOO#OOO#OoOOOOOOOO#%$O%$+++",
"@@@@@++X#O#OOOOOOOOOOOoo$##$#o##OO#OO#OO#O#OOOOOOOOOOOoo$##$#o##OO#OO#OO#O#OOOOOOOOOOOoo$##$#o@@",
"XXXXXXX@#o#OOOOOOOOOOOOo##o##o$%Oo#OO#OO#o#OOOOOOOOOOOOo##o##o$%Oo#OO#OO#o#OOOOOOOOOOOOo##o##o+X",
"XXXX@@+oOO#ooO%%##OOOOOOoOo#o$#$oo#oO#ooOO#ooO%%##OOOOOOoOo#o$#$oo#oO#ooOO#ooO%%##OOOOOOoOo#o+++",
"++@@++OOOOOOO$$%#OOOO#$$#oOOo#$#oOOOOOOOOOOOO$$%#OOOO#$$#oOOo#$#oOOOOOOOOOOOO$$%#OOOO#$$#oOO++++",
"+++@@+O###$oO#$#Ooo..Oo#$#OOoOooOOOOOOO###$oO#$#OooooOo#$#OOoOooOOOOOOO###$oO#$#OooooOo#$#O+++++",
"+++++O##$$%#o##oo...+++ooOOOOOOOOO#OOO##$$%#o##oooooOOOooOOOOOOOOO#OOO##$$%#o##oooooOOOooO++++++",
"@+++++Ooo##$oOO#$$%#ooOOOOOOOOOOOO#oOOOoo##$oOO#$$%#ooOOOOOOOOOOOO#oOOOoo##$oOO#$$%#ooOOOO+XX+@@",
"++@@@@@@OOoOOOO##%$$#oooOO$OOOOOOOOOOOOOOOoOOOO##%$$#oooOO$OOOOOOOOOOOOOOOoOOOO##%$$#oooOO$@@@@+",
"++++++OOOOOO$#OOO##$##oOO$OOOOO%%$OOOOOOOOOO$#OOO##$##oOO$OOOOO%%$OOOOOOOOOO$#OOO##$##oOO$++++++",
"+@@++++@@@O#%$#OOOOOOOOOO#OOOO#%$#$OOO$%#OO#%$#OOOOOOOOOO#OOOO#%$#$OOO$%#OO#%$#OOOOOOOOOO#++++++",
"++++@@@@@@+$%%$oOOOOOOOOO#ooOO##$$##O$#$OOO$%%$oOOOOOOOOO#ooOO##$$##O$#$OOO$%%$oOOOOOOOOO#..++++",
"@@@@@@@@+++$#oooOOO#OOOOOOOOO#Oooo##o##OooO$#oooOOO#OOOOOOOOO#Oooo##o##OooO$#oooOOO#OOOOOO+++XX+",
"X++@@@++++o#ooOOOOOO#OO#OOOOOOoO$oo#o#ooooo#ooOOOOOO#OO#OOOOOOoO$oo#o#ooooo#ooOOOOOO#OO#OOXXXXXX",
"@@@@++++OOOOOOOOOOOO#OO#OOOOOOOO$OOOOOOOOOOOOOOOOOOO#OO#OOOOOOOO$OOOOOOOOOOOOOOOOOOO#OO#OOO+@@@@",
"+++@@OOOO$OOO#OOOOOO#oo%%$#OOOOO#oOOOOOOO$OOO#OOOOOO#oo%%$#OOOOO#oOOOOOOO$OOO#OOOOOO#oo%%$#+++++",
"@@@@@@+O#OOOO#oO#$%$OO$$%$OOOOOOOOOOOOOO#OOOO#oO#$%$OO$$%$OOOOOOOOOOOOOO#OOOO#oO#$%$OO$$%$O++++@",
"+++OOOOO#ooOOOOOOo$##o#$$#O%$##OOO$OOOOO#ooOOOOOOo$##o#$$#O%$##OOO$OOOOO#ooOOOOOOo$##o#$$#O%$##+",
"@++++OOOOOOO$OOOOOo##o##ooO$%$$#OOO$OOOOOOOO#OOOOOo##o##ooO$%$$#OOO$OOOOOO+XXXXXOOo##o##ooO$%$$#",
"+++++@OOOO@@#@OOOOOOOOOOOO##%$###OO#OOOOOOOO#OOOOOOOOOOOOO##%$###OO#OOOO+@@@@@@++OOOOOOOOO##%$##",
"++++.OOOO+++#..oOOOOOOOO#$$%ooooOOO#oOOOOOOO#ooOOOOOOOOO#$$%ooooOOO#oO++++++++XXXXXXXOOO#$$%....",
"+++OOOOOOOXXXXXXXXOOO#O#$%%$#OoooOOOOOOOOOOOOOOOOOOOO#O#$%%$#OoooOOOOOOOXXXXXXXXXX+OO#O#$%%$#O..",
"XX@OOOOOOOOOOXXXX+@@O#oOo#$##oOOOOOOOOOOOOOOOOOOOOOOO#oOo#$##oOOOOOOOOOOOOOXXXXXOOOOO#oOo#$##.+X",
"+@++O##$OOOOOOOOOO$OOOOOOOo##ooOOOOOO##$OOOOOOOOOO$OOOOOOOo##ooOOOOOO##$OOOOOOOOOO$OOOOOOOo##..+",
"XXXX#$%$#oO$%#OOOO$OOOOOOOOO#OoOO#OO#$%$#oO$%#OOOO$OOOOOOOOO#OoOO#OO#$%$#oO$%#OOOO$OOOOOOOOO#X.X",
"@@@OOoo##o##$##OOO#ooOOO#OOOOOOOO#OOOoo##o##$##OOO#ooOOO#OOOOOOOO#OOOoo##o##$##OOO#ooOOO#OOOXXX+",
"++OOOOooOo##oOOOOOOOOO$OO#OOOOOOO#OOOOooOo##oOOOOOO+++$XX#OOOOOOO#OOOOooOo##oO++++++OO$OO#OX+@@@",
"++..$%#oOoOooooOO#OOOO$OO#oO++#+O#oo$%#oOoOooooO+#++++$OO#oOOO#OO#oo$%#oOoOo...++#OOOO$OO#.+++++",
"+++##$#O#$%$OOOOO$OO#O#oOXX+@@#++OO##$#O#$%$OOOOO$OO#O#oOOX+@@#+OOO##$#O#$%$O+++O$OO#O#oOOX+@@++",
"+++##@+O$%%$$OOOO$O#OO@@@@@@@O#ooOO##@++$%%$$OOOO$O#OOO@@@@@@O#ooOO##...#%%$$OOOO$O#OOOO@@@@@@@@",
"++++@++++.$##oOOO#O#OOOOOOO#OOOO++O#@++++o$##oOOX#X#@@@@@+++++++O+O#..+++.$##.OOO#O#OOO@OOO+++++",
"++++++@@@@.##.oOO#o#oO#$#OO$#OO+++++++@@@@o##ooOO#.#.@+++++++++++++..+@@@@.##..O+#.#.@++++++++++",
"++@@@@@@@+++#@.@++OOOOO#%$O%$O++++@@@@@@@+++#OoO++++++++++++++++++@@@@@@@+++#@X@++++++++++++++++",
"@@@@@++XXX++++++++++OOoo$##$#X.X@@@@@++XXX+++++++++++XXXXXXX+@@@@@@@@++XXX+++++++++++XXXXXXX+@@@",
"XXXXXXX@@+++@@+++++++OOo##o##.XXXXXXXXX@@+++@@++++++++@XX++@@@+XXXXXXXX@@+++@@++++++++@XX++@@@+X",
"XXXX@@++++++++++@@@@@@@@.O.#++++XXXX@@++++++++++@@@@@@@@@@@@++++XXXX@@++++++++++@@@@@@@@@@@@++++",
"++@@+++++++@@@@@@@@@@+++++++++++++@@+++++++@@@@@@@@@@+++++++++++++@@+++++++@@@@@@@@@@+++++++++++"
};
