/* XPM */
static char *_0d3f001d9de4aa7878e2a41c35e75cfPqN43LtJGbJvwcJB[] = {
/* columns rows colors chars-per-pixel */
"96 128 5 1 ",
"  c None",
". c #255D43",
"X c #317448",
"o c #3E904C",
"O c #51A64A",
/* pixels */
"                                                                  XoooXXX.........OOOo.oOOOooOO ",
"                                                                oXooooooooo.......OOo....OOooOOO",
"            OO  o                                               OoXooooOOooo.......o...oo..oXoOO",
"            OOOOoo    OOOO                                      Oooo.XoOOooo..........ooOOXXXooo",
"             OOXoooX OOOO                                       ooOOo.Xooooo........XXoOOOoXXXoX",
"      OOO  oooXXooXXoOOO                                        XoOOo....oo........XXXoOOoXooXXX",
"       OOOoOOooXXXooXoOOo                                       oXoo.oo.XX.........XX....XoOOoXX",
"        OOoOOOoooooOOXooo                                       ooXXooooXXX.............XXoOOOoX",
"        XXXoOOooXoOOOXXoX                                       oXo..ooo.XX..............XXoOO.X",
"       XoOOoXoooXXOOoXXXX                                       .ooo.XoX...................Xo...",
"      oOOOOoOOooXXXoXXXoOOOo                                    .ooo..XX........................",
"     XoOOOooOOOooXXooXoOOOOoo                                   ..o.XX..........................",
"   ooooooooooOOooXOOoooOOooo                                    ...XXX..........................",
"  oOOooXXooXXooo.oOOOoXoXXXX                                    ...XX...........................",
"  oOOOoXooOOo.oo.ooOOoOOXXoOOO                                  ................................",
"  ooOOoo.OOOoooo..oooOOOooOOOOO                                 ................................",
"   XXoOOOoX...o.X.OOXXXooXXO .                                  ................................",
"    XXoOOXo..ooo.oOOOXXooOOX .                                  ................................",
"     XXooooo.ooo.ooOOXooOOOo X                                  ................................",
"     XoooOOooXo...ooXoooOOo  X                                  ................................",
"     oOOoOOOoXoooXXXXOOooOOo X                                  ...ooXX.........................",
"    oOOOooOOooOOooXXXOOOoOOO X                                  oo.oooX.........................",
"    oOOoooooooOOOooXooOOooOOoX                                  oOOXoo...............X.........o",
"    XooXooOOoooOOoooXoooo oo X                                  OOOXXX...XX..........XX.OO..XXoO",
"     XXXoOOOoXoooooXooOOo    X                                  OOoooOOoXXX...........XOOO..XXoO",
"     . X OOoXXXoooX.oOOOoo  X                                   oo..OOOooX.........XX.oOOoo..XXo",
"     .   .oXXooOXX..oOOoo   X                                   .ooXOOoOo..........XXX.oooXXXooX",
"     X   .  ooOOXX . oo.    X                                   oOOoooOoo...........ooXXXXXooOOo",
"     X   X   oOO   .   X   X                                    oOOOoooo...........ooooXXXooOOOo",
"     X   X    Xo   X    X  X                                    XoOOoXX.ooX.........oooXooXoOOoX",
"   X X   X     X   X     XX                                      XooooXooooX........ooOOoooXXoX ",
"   .X          X   X                                              ooOOoXooXX.....XX..OOOoOOoooo ",
"                     OOo    OO              oo     o      o       O    O                        ",
"                 oo  OOOo  OOOo  OO   OOo  OOoo   ooo   oOOo     OOo  oOOo                      ",
"            OO  ooooXoOOoooOOooXOOOoXoOOooXOOooXooOOoXXooOOoXXXOoOOOooOOOooX   oo               ",
"            OOOOooooXXoooXooooXXOOooXooooooXooooooOOooXooooXXooOooOOooOOooXooXoooo    OOOO      ",
"             OOXoooXOOooooXooXoXXooOOXooOOooOOoooooooXXXoooXooooXoooooooXXoOOoXooooX OOOO       ",
"      OOO  oooXXXoXoOOOooOOXXoOOooOOOoXOOOoXOOOoooOOoXooooooOooXoXXoOOoooXoOOOoXooXXoOOO        ",
"       OOOoOOooXoo.ooOOooOOO.oOOOoOOoooOOooooOOXoOOOooooOOoOooXoooX.OOoOOXooOOooXXooXoOOo       ",
"        OOoOOOoooooXooooooOO.ooOOoooOOoXoooXXoXXXOOoOoooOOooXXooOOo.oooOOXXooooooooOOXooo       ",
"        XXXoOOooooo.oXXooooX..ooooooOOXXXXXXoXXoXXXooOooooooXXXoOOOo.oooXoOOooooXoOOOXXoX       ",
"       XoOOoXooooo.ooooOOooX...XXooXXXXXXXXooooXXX..ooX..ooXXXX.XOOoo.XXoOOOooXXXXOOoXXXX       ",
"      oOOOOoOOoo.X..oooOoo..XX..XXXXXXoOXXXoooXXX..o.X.oX........oooXXXXoOOoXXooXXXoXXXoOOOo    ",
"     XoOOOooOOOo..X.XXooo...XX......XoOo...Xo..........XoX...XX...oX.oo..ooXX.oooXXooXoOOOOoo   ",
"   ooooooooooOOoo......XX...XX......XooX................XX..XXX...X..ooo..XX..XooXOOoooOOooo    ",
"  oOOooXXooXXoooooX...XooX...........XX.....................XX........oo......XX.oOOOoXoXXXX    ",
"  oOOOoXooOOo.oooXXX..oooX...........................................XXX....XX...ooOOoOOXXoOOO  ",
"  ooOOoo.OOOoooooXX...ooX............................................XX.....XXX...oooOOOooOOOOO ",
"    ooOOoOOoooXo.............................................................XX....XoOOoooOOo   ",
"  oOOoOOoooooX....................................................................ooXoooXoooo   ",
" oOOOoooXXOoX....................................................................oOOoX..XXooX   ",
" oOOXXXXXOoo.XXX.................................................................oOOOo.ooXXXoOO ",
"   XooOOXoOOoXXX.................................................................ooOOoooOOXoOOOo",
"   ooOOOXoOoo.XX..................................................................ooo.XoOOOoOOoo",
"   oXOOoXXooX....................................................................XXXXXoXoOOXOoo ",
"   XXXXX..oXXX...................................................................XX..oOOoooooo  ",
"   ooXoOO..XoXX....................................................................oXoOOOooOOoo ",
"  oOOoOOOoXXXoX...................................................................oOO.oOOoOOOo  ",
"  oOOoOOooX..XX..................................................................oOOO.XoooOOoX  ",
"  oooXooooXo.....................................................................oOOoXXoooooXoo ",
"   XooXXXXX.......................................................................ooXXooOOoXoooo",
"   oooXOOoX.XXX.....................................................................ooXoOOOoXoo ",
"   ooXoOOoX.XX.....................................................................oOOoXoOOooX  ",
"   XoooOOXX......................................................................XXoOOOXXooooo  ",
"   XOOOoXoo......................................................................ooXoOOooOOOo   ",
"  XXoOOooooo......................................................................XXXXXXooOOoo  ",
"  XXXoooXoo.......................................................................XXXoOOXooooo  ",
"  OOoooXXXXX......................................................................X.oOOOooooo   ",
" oOOOoXOOoXX.......................................................................XoOOooooXX   ",
" ooOOoOOOooX......................................................................XXooooXoooOO  ",
"  oooXOOooXX......................................................................XoooXOOooOOO  ",
"  XXXXoooXX.......................................................................XXoXXOOOoOOo  ",
"  OOoX..X........................................................................ooXXXXXOOoooo  ",
"  OOOoXXX.XX....................................................................ooooXooXoOOoo   ",
"  oOOoXOOXXX....................................................................oooXooooOOOoX   ",
"   ooXoOOoX......................................................................oXXXoooOOooOO  ",
"   XX.XooX.X......................................................................XX.OOoooooOOO ",
"   ooX.XXoXXX.......................................................................OOOooooooOO ",
"  ooooXOOooXX......................................................................XOOooXXoooo  ",
"   ooXOOOooXX......................................................................XoooXXoOOoo  ",
"  XXXoOOooXXX......................................................................XoooXooOOOoo ",
"  XOOooooX.XX.......................................................................XoX.oooOOoo ",
"  OOOoOOXXX.X......................................................................XXX.XXOOooOO ",
"  OOoXOOOXXX.......................................................................ooooXOOOoOOO ",
"  XoXXoOOoXX......................................................................ooooooOOooOO  ",
"  XooXoooX........................................................................oooooooooooo  ",
"  oOOoXo..XX.......................................................................oXXoXoooOOOo ",
" oOOOoOOXooX.......................................................................XoOOXoooOOOO ",
" oOOoOOOoooo.......................................................................ooOOOooooOOO ",
"  oooOOoOOoX.......................................................................XooOOooXXo O ",
"  XXXoooOOOX.......................................................................XoooooXoXX   ",
"  ooXOOXXOO........................................................................XoooXXoOOX   ",
" OOooOOOXooo.......................................................................XXoXXoOOOo   ",
" OOOooOOXooo.......................................................................XXXXooOOoX   ",
" oOOXoooXXo........................................................................ooXooooXXXX  ",
" XoXXooooXX.......................................................................oOOoooOOooXX  ",
"  XooOOooX......................................................................XXX..OOooOOoXo  ",
"   XoOooXoOOO...................................................................XX..XXXoOOOooX  ",
"  OOooooXXoOoX......................................................................XX.XOOooOOo ",
" oOoooOOoXXooX........................................................................XXoooOOOo ",
" oooooOOoo.XX.........................................................................XXXooOOoX ",
"  oOOXoOOoX...........................................................................X...ooXX  ",
"  oOooXooXXX......................................................................XX...XXooooX  ",
" oooooX.XX..XX....................................................................XXX.ooXoOOoo  ",
"  oOOoXXXoX.oXX....................................................................XXooOOoOOOoo ",
"  XOOOoXooo.XXX......................................................................oOOOooOOoX ",
"  XXOOoooOOo........................................................................XoOOooooooo ",
"   XXoooOOOoo......................................................................oXXooXXXXooX ",
"  OOXXXoOOooo.X...................................................................oooXX.ooo.X.  ",
" oOOoXXXoooOooXX..................................................................oooXXooOOoX.  ",
" XooXXoXooOooo.....................................................................oX.XoOOOoX.  ",
"  XXXoOOoooXo...o..............................................................oX..XXXooOOoXX.  ",
"   XXoOOOoX...o................................................................XX.OOXXXooXXO .  ",
"    XXoOOXo..ooooo.XXX...XXX..........................................XX......X..oOOOXXooOOX .  ",
"     XXooooo.ooo...XX.XX.XX...........................................XXoo...XX..ooOOXooOOOo X  ",
"     XoooOOooXo....oooX.X.X.XX..............X..........XX....XX...OOo..oooX.......ooXoooOOo  X  ",
"     oOOoOOOoXooXXoOOoo.X...XXOOXX......XX.ooX..XOO.X.XXX.X.XXX...OOOo.oo.ooX..ooXXXXOOooOOo X  ",
"    oOOOooOOooOOoXoOOOo..XoOO.OOOoXoo.X.XXoOOo.XOOOoXooo..XoXX.XX.oOOo...ooooXOOooXXXOOOoOOO X  ",
"    oOOoooooooOOOXXoOOoX.oOOOooOOoOOooXo.XoOOO..OOo.oOOoo.oOO..ooXXoo..XXoooooOOOooXooOOooOOoX  ",
"    XooXooOOoooOOXOOooOOooOOooooooOOOXoooXXoOO.XXo.XoOOOooOOOoXoOoXX...ooXooXooOOoooXoooo oo X  ",
"     XXXoOOOoXoooOOOooOOoooooXXOOooOOoooooXXooooXXXXXoOO.oOOooooOOoX.oooooOOXXoooooXooOOo    X  ",
"     . X OOoXXXooOOoooooo.oXXoOOOXoooOOooXoXooOOoXooXXoXXooooXooOOXXoooooOOOooXXooX.oOOOoo  X   ",
"     .   .oXXooOOooXOOooXXoXooOOXXooOOOoXooooOOOoooooOOoXXOOoXXoXXXXoOOooOOooooXXX..oOOoo   X   ",
"     X   .  ooOOOoXOOOoXXOOooooooXXoOOoXXoOOoOOooOOooOOOoXOOOoXXXoOOoOOOoooooooXXX . oo.    X   ",
"     X   X   oOOoXXOOooXXOOOXoooXoXXoooooOOOoXooOOOo oOOoXoOOoXXoOOOooOOXoOOooo    .   X   X    ",
"     X   X    XoX  XooX  oOOo o ooo ooOOoOOoX XXOOoo  oo  oooo  oOOooo XXXOOOo     X    X  X    ",
"   X X   X     XX   XX    oo   oooo  oOO  XX    Xoo        oo    oooo      OO      X     XX     ",
"   .X          X     X                                                             X            "
};
